<?xml version="1.0" encoding="UTF-8" standalone="no"?><svg xmlns="http://www.w3.org/2000/svg" xmlns:xlink="http://www.w3.org/1999/xlink" contentStyleType="text/css" height="62px" preserveAspectRatio="none" style="width:337px;height:62px;background:#FFFFFF;" version="1.1" viewBox="0 0 337 62" width="337px" zoomAndPan="magnify"><defs/><g><!--MD5=[a059576e163b46f56762f12600c49258]
class Nurse--><g id="elem_Nurse"><rect codeLine="5" fill="#F1F1F1" height="48" id="Nurse" rx="2.5" ry="2.5" style="stroke:#181818;stroke-width:0.5;" width="69" x="7" y="7"/><ellipse cx="22" cy="23" fill="#ADD1B2" rx="11" ry="11" style="stroke:#181818;stroke-width:1.0;"/><path d="M24,19.5 Q24.2031,19 24.4375,18.75 Q24.6719,18.5 24.9375,18.5 Q25.4063,18.5 25.7031,18.7813 Q26,19.0625 26,19.7188 L26,21.2813 Q26,21.9375 25.7188,22.2188 Q25.4375,22.5 25,22.5 Q24.6094,22.5 24.3594,22.3281 Q24.1094,22.1563 24,21.7031 Q23.9531,21.3906 23.7813,21.2188 Q23.4688,20.8906 22.9063,20.7031 Q22.3438,20.5 21.7813,20.5 Q21.0781,20.5 20.4844,20.7813 Q19.9063,21.0625 19.4531,21.6875 Q19,22.3125 19,23.1719 L19,24.0938 Q19,25.125 19.8438,25.8125 Q20.6875,26.5 22.1875,26.5 Q23.0781,26.5 23.7031,26.2969 Q24.0625,26.1875 24.4688,25.8281 Q24.7344,25.625 24.875,25.5625 Q25.0156,25.5 25.1875,25.5 Q25.5156,25.5 25.75,25.7656 Q26,26.0156 26,26.375 Q26,26.7188 25.6563,27.125 Q25.1563,27.7188 24.3594,28.0469 Q23.3125,28.5 22.0313,28.5 Q20.5313,28.5 19.3281,27.9063 Q18.3594,27.4375 17.6719,26.4219 Q17,25.4063 17,24.2031 L17,23.1094 Q17,21.8594 17.5938,20.7656 Q18.2031,19.6719 19.25,19.0938 Q20.3125,18.5 21.5,18.5 Q22.2188,18.5 22.8438,18.75 Q23.4688,19 24,19.5 Z " fill="#000000"/><text fill="#000000" font-family="sans-serif" font-size="14" lengthAdjust="spacing" textLength="37" x="36" y="28.7285">Nurse</text><line style="stroke:#181818;stroke-width:0.5;" x1="8" x2="75" y1="39" y2="39"/><line style="stroke:#181818;stroke-width:0.5;" x1="8" x2="75" y1="47" y2="47"/></g><!--MD5=[7cee63e05c54fc7e82ca7f101606cdb1]
class UsersWaitingList--><g id="elem_UsersWaitingList"><rect codeLine="7" fill="#F1F1F1" height="48" id="UsersWaitingList" rx="2.5" ry="2.5" style="stroke:#181818;stroke-width:0.5;" width="137" x="193" y="7"/><ellipse cx="208" cy="23" fill="#ADD1B2" rx="11" ry="11" style="stroke:#181818;stroke-width:1.0;"/><path d="M210,19.5 Q210.2031,19 210.4375,18.75 Q210.6719,18.5 210.9375,18.5 Q211.4063,18.5 211.7031,18.7813 Q212,19.0625 212,19.7188 L212,21.2813 Q212,21.9375 211.7188,22.2188 Q211.4375,22.5 211,22.5 Q210.6094,22.5 210.3594,22.3281 Q210.1094,22.1563 210,21.7031 Q209.9531,21.3906 209.7813,21.2188 Q209.4688,20.8906 208.9063,20.7031 Q208.3438,20.5 207.7813,20.5 Q207.0781,20.5 206.4844,20.7813 Q205.9063,21.0625 205.4531,21.6875 Q205,22.3125 205,23.1719 L205,24.0938 Q205,25.125 205.8438,25.8125 Q206.6875,26.5 208.1875,26.5 Q209.0781,26.5 209.7031,26.2969 Q210.0625,26.1875 210.4688,25.8281 Q210.7344,25.625 210.875,25.5625 Q211.0156,25.5 211.1875,25.5 Q211.5156,25.5 211.75,25.7656 Q212,26.0156 212,26.375 Q212,26.7188 211.6563,27.125 Q211.1563,27.7188 210.3594,28.0469 Q209.3125,28.5 208.0313,28.5 Q206.5313,28.5 205.3281,27.9063 Q204.3594,27.4375 203.6719,26.4219 Q203,25.4063 203,24.2031 L203,23.1094 Q203,21.8594 203.5938,20.7656 Q204.2031,19.6719 205.25,19.0938 Q206.3125,18.5 207.5,18.5 Q208.2188,18.5 208.8438,18.75 Q209.4688,19 210,19.5 Z " fill="#000000"/><text fill="#000000" font-family="sans-serif" font-size="14" lengthAdjust="spacing" textLength="105" x="222" y="28.7285">UsersWaitingList</text><line style="stroke:#181818;stroke-width:0.5;" x1="194" x2="329" y1="39" y2="39"/><line style="stroke:#181818;stroke-width:0.5;" x1="194" x2="329" y1="47" y2="47"/></g><!--MD5=[a130e805f12c6caaf0787465d0f0d87e]
link Nurse to UsersWaitingList--><g id="link_Nurse_UsersWaitingList"><path codeLine="9" d="M76.08,31 C107.02,31 153.85,31 192.57,31 " fill="none" id="Nurse-UsersWaitingList" style="stroke:#181818;stroke-width:1.0;"/><polygon fill="#000000" points="116,22.1758,106.9549,19.2369,106.9549,25.1147,116,22.1758" style="stroke:#000000;stroke-width:1.0;"/><text fill="#000000" font-family="sans-serif" font-size="13" lengthAdjust="spacing" textLength="42" x="120" y="27.4951">checks</text><text fill="#000000" font-family="sans-serif" font-size="13" lengthAdjust="spacing" textLength="5" x="84.1913" y="46.2836">*</text><text fill="#000000" font-family="sans-serif" font-size="13" lengthAdjust="spacing" textLength="7" x="178.1007" y="45.3382">1</text></g><!--MD5=[039799e1158c2c4e18ec3baf2f3dfe04]
@startuml
'https://plantuml.com/class-diagram

left to right direction

class Nurse

class UsersWaitingList

Nurse "*" - - "1" UsersWaitingList : checks >

@enduml

@startuml

left to right direction

class Nurse

class UsersWaitingList

Nurse "*" - - "1" UsersWaitingList : checks >

@enduml

PlantUML version 1.2022.4(Sat Apr 09 14:29:17 BST 2022)
(GPL source distribution)
Java Runtime: OpenJDK Runtime Environment
JVM: OpenJDK 64-Bit Server VM
Default Encoding: Cp1252
Language: pt
Country: PT
--></g></svg>