<?xml version="1.0" encoding="UTF-8" standalone="no"?><svg xmlns="http://www.w3.org/2000/svg" xmlns:xlink="http://www.w3.org/1999/xlink" contentStyleType="text/css" height="228px" preserveAspectRatio="none" style="width:312px;height:228px;background:#FFFFFF;" version="1.1" viewBox="0 0 312 228" width="312px" zoomAndPan="magnify"><defs/><g><!--MD5=[b0c22d5f9c216eda18ad0fb2e307d778]
class ConsultUsersInTheWaitingRoomUI--><g id="elem_ConsultUsersInTheWaitingRoomUI"><rect codeLine="6" fill="#F1F1F1" height="48" id="ConsultUsersInTheWaitingRoomUI" rx="2.5" ry="2.5" style="stroke:#181818;stroke-width:0.5;" width="248" x="32" y="7"/><ellipse cx="47" cy="23" fill="#ADD1B2" rx="11" ry="11" style="stroke:#181818;stroke-width:1.0;"/><path d="M49,19.5 Q49.2031,19 49.4375,18.75 Q49.6719,18.5 49.9375,18.5 Q50.4063,18.5 50.7031,18.7813 Q51,19.0625 51,19.7188 L51,21.2813 Q51,21.9375 50.7188,22.2188 Q50.4375,22.5 50,22.5 Q49.6094,22.5 49.3594,22.3281 Q49.1094,22.1563 49,21.7031 Q48.9531,21.3906 48.7813,21.2188 Q48.4688,20.8906 47.9063,20.7031 Q47.3438,20.5 46.7813,20.5 Q46.0781,20.5 45.4844,20.7813 Q44.9063,21.0625 44.4531,21.6875 Q44,22.3125 44,23.1719 L44,24.0938 Q44,25.125 44.8438,25.8125 Q45.6875,26.5 47.1875,26.5 Q48.0781,26.5 48.7031,26.2969 Q49.0625,26.1875 49.4688,25.8281 Q49.7344,25.625 49.875,25.5625 Q50.0156,25.5 50.1875,25.5 Q50.5156,25.5 50.75,25.7656 Q51,26.0156 51,26.375 Q51,26.7188 50.6563,27.125 Q50.1563,27.7188 49.3594,28.0469 Q48.3125,28.5 47.0313,28.5 Q45.5313,28.5 44.3281,27.9063 Q43.3594,27.4375 42.6719,26.4219 Q42,25.4063 42,24.2031 L42,23.1094 Q42,21.8594 42.5938,20.7656 Q43.2031,19.6719 44.25,19.0938 Q45.3125,18.5 46.5,18.5 Q47.2188,18.5 47.8438,18.75 Q48.4688,19 49,19.5 Z " fill="#000000"/><text fill="#000000" font-family="sans-serif" font-size="14" lengthAdjust="spacing" textLength="216" x="61" y="28.7285">ConsultUsersInTheWaitingRoomUI</text><line style="stroke:#181818;stroke-width:0.5;" x1="33" x2="279" y1="39" y2="39"/><line style="stroke:#181818;stroke-width:0.5;" x1="33" x2="279" y1="47" y2="47"/></g><!--MD5=[887485d3f5f766bafbfde75a75680356]
class ConsultUsersInTheWaitingRoomController--><g id="elem_ConsultUsersInTheWaitingRoomController"><rect codeLine="8" fill="#F1F1F1" height="48" id="ConsultUsersInTheWaitingRoomController" rx="2.5" ry="2.5" style="stroke:#181818;stroke-width:0.5;" width="298" x="7" y="90"/><ellipse cx="22" cy="106" fill="#ADD1B2" rx="11" ry="11" style="stroke:#181818;stroke-width:1.0;"/><path d="M24,102.5 Q24.2031,102 24.4375,101.75 Q24.6719,101.5 24.9375,101.5 Q25.4063,101.5 25.7031,101.7813 Q26,102.0625 26,102.7188 L26,104.2813 Q26,104.9375 25.7188,105.2188 Q25.4375,105.5 25,105.5 Q24.6094,105.5 24.3594,105.3281 Q24.1094,105.1563 24,104.7031 Q23.9531,104.3906 23.7813,104.2188 Q23.4688,103.8906 22.9063,103.7031 Q22.3438,103.5 21.7813,103.5 Q21.0781,103.5 20.4844,103.7813 Q19.9063,104.0625 19.4531,104.6875 Q19,105.3125 19,106.1719 L19,107.0938 Q19,108.125 19.8438,108.8125 Q20.6875,109.5 22.1875,109.5 Q23.0781,109.5 23.7031,109.2969 Q24.0625,109.1875 24.4688,108.8281 Q24.7344,108.625 24.875,108.5625 Q25.0156,108.5 25.1875,108.5 Q25.5156,108.5 25.75,108.7656 Q26,109.0156 26,109.375 Q26,109.7188 25.6563,110.125 Q25.1563,110.7188 24.3594,111.0469 Q23.3125,111.5 22.0313,111.5 Q20.5313,111.5 19.3281,110.9063 Q18.3594,110.4375 17.6719,109.4219 Q17,108.4063 17,107.2031 L17,106.1094 Q17,104.8594 17.5938,103.7656 Q18.2031,102.6719 19.25,102.0938 Q20.3125,101.5 21.5,101.5 Q22.2188,101.5 22.8438,101.75 Q23.4688,102 24,102.5 Z " fill="#000000"/><text fill="#000000" font-family="sans-serif" font-size="14" lengthAdjust="spacing" textLength="266" x="36" y="111.7285">ConsultUsersInTheWaitingRoomController</text><line style="stroke:#181818;stroke-width:0.5;" x1="8" x2="304" y1="122" y2="122"/><line style="stroke:#181818;stroke-width:0.5;" x1="8" x2="304" y1="130" y2="130"/></g><!--MD5=[8c5e2a16c9564198f28e660cda598bc2]
class Arrivals--><g id="elem_Arrivals"><rect codeLine="10" fill="#F1F1F1" height="48" id="Arrivals" rx="2.5" ry="2.5" style="stroke:#181818;stroke-width:0.5;" width="79" x="116.5" y="173"/><ellipse cx="131.5" cy="189" fill="#ADD1B2" rx="11" ry="11" style="stroke:#181818;stroke-width:1.0;"/><path d="M133.5,185.5 Q133.7031,185 133.9375,184.75 Q134.1719,184.5 134.4375,184.5 Q134.9063,184.5 135.2031,184.7813 Q135.5,185.0625 135.5,185.7188 L135.5,187.2813 Q135.5,187.9375 135.2188,188.2188 Q134.9375,188.5 134.5,188.5 Q134.1094,188.5 133.8594,188.3281 Q133.6094,188.1563 133.5,187.7031 Q133.4531,187.3906 133.2813,187.2188 Q132.9688,186.8906 132.4063,186.7031 Q131.8438,186.5 131.2813,186.5 Q130.5781,186.5 129.9844,186.7813 Q129.4063,187.0625 128.9531,187.6875 Q128.5,188.3125 128.5,189.1719 L128.5,190.0938 Q128.5,191.125 129.3438,191.8125 Q130.1875,192.5 131.6875,192.5 Q132.5781,192.5 133.2031,192.2969 Q133.5625,192.1875 133.9688,191.8281 Q134.2344,191.625 134.375,191.5625 Q134.5156,191.5 134.6875,191.5 Q135.0156,191.5 135.25,191.7656 Q135.5,192.0156 135.5,192.375 Q135.5,192.7188 135.1563,193.125 Q134.6563,193.7188 133.8594,194.0469 Q132.8125,194.5 131.5313,194.5 Q130.0313,194.5 128.8281,193.9063 Q127.8594,193.4375 127.1719,192.4219 Q126.5,191.4063 126.5,190.2031 L126.5,189.1094 Q126.5,187.8594 127.0938,186.7656 Q127.7031,185.6719 128.75,185.0938 Q129.8125,184.5 131,184.5 Q131.7188,184.5 132.3438,184.75 Q132.9688,185 133.5,185.5 Z " fill="#000000"/><text fill="#000000" font-family="sans-serif" font-size="14" lengthAdjust="spacing" textLength="47" x="145.5" y="194.7285">Arrivals</text><line style="stroke:#181818;stroke-width:0.5;" x1="117.5" x2="194.5" y1="205" y2="205"/><line style="stroke:#181818;stroke-width:0.5;" x1="117.5" x2="194.5" y1="213" y2="213"/></g><!--MD5=[4c34202c204b56b7e1f3e613bec05df2]
link ConsultUsersInTheWaitingRoomUI to ConsultUsersInTheWaitingRoomController--><g id="link_ConsultUsersInTheWaitingRoomUI_ConsultUsersInTheWaitingRoomController"><path codeLine="15" d="M156,55.3 C156,65.06 156,74.82 156,84.58 " fill="none" id="ConsultUsersInTheWaitingRoomUI-to-ConsultUsersInTheWaitingRoomController" style="stroke:#181818;stroke-width:1.0;stroke-dasharray:7.0,7.0;"/><polygon fill="#181818" points="156,89.68,160,80.68,156,84.68,152,80.68,156,89.68" style="stroke:#181818;stroke-width:1.0;"/></g><!--MD5=[403b8de9bf91c35c277ec1744ed7d3c7]
link ConsultUsersInTheWaitingRoomController to Arrivals--><g id="link_ConsultUsersInTheWaitingRoomController_Arrivals"><path codeLine="16" d="M156,138.3 C156,148.06 156,157.82 156,167.58 " fill="none" id="ConsultUsersInTheWaitingRoomController-to-Arrivals" style="stroke:#181818;stroke-width:1.0;stroke-dasharray:7.0,7.0;"/><polygon fill="#181818" points="156,172.68,160,163.68,156,167.68,152,163.68,156,172.68" style="stroke:#181818;stroke-width:1.0;"/></g><!--MD5=[eeda7633f9d69ae1982acbc87ed0feec]
@startuml
'https://plantuml.com/class-diagram




class ConsultUsersInTheWaitingRoomUI

class ConsultUsersInTheWaitingRoomController

class Arrivals


left to right direction

ConsultUsersInTheWaitingRoomUI .> ConsultUsersInTheWaitingRoomController
ConsultUsersInTheWaitingRoomController .> Arrivals

@enduml

@startuml




class ConsultUsersInTheWaitingRoomUI

class ConsultUsersInTheWaitingRoomController

class Arrivals


left to right direction

ConsultUsersInTheWaitingRoomUI .> ConsultUsersInTheWaitingRoomController
ConsultUsersInTheWaitingRoomController .> Arrivals

@enduml

PlantUML version 1.2022.4(Sat Apr 09 14:29:17 BST 2022)
(GPL source distribution)
Java Runtime: OpenJDK Runtime Environment
JVM: OpenJDK 64-Bit Server VM
Default Encoding: Cp1252
Language: pt
Country: PT
--></g></svg>