<?xml version="1.0" encoding="UTF-8" standalone="no"?><svg xmlns="http://www.w3.org/2000/svg" xmlns:xlink="http://www.w3.org/1999/xlink" contentScriptType="application/ecmascript" contentStyleType="text/css" height="346px" preserveAspectRatio="none" style="width:568px;height:346px;background:#FFFFFF;" version="1.1" viewBox="0 0 568 346" width="568px" zoomAndPan="magnify"><defs><filter height="300%" id="f3w7mb5m9gmj7" width="300%" x="-1" y="-1"><feGaussianBlur result="blurOut" stdDeviation="2.0"/><feColorMatrix in="blurOut" result="blurOut2" type="matrix" values="0 0 0 0 0 0 0 0 0 0 0 0 0 0 0 0 0 0 .4 0"/><feOffset dx="4.0" dy="4.0" in="blurOut2" result="blurOut3"/><feBlend in="SourceGraphic" in2="blurOut3" mode="normal"/></filter></defs><g><!--MD5=[b0c22d5f9c216eda18ad0fb2e307d778]
class ConsultUsersInTheWaitingRoomUI--><rect codeLine="6" fill="#FEFECE" filter="url(#f3w7mb5m9gmj7)" height="48" id="ConsultUsersInTheWaitingRoomUI" style="stroke:#A80036;stroke-width:1.5;" width="227" x="71" y="7"/><ellipse cx="86" cy="23" fill="#ADD1B2" rx="11" ry="11" style="stroke:#A80036;stroke-width:1.0;"/><path d="M88,19.5 Q88.2031,19 88.4375,18.75 Q88.6719,18.5 88.9375,18.5 Q89.4063,18.5 89.7031,18.7813 Q90,19.0625 90,19.7188 L90,21.2813 Q90,21.9375 89.7188,22.2188 Q89.4375,22.5 89,22.5 Q88.6094,22.5 88.3594,22.3281 Q88.1094,22.1563 88,21.7031 Q87.9531,21.3906 87.7813,21.2188 Q87.4688,20.8906 86.9063,20.7031 Q86.3438,20.5 85.7813,20.5 Q85.0781,20.5 84.4844,20.7813 Q83.9063,21.0625 83.4531,21.6875 Q83,22.3125 83,23.1719 L83,24.0938 Q83,25.125 83.8438,25.8125 Q84.6875,26.5 86.1875,26.5 Q87.0781,26.5 87.7031,26.2969 Q88.0625,26.1875 88.4688,25.8281 Q88.7344,25.625 88.875,25.5625 Q89.0156,25.5 89.1875,25.5 Q89.5156,25.5 89.75,25.7656 Q90,26.0156 90,26.375 Q90,26.7188 89.6563,27.125 Q89.1563,27.7188 88.3594,28.0469 Q87.3125,28.5 86.0313,28.5 Q84.5313,28.5 83.3281,27.9063 Q82.3594,27.4375 81.6719,26.4219 Q81,25.4063 81,24.2031 L81,23.1094 Q81,21.8594 81.5938,20.7656 Q82.2031,19.6719 83.25,19.0938 Q84.3125,18.5 85.5,18.5 Q86.2188,18.5 86.8438,18.75 Q87.4688,19 88,19.5 Z " fill="#000000"/><text fill="#000000" font-family="sans-serif" font-size="12" lengthAdjust="spacing" textLength="195" x="100" y="27.9102">ConsultUsersInTheWaitingRoomUI</text><line style="stroke:#A80036;stroke-width:1.5;" x1="72" x2="297" y1="39" y2="39"/><line style="stroke:#A80036;stroke-width:1.5;" x1="72" x2="297" y1="47" y2="47"/><!--MD5=[887485d3f5f766bafbfde75a75680356]
class ConsultUsersInTheWaitingRoomController--><rect codeLine="8" fill="#FEFECE" filter="url(#f3w7mb5m9gmj7)" height="75.6719" id="ConsultUsersInTheWaitingRoomController" style="stroke:#A80036;stroke-width:1.5;" width="355" x="7" y="90"/><ellipse cx="61.75" cy="106" fill="#ADD1B2" rx="11" ry="11" style="stroke:#A80036;stroke-width:1.0;"/><path d="M63.75,102.5 Q63.9531,102 64.1875,101.75 Q64.4219,101.5 64.6875,101.5 Q65.1563,101.5 65.4531,101.7813 Q65.75,102.0625 65.75,102.7188 L65.75,104.2813 Q65.75,104.9375 65.4688,105.2188 Q65.1875,105.5 64.75,105.5 Q64.3594,105.5 64.1094,105.3281 Q63.8594,105.1563 63.75,104.7031 Q63.7031,104.3906 63.5313,104.2188 Q63.2188,103.8906 62.6563,103.7031 Q62.0938,103.5 61.5313,103.5 Q60.8281,103.5 60.2344,103.7813 Q59.6563,104.0625 59.2031,104.6875 Q58.75,105.3125 58.75,106.1719 L58.75,107.0938 Q58.75,108.125 59.5938,108.8125 Q60.4375,109.5 61.9375,109.5 Q62.8281,109.5 63.4531,109.2969 Q63.8125,109.1875 64.2188,108.8281 Q64.4844,108.625 64.625,108.5625 Q64.7656,108.5 64.9375,108.5 Q65.2656,108.5 65.5,108.7656 Q65.75,109.0156 65.75,109.375 Q65.75,109.7188 65.4063,110.125 Q64.9063,110.7188 64.1094,111.0469 Q63.0625,111.5 61.7813,111.5 Q60.2813,111.5 59.0781,110.9063 Q58.1094,110.4375 57.4219,109.4219 Q56.75,108.4063 56.75,107.2031 L56.75,106.1094 Q56.75,104.8594 57.3438,103.7656 Q57.9531,102.6719 59,102.0938 Q60.0625,101.5 61.25,101.5 Q61.9688,101.5 62.5938,101.75 Q63.2188,102 63.75,102.5 Z " fill="#000000"/><text fill="#000000" font-family="sans-serif" font-size="12" lengthAdjust="spacing" textLength="237" x="82.25" y="110.9102">ConsultUsersInTheWaitingRoomController</text><line style="stroke:#A80036;stroke-width:1.5;" x1="8" x2="361" y1="122" y2="122"/><line style="stroke:#A80036;stroke-width:1.5;" x1="8" x2="361" y1="130" y2="130"/><ellipse cx="18" cy="141" fill="#84BE84" rx="3" ry="3" style="stroke:#038048;stroke-width:1.0;"/><text fill="#000000" font-family="sans-serif" font-size="11" lengthAdjust="spacing" textLength="112" x="27" y="145.4189">getVaccinationCenter()</text><ellipse cx="18" cy="154.8359" fill="#84BE84" rx="3" ry="3" style="stroke:#038048;stroke-width:1.0;"/><text fill="#000000" font-family="sans-serif" font-size="11" lengthAdjust="spacing" textLength="329" x="27" y="159.2549">listOfUsersInTheWaitingRoom(VaccinationCenter vaccinationCenter)</text><!--MD5=[8c5e2a16c9564198f28e660cda598bc2]
class Arrivals--><rect codeLine="13" fill="#FEFECE" filter="url(#f3w7mb5m9gmj7)" height="48" id="Arrivals" style="stroke:#A80036;stroke-width:1.5;" width="72" x="452" y="146"/><ellipse cx="467" cy="162" fill="#ADD1B2" rx="11" ry="11" style="stroke:#A80036;stroke-width:1.0;"/><path d="M469,158.5 Q469.2031,158 469.4375,157.75 Q469.6719,157.5 469.9375,157.5 Q470.4063,157.5 470.7031,157.7813 Q471,158.0625 471,158.7188 L471,160.2813 Q471,160.9375 470.7188,161.2188 Q470.4375,161.5 470,161.5 Q469.6094,161.5 469.3594,161.3281 Q469.1094,161.1563 469,160.7031 Q468.9531,160.3906 468.7813,160.2188 Q468.4688,159.8906 467.9063,159.7031 Q467.3438,159.5 466.7813,159.5 Q466.0781,159.5 465.4844,159.7813 Q464.9063,160.0625 464.4531,160.6875 Q464,161.3125 464,162.1719 L464,163.0938 Q464,164.125 464.8438,164.8125 Q465.6875,165.5 467.1875,165.5 Q468.0781,165.5 468.7031,165.2969 Q469.0625,165.1875 469.4688,164.8281 Q469.7344,164.625 469.875,164.5625 Q470.0156,164.5 470.1875,164.5 Q470.5156,164.5 470.75,164.7656 Q471,165.0156 471,165.375 Q471,165.7188 470.6563,166.125 Q470.1563,166.7188 469.3594,167.0469 Q468.3125,167.5 467.0313,167.5 Q465.5313,167.5 464.3281,166.9063 Q463.3594,166.4375 462.6719,165.4219 Q462,164.4063 462,163.2031 L462,162.1094 Q462,160.8594 462.5938,159.7656 Q463.2031,158.6719 464.25,158.0938 Q465.3125,157.5 466.5,157.5 Q467.2188,157.5 467.8438,157.75 Q468.4688,158 469,158.5 Z " fill="#000000"/><text fill="#000000" font-family="sans-serif" font-size="12" lengthAdjust="spacing" textLength="40" x="481" y="166.9102">Arrivals</text><line style="stroke:#A80036;stroke-width:1.5;" x1="453" x2="523" y1="178" y2="178"/><line style="stroke:#A80036;stroke-width:1.5;" x1="453" x2="523" y1="186" y2="186"/><!--MD5=[de60e6d4f424ae4d0522096f76a59010]
class VaccinationCenter--><rect codeLine="15" fill="#FEFECE" filter="url(#f3w7mb5m9gmj7)" height="48" id="VaccinationCenter" style="stroke:#A80036;stroke-width:1.5;" width="132" x="422" y="63"/><ellipse cx="437" cy="79" fill="#ADD1B2" rx="11" ry="11" style="stroke:#A80036;stroke-width:1.0;"/><path d="M439,75.5 Q439.2031,75 439.4375,74.75 Q439.6719,74.5 439.9375,74.5 Q440.4063,74.5 440.7031,74.7813 Q441,75.0625 441,75.7188 L441,77.2813 Q441,77.9375 440.7188,78.2188 Q440.4375,78.5 440,78.5 Q439.6094,78.5 439.3594,78.3281 Q439.1094,78.1563 439,77.7031 Q438.9531,77.3906 438.7813,77.2188 Q438.4688,76.8906 437.9063,76.7031 Q437.3438,76.5 436.7813,76.5 Q436.0781,76.5 435.4844,76.7813 Q434.9063,77.0625 434.4531,77.6875 Q434,78.3125 434,79.1719 L434,80.0938 Q434,81.125 434.8438,81.8125 Q435.6875,82.5 437.1875,82.5 Q438.0781,82.5 438.7031,82.2969 Q439.0625,82.1875 439.4688,81.8281 Q439.7344,81.625 439.875,81.5625 Q440.0156,81.5 440.1875,81.5 Q440.5156,81.5 440.75,81.7656 Q441,82.0156 441,82.375 Q441,82.7188 440.6563,83.125 Q440.1563,83.7188 439.3594,84.0469 Q438.3125,84.5 437.0313,84.5 Q435.5313,84.5 434.3281,83.9063 Q433.3594,83.4375 432.6719,82.4219 Q432,81.4063 432,80.2031 L432,79.1094 Q432,77.8594 432.5938,76.7656 Q433.2031,75.6719 434.25,75.0938 Q435.3125,74.5 436.5,74.5 Q437.2188,74.5 437.8438,74.75 Q438.4688,75 439,75.5 Z " fill="#000000"/><text fill="#000000" font-family="sans-serif" font-size="12" lengthAdjust="spacing" textLength="100" x="451" y="83.9102">VaccinationCenter</text><line style="stroke:#A80036;stroke-width:1.5;" x1="423" x2="553" y1="95" y2="95"/><line style="stroke:#A80036;stroke-width:1.5;" x1="423" x2="553" y1="103" y2="103"/><!--MD5=[02e4b9b7573f1156f41e60aa5b4e25a4]
class Company--><rect codeLine="17" fill="#FEFECE" filter="url(#f3w7mb5m9gmj7)" height="48" id="Company" style="stroke:#A80036;stroke-width:1.5;" width="85" x="142" y="201"/><ellipse cx="157" cy="217" fill="#ADD1B2" rx="11" ry="11" style="stroke:#A80036;stroke-width:1.0;"/><path d="M159,213.5 Q159.2031,213 159.4375,212.75 Q159.6719,212.5 159.9375,212.5 Q160.4063,212.5 160.7031,212.7813 Q161,213.0625 161,213.7188 L161,215.2813 Q161,215.9375 160.7188,216.2188 Q160.4375,216.5 160,216.5 Q159.6094,216.5 159.3594,216.3281 Q159.1094,216.1563 159,215.7031 Q158.9531,215.3906 158.7813,215.2188 Q158.4688,214.8906 157.9063,214.7031 Q157.3438,214.5 156.7813,214.5 Q156.0781,214.5 155.4844,214.7813 Q154.9063,215.0625 154.4531,215.6875 Q154,216.3125 154,217.1719 L154,218.0938 Q154,219.125 154.8438,219.8125 Q155.6875,220.5 157.1875,220.5 Q158.0781,220.5 158.7031,220.2969 Q159.0625,220.1875 159.4688,219.8281 Q159.7344,219.625 159.875,219.5625 Q160.0156,219.5 160.1875,219.5 Q160.5156,219.5 160.75,219.7656 Q161,220.0156 161,220.375 Q161,220.7188 160.6563,221.125 Q160.1563,221.7188 159.3594,222.0469 Q158.3125,222.5 157.0313,222.5 Q155.5313,222.5 154.3281,221.9063 Q153.3594,221.4375 152.6719,220.4219 Q152,219.4063 152,218.2031 L152,217.1094 Q152,215.8594 152.5938,214.7656 Q153.2031,213.6719 154.25,213.0938 Q155.3125,212.5 156.5,212.5 Q157.2188,212.5 157.8438,212.75 Q158.4688,213 159,213.5 Z " fill="#000000"/><text fill="#000000" font-family="sans-serif" font-size="12" lengthAdjust="spacing" textLength="53" x="171" y="221.9102">Company</text><line style="stroke:#A80036;stroke-width:1.5;" x1="143" x2="226" y1="233" y2="233"/><line style="stroke:#A80036;stroke-width:1.5;" x1="143" x2="226" y1="241" y2="241"/><!--MD5=[c4593935f45e4a2a0cefc4788932b53f]
class SnsUser--><rect codeLine="19" fill="#FEFECE" filter="url(#f3w7mb5m9gmj7)" height="48" id="SnsUser" style="stroke:#A80036;stroke-width:1.5;" width="81" x="144" y="284"/><ellipse cx="159" cy="300" fill="#ADD1B2" rx="11" ry="11" style="stroke:#A80036;stroke-width:1.0;"/><path d="M161,296.5 Q161.2031,296 161.4375,295.75 Q161.6719,295.5 161.9375,295.5 Q162.4063,295.5 162.7031,295.7813 Q163,296.0625 163,296.7188 L163,298.2813 Q163,298.9375 162.7188,299.2188 Q162.4375,299.5 162,299.5 Q161.6094,299.5 161.3594,299.3281 Q161.1094,299.1563 161,298.7031 Q160.9531,298.3906 160.7813,298.2188 Q160.4688,297.8906 159.9063,297.7031 Q159.3438,297.5 158.7813,297.5 Q158.0781,297.5 157.4844,297.7813 Q156.9063,298.0625 156.4531,298.6875 Q156,299.3125 156,300.1719 L156,301.0938 Q156,302.125 156.8438,302.8125 Q157.6875,303.5 159.1875,303.5 Q160.0781,303.5 160.7031,303.2969 Q161.0625,303.1875 161.4688,302.8281 Q161.7344,302.625 161.875,302.5625 Q162.0156,302.5 162.1875,302.5 Q162.5156,302.5 162.75,302.7656 Q163,303.0156 163,303.375 Q163,303.7188 162.6563,304.125 Q162.1563,304.7188 161.3594,305.0469 Q160.3125,305.5 159.0313,305.5 Q157.5313,305.5 156.3281,304.9063 Q155.3594,304.4375 154.6719,303.4219 Q154,302.4063 154,301.2031 L154,300.1094 Q154,298.8594 154.5938,297.7656 Q155.2031,296.6719 156.25,296.0938 Q157.3125,295.5 158.5,295.5 Q159.2188,295.5 159.8438,295.75 Q160.4688,296 161,296.5 Z " fill="#000000"/><text fill="#000000" font-family="sans-serif" font-size="12" lengthAdjust="spacing" textLength="49" x="173" y="304.9102">SnsUser</text><line style="stroke:#A80036;stroke-width:1.5;" x1="145" x2="224" y1="316" y2="316"/><line style="stroke:#A80036;stroke-width:1.5;" x1="145" x2="224" y1="324" y2="324"/><!--MD5=[4c34202c204b56b7e1f3e613bec05df2]
link ConsultUsersInTheWaitingRoomUI to ConsultUsersInTheWaitingRoomController--><path codeLine="24" d="M184.5,55.32 C184.5,65.09 184.5,74.85 184.5,84.62 " fill="none" id="ConsultUsersInTheWaitingRoomUI-to-ConsultUsersInTheWaitingRoomController" style="stroke:#A80036;stroke-width:1.0;stroke-dasharray:7.0,7.0;"/><polygon fill="#A80036" points="184.5,89.73,188.5,80.73,184.5,84.73,180.5,80.73,184.5,89.73" style="stroke:#A80036;stroke-width:1.0;"/><!--MD5=[403b8de9bf91c35c277ec1744ed7d3c7]
link ConsultUsersInTheWaitingRoomController to Arrivals--><path codeLine="25" d="M362.19,152.61 C393.98,157.04 424.17,161.25 446.9,164.41 " fill="none" id="ConsultUsersInTheWaitingRoomController-to-Arrivals" style="stroke:#A80036;stroke-width:1.0;stroke-dasharray:7.0,7.0;"/><polygon fill="#A80036" points="451.93,165.11,443.5777,159.8909,446.9791,164.4109,442.4591,167.8123,451.93,165.11" style="stroke:#A80036;stroke-width:1.0;"/><!--MD5=[cc671b578863e9afc96f610e67dbdcd8]
link ConsultUsersInTheWaitingRoomController to Company--><path codeLine="26" d="M184.5,166.08 C184.5,175.92 184.5,185.76 184.5,195.6 " fill="none" id="ConsultUsersInTheWaitingRoomController-to-Company" style="stroke:#A80036;stroke-width:1.0;stroke-dasharray:7.0,7.0;"/><polygon fill="#A80036" points="184.5,200.75,188.5,191.75,184.5,195.75,180.5,191.75,184.5,200.75" style="stroke:#A80036;stroke-width:1.0;"/><!--MD5=[7ea5958ae75d1b49d8885d6c52a43a8a]
link Company to SnsUser--><path codeLine="27" d="M184.5,249.3 C184.5,259.06 184.5,268.82 184.5,278.58 " fill="none" id="Company-to-SnsUser" style="stroke:#A80036;stroke-width:1.0;"/><polygon fill="#A80036" points="184.5,283.68,188.5,274.68,184.5,278.68,180.5,274.68,184.5,283.68" style="stroke:#A80036;stroke-width:1.0;"/><!--MD5=[50eaec94c520e8578d51681a526218af]
link ConsultUsersInTheWaitingRoomController to VaccinationCenter--><path codeLine="28" d="M362.19,103.97 C381.41,101.36 400.05,98.82 416.81,96.55 " fill="none" id="ConsultUsersInTheWaitingRoomController-to-VaccinationCenter" style="stroke:#A80036;stroke-width:1.0;stroke-dasharray:7.0,7.0;"/><polygon fill="#A80036" points="421.95,95.85,412.4857,93.1247,416.9974,96.5371,413.585,101.0488,421.95,95.85" style="stroke:#A80036;stroke-width:1.0;"/><!--MD5=[16d3bf70b46c395fa65dca5c4dee59af]
link VaccinationCenter to Arrivals--><path codeLine="29" d="M488,111.3 C488,121.06 488,130.82 488,140.58 " fill="none" id="VaccinationCenter-to-Arrivals" style="stroke:#A80036;stroke-width:1.0;"/><polygon fill="#A80036" points="488,145.68,492,136.68,488,140.68,484,136.68,488,145.68" style="stroke:#A80036;stroke-width:1.0;"/><!--MD5=[151a44907239ccab7fb92d8b5bbf9fad]
@startuml
'https://plantuml.com/class-diagram




class ConsultUsersInTheWaitingRoomUI

class ConsultUsersInTheWaitingRoomController{
+getVaccinationCenter()
+listOfUsersInTheWaitingRoom(VaccinationCenter vaccinationCenter)
}

class Arrivals

class VaccinationCenter

class Company

class SnsUser


left to right direction

ConsultUsersInTheWaitingRoomUI .> ConsultUsersInTheWaitingRoomController
ConsultUsersInTheWaitingRoomController ..> Arrivals
ConsultUsersInTheWaitingRoomController .r.> Company
Company -> SnsUser
ConsultUsersInTheWaitingRoomController ..> VaccinationCenter
VaccinationCenter->Arrivals


@enduml

@startuml




class ConsultUsersInTheWaitingRoomUI

class ConsultUsersInTheWaitingRoomController{
+getVaccinationCenter()
+listOfUsersInTheWaitingRoom(VaccinationCenter vaccinationCenter)
}

class Arrivals

class VaccinationCenter

class Company

class SnsUser


left to right direction

ConsultUsersInTheWaitingRoomUI .> ConsultUsersInTheWaitingRoomController
ConsultUsersInTheWaitingRoomController ..> Arrivals
ConsultUsersInTheWaitingRoomController .r.> Company
Company -> SnsUser
ConsultUsersInTheWaitingRoomController ..> VaccinationCenter
VaccinationCenter->Arrivals


@enduml

PlantUML version 1.2022.1(Tue Feb 01 18:19:58 GMT 2022)
(GPL source distribution)
Java Runtime: OpenJDK Runtime Environment
JVM: OpenJDK 64-Bit Server VM
Default Encoding: Cp1252
Language: pt
Country: PT
--></g></svg>