<?xml version="1.0" encoding="UTF-8" standalone="no"?><svg xmlns="http://www.w3.org/2000/svg" xmlns:xlink="http://www.w3.org/1999/xlink" contentScriptType="application/ecmascript" contentStyleType="text/css" height="185px" preserveAspectRatio="none" style="width:382px;height:185px;background:#FFFFFF;" version="1.1" viewBox="0 0 382 185" width="382px" zoomAndPan="magnify"><defs><filter height="300%" id="f9x0vi2bqnc9o" width="300%" x="-1" y="-1"><feGaussianBlur result="blurOut" stdDeviation="2.0"/><feColorMatrix in="blurOut" result="blurOut2" type="matrix" values="0 0 0 0 0 0 0 0 0 0 0 0 0 0 0 0 0 0 .4 0"/><feOffset dx="4.0" dy="4.0" in="blurOut2" result="blurOut3"/><feBlend in="SourceGraphic" in2="blurOut3" mode="normal"/></filter></defs><g><!--MD5=[a059576e163b46f56762f12600c49258]
class Nurse--><rect codeLine="5" fill="#FEFECE" filter="url(#f9x0vi2bqnc9o)" height="48" id="Nurse" style="stroke:#A80036;stroke-width:1.5;" width="66" x="32.5" y="7"/><ellipse cx="47.5" cy="23" fill="#ADD1B2" rx="11" ry="11" style="stroke:#A80036;stroke-width:1.0;"/><path d="M49.5,19.5 Q49.7031,19 49.9375,18.75 Q50.1719,18.5 50.4375,18.5 Q50.9063,18.5 51.2031,18.7813 Q51.5,19.0625 51.5,19.7188 L51.5,21.2813 Q51.5,21.9375 51.2188,22.2188 Q50.9375,22.5 50.5,22.5 Q50.1094,22.5 49.8594,22.3281 Q49.6094,22.1563 49.5,21.7031 Q49.4531,21.3906 49.2813,21.2188 Q48.9688,20.8906 48.4063,20.7031 Q47.8438,20.5 47.2813,20.5 Q46.5781,20.5 45.9844,20.7813 Q45.4063,21.0625 44.9531,21.6875 Q44.5,22.3125 44.5,23.1719 L44.5,24.0938 Q44.5,25.125 45.3438,25.8125 Q46.1875,26.5 47.6875,26.5 Q48.5781,26.5 49.2031,26.2969 Q49.5625,26.1875 49.9688,25.8281 Q50.2344,25.625 50.375,25.5625 Q50.5156,25.5 50.6875,25.5 Q51.0156,25.5 51.25,25.7656 Q51.5,26.0156 51.5,26.375 Q51.5,26.7188 51.1563,27.125 Q50.6563,27.7188 49.8594,28.0469 Q48.8125,28.5 47.5313,28.5 Q46.0313,28.5 44.8281,27.9063 Q43.8594,27.4375 43.1719,26.4219 Q42.5,25.4063 42.5,24.2031 L42.5,23.1094 Q42.5,21.8594 43.0938,20.7656 Q43.7031,19.6719 44.75,19.0938 Q45.8125,18.5 47,18.5 Q47.7188,18.5 48.3438,18.75 Q48.9688,19 49.5,19.5 Z " fill="#000000"/><text fill="#000000" font-family="sans-serif" font-size="12" lengthAdjust="spacing" textLength="34" x="61.5" y="27.9102">Nurse</text><line style="stroke:#A80036;stroke-width:1.5;" x1="33.5" x2="97.5" y1="39" y2="39"/><line style="stroke:#A80036;stroke-width:1.5;" x1="33.5" x2="97.5" y1="47" y2="47"/><!--MD5=[9e94af7e26ddd61f16675ec5a7d7b75f]
class UserInfo--><rect codeLine="6" fill="#FEFECE" filter="url(#f9x0vi2bqnc9o)" height="48" id="UserInfo" style="stroke:#A80036;stroke-width:1.5;" width="79" x="265" y="123"/><ellipse cx="280" cy="139" fill="#ADD1B2" rx="11" ry="11" style="stroke:#A80036;stroke-width:1.0;"/><path d="M282,135.5 Q282.2031,135 282.4375,134.75 Q282.6719,134.5 282.9375,134.5 Q283.4063,134.5 283.7031,134.7813 Q284,135.0625 284,135.7188 L284,137.2813 Q284,137.9375 283.7188,138.2188 Q283.4375,138.5 283,138.5 Q282.6094,138.5 282.3594,138.3281 Q282.1094,138.1563 282,137.7031 Q281.9531,137.3906 281.7813,137.2188 Q281.4688,136.8906 280.9063,136.7031 Q280.3438,136.5 279.7813,136.5 Q279.0781,136.5 278.4844,136.7813 Q277.9063,137.0625 277.4531,137.6875 Q277,138.3125 277,139.1719 L277,140.0938 Q277,141.125 277.8438,141.8125 Q278.6875,142.5 280.1875,142.5 Q281.0781,142.5 281.7031,142.2969 Q282.0625,142.1875 282.4688,141.8281 Q282.7344,141.625 282.875,141.5625 Q283.0156,141.5 283.1875,141.5 Q283.5156,141.5 283.75,141.7656 Q284,142.0156 284,142.375 Q284,142.7188 283.6563,143.125 Q283.1563,143.7188 282.3594,144.0469 Q281.3125,144.5 280.0313,144.5 Q278.5313,144.5 277.3281,143.9063 Q276.3594,143.4375 275.6719,142.4219 Q275,141.4063 275,140.2031 L275,139.1094 Q275,137.8594 275.5938,136.7656 Q276.2031,135.6719 277.25,135.0938 Q278.3125,134.5 279.5,134.5 Q280.2188,134.5 280.8438,134.75 Q281.4688,135 282,135.5 Z " fill="#000000"/><text fill="#000000" font-family="sans-serif" font-size="12" lengthAdjust="spacing" textLength="47" x="294" y="143.9102">UserInfo</text><line style="stroke:#A80036;stroke-width:1.5;" x1="266" x2="343" y1="155" y2="155"/><line style="stroke:#A80036;stroke-width:1.5;" x1="266" x2="343" y1="163" y2="163"/><!--MD5=[7cee63e05c54fc7e82ca7f101606cdb1]
class UsersWaitingList--><rect codeLine="7" fill="#FEFECE" filter="url(#f9x0vi2bqnc9o)" height="48" id="UsersWaitingList" style="stroke:#A80036;stroke-width:1.5;" width="127" x="241" y="24"/><ellipse cx="256" cy="40" fill="#ADD1B2" rx="11" ry="11" style="stroke:#A80036;stroke-width:1.0;"/><path d="M258,36.5 Q258.2031,36 258.4375,35.75 Q258.6719,35.5 258.9375,35.5 Q259.4063,35.5 259.7031,35.7813 Q260,36.0625 260,36.7188 L260,38.2813 Q260,38.9375 259.7188,39.2188 Q259.4375,39.5 259,39.5 Q258.6094,39.5 258.3594,39.3281 Q258.1094,39.1563 258,38.7031 Q257.9531,38.3906 257.7813,38.2188 Q257.4688,37.8906 256.9063,37.7031 Q256.3438,37.5 255.7813,37.5 Q255.0781,37.5 254.4844,37.7813 Q253.9063,38.0625 253.4531,38.6875 Q253,39.3125 253,40.1719 L253,41.0938 Q253,42.125 253.8438,42.8125 Q254.6875,43.5 256.1875,43.5 Q257.0781,43.5 257.7031,43.2969 Q258.0625,43.1875 258.4688,42.8281 Q258.7344,42.625 258.875,42.5625 Q259.0156,42.5 259.1875,42.5 Q259.5156,42.5 259.75,42.7656 Q260,43.0156 260,43.375 Q260,43.7188 259.6563,44.125 Q259.1563,44.7188 258.3594,45.0469 Q257.3125,45.5 256.0313,45.5 Q254.5313,45.5 253.3281,44.9063 Q252.3594,44.4375 251.6719,43.4219 Q251,42.4063 251,41.2031 L251,40.1094 Q251,38.8594 251.5938,37.7656 Q252.2031,36.6719 253.25,36.0938 Q254.3125,35.5 255.5,35.5 Q256.2188,35.5 256.8438,35.75 Q257.4688,36 258,36.5 Z " fill="#000000"/><text fill="#000000" font-family="sans-serif" font-size="12" lengthAdjust="spacing" textLength="95" x="270" y="44.9102">UsersWaitingList</text><line style="stroke:#A80036;stroke-width:1.5;" x1="242" x2="367" y1="56" y2="56"/><line style="stroke:#A80036;stroke-width:1.5;" x1="242" x2="367" y1="64" y2="64"/><!--MD5=[c4593935f45e4a2a0cefc4788932b53f]
class SnsUser--><rect codeLine="8" fill="#FEFECE" filter="url(#f9x0vi2bqnc9o)" height="64.3516" id="SnsUser" style="stroke:#A80036;stroke-width:1.5;" width="117" x="7" y="102"/><ellipse cx="38.2" cy="118" fill="#ADD1B2" rx="11" ry="11" style="stroke:#A80036;stroke-width:1.0;"/><path d="M40.2,114.5 Q40.4031,114 40.6375,113.75 Q40.8719,113.5 41.1375,113.5 Q41.6063,113.5 41.9031,113.7813 Q42.2,114.0625 42.2,114.7188 L42.2,116.2813 Q42.2,116.9375 41.9188,117.2188 Q41.6375,117.5 41.2,117.5 Q40.8094,117.5 40.5594,117.3281 Q40.3094,117.1563 40.2,116.7031 Q40.1531,116.3906 39.9813,116.2188 Q39.6688,115.8906 39.1063,115.7031 Q38.5438,115.5 37.9813,115.5 Q37.2781,115.5 36.6844,115.7813 Q36.1063,116.0625 35.6531,116.6875 Q35.2,117.3125 35.2,118.1719 L35.2,119.0938 Q35.2,120.125 36.0438,120.8125 Q36.8875,121.5 38.3875,121.5 Q39.2781,121.5 39.9031,121.2969 Q40.2625,121.1875 40.6688,120.8281 Q40.9344,120.625 41.075,120.5625 Q41.2156,120.5 41.3875,120.5 Q41.7156,120.5 41.95,120.7656 Q42.2,121.0156 42.2,121.375 Q42.2,121.7188 41.8563,122.125 Q41.3563,122.7188 40.5594,123.0469 Q39.5125,123.5 38.2313,123.5 Q36.7313,123.5 35.5281,122.9063 Q34.5594,122.4375 33.8719,121.4219 Q33.2,120.4063 33.2,119.2031 L33.2,118.1094 Q33.2,116.8594 33.7938,115.7656 Q34.4031,114.6719 35.45,114.0938 Q36.5125,113.5 37.7,113.5 Q38.4188,113.5 39.0438,113.75 Q39.6688,114 40.2,114.5 Z " fill="#000000"/><text fill="#000000" font-family="sans-serif" font-size="12" lengthAdjust="spacing" textLength="49" x="55.8" y="122.9102">SnsUser</text><line style="stroke:#A80036;stroke-width:1.5;" x1="8" x2="123" y1="134" y2="134"/><text fill="#000000" font-family="sans-serif" font-size="13" font-weight="bold" lengthAdjust="spacing" textLength="105" x="13" y="151.4951">-SnsUserNumber</text><line style="stroke:#A80036;stroke-width:1.5;" x1="8" x2="123" y1="158.3516" y2="158.3516"/><!--MD5=[a130e805f12c6caaf0787465d0f0d87e]
link Nurse to UsersWaitingList--><path codeLine="13" d="M98.96,33.33 C135.34,35.94 195.21,40.23 240.79,43.5 " fill="none" id="Nurse-UsersWaitingList" style="stroke:#A80036;stroke-width:1.0;"/><polygon fill="#000000" points="163.9872,29.5334,155.1755,25.9551,154.7551,31.8179,163.9872,29.5334" style="stroke:#000000;stroke-width:1.0;"/><text fill="#000000" font-family="sans-serif" font-size="13" lengthAdjust="spacing" textLength="42" x="168" y="34.4951">checks</text><text fill="#000000" font-family="sans-serif" font-size="13" lengthAdjust="spacing" textLength="5" x="106.3767" y="48.9919">*</text><text fill="#000000" font-family="sans-serif" font-size="13" lengthAdjust="spacing" textLength="7" x="226.0188" y="57.4201">1</text><!--MD5=[48c1753546dc4329f6549ad52774066c]
link SnsUser to UserInfo--><path codeLine="14" d="M124.19,146.07 C134.09,147.71 144.31,149.12 154,150 C191.49,153.4 234.47,151.99 264.7,150.12 " fill="none" id="SnsUser-UserInfo" style="stroke:#A80036;stroke-width:1.0;"/><polygon fill="#000000" points="174.4979,141.3198,165.5413,138.1215,165.3719,143.9969,174.4979,141.3198" style="stroke:#000000;stroke-width:1.0;"/><text fill="#000000" font-family="sans-serif" font-size="13" lengthAdjust="spacing" textLength="21" x="178.5" y="146.4951">has</text><text fill="#000000" font-family="sans-serif" font-size="13" lengthAdjust="spacing" textLength="7" x="132.1581" y="162.1366">1</text><text fill="#000000" font-family="sans-serif" font-size="13" lengthAdjust="spacing" textLength="5" x="251.9009" y="165.6978">*</text><!--MD5=[01a8889e7c38ccea4d8108f08c153995]
link SnsUser to UsersWaitingList--><path codeLine="15" d="M124.17,113.07 C159.52,100.24 204.78,83.82 240.99,70.68 " fill="none" id="SnsUser-UsersWaitingList" style="stroke:#A80036;stroke-width:1.0;"/><polygon fill="#000000" points="170.7001,73.4703,161.195,73.7929,163.2,79.3182,170.7001,73.4703" style="stroke:#000000;stroke-width:1.0;"/><text fill="#000000" font-family="sans-serif" font-size="13" lengthAdjust="spacing" textLength="28" x="175" y="80.4951">is on</text><text fill="#000000" font-family="sans-serif" font-size="13" lengthAdjust="spacing" textLength="5" x="132.0074" y="124.9085">*</text><text fill="#000000" font-family="sans-serif" font-size="13" lengthAdjust="spacing" textLength="7" x="225.8232" y="87.9357">1</text><!--MD5=[91d5edbad6f6a01235ea245921f246d3]
@startuml
'https://plantuml.com/class-diagram

left to right direction

class Nurse
class UserInfo
class UsersWaitingList
class SnsUser {
==-SnsUserNumber
}


Nurse "*" - - "1" UsersWaitingList : checks >
SnsUser "1" - -  "*" UserInfo : has >
SnsUser "*" - - "1" UsersWaitingList: is on >

@enduml

@startuml

left to right direction

class Nurse
class UserInfo
class UsersWaitingList
class SnsUser {
==-SnsUserNumber
}


Nurse "*" - - "1" UsersWaitingList : checks >
SnsUser "1" - -  "*" UserInfo : has >
SnsUser "*" - - "1" UsersWaitingList: is on >

@enduml

PlantUML version 1.2022.1(Tue Feb 01 18:19:58 GMT 2022)
(GPL source distribution)
Java Runtime: OpenJDK Runtime Environment
JVM: OpenJDK 64-Bit Server VM
Default Encoding: Cp1252
Language: pt
Country: PT
--></g></svg>