<?xml version="1.0" encoding="UTF-8" standalone="no"?><svg xmlns="http://www.w3.org/2000/svg" xmlns:xlink="http://www.w3.org/1999/xlink" contentScriptType="application/ecmascript" contentStyleType="text/css" height="401px" preserveAspectRatio="none" style="width:348px;height:401px;background:#FFFFFF;" version="1.1" viewBox="0 0 348 401" width="348px" zoomAndPan="magnify"><defs><filter height="300%" id="f139f5d93s4x1e" width="300%" x="-1" y="-1"><feGaussianBlur result="blurOut" stdDeviation="2.0"/><feColorMatrix in="blurOut" result="blurOut2" type="matrix" values="0 0 0 0 0 0 0 0 0 0 0 0 0 0 0 0 0 0 .4 0"/><feOffset dx="4.0" dy="4.0" in="blurOut2" result="blurOut3"/><feBlend in="SourceGraphic" in2="blurOut3" mode="normal"/></filter></defs><g><!--MD5=[b0c22d5f9c216eda18ad0fb2e307d778]
class ConsultUsersInTheWaitingRoomUI--><rect codeLine="6" fill="#FEFECE" filter="url(#f139f5d93s4x1e)" height="48" id="ConsultUsersInTheWaitingRoomUI" style="stroke:#A80036;stroke-width:1.5;" width="227" x="86" y="7"/><ellipse cx="101" cy="23" fill="#ADD1B2" rx="11" ry="11" style="stroke:#A80036;stroke-width:1.0;"/><path d="M103,19.5 Q103.2031,19 103.4375,18.75 Q103.6719,18.5 103.9375,18.5 Q104.4063,18.5 104.7031,18.7813 Q105,19.0625 105,19.7188 L105,21.2813 Q105,21.9375 104.7188,22.2188 Q104.4375,22.5 104,22.5 Q103.6094,22.5 103.3594,22.3281 Q103.1094,22.1563 103,21.7031 Q102.9531,21.3906 102.7813,21.2188 Q102.4688,20.8906 101.9063,20.7031 Q101.3438,20.5 100.7813,20.5 Q100.0781,20.5 99.4844,20.7813 Q98.9063,21.0625 98.4531,21.6875 Q98,22.3125 98,23.1719 L98,24.0938 Q98,25.125 98.8438,25.8125 Q99.6875,26.5 101.1875,26.5 Q102.0781,26.5 102.7031,26.2969 Q103.0625,26.1875 103.4688,25.8281 Q103.7344,25.625 103.875,25.5625 Q104.0156,25.5 104.1875,25.5 Q104.5156,25.5 104.75,25.7656 Q105,26.0156 105,26.375 Q105,26.7188 104.6563,27.125 Q104.1563,27.7188 103.3594,28.0469 Q102.3125,28.5 101.0313,28.5 Q99.5313,28.5 98.3281,27.9063 Q97.3594,27.4375 96.6719,26.4219 Q96,25.4063 96,24.2031 L96,23.1094 Q96,21.8594 96.5938,20.7656 Q97.2031,19.6719 98.25,19.0938 Q99.3125,18.5 100.5,18.5 Q101.2188,18.5 101.8438,18.75 Q102.4688,19 103,19.5 Z " fill="#000000"/><text fill="#000000" font-family="sans-serif" font-size="12" lengthAdjust="spacing" textLength="195" x="115" y="27.9102">ConsultUsersInTheWaitingRoomUI</text><line style="stroke:#A80036;stroke-width:1.5;" x1="87" x2="312" y1="39" y2="39"/><line style="stroke:#A80036;stroke-width:1.5;" x1="87" x2="312" y1="47" y2="47"/><!--MD5=[887485d3f5f766bafbfde75a75680356]
class ConsultUsersInTheWaitingRoomController--><rect codeLine="8" fill="#FEFECE" filter="url(#f139f5d93s4x1e)" height="48" id="ConsultUsersInTheWaitingRoomController" style="stroke:#A80036;stroke-width:1.5;" width="269" x="65" y="90"/><ellipse cx="80" cy="106" fill="#ADD1B2" rx="11" ry="11" style="stroke:#A80036;stroke-width:1.0;"/><path d="M82,102.5 Q82.2031,102 82.4375,101.75 Q82.6719,101.5 82.9375,101.5 Q83.4063,101.5 83.7031,101.7813 Q84,102.0625 84,102.7188 L84,104.2813 Q84,104.9375 83.7188,105.2188 Q83.4375,105.5 83,105.5 Q82.6094,105.5 82.3594,105.3281 Q82.1094,105.1563 82,104.7031 Q81.9531,104.3906 81.7813,104.2188 Q81.4688,103.8906 80.9063,103.7031 Q80.3438,103.5 79.7813,103.5 Q79.0781,103.5 78.4844,103.7813 Q77.9063,104.0625 77.4531,104.6875 Q77,105.3125 77,106.1719 L77,107.0938 Q77,108.125 77.8438,108.8125 Q78.6875,109.5 80.1875,109.5 Q81.0781,109.5 81.7031,109.2969 Q82.0625,109.1875 82.4688,108.8281 Q82.7344,108.625 82.875,108.5625 Q83.0156,108.5 83.1875,108.5 Q83.5156,108.5 83.75,108.7656 Q84,109.0156 84,109.375 Q84,109.7188 83.6563,110.125 Q83.1563,110.7188 82.3594,111.0469 Q81.3125,111.5 80.0313,111.5 Q78.5313,111.5 77.3281,110.9063 Q76.3594,110.4375 75.6719,109.4219 Q75,108.4063 75,107.2031 L75,106.1094 Q75,104.8594 75.5938,103.7656 Q76.2031,102.6719 77.25,102.0938 Q78.3125,101.5 79.5,101.5 Q80.2188,101.5 80.8438,101.75 Q81.4688,102 82,102.5 Z " fill="#000000"/><text fill="#000000" font-family="sans-serif" font-size="12" lengthAdjust="spacing" textLength="237" x="94" y="110.9102">ConsultUsersInTheWaitingRoomController</text><line style="stroke:#A80036;stroke-width:1.5;" x1="66" x2="333" y1="122" y2="122"/><line style="stroke:#A80036;stroke-width:1.5;" x1="66" x2="333" y1="130" y2="130"/><!--MD5=[8c5e2a16c9564198f28e660cda598bc2]
class Arrivals--><rect codeLine="10" fill="#FEFECE" filter="url(#f139f5d93s4x1e)" height="48" id="Arrivals" style="stroke:#A80036;stroke-width:1.5;" width="72" x="163.5" y="339"/><ellipse cx="178.5" cy="355" fill="#ADD1B2" rx="11" ry="11" style="stroke:#A80036;stroke-width:1.0;"/><path d="M180.5,351.5 Q180.7031,351 180.9375,350.75 Q181.1719,350.5 181.4375,350.5 Q181.9063,350.5 182.2031,350.7813 Q182.5,351.0625 182.5,351.7188 L182.5,353.2813 Q182.5,353.9375 182.2188,354.2188 Q181.9375,354.5 181.5,354.5 Q181.1094,354.5 180.8594,354.3281 Q180.6094,354.1563 180.5,353.7031 Q180.4531,353.3906 180.2813,353.2188 Q179.9688,352.8906 179.4063,352.7031 Q178.8438,352.5 178.2813,352.5 Q177.5781,352.5 176.9844,352.7813 Q176.4063,353.0625 175.9531,353.6875 Q175.5,354.3125 175.5,355.1719 L175.5,356.0938 Q175.5,357.125 176.3438,357.8125 Q177.1875,358.5 178.6875,358.5 Q179.5781,358.5 180.2031,358.2969 Q180.5625,358.1875 180.9688,357.8281 Q181.2344,357.625 181.375,357.5625 Q181.5156,357.5 181.6875,357.5 Q182.0156,357.5 182.25,357.7656 Q182.5,358.0156 182.5,358.375 Q182.5,358.7188 182.1563,359.125 Q181.6563,359.7188 180.8594,360.0469 Q179.8125,360.5 178.5313,360.5 Q177.0313,360.5 175.8281,359.9063 Q174.8594,359.4375 174.1719,358.4219 Q173.5,357.4063 173.5,356.2031 L173.5,355.1094 Q173.5,353.8594 174.0938,352.7656 Q174.7031,351.6719 175.75,351.0938 Q176.8125,350.5 178,350.5 Q178.7188,350.5 179.3438,350.75 Q179.9688,351 180.5,351.5 Z " fill="#000000"/><text fill="#000000" font-family="sans-serif" font-size="12" lengthAdjust="spacing" textLength="40" x="192.5" y="359.9102">Arrivals</text><line style="stroke:#A80036;stroke-width:1.5;" x1="164.5" x2="234.5" y1="371" y2="371"/><line style="stroke:#A80036;stroke-width:1.5;" x1="164.5" x2="234.5" y1="379" y2="379"/><!--MD5=[02e4b9b7573f1156f41e60aa5b4e25a4]
class Company--><rect codeLine="12" fill="#FEFECE" filter="url(#f139f5d93s4x1e)" height="48" id="Company" style="stroke:#A80036;stroke-width:1.5;" width="85" x="157" y="173"/><ellipse cx="172" cy="189" fill="#ADD1B2" rx="11" ry="11" style="stroke:#A80036;stroke-width:1.0;"/><path d="M174,185.5 Q174.2031,185 174.4375,184.75 Q174.6719,184.5 174.9375,184.5 Q175.4063,184.5 175.7031,184.7813 Q176,185.0625 176,185.7188 L176,187.2813 Q176,187.9375 175.7188,188.2188 Q175.4375,188.5 175,188.5 Q174.6094,188.5 174.3594,188.3281 Q174.1094,188.1563 174,187.7031 Q173.9531,187.3906 173.7813,187.2188 Q173.4688,186.8906 172.9063,186.7031 Q172.3438,186.5 171.7813,186.5 Q171.0781,186.5 170.4844,186.7813 Q169.9063,187.0625 169.4531,187.6875 Q169,188.3125 169,189.1719 L169,190.0938 Q169,191.125 169.8438,191.8125 Q170.6875,192.5 172.1875,192.5 Q173.0781,192.5 173.7031,192.2969 Q174.0625,192.1875 174.4688,191.8281 Q174.7344,191.625 174.875,191.5625 Q175.0156,191.5 175.1875,191.5 Q175.5156,191.5 175.75,191.7656 Q176,192.0156 176,192.375 Q176,192.7188 175.6563,193.125 Q175.1563,193.7188 174.3594,194.0469 Q173.3125,194.5 172.0313,194.5 Q170.5313,194.5 169.3281,193.9063 Q168.3594,193.4375 167.6719,192.4219 Q167,191.4063 167,190.2031 L167,189.1094 Q167,187.8594 167.5938,186.7656 Q168.2031,185.6719 169.25,185.0938 Q170.3125,184.5 171.5,184.5 Q172.2188,184.5 172.8438,184.75 Q173.4688,185 174,185.5 Z " fill="#000000"/><text fill="#000000" font-family="sans-serif" font-size="12" lengthAdjust="spacing" textLength="53" x="186" y="193.9102">Company</text><line style="stroke:#A80036;stroke-width:1.5;" x1="158" x2="241" y1="205" y2="205"/><line style="stroke:#A80036;stroke-width:1.5;" x1="158" x2="241" y1="213" y2="213"/><!--MD5=[c4593935f45e4a2a0cefc4788932b53f]
class SnsUser--><rect codeLine="14" fill="#FEFECE" filter="url(#f139f5d93s4x1e)" height="48" id="SnsUser" style="stroke:#A80036;stroke-width:1.5;" width="81" x="159" y="256"/><ellipse cx="174" cy="272" fill="#ADD1B2" rx="11" ry="11" style="stroke:#A80036;stroke-width:1.0;"/><path d="M176,268.5 Q176.2031,268 176.4375,267.75 Q176.6719,267.5 176.9375,267.5 Q177.4063,267.5 177.7031,267.7813 Q178,268.0625 178,268.7188 L178,270.2813 Q178,270.9375 177.7188,271.2188 Q177.4375,271.5 177,271.5 Q176.6094,271.5 176.3594,271.3281 Q176.1094,271.1563 176,270.7031 Q175.9531,270.3906 175.7813,270.2188 Q175.4688,269.8906 174.9063,269.7031 Q174.3438,269.5 173.7813,269.5 Q173.0781,269.5 172.4844,269.7813 Q171.9063,270.0625 171.4531,270.6875 Q171,271.3125 171,272.1719 L171,273.0938 Q171,274.125 171.8438,274.8125 Q172.6875,275.5 174.1875,275.5 Q175.0781,275.5 175.7031,275.2969 Q176.0625,275.1875 176.4688,274.8281 Q176.7344,274.625 176.875,274.5625 Q177.0156,274.5 177.1875,274.5 Q177.5156,274.5 177.75,274.7656 Q178,275.0156 178,275.375 Q178,275.7188 177.6563,276.125 Q177.1563,276.7188 176.3594,277.0469 Q175.3125,277.5 174.0313,277.5 Q172.5313,277.5 171.3281,276.9063 Q170.3594,276.4375 169.6719,275.4219 Q169,274.4063 169,273.2031 L169,272.1094 Q169,270.8594 169.5938,269.7656 Q170.2031,268.6719 171.25,268.0938 Q172.3125,267.5 173.5,267.5 Q174.2188,267.5 174.8438,267.75 Q175.4688,268 176,268.5 Z " fill="#000000"/><text fill="#000000" font-family="sans-serif" font-size="12" lengthAdjust="spacing" textLength="49" x="188" y="276.9102">SnsUser</text><line style="stroke:#A80036;stroke-width:1.5;" x1="160" x2="239" y1="288" y2="288"/><line style="stroke:#A80036;stroke-width:1.5;" x1="160" x2="239" y1="296" y2="296"/><!--MD5=[4c34202c204b56b7e1f3e613bec05df2]
link ConsultUsersInTheWaitingRoomUI to ConsultUsersInTheWaitingRoomController--><path codeLine="19" d="M199.5,55.3 C199.5,65.06 199.5,74.82 199.5,84.58 " fill="none" id="ConsultUsersInTheWaitingRoomUI-to-ConsultUsersInTheWaitingRoomController" style="stroke:#A80036;stroke-width:1.0;stroke-dasharray:7.0,7.0;"/><polygon fill="#A80036" points="199.5,89.68,203.5,80.68,199.5,84.68,195.5,80.68,199.5,89.68" style="stroke:#A80036;stroke-width:1.0;"/><!--MD5=[403b8de9bf91c35c277ec1744ed7d3c7]
link ConsultUsersInTheWaitingRoomController to Arrivals--><path codeLine="20" d="M71.04,138.15 C56.31,146.5 43.53,157.65 35,172.5 C6,222.99 6,253.01 35,303.5 C59.25,345.72 117.63,358.39 157.89,361.97 " fill="none" id="ConsultUsersInTheWaitingRoomController-to-Arrivals" style="stroke:#A80036;stroke-width:1.0;stroke-dasharray:7.0,7.0;"/><polygon fill="#A80036" points="163.2,362.4,154.5487,357.6931,158.216,362.0001,153.9089,365.6674,163.2,362.4" style="stroke:#A80036;stroke-width:1.0;"/><!--MD5=[cc671b578863e9afc96f610e67dbdcd8]
link ConsultUsersInTheWaitingRoomController to Company--><path codeLine="21" d="M199.5,138.3 C199.5,148.06 199.5,157.82 199.5,167.58 " fill="none" id="ConsultUsersInTheWaitingRoomController-to-Company" style="stroke:#A80036;stroke-width:1.0;stroke-dasharray:7.0,7.0;"/><polygon fill="#A80036" points="199.5,172.68,203.5,163.68,199.5,167.68,195.5,163.68,199.5,172.68" style="stroke:#A80036;stroke-width:1.0;"/><!--MD5=[7ea5958ae75d1b49d8885d6c52a43a8a]
link Company to SnsUser--><path codeLine="22" d="M199.5,221.3 C199.5,231.06 199.5,240.82 199.5,250.58 " fill="none" id="Company-to-SnsUser" style="stroke:#A80036;stroke-width:1.0;"/><polygon fill="#A80036" points="199.5,255.68,203.5,246.68,199.5,250.68,195.5,246.68,199.5,255.68" style="stroke:#A80036;stroke-width:1.0;"/><!--MD5=[f2da3c934bcc97eb67db38a644f6db8a]
@startuml
'https://plantuml.com/class-diagram




class ConsultUsersInTheWaitingRoomUI

class ConsultUsersInTheWaitingRoomController

class Arrivals

Class Company

Class SnsUser


left to right direction

ConsultUsersInTheWaitingRoomUI .> ConsultUsersInTheWaitingRoomController
ConsultUsersInTheWaitingRoomController .> Arrivals
ConsultUsersInTheWaitingRoomController .> Company
Company -> SnsUser


@enduml

@startuml




class ConsultUsersInTheWaitingRoomUI

class ConsultUsersInTheWaitingRoomController

class Arrivals

Class Company

Class SnsUser


left to right direction

ConsultUsersInTheWaitingRoomUI .> ConsultUsersInTheWaitingRoomController
ConsultUsersInTheWaitingRoomController .> Arrivals
ConsultUsersInTheWaitingRoomController .> Company
Company -> SnsUser


@enduml

PlantUML version 1.2022.1(Tue Feb 01 18:19:58 GMT 2022)
(GPL source distribution)
Java Runtime: OpenJDK Runtime Environment
JVM: OpenJDK 64-Bit Server VM
Default Encoding: Cp1252
Language: pt
Country: PT
--></g></svg>