<?xml version="1.0" encoding="UTF-8" standalone="no"?><svg xmlns="http://www.w3.org/2000/svg" xmlns:xlink="http://www.w3.org/1999/xlink" contentScriptType="application/ecmascript" contentStyleType="text/css" height="316px" preserveAspectRatio="none" style="width:503px;height:316px;background:#FFFFFF;" version="1.1" viewBox="0 0 503 316" width="503px" zoomAndPan="magnify"><defs><filter height="300%" id="f1mekri7gk14t2" width="300%" x="-1" y="-1"><feGaussianBlur result="blurOut" stdDeviation="2.0"/><feColorMatrix in="blurOut" result="blurOut2" type="matrix" values="0 0 0 0 0 0 0 0 0 0 0 0 0 0 0 0 0 0 .4 0"/><feOffset dx="4.0" dy="4.0" in="blurOut2" result="blurOut3"/><feBlend in="SourceGraphic" in2="blurOut3" mode="normal"/></filter></defs><g><rect fill="#FFFFFF" filter="url(#f1mekri7gk14t2)" height="122.4063" style="stroke:#A80036;stroke-width:1.0;" width="10" x="21.5" y="99.6094"/><rect fill="#FFFFFF" filter="url(#f1mekri7gk14t2)" height="30.3516" style="stroke:#A80036;stroke-width:1.0;" width="10" x="454.5" y="121.9609"/><rect fill="#FFFFFF" filter="url(#f1mekri7gk14t2)" height="30.3516" style="stroke:#A80036;stroke-width:1.0;" width="10" x="454.5" y="182.6641"/><line style="stroke:#A80036;stroke-width:1.0;stroke-dasharray:5.0,5.0;" x1="26" x2="26" y1="89.6094" y2="231.0156"/><line style="stroke:#A80036;stroke-width:1.0;stroke-dasharray:5.0,5.0;" x1="459.5" x2="459.5" y1="89.6094" y2="231.0156"/><text fill="#000000" font-family="sans-serif" font-size="14" lengthAdjust="spacing" textLength="37" x="5" y="86.5332">Nurse</text><ellipse cx="26.5" cy="15" fill="#FEFECE" filter="url(#f1mekri7gk14t2)" rx="8" ry="8" style="stroke:#A80036;stroke-width:2.0;"/><path d="M26.5,23 L26.5,50 M13.5,31 L39.5,31 M26.5,50 L13.5,65 M26.5,50 L39.5,65 " fill="none" filter="url(#f1mekri7gk14t2)" style="stroke:#A80036;stroke-width:2.0;"/><text fill="#000000" font-family="sans-serif" font-size="14" lengthAdjust="spacing" textLength="37" x="5" y="244.5488">Nurse</text><ellipse cx="26.5" cy="257.625" fill="#FEFECE" filter="url(#f1mekri7gk14t2)" rx="8" ry="8" style="stroke:#A80036;stroke-width:2.0;"/><path d="M26.5,265.625 L26.5,292.625 M13.5,273.625 L39.5,273.625 M26.5,292.625 L13.5,307.625 M26.5,292.625 L39.5,307.625 " fill="none" filter="url(#f1mekri7gk14t2)" style="stroke:#A80036;stroke-width:2.0;"/><rect fill="#FEFECE" filter="url(#f1mekri7gk14t2)" height="31.6094" style="stroke:#A80036;stroke-width:1.5;" width="64" x="425.5" y="53"/><text fill="#000000" font-family="sans-serif" font-size="14" lengthAdjust="spacing" textLength="50" x="432.5" y="74.5332">:System</text><rect fill="#FEFECE" filter="url(#f1mekri7gk14t2)" height="31.6094" style="stroke:#A80036;stroke-width:1.5;" width="64" x="425.5" y="230.0156"/><text fill="#000000" font-family="sans-serif" font-size="14" lengthAdjust="spacing" textLength="50" x="432.5" y="251.5488">:System</text><rect fill="#FFFFFF" filter="url(#f1mekri7gk14t2)" height="122.4063" style="stroke:#A80036;stroke-width:1.0;" width="10" x="21.5" y="99.6094"/><rect fill="#FFFFFF" filter="url(#f1mekri7gk14t2)" height="30.3516" style="stroke:#A80036;stroke-width:1.0;" width="10" x="454.5" y="121.9609"/><rect fill="#FFFFFF" filter="url(#f1mekri7gk14t2)" height="30.3516" style="stroke:#A80036;stroke-width:1.0;" width="10" x="454.5" y="182.6641"/><polygon fill="#A80036" points="442.5,117.9609,452.5,121.9609,442.5,125.9609,446.5,121.9609" style="stroke:#A80036;stroke-width:1.0;"/><line style="stroke:#A80036;stroke-width:1.0;" x1="31.5" x2="448.5" y1="121.9609" y2="121.9609"/><text fill="#000000" font-family="sans-serif" font-size="13" font-weight="bold" lengthAdjust="spacing" textLength="7" x="38.5" y="117.1045">1</text><text fill="#000000" font-family="sans-serif" font-size="13" lengthAdjust="spacing" textLength="393" x="49.5" y="117.1045">asks to consult the users in the waiting room of a vaccination center</text><polygon fill="#A80036" points="42.5,148.3125,32.5,152.3125,42.5,156.3125,38.5,152.3125" style="stroke:#A80036;stroke-width:1.0;"/><line style="stroke:#A80036;stroke-width:1.0;stroke-dasharray:2.0,2.0;" x1="36.5" x2="458.5" y1="152.3125" y2="152.3125"/><text fill="#000000" font-family="sans-serif" font-size="13" font-weight="bold" lengthAdjust="spacing" textLength="7" x="48.5" y="147.4561">2</text><text fill="#000000" font-family="sans-serif" font-size="13" lengthAdjust="spacing" textLength="180" x="59.5" y="147.4561">requests the vaccination center</text><polygon fill="#A80036" points="442.5,178.6641,452.5,182.6641,442.5,186.6641,446.5,182.6641" style="stroke:#A80036;stroke-width:1.0;"/><line style="stroke:#A80036;stroke-width:1.0;" x1="31.5" x2="448.5" y1="182.6641" y2="182.6641"/><text fill="#000000" font-family="sans-serif" font-size="13" font-weight="bold" lengthAdjust="spacing" textLength="7" x="38.5" y="177.8076">3</text><text fill="#000000" font-family="sans-serif" font-size="13" lengthAdjust="spacing" textLength="364" x="49.5" y="177.8076">chooses the option containing the requested vaccination center</text><polygon fill="#A80036" points="42.5,209.0156,32.5,213.0156,42.5,217.0156,38.5,213.0156" style="stroke:#A80036;stroke-width:1.0;"/><line style="stroke:#A80036;stroke-width:1.0;stroke-dasharray:2.0,2.0;" x1="36.5" x2="458.5" y1="213.0156" y2="213.0156"/><text fill="#000000" font-family="sans-serif" font-size="13" font-weight="bold" lengthAdjust="spacing" textLength="7" x="48.5" y="208.1592">4</text><text fill="#000000" font-family="sans-serif" font-size="13" lengthAdjust="spacing" textLength="329" x="59.5" y="208.1592">shows the users in that vaccination center's waiting room</text><!--MD5=[337af85d98b64164a5f341a74e9a5a19]
@startuml
autonumber
actor "Nurse" as N

activate N
N -> ":System" : asks to consult the users in the waiting room of a vaccination center
activate ":System"
":System" - -> N : requests the vaccination center
deactivate ":System"

N -> ":System" : chooses the option containing the requested vaccination center
activate ":System"
":System" - -> N : shows the users in that vaccination center's waiting room
deactivate ":System"

@enduml

PlantUML version 1.2022.1(Tue Feb 01 18:19:58 GMT 2022)
(GPL source distribution)
Java Runtime: OpenJDK Runtime Environment
JVM: OpenJDK 64-Bit Server VM
Default Encoding: Cp1252
Language: pt
Country: PT
--></g></svg>