<?xml version="1.0" encoding="UTF-8" standalone="no"?><svg xmlns="http://www.w3.org/2000/svg" xmlns:xlink="http://www.w3.org/1999/xlink" contentScriptType="application/ecmascript" contentStyleType="text/css" height="152px" preserveAspectRatio="none" style="width:290px;height:152px;background:#FFFFFF;" version="1.1" viewBox="0 0 290 152" width="290px" zoomAndPan="magnify"><defs><filter height="300%" id="f1ehsfu22os40p" width="300%" x="-1" y="-1"><feGaussianBlur result="blurOut" stdDeviation="2.0"/><feColorMatrix in="blurOut" result="blurOut2" type="matrix" values="0 0 0 0 0 0 0 0 0 0 0 0 0 0 0 0 0 0 .4 0"/><feOffset dx="4.0" dy="4.0" in="blurOut2" result="blurOut3"/><feBlend in="SourceGraphic" in2="blurOut3" mode="normal"/></filter></defs><g><!--MD5=[b0c22d5f9c216eda18ad0fb2e307d778]
class ConsultUsersInTheWaitingRoomUI--><rect codeLine="6" fill="#FEFECE" filter="url(#f1ehsfu22os40p)" height="48" id="ConsultUsersInTheWaitingRoomUI" style="stroke:#A80036;stroke-width:1.5;" width="227" x="28" y="7"/><ellipse cx="43" cy="23" fill="#ADD1B2" rx="11" ry="11" style="stroke:#A80036;stroke-width:1.0;"/><path d="M45,19.5 Q45.2031,19 45.4375,18.75 Q45.6719,18.5 45.9375,18.5 Q46.4063,18.5 46.7031,18.7813 Q47,19.0625 47,19.7188 L47,21.2813 Q47,21.9375 46.7188,22.2188 Q46.4375,22.5 46,22.5 Q45.6094,22.5 45.3594,22.3281 Q45.1094,22.1563 45,21.7031 Q44.9531,21.3906 44.7813,21.2188 Q44.4688,20.8906 43.9063,20.7031 Q43.3438,20.5 42.7813,20.5 Q42.0781,20.5 41.4844,20.7813 Q40.9063,21.0625 40.4531,21.6875 Q40,22.3125 40,23.1719 L40,24.0938 Q40,25.125 40.8438,25.8125 Q41.6875,26.5 43.1875,26.5 Q44.0781,26.5 44.7031,26.2969 Q45.0625,26.1875 45.4688,25.8281 Q45.7344,25.625 45.875,25.5625 Q46.0156,25.5 46.1875,25.5 Q46.5156,25.5 46.75,25.7656 Q47,26.0156 47,26.375 Q47,26.7188 46.6563,27.125 Q46.1563,27.7188 45.3594,28.0469 Q44.3125,28.5 43.0313,28.5 Q41.5313,28.5 40.3281,27.9063 Q39.3594,27.4375 38.6719,26.4219 Q38,25.4063 38,24.2031 L38,23.1094 Q38,21.8594 38.5938,20.7656 Q39.2031,19.6719 40.25,19.0938 Q41.3125,18.5 42.5,18.5 Q43.2188,18.5 43.8438,18.75 Q44.4688,19 45,19.5 Z " fill="#000000"/><text fill="#000000" font-family="sans-serif" font-size="12" lengthAdjust="spacing" textLength="195" x="57" y="27.9102">ConsultUsersInTheWaitingRoomUI</text><line style="stroke:#A80036;stroke-width:1.5;" x1="29" x2="254" y1="39" y2="39"/><line style="stroke:#A80036;stroke-width:1.5;" x1="29" x2="254" y1="47" y2="47"/><!--MD5=[887485d3f5f766bafbfde75a75680356]
class ConsultUsersInTheWaitingRoomController--><rect codeLine="8" fill="#FEFECE" filter="url(#f1ehsfu22os40p)" height="48" id="ConsultUsersInTheWaitingRoomController" style="stroke:#A80036;stroke-width:1.5;" width="269" x="7" y="90"/><ellipse cx="22" cy="106" fill="#ADD1B2" rx="11" ry="11" style="stroke:#A80036;stroke-width:1.0;"/><path d="M24,102.5 Q24.2031,102 24.4375,101.75 Q24.6719,101.5 24.9375,101.5 Q25.4063,101.5 25.7031,101.7813 Q26,102.0625 26,102.7188 L26,104.2813 Q26,104.9375 25.7188,105.2188 Q25.4375,105.5 25,105.5 Q24.6094,105.5 24.3594,105.3281 Q24.1094,105.1563 24,104.7031 Q23.9531,104.3906 23.7813,104.2188 Q23.4688,103.8906 22.9063,103.7031 Q22.3438,103.5 21.7813,103.5 Q21.0781,103.5 20.4844,103.7813 Q19.9063,104.0625 19.4531,104.6875 Q19,105.3125 19,106.1719 L19,107.0938 Q19,108.125 19.8438,108.8125 Q20.6875,109.5 22.1875,109.5 Q23.0781,109.5 23.7031,109.2969 Q24.0625,109.1875 24.4688,108.8281 Q24.7344,108.625 24.875,108.5625 Q25.0156,108.5 25.1875,108.5 Q25.5156,108.5 25.75,108.7656 Q26,109.0156 26,109.375 Q26,109.7188 25.6563,110.125 Q25.1563,110.7188 24.3594,111.0469 Q23.3125,111.5 22.0313,111.5 Q20.5313,111.5 19.3281,110.9063 Q18.3594,110.4375 17.6719,109.4219 Q17,108.4063 17,107.2031 L17,106.1094 Q17,104.8594 17.5938,103.7656 Q18.2031,102.6719 19.25,102.0938 Q20.3125,101.5 21.5,101.5 Q22.2188,101.5 22.8438,101.75 Q23.4688,102 24,102.5 Z " fill="#000000"/><text fill="#000000" font-family="sans-serif" font-size="12" lengthAdjust="spacing" textLength="237" x="36" y="110.9102">ConsultUsersInTheWaitingRoomController</text><line style="stroke:#A80036;stroke-width:1.5;" x1="8" x2="275" y1="122" y2="122"/><line style="stroke:#A80036;stroke-width:1.5;" x1="8" x2="275" y1="130" y2="130"/><!--MD5=[4c34202c204b56b7e1f3e613bec05df2]
link ConsultUsersInTheWaitingRoomUI to ConsultUsersInTheWaitingRoomController--><path codeLine="14" d="M141.5,55.3 C141.5,65.06 141.5,74.82 141.5,84.58 " fill="none" id="ConsultUsersInTheWaitingRoomUI-to-ConsultUsersInTheWaitingRoomController" style="stroke:#A80036;stroke-width:1.0;stroke-dasharray:7.0,7.0;"/><polygon fill="#A80036" points="141.5,89.68,145.5,80.68,141.5,84.68,137.5,80.68,141.5,89.68" style="stroke:#A80036;stroke-width:1.0;"/><!--MD5=[9d444e476e148e0d88c67a7fd58947fc]
@startuml
'https://plantuml.com/class-diagram




class ConsultUsersInTheWaitingRoomUI

class ConsultUsersInTheWaitingRoomController{
}


left to right direction

ConsultUsersInTheWaitingRoomUI .> ConsultUsersInTheWaitingRoomController

@enduml

@startuml




class ConsultUsersInTheWaitingRoomUI

class ConsultUsersInTheWaitingRoomController{
}


left to right direction

ConsultUsersInTheWaitingRoomUI .> ConsultUsersInTheWaitingRoomController

@enduml

PlantUML version 1.2022.1(Tue Feb 01 18:19:58 GMT 2022)
(GPL source distribution)
Java Runtime: OpenJDK Runtime Environment
JVM: OpenJDK 64-Bit Server VM
Default Encoding: Cp1252
Language: pt
Country: PT
--></g></svg>