<?xml version="1.0" encoding="UTF-8" standalone="no"?><svg xmlns="http://www.w3.org/2000/svg" xmlns:xlink="http://www.w3.org/1999/xlink" contentScriptType="application/ecmascript" contentStyleType="text/css" height="2602px" preserveAspectRatio="none" style="width:700px;height:2602px;background:#FFFFFF;" version="1.1" viewBox="0 0 700 2602" width="700px" zoomAndPan="magnify"><defs><filter height="300%" id="f1l487ry7uy9px" width="300%" x="-1" y="-1"><feGaussianBlur result="blurOut" stdDeviation="2.0"/><feColorMatrix in="blurOut" result="blurOut2" type="matrix" values="0 0 0 0 0 0 0 0 0 0 0 0 0 0 0 0 0 0 .4 0"/><feOffset dx="4.0" dy="4.0" in="blurOut2" result="blurOut3"/><feBlend in="SourceGraphic" in2="blurOut3" mode="normal"/></filter></defs><g><rect fill="none" height="32.6406" rx="10" ry="10" style="stroke:#000000;stroke-width:2.0;" width="158" x="264.2109" y="2"/><text fill="#000000" font-family="sans-serif" font-size="18" lengthAdjust="spacing" textLength="142" x="272.2109" y="25.6855">Usecase Diagram</text><ellipse cx="437.9339" cy="2368.7274" fill="#00FA9A" filter="url(#f1l487ry7uy9px)" rx="115.9339" ry="25.5868" style="stroke:#000000;stroke-width:1.5;"/><text fill="#000000" font-family="sans-serif" font-size="14" lengthAdjust="spacing" textLength="196" x="339.9339" y="2372.4559">Schedule Vaccine Appointment</text><ellipse cx="437.804" cy="2454.4014" fill="#00FA9A" filter="url(#f1l487ry7uy9px)" rx="111.804" ry="24.7608" style="stroke:#000000;stroke-width:1.5;"/><text fill="#000000" font-family="sans-serif" font-size="14" lengthAdjust="spacing" textLength="187" x="344.304" y="2458.1299">Obtain Vaccination Certificate</text><ellipse cx="437.8631" cy="2552.5133" fill="#00FA9A" filter="url(#f1l487ry7uy9px)" rx="177.3631" ry="37.8726" style="stroke:#000000;stroke-width:1.5;"/><text fill="#000000" font-family="sans-serif" font-size="14" lengthAdjust="spacing" textLength="245" x="315.3631" y="2547.4371">Authorize DGS to send a message with</text><text fill="#000000" font-family="sans-serif" font-size="14" lengthAdjust="spacing" textLength="285" x="297.3631" y="2565.0465">information about the scheduled appointment</text><!--MD5=[ee0fec323975fbe97ba28321ad4c4bf3]
entity U--><ellipse cx="67" cy="2422.6406" fill="#00FA9A" filter="url(#f1l487ry7uy9px)" rx="8" ry="8" style="stroke:#00FA9A;stroke-width:1.5;"/><path d="M67,2430.6406 L67,2457.6406 M54,2438.6406 L80,2438.6406 M67,2457.6406 L54,2472.6406 M67,2457.6406 L80,2472.6406 " fill="none" filter="url(#f1l487ry7uy9px)" style="stroke:#00FA9A;stroke-width:1.5;"/><text fill="#000000" font-family="sans-serif" font-size="14" lengthAdjust="spacing" textLength="29" x="52.5" y="2492.6738">User</text><ellipse cx="437.8881" cy="1333.6182" fill="#CD5C5C" filter="url(#f1l487ry7uy9px)" rx="157.8881" ry="33.9776" style="stroke:#000000;stroke-width:1.5;"/><text fill="#000000" font-family="sans-serif" font-size="14" lengthAdjust="spacing" textLength="285" x="295.3881" y="1337.3468">Check the list of SNS users in the vaccination</text><ellipse cx="437.7877" cy="1420.6982" fill="#CD5C5C" filter="url(#f1l487ry7uy9px)" rx="78.2877" ry="18.0575" style="stroke:#000000;stroke-width:1.5;"/><text fill="#000000" font-family="sans-serif" font-size="14" lengthAdjust="spacing" textLength="110" x="381.0149" y="1424.918">Check User's info</text><ellipse cx="437.804" cy="1498.4014" fill="#CD5C5C" filter="url(#f1l487ry7uy9px)" rx="111.804" ry="24.7608" style="stroke:#000000;stroke-width:1.5;"/><text fill="#000000" font-family="sans-serif" font-size="14" lengthAdjust="spacing" textLength="187" x="344.304" y="1502.1299">Check User's health condition</text><ellipse cx="438.1118" cy="1587.863" fill="#CD5C5C" filter="url(#f1l487ry7uy9px)" rx="134.1118" ry="29.2224" style="stroke:#000000;stroke-width:1.5;"/><text fill="#000000" font-family="sans-serif" font-size="14" lengthAdjust="spacing" textLength="235" x="320.6118" y="1591.5915">Check User's scheduled vaccine type</text><ellipse cx="438.1279" cy="1678.4662" fill="#CD5C5C" filter="url(#f1l487ry7uy9px)" rx="119.6279" ry="26.3256" style="stroke:#000000;stroke-width:1.5;"/><text fill="#000000" font-family="sans-serif" font-size="14" lengthAdjust="spacing" textLength="204" x="336.1279" y="1682.1947">Check User's vaccination history</text><ellipse cx="437.7928" cy="1763.4992" fill="#CD5C5C" filter="url(#f1l487ry7uy9px)" rx="102.2928" ry="22.8586" style="stroke:#000000;stroke-width:1.5;"/><text fill="#000000" font-family="sans-serif" font-size="14" lengthAdjust="spacing" textLength="166" x="354.7928" y="1767.2277">Registers vaccination type</text><ellipse cx="438.0948" cy="1846.8596" fill="#CD5C5C" filter="url(#f1l487ry7uy9px)" rx="114.0948" ry="25.219" style="stroke:#000000;stroke-width:1.5;"/><text fill="#000000" font-family="sans-serif" font-size="14" lengthAdjust="spacing" textLength="192" x="342.0948" y="1850.5881">Registers vaccine name/brand</text><ellipse cx="437.9781" cy="1931.5362" fill="#CD5C5C" filter="url(#f1l487ry7uy9px)" rx="109.9781" ry="24.3956" style="stroke:#000000;stroke-width:1.5;"/><text fill="#000000" font-family="sans-serif" font-size="14" lengthAdjust="spacing" textLength="183" x="346.4781" y="1935.2648">Registers vaccine lot number</text><ellipse cx="437.8903" cy="2015.7187" fill="#CD5C5C" filter="url(#f1l487ry7uy9px)" rx="110.8903" ry="24.5781" style="stroke:#000000;stroke-width:1.5;"/><text fill="#000000" font-family="sans-serif" font-size="14" lengthAdjust="spacing" textLength="185" x="345.3903" y="2019.4472">Issue a vaccination certificate</text><ellipse cx="437.9506" cy="2097.7307" fill="#CD5C5C" filter="url(#f1l487ry7uy9px)" rx="100.9506" ry="22.5901" style="stroke:#000000;stroke-width:1.5;"/><text fill="#000000" font-family="sans-serif" font-size="14" lengthAdjust="spacing" textLength="163" x="356.4506" y="2101.4593">Record adverse reactions</text><ellipse cx="437.7512" cy="2179.4909" fill="#CD5C5C" filter="url(#f1l487ry7uy9px)" rx="107.2512" ry="23.8502" style="stroke:#000000;stroke-width:1.5;"/><text fill="#000000" font-family="sans-serif" font-size="14" lengthAdjust="spacing" textLength="177" x="349.2512" y="2183.2194">Schedule vaccine for a User</text><ellipse cx="437.8268" cy="2273.406" fill="#CD5C5C" filter="url(#f1l487ry7uy9px)" rx="159.3268" ry="34.2654" style="stroke:#000000;stroke-width:1.5;"/><text fill="#000000" font-family="sans-serif" font-size="14" lengthAdjust="spacing" textLength="288" x="293.8268" y="2277.1345">Get system instructions regarding the vaccine</text><!--MD5=[1d330b295f016d6727cd1dfcd8404564]
entity N--><ellipse cx="67" cy="1783.6406" fill="#FFFFFF" filter="url(#f1l487ry7uy9px)" rx="4.5" ry="4.5" style="stroke:#CD5C5C;stroke-width:1.5;"/><path d="M54.5,1790.1406 L54.5,1795.1406 L64,1795.1406 L64,1797.398 L54.5,1806.898 L58.7426,1811.1406 L67,1802.8833 L75.2574,1811.1406 L79.5,1806.898 L70,1797.398 L70,1795.1406 L79.5,1795.1406 L79.5,1790.1406 L54.5,1790.1406 " fill="#FFFFFF" filter="url(#f1l487ry7uy9px)" style="stroke:#CD5C5C;stroke-width:1.5;"/><text fill="#000000" font-family="sans-serif" font-size="14" lengthAdjust="spacing" textLength="37" x="48.5" y="1830.1738">Nurse</text><ellipse cx="437.804" cy="1098.4014" fill="#FFA500" filter="url(#f1l487ry7uy9px)" rx="111.804" ry="24.7608" style="stroke:#000000;stroke-width:1.5;"/><text fill="#000000" font-family="sans-serif" font-size="14" lengthAdjust="spacing" textLength="187" x="344.304" y="1102.1299">Registers the arrival of a user</text><ellipse cx="438.2109" cy="1211.5828" fill="#FFA500" filter="url(#f1l487ry7uy9px)" rx="250.2109" ry="52.4422" style="stroke:#000000;stroke-width:1.5;"/><text fill="#000000" font-family="sans-serif" font-size="14" lengthAdjust="spacing" textLength="446" x="213.2109" y="1206.5066">Confirms that the user has the vaccine scheduled for that day and time</text><text fill="#000000" font-family="sans-serif" font-size="14" lengthAdjust="spacing" textLength="173" x="351.7109" y="1224.116">using the SNS user number</text><!--MD5=[ca4fca654d8994778fee589c6b3ae58e]
entity R--><ellipse cx="67" cy="1132.6406" fill="#FFA500" filter="url(#f1l487ry7uy9px)" rx="16" ry="16" style="stroke:#FFA500;stroke-width:1.5;"/><path d="M67,1152.6406 C71,1152.6406 74,1152.6406 78,1148.6406 C86,1148.6406 94,1156.6406 94,1164.6406 L94,1168.6406 C94,1172.6406 90,1176.6406 86,1176.6406 L48,1176.6406 C44,1176.6406 40,1172.6406 40,1168.6406 L40,1164.6406 C40,1156.6406 48,1148.6406 56,1148.6406 C60,1152.6406 63,1152.6406 67,1152.6406 " fill="#FFA500" filter="url(#f1l487ry7uy9px)" style="stroke:#FFA500;stroke-width:1.5;"/><text fill="#000000" font-family="sans-serif" font-size="14" lengthAdjust="spacing" textLength="78" x="28" y="1192.6738">Receptionist</text><ellipse cx="438.1453" cy="845.4697" fill="#ADD8E6" filter="url(#f1l487ry7uy9px)" rx="152.1453" ry="32.8291" style="stroke:#000000;stroke-width:1.5;"/><text fill="#000000" font-family="sans-serif" font-size="14" lengthAdjust="spacing" textLength="273" x="301.6453" y="849.1982">Visualizes Vaccination Charts and Statistics</text><ellipse cx="437.8789" cy="932.5164" fill="#ADD8E6" filter="url(#f1l487ry7uy9px)" rx="79.8789" ry="18.3758" style="stroke:#000000;stroke-width:1.5;"/><text fill="#000000" font-family="sans-serif" font-size="14" lengthAdjust="spacing" textLength="114" x="379.8373" y="936.543">Generate Reports</text><ellipse cx="438.2402" cy="1012.6887" fill="#ADD8E6" filter="url(#f1l487ry7uy9px)" rx="118.2402" ry="26.048" style="stroke:#000000;stroke-width:1.5;"/><text fill="#000000" font-family="sans-serif" font-size="14" lengthAdjust="spacing" textLength="201" x="337.7402" y="1016.4172">Analyze data from other centers</text><!--MD5=[36dc586d67e0f1d076b0ce70c9875d3e]
entity CC--><ellipse cx="67" cy="909.6406" fill="#ADD8E6" filter="url(#f1l487ry7uy9px)" rx="16" ry="16" style="stroke:#ADD8E6;stroke-width:1.5;"/><path d="M67,929.6406 C71,929.6406 74,929.6406 78,925.6406 C86,925.6406 94,933.6406 94,941.6406 L94,945.6406 C94,949.6406 90,953.6406 86,953.6406 L48,953.6406 C44,953.6406 40,949.6406 40,945.6406 L40,941.6406 C40,933.6406 48,925.6406 56,925.6406 C60,929.6406 63,929.6406 67,929.6406 " fill="#ADD8E6" filter="url(#f1l487ry7uy9px)" style="stroke:#ADD8E6;stroke-width:1.5;"/><text fill="#000000" font-family="sans-serif" font-size="14" lengthAdjust="spacing" textLength="122" x="6" y="969.6738">Center Coordinator</text><ellipse cx="437.8283" cy="75.7063" fill="#D3D3D3" filter="url(#f1l487ry7uy9px)" rx="148.3283" ry="32.0657" style="stroke:#000000;stroke-width:1.5;"/><text fill="#000000" font-family="sans-serif" font-size="14" lengthAdjust="spacing" textLength="265" x="305.3283" y="79.4348">Configures and manages type of vaccines</text><ellipse cx="438.0728" cy="170.4552" fill="#D3D3D3" filter="url(#f1l487ry7uy9px)" rx="127.0728" ry="27.8146" style="stroke:#000000;stroke-width:1.5;"/><text fill="#000000" font-family="sans-serif" font-size="14" lengthAdjust="spacing" textLength="220" x="328.0728" y="174.1837">Configures and manages Vaccines</text><ellipse cx="437.9296" cy="267.4265" fill="#D3D3D3" filter="url(#f1l487ry7uy9px)" rx="156.9296" ry="33.7859" style="stroke:#000000;stroke-width:1.5;"/><text fill="#000000" font-family="sans-serif" font-size="14" lengthAdjust="spacing" textLength="283" x="296.4296" y="271.1551">Configures and manages Vaccination Center</text><ellipse cx="438.1999" cy="365.5806" fill="#D3D3D3" filter="url(#f1l487ry7uy9px)" rx="132.6999" ry="28.94" style="stroke:#000000;stroke-width:1.5;"/><text fill="#000000" font-family="sans-serif" font-size="14" lengthAdjust="spacing" textLength="232" x="322.1999" y="369.3091">Configures and manages Employees</text><ellipse cx="438.1203" cy="447.4647" fill="#D3D3D3" filter="url(#f1l487ry7uy9px)" rx="77.1203" ry="17.8241" style="stroke:#000000;stroke-width:1.5;"/><text fill="#000000" font-family="sans-serif" font-size="14" lengthAdjust="spacing" textLength="107" x="382.2783" y="451.8262">Registers Center</text><ellipse cx="437.7783" cy="526.5963" fill="#D3D3D3" filter="url(#f1l487ry7uy9px)" rx="117.7783" ry="25.9557" style="stroke:#000000;stroke-width:1.5;"/><text fill="#000000" font-family="sans-serif" font-size="14" lengthAdjust="spacing" textLength="200" x="337.7783" y="530.3248">Registers Centers Coordinators</text><ellipse cx="437.9661" cy="607.4339" fill="#D3D3D3" filter="url(#f1l487ry7uy9px)" rx="86.9661" ry="19.7932" style="stroke:#000000;stroke-width:1.5;"/><text fill="#000000" font-family="sans-serif" font-size="14" lengthAdjust="spacing" textLength="131" x="372.4661" y="611.1624">Registers SNS Users</text><ellipse cx="437.7514" cy="684.4909" fill="#D3D3D3" filter="url(#f1l487ry7uy9px)" rx="94.7514" ry="21.3503" style="stroke:#000000;stroke-width:1.5;"/><text fill="#000000" font-family="sans-serif" font-size="14" lengthAdjust="spacing" textLength="149" x="363.2514" y="688.2194">Registers Receptionists</text><ellipse cx="438.0069" cy="759.542" fill="#D3D3D3" filter="url(#f1l487ry7uy9px)" rx="77.5069" ry="17.9014" style="stroke:#000000;stroke-width:1.5;"/><text fill="#000000" font-family="sans-serif" font-size="14" lengthAdjust="spacing" textLength="108" x="381.8567" y="763.8566">Registers Nurses</text><!--MD5=[770389ab9df153645bc6ef28055eb2b5]
entity A--><ellipse cx="67" cy="424.6406" fill="#000000" filter="url(#f1l487ry7uy9px)" rx="16" ry="16" style="stroke:#000000;stroke-width:1.5;"/><path d="M67,444.6406 C71,444.6406 74,444.6406 78,440.6406 C86,440.6406 94,448.6406 94,456.6406 L94,460.6406 C94,464.6406 90,468.6406 86,468.6406 L48,468.6406 C44,468.6406 40,464.6406 40,460.6406 L40,456.6406 C40,448.6406 48,440.6406 56,440.6406 C60,444.6406 63,444.6406 67,444.6406 " fill="#000000" filter="url(#f1l487ry7uy9px)" style="stroke:#000000;stroke-width:1.5;"/><text fill="#000000" font-family="sans-serif" font-size="14" lengthAdjust="spacing" textLength="83" x="25.5" y="484.6738">Administrator</text><!--MD5=[6f6d7cf4515940dc12ef1f67efc72098]
link U to UC27--><path d="M81.81,2448.9806 C103.91,2440.1206 148.71,2422.9206 188,2412.6406 C237.27,2399.7606 293.01,2389.5106 339.25,2382.1706 " fill="none" id="U-UC27" style="stroke:#00FA9A;stroke-width:3.0;"/><!--MD5=[a93485a8bc4691c34bb47f290897a894]
link U to UC28--><path d="M81.57,2454.6406 C120.71,2454.6406 236.67,2454.6406 325.6,2454.6406 " fill="none" id="U-UC28" style="stroke:#00FA9A;stroke-width:3.0;"/><!--MD5=[9db3f11963c3b56553e03aab690f5843]
link U to UC29--><path d="M81.85,2460.2506 C104,2469.0806 148.87,2486.3606 188,2497.6406 C226.07,2508.6206 267.96,2518.6406 306.34,2527.0406 " fill="none" id="U-UC29" style="stroke:#00FA9A;stroke-width:3.0;"/><!--MD5=[45ec5f660a1431f4140bf38ed1d7072f]
link N to UC13--><path d="M72.2,1777.5406 C85.47,1692.4906 129.14,1440.3906 188,1385.6406 C213.79,1361.6506 247.67,1347.5706 282.11,1339.5406 " fill="none" id="N-UC13" style="stroke:#CD5C5C;stroke-width:3.0;"/><!--MD5=[d2368c9fa69d8b0e09420ebc85c2890d]
link N to UC14--><path d="M68.42,1777.6206 C71.06,1710.4406 87.82,1539.5906 188,1456.6406 C237.79,1415.4106 313.23,1409.8206 368.03,1412.4406 " fill="none" id="N-UC14" style="stroke:#CD5C5C;stroke-width:3.0;"/><!--MD5=[13a2c23d9099899f9128bb56f80ba898]
link N to UC15--><path d="M72.03,1777.6106 C81.49,1722.7906 110.5,1601.4906 188,1541.6406 C227.06,1511.4806 279.88,1499.5206 326.82,1495.5906 " fill="none" id="N-UC15" style="stroke:#CD5C5C;stroke-width:3.0;"/><!--MD5=[3c41a03bcdf26565fa951669ef5d9905]
link N to UC16--><path d="M79.52,1777.4306 C96.92,1738.6306 133.74,1669.6306 188,1634.6406 C222.94,1612.1106 266.01,1599.8106 306.46,1593.2606 " fill="none" id="N-UC16" style="stroke:#CD5C5C;stroke-width:3.0;"/><!--MD5=[4840d9a9115318c994c811b2787cd22c]
link N to UC17--><path d="M85.7,1789.9406 C107.95,1771.1006 148.08,1740.0106 188,1723.6406 C231.59,1705.7706 282.36,1694.9706 326.64,1688.4606 " fill="none" id="N-UC17" style="stroke:#CD5C5C;stroke-width:3.0;"/><!--MD5=[5ca663b67707d3aa98a320a864501e6c]
link N to UC18--><path d="M85.8,1803.6106 C132.01,1798.3506 258.32,1783.9806 346.13,1773.9806 " fill="none" id="N-UC18" style="stroke:#CD5C5C;stroke-width:3.0;"/><!--MD5=[3d4690e565485dc60cd04b66de9fa18c]
link N to UC19--><path d="M85.8,1807.6206 C130.21,1812.5506 248.61,1825.7106 335.71,1835.3906 " fill="none" id="N-UC19" style="stroke:#CD5C5C;stroke-width:3.0;"/><!--MD5=[52ce82814f5f023a9f64c7d2e69fb8c0]
link N to UC20--><path d="M85.59,1821.8206 C107.74,1841.2106 147.76,1873.1506 188,1889.6406 C233.54,1908.3006 287.01,1918.6706 332.71,1924.4306 " fill="none" id="N-UC20" style="stroke:#CD5C5C;stroke-width:3.0;"/><!--MD5=[8b516ebef69a08230539291531c88cf2]
link N to UC21--><path d="M79.71,1833.8306 C97.23,1872.1906 134.06,1939.9106 188,1973.6406 C229.07,1999.3206 281.08,2010.6606 326.93,2015.2506 " fill="none" id="N-UC21" style="stroke:#CD5C5C;stroke-width:3.0;"/><!--MD5=[319206bdd93ffde5b6f3fb8ae4cb00d4]
link N to UC22--><path d="M72.63,1833.7306 C82.95,1886.8206 113.14,2001.5806 188,2057.6406 C230.84,2089.7306 289.55,2100.2906 339.2,2102.5706 " fill="none" id="N-UC22" style="stroke:#CD5C5C;stroke-width:3.0;"/><!--MD5=[5f604e70c8b2d2da5f3ce021a379f094]
link N to UC23--><path d="M69.14,1834.1006 C73.39,1899.0506 93.43,2058.7006 188,2137.6406 C227.88,2170.9306 284.2,2182.4006 333.18,2185.1206 " fill="none" id="N-UC23" style="stroke:#CD5C5C;stroke-width:3.0;"/><!--MD5=[059c0f725ed0c34a4e306e06c20dc15c]
link N to UC24--><path d="M72.29,1833.7806 C85.73,1918.3106 129.66,2167.5106 188,2221.6406 C213.5,2245.2906 246.87,2259.3106 280.86,2267.3906 " fill="none" id="N-UC24" style="stroke:#CD5C5C;stroke-width:3.0;"/><!--MD5=[a849eafae1cbe63e664884908cd80d36]
link R to UC25--><path d="M106.1,1149.7506 C162.08,1141.1106 268.24,1124.7106 345.25,1112.8106 " fill="none" id="R-UC25" style="stroke:#FFA500;stroke-width:3.0;"/><!--MD5=[bd4ab326f06aa90f7e36a8e6bfaa3ade]
link R to UC26--><path d="M106.1,1161.4206 C137.77,1166.2306 185.51,1173.4706 234.94,1180.9806 " fill="none" id="R-UC26" style="stroke:#FFA500;stroke-width:3.0;"/><!--MD5=[d6b96a0389f8f37ac27f8ede4c787e28]
link CC to UC10--><path d="M128.14,913.4506 C147.18,907.6806 168.38,901.5806 188,896.6406 C231.43,885.7006 279.57,875.4206 321.85,866.9906 " fill="none" id="CC-UC10" style="stroke:#ADD8E6;stroke-width:3.0;"/><!--MD5=[cb4d4b74874b9d0fe9623886718e99f2]
link CC to UC11--><path d="M128.11,932.6406 C190.7,932.6406 289.05,932.6406 357.91,932.6406 " fill="none" id="CC-UC11" style="stroke:#ADD8E6;stroke-width:3.0;"/><!--MD5=[69bcd2b544ba0b77766e7cce51203978]
link CC to UC12--><path d="M128.06,952.1506 C147.1,957.9406 168.32,963.9706 188,968.6406 C237.65,980.4306 293.56,990.5906 339.79,998.1606 " fill="none" id="CC-UC12" style="stroke:#ADD8E6;stroke-width:3.0;"/><!--MD5=[6d61cf61677b770343ee213d3e8a499a]
link A to UC1--><path d="M70.74,407.0706 C77.7,337.9106 102.21,197.5906 188,124.6406 C216.53,100.3806 253.56,86.8306 290.31,79.5506 " fill="none" id="A-UC1" style="stroke:#000000;stroke-width:3.0;"/><!--MD5=[c6954081f67c17b9ee57f8d1fcc573a9]
link A to UC2--><path d="M77.27,406.8206 C91.53,353.8906 124.16,262.7806 188,215.6406 C223.16,189.6706 268.6,177.0906 311.03,171.4206 " fill="none" id="A-UC2" style="stroke:#000000;stroke-width:3.0;"/><!--MD5=[875227fbcbfb3c42e1eb2f000857fdf8]
link A to UC3--><path d="M95.21,406.9506 C116.89,377.8006 149.86,340.0606 188,318.6406 C220.12,300.6006 257.78,288.9006 293.95,281.3206 " fill="none" id="A-UC3" style="stroke:#000000;stroke-width:3.0;"/><!--MD5=[4c0bf5eb583465754496b5ffe4f45f16]
link A to UC4--><path d="M108.52,434.2806 C131.64,426.9706 161.26,418.1006 188,411.6406 C234.36,400.4406 286.15,390.4706 330.44,382.7006 " fill="none" id="A-UC4" style="stroke:#000000;stroke-width:3.0;"/><!--MD5=[9d86ffa6c13d5256416131528696f2d8]
link A to UC5--><path d="M108.54,447.6406 C169.11,447.6406 284.27,447.6406 360.85,447.6406 " fill="none" id="A-UC5" style="stroke:#000000;stroke-width:3.0;"/><!--MD5=[2871cf5443885f72af9dedd28f1a7e29]
link A to UC6--><path d="M108.53,460.6606 C131.65,467.7806 161.27,476.4006 188,482.6406 C237.8,494.2706 293.84,504.4206 340.13,512.0406 " fill="none" id="A-UC6" style="stroke:#000000;stroke-width:3.0;"/><!--MD5=[895711ac557db20cdb2a14f10c004e82]
link A to UC7--><path d="M96.77,488.4306 C118.55,516.0006 150.97,550.7106 188,569.6406 C238.13,595.2706 300.82,604.7306 350.75,607.8006 " fill="none" id="A-UC7" style="stroke:#000000;stroke-width:3.0;"/><!--MD5=[5ea53c8fc41ef74910cb7ae5db865cab]
link A to UC8--><path d="M80.99,488.1706 C97.92,534.0106 132.15,607.1306 188,644.6406 C233.52,675.2206 294.1,685.4506 344.11,687.9206 " fill="none" id="A-UC8" style="stroke:#000000;stroke-width:3.0;"/><!--MD5=[cd0b76491e9876132105be17c6a8259a]
link A to UC9--><path d="M73.21,488.2706 C83.42,549.8306 112.11,665.6906 188,723.6406 C238.77,762.4106 312.8,768.6306 366.94,766.8406 " fill="none" id="A-UC9" style="stroke:#000000;stroke-width:3.0;"/><!--MD5=[6fd25b62d0d0b5aaa7e28bcab9deeec4]
@startuml
'https://plantuml.com/use-case-diagram
'!pragma layout smetana

left to right direction
title Usecase Diagram
skinparam titleBorderRoundCorner 20
skinparam titleBorderThickness 2
skinparam arrowThickness 3

'**********User*************
Usecase UC27 as "Schedule Vaccine Appointment" #mediumSpringGreen;line:black
Usecase UC28 as "Obtain Vaccination Certificate" #mediumSpringGreen;line:black
Usecase UC29 as "Authorize DGS to send a message with\n information about the scheduled appointment" #mediumSpringGreen;line:black

:User: as U #mediumSpringGreen;line:mediumSpringGreen

U -d- UC27 #mediumSpringGreen
U -d- UC28 #mediumSpringGreen
U -d- UC29 #mediumSpringGreen





skinparam actorStyle Hollow
'**********Nurse*************
Usecase UC13 as "Check the list of SNS users in the vaccination"  #indianRed;line:black
Usecase UC14 as "Check User's info" #indianRed;line:black
Usecase UC15 as "Check User's health condition" #indianRed;line:black
Usecase UC16 as "Check User's scheduled vaccine type" #indianRed;line:black
Usecase UC17 as "Check User's vaccination history" #indianRed;line:black
Usecase UC18 as "Registers vaccination type" #indianRed;line:black
Usecase UC19 as "Registers vaccine name/brand" #indianRed;line:black
Usecase UC20 as "Registers vaccine lot number" #indianRed;line:black
Usecase UC21 as "Issue a vaccination certificate" #indianRed;line:black
Usecase UC22 as "Record adverse reactions" #indianRed;line:black
Usecase UC23 as "Schedule vaccine for a User" #indianRed;line:black
Usecase UC24 as "Get system instructions regarding the vaccine" #indianRed;line:black

:Nurse: as N #white;line:indianRed
N -d- UC13 #indianRed
N -d- UC14 #indianRed
N -d- UC15 #indianRed
N -d- UC16 #indianRed
N -d- UC17 #indianRed
N -d- UC18 #indianRed
N -d- UC19 #indianRed
N -d- UC20 #indianRed
N -d- UC21 #indianRed
N -d- UC22 #indianRed
N -d- UC23 #indianRed
N -d- UC24 #indianRed

skinparam actorStyle awesome


'**********Recepcionist*************
Usecase UC25 as "Registers the arrival of a user" #orange;line:black
Usecase UC26 as "Confirms that the user has the vaccine scheduled for that day and time \n using the SNS user number "  #orange;line:black

:Receptionist: as R #orange;line:orange
R -d- UC25  #orange;line:orange
R -d- UC26  #orange;line:orange


'**********Center Coordinator*************
Usecase UC10 as "Visualizes Vaccination Charts and Statistics" #lightblue;line:black
Usecase UC11 as "Generate Reports" #lightblue;line:black
Usecase UC12 as "Analyze data from other centers" #lightblue;line:black

:Center Coordinator: as CC #lightblue;line:lightblue;
CC -d- UC10 #lightblue;line:lightblue
CC -d- UC11 #lightblue;line:lightblue
CC -d- UC12 #lightblue;line:lightblue


'**********ADMINISTRATOR*************
Usecase UC1 as "Configures and manages type of vaccines"   #lightgrey;line:black
Usecase UC2 as "Configures and manages Vaccines"  #lightgrey;line:black
Usecase UC3 as "Configures and manages Vaccination Center"   #lightgrey;line:black
Usecase UC4 as "Configures and manages Employees"  #lightgrey;line:black
Usecase UC5 as "Registers Center" #lightgrey;line:black
Usecase UC6 as "Registers Centers Coordinators" #lightgrey;line:black
Usecase UC7 as "Registers SNS Users" #lightgrey;line:black
Usecase UC8 as "Registers Receptionists" #lightgrey;line:black
Usecase UC9 as "Registers Nurses" #lightgrey;line:black


:Administrator: as A #black;line:black
A -d- UC1 #black;line:black
A -d- UC2 #black;line:black
A -d- UC3 #black;line:black
A -d- UC4 #black;line:black
A -d- UC5 #black;line:black
A -d- UC6 #black;line:black
A -d- UC7 #black;line:black
A -d- UC8 #black;line:black
A -d- UC9 #black;line:black


'**********User*************



@enduml

@startuml

left to right direction
title Usecase Diagram
skinparam titleBorderRoundCorner 20
skinparam titleBorderThickness 2
skinparam arrowThickness 3

Usecase UC27 as "Schedule Vaccine Appointment" #mediumSpringGreen;line:black
Usecase UC28 as "Obtain Vaccination Certificate" #mediumSpringGreen;line:black
Usecase UC29 as "Authorize DGS to send a message with\n information about the scheduled appointment" #mediumSpringGreen;line:black

:User: as U #mediumSpringGreen;line:mediumSpringGreen

U -d- UC27 #mediumSpringGreen
U -d- UC28 #mediumSpringGreen
U -d- UC29 #mediumSpringGreen





skinparam actorStyle Hollow
Usecase UC13 as "Check the list of SNS users in the vaccination"  #indianRed;line:black
Usecase UC14 as "Check User's info" #indianRed;line:black
Usecase UC15 as "Check User's health condition" #indianRed;line:black
Usecase UC16 as "Check User's scheduled vaccine type" #indianRed;line:black
Usecase UC17 as "Check User's vaccination history" #indianRed;line:black
Usecase UC18 as "Registers vaccination type" #indianRed;line:black
Usecase UC19 as "Registers vaccine name/brand" #indianRed;line:black
Usecase UC20 as "Registers vaccine lot number" #indianRed;line:black
Usecase UC21 as "Issue a vaccination certificate" #indianRed;line:black
Usecase UC22 as "Record adverse reactions" #indianRed;line:black
Usecase UC23 as "Schedule vaccine for a User" #indianRed;line:black
Usecase UC24 as "Get system instructions regarding the vaccine" #indianRed;line:black

:Nurse: as N #white;line:indianRed
N -d- UC13 #indianRed
N -d- UC14 #indianRed
N -d- UC15 #indianRed
N -d- UC16 #indianRed
N -d- UC17 #indianRed
N -d- UC18 #indianRed
N -d- UC19 #indianRed
N -d- UC20 #indianRed
N -d- UC21 #indianRed
N -d- UC22 #indianRed
N -d- UC23 #indianRed
N -d- UC24 #indianRed

skinparam actorStyle awesome


Usecase UC25 as "Registers the arrival of a user" #orange;line:black
Usecase UC26 as "Confirms that the user has the vaccine scheduled for that day and time \n using the SNS user number "  #orange;line:black

:Receptionist: as R #orange;line:orange
R -d- UC25  #orange;line:orange
R -d- UC26  #orange;line:orange


Usecase UC10 as "Visualizes Vaccination Charts and Statistics" #lightblue;line:black
Usecase UC11 as "Generate Reports" #lightblue;line:black
Usecase UC12 as "Analyze data from other centers" #lightblue;line:black

:Center Coordinator: as CC #lightblue;line:lightblue;
CC -d- UC10 #lightblue;line:lightblue
CC -d- UC11 #lightblue;line:lightblue
CC -d- UC12 #lightblue;line:lightblue


Usecase UC1 as "Configures and manages type of vaccines"   #lightgrey;line:black
Usecase UC2 as "Configures and manages Vaccines"  #lightgrey;line:black
Usecase UC3 as "Configures and manages Vaccination Center"   #lightgrey;line:black
Usecase UC4 as "Configures and manages Employees"  #lightgrey;line:black
Usecase UC5 as "Registers Center" #lightgrey;line:black
Usecase UC6 as "Registers Centers Coordinators" #lightgrey;line:black
Usecase UC7 as "Registers SNS Users" #lightgrey;line:black
Usecase UC8 as "Registers Receptionists" #lightgrey;line:black
Usecase UC9 as "Registers Nurses" #lightgrey;line:black


:Administrator: as A #black;line:black
A -d- UC1 #black;line:black
A -d- UC2 #black;line:black
A -d- UC3 #black;line:black
A -d- UC4 #black;line:black
A -d- UC5 #black;line:black
A -d- UC6 #black;line:black
A -d- UC7 #black;line:black
A -d- UC8 #black;line:black
A -d- UC9 #black;line:black





@enduml

PlantUML version 1.2022.1(Tue Feb 01 18:19:58 GMT 2022)
(GPL source distribution)
Java Runtime: OpenJDK Runtime Environment
JVM: OpenJDK 64-Bit Server VM
Default Encoding: Cp1252
Language: en
Country: US
--></g></svg>