<?xml version="1.0" encoding="UTF-8" standalone="no"?><svg xmlns="http://www.w3.org/2000/svg" xmlns:xlink="http://www.w3.org/1999/xlink" contentScriptType="application/ecmascript" contentStyleType="text/css" height="2832px" preserveAspectRatio="none" style="width:745px;height:2832px;background:#FFFFFF;" version="1.1" viewBox="0 0 745 2832" width="745px" zoomAndPan="magnify"><defs><filter height="300%" id="f80rt2xb9q5nq" width="300%" x="-1" y="-1"><feGaussianBlur result="blurOut" stdDeviation="2.0"/><feColorMatrix in="blurOut" result="blurOut2" type="matrix" values="0 0 0 0 0 0 0 0 0 0 0 0 0 0 0 0 0 0 .4 0"/><feOffset dx="4.0" dy="4.0" in="blurOut2" result="blurOut3"/><feBlend in="SourceGraphic" in2="blurOut3" mode="normal"/></filter></defs><g><rect fill="none" height="32.6406" rx="10" ry="10" style="stroke:#000000;stroke-width:2.0;" width="158" x="286.7726" y="2"/><text fill="#000000" font-family="sans-serif" font-size="18" lengthAdjust="spacing" textLength="142" x="294.7726" y="25.6855">Usecase Diagram</text><ellipse cx="460.859" cy="2585.7124" fill="#00FA9A" filter="url(#f80rt2xb9q5nq)" rx="138.359" ry="30.0718" style="stroke:#000000;stroke-width:1.5;"/><text fill="#000000" font-family="sans-serif" font-size="14" lengthAdjust="spacing" textLength="244" x="338.859" y="2589.4409">UC27 - Schedule Vaccine Appointment</text><ellipse cx="461.1118" cy="2679.863" fill="#00FA9A" filter="url(#f80rt2xb9q5nq)" rx="134.1118" ry="29.2224" style="stroke:#000000;stroke-width:1.5;"/><text fill="#000000" font-family="sans-serif" font-size="14" lengthAdjust="spacing" textLength="235" x="343.6118" y="2683.5915">UC28 - Obtain Vaccination Certificate</text><ellipse cx="461.0923" cy="2781.8591" fill="#00FA9A" filter="url(#f80rt2xb9q5nq)" rx="179.0923" ry="38.2185" style="stroke:#000000;stroke-width:1.5;"/><text fill="#000000" font-family="sans-serif" font-size="14" lengthAdjust="spacing" textLength="293" x="314.5923" y="2776.7829">UC29 - Authorize DGS to send a message with</text><text fill="#000000" font-family="sans-serif" font-size="14" lengthAdjust="spacing" textLength="285" x="320.5923" y="2794.3923">information about the scheduled appointment</text><!--MD5=[ee0fec323975fbe97ba28321ad4c4bf3]
entity U--><ellipse cx="67" cy="2647.6406" fill="#00FA9A" filter="url(#f80rt2xb9q5nq)" rx="8" ry="8" style="stroke:#00FA9A;stroke-width:1.5;"/><path d="M67,2655.6406 L67,2682.6406 M54,2663.6406 L80,2663.6406 M67,2682.6406 L54,2697.6406 M67,2682.6406 L80,2697.6406 " fill="none" filter="url(#f80rt2xb9q5nq)" style="stroke:#00FA9A;stroke-width:1.5;"/><text fill="#000000" font-family="sans-serif" font-size="14" lengthAdjust="spacing" textLength="29" x="52.5" y="2717.6738">User</text><ellipse cx="460.9133" cy="2249.4233" fill="#FFA500" filter="url(#f80rt2xb9q5nq)" rx="129.4133" ry="28.2827" style="stroke:#000000;stroke-width:1.5;"/><text fill="#000000" font-family="sans-serif" font-size="14" lengthAdjust="spacing" textLength="225" x="348.4133" y="2253.1518">UC24 - Schedule vaccine for a User</text><ellipse cx="461.1118" cy="2342.863" fill="#FFA500" filter="url(#f80rt2xb9q5nq)" rx="134.1118" ry="29.2224" style="stroke:#000000;stroke-width:1.5;"/><text fill="#000000" font-family="sans-serif" font-size="14" lengthAdjust="spacing" textLength="235" x="343.6118" y="2346.5915">UC25 - Registers the arrival of a user</text><ellipse cx="460.7726" cy="2463.5951" fill="#FFA500" filter="url(#f80rt2xb9q5nq)" rx="272.7726" ry="56.9545" style="stroke:#000000;stroke-width:1.5;"/><text fill="#000000" font-family="sans-serif" font-size="14" lengthAdjust="spacing" textLength="494" x="211.7726" y="2458.519">UC26 - Confirms that the user has the vaccine scheduled for that day and time</text><text fill="#000000" font-family="sans-serif" font-size="14" lengthAdjust="spacing" textLength="173" x="374.2726" y="2476.1283">using the SNS user number</text><!--MD5=[ca4fca654d8994778fee589c6b3ae58e]
entity R--><ellipse cx="67" cy="2319.6406" fill="#FFA500" filter="url(#f80rt2xb9q5nq)" rx="16" ry="16" style="stroke:#FFA500;stroke-width:1.5;"/><path d="M67,2339.6406 C71,2339.6406 74,2339.6406 78,2335.6406 C86,2335.6406 94,2343.6406 94,2351.6406 L94,2355.6406 C94,2359.6406 90,2363.6406 86,2363.6406 L48,2363.6406 C44,2363.6406 40,2359.6406 40,2355.6406 L40,2351.6406 C40,2343.6406 48,2335.6406 56,2335.6406 C60,2339.6406 63,2339.6406 67,2339.6406 " fill="#FFA500" filter="url(#f80rt2xb9q5nq)" style="stroke:#FFA500;stroke-width:1.5;"/><text fill="#000000" font-family="sans-serif" font-size="14" lengthAdjust="spacing" textLength="78" x="28" y="2379.6738">Receptionist</text><ellipse cx="461.029" cy="1201.7464" fill="#CD5C5C" filter="url(#f80rt2xb9q5nq)" rx="181.029" ry="38.6058" style="stroke:#000000;stroke-width:1.5;"/><text fill="#000000" font-family="sans-serif" font-size="14" lengthAdjust="spacing" textLength="333" x="294.529" y="1205.4749">UC13 - Check the list of SNS users in the vaccination</text><ellipse cx="461.2239" cy="1297.7854" fill="#CD5C5C" filter="url(#f80rt2xb9q5nq)" rx="98.7239" ry="22.1448" style="stroke:#000000;stroke-width:1.5;"/><text fill="#000000" font-family="sans-serif" font-size="14" lengthAdjust="spacing" textLength="158" x="382.2239" y="1301.5139">UC14 - Check User's info</text><ellipse cx="461.1118" cy="1383.863" fill="#CD5C5C" filter="url(#f80rt2xb9q5nq)" rx="134.1118" ry="29.2224" style="stroke:#000000;stroke-width:1.5;"/><text fill="#000000" font-family="sans-serif" font-size="14" lengthAdjust="spacing" textLength="235" x="343.6118" y="1387.5915">UC15 - Check User's health condition</text><ellipse cx="460.9296" cy="1481.4265" fill="#CD5C5C" filter="url(#f80rt2xb9q5nq)" rx="156.9296" ry="33.7859" style="stroke:#000000;stroke-width:1.5;"/><text fill="#000000" font-family="sans-serif" font-size="14" lengthAdjust="spacing" textLength="283" x="319.4296" y="1485.1551">UC16 - Check User's scheduled vaccine type</text><ellipse cx="461.1476" cy="1581.4702" fill="#CD5C5C" filter="url(#f80rt2xb9q5nq)" rx="142.1476" ry="30.8295" style="stroke:#000000;stroke-width:1.5;"/><text fill="#000000" font-family="sans-serif" font-size="14" lengthAdjust="spacing" textLength="252" x="335.1476" y="1585.1987">UC17 - Check User's vaccination history</text><ellipse cx="460.7727" cy="1675.3952" fill="#CD5C5C" filter="url(#f80rt2xb9q5nq)" rx="124.2727" ry="27.2545" style="stroke:#000000;stroke-width:1.5;"/><text fill="#000000" font-family="sans-serif" font-size="14" lengthAdjust="spacing" textLength="214" x="353.7727" y="1679.1237">UC18 - Registers vaccination type</text><ellipse cx="460.9693" cy="1767.8345" fill="#CD5C5C" filter="url(#f80rt2xb9q5nq)" rx="136.4693" ry="29.6939" style="stroke:#000000;stroke-width:1.5;"/><text fill="#000000" font-family="sans-serif" font-size="14" lengthAdjust="spacing" textLength="240" x="340.9693" y="1771.563">UC19 - Registers vaccine name/brand</text><ellipse cx="461.2297" cy="1861.4866" fill="#CD5C5C" filter="url(#f80rt2xb9q5nq)" rx="132.2297" ry="28.8459" style="stroke:#000000;stroke-width:1.5;"/><text fill="#000000" font-family="sans-serif" font-size="14" lengthAdjust="spacing" textLength="231" x="345.7297" y="1865.2151">UC20 - Registers vaccine lot number</text><ellipse cx="461.1703" cy="1954.6747" fill="#CD5C5C" filter="url(#f80rt2xb9q5nq)" rx="133.1703" ry="29.0341" style="stroke:#000000;stroke-width:1.5;"/><text fill="#000000" font-family="sans-serif" font-size="14" lengthAdjust="spacing" textLength="233" x="344.6703" y="1958.4032">UC21 - Issue a vaccination certificate</text><ellipse cx="460.8762" cy="2045.6159" fill="#CD5C5C" filter="url(#f80rt2xb9q5nq)" rx="122.8762" ry="26.9752" style="stroke:#000000;stroke-width:1.5;"/><text fill="#000000" font-family="sans-serif" font-size="14" lengthAdjust="spacing" textLength="211" x="355.3762" y="2049.3444">UC22 - Record adverse reactions</text><ellipse cx="460.9828" cy="2146.5372" fill="#CD5C5C" filter="url(#f80rt2xb9q5nq)" rx="182.4828" ry="38.8966" style="stroke:#000000;stroke-width:1.5;"/><text fill="#000000" font-family="sans-serif" font-size="14" lengthAdjust="spacing" textLength="336" x="292.9828" y="2150.2657">UC23 - Get system instructions regarding the vaccine</text><!--MD5=[1d330b295f016d6727cd1dfcd8404564]
entity N--><ellipse cx="67" cy="1653.6406" fill="#FFFFFF" filter="url(#f80rt2xb9q5nq)" rx="4.5" ry="4.5" style="stroke:#CD5C5C;stroke-width:1.5;"/><path d="M54.5,1660.1406 L54.5,1665.1406 L64,1665.1406 L64,1667.398 L54.5,1676.898 L58.7426,1681.1406 L67,1672.8833 L75.2574,1681.1406 L79.5,1676.898 L70,1667.398 L70,1665.1406 L79.5,1665.1406 L79.5,1660.1406 L54.5,1660.1406 " fill="#FFFFFF" filter="url(#f80rt2xb9q5nq)" style="stroke:#CD5C5C;stroke-width:1.5;"/><text fill="#000000" font-family="sans-serif" font-size="14" lengthAdjust="spacing" textLength="37" x="48.5" y="1700.1738">Nurse</text><ellipse cx="461.2217" cy="914.585" fill="#ADD8E6" filter="url(#f80rt2xb9q5nq)" rx="175.2217" ry="37.4443" style="stroke:#000000;stroke-width:1.5;"/><text fill="#000000" font-family="sans-serif" font-size="14" lengthAdjust="spacing" textLength="321" x="300.7217" y="918.3135">UC10 - Visualizes Vaccination Charts and Statistics</text><ellipse cx="461.0042" cy="1009.6415" fill="#ADD8E6" filter="url(#f80rt2xb9q5nq)" rx="100.5042" ry="22.5008" style="stroke:#000000;stroke-width:1.5;"/><text fill="#000000" font-family="sans-serif" font-size="14" lengthAdjust="spacing" textLength="162" x="380.0042" y="1013.37">UC11 - Generate Reports</text><ellipse cx="460.8319" cy="1097.807" fill="#ADD8E6" filter="url(#f80rt2xb9q5nq)" rx="138.8319" ry="30.1664" style="stroke:#000000;stroke-width:1.5;"/><text fill="#000000" font-family="sans-serif" font-size="14" lengthAdjust="spacing" textLength="245" x="338.3319" y="1101.5355">UC12 -Analyze data from other centers</text><!--MD5=[36dc586d67e0f1d076b0ce70c9875d3e]
entity CC--><ellipse cx="67" cy="987.6406" fill="#ADD8E6" filter="url(#f80rt2xb9q5nq)" rx="4.5" ry="4.5" style="stroke:#ADD8E6;stroke-width:1.5;"/><path d="M54.5,994.1406 L54.5,999.1406 L64,999.1406 L64,1001.398 L54.5,1010.898 L58.7426,1015.1406 L67,1006.8833 L75.2574,1015.1406 L79.5,1010.898 L70,1001.398 L70,999.1406 L79.5,999.1406 L79.5,994.1406 L54.5,994.1406 " fill="#ADD8E6" filter="url(#f80rt2xb9q5nq)" style="stroke:#ADD8E6;stroke-width:1.5;"/><text fill="#000000" font-family="sans-serif" font-size="14" lengthAdjust="spacing" textLength="122" x="6" y="1034.1738">Center Coordinator</text><ellipse cx="461.0002" cy="79.5407" fill="#D3D3D3" filter="url(#f80rt2xb9q5nq)" rx="167.5002" ry="35.9" style="stroke:#000000;stroke-width:1.5;"/><text fill="#000000" font-family="sans-serif" font-size="14" lengthAdjust="spacing" textLength="305" x="308.5002" y="83.2692">UC1 - Configures and manages type of vaccines</text><ellipse cx="460.9478" cy="182.7302" fill="#D3D3D3" filter="url(#f80rt2xb9q5nq)" rx="145.9478" ry="31.5896" style="stroke:#000000;stroke-width:1.5;"/><text fill="#000000" font-family="sans-serif" font-size="14" lengthAdjust="spacing" textLength="260" x="330.9478" y="186.4587">UC2 - Configures and manages Vaccines</text><ellipse cx="461.1887" cy="286.7784" fill="#D3D3D3" filter="url(#f80rt2xb9q5nq)" rx="176.1887" ry="37.6377" style="stroke:#000000;stroke-width:1.5;"/><text fill="#000000" font-family="sans-serif" font-size="14" lengthAdjust="spacing" textLength="323" x="299.6887" y="290.5069">UC3 - Configures and manages Vaccination Center</text><ellipse cx="461.1676" cy="391.8742" fill="#D3D3D3" filter="url(#f80rt2xb9q5nq)" rx="151.6676" ry="32.7335" style="stroke:#000000;stroke-width:1.5;"/><text fill="#000000" font-family="sans-serif" font-size="14" lengthAdjust="spacing" textLength="272" x="325.1676" y="395.6027">UC4 - Configures and manages Employees</text><ellipse cx="460.8753" cy="480.8157" fill="#D3D3D3" filter="url(#f80rt2xb9q5nq)" rx="93.8753" ry="21.1751" style="stroke:#000000;stroke-width:1.5;"/><text fill="#000000" font-family="sans-serif" font-size="14" lengthAdjust="spacing" textLength="147" x="387.3753" y="484.5442">UC5 - Registers Center</text><ellipse cx="460.9693" cy="566.8345" fill="#D3D3D3" filter="url(#f80rt2xb9q5nq)" rx="136.4693" ry="29.6939" style="stroke:#000000;stroke-width:1.5;"/><text fill="#000000" font-family="sans-serif" font-size="14" lengthAdjust="spacing" textLength="240" x="340.9693" y="570.563">UC6 - Registers Centers Coordinators</text><ellipse cx="461.0397" cy="654.4486" fill="#D3D3D3" filter="url(#f80rt2xb9q5nq)" rx="104.5397" ry="23.3079" style="stroke:#000000;stroke-width:1.5;"/><text fill="#000000" font-family="sans-serif" font-size="14" lengthAdjust="spacing" textLength="171" x="375.5397" y="658.1771">UC7 - Registers SNS Users</text><ellipse cx="461.2192" cy="738.5845" fill="#D3D3D3" filter="url(#f80rt2xb9q5nq)" rx="112.7192" ry="24.9438" style="stroke:#000000;stroke-width:1.5;"/><text fill="#000000" font-family="sans-serif" font-size="14" lengthAdjust="spacing" textLength="189" x="366.7192" y="742.313">UC8 - Registers Receptionists</text><ellipse cx="460.813" cy="820.4032" fill="#D3D3D3" filter="url(#f80rt2xb9q5nq)" rx="94.313" ry="21.2626" style="stroke:#000000;stroke-width:1.5;"/><text fill="#000000" font-family="sans-serif" font-size="14" lengthAdjust="spacing" textLength="148" x="386.813" y="824.1317">UC9 - Registers Nurses</text><!--MD5=[770389ab9df153645bc6ef28055eb2b5]
entity A--><ellipse cx="67" cy="458.6406" fill="#000000" filter="url(#f80rt2xb9q5nq)" rx="4.5" ry="4.5" style="stroke:#000000;stroke-width:1.5;"/><path d="M54.5,465.1406 L54.5,470.1406 L64,470.1406 L64,472.398 L54.5,481.898 L58.7426,486.1406 L67,477.8833 L75.2574,486.1406 L79.5,481.898 L70,472.398 L70,470.1406 L79.5,470.1406 L79.5,465.1406 L54.5,465.1406 " fill="#000000" filter="url(#f80rt2xb9q5nq)" style="stroke:#000000;stroke-width:1.5;"/><text fill="#000000" font-family="sans-serif" font-size="14" lengthAdjust="spacing" textLength="83" x="25.5" y="505.1738">Administrator</text><!--MD5=[6f6d7cf4515940dc12ef1f67efc72098]
link U to UC27--><path d="M81.75,2673.3706 C103.75,2663.5706 148.44,2644.6006 188,2633.6406 C238.02,2619.7806 294.38,2609.0506 342.76,2601.3006 " fill="none" id="U-UC27" style="stroke:#00FA9A;stroke-width:3.0;"/><!--MD5=[a93485a8bc4691c34bb47f290897a894]
link U to UC28--><path d="M81.95,2679.6406 C120.96,2679.6406 234.35,2679.6406 326.85,2679.6406 " fill="none" id="U-UC28" style="stroke:#00FA9A;stroke-width:3.0;"/><!--MD5=[9db3f11963c3b56553e03aab690f5843]
link U to UC29--><path d="M81.77,2685.9406 C103.79,2695.8206 148.51,2715.0106 188,2726.6406 C230.4,2739.1306 277.35,2749.7306 320.14,2758.1906 " fill="none" id="U-UC29" style="stroke:#00FA9A;stroke-width:3.0;"/><!--MD5=[35f71edb316c5e53e1db1cad94d3ee34]
link R to UC24--><path d="M106,2325.8806 C129.29,2316.1706 159.93,2304.3706 188,2296.6406 C240.09,2282.3006 299.06,2271.4806 348.75,2263.8506 " fill="none" id="R-UC24" style="stroke:#FFA500;stroke-width:3.0;"/><!--MD5=[a849eafae1cbe63e664884908cd80d36]
link R to UC25--><path d="M106.3,2342.6406 C157.06,2342.6406 249.26,2342.6406 326.79,2342.6406 " fill="none" id="R-UC25" style="stroke:#FFA500;stroke-width:3.0;"/><!--MD5=[bd4ab326f06aa90f7e36a8e6bfaa3ade]
link R to UC26--><path d="M106.26,2358.8406 C129.64,2368.4406 160.28,2380.4706 188,2389.6406 C219.83,2400.1706 254.1,2410.3606 287.22,2419.6406 " fill="none" id="R-UC26" style="stroke:#FFA500;stroke-width:3.0;"/><!--MD5=[45ec5f660a1431f4140bf38ed1d7072f]
link N to UC13--><path d="M72.28,1647.4406 C85.7,1562.7106 129.56,1312.9206 188,1258.6406 C214.51,1234.0106 248.84,1218.9206 284.12,1209.9006 " fill="none" id="N-UC13" style="stroke:#CD5C5C;stroke-width:3.0;"/><!--MD5=[d2368c9fa69d8b0e09420ebc85c2890d]
link N to UC14--><path d="M68.79,1647.5306 C72.29,1581.7706 90.82,1417.5006 188,1337.6406 C238.52,1296.1306 312.87,1287.5906 371.07,1288.6206 " fill="none" id="N-UC14" style="stroke:#CD5C5C;stroke-width:3.0;"/><!--MD5=[13a2c23d9099899f9128bb56f80ba898]
link N to UC15--><path d="M73.11,1647.5906 C84.12,1595.7206 115.24,1485.1806 188,1430.6406 C227.5,1401.0406 279.24,1387.6406 326.99,1382.2106 " fill="none" id="N-UC15" style="stroke:#CD5C5C;stroke-width:3.0;"/><!--MD5=[3c41a03bcdf26565fa951669ef5d9905]
link N to UC16--><path d="M83.67,1647.4206 C103.48,1614.5506 140.77,1561.2506 188,1533.6406 C224.84,1512.1106 268.82,1499.2506 310.57,1491.6506 " fill="none" id="N-UC16" style="stroke:#CD5C5C;stroke-width:3.0;"/><!--MD5=[4840d9a9115318c994c811b2787cd22c]
link N to UC17--><path d="M85.56,1667.9106 C108.65,1658.0106 150.67,1640.9106 188,1630.6406 C237.5,1617.0206 293.14,1606.2306 341.14,1598.2706 " fill="none" id="N-UC17" style="stroke:#CD5C5C;stroke-width:3.0;"/><!--MD5=[5ca663b67707d3aa98a320a864501e6c]
link N to UC18--><path d="M85.6,1675.6406 C129.11,1675.6406 244.76,1675.6406 336.12,1675.6406 " fill="none" id="N-UC18" style="stroke:#CD5C5C;stroke-width:3.0;"/><!--MD5=[3d4690e565485dc60cd04b66de9fa18c]
link N to UC19--><path d="M85.55,1683.4106 C108.63,1693.3606 150.64,1710.5006 188,1720.6406 C238.41,1734.3206 295.21,1744.8706 343.81,1752.4806 " fill="none" id="N-UC19" style="stroke:#CD5C5C;stroke-width:3.0;"/><!--MD5=[52ce82814f5f023a9f64c7d2e69fb8c0]
link N to UC20--><path d="M83.91,1703.7006 C103.83,1736.0306 141.11,1788.1106 188,1814.6406 C230.86,1838.8906 283.13,1851.2406 330.35,1857.3406 " fill="none" id="N-UC20" style="stroke:#CD5C5C;stroke-width:3.0;"/><!--MD5=[8b516ebef69a08230539291531c88cf2]
link N to UC21--><path d="M73.9,1703.9406 C85.92,1753.9806 118.21,1857.6106 188,1908.6406 C228.01,1937.9006 280.13,1951.0206 328.03,1956.2606 " fill="none" id="N-UC21" style="stroke:#CD5C5C;stroke-width:3.0;"/><!--MD5=[319206bdd93ffde5b6f3fb8ae4cb00d4]
link N to UC22--><path d="M69.28,1703.6406 C73.83,1767.5506 94.45,1924.5506 188,2001.6406 C230.27,2036.4706 289.14,2048.9506 341.31,2052.1006 " fill="none" id="N-UC22" style="stroke:#CD5C5C;stroke-width:3.0;"/><!--MD5=[5f604e70c8b2d2da5f3ce021a379f094]
link N to UC23--><path d="M72.29,1703.7206 C85.74,1788.0706 129.69,2036.7406 188,2090.6406 C214.11,2114.7806 247.75,2129.6606 282.41,2138.6106 " fill="none" id="N-UC23" style="stroke:#CD5C5C;stroke-width:3.0;"/><!--MD5=[d6b96a0389f8f37ac27f8ede4c787e28]
link CC to UC10--><path d="M128.3,987.9406 C147.26,981.5506 168.37,974.8706 188,969.6406 C232.34,957.8106 281.34,947.1706 325.39,938.4806 " fill="none" id="CC-UC10" style="stroke:#ADD8E6;stroke-width:3.0;"/><!--MD5=[cb4d4b74874b9d0fe9623886718e99f2]
link CC to UC11--><path d="M128.39,1009.6406 C190.14,1009.6406 287.1,1009.6406 360.26,1009.6406 " fill="none" id="CC-UC11" style="stroke:#ADD8E6;stroke-width:3.0;"/><!--MD5=[69bcd2b544ba0b77766e7cce51203978]
link CC to UC12--><path d="M128.23,1031.6406 C147.18,1038.0406 168.31,1044.6506 188,1049.6406 C238.9,1062.5406 296.02,1073.1906 344.73,1081.1506 " fill="none" id="CC-UC12" style="stroke:#ADD8E6;stroke-width:3.0;"/><!--MD5=[6d61cf61677b770343ee213d3e8a499a]
link A to UC1--><path d="M68.78,452.6206 C72.24,386.2106 90.69,218.4506 188,133.6406 C217.76,107.7006 256.36,92.8406 295.09,84.6206 " fill="none" id="A-UC1" style="stroke:#000000;stroke-width:3.0;"/><!--MD5=[c6954081f67c17b9ee57f8d1fcc573a9]
link A to UC2--><path d="M72.91,452.6006 C83.67,400.1706 114.46,287.5406 188,231.6406 C224.1,204.2006 270.61,190.3406 314.93,183.7806 " fill="none" id="A-UC2" style="stroke:#000000;stroke-width:3.0;"/><!--MD5=[875227fbcbfb3c42e1eb2f000857fdf8]
link A to UC3--><path d="M84.22,452.5306 C104.31,420.3906 141.63,368.7506 188,341.6406 C221.38,322.1306 260.56,309.4406 298.62,301.2206 " fill="none" id="A-UC3" style="stroke:#000000;stroke-width:3.0;"/><!--MD5=[4c0bf5eb583465754496b5ffe4f45f16]
link A to UC4--><path d="M108.71,465.9206 C131.76,457.9706 161.24,448.4206 188,441.6406 C236.52,429.3506 290.63,418.7806 337.73,410.5706 " fill="none" id="A-UC4" style="stroke:#000000;stroke-width:3.0;"/><!--MD5=[9d86ffa6c13d5256416131528696f2d8]
link A to UC5--><path d="M108.84,480.6406 C169.44,480.6406 284.79,480.6406 366.74,480.6406 " fill="none" id="A-UC5" style="stroke:#000000;stroke-width:3.0;"/><!--MD5=[2871cf5443885f72af9dedd28f1a7e29]
link A to UC6--><path d="M108.72,495.0106 C131.77,502.7706 161.26,512.0806 188,518.6406 C239.93,531.3806 298.22,542.1306 347.48,550.2106 " fill="none" id="A-UC6" style="stroke:#000000;stroke-width:3.0;"/><!--MD5=[895711ac557db20cdb2a14f10c004e82]
link A to UC7--><path d="M84.84,508.7706 C105.12,539.9506 142.25,589.0506 188,613.6406 C239.21,641.1706 303.24,651.7806 356.3,655.3506 " fill="none" id="A-UC7" style="stroke:#000000;stroke-width:3.0;"/><!--MD5=[5ea53c8fc41ef74910cb7ae5db865cab]
link A to UC8--><path d="M75.06,508.7306 C88.45,555.7606 122.27,649.7706 188,695.6406 C234.75,728.2706 296.97,739.8306 350.1,742.8706 " fill="none" id="A-UC8" style="stroke:#000000;stroke-width:3.0;"/><!--MD5=[cd0b76491e9876132105be17c6a8259a]
link A to UC9--><path d="M70.21,508.8006 C76.59,569.2806 100.59,711.6606 188,780.6406 C239.98,821.6706 315.52,829.9706 373.81,828.9706 " fill="none" id="A-UC9" style="stroke:#000000;stroke-width:3.0;"/><!--MD5=[22c49febb20ab8028723cd1120709783]
@startuml
'https://plantuml.com/use-case-diagram
'!pragma layout smetana

left to right direction
title Usecase Diagram
skinparam titleBorderRoundCorner 20
skinparam titleBorderThickness 2
skinparam arrowThickness 3

'**********User*************
Usecase UC27 as "UC27 - Schedule Vaccine Appointment" #mediumSpringGreen;line:black
Usecase UC28 as "UC28 - Obtain Vaccination Certificate" #mediumSpringGreen;line:black
Usecase UC29 as "UC29 - Authorize DGS to send a message with\n information about the scheduled appointment" #mediumSpringGreen;line:black

:User: as U #mediumSpringGreen;line:mediumSpringGreen

U -d- UC27 #mediumSpringGreen
U -d- UC28 #mediumSpringGreen
U -d- UC29 #mediumSpringGreen


skinparam actorStyle awesome


'**********Recepcionist*************
Usecase UC24 as "UC24 - Schedule vaccine for a User" #orange;line:black
Usecase UC25 as "UC25 - Registers the arrival of a user" #orange;line:black
Usecase UC26 as "UC26 - Confirms that the user has the vaccine scheduled for that day and time \n using the SNS user number "  #orange;line:black

:Receptionist: as R #orange;line:orange
R -d- UC24 #orange;line:orange
R -d- UC25  #orange;line:orange
R -d- UC26  #orange;line:orange



skinparam actorStyle Hollow
'**********Nurse*************
Usecase UC13 as "UC13 - Check the list of SNS users in the vaccination"  #indianRed;line:black
Usecase UC14 as "UC14 - Check User's info" #indianRed;line:black
Usecase UC15 as "UC15 - Check User's health condition" #indianRed;line:black
Usecase UC16 as "UC16 - Check User's scheduled vaccine type" #indianRed;line:black
Usecase UC17 as "UC17 - Check User's vaccination history" #indianRed;line:black
Usecase UC18 as "UC18 - Registers vaccination type" #indianRed;line:black
Usecase UC19 as "UC19 - Registers vaccine name/brand" #indianRed;line:black
Usecase UC20 as "UC20 - Registers vaccine lot number" #indianRed;line:black
Usecase UC21 as "UC21 - Issue a vaccination certificate" #indianRed;line:black
Usecase UC22 as "UC22 - Record adverse reactions" #indianRed;line:black
Usecase UC23 as "UC23 - Get system instructions regarding the vaccine" #indianRed;line:black

:Nurse: as N #white;line:indianRed
N -d- UC13 #indianRed
N -d- UC14 #indianRed
N -d- UC15 #indianRed
N -d- UC16 #indianRed
N -d- UC17 #indianRed
N -d- UC18 #indianRed
N -d- UC19 #indianRed
N -d- UC20 #indianRed
N -d- UC21 #indianRed
N -d- UC22 #indianRed
N -d- UC23 #indianRed



'**********Center Coordinator*************
Usecase UC10 as "UC10 - Visualizes Vaccination Charts and Statistics" #lightblue;line:black
Usecase UC11 as "UC11 - Generate Reports" #lightblue;line:black
Usecase UC12 as "UC12 -Analyze data from other centers" #lightblue;line:black

:Center Coordinator: as CC #lightblue;line:lightblue;
CC -d- UC10 #lightblue;line:lightblue
CC -d- UC11 #lightblue;line:lightblue
CC -d- UC12 #lightblue;line:lightblue


'**********ADMINISTRATOR*************
Usecase UC1 as "UC1 - Configures and manages type of vaccines"   #lightgrey;line:black
Usecase UC2 as "UC2 - Configures and manages Vaccines"  #lightgrey;line:black
Usecase UC3 as "UC3 - Configures and manages Vaccination Center"   #lightgrey;line:black
Usecase UC4 as "UC4 - Configures and manages Employees"  #lightgrey;line:black
Usecase UC5 as "UC5 - Registers Center" #lightgrey;line:black
Usecase UC6 as "UC6 - Registers Centers Coordinators" #lightgrey;line:black
Usecase UC7 as "UC7 - Registers SNS Users" #lightgrey;line:black
Usecase UC8 as "UC8 - Registers Receptionists" #lightgrey;line:black
Usecase UC9 as "UC9 - Registers Nurses" #lightgrey;line:black


:Administrator: as A #black;line:black
A -d- UC1 #black;line:black
A -d- UC2 #black;line:black
A -d- UC3 #black;line:black
A -d- UC4 #black;line:black
A -d- UC5 #black;line:black
A -d- UC6 #black;line:black
A -d- UC7 #black;line:black
A -d- UC8 #black;line:black
A -d- UC9 #black;line:black


'**********User*************



@enduml

@startuml

left to right direction
title Usecase Diagram
skinparam titleBorderRoundCorner 20
skinparam titleBorderThickness 2
skinparam arrowThickness 3

Usecase UC27 as "UC27 - Schedule Vaccine Appointment" #mediumSpringGreen;line:black
Usecase UC28 as "UC28 - Obtain Vaccination Certificate" #mediumSpringGreen;line:black
Usecase UC29 as "UC29 - Authorize DGS to send a message with\n information about the scheduled appointment" #mediumSpringGreen;line:black

:User: as U #mediumSpringGreen;line:mediumSpringGreen

U -d- UC27 #mediumSpringGreen
U -d- UC28 #mediumSpringGreen
U -d- UC29 #mediumSpringGreen


skinparam actorStyle awesome


Usecase UC24 as "UC24 - Schedule vaccine for a User" #orange;line:black
Usecase UC25 as "UC25 - Registers the arrival of a user" #orange;line:black
Usecase UC26 as "UC26 - Confirms that the user has the vaccine scheduled for that day and time \n using the SNS user number "  #orange;line:black

:Receptionist: as R #orange;line:orange
R -d- UC24 #orange;line:orange
R -d- UC25  #orange;line:orange
R -d- UC26  #orange;line:orange



skinparam actorStyle Hollow
Usecase UC13 as "UC13 - Check the list of SNS users in the vaccination"  #indianRed;line:black
Usecase UC14 as "UC14 - Check User's info" #indianRed;line:black
Usecase UC15 as "UC15 - Check User's health condition" #indianRed;line:black
Usecase UC16 as "UC16 - Check User's scheduled vaccine type" #indianRed;line:black
Usecase UC17 as "UC17 - Check User's vaccination history" #indianRed;line:black
Usecase UC18 as "UC18 - Registers vaccination type" #indianRed;line:black
Usecase UC19 as "UC19 - Registers vaccine name/brand" #indianRed;line:black
Usecase UC20 as "UC20 - Registers vaccine lot number" #indianRed;line:black
Usecase UC21 as "UC21 - Issue a vaccination certificate" #indianRed;line:black
Usecase UC22 as "UC22 - Record adverse reactions" #indianRed;line:black
Usecase UC23 as "UC23 - Get system instructions regarding the vaccine" #indianRed;line:black

:Nurse: as N #white;line:indianRed
N -d- UC13 #indianRed
N -d- UC14 #indianRed
N -d- UC15 #indianRed
N -d- UC16 #indianRed
N -d- UC17 #indianRed
N -d- UC18 #indianRed
N -d- UC19 #indianRed
N -d- UC20 #indianRed
N -d- UC21 #indianRed
N -d- UC22 #indianRed
N -d- UC23 #indianRed



Usecase UC10 as "UC10 - Visualizes Vaccination Charts and Statistics" #lightblue;line:black
Usecase UC11 as "UC11 - Generate Reports" #lightblue;line:black
Usecase UC12 as "UC12 -Analyze data from other centers" #lightblue;line:black

:Center Coordinator: as CC #lightblue;line:lightblue;
CC -d- UC10 #lightblue;line:lightblue
CC -d- UC11 #lightblue;line:lightblue
CC -d- UC12 #lightblue;line:lightblue


Usecase UC1 as "UC1 - Configures and manages type of vaccines"   #lightgrey;line:black
Usecase UC2 as "UC2 - Configures and manages Vaccines"  #lightgrey;line:black
Usecase UC3 as "UC3 - Configures and manages Vaccination Center"   #lightgrey;line:black
Usecase UC4 as "UC4 - Configures and manages Employees"  #lightgrey;line:black
Usecase UC5 as "UC5 - Registers Center" #lightgrey;line:black
Usecase UC6 as "UC6 - Registers Centers Coordinators" #lightgrey;line:black
Usecase UC7 as "UC7 - Registers SNS Users" #lightgrey;line:black
Usecase UC8 as "UC8 - Registers Receptionists" #lightgrey;line:black
Usecase UC9 as "UC9 - Registers Nurses" #lightgrey;line:black


:Administrator: as A #black;line:black
A -d- UC1 #black;line:black
A -d- UC2 #black;line:black
A -d- UC3 #black;line:black
A -d- UC4 #black;line:black
A -d- UC5 #black;line:black
A -d- UC6 #black;line:black
A -d- UC7 #black;line:black
A -d- UC8 #black;line:black
A -d- UC9 #black;line:black





@enduml

PlantUML version 1.2022.1(Tue Feb 01 18:19:58 GMT 2022)
(GPL source distribution)
Java Runtime: OpenJDK Runtime Environment
JVM: OpenJDK 64-Bit Server VM
Default Encoding: Cp1252
Language: en
Country: US
--></g></svg>