<?xml version="1.0" encoding="UTF-8" standalone="no"?><svg xmlns="http://www.w3.org/2000/svg" xmlns:xlink="http://www.w3.org/1999/xlink" contentScriptType="application/ecmascript" contentStyleType="text/css" height="1079px" preserveAspectRatio="none" style="width:499px;height:1079px;background:#FFFFFF;" version="1.1" viewBox="0 0 499 1079" width="499px" zoomAndPan="magnify"><defs><filter height="300%" id="fkwf02behqdvx" width="300%" x="-1" y="-1"><feGaussianBlur result="blurOut" stdDeviation="2.0"/><feColorMatrix in="blurOut" result="blurOut2" type="matrix" values="0 0 0 0 0 0 0 0 0 0 0 0 0 0 0 0 0 0 .4 0"/><feOffset dx="4.0" dy="4.0" in="blurOut2" result="blurOut3"/><feBlend in="SourceGraphic" in2="blurOut3" mode="normal"/></filter></defs><g><!--MD5=[9681dc6e01e10c6b4fe06895ae94f592]
cluster UI--><polygon fill="#FFFFFF" filter="url(#fkwf02behqdvx)" points="37,6,57,6,64,29.6094,249,29.6094,249,148,37,148,37,6" style="stroke:#000000;stroke-width:1.5;"/><line style="stroke:#000000;stroke-width:1.5;" x1="37" x2="64" y1="29.6094" y2="29.6094"/><text fill="#000000" font-family="sans-serif" font-size="14" font-weight="bold" lengthAdjust="spacing" textLength="14" x="41" y="22.5332">UI</text><!--MD5=[1f2cfc53d9d308f53762fd0fcbaa4873]
cluster Controller--><polygon fill="#FFFFFF" filter="url(#fkwf02behqdvx)" points="16,172,93,172,100,195.6094,270,195.6094,270,692,16,692,16,172" style="stroke:#000000;stroke-width:1.5;"/><line style="stroke:#000000;stroke-width:1.5;" x1="16" x2="100" y1="195.6094" y2="195.6094"/><text fill="#000000" font-family="sans-serif" font-size="14" font-weight="bold" lengthAdjust="spacing" textLength="71" x="20" y="188.5332">Controller</text><!--MD5=[121a8bf1197281ab89ed693fab589f94]
cluster Domain--><polygon fill="#FFFFFF" filter="url(#fkwf02behqdvx)" points="310,806,368,806,375,829.6094,466,829.6094,466,934,310,934,310,806" style="stroke:#000000;stroke-width:1.5;"/><line style="stroke:#000000;stroke-width:1.5;" x1="310" x2="375" y1="829.6094" y2="829.6094"/><text fill="#000000" font-family="sans-serif" font-size="14" font-weight="bold" lengthAdjust="spacing" textLength="52" x="314" y="822.5332">Domain</text><!--MD5=[8dd535d56cd4cf7faf64fdd082ba836e]
cluster Stores--><polygon fill="#FFFFFF" filter="url(#fkwf02behqdvx)" points="315,958,367,958,374,981.6094,461,981.6094,461,1072,315,1072,315,958" style="stroke:#000000;stroke-width:1.5;"/><line style="stroke:#000000;stroke-width:1.5;" x1="315" x2="374" y1="981.6094" y2="981.6094"/><text fill="#000000" font-family="sans-serif" font-size="14" font-weight="bold" lengthAdjust="spacing" textLength="46" x="319" y="974.5332">Stores</text><!--MD5=[54c9a30e1635c8d55ea9424f1fa418a4]
cluster Miscellaneous--><polygon fill="#FFFFFF" filter="url(#fkwf02behqdvx)" points="294,488,402,488,409,511.6094,482,511.6094,482,782,294,782,294,488" style="stroke:#000000;stroke-width:1.5;"/><line style="stroke:#000000;stroke-width:1.5;" x1="294" x2="409" y1="511.6094" y2="511.6094"/><text fill="#000000" font-family="sans-serif" font-size="14" font-weight="bold" lengthAdjust="spacing" textLength="102" x="298" y="504.5332">Miscellaneous</text><!--MD5=[dcc8eb0eda81651ec4210e6bb5488795]
class DataFromLegacySystemUI--><rect codeLine="4" fill="#FEFECE" filter="url(#fkwf02behqdvx)" height="89.5078" id="DataFromLegacySystemUI" style="stroke:#A80036;stroke-width:1.5;" width="179" x="53.5" y="42"/><ellipse cx="68.5" cy="58" fill="#ADD1B2" rx="11" ry="11" style="stroke:#A80036;stroke-width:1.0;"/><path d="M70.5,54.5 Q70.7031,54 70.9375,53.75 Q71.1719,53.5 71.4375,53.5 Q71.9063,53.5 72.2031,53.7813 Q72.5,54.0625 72.5,54.7188 L72.5,56.2813 Q72.5,56.9375 72.2188,57.2188 Q71.9375,57.5 71.5,57.5 Q71.1094,57.5 70.8594,57.3281 Q70.6094,57.1563 70.5,56.7031 Q70.4531,56.3906 70.2813,56.2188 Q69.9688,55.8906 69.4063,55.7031 Q68.8438,55.5 68.2813,55.5 Q67.5781,55.5 66.9844,55.7813 Q66.4063,56.0625 65.9531,56.6875 Q65.5,57.3125 65.5,58.1719 L65.5,59.0938 Q65.5,60.125 66.3438,60.8125 Q67.1875,61.5 68.6875,61.5 Q69.5781,61.5 70.2031,61.2969 Q70.5625,61.1875 70.9688,60.8281 Q71.2344,60.625 71.375,60.5625 Q71.5156,60.5 71.6875,60.5 Q72.0156,60.5 72.25,60.7656 Q72.5,61.0156 72.5,61.375 Q72.5,61.7188 72.1563,62.125 Q71.6563,62.7188 70.8594,63.0469 Q69.8125,63.5 68.5313,63.5 Q67.0313,63.5 65.8281,62.9063 Q64.8594,62.4375 64.1719,61.4219 Q63.5,60.4063 63.5,59.2031 L63.5,58.1094 Q63.5,56.8594 64.0938,55.7656 Q64.7031,54.6719 65.75,54.0938 Q66.8125,53.5 68,53.5 Q68.7188,53.5 69.3438,53.75 Q69.9688,54 70.5,54.5 Z " fill="#000000"/><text fill="#000000" font-family="sans-serif" font-size="12" lengthAdjust="spacing" textLength="147" x="82.5" y="62.9102">DataFromLegacySystemUI</text><line style="stroke:#A80036;stroke-width:1.5;" x1="54.5" x2="231.5" y1="74" y2="74"/><rect fill="none" height="6" style="stroke:#C82930;stroke-width:1.0;" width="6" x="61.5" y="82"/><text fill="#000000" font-family="sans-serif" font-size="11" lengthAdjust="spacing" textLength="57" x="73.5" y="89.4189">sortedListUI</text><line style="stroke:#A80036;stroke-width:1.5;" x1="54.5" x2="231.5" y1="95.8359" y2="95.8359"/><ellipse cx="64.5" cy="106.8359" fill="#84BE84" rx="3" ry="3" style="stroke:#038048;stroke-width:1.0;"/><text fill="#000000" font-family="sans-serif" font-size="11" lengthAdjust="spacing" textLength="24" x="73.5" y="111.2549">run()</text><ellipse cx="64.5" cy="120.6719" fill="#84BE84" rx="3" ry="3" style="stroke:#038048;stroke-width:1.0;"/><text fill="#000000" font-family="sans-serif" font-size="11" lengthAdjust="spacing" textLength="89" x="73.5" y="125.0908">printSortedArray()</text><!--MD5=[335f4d9be48430461c68bf6d6fdba145]
class App--><rect codeLine="12" fill="#FEFECE" filter="url(#fkwf02behqdvx)" height="61.8359" id="App" style="stroke:#A80036;stroke-width:1.5;" width="128" x="79" y="614"/><ellipse cx="128.25" cy="630" fill="#ADD1B2" rx="11" ry="11" style="stroke:#A80036;stroke-width:1.0;"/><path d="M130.25,626.5 Q130.4531,626 130.6875,625.75 Q130.9219,625.5 131.1875,625.5 Q131.6563,625.5 131.9531,625.7813 Q132.25,626.0625 132.25,626.7188 L132.25,628.2813 Q132.25,628.9375 131.9688,629.2188 Q131.6875,629.5 131.25,629.5 Q130.8594,629.5 130.6094,629.3281 Q130.3594,629.1563 130.25,628.7031 Q130.2031,628.3906 130.0313,628.2188 Q129.7188,627.8906 129.1563,627.7031 Q128.5938,627.5 128.0313,627.5 Q127.3281,627.5 126.7344,627.7813 Q126.1563,628.0625 125.7031,628.6875 Q125.25,629.3125 125.25,630.1719 L125.25,631.0938 Q125.25,632.125 126.0938,632.8125 Q126.9375,633.5 128.4375,633.5 Q129.3281,633.5 129.9531,633.2969 Q130.3125,633.1875 130.7188,632.8281 Q130.9844,632.625 131.125,632.5625 Q131.2656,632.5 131.4375,632.5 Q131.7656,632.5 132,632.7656 Q132.25,633.0156 132.25,633.375 Q132.25,633.7188 131.9063,634.125 Q131.4063,634.7188 130.6094,635.0469 Q129.5625,635.5 128.2813,635.5 Q126.7813,635.5 125.5781,634.9063 Q124.6094,634.4375 123.9219,633.4219 Q123.25,632.4063 123.25,631.2031 L123.25,630.1094 Q123.25,628.8594 123.8438,627.7656 Q124.4531,626.6719 125.5,626.0938 Q126.5625,625.5 127.75,625.5 Q128.4688,625.5 129.0938,625.75 Q129.7188,626 130.25,626.5 Z " fill="#000000"/><text fill="#000000" font-family="sans-serif" font-size="12" lengthAdjust="spacing" textLength="21" x="148.75" y="634.9102">App</text><line style="stroke:#A80036;stroke-width:1.5;" x1="80" x2="206" y1="646" y2="646"/><line style="stroke:#A80036;stroke-width:1.5;" x1="80" x2="206" y1="654" y2="654"/><ellipse cx="90" cy="665" fill="#84BE84" rx="3" ry="3" style="stroke:#038048;stroke-width:1.0;"/><text fill="#000000" font-family="sans-serif" font-size="11" lengthAdjust="spacing" textLength="102" x="99" y="669.4189">getSortingAlgorithm()</text><!--MD5=[05b6d62c9af042a7fb97fc85679a11a0]
class DataFromLegacySystemController--><rect codeLine="16" fill="#FEFECE" filter="url(#fkwf02behqdvx)" height="255.5391" id="DataFromLegacySystemController" style="stroke:#A80036;stroke-width:1.5;" width="221" x="32.5" y="208"/><ellipse cx="47.5" cy="224" fill="#ADD1B2" rx="11" ry="11" style="stroke:#A80036;stroke-width:1.0;"/><path d="M49.5,220.5 Q49.7031,220 49.9375,219.75 Q50.1719,219.5 50.4375,219.5 Q50.9063,219.5 51.2031,219.7813 Q51.5,220.0625 51.5,220.7188 L51.5,222.2813 Q51.5,222.9375 51.2188,223.2188 Q50.9375,223.5 50.5,223.5 Q50.1094,223.5 49.8594,223.3281 Q49.6094,223.1563 49.5,222.7031 Q49.4531,222.3906 49.2813,222.2188 Q48.9688,221.8906 48.4063,221.7031 Q47.8438,221.5 47.2813,221.5 Q46.5781,221.5 45.9844,221.7813 Q45.4063,222.0625 44.9531,222.6875 Q44.5,223.3125 44.5,224.1719 L44.5,225.0938 Q44.5,226.125 45.3438,226.8125 Q46.1875,227.5 47.6875,227.5 Q48.5781,227.5 49.2031,227.2969 Q49.5625,227.1875 49.9688,226.8281 Q50.2344,226.625 50.375,226.5625 Q50.5156,226.5 50.6875,226.5 Q51.0156,226.5 51.25,226.7656 Q51.5,227.0156 51.5,227.375 Q51.5,227.7188 51.1563,228.125 Q50.6563,228.7188 49.8594,229.0469 Q48.8125,229.5 47.5313,229.5 Q46.0313,229.5 44.8281,228.9063 Q43.8594,228.4375 43.1719,227.4219 Q42.5,226.4063 42.5,225.2031 L42.5,224.1094 Q42.5,222.8594 43.0938,221.7656 Q43.7031,220.6719 44.75,220.0938 Q45.8125,219.5 47,219.5 Q47.7188,219.5 48.3438,219.75 Q48.9688,220 49.5,220.5 Z " fill="#000000"/><text fill="#000000" font-family="sans-serif" font-size="12" lengthAdjust="spacing" textLength="189" x="61.5" y="228.9102">DataFromLegacySystemController</text><line style="stroke:#A80036;stroke-width:1.5;" x1="33.5" x2="252.5" y1="240" y2="240"/><rect fill="none" height="6" style="stroke:#C82930;stroke-width:1.0;" width="6" x="40.5" y="248"/><text fill="#000000" font-family="sans-serif" font-size="11" lengthAdjust="spacing" textLength="48" x="52.5" y="255.4189">sortedList</text><line style="stroke:#A80036;stroke-width:1.5;" x1="33.5" x2="252.5" y1="261.8359" y2="261.8359"/><ellipse cx="43.5" cy="272.8359" fill="#84BE84" rx="3" ry="3" style="stroke:#038048;stroke-width:1.0;"/><text fill="#000000" font-family="sans-serif" font-size="11" lengthAdjust="spacing" textLength="102" x="52.5" y="277.2549">getSortingAlgorithm()</text><ellipse cx="43.5" cy="286.6719" fill="#84BE84" rx="3" ry="3" style="stroke:#038048;stroke-width:1.0;"/><text fill="#000000" font-family="sans-serif" font-size="11" lengthAdjust="spacing" textLength="84" x="52.5" y="291.0908">getSNSUserList()</text><ellipse cx="43.5" cy="300.5078" fill="#84BE84" rx="3" ry="3" style="stroke:#038048;stroke-width:1.0;"/><text fill="#000000" font-family="sans-serif" font-size="11" lengthAdjust="spacing" textLength="69" x="52.5" y="304.9268">getVaccines()</text><ellipse cx="43.5" cy="314.3438" fill="#84BE84" rx="3" ry="3" style="stroke:#038048;stroke-width:1.0;"/><text fill="#000000" font-family="sans-serif" font-size="11" lengthAdjust="spacing" textLength="46" x="52.5" y="318.7627">readFile()</text><ellipse cx="43.5" cy="328.1797" fill="#84BE84" rx="3" ry="3" style="stroke:#038048;stroke-width:1.0;"/><text fill="#000000" font-family="sans-serif" font-size="11" lengthAdjust="spacing" textLength="57" x="52.5" y="332.5986">updateFile()</text><ellipse cx="43.5" cy="342.0156" fill="#84BE84" rx="3" ry="3" style="stroke:#038048;stroke-width:1.0;"/><text fill="#000000" font-family="sans-serif" font-size="11" lengthAdjust="spacing" textLength="40" x="52.5" y="346.4346">setList()</text><ellipse cx="43.5" cy="355.8516" fill="#84BE84" rx="3" ry="3" style="stroke:#038048;stroke-width:1.0;"/><text fill="#000000" font-family="sans-serif" font-size="11" lengthAdjust="spacing" textLength="90" x="52.5" y="360.2705">mergeAscending()</text><ellipse cx="43.5" cy="369.6875" fill="#84BE84" rx="3" ry="3" style="stroke:#038048;stroke-width:1.0;"/><text fill="#000000" font-family="sans-serif" font-size="11" lengthAdjust="spacing" textLength="95" x="52.5" y="374.1064">mergeDescending()</text><ellipse cx="43.5" cy="383.5234" fill="#84BE84" rx="3" ry="3" style="stroke:#038048;stroke-width:1.0;"/><text fill="#000000" font-family="sans-serif" font-size="11" lengthAdjust="spacing" textLength="72" x="52.5" y="387.9424">getListToSort()</text><ellipse cx="43.5" cy="397.3594" fill="#84BE84" rx="3" ry="3" style="stroke:#038048;stroke-width:1.0;"/><text fill="#000000" font-family="sans-serif" font-size="11" lengthAdjust="spacing" textLength="84" x="52.5" y="401.7783">heapAscending()</text><ellipse cx="43.5" cy="411.1953" fill="#84BE84" rx="3" ry="3" style="stroke:#038048;stroke-width:1.0;"/><text fill="#000000" font-family="sans-serif" font-size="11" lengthAdjust="spacing" textLength="89" x="52.5" y="415.6143">heapDescending()</text><ellipse cx="43.5" cy="425.0313" fill="#84BE84" rx="3" ry="3" style="stroke:#038048;stroke-width:1.0;"/><text fill="#000000" font-family="sans-serif" font-size="11" lengthAdjust="spacing" textLength="68" x="52.5" y="429.4502">getAlgorithm()</text><ellipse cx="43.5" cy="438.8672" fill="#84BE84" rx="3" ry="3" style="stroke:#038048;stroke-width:1.0;"/><text fill="#000000" font-family="sans-serif" font-size="11" lengthAdjust="spacing" textLength="110" x="52.5" y="443.2861">chooseCriteriaToSort()</text><ellipse cx="43.5" cy="452.7031" fill="#84BE84" rx="3" ry="3" style="stroke:#038048;stroke-width:1.0;"/><text fill="#000000" font-family="sans-serif" font-size="11" lengthAdjust="spacing" textLength="87" x="52.5" y="457.1221">sortListWithAlgo()</text><!--MD5=[02e4b9b7573f1156f41e60aa5b4e25a4]
class Company--><rect codeLine="36" fill="#FEFECE" filter="url(#fkwf02behqdvx)" height="75.6719" id="Company" style="stroke:#A80036;stroke-width:1.5;" width="123" x="326.5" y="842"/><ellipse cx="358.6" cy="858" fill="#ADD1B2" rx="11" ry="11" style="stroke:#A80036;stroke-width:1.0;"/><path d="M360.6,854.5 Q360.8031,854 361.0375,853.75 Q361.2719,853.5 361.5375,853.5 Q362.0063,853.5 362.3031,853.7813 Q362.6,854.0625 362.6,854.7188 L362.6,856.2813 Q362.6,856.9375 362.3188,857.2188 Q362.0375,857.5 361.6,857.5 Q361.2094,857.5 360.9594,857.3281 Q360.7094,857.1563 360.6,856.7031 Q360.5531,856.3906 360.3813,856.2188 Q360.0688,855.8906 359.5063,855.7031 Q358.9438,855.5 358.3813,855.5 Q357.6781,855.5 357.0844,855.7813 Q356.5063,856.0625 356.0531,856.6875 Q355.6,857.3125 355.6,858.1719 L355.6,859.0938 Q355.6,860.125 356.4438,860.8125 Q357.2875,861.5 358.7875,861.5 Q359.6781,861.5 360.3031,861.2969 Q360.6625,861.1875 361.0688,860.8281 Q361.3344,860.625 361.475,860.5625 Q361.6156,860.5 361.7875,860.5 Q362.1156,860.5 362.35,860.7656 Q362.6,861.0156 362.6,861.375 Q362.6,861.7188 362.2563,862.125 Q361.7563,862.7188 360.9594,863.0469 Q359.9125,863.5 358.6313,863.5 Q357.1313,863.5 355.9281,862.9063 Q354.9594,862.4375 354.2719,861.4219 Q353.6,860.4063 353.6,859.2031 L353.6,858.1094 Q353.6,856.8594 354.1938,855.7656 Q354.8031,854.6719 355.85,854.0938 Q356.9125,853.5 358.1,853.5 Q358.8188,853.5 359.4438,853.75 Q360.0688,854 360.6,854.5 Z " fill="#000000"/><text fill="#000000" font-family="sans-serif" font-size="12" lengthAdjust="spacing" textLength="53" x="376.4" y="862.9102">Company</text><line style="stroke:#A80036;stroke-width:1.5;" x1="327.5" x2="448.5" y1="874" y2="874"/><line style="stroke:#A80036;stroke-width:1.5;" x1="327.5" x2="448.5" y1="882" y2="882"/><ellipse cx="337.5" cy="893" fill="#84BE84" rx="3" ry="3" style="stroke:#038048;stroke-width:1.0;"/><text fill="#000000" font-family="sans-serif" font-size="11" lengthAdjust="spacing" textLength="97" x="346.5" y="897.4189">getSnsUsersStore()</text><ellipse cx="337.5" cy="906.8359" fill="#84BE84" rx="3" ry="3" style="stroke:#038048;stroke-width:1.0;"/><text fill="#000000" font-family="sans-serif" font-size="11" lengthAdjust="spacing" textLength="86" x="346.5" y="911.2549">getVaccinesList()</text><!--MD5=[a5ad3856b0c65e07b10297b4477b22bb]
class SNSUserStore--><rect codeLine="43" fill="#FEFECE" filter="url(#fkwf02behqdvx)" height="61.8359" id="SNSUserStore" style="stroke:#A80036;stroke-width:1.5;" width="113" x="331.5" y="994"/><ellipse cx="346.5" cy="1010" fill="#ADD1B2" rx="11" ry="11" style="stroke:#A80036;stroke-width:1.0;"/><path d="M348.5,1006.5 Q348.7031,1006 348.9375,1005.75 Q349.1719,1005.5 349.4375,1005.5 Q349.9063,1005.5 350.2031,1005.7813 Q350.5,1006.0625 350.5,1006.7188 L350.5,1008.2813 Q350.5,1008.9375 350.2188,1009.2188 Q349.9375,1009.5 349.5,1009.5 Q349.1094,1009.5 348.8594,1009.3281 Q348.6094,1009.1563 348.5,1008.7031 Q348.4531,1008.3906 348.2813,1008.2188 Q347.9688,1007.8906 347.4063,1007.7031 Q346.8438,1007.5 346.2813,1007.5 Q345.5781,1007.5 344.9844,1007.7813 Q344.4063,1008.0625 343.9531,1008.6875 Q343.5,1009.3125 343.5,1010.1719 L343.5,1011.0938 Q343.5,1012.125 344.3438,1012.8125 Q345.1875,1013.5 346.6875,1013.5 Q347.5781,1013.5 348.2031,1013.2969 Q348.5625,1013.1875 348.9688,1012.8281 Q349.2344,1012.625 349.375,1012.5625 Q349.5156,1012.5 349.6875,1012.5 Q350.0156,1012.5 350.25,1012.7656 Q350.5,1013.0156 350.5,1013.375 Q350.5,1013.7188 350.1563,1014.125 Q349.6563,1014.7188 348.8594,1015.0469 Q347.8125,1015.5 346.5313,1015.5 Q345.0313,1015.5 343.8281,1014.9063 Q342.8594,1014.4375 342.1719,1013.4219 Q341.5,1012.4063 341.5,1011.2031 L341.5,1010.1094 Q341.5,1008.8594 342.0938,1007.7656 Q342.7031,1006.6719 343.75,1006.0938 Q344.8125,1005.5 346,1005.5 Q346.7188,1005.5 347.3438,1005.75 Q347.9688,1006 348.5,1006.5 Z " fill="#000000"/><text fill="#000000" font-family="sans-serif" font-size="12" lengthAdjust="spacing" textLength="81" x="360.5" y="1014.9102">SNSUserStore</text><line style="stroke:#A80036;stroke-width:1.5;" x1="332.5" x2="443.5" y1="1026" y2="1026"/><line style="stroke:#A80036;stroke-width:1.5;" x1="332.5" x2="443.5" y1="1034" y2="1034"/><ellipse cx="342.5" cy="1045" fill="#84BE84" rx="3" ry="3" style="stroke:#038048;stroke-width:1.0;"/><text fill="#000000" font-family="sans-serif" font-size="11" lengthAdjust="spacing" textLength="82" x="351.5" y="1049.4189">getSnsUserList()</text><!--MD5=[c9d84fd7edc0576456a21ebecec7669d]
class ReadLegacyDataFile--><rect codeLine="49" fill="#FEFECE" filter="url(#fkwf02behqdvx)" height="241.7031" id="ReadLegacyDataFile" style="stroke:#A80036;stroke-width:1.5;" width="156" x="310" y="524"/><ellipse cx="329.05" cy="540" fill="#ADD1B2" rx="11" ry="11" style="stroke:#A80036;stroke-width:1.0;"/><path d="M331.05,536.5 Q331.2531,536 331.4875,535.75 Q331.7219,535.5 331.9875,535.5 Q332.4563,535.5 332.7531,535.7813 Q333.05,536.0625 333.05,536.7188 L333.05,538.2813 Q333.05,538.9375 332.7688,539.2188 Q332.4875,539.5 332.05,539.5 Q331.6594,539.5 331.4094,539.3281 Q331.1594,539.1563 331.05,538.7031 Q331.0031,538.3906 330.8313,538.2188 Q330.5188,537.8906 329.9563,537.7031 Q329.3938,537.5 328.8313,537.5 Q328.1281,537.5 327.5344,537.7813 Q326.9563,538.0625 326.5031,538.6875 Q326.05,539.3125 326.05,540.1719 L326.05,541.0938 Q326.05,542.125 326.8938,542.8125 Q327.7375,543.5 329.2375,543.5 Q330.1281,543.5 330.7531,543.2969 Q331.1125,543.1875 331.5188,542.8281 Q331.7844,542.625 331.925,542.5625 Q332.0656,542.5 332.2375,542.5 Q332.5656,542.5 332.8,542.7656 Q333.05,543.0156 333.05,543.375 Q333.05,543.7188 332.7063,544.125 Q332.2063,544.7188 331.4094,545.0469 Q330.3625,545.5 329.0813,545.5 Q327.5813,545.5 326.3781,544.9063 Q325.4094,544.4375 324.7219,543.4219 Q324.05,542.4063 324.05,541.2031 L324.05,540.1094 Q324.05,538.8594 324.6438,537.7656 Q325.2531,536.6719 326.3,536.0938 Q327.3625,535.5 328.55,535.5 Q329.2688,535.5 329.8938,535.75 Q330.5188,536 331.05,536.5 Z " fill="#000000"/><text fill="#000000" font-family="sans-serif" font-size="12" lengthAdjust="spacing" textLength="115" x="343.95" y="544.9102">ReadLegacyDataFile</text><line style="stroke:#A80036;stroke-width:1.5;" x1="311" x2="465" y1="556" y2="556"/><rect fill="none" height="6" style="stroke:#C82930;stroke-width:1.0;" width="6" x="318" y="564"/><text fill="#000000" font-family="sans-serif" font-size="11" lengthAdjust="spacing" textLength="71" x="330" y="571.4189">legacyDataList</text><rect fill="none" height="6" style="stroke:#C82930;stroke-width:1.0;" width="6" x="318" y="577.8359"/><text fill="#000000" font-family="sans-serif" font-size="11" lengthAdjust="spacing" textLength="45" x="330" y="585.2549">listToSort</text><rect fill="none" height="6" style="stroke:#C82930;stroke-width:1.0;" width="6" x="318" y="591.6719"/><text fill="#000000" font-family="sans-serif" font-size="11" lengthAdjust="spacing" textLength="56" x="330" y="599.0908">updatedList</text><rect fill="none" height="6" style="stroke:#C82930;stroke-width:1.0;" width="6" x="318" y="605.5078"/><text fill="#000000" font-family="sans-serif" font-size="11" lengthAdjust="spacing" textLength="64" x="330" y="612.9268">snsUsersList</text><rect fill="none" height="6" style="stroke:#C82930;stroke-width:1.0;" width="6" x="318" y="619.3438"/><text fill="#000000" font-family="sans-serif" font-size="11" lengthAdjust="spacing" textLength="55" x="330" y="626.7627">vaccineList</text><line style="stroke:#A80036;stroke-width:1.5;" x1="311" x2="465" y1="633.1797" y2="633.1797"/><ellipse cx="321" cy="644.1797" fill="#84BE84" rx="3" ry="3" style="stroke:#038048;stroke-width:1.0;"/><text fill="#000000" font-family="sans-serif" font-size="11" lengthAdjust="spacing" textLength="46" x="330" y="648.5986">readFile()</text><ellipse cx="321" cy="658.0156" fill="#84BE84" rx="3" ry="3" style="stroke:#038048;stroke-width:1.0;"/><text fill="#000000" font-family="sans-serif" font-size="11" lengthAdjust="spacing" textLength="103" x="330" y="662.4346">validateFileLegacye()</text><ellipse cx="321" cy="671.8516" fill="#84BE84" rx="3" ry="3" style="stroke:#038048;stroke-width:1.0;"/><text fill="#000000" font-family="sans-serif" font-size="11" lengthAdjust="spacing" textLength="62" x="330" y="676.2705">isValidDate()</text><ellipse cx="321" cy="685.6875" fill="#84BE84" rx="3" ry="3" style="stroke:#038048;stroke-width:1.0;"/><text fill="#000000" font-family="sans-serif" font-size="11" lengthAdjust="spacing" textLength="93" x="330" y="690.1064">updateLegacyFile()</text><ellipse cx="321" cy="699.5234" fill="#84BE84" rx="3" ry="3" style="stroke:#038048;stroke-width:1.0;"/><text fill="#000000" font-family="sans-serif" font-size="11" lengthAdjust="spacing" textLength="84" x="330" y="703.9424">getSNSUserList()</text><ellipse cx="321" cy="713.3594" fill="#84BE84" rx="3" ry="3" style="stroke:#038048;stroke-width:1.0;"/><text fill="#000000" font-family="sans-serif" font-size="11" lengthAdjust="spacing" textLength="80" x="330" y="717.7783">getVaccineList()</text><ellipse cx="321" cy="727.1953" fill="#84BE84" rx="3" ry="3" style="stroke:#038048;stroke-width:1.0;"/><text fill="#000000" font-family="sans-serif" font-size="11" lengthAdjust="spacing" textLength="130" x="330" y="731.6143">findPosOfSNSUserumber()</text><ellipse cx="321" cy="741.0313" fill="#84BE84" rx="3" ry="3" style="stroke:#038048;stroke-width:1.0;"/><text fill="#000000" font-family="sans-serif" font-size="11" lengthAdjust="spacing" textLength="76" x="330" y="745.4502">findPosOfVax()</text><ellipse cx="321" cy="754.8672" fill="#84BE84" rx="3" ry="3" style="stroke:#038048;stroke-width:1.0;"/><text fill="#000000" font-family="sans-serif" font-size="11" lengthAdjust="spacing" textLength="130" x="330" y="759.2861">checksDuplicatesNumber()</text><!--MD5=[397a048e7eeb6b6f59babbb05b3013d6]
link DataFromLegacySystemUI to DataFromLegacySystemController--><path codeLine="67" d="M143,132.16 C143,152.26 143,177.22 143,202.68 " fill="none" id="DataFromLegacySystemUI-to-DataFromLegacySystemController" style="stroke:#A80036;stroke-width:1.0;stroke-dasharray:7.0,7.0;"/><polygon fill="#A80036" points="143,207.78,147,198.78,143,202.78,139,198.78,143,207.78" style="stroke:#A80036;stroke-width:1.0;"/><!--MD5=[9d248513bd887ad7d313d3c85cad776b]
link DataFromLegacySystemController to App--><path codeLine="69" d="M143,464.08 C143,516.6 143,573.36 143,608.79 " fill="none" id="DataFromLegacySystemController-to-App" style="stroke:#A80036;stroke-width:1.0;stroke-dasharray:7.0,7.0;"/><polygon fill="#A80036" points="143,613.86,147,604.86,143,608.86,139,604.86,143,613.86" style="stroke:#A80036;stroke-width:1.0;"/><!--MD5=[9e4f0386aa4656d8e2245792af38c5a0]
link DataFromLegacySystemController to ReadLegacyDataFile--><path codeLine="71" d="M253.6,459.95 C259.21,466.68 264.71,473.39 270,480 C282.22,495.27 294.72,511.68 306.8,527.99 " fill="none" id="DataFromLegacySystemController-to-ReadLegacyDataFile" style="stroke:#A80036;stroke-width:1.0;stroke-dasharray:7.0,7.0;"/><polygon fill="#A80036" points="309.86,532.14,307.7205,522.5263,306.8852,528.1212,301.2904,527.286,309.86,532.14" style="stroke:#A80036;stroke-width:1.0;"/><!--MD5=[a981332da030307ec9da8eafb70f8eea]
link ReadLegacyDataFile to Company--><path codeLine="73" d="M388,766.25 C388,791.59 388,816.68 388,836.74 " fill="none" id="ReadLegacyDataFile-to-Company" style="stroke:#A80036;stroke-width:1.0;stroke-dasharray:7.0,7.0;"/><polygon fill="#A80036" points="388,842,392,833,388,837,384,833,388,842" style="stroke:#A80036;stroke-width:1.0;"/><!--MD5=[1bd9080c7e199931e49bc5a1616681ac]
link Company to SNSUserStore--><path codeLine="75" d="M388,918.2 C388,939.96 388,967.27 388,988.69 " fill="none" id="Company-to-SNSUserStore" style="stroke:#A80036;stroke-width:1.0;stroke-dasharray:7.0,7.0;"/><polygon fill="#A80036" points="388,993.73,392,984.73,388,988.73,384,984.73,388,993.73" style="stroke:#A80036;stroke-width:1.0;"/><!--MD5=[2057ad20552b5aa834177a81e8f23dae]
@startuml
'https://plantuml.com/class-diagram

package UI {
class DataFromLegacySystemUI{
-sortedListUI
+run()
+printSortedArray()
}
}

package Controller {
class App{
+getSortingAlgorithm()
}

class DataFromLegacySystemController{
+getSortingAlgorithm()
+getSNSUserList()
+getVaccines()
+readFile()
+updateFile()
+setList()
+mergeAscending()
+mergeDescending()
+getListToSort()
+heapAscending()
+heapDescending()
+getAlgorithm()
+chooseCriteriaToSort()
+sortListWithAlgo()
-sortedList
}
}

package Domain {
class Company{
+getSnsUsersStore()
+getVaccinesList()
}
}

package Stores {
class SNSUserStore{
+getSnsUserList()
}
}

package Miscellaneous{
class ReadLegacyDataFile{
+readFile()
+validateFileLegacye()
+isValidDate()
+updateLegacyFile()
+getSNSUserList()
+getVaccineList()
+findPosOfSNSUserumber()
+findPosOfVax()
+checksDuplicatesNumber()
-legacyDataList
-listToSort
-updatedList
-snsUsersList
-vaccineList
}
}

DataFromLegacySystemUI ..> DataFromLegacySystemController

DataFromLegacySystemController ..> App

DataFromLegacySystemController ..> ReadLegacyDataFile

ReadLegacyDataFile ..> Company

Company ..> SNSUserStore



@enduml

@startuml

package UI {
class DataFromLegacySystemUI{
-sortedListUI
+run()
+printSortedArray()
}
}

package Controller {
class App{
+getSortingAlgorithm()
}

class DataFromLegacySystemController{
+getSortingAlgorithm()
+getSNSUserList()
+getVaccines()
+readFile()
+updateFile()
+setList()
+mergeAscending()
+mergeDescending()
+getListToSort()
+heapAscending()
+heapDescending()
+getAlgorithm()
+chooseCriteriaToSort()
+sortListWithAlgo()
-sortedList
}
}

package Domain {
class Company{
+getSnsUsersStore()
+getVaccinesList()
}
}

package Stores {
class SNSUserStore{
+getSnsUserList()
}
}

package Miscellaneous{
class ReadLegacyDataFile{
+readFile()
+validateFileLegacye()
+isValidDate()
+updateLegacyFile()
+getSNSUserList()
+getVaccineList()
+findPosOfSNSUserumber()
+findPosOfVax()
+checksDuplicatesNumber()
-legacyDataList
-listToSort
-updatedList
-snsUsersList
-vaccineList
}
}

DataFromLegacySystemUI ..> DataFromLegacySystemController

DataFromLegacySystemController ..> App

DataFromLegacySystemController ..> ReadLegacyDataFile

ReadLegacyDataFile ..> Company

Company ..> SNSUserStore



@enduml

PlantUML version 1.2022.1(Tue Feb 01 18:19:58 GMT 2022)
(GPL source distribution)
Java Runtime: OpenJDK Runtime Environment
JVM: OpenJDK 64-Bit Server VM
Default Encoding: Cp1252
Language: en
Country: US
--></g></svg>