<?xml version="1.0" encoding="UTF-8" standalone="no"?><svg xmlns="http://www.w3.org/2000/svg" xmlns:xlink="http://www.w3.org/1999/xlink" contentScriptType="application/ecmascript" contentStyleType="text/css" height="2008px" preserveAspectRatio="none" style="width:1860px;height:2008px;background:#FFFFFF;" version="1.1" viewBox="0 0 1860 2008" width="1860px" zoomAndPan="magnify"><defs><filter height="300%" id="fmy62iexmxzag" width="300%" x="-1" y="-1"><feGaussianBlur result="blurOut" stdDeviation="2.0"/><feColorMatrix in="blurOut" result="blurOut2" type="matrix" values="0 0 0 0 0 0 0 0 0 0 0 0 0 0 0 0 0 0 .4 0"/><feOffset dx="4.0" dy="4.0" in="blurOut2" result="blurOut3"/><feBlend in="SourceGraphic" in2="blurOut3" mode="normal"/></filter></defs><g><rect fill="#FFFFFF" filter="url(#fmy62iexmxzag)" height="1814.2266" style="stroke:#A80036;stroke-width:1.0;" width="10" x="77" y="99.6094"/><rect fill="#FFFFFF" filter="url(#fmy62iexmxzag)" height="30.3516" style="stroke:#A80036;stroke-width:1.0;" width="10" x="350" y="121.9609"/><rect fill="#FFFFFF" filter="url(#fmy62iexmxzag)" height="794.4375" style="stroke:#A80036;stroke-width:1.0;" width="10" x="350" y="182.6641"/><rect fill="#FFFFFF" filter="url(#fmy62iexmxzag)" height="199.4609" style="stroke:#A80036;stroke-width:1.0;" width="10" x="350" y="1007.4531"/><rect fill="#FFFFFF" filter="url(#fmy62iexmxzag)" height="315.8672" style="stroke:#A80036;stroke-width:1.0;" width="10" x="350" y="1262.6172"/><rect fill="#FFFFFF" filter="url(#fmy62iexmxzag)" height="273.1641" style="stroke:#A80036;stroke-width:1.0;" width="10" x="350" y="1624.6719"/><rect fill="#FFFFFF" filter="url(#fmy62iexmxzag)" height="733.7344" style="stroke:#A80036;stroke-width:1.0;" width="10" x="653" y="213.0156"/><rect fill="#FFFFFF" filter="url(#fmy62iexmxzag)" height="30.3516" style="stroke:#A80036;stroke-width:1.0;" width="10" x="653" y="1037.8047"/><rect fill="#FFFFFF" filter="url(#fmy62iexmxzag)" height="91.0547" style="stroke:#A80036;stroke-width:1.0;" width="10" x="653" y="1292.9688"/><rect fill="#FFFFFF" filter="url(#fmy62iexmxzag)" height="112.4063" style="stroke:#A80036;stroke-width:1.0;" width="10" x="653" y="1435.7266"/><rect fill="#FFFFFF" filter="url(#fmy62iexmxzag)" height="91.0547" style="stroke:#A80036;stroke-width:1.0;" width="10" x="653" y="1655.0234"/><rect fill="#FFFFFF" filter="url(#fmy62iexmxzag)" height="91.0547" style="stroke:#A80036;stroke-width:1.0;" width="10" x="653" y="1776.4297"/><rect fill="#FFFFFF" filter="url(#fmy62iexmxzag)" height="673.0313" style="stroke:#A80036;stroke-width:1.0;" width="10" x="860" y="243.3672"/><rect fill="#FFFFFF" filter="url(#fmy62iexmxzag)" height="116.4063" style="stroke:#A80036;stroke-width:1.0;" width="10" x="860" y="1068.1563"/><rect fill="#FFFFFF" filter="url(#fmy62iexmxzag)" height="30.3516" style="stroke:#A80036;stroke-width:1.0;" width="10" x="860" y="1487.4297"/><rect fill="#FFFFFF" filter="url(#fmy62iexmxzag)" height="30.3516" style="stroke:#A80036;stroke-width:1.0;" width="10" x="860" y="1806.7813"/><rect fill="#FFFFFF" filter="url(#fmy62iexmxzag)" height="151.7578" style="stroke:#A80036;stroke-width:1.0;" width="10" x="1577" y="425.4766"/><rect fill="#FFFFFF" filter="url(#fmy62iexmxzag)" height="30.3516" style="stroke:#A80036;stroke-width:1.0;" width="10" x="1718" y="455.8281"/><rect fill="#FFFFFF" filter="url(#fmy62iexmxzag)" height="30.3516" style="stroke:#A80036;stroke-width:1.0;" width="10" x="1807.5" y="1323.3203"/><rect fill="#FFFFFF" filter="url(#fmy62iexmxzag)" height="30.3516" style="stroke:#A80036;stroke-width:1.0;" width="10" x="1807.5" y="1685.375"/><rect fill="#FFFFFF" filter="url(#fmy62iexmxzag)" height="137.7578" style="stroke:#000000;stroke-width:2.0;" width="373.5" x="777.5" y="258.3672"/><rect fill="#FFFFFF" filter="url(#fmy62iexmxzag)" height="294.8125" style="stroke:#000000;stroke-width:2.0;" width="804.5" x="777.5" y="592.2344"/><rect fill="#FFFFFF" filter="url(#fmy62iexmxzag)" height="94.4063" style="stroke:#000000;stroke-width:2.0;" width="280" x="777.5" y="1083.1563"/><rect fill="#FFFFFF" filter="url(#fmy62iexmxzag)" height="683.9219" style="stroke:#000000;stroke-width:2.0;" width="1836" x="10" y="1221.9141"/><rect fill="#FFFFFF" height="319.3516" style="stroke:none;stroke-width:1.0;" width="1836" x="10" y="1586.4844"/><line style="stroke:#A80036;stroke-width:1.0;stroke-dasharray:5.0,5.0;" x1="82" x2="82" y1="89.6094" y2="1922.8359"/><line style="stroke:#A80036;stroke-width:1.0;stroke-dasharray:5.0,5.0;" x1="354.5" x2="354.5" y1="89.6094" y2="1922.8359"/><line style="stroke:#A80036;stroke-width:1.0;stroke-dasharray:5.0,5.0;" x1="657.5" x2="657.5" y1="89.6094" y2="1922.8359"/><line style="stroke:#A80036;stroke-width:1.0;stroke-dasharray:5.0,5.0;" x1="864.5" x2="864.5" y1="89.6094" y2="1922.8359"/><line style="stroke:#A80036;stroke-width:1.0;stroke-dasharray:5.0,5.0;" x1="1582" x2="1582" y1="89.6094" y2="1922.8359"/><line style="stroke:#A80036;stroke-width:1.0;stroke-dasharray:5.0,5.0;" x1="1723" x2="1723" y1="89.6094" y2="1922.8359"/><line style="stroke:#A80036;stroke-width:1.0;stroke-dasharray:5.0,5.0;" x1="1812" x2="1812" y1="89.6094" y2="1922.8359"/><text fill="#000000" font-family="sans-serif" font-size="14" lengthAdjust="spacing" textLength="118" x="20" y="86.5332">CenterCoordinator</text><ellipse cx="82" cy="15" fill="#FEFECE" filter="url(#fmy62iexmxzag)" rx="8" ry="8" style="stroke:#A80036;stroke-width:2.0;"/><path d="M82,23 L82,50 M69,31 L95,31 M82,50 L69,65 M82,50 L95,65 " fill="none" filter="url(#fmy62iexmxzag)" style="stroke:#A80036;stroke-width:2.0;"/><text fill="#000000" font-family="sans-serif" font-size="14" lengthAdjust="spacing" textLength="118" x="20" y="1936.3691">CenterCoordinator</text><ellipse cx="82" cy="1949.4453" fill="#FEFECE" filter="url(#fmy62iexmxzag)" rx="8" ry="8" style="stroke:#A80036;stroke-width:2.0;"/><path d="M82,1957.4453 L82,1984.4453 M69,1965.4453 L95,1965.4453 M82,1984.4453 L69,1999.4453 M82,1984.4453 L95,1999.4453 " fill="none" filter="url(#fmy62iexmxzag)" style="stroke:#A80036;stroke-width:2.0;"/><rect fill="#FEFECE" filter="url(#fmy62iexmxzag)" height="31.6094" style="stroke:#A80036;stroke-width:1.5;" width="185" x="260.5" y="53"/><text fill="#000000" font-family="sans-serif" font-size="14" lengthAdjust="spacing" textLength="171" x="267.5" y="74.5332">:DataFromLegacySystemUI</text><rect fill="#FEFECE" filter="url(#fmy62iexmxzag)" height="31.6094" style="stroke:#A80036;stroke-width:1.5;" width="185" x="260.5" y="1921.8359"/><text fill="#000000" font-family="sans-serif" font-size="14" lengthAdjust="spacing" textLength="171" x="267.5" y="1943.3691">:DataFromLegacySystemUI</text><rect fill="#FEFECE" filter="url(#fmy62iexmxzag)" height="31.6094" style="stroke:#A80036;stroke-width:1.5;" width="235" x="538.5" y="53"/><text fill="#000000" font-family="sans-serif" font-size="14" lengthAdjust="spacing" textLength="221" x="545.5" y="74.5332">:DataFromLegacySystemController</text><rect fill="#FEFECE" filter="url(#fmy62iexmxzag)" height="31.6094" style="stroke:#A80036;stroke-width:1.5;" width="235" x="538.5" y="1921.8359"/><text fill="#000000" font-family="sans-serif" font-size="14" lengthAdjust="spacing" textLength="221" x="545.5" y="1943.3691">:DataFromLegacySystemController</text><rect fill="#FEFECE" filter="url(#fmy62iexmxzag)" height="31.6094" style="stroke:#A80036;stroke-width:1.5;" width="151" x="787.5" y="53"/><text fill="#000000" font-family="sans-serif" font-size="14" lengthAdjust="spacing" textLength="137" x="794.5" y="74.5332">:ReadLegacyDataFile</text><rect fill="#FEFECE" filter="url(#fmy62iexmxzag)" height="31.6094" style="stroke:#A80036;stroke-width:1.5;" width="151" x="787.5" y="1921.8359"/><text fill="#000000" font-family="sans-serif" font-size="14" lengthAdjust="spacing" textLength="137" x="794.5" y="1943.3691">:ReadLegacyDataFile</text><rect fill="#FEFECE" filter="url(#fmy62iexmxzag)" height="31.6094" style="stroke:#A80036;stroke-width:1.5;" width="78" x="1541" y="53"/><text fill="#000000" font-family="sans-serif" font-size="14" lengthAdjust="spacing" textLength="64" x="1548" y="74.5332">:Company</text><rect fill="#FEFECE" filter="url(#fmy62iexmxzag)" height="31.6094" style="stroke:#A80036;stroke-width:1.5;" width="78" x="1541" y="1921.8359"/><text fill="#000000" font-family="sans-serif" font-size="14" lengthAdjust="spacing" textLength="64" x="1548" y="1943.3691">:Company</text><rect fill="#FEFECE" filter="url(#fmy62iexmxzag)" height="31.6094" style="stroke:#A80036;stroke-width:1.5;" width="108" x="1667" y="53"/><text fill="#000000" font-family="sans-serif" font-size="14" lengthAdjust="spacing" textLength="94" x="1674" y="74.5332">:SNSUserStore</text><rect fill="#FEFECE" filter="url(#fmy62iexmxzag)" height="31.6094" style="stroke:#A80036;stroke-width:1.5;" width="108" x="1667" y="1921.8359"/><text fill="#000000" font-family="sans-serif" font-size="14" lengthAdjust="spacing" textLength="94" x="1674" y="1943.3691">:SNSUserStore</text><rect fill="#FEFECE" filter="url(#fmy62iexmxzag)" height="31.6094" style="stroke:#A80036;stroke-width:1.5;" width="43" x="1789" y="53"/><text fill="#000000" font-family="sans-serif" font-size="14" lengthAdjust="spacing" textLength="29" x="1796" y="74.5332">:App</text><rect fill="#FEFECE" filter="url(#fmy62iexmxzag)" height="31.6094" style="stroke:#A80036;stroke-width:1.5;" width="43" x="1789" y="1921.8359"/><text fill="#000000" font-family="sans-serif" font-size="14" lengthAdjust="spacing" textLength="29" x="1796" y="1943.3691">:App</text><rect fill="#FFFFFF" filter="url(#fmy62iexmxzag)" height="1814.2266" style="stroke:#A80036;stroke-width:1.0;" width="10" x="77" y="99.6094"/><rect fill="#FFFFFF" filter="url(#fmy62iexmxzag)" height="30.3516" style="stroke:#A80036;stroke-width:1.0;" width="10" x="350" y="121.9609"/><rect fill="#FFFFFF" filter="url(#fmy62iexmxzag)" height="794.4375" style="stroke:#A80036;stroke-width:1.0;" width="10" x="350" y="182.6641"/><rect fill="#FFFFFF" filter="url(#fmy62iexmxzag)" height="199.4609" style="stroke:#A80036;stroke-width:1.0;" width="10" x="350" y="1007.4531"/><rect fill="#FFFFFF" filter="url(#fmy62iexmxzag)" height="315.8672" style="stroke:#A80036;stroke-width:1.0;" width="10" x="350" y="1262.6172"/><rect fill="#FFFFFF" filter="url(#fmy62iexmxzag)" height="273.1641" style="stroke:#A80036;stroke-width:1.0;" width="10" x="350" y="1624.6719"/><rect fill="#FFFFFF" filter="url(#fmy62iexmxzag)" height="733.7344" style="stroke:#A80036;stroke-width:1.0;" width="10" x="653" y="213.0156"/><rect fill="#FFFFFF" filter="url(#fmy62iexmxzag)" height="30.3516" style="stroke:#A80036;stroke-width:1.0;" width="10" x="653" y="1037.8047"/><rect fill="#FFFFFF" filter="url(#fmy62iexmxzag)" height="91.0547" style="stroke:#A80036;stroke-width:1.0;" width="10" x="653" y="1292.9688"/><rect fill="#FFFFFF" filter="url(#fmy62iexmxzag)" height="112.4063" style="stroke:#A80036;stroke-width:1.0;" width="10" x="653" y="1435.7266"/><rect fill="#FFFFFF" filter="url(#fmy62iexmxzag)" height="91.0547" style="stroke:#A80036;stroke-width:1.0;" width="10" x="653" y="1655.0234"/><rect fill="#FFFFFF" filter="url(#fmy62iexmxzag)" height="91.0547" style="stroke:#A80036;stroke-width:1.0;" width="10" x="653" y="1776.4297"/><rect fill="#FFFFFF" filter="url(#fmy62iexmxzag)" height="673.0313" style="stroke:#A80036;stroke-width:1.0;" width="10" x="860" y="243.3672"/><rect fill="#FFFFFF" filter="url(#fmy62iexmxzag)" height="116.4063" style="stroke:#A80036;stroke-width:1.0;" width="10" x="860" y="1068.1563"/><rect fill="#FFFFFF" filter="url(#fmy62iexmxzag)" height="30.3516" style="stroke:#A80036;stroke-width:1.0;" width="10" x="860" y="1487.4297"/><rect fill="#FFFFFF" filter="url(#fmy62iexmxzag)" height="30.3516" style="stroke:#A80036;stroke-width:1.0;" width="10" x="860" y="1806.7813"/><rect fill="#FFFFFF" filter="url(#fmy62iexmxzag)" height="151.7578" style="stroke:#A80036;stroke-width:1.0;" width="10" x="1577" y="425.4766"/><rect fill="#FFFFFF" filter="url(#fmy62iexmxzag)" height="30.3516" style="stroke:#A80036;stroke-width:1.0;" width="10" x="1718" y="455.8281"/><rect fill="#FFFFFF" filter="url(#fmy62iexmxzag)" height="30.3516" style="stroke:#A80036;stroke-width:1.0;" width="10" x="1807.5" y="1323.3203"/><rect fill="#FFFFFF" filter="url(#fmy62iexmxzag)" height="30.3516" style="stroke:#A80036;stroke-width:1.0;" width="10" x="1807.5" y="1685.375"/><polygon fill="#A80036" points="338,117.9609,348,121.9609,338,125.9609,342,121.9609" style="stroke:#A80036;stroke-width:1.0;"/><line style="stroke:#A80036;stroke-width:1.0;" x1="87" x2="344" y1="121.9609" y2="121.9609"/><text fill="#000000" font-family="sans-serif" font-size="13" font-weight="bold" lengthAdjust="spacing" textLength="7" x="94" y="117.1045">1</text><text fill="#000000" font-family="sans-serif" font-size="13" lengthAdjust="spacing" textLength="233" x="105" y="117.1045">Asks to load a CSV file with legacy data</text><polygon fill="#A80036" points="98,148.3125,88,152.3125,98,156.3125,94,152.3125" style="stroke:#A80036;stroke-width:1.0;"/><line style="stroke:#A80036;stroke-width:1.0;stroke-dasharray:2.0,2.0;" x1="92" x2="354" y1="152.3125" y2="152.3125"/><text fill="#000000" font-family="sans-serif" font-size="13" font-weight="bold" lengthAdjust="spacing" textLength="7" x="104" y="147.4561">2</text><text fill="#000000" font-family="sans-serif" font-size="13" lengthAdjust="spacing" textLength="159" x="115" y="147.4561">request path of the CSV file</text><polygon fill="#A80036" points="338,178.6641,348,182.6641,338,186.6641,342,182.6641" style="stroke:#A80036;stroke-width:1.0;"/><line style="stroke:#A80036;stroke-width:1.0;" x1="87" x2="344" y1="182.6641" y2="182.6641"/><text fill="#000000" font-family="sans-serif" font-size="13" font-weight="bold" lengthAdjust="spacing" textLength="7" x="94" y="177.8076">3</text><text fill="#000000" font-family="sans-serif" font-size="13" lengthAdjust="spacing" textLength="61" x="105" y="177.8076">types path</text><polygon fill="#A80036" points="641,209.0156,651,213.0156,641,217.0156,645,213.0156" style="stroke:#A80036;stroke-width:1.0;"/><line style="stroke:#A80036;stroke-width:1.0;" x1="360" x2="647" y1="213.0156" y2="213.0156"/><text fill="#000000" font-family="sans-serif" font-size="13" font-weight="bold" lengthAdjust="spacing" textLength="7" x="367" y="208.1592">4</text><text fill="#000000" font-family="sans-serif" font-size="13" lengthAdjust="spacing" textLength="79" x="378" y="208.1592">readFile(path)</text><polygon fill="#A80036" points="848,239.3672,858,243.3672,848,247.3672,852,243.3672" style="stroke:#A80036;stroke-width:1.0;"/><line style="stroke:#A80036;stroke-width:1.0;" x1="663" x2="854" y1="243.3672" y2="243.3672"/><text fill="#000000" font-family="sans-serif" font-size="13" font-weight="bold" lengthAdjust="spacing" textLength="7" x="670" y="238.5107">5</text><text fill="#000000" font-family="sans-serif" font-size="13" lengthAdjust="spacing" textLength="113" x="681" y="238.5107">readFile(Sring path)</text><path d="M777.5,258.3672 L850.5,258.3672 L850.5,266.3672 L840.5,276.3672 L777.5,276.3672 L777.5,258.3672 " fill="#FF0000" style="stroke:#000000;stroke-width:1.0;"/><rect fill="none" height="137.7578" style="stroke:#000000;stroke-width:2.0;" width="373.5" x="777.5" y="258.3672"/><text fill="#000000" font-family="sans-serif" font-size="13" font-weight="bold" lengthAdjust="spacing" textLength="28" x="792.5" y="272.8623">loop</text><text fill="#000000" font-family="sans-serif" font-size="11" font-weight="bold" lengthAdjust="spacing" textLength="140" x="865.5" y="271.7861">[while csv has new lines]</text><line style="stroke:#A80036;stroke-width:1.0;" x1="870" x2="912" y1="315.4219" y2="315.4219"/><line style="stroke:#A80036;stroke-width:1.0;" x1="912" x2="912" y1="315.4219" y2="328.4219"/><line style="stroke:#A80036;stroke-width:1.0;" x1="871" x2="912" y1="328.4219" y2="328.4219"/><polygon fill="#A80036" points="881,324.4219,871,328.4219,881,332.4219,877,328.4219" style="stroke:#A80036;stroke-width:1.0;"/><text fill="#000000" font-family="sans-serif" font-size="13" font-weight="bold" lengthAdjust="spacing" textLength="7" x="877" y="302.3896">6</text><text fill="#000000" font-family="sans-serif" font-size="13" lengthAdjust="spacing" textLength="213" x="888" y="294.2139">validateFileLegacy(SNSUserNumber,</text><text fill="#000000" font-family="sans-serif" font-size="13" lengthAdjust="spacing" textLength="244" x="888" y="310.5654">firstDate,secondDate,thirdDate,fourthDate)</text><line style="stroke:#A80036;stroke-width:1.0;" x1="870" x2="912" y1="375.125" y2="375.125"/><line style="stroke:#A80036;stroke-width:1.0;" x1="912" x2="912" y1="375.125" y2="388.125"/><line style="stroke:#A80036;stroke-width:1.0;" x1="871" x2="912" y1="388.125" y2="388.125"/><polygon fill="#A80036" points="881,384.125,871,388.125,881,392.125,877,388.125" style="stroke:#A80036;stroke-width:1.0;"/><text fill="#000000" font-family="sans-serif" font-size="13" font-weight="bold" lengthAdjust="spacing" textLength="7" x="877" y="362.0928">7</text><text fill="#000000" font-family="sans-serif" font-size="13" lengthAdjust="spacing" textLength="251" x="888" y="353.917">Saves data into an ArrayList&lt;String&gt; called</text><text fill="#000000" font-family="sans-serif" font-size="13" lengthAdjust="spacing" textLength="86" x="892" y="370.2686">legacyDataList</text><polygon fill="#A80036" points="1565,421.4766,1575,425.4766,1565,429.4766,1569,425.4766" style="stroke:#A80036;stroke-width:1.0;"/><line style="stroke:#A80036;stroke-width:1.0;" x1="870" x2="1571" y1="425.4766" y2="425.4766"/><text fill="#000000" font-family="sans-serif" font-size="13" font-weight="bold" lengthAdjust="spacing" textLength="7" x="877" y="420.6201">8</text><text fill="#000000" font-family="sans-serif" font-size="13" lengthAdjust="spacing" textLength="101" x="888" y="420.6201">getSNSUserList()</text><polygon fill="#A80036" points="1706,451.8281,1716,455.8281,1706,459.8281,1710,455.8281" style="stroke:#A80036;stroke-width:1.0;"/><line style="stroke:#A80036;stroke-width:1.0;" x1="1587" x2="1712" y1="455.8281" y2="455.8281"/><text fill="#000000" font-family="sans-serif" font-size="13" font-weight="bold" lengthAdjust="spacing" textLength="7" x="1594" y="450.9717">9</text><text fill="#000000" font-family="sans-serif" font-size="13" lengthAdjust="spacing" textLength="101" x="1605" y="450.9717">getSNSUserList()</text><polygon fill="#A80036" points="1598,482.1797,1588,486.1797,1598,490.1797,1594,486.1797" style="stroke:#A80036;stroke-width:1.0;"/><line style="stroke:#A80036;stroke-width:1.0;" x1="1592" x2="1722" y1="486.1797" y2="486.1797"/><text fill="#000000" font-family="sans-serif" font-size="13" font-weight="bold" lengthAdjust="spacing" textLength="14" x="1604" y="481.3232">10</text><text fill="#000000" font-family="sans-serif" font-size="13" lengthAdjust="spacing" textLength="61" x="1622" y="481.3232">returns list</text><polygon fill="#A80036" points="881,512.5313,871,516.5313,881,520.5313,877,516.5313" style="stroke:#A80036;stroke-width:1.0;"/><line style="stroke:#A80036;stroke-width:1.0;" x1="875" x2="1576" y1="516.5313" y2="516.5313"/><text fill="#000000" font-family="sans-serif" font-size="13" font-weight="bold" lengthAdjust="spacing" textLength="14" x="887" y="511.6748">11</text><text fill="#000000" font-family="sans-serif" font-size="13" lengthAdjust="spacing" textLength="61" x="905" y="511.6748">returns list</text><polygon fill="#A80036" points="1565,542.8828,1575,546.8828,1565,550.8828,1569,546.8828" style="stroke:#A80036;stroke-width:1.0;"/><line style="stroke:#A80036;stroke-width:1.0;" x1="870" x2="1571" y1="546.8828" y2="546.8828"/><text fill="#000000" font-family="sans-serif" font-size="13" font-weight="bold" lengthAdjust="spacing" textLength="14" x="877" y="542.0264">12</text><text fill="#000000" font-family="sans-serif" font-size="13" lengthAdjust="spacing" textLength="94" x="895" y="542.0264">getVaccineList()</text><polygon fill="#A80036" points="881,573.2344,871,577.2344,881,581.2344,877,577.2344" style="stroke:#A80036;stroke-width:1.0;"/><line style="stroke:#A80036;stroke-width:1.0;" x1="875" x2="1581" y1="577.2344" y2="577.2344"/><text fill="#000000" font-family="sans-serif" font-size="13" font-weight="bold" lengthAdjust="spacing" textLength="14" x="887" y="572.3779">13</text><text fill="#000000" font-family="sans-serif" font-size="13" lengthAdjust="spacing" textLength="61" x="905" y="572.3779">returns list</text><path d="M777.5,592.2344 L850.5,592.2344 L850.5,600.2344 L840.5,610.2344 L777.5,610.2344 L777.5,592.2344 " fill="#FF0000" style="stroke:#000000;stroke-width:1.0;"/><rect fill="none" height="294.8125" style="stroke:#000000;stroke-width:2.0;" width="804.5" x="777.5" y="592.2344"/><text fill="#000000" font-family="sans-serif" font-size="13" font-weight="bold" lengthAdjust="spacing" textLength="28" x="792.5" y="606.7295">loop</text><text fill="#000000" font-family="sans-serif" font-size="11" font-weight="bold" lengthAdjust="spacing" textLength="200" x="865.5" y="605.6533">[while legacyDataList has new lines]</text><line style="stroke:#A80036;stroke-width:1.0;" x1="870" x2="912" y1="654.2891" y2="654.2891"/><line style="stroke:#A80036;stroke-width:1.0;" x1="912" x2="912" y1="654.2891" y2="667.2891"/><line style="stroke:#A80036;stroke-width:1.0;" x1="865" x2="912" y1="667.2891" y2="667.2891"/><polygon fill="#A80036" points="875,663.2891,865,667.2891,875,671.2891,871,667.2891" style="stroke:#A80036;stroke-width:1.0;"/><text fill="#000000" font-family="sans-serif" font-size="13" font-weight="bold" lengthAdjust="spacing" textLength="14" x="877" y="641.2568">14</text><text fill="#000000" font-family="sans-serif" font-size="13" lengthAdjust="spacing" textLength="194" x="895" y="633.0811">findPosOfSNSUser(snsUsersList,</text><text fill="#000000" font-family="sans-serif" font-size="13" lengthAdjust="spacing" textLength="170" x="899" y="649.4326">values,positionInSnsUserList)</text><line style="stroke:#A80036;stroke-width:1.0;" x1="870" x2="912" y1="692.6406" y2="692.6406"/><line style="stroke:#A80036;stroke-width:1.0;" x1="912" x2="912" y1="692.6406" y2="705.6406"/><line style="stroke:#A80036;stroke-width:1.0;" x1="871" x2="912" y1="705.6406" y2="705.6406"/><polygon fill="#A80036" points="881,701.6406,871,705.6406,881,709.6406,877,705.6406" style="stroke:#A80036;stroke-width:1.0;"/><text fill="#000000" font-family="sans-serif" font-size="13" font-weight="bold" lengthAdjust="spacing" textLength="14" x="877" y="687.7842">15</text><text fill="#000000" font-family="sans-serif" font-size="13" lengthAdjust="spacing" textLength="325" x="895" y="687.7842">findPosOfVax(vaccineList,values,positionInVaccinesList)</text><line style="stroke:#A80036;stroke-width:1.0;" x1="870" x2="912" y1="735.9922" y2="735.9922"/><line style="stroke:#A80036;stroke-width:1.0;" x1="912" x2="912" y1="735.9922" y2="748.9922"/><line style="stroke:#A80036;stroke-width:1.0;" x1="871" x2="912" y1="748.9922" y2="748.9922"/><polygon fill="#A80036" points="881,744.9922,871,748.9922,881,752.9922,877,748.9922" style="stroke:#A80036;stroke-width:1.0;"/><text fill="#000000" font-family="sans-serif" font-size="13" font-weight="bold" lengthAdjust="spacing" textLength="14" x="877" y="731.1357">16</text><text fill="#000000" font-family="sans-serif" font-size="13" lengthAdjust="spacing" textLength="675" x="895" y="731.1357">checksDuplicates(updatedList,snsUsersList,vaccineList,positionInSnsUserList,positionInVaccinesList,lineOfTheData)</text><line style="stroke:#A80036;stroke-width:1.0;" x1="870" x2="912" y1="779.3438" y2="779.3438"/><line style="stroke:#A80036;stroke-width:1.0;" x1="912" x2="912" y1="779.3438" y2="792.3438"/><line style="stroke:#A80036;stroke-width:1.0;" x1="871" x2="912" y1="792.3438" y2="792.3438"/><polygon fill="#A80036" points="881,788.3438,871,792.3438,881,796.3438,877,792.3438" style="stroke:#A80036;stroke-width:1.0;"/><text fill="#000000" font-family="sans-serif" font-size="13" font-weight="bold" lengthAdjust="spacing" textLength="14" x="877" y="774.4873">17</text><text fill="#000000" font-family="sans-serif" font-size="13" lengthAdjust="spacing" textLength="322" x="895" y="774.4873">Saves data into an ArrayList&lt;String&gt; called updatedList</text><line style="stroke:#A80036;stroke-width:1.0;" x1="870" x2="912" y1="822.6953" y2="822.6953"/><line style="stroke:#A80036;stroke-width:1.0;" x1="912" x2="912" y1="822.6953" y2="835.6953"/><line style="stroke:#A80036;stroke-width:1.0;" x1="871" x2="912" y1="835.6953" y2="835.6953"/><polygon fill="#A80036" points="881,831.6953,871,835.6953,881,839.6953,877,835.6953" style="stroke:#A80036;stroke-width:1.0;"/><text fill="#000000" font-family="sans-serif" font-size="13" font-weight="bold" lengthAdjust="spacing" textLength="14" x="877" y="817.8389">18</text><text fill="#000000" font-family="sans-serif" font-size="13" lengthAdjust="spacing" textLength="61" x="895" y="817.8389">setArrival()</text><line style="stroke:#A80036;stroke-width:1.0;" x1="870" x2="912" y1="866.0469" y2="866.0469"/><line style="stroke:#A80036;stroke-width:1.0;" x1="912" x2="912" y1="866.0469" y2="879.0469"/><line style="stroke:#A80036;stroke-width:1.0;" x1="871" x2="912" y1="879.0469" y2="879.0469"/><polygon fill="#A80036" points="881,875.0469,871,879.0469,881,883.0469,877,879.0469" style="stroke:#A80036;stroke-width:1.0;"/><text fill="#000000" font-family="sans-serif" font-size="13" font-weight="bold" lengthAdjust="spacing" textLength="14" x="877" y="861.1904">19</text><text fill="#000000" font-family="sans-serif" font-size="13" lengthAdjust="spacing" textLength="82" x="895" y="861.1904">setDeparture()</text><path d="M989,850.1953 L989,876.1953 L1297,876.1953 L1297,860.1953 L1287,850.1953 L989,850.1953 " fill="#FBFB77" filter="url(#fmy62iexmxzag)" style="stroke:#A80036;stroke-width:1.0;"/><path d="M1287,850.1953 L1287,860.1953 L1297,860.1953 L1287,850.1953 " fill="#FBFB77" style="stroke:#A80036;stroke-width:1.0;"/><text fill="#000000" font-family="sans-serif" font-size="13" lengthAdjust="spacing" textLength="287" x="995" y="868.6904">Adds arrivals and departures to vaccination center</text><polygon fill="#A80036" points="674,912.3984,664,916.3984,674,920.3984,670,916.3984" style="stroke:#A80036;stroke-width:1.0;"/><line style="stroke:#A80036;stroke-width:1.0;" x1="668" x2="864" y1="916.3984" y2="916.3984"/><text fill="#000000" font-family="sans-serif" font-size="13" font-weight="bold" lengthAdjust="spacing" textLength="14" x="680" y="911.542">20</text><text fill="#000000" font-family="sans-serif" font-size="13" lengthAdjust="spacing" textLength="111" x="698" y="911.542">returns updatedList</text><polygon fill="#A80036" points="371,942.75,361,946.75,371,950.75,367,946.75" style="stroke:#A80036;stroke-width:1.0;"/><line style="stroke:#A80036;stroke-width:1.0;" x1="365" x2="657" y1="946.75" y2="946.75"/><text fill="#000000" font-family="sans-serif" font-size="13" font-weight="bold" lengthAdjust="spacing" textLength="14" x="377" y="941.8936">21</text><text fill="#000000" font-family="sans-serif" font-size="13" lengthAdjust="spacing" textLength="111" x="395" y="941.8936">returns updatedList</text><polygon fill="#A80036" points="98,973.1016,88,977.1016,98,981.1016,94,977.1016" style="stroke:#A80036;stroke-width:1.0;"/><line style="stroke:#A80036;stroke-width:1.0;" x1="92" x2="354" y1="977.1016" y2="977.1016"/><text fill="#000000" font-family="sans-serif" font-size="13" font-weight="bold" lengthAdjust="spacing" textLength="14" x="104" y="972.2451">22</text><text fill="#000000" font-family="sans-serif" font-size="13" lengthAdjust="spacing" textLength="152" x="122" y="972.2451">requests the option to sort</text><polygon fill="#A80036" points="338,1003.4531,348,1007.4531,338,1011.4531,342,1007.4531" style="stroke:#A80036;stroke-width:1.0;"/><line style="stroke:#A80036;stroke-width:1.0;" x1="87" x2="344" y1="1007.4531" y2="1007.4531"/><text fill="#000000" font-family="sans-serif" font-size="13" font-weight="bold" lengthAdjust="spacing" textLength="14" x="94" y="1002.5967">23</text><text fill="#000000" font-family="sans-serif" font-size="13" lengthAdjust="spacing" textLength="81" x="112" y="1002.5967">selects option</text><polygon fill="#A80036" points="641,1033.8047,651,1037.8047,641,1041.8047,645,1037.8047" style="stroke:#A80036;stroke-width:1.0;"/><line style="stroke:#A80036;stroke-width:1.0;" x1="360" x2="647" y1="1037.8047" y2="1037.8047"/><text fill="#000000" font-family="sans-serif" font-size="13" font-weight="bold" lengthAdjust="spacing" textLength="14" x="367" y="1032.9482">24</text><text fill="#000000" font-family="sans-serif" font-size="13" lengthAdjust="spacing" textLength="164" x="385" y="1032.9482">chooseCriteriaToSort(option)</text><polygon fill="#A80036" points="848,1064.1563,858,1068.1563,848,1072.1563,852,1068.1563" style="stroke:#A80036;stroke-width:1.0;"/><line style="stroke:#A80036;stroke-width:1.0;" x1="658" x2="854" y1="1068.1563" y2="1068.1563"/><text fill="#000000" font-family="sans-serif" font-size="13" font-weight="bold" lengthAdjust="spacing" textLength="14" x="665" y="1063.2998">25</text><text fill="#000000" font-family="sans-serif" font-size="13" lengthAdjust="spacing" textLength="85" x="683" y="1063.2998">setList(Option)</text><path d="M777.5,1083.1563 L850.5,1083.1563 L850.5,1091.1563 L840.5,1101.1563 L777.5,1101.1563 L777.5,1083.1563 " fill="#FF0000" style="stroke:#000000;stroke-width:1.0;"/><rect fill="none" height="94.4063" style="stroke:#000000;stroke-width:2.0;" width="280" x="777.5" y="1083.1563"/><text fill="#000000" font-family="sans-serif" font-size="13" font-weight="bold" lengthAdjust="spacing" textLength="28" x="792.5" y="1097.6514">loop</text><text fill="#000000" font-family="sans-serif" font-size="11" font-weight="bold" lengthAdjust="spacing" textLength="187" x="865.5" y="1096.5752">[while updatedList has new lines]</text><line style="stroke:#A80036;stroke-width:1.0;" x1="870" x2="912" y1="1156.5625" y2="1156.5625"/><line style="stroke:#A80036;stroke-width:1.0;" x1="912" x2="912" y1="1156.5625" y2="1169.5625"/><line style="stroke:#A80036;stroke-width:1.0;" x1="871" x2="912" y1="1169.5625" y2="1169.5625"/><polygon fill="#A80036" points="881,1165.5625,871,1169.5625,881,1173.5625,877,1169.5625" style="stroke:#A80036;stroke-width:1.0;"/><text fill="#000000" font-family="sans-serif" font-size="13" font-weight="bold" lengthAdjust="spacing" textLength="14" x="877" y="1135.3545">26</text><text fill="#000000" font-family="sans-serif" font-size="13" lengthAdjust="spacing" textLength="97" x="895" y="1119.0029">Saves dates to a</text><text fill="#000000" font-family="sans-serif" font-size="13" lengthAdjust="spacing" textLength="134" x="899" y="1135.3545">a List&lt;LocalDateTime&gt;</text><text fill="#000000" font-family="sans-serif" font-size="13" lengthAdjust="spacing" textLength="93" x="899" y="1151.7061">called listToSort</text><polygon fill="#A80036" points="98,1202.9141,88,1206.9141,98,1210.9141,94,1206.9141" style="stroke:#A80036;stroke-width:1.0;"/><line style="stroke:#A80036;stroke-width:1.0;" x1="92" x2="354" y1="1206.9141" y2="1206.9141"/><text fill="#000000" font-family="sans-serif" font-size="13" font-weight="bold" lengthAdjust="spacing" textLength="14" x="104" y="1202.0576">27</text><text fill="#000000" font-family="sans-serif" font-size="13" lengthAdjust="spacing" textLength="167" x="122" y="1202.0576">requests the order of the sort</text><path d="M10,1221.9141 L71,1221.9141 L71,1229.9141 L61,1239.9141 L10,1239.9141 L10,1221.9141 " fill="#FFD700" style="stroke:#000000;stroke-width:1.0;"/><rect fill="none" height="683.9219" style="stroke:#000000;stroke-width:2.0;" width="1836" x="10" y="1221.9141"/><text fill="#000000" font-family="sans-serif" font-size="13" font-weight="bold" lengthAdjust="spacing" textLength="16" x="25" y="1236.4092">alt</text><text fill="#000000" font-family="sans-serif" font-size="11" font-weight="bold" lengthAdjust="spacing" textLength="350" x="86" y="1235.333">[algorithmToBeUsed = "InsertionSort", option = "0 - Ascending"]</text><polygon fill="#A80036" points="338,1258.6172,348,1262.6172,338,1266.6172,342,1262.6172" style="stroke:#A80036;stroke-width:1.0;"/><line style="stroke:#A80036;stroke-width:1.0;" x1="87" x2="344" y1="1262.6172" y2="1262.6172"/><text fill="#000000" font-family="sans-serif" font-size="13" font-weight="bold" lengthAdjust="spacing" textLength="14" x="94" y="1257.7607">28</text><text fill="#000000" font-family="sans-serif" font-size="13" lengthAdjust="spacing" textLength="75" x="112" y="1257.7607">selects order</text><polygon fill="#A80036" points="641,1288.9688,651,1292.9688,641,1296.9688,645,1292.9688" style="stroke:#A80036;stroke-width:1.0;"/><line style="stroke:#A80036;stroke-width:1.0;" x1="360" x2="647" y1="1292.9688" y2="1292.9688"/><text fill="#000000" font-family="sans-serif" font-size="13" font-weight="bold" lengthAdjust="spacing" textLength="14" x="367" y="1288.1123">29</text><text fill="#000000" font-family="sans-serif" font-size="13" lengthAdjust="spacing" textLength="81" x="385" y="1288.1123">getAlgorithm()</text><polygon fill="#A80036" points="1795.5,1319.3203,1805.5,1323.3203,1795.5,1327.3203,1799.5,1323.3203" style="stroke:#A80036;stroke-width:1.0;"/><line style="stroke:#A80036;stroke-width:1.0;" x1="663" x2="1801.5" y1="1323.3203" y2="1323.3203"/><text fill="#000000" font-family="sans-serif" font-size="13" font-weight="bold" lengthAdjust="spacing" textLength="14" x="670" y="1318.4639">30</text><text fill="#000000" font-family="sans-serif" font-size="13" lengthAdjust="spacing" textLength="122" x="688" y="1318.4639">getSortingAlgorithm()</text><polygon fill="#A80036" points="674,1349.6719,664,1353.6719,674,1357.6719,670,1353.6719" style="stroke:#A80036;stroke-width:1.0;"/><line style="stroke:#A80036;stroke-width:1.0;" x1="668" x2="1811.5" y1="1353.6719" y2="1353.6719"/><text fill="#000000" font-family="sans-serif" font-size="13" font-weight="bold" lengthAdjust="spacing" textLength="14" x="680" y="1348.8154">31</text><text fill="#000000" font-family="sans-serif" font-size="13" lengthAdjust="spacing" textLength="97" x="698" y="1348.8154">returns algorithm</text><polygon fill="#A80036" points="371,1380.0234,361,1384.0234,371,1388.0234,367,1384.0234" style="stroke:#A80036;stroke-width:1.0;"/><line style="stroke:#A80036;stroke-width:1.0;" x1="365" x2="657" y1="1384.0234" y2="1384.0234"/><text fill="#000000" font-family="sans-serif" font-size="13" font-weight="bold" lengthAdjust="spacing" textLength="14" x="377" y="1379.167">32</text><text fill="#000000" font-family="sans-serif" font-size="13" lengthAdjust="spacing" textLength="97" x="395" y="1379.167">returns algorithm</text><polygon fill="#A80036" points="641,1431.7266,651,1435.7266,641,1439.7266,645,1435.7266" style="stroke:#A80036;stroke-width:1.0;"/><line style="stroke:#A80036;stroke-width:1.0;" x1="360" x2="647" y1="1435.7266" y2="1435.7266"/><text fill="#000000" font-family="sans-serif" font-size="13" font-weight="bold" lengthAdjust="spacing" textLength="14" x="367" y="1430.8701">33</text><text fill="#000000" font-family="sans-serif" font-size="13" lengthAdjust="spacing" textLength="256" x="385" y="1430.8701">sortListWithAlgo(algorithmToBeUsed,option)</text><path d="M668,1397.0234 L668,1456.0234 L1125,1456.0234 L1125,1407.0234 L1115,1397.0234 L668,1397.0234 " fill="#FBFB77" filter="url(#fmy62iexmxzag)" style="stroke:#A80036;stroke-width:1.0;"/><path d="M1115,1397.0234 L1115,1407.0234 L1125,1407.0234 L1115,1397.0234 " fill="#FBFB77" style="stroke:#A80036;stroke-width:1.0;"/><text fill="#000000" font-family="sans-serif" font-size="13" lengthAdjust="spacing" textLength="436" x="674" y="1415.5186">algorithmToBeUsed can be MergeSort or HeapSort, both have methods that</text><text fill="#000000" font-family="sans-serif" font-size="13" lengthAdjust="spacing" textLength="402" x="678" y="1431.8701">can sort in ascending/descending order, here we are just representing</text><text fill="#000000" font-family="sans-serif" font-size="13" lengthAdjust="spacing" textLength="404" x="678" y="1448.2217">the MergeSort algorithm because HeapSort functions in a similar way.</text><polygon fill="#A80036" points="848,1483.4297,858,1487.4297,848,1491.4297,852,1487.4297" style="stroke:#A80036;stroke-width:1.0;"/><line style="stroke:#A80036;stroke-width:1.0;" x1="663" x2="854" y1="1487.4297" y2="1487.4297"/><text fill="#000000" font-family="sans-serif" font-size="13" font-weight="bold" lengthAdjust="spacing" textLength="14" x="670" y="1482.5732">34</text><text fill="#000000" font-family="sans-serif" font-size="13" lengthAdjust="spacing" textLength="142" x="688" y="1482.5732">insertionSortAscending()</text><polygon fill="#A80036" points="674,1513.7813,664,1517.7813,674,1521.7813,670,1517.7813" style="stroke:#A80036;stroke-width:1.0;"/><line style="stroke:#A80036;stroke-width:1.0;" x1="668" x2="864" y1="1517.7813" y2="1517.7813"/><text fill="#000000" font-family="sans-serif" font-size="13" font-weight="bold" lengthAdjust="spacing" textLength="14" x="680" y="1512.9248">35</text><text fill="#000000" font-family="sans-serif" font-size="13" lengthAdjust="spacing" textLength="101" x="698" y="1512.9248">returns sortedList</text><polygon fill="#A80036" points="371,1544.1328,361,1548.1328,371,1552.1328,367,1548.1328" style="stroke:#A80036;stroke-width:1.0;"/><line style="stroke:#A80036;stroke-width:1.0;" x1="365" x2="657" y1="1548.1328" y2="1548.1328"/><text fill="#000000" font-family="sans-serif" font-size="13" font-weight="bold" lengthAdjust="spacing" textLength="14" x="377" y="1543.2764">36</text><text fill="#000000" font-family="sans-serif" font-size="13" lengthAdjust="spacing" textLength="101" x="395" y="1543.2764">returns sortedList</text><polygon fill="#A80036" points="98,1574.4844,88,1578.4844,98,1582.4844,94,1578.4844" style="stroke:#A80036;stroke-width:1.0;"/><line style="stroke:#A80036;stroke-width:1.0;" x1="92" x2="354" y1="1578.4844" y2="1578.4844"/><text fill="#000000" font-family="sans-serif" font-size="13" font-weight="bold" lengthAdjust="spacing" textLength="14" x="104" y="1573.6279">37</text><text fill="#000000" font-family="sans-serif" font-size="13" lengthAdjust="spacing" textLength="93" x="122" y="1573.6279">prints sortedList</text><line style="stroke:#000000;stroke-width:1.0;stroke-dasharray:2.0,2.0;" x1="10" x2="1846" y1="1587.4844" y2="1587.4844"/><text fill="#000000" font-family="sans-serif" font-size="11" font-weight="bold" lengthAdjust="spacing" textLength="356" x="15" y="1598.9033">[algorithmToBeUsed = "InsertionSort", option = "1 - Descending"]</text><polygon fill="#A80036" points="338,1620.6719,348,1624.6719,338,1628.6719,342,1624.6719" style="stroke:#A80036;stroke-width:1.0;"/><line style="stroke:#A80036;stroke-width:1.0;" x1="87" x2="344" y1="1624.6719" y2="1624.6719"/><text fill="#000000" font-family="sans-serif" font-size="13" font-weight="bold" lengthAdjust="spacing" textLength="14" x="94" y="1619.8154">38</text><text fill="#000000" font-family="sans-serif" font-size="13" lengthAdjust="spacing" textLength="75" x="112" y="1619.8154">selects order</text><polygon fill="#A80036" points="641,1651.0234,651,1655.0234,641,1659.0234,645,1655.0234" style="stroke:#A80036;stroke-width:1.0;"/><line style="stroke:#A80036;stroke-width:1.0;" x1="360" x2="647" y1="1655.0234" y2="1655.0234"/><text fill="#000000" font-family="sans-serif" font-size="13" font-weight="bold" lengthAdjust="spacing" textLength="14" x="367" y="1650.167">39</text><text fill="#000000" font-family="sans-serif" font-size="13" lengthAdjust="spacing" textLength="81" x="385" y="1650.167">getAlgorithm()</text><polygon fill="#A80036" points="1795.5,1681.375,1805.5,1685.375,1795.5,1689.375,1799.5,1685.375" style="stroke:#A80036;stroke-width:1.0;"/><line style="stroke:#A80036;stroke-width:1.0;" x1="663" x2="1801.5" y1="1685.375" y2="1685.375"/><text fill="#000000" font-family="sans-serif" font-size="13" font-weight="bold" lengthAdjust="spacing" textLength="14" x="670" y="1680.5186">40</text><text fill="#000000" font-family="sans-serif" font-size="13" lengthAdjust="spacing" textLength="122" x="688" y="1680.5186">getSortingAlgorithm()</text><polygon fill="#A80036" points="674,1711.7266,664,1715.7266,674,1719.7266,670,1715.7266" style="stroke:#A80036;stroke-width:1.0;"/><line style="stroke:#A80036;stroke-width:1.0;" x1="668" x2="1811.5" y1="1715.7266" y2="1715.7266"/><text fill="#000000" font-family="sans-serif" font-size="13" font-weight="bold" lengthAdjust="spacing" textLength="14" x="680" y="1710.8701">41</text><text fill="#000000" font-family="sans-serif" font-size="13" lengthAdjust="spacing" textLength="97" x="698" y="1710.8701">returns algorithm</text><polygon fill="#A80036" points="371,1742.0781,361,1746.0781,371,1750.0781,367,1746.0781" style="stroke:#A80036;stroke-width:1.0;"/><line style="stroke:#A80036;stroke-width:1.0;" x1="365" x2="657" y1="1746.0781" y2="1746.0781"/><text fill="#000000" font-family="sans-serif" font-size="13" font-weight="bold" lengthAdjust="spacing" textLength="14" x="377" y="1741.2217">42</text><text fill="#000000" font-family="sans-serif" font-size="13" lengthAdjust="spacing" textLength="97" x="395" y="1741.2217">returns algorithm</text><polygon fill="#A80036" points="641,1772.4297,651,1776.4297,641,1780.4297,645,1776.4297" style="stroke:#A80036;stroke-width:1.0;"/><line style="stroke:#A80036;stroke-width:1.0;" x1="360" x2="647" y1="1776.4297" y2="1776.4297"/><text fill="#000000" font-family="sans-serif" font-size="13" font-weight="bold" lengthAdjust="spacing" textLength="14" x="367" y="1771.5732">43</text><text fill="#000000" font-family="sans-serif" font-size="13" lengthAdjust="spacing" textLength="256" x="385" y="1771.5732">sortListWithAlgo(algorithmToBeUsed,option)</text><polygon fill="#A80036" points="848,1802.7813,858,1806.7813,848,1810.7813,852,1806.7813" style="stroke:#A80036;stroke-width:1.0;"/><line style="stroke:#A80036;stroke-width:1.0;" x1="663" x2="854" y1="1806.7813" y2="1806.7813"/><text fill="#000000" font-family="sans-serif" font-size="13" font-weight="bold" lengthAdjust="spacing" textLength="14" x="670" y="1801.9248">44</text><text fill="#000000" font-family="sans-serif" font-size="13" lengthAdjust="spacing" textLength="149" x="688" y="1801.9248">insertionSortDescending()</text><polygon fill="#A80036" points="674,1833.1328,664,1837.1328,674,1841.1328,670,1837.1328" style="stroke:#A80036;stroke-width:1.0;"/><line style="stroke:#A80036;stroke-width:1.0;" x1="668" x2="864" y1="1837.1328" y2="1837.1328"/><text fill="#000000" font-family="sans-serif" font-size="13" font-weight="bold" lengthAdjust="spacing" textLength="14" x="680" y="1832.2764">45</text><text fill="#000000" font-family="sans-serif" font-size="13" lengthAdjust="spacing" textLength="101" x="698" y="1832.2764">returns sortedList</text><polygon fill="#A80036" points="371,1863.4844,361,1867.4844,371,1871.4844,367,1867.4844" style="stroke:#A80036;stroke-width:1.0;"/><line style="stroke:#A80036;stroke-width:1.0;" x1="365" x2="657" y1="1867.4844" y2="1867.4844"/><text fill="#000000" font-family="sans-serif" font-size="13" font-weight="bold" lengthAdjust="spacing" textLength="14" x="377" y="1862.6279">46</text><text fill="#000000" font-family="sans-serif" font-size="13" lengthAdjust="spacing" textLength="101" x="395" y="1862.6279">returns sortedList</text><polygon fill="#A80036" points="98,1893.8359,88,1897.8359,98,1901.8359,94,1897.8359" style="stroke:#A80036;stroke-width:1.0;"/><line style="stroke:#A80036;stroke-width:1.0;" x1="92" x2="354" y1="1897.8359" y2="1897.8359"/><text fill="#000000" font-family="sans-serif" font-size="13" font-weight="bold" lengthAdjust="spacing" textLength="14" x="104" y="1892.9795">47</text><text fill="#000000" font-family="sans-serif" font-size="13" lengthAdjust="spacing" textLength="93" x="122" y="1892.9795">prints sortedList</text><!--MD5=[c0d72839bc8f865e53f9ec2a856b639e]
@startuml

autonumber
actor "CenterCoordinator" as CC
participant ":DataFromLegacySystemUI" as UI
participant ":DataFromLegacySystemController" as CTRL
participant ":ReadLegacyDataFile" as RDLF
participant ":Company" as Comp
participant ":SNSUserStore" as SNSStore
participant ":App" as App


activate CC
CC -> UI : Asks to load a CSV file with legacy data
activate UI



UI - -> CC : request path of the CSV file
deactivate UI

CC -> UI : types path
activate UI


UI -> CTRL : readFile(path)

activate CTRL
CTRL -> RDLF : readFile(Sring path)


activate RDLF


loop#Red while csv has new lines
RDLF -> RDLF : validateFileLegacy(SNSUserNumber,\nfirstDate,secondDate,thirdDate,fourthDate)

RDLF -> RDLF : Saves data into an ArrayList<String> called\n legacyDataList

end loop


RDLF -> Comp : getSNSUserList()
activate Comp
Comp -> SNSStore : getSNSUserList()
activate SNSStore
SNSStore -> Comp : returns list
deactivate SNSStore
Comp -> RDLF : returns list
RDLF -> Comp : getVaccineList()
Comp -> RDLF : returns list
deactivate Comp
loop#Red while legacyDataList has new lines

RDLF -> RDLF : findPosOfSNSUser(snsUsersList,\n values,positionInSnsUserList)



deactivate Comp
RDLF -> RDLF : findPosOfVax(vaccineList,values,positionInVaccinesList)

RDLF -> RDLF : checksDuplicates(updatedList,snsUsersList,vaccineList,positionInSnsUserList,positionInVaccinesList,lineOfTheData)

RDLF -> RDLF : Saves data into an ArrayList<String> called updatedList

RDLF -> RDLF : setArrival()
RDLF -> RDLF : setDeparture()
note right : Adds arrivals and departures to vaccination center
end loop
RDLF -> CTRL : returns updatedList
deactivate RDLF
CTRL -> UI : returns updatedList
deactivate CTRL




UI -> CC : requests the option to sort
deactivate UI

deactivate UI
CC -> UI : selects option
activate UI

UI -> CTRL : chooseCriteriaToSort(option)
activate CTRL
CTRL -> RDLF : setList(Option)
deactivate CTRL
activate RDLF
loop#Red while updatedList has new lines
RDLF -> RDLF : Saves dates to a \n a List<LocalDateTime> \n called listToSort
end loop
deactivate RDLF
UI -> CC: requests the order of the sort
deactivate UI
alt#Gold algorithmToBeUsed = "InsertionSort", option = "0 - Ascending"
CC -> UI: selects order
activate UI

UI -> CTRL : getAlgorithm()
activate CTRL
CTRL -> App : getSortingAlgorithm()

activate App
App -> CTRL : returns algorithm
deactivate App
CTRL->UI : returns algorithm


deactivate CTRL


UI -> CTRL: sortListWithAlgo(algorithmToBeUsed,option)
note right: algorithmToBeUsed can be MergeSort or HeapSort, both have methods that\n can sort in ascending/descending order, here we are just representing \n the MergeSort algorithm because HeapSort functions in a similar way.
activate CTRL

CTRL -> RDLF : insertionSortAscending()
activate RDLF



RDLF -> CTRL : returns sortedList
deactivate RDLF
CTRL -> UI : returns sortedList

deactivate CTRL

UI -> CC : prints sortedList
deactivate UI
else algorithmToBeUsed = "InsertionSort", option = "1 - Descending"
CC -> UI: selects order
activate UI


UI -> CTRL : getAlgorithm()
activate CTRL
CTRL -> App : getSortingAlgorithm()

activate App
App->CTRL : returns algorithm
deactivate App
CTRL->UI : returns algorithm

deactivate CTRL


UI -> CTRL: sortListWithAlgo(algorithmToBeUsed,option)
activate CTRL

CTRL -> RDLF : insertionSortDescending()
activate RDLF

RDLF -> CTRL : returns sortedList
deactivate RDLF
CTRL -> UI : returns sortedList

deactivate CTRL
UI -> CC : prints sortedList
deactivate UI
end alt

@enduml

PlantUML version 1.2022.1(Tue Feb 01 18:19:58 GMT 2022)
(GPL source distribution)
Java Runtime: OpenJDK Runtime Environment
JVM: OpenJDK 64-Bit Server VM
Default Encoding: Cp1252
Language: en
Country: US
--></g></svg>