<?xml version="1.0" encoding="UTF-8" standalone="no"?><svg xmlns="http://www.w3.org/2000/svg" xmlns:xlink="http://www.w3.org/1999/xlink" contentStyleType="text/css" height="142px" preserveAspectRatio="none" style="width:739px;height:142px;background:#FFFFFF;" version="1.1" viewBox="0 0 739 142" width="739px" zoomAndPan="magnify"><defs/><g><!--MD5=[03960189e81aa2c066c762ffabbee709]
class Receptionist--><g id="elem_Receptionist"><rect codeLine="6" fill="#F1F1F1" height="40" id="Receptionist" rx="2.5" ry="2.5" style="stroke:#181818;stroke-width:0.5;" width="110" x="7" y="51"/><ellipse cx="22" cy="67" fill="#ADD1B2" rx="11" ry="11" style="stroke:#181818;stroke-width:1.0;"/><path d="M24,63.5 Q24.2031,63 24.4375,62.75 Q24.6719,62.5 24.9375,62.5 Q25.4063,62.5 25.7031,62.7813 Q26,63.0625 26,63.7188 L26,65.2813 Q26,65.9375 25.7188,66.2188 Q25.4375,66.5 25,66.5 Q24.6094,66.5 24.3594,66.3281 Q24.1094,66.1563 24,65.7031 Q23.9531,65.3906 23.7813,65.2188 Q23.4688,64.8906 22.9063,64.7031 Q22.3438,64.5 21.7813,64.5 Q21.0781,64.5 20.4844,64.7813 Q19.9063,65.0625 19.4531,65.6875 Q19,66.3125 19,67.1719 L19,68.0938 Q19,69.125 19.8438,69.8125 Q20.6875,70.5 22.1875,70.5 Q23.0781,70.5 23.7031,70.2969 Q24.0625,70.1875 24.4688,69.8281 Q24.7344,69.625 24.875,69.5625 Q25.0156,69.5 25.1875,69.5 Q25.5156,69.5 25.75,69.7656 Q26,70.0156 26,70.375 Q26,70.7188 25.6563,71.125 Q25.1563,71.7188 24.3594,72.0469 Q23.3125,72.5 22.0313,72.5 Q20.5313,72.5 19.3281,71.9063 Q18.3594,71.4375 17.6719,70.4219 Q17,69.4063 17,68.2031 L17,67.1094 Q17,65.8594 17.5938,64.7656 Q18.2031,63.6719 19.25,63.0938 Q20.3125,62.5 21.5,62.5 Q22.2188,62.5 22.8438,62.75 Q23.4688,63 24,63.5 Z " fill="#000000"/><text fill="#000000" font-family="sans-serif" font-size="14" lengthAdjust="spacing" textLength="78" x="36" y="72.7285">Receptionist</text><line style="stroke:#181818;stroke-width:0.5;" x1="8" x2="116" y1="83" y2="83"/></g><!--MD5=[72be06cc7ae02ccc98efe28a50e62246]
class SNSUser--><g id="elem_SNSUser"><rect codeLine="8" fill="#F1F1F1" height="40" id="SNSUser" rx="2.5" ry="2.5" style="stroke:#181818;stroke-width:0.5;" width="88" x="377" y="7"/><ellipse cx="392" cy="23" fill="#ADD1B2" rx="11" ry="11" style="stroke:#181818;stroke-width:1.0;"/><path d="M394,19.5 Q394.2031,19 394.4375,18.75 Q394.6719,18.5 394.9375,18.5 Q395.4063,18.5 395.7031,18.7813 Q396,19.0625 396,19.7188 L396,21.2813 Q396,21.9375 395.7188,22.2188 Q395.4375,22.5 395,22.5 Q394.6094,22.5 394.3594,22.3281 Q394.1094,22.1563 394,21.7031 Q393.9531,21.3906 393.7813,21.2188 Q393.4688,20.8906 392.9063,20.7031 Q392.3438,20.5 391.7813,20.5 Q391.0781,20.5 390.4844,20.7813 Q389.9063,21.0625 389.4531,21.6875 Q389,22.3125 389,23.1719 L389,24.0938 Q389,25.125 389.8438,25.8125 Q390.6875,26.5 392.1875,26.5 Q393.0781,26.5 393.7031,26.2969 Q394.0625,26.1875 394.4688,25.8281 Q394.7344,25.625 394.875,25.5625 Q395.0156,25.5 395.1875,25.5 Q395.5156,25.5 395.75,25.7656 Q396,26.0156 396,26.375 Q396,26.7188 395.6563,27.125 Q395.1563,27.7188 394.3594,28.0469 Q393.3125,28.5 392.0313,28.5 Q390.5313,28.5 389.3281,27.9063 Q388.3594,27.4375 387.6719,26.4219 Q387,25.4063 387,24.2031 L387,23.1094 Q387,21.8594 387.5938,20.7656 Q388.2031,19.6719 389.25,19.0938 Q390.3125,18.5 391.5,18.5 Q392.2188,18.5 392.8438,18.75 Q393.4688,19 394,19.5 Z " fill="#000000"/><text fill="#000000" font-family="sans-serif" font-size="14" lengthAdjust="spacing" textLength="56" x="406" y="28.7285">SNSUser</text><line style="stroke:#181818;stroke-width:0.5;" x1="378" x2="464" y1="39" y2="39"/></g><!--MD5=[04b51d1e29fe1f4d3ca80d37e8801119]
class ListOfArrivals--><g id="elem_ListOfArrivals"><rect codeLine="10" fill="#F1F1F1" height="40" id="ListOfArrivals" rx="2.5" ry="2.5" style="stroke:#181818;stroke-width:0.5;" width="116" x="616" y="95"/><ellipse cx="631" cy="111" fill="#ADD1B2" rx="11" ry="11" style="stroke:#181818;stroke-width:1.0;"/><path d="M633,107.5 Q633.2031,107 633.4375,106.75 Q633.6719,106.5 633.9375,106.5 Q634.4063,106.5 634.7031,106.7813 Q635,107.0625 635,107.7188 L635,109.2813 Q635,109.9375 634.7188,110.2188 Q634.4375,110.5 634,110.5 Q633.6094,110.5 633.3594,110.3281 Q633.1094,110.1563 633,109.7031 Q632.9531,109.3906 632.7813,109.2188 Q632.4688,108.8906 631.9063,108.7031 Q631.3438,108.5 630.7813,108.5 Q630.0781,108.5 629.4844,108.7813 Q628.9063,109.0625 628.4531,109.6875 Q628,110.3125 628,111.1719 L628,112.0938 Q628,113.125 628.8438,113.8125 Q629.6875,114.5 631.1875,114.5 Q632.0781,114.5 632.7031,114.2969 Q633.0625,114.1875 633.4688,113.8281 Q633.7344,113.625 633.875,113.5625 Q634.0156,113.5 634.1875,113.5 Q634.5156,113.5 634.75,113.7656 Q635,114.0156 635,114.375 Q635,114.7188 634.6563,115.125 Q634.1563,115.7188 633.3594,116.0469 Q632.3125,116.5 631.0313,116.5 Q629.5313,116.5 628.3281,115.9063 Q627.3594,115.4375 626.6719,114.4219 Q626,113.4063 626,112.2031 L626,111.1094 Q626,109.8594 626.5938,108.7656 Q627.2031,107.6719 628.25,107.0938 Q629.3125,106.5 630.5,106.5 Q631.2188,106.5 631.8438,106.75 Q632.4688,107 633,107.5 Z " fill="#000000"/><text fill="#000000" font-family="sans-serif" font-size="14" lengthAdjust="spacing" textLength="84" x="645" y="116.7285">ListOfArrivals</text><line style="stroke:#181818;stroke-width:0.5;" x1="617" x2="731" y1="127" y2="127"/></g><!--MD5=[950bab46f39ba9ae59885963abb53c18]
class Arrival--><g id="elem_Arrival"><rect codeLine="12" fill="#F1F1F1" height="40" id="Arrival" rx="2.5" ry="2.5" style="stroke:#181818;stroke-width:0.5;" width="72" x="385" y="95"/><ellipse cx="400" cy="111" fill="#ADD1B2" rx="11" ry="11" style="stroke:#181818;stroke-width:1.0;"/><path d="M402,107.5 Q402.2031,107 402.4375,106.75 Q402.6719,106.5 402.9375,106.5 Q403.4063,106.5 403.7031,106.7813 Q404,107.0625 404,107.7188 L404,109.2813 Q404,109.9375 403.7188,110.2188 Q403.4375,110.5 403,110.5 Q402.6094,110.5 402.3594,110.3281 Q402.1094,110.1563 402,109.7031 Q401.9531,109.3906 401.7813,109.2188 Q401.4688,108.8906 400.9063,108.7031 Q400.3438,108.5 399.7813,108.5 Q399.0781,108.5 398.4844,108.7813 Q397.9063,109.0625 397.4531,109.6875 Q397,110.3125 397,111.1719 L397,112.0938 Q397,113.125 397.8438,113.8125 Q398.6875,114.5 400.1875,114.5 Q401.0781,114.5 401.7031,114.2969 Q402.0625,114.1875 402.4688,113.8281 Q402.7344,113.625 402.875,113.5625 Q403.0156,113.5 403.1875,113.5 Q403.5156,113.5 403.75,113.7656 Q404,114.0156 404,114.375 Q404,114.7188 403.6563,115.125 Q403.1563,115.7188 402.3594,116.0469 Q401.3125,116.5 400.0313,116.5 Q398.5313,116.5 397.3281,115.9063 Q396.3594,115.4375 395.6719,114.4219 Q395,113.4063 395,112.2031 L395,111.1094 Q395,109.8594 395.5938,108.7656 Q396.2031,107.6719 397.25,107.0938 Q398.3125,106.5 399.5,106.5 Q400.2188,106.5 400.8438,106.75 Q401.4688,107 402,107.5 Z " fill="#000000"/><text fill="#000000" font-family="sans-serif" font-size="14" lengthAdjust="spacing" textLength="40" x="414" y="116.7285">Arrival</text><line style="stroke:#181818;stroke-width:0.5;" x1="386" x2="456" y1="127" y2="127"/></g><!--MD5=[7690a4971bd8576b261a40a0340b8203]
link Receptionist to SNSUser--><g id="link_Receptionist_SNSUser"><path codeLine="15" d="M117.22,64.32 C188.32,55.55 311.64,40.36 376.79,32.33 " fill="none" id="Receptionist-SNSUser" style="stroke:#181818;stroke-width:1.0;"/><polygon fill="#000000" points="187.9625,30.5642,178.6258,28.7537,179.3448,34.5874,187.9625,30.5642" style="stroke:#000000;stroke-width:1.0;"/><text fill="#000000" font-family="sans-serif" font-size="13" lengthAdjust="spacing" textLength="123" x="192" y="36.4951">registers the arrival of</text><text fill="#000000" font-family="sans-serif" font-size="13" lengthAdjust="spacing" textLength="7" x="125.1105" y="78.0161">1</text><text fill="#000000" font-family="sans-serif" font-size="13" lengthAdjust="spacing" textLength="5" x="364.0537" y="48.062">*</text></g><!--MD5=[24f82a13fe82ee63074bc80db6bef9fb]
link Receptionist to Arrival--><g id="link_Receptionist_Arrival"><path codeLine="16" d="M117.22,77.68 C191.34,86.82 322.22,102.95 384.78,110.66 " fill="none" id="Receptionist-Arrival" style="stroke:#181818;stroke-width:1.0;"/><polygon fill="#000000" points="224.4624,77.7875,215.8448,73.7641,215.1258,79.5978,224.4624,77.7875" style="stroke:#000000;stroke-width:1.0;"/><text fill="#000000" font-family="sans-serif" font-size="13" lengthAdjust="spacing" textLength="50" x="228.5" y="82.4951">registers</text><text fill="#000000" font-family="sans-serif" font-size="13" lengthAdjust="spacing" textLength="7" x="125.1105" y="93.1714">1</text><text fill="#000000" font-family="sans-serif" font-size="13" lengthAdjust="spacing" textLength="5" x="371.794" y="124.9462">*</text></g><!--MD5=[c3cc58c36f0b60d9e076b137d05f4fd6]
link Arrival to ListOfArrivals--><g id="link_Arrival_ListOfArrivals"><path codeLine="17" d="M457.16,115 C498.32,115 567.03,115 615.87,115 " fill="none" id="Arrival-ListOfArrivals" style="stroke:#181818;stroke-width:1.0;"/><polygon fill="#000000" points="505,106.1758,495.9549,103.2369,495.9549,109.1147,505,106.1758" style="stroke:#000000;stroke-width:1.0;"/><text fill="#000000" font-family="sans-serif" font-size="13" lengthAdjust="spacing" textLength="76" x="509" y="111.4951">are stored on</text><text fill="#000000" font-family="sans-serif" font-size="13" lengthAdjust="spacing" textLength="5" x="465.1336" y="130.1814">*</text><text fill="#000000" font-family="sans-serif" font-size="13" lengthAdjust="spacing" textLength="7" x="600.9737" y="129.5426">1</text></g><!--MD5=[22019df40ac5940485353e39a8d91497]
@startuml
hide methods
left to right direction
skinparam classAttributeIconSize 0


class Receptionist

class SNSUser

class ListOfArrivals

class Arrival


Receptionist "1" - - - "*" SNSUser : registers the arrival of >
Receptionist "1" - - - "*" Arrival : registers >
Arrival "*" - - "1" ListOfArrivals : are stored on >


@enduml

PlantUML version 1.2022.5(Sat Apr 30 11:55:52 BST 2022)
(GPL source distribution)
Java Runtime: OpenJDK Runtime Environment
JVM: OpenJDK 64-Bit Server VM
Default Encoding: Cp1252
Language: pt
Country: PT
--></g></svg>