<?xml version="1.0" encoding="UTF-8" standalone="no"?><svg xmlns="http://www.w3.org/2000/svg" xmlns:xlink="http://www.w3.org/1999/xlink" contentScriptType="application/ecmascript" contentStyleType="text/css" height="559px" preserveAspectRatio="none" style="width:940px;height:559px;background:#FFFFFF;" version="1.1" viewBox="0 0 940 559" width="940px" zoomAndPan="magnify"><defs><filter height="300%" id="f1i70p22mqhwep" width="300%" x="-1" y="-1"><feGaussianBlur result="blurOut" stdDeviation="2.0"/><feColorMatrix in="blurOut" result="blurOut2" type="matrix" values="0 0 0 0 0 0 0 0 0 0 0 0 0 0 0 0 0 0 .4 0"/><feOffset dx="4.0" dy="4.0" in="blurOut2" result="blurOut3"/><feBlend in="SourceGraphic" in2="blurOut3" mode="normal"/></filter></defs><g><rect fill="#FFFFFF" filter="url(#f1i70p22mqhwep)" height="356.2188" style="stroke:#A80036;stroke-width:1.0;" width="10" x="42" y="99.6094"/><rect fill="#FFFFFF" filter="url(#f1i70p22mqhwep)" height="30.3516" style="stroke:#A80036;stroke-width:1.0;" width="10" x="370" y="121.9609"/><rect fill="#FFFFFF" filter="url(#f1i70p22mqhwep)" height="121.4063" style="stroke:#A80036;stroke-width:1.0;" width="10" x="370" y="182.6641"/><rect fill="#FFFFFF" filter="url(#f1i70p22mqhwep)" height="121.4063" style="stroke:#A80036;stroke-width:1.0;" width="10" x="370" y="334.4219"/><rect fill="#FFFFFF" filter="url(#f1i70p22mqhwep)" height="91.0547" style="stroke:#A80036;stroke-width:1.0;" width="10" x="627" y="213.0156"/><rect fill="#FFFFFF" filter="url(#f1i70p22mqhwep)" height="91.0547" style="stroke:#A80036;stroke-width:1.0;" width="10" x="627" y="364.7734"/><rect fill="#FFFFFF" filter="url(#f1i70p22mqhwep)" height="60.7031" style="stroke:#A80036;stroke-width:1.0;" width="10" x="884" y="243.3672"/><rect fill="#FFFFFF" filter="url(#f1i70p22mqhwep)" height="60.7031" style="stroke:#A80036;stroke-width:1.0;" width="10" x="884" y="395.125"/><line style="stroke:#A80036;stroke-width:1.0;stroke-dasharray:5.0,5.0;" x1="47" x2="47" y1="89.6094" y2="473.8281"/><line style="stroke:#A80036;stroke-width:1.0;stroke-dasharray:5.0,5.0;" x1="374.5" x2="374.5" y1="89.6094" y2="473.8281"/><line style="stroke:#A80036;stroke-width:1.0;stroke-dasharray:5.0,5.0;" x1="631.5" x2="631.5" y1="89.6094" y2="473.8281"/><line style="stroke:#A80036;stroke-width:1.0;stroke-dasharray:5.0,5.0;" x1="889" x2="889" y1="89.6094" y2="473.8281"/><text fill="#000000" font-family="sans-serif" font-size="14" lengthAdjust="spacing" textLength="78" x="5" y="86.5332">Receptionist</text><ellipse cx="47" cy="15" fill="#FEFECE" filter="url(#f1i70p22mqhwep)" rx="8" ry="8" style="stroke:#A80036;stroke-width:2.0;"/><path d="M47,23 L47,50 M34,31 L60,31 M47,50 L34,65 M47,50 L60,65 " fill="none" filter="url(#f1i70p22mqhwep)" style="stroke:#A80036;stroke-width:2.0;"/><text fill="#000000" font-family="sans-serif" font-size="14" lengthAdjust="spacing" textLength="78" x="5" y="487.3613">Receptionist</text><ellipse cx="47" cy="500.4375" fill="#FEFECE" filter="url(#f1i70p22mqhwep)" rx="8" ry="8" style="stroke:#A80036;stroke-width:2.0;"/><path d="M47,508.4375 L47,535.4375 M34,516.4375 L60,516.4375 M47,535.4375 L34,550.4375 M47,535.4375 L60,550.4375 " fill="none" filter="url(#f1i70p22mqhwep)" style="stroke:#A80036;stroke-width:2.0;"/><rect fill="#FEFECE" filter="url(#f1i70p22mqhwep)" height="31.6094" style="stroke:#A80036;stroke-width:1.5;" width="203" x="271.5" y="53"/><text fill="#000000" font-family="sans-serif" font-size="14" lengthAdjust="spacing" textLength="189" x="278.5" y="74.5332">:RegisterArrivalOfASNSUserUI</text><rect fill="#FEFECE" filter="url(#f1i70p22mqhwep)" height="31.6094" style="stroke:#A80036;stroke-width:1.5;" width="203" x="271.5" y="472.8281"/><text fill="#000000" font-family="sans-serif" font-size="14" lengthAdjust="spacing" textLength="189" x="278.5" y="494.3613">:RegisterArrivalOfASNSUserUI</text><rect fill="#FEFECE" filter="url(#f1i70p22mqhwep)" height="31.6094" style="stroke:#A80036;stroke-width:1.5;" width="253" x="503.5" y="53"/><text fill="#000000" font-family="sans-serif" font-size="14" lengthAdjust="spacing" textLength="239" x="510.5" y="74.5332">:RegisterArrivalOfASNSUserController</text><rect fill="#FEFECE" filter="url(#f1i70p22mqhwep)" height="31.6094" style="stroke:#A80036;stroke-width:1.5;" width="253" x="503.5" y="472.8281"/><text fill="#000000" font-family="sans-serif" font-size="14" lengthAdjust="spacing" textLength="239" x="510.5" y="494.3613">:RegisterArrivalOfASNSUserController</text><rect fill="#FEFECE" filter="url(#f1i70p22mqhwep)" height="31.6094" style="stroke:#A80036;stroke-width:1.5;" width="78" x="848" y="53"/><text fill="#000000" font-family="sans-serif" font-size="14" lengthAdjust="spacing" textLength="64" x="855" y="74.5332">:Company</text><rect fill="#FEFECE" filter="url(#f1i70p22mqhwep)" height="31.6094" style="stroke:#A80036;stroke-width:1.5;" width="78" x="848" y="472.8281"/><text fill="#000000" font-family="sans-serif" font-size="14" lengthAdjust="spacing" textLength="64" x="855" y="494.3613">:Company</text><rect fill="#FFFFFF" filter="url(#f1i70p22mqhwep)" height="356.2188" style="stroke:#A80036;stroke-width:1.0;" width="10" x="42" y="99.6094"/><rect fill="#FFFFFF" filter="url(#f1i70p22mqhwep)" height="30.3516" style="stroke:#A80036;stroke-width:1.0;" width="10" x="370" y="121.9609"/><rect fill="#FFFFFF" filter="url(#f1i70p22mqhwep)" height="121.4063" style="stroke:#A80036;stroke-width:1.0;" width="10" x="370" y="182.6641"/><rect fill="#FFFFFF" filter="url(#f1i70p22mqhwep)" height="121.4063" style="stroke:#A80036;stroke-width:1.0;" width="10" x="370" y="334.4219"/><rect fill="#FFFFFF" filter="url(#f1i70p22mqhwep)" height="91.0547" style="stroke:#A80036;stroke-width:1.0;" width="10" x="627" y="213.0156"/><rect fill="#FFFFFF" filter="url(#f1i70p22mqhwep)" height="91.0547" style="stroke:#A80036;stroke-width:1.0;" width="10" x="627" y="364.7734"/><rect fill="#FFFFFF" filter="url(#f1i70p22mqhwep)" height="60.7031" style="stroke:#A80036;stroke-width:1.0;" width="10" x="884" y="243.3672"/><rect fill="#FFFFFF" filter="url(#f1i70p22mqhwep)" height="60.7031" style="stroke:#A80036;stroke-width:1.0;" width="10" x="884" y="395.125"/><polygon fill="#A80036" points="358,117.9609,368,121.9609,358,125.9609,362,121.9609" style="stroke:#A80036;stroke-width:1.0;"/><line style="stroke:#A80036;stroke-width:1.0;" x1="52" x2="364" y1="121.9609" y2="121.9609"/><text fill="#000000" font-family="sans-serif" font-size="13" font-weight="bold" lengthAdjust="spacing" textLength="7" x="59" y="117.1045">1</text><text fill="#000000" font-family="sans-serif" font-size="13" lengthAdjust="spacing" textLength="288" x="70" y="117.1045">asks to check if an SNS user has an appointment</text><polygon fill="#A80036" points="63,148.3125,53,152.3125,63,156.3125,59,152.3125" style="stroke:#A80036;stroke-width:1.0;"/><line style="stroke:#A80036;stroke-width:1.0;stroke-dasharray:2.0,2.0;" x1="57" x2="374" y1="152.3125" y2="152.3125"/><text fill="#000000" font-family="sans-serif" font-size="13" font-weight="bold" lengthAdjust="spacing" textLength="7" x="69" y="147.4561">2</text><text fill="#000000" font-family="sans-serif" font-size="13" lengthAdjust="spacing" textLength="165" x="80" y="147.4561">requests data (SNS number)</text><polygon fill="#A80036" points="358,178.6641,368,182.6641,358,186.6641,362,182.6641" style="stroke:#A80036;stroke-width:1.0;"/><line style="stroke:#A80036;stroke-width:1.0;" x1="52" x2="364" y1="182.6641" y2="182.6641"/><text fill="#000000" font-family="sans-serif" font-size="13" font-weight="bold" lengthAdjust="spacing" textLength="7" x="59" y="177.8076">3</text><text fill="#000000" font-family="sans-serif" font-size="13" lengthAdjust="spacing" textLength="122" x="70" y="177.8076">types requested data</text><polygon fill="#A80036" points="615,209.0156,625,213.0156,615,217.0156,619,213.0156" style="stroke:#A80036;stroke-width:1.0;"/><line style="stroke:#A80036;stroke-width:1.0;" x1="380" x2="621" y1="213.0156" y2="213.0156"/><text fill="#000000" font-family="sans-serif" font-size="13" font-weight="bold" lengthAdjust="spacing" textLength="7" x="387" y="208.1592">4</text><text fill="#000000" font-family="sans-serif" font-size="13" lengthAdjust="spacing" textLength="217" x="398" y="208.1592">checkUserAppointment(SNS number)</text><polygon fill="#A80036" points="872,239.3672,882,243.3672,872,247.3672,876,243.3672" style="stroke:#A80036;stroke-width:1.0;"/><line style="stroke:#A80036;stroke-width:1.0;" x1="637" x2="878" y1="243.3672" y2="243.3672"/><text fill="#000000" font-family="sans-serif" font-size="13" font-weight="bold" lengthAdjust="spacing" textLength="7" x="644" y="238.5107">5</text><text fill="#000000" font-family="sans-serif" font-size="13" lengthAdjust="spacing" textLength="217" x="655" y="238.5107">checkUserAppointment(SNS number)</text><polygon fill="#A80036" points="391,269.7188,381,273.7188,391,277.7188,387,273.7188" style="stroke:#A80036;stroke-width:1.0;"/><line style="stroke:#A80036;stroke-width:1.0;stroke-dasharray:2.0,2.0;" x1="385" x2="626" y1="273.7188" y2="273.7188"/><text fill="#000000" font-family="sans-serif" font-size="13" font-weight="bold" lengthAdjust="spacing" textLength="7" x="397" y="268.8623">6</text><text fill="#000000" font-family="sans-serif" font-size="13" lengthAdjust="spacing" textLength="32" x="408" y="268.8623">result</text><polygon fill="#A80036" points="63,300.0703,53,304.0703,63,308.0703,59,304.0703" style="stroke:#A80036;stroke-width:1.0;"/><line style="stroke:#A80036;stroke-width:1.0;stroke-dasharray:2.0,2.0;" x1="57" x2="374" y1="304.0703" y2="304.0703"/><text fill="#000000" font-family="sans-serif" font-size="13" font-weight="bold" lengthAdjust="spacing" textLength="7" x="69" y="299.2139">7</text><text fill="#000000" font-family="sans-serif" font-size="13" lengthAdjust="spacing" textLength="95" x="80" y="299.2139">shows the result</text><polygon fill="#A80036" points="358,330.4219,368,334.4219,358,338.4219,362,334.4219" style="stroke:#A80036;stroke-width:1.0;"/><line style="stroke:#A80036;stroke-width:1.0;" x1="52" x2="364" y1="334.4219" y2="334.4219"/><text fill="#000000" font-family="sans-serif" font-size="13" font-weight="bold" lengthAdjust="spacing" textLength="7" x="59" y="329.5654">8</text><text fill="#000000" font-family="sans-serif" font-size="13" lengthAdjust="spacing" textLength="248" x="70" y="329.5654">registers the arrival depending on the result</text><polygon fill="#A80036" points="615,360.7734,625,364.7734,615,368.7734,619,364.7734" style="stroke:#A80036;stroke-width:1.0;"/><line style="stroke:#A80036;stroke-width:1.0;" x1="380" x2="621" y1="364.7734" y2="364.7734"/><text fill="#000000" font-family="sans-serif" font-size="13" font-weight="bold" lengthAdjust="spacing" textLength="7" x="387" y="359.917">9</text><text fill="#000000" font-family="sans-serif" font-size="13" lengthAdjust="spacing" textLength="160" x="398" y="359.917">registerArrival(SNS number)</text><polygon fill="#A80036" points="872,391.125,882,395.125,872,399.125,876,395.125" style="stroke:#A80036;stroke-width:1.0;"/><line style="stroke:#A80036;stroke-width:1.0;" x1="637" x2="878" y1="395.125" y2="395.125"/><text fill="#000000" font-family="sans-serif" font-size="13" font-weight="bold" lengthAdjust="spacing" textLength="14" x="644" y="390.2686">10</text><text fill="#000000" font-family="sans-serif" font-size="13" lengthAdjust="spacing" textLength="160" x="662" y="390.2686">registerArrival(SNS number)</text><polygon fill="#A80036" points="391,421.4766,381,425.4766,391,429.4766,387,425.4766" style="stroke:#A80036;stroke-width:1.0;"/><line style="stroke:#A80036;stroke-width:1.0;stroke-dasharray:2.0,2.0;" x1="385" x2="626" y1="425.4766" y2="425.4766"/><text fill="#000000" font-family="sans-serif" font-size="13" font-weight="bold" lengthAdjust="spacing" textLength="14" x="397" y="420.6201">11</text><text fill="#000000" font-family="sans-serif" font-size="13" lengthAdjust="spacing" textLength="32" x="415" y="420.6201">result</text><polygon fill="#A80036" points="58,451.8281,48,455.8281,58,459.8281,54,455.8281" style="stroke:#A80036;stroke-width:1.0;"/><line style="stroke:#A80036;stroke-width:1.0;stroke-dasharray:2.0,2.0;" x1="52" x2="374" y1="455.8281" y2="455.8281"/><text fill="#000000" font-family="sans-serif" font-size="13" font-weight="bold" lengthAdjust="spacing" textLength="14" x="64" y="450.9717">12</text><text fill="#000000" font-family="sans-serif" font-size="13" lengthAdjust="spacing" textLength="152" x="82" y="450.9717">informs operation success</text><!--MD5=[f30ba4fb614af0e3281f4d3b31ae709d]
@startuml
autonumber

actor "Receptionist" as R

participant ":RegisterArrivalOfASNSUserUI" as UI
participant ":RegisterArrivalOfASNSUserController" as CTRL
participant ":Company" as C

activate R

R -> UI : asks to check if an SNS user has an appointment
activate UI

UI - -> R : requests data (SNS number)
deactivate UI

R -> UI : types requested data
activate UI

UI -> CTRL : checkUserAppointment(SNS number)
activate CTRL

CTRL -> C : checkUserAppointment(SNS number)
activate C

CTRL - -> UI : result

UI - -> R: shows the result

deactivate C
deactivate CTRL
deactivate UI


R -> UI : registers the arrival depending on the result
activate UI

UI -> CTRL : registerArrival(SNS number)
activate CTRL

CTRL -> C : registerArrival(SNS number)
activate C




CTRL - -> UI: result

UI - -> R : informs operation success

deactivate C
deactivate CTRL
deactivate UI
deactivate R


@enduml

PlantUML version 1.2022.1(Tue Feb 01 18:19:58 GMT 2022)
(GPL source distribution)
Java Runtime: OpenJDK Runtime Environment
JVM: OpenJDK 64-Bit Server VM
Default Encoding: Cp1252
Language: pt
Country: PT
--></g></svg>