<?xml version="1.0" encoding="UTF-8" standalone="no"?><svg xmlns="http://www.w3.org/2000/svg" xmlns:xlink="http://www.w3.org/1999/xlink" contentScriptType="application/ecmascript" contentStyleType="text/css" height="149px" preserveAspectRatio="none" style="width:487px;height:149px;background:#FFFFFF;" version="1.1" viewBox="0 0 487 149" width="487px" zoomAndPan="magnify"><defs><filter height="300%" id="f4rxb588jlsbs" width="300%" x="-1" y="-1"><feGaussianBlur result="blurOut" stdDeviation="2.0"/><feColorMatrix in="blurOut" result="blurOut2" type="matrix" values="0 0 0 0 0 0 0 0 0 0 0 0 0 0 0 0 0 0 .4 0"/><feOffset dx="4.0" dy="4.0" in="blurOut2" result="blurOut3"/><feBlend in="SourceGraphic" in2="blurOut3" mode="normal"/></filter></defs><g><!--MD5=[700854c210c3cecca79f0f1f272247cb]
class Receptinist--><rect codeLine="6" fill="#FEFECE" filter="url(#f4rxb588jlsbs)" height="40" id="Receptinist" style="stroke:#A80036;stroke-width:1.5;" width="94" x="7" y="51"/><ellipse cx="22" cy="67" fill="#ADD1B2" rx="11" ry="11" style="stroke:#A80036;stroke-width:1.0;"/><path d="M24,63.5 Q24.2031,63 24.4375,62.75 Q24.6719,62.5 24.9375,62.5 Q25.4063,62.5 25.7031,62.7813 Q26,63.0625 26,63.7188 L26,65.2813 Q26,65.9375 25.7188,66.2188 Q25.4375,66.5 25,66.5 Q24.6094,66.5 24.3594,66.3281 Q24.1094,66.1563 24,65.7031 Q23.9531,65.3906 23.7813,65.2188 Q23.4688,64.8906 22.9063,64.7031 Q22.3438,64.5 21.7813,64.5 Q21.0781,64.5 20.4844,64.7813 Q19.9063,65.0625 19.4531,65.6875 Q19,66.3125 19,67.1719 L19,68.0938 Q19,69.125 19.8438,69.8125 Q20.6875,70.5 22.1875,70.5 Q23.0781,70.5 23.7031,70.2969 Q24.0625,70.1875 24.4688,69.8281 Q24.7344,69.625 24.875,69.5625 Q25.0156,69.5 25.1875,69.5 Q25.5156,69.5 25.75,69.7656 Q26,70.0156 26,70.375 Q26,70.7188 25.6563,71.125 Q25.1563,71.7188 24.3594,72.0469 Q23.3125,72.5 22.0313,72.5 Q20.5313,72.5 19.3281,71.9063 Q18.3594,71.4375 17.6719,70.4219 Q17,69.4063 17,68.2031 L17,67.1094 Q17,65.8594 17.5938,64.7656 Q18.2031,63.6719 19.25,63.0938 Q20.3125,62.5 21.5,62.5 Q22.2188,62.5 22.8438,62.75 Q23.4688,63 24,63.5 Z " fill="#000000"/><text fill="#000000" font-family="sans-serif" font-size="12" lengthAdjust="spacing" textLength="62" x="36" y="71.9102">Receptinist</text><line style="stroke:#A80036;stroke-width:1.5;" x1="8" x2="100" y1="83" y2="83"/><!--MD5=[72be06cc7ae02ccc98efe28a50e62246]
class SNSUser--><rect codeLine="8" fill="#FEFECE" filter="url(#f4rxb588jlsbs)" height="40" id="SNSUser" style="stroke:#A80036;stroke-width:1.5;" width="84" x="379" y="7"/><ellipse cx="394" cy="23" fill="#ADD1B2" rx="11" ry="11" style="stroke:#A80036;stroke-width:1.0;"/><path d="M396,19.5 Q396.2031,19 396.4375,18.75 Q396.6719,18.5 396.9375,18.5 Q397.4063,18.5 397.7031,18.7813 Q398,19.0625 398,19.7188 L398,21.2813 Q398,21.9375 397.7188,22.2188 Q397.4375,22.5 397,22.5 Q396.6094,22.5 396.3594,22.3281 Q396.1094,22.1563 396,21.7031 Q395.9531,21.3906 395.7813,21.2188 Q395.4688,20.8906 394.9063,20.7031 Q394.3438,20.5 393.7813,20.5 Q393.0781,20.5 392.4844,20.7813 Q391.9063,21.0625 391.4531,21.6875 Q391,22.3125 391,23.1719 L391,24.0938 Q391,25.125 391.8438,25.8125 Q392.6875,26.5 394.1875,26.5 Q395.0781,26.5 395.7031,26.2969 Q396.0625,26.1875 396.4688,25.8281 Q396.7344,25.625 396.875,25.5625 Q397.0156,25.5 397.1875,25.5 Q397.5156,25.5 397.75,25.7656 Q398,26.0156 398,26.375 Q398,26.7188 397.6563,27.125 Q397.1563,27.7188 396.3594,28.0469 Q395.3125,28.5 394.0313,28.5 Q392.5313,28.5 391.3281,27.9063 Q390.3594,27.4375 389.6719,26.4219 Q389,25.4063 389,24.2031 L389,23.1094 Q389,21.8594 389.5938,20.7656 Q390.2031,19.6719 391.25,19.0938 Q392.3125,18.5 393.5,18.5 Q394.2188,18.5 394.8438,18.75 Q395.4688,19 396,19.5 Z " fill="#000000"/><text fill="#000000" font-family="sans-serif" font-size="12" lengthAdjust="spacing" textLength="52" x="408" y="27.9102">SNSUser</text><line style="stroke:#A80036;stroke-width:1.5;" x1="380" x2="462" y1="39" y2="39"/><!--MD5=[04b51d1e29fe1f4d3ca80d37e8801119]
class ListOfArrivals--><rect codeLine="10" fill="#FEFECE" filter="url(#f4rxb588jlsbs)" height="40" id="ListOfArrivals" style="stroke:#A80036;stroke-width:1.5;" width="104" x="369" y="95"/><ellipse cx="384" cy="111" fill="#ADD1B2" rx="11" ry="11" style="stroke:#A80036;stroke-width:1.0;"/><path d="M386,107.5 Q386.2031,107 386.4375,106.75 Q386.6719,106.5 386.9375,106.5 Q387.4063,106.5 387.7031,106.7813 Q388,107.0625 388,107.7188 L388,109.2813 Q388,109.9375 387.7188,110.2188 Q387.4375,110.5 387,110.5 Q386.6094,110.5 386.3594,110.3281 Q386.1094,110.1563 386,109.7031 Q385.9531,109.3906 385.7813,109.2188 Q385.4688,108.8906 384.9063,108.7031 Q384.3438,108.5 383.7813,108.5 Q383.0781,108.5 382.4844,108.7813 Q381.9063,109.0625 381.4531,109.6875 Q381,110.3125 381,111.1719 L381,112.0938 Q381,113.125 381.8438,113.8125 Q382.6875,114.5 384.1875,114.5 Q385.0781,114.5 385.7031,114.2969 Q386.0625,114.1875 386.4688,113.8281 Q386.7344,113.625 386.875,113.5625 Q387.0156,113.5 387.1875,113.5 Q387.5156,113.5 387.75,113.7656 Q388,114.0156 388,114.375 Q388,114.7188 387.6563,115.125 Q387.1563,115.7188 386.3594,116.0469 Q385.3125,116.5 384.0313,116.5 Q382.5313,116.5 381.3281,115.9063 Q380.3594,115.4375 379.6719,114.4219 Q379,113.4063 379,112.2031 L379,111.1094 Q379,109.8594 379.5938,108.7656 Q380.2031,107.6719 381.25,107.0938 Q382.3125,106.5 383.5,106.5 Q384.2188,106.5 384.8438,106.75 Q385.4688,107 386,107.5 Z " fill="#000000"/><text fill="#000000" font-family="sans-serif" font-size="12" lengthAdjust="spacing" textLength="72" x="398" y="115.9102">ListOfArrivals</text><line style="stroke:#A80036;stroke-width:1.5;" x1="370" x2="472" y1="127" y2="127"/><!--MD5=[6d09737ca3868f3fc6950a0bce358124]
link Receptinist to SNSUser--><path codeLine="13" d="M101.23,65.43 C173.07,56.77 310.36,40.22 378.92,31.95 " fill="none" id="Receptinist-SNSUser" style="stroke:#A80036;stroke-width:1.0;"/><polygon fill="#000000" points="175.9641,31.5773,166.6322,29.7422,167.3358,35.5778,175.9641,31.5773" style="stroke:#000000;stroke-width:1.0;"/><text fill="#000000" font-family="sans-serif" font-size="13" lengthAdjust="spacing" textLength="123" x="180" y="37.4951">registers the arrival of</text><!--MD5=[9f089cd2566eb75ca0d5b49d7ca2e2a5]
link Receptinist to ListOfArrivals--><path codeLine="14" d="M101.08,76.61 C119.96,78.91 142.03,81.59 162,84 C233.66,92.66 316.53,102.6 368.6,108.84 " fill="none" id="Receptinist-ListOfArrivals" style="stroke:#A80036;stroke-width:1.0;"/><polygon fill="#000000" points="171.9641,75.7738,163.3355,71.7741,162.6324,77.6098,171.9641,75.7738" style="stroke:#000000;stroke-width:1.0;"/><text fill="#000000" font-family="sans-serif" font-size="13" lengthAdjust="spacing" textLength="131" x="176" y="80.4951">stores the arrivals on a</text><!--MD5=[fffc1e84507a1ffb052589fca067aa44]
@startuml
hide methods
left to right direction
skinparam classAttributeIconSize 0


class Receptinist

class SNSUser

class ListOfArrivals


Receptinist - - - SNSUser : registers the arrival of >
Receptinist - - - ListOfArrivals : stores the arrivals on a >



@enduml

PlantUML version 1.2022.1(Tue Feb 01 18:19:58 GMT 2022)
(GPL source distribution)
Java Runtime: OpenJDK Runtime Environment
JVM: OpenJDK 64-Bit Server VM
Default Encoding: Cp1252
Language: pt
Country: PT
--></g></svg>