<?xml version="1.0" encoding="UTF-8" standalone="no"?><svg xmlns="http://www.w3.org/2000/svg" xmlns:xlink="http://www.w3.org/1999/xlink" contentScriptType="application/ecmascript" contentStyleType="text/css" height="304px" preserveAspectRatio="none" style="width:933px;height:304px;background:#FFFFFF;" version="1.1" viewBox="0 0 933 304" width="933px" zoomAndPan="magnify"><defs><filter height="300%" id="f1rk7jahoccq8b" width="300%" x="-1" y="-1"><feGaussianBlur result="blurOut" stdDeviation="2.0"/><feColorMatrix in="blurOut" result="blurOut2" type="matrix" values="0 0 0 0 0 0 0 0 0 0 0 0 0 0 0 0 0 0 .4 0"/><feOffset dx="4.0" dy="4.0" in="blurOut2" result="blurOut3"/><feBlend in="SourceGraphic" in2="blurOut3" mode="normal"/></filter></defs><g><!--MD5=[02e4b9b7573f1156f41e60aa5b4e25a4]
class Company--><rect codeLine="5" fill="#FEFECE" filter="url(#f1rk7jahoccq8b)" height="61.8359" id="Company" style="stroke:#A80036;stroke-width:1.5;" width="345" x="47.5" y="229"/><ellipse cx="189.25" cy="245" fill="#ADD1B2" rx="11" ry="11" style="stroke:#A80036;stroke-width:1.0;"/><path d="M191.25,241.5 Q191.4531,241 191.6875,240.75 Q191.9219,240.5 192.1875,240.5 Q192.6563,240.5 192.9531,240.7813 Q193.25,241.0625 193.25,241.7188 L193.25,243.2813 Q193.25,243.9375 192.9688,244.2188 Q192.6875,244.5 192.25,244.5 Q191.8594,244.5 191.6094,244.3281 Q191.3594,244.1563 191.25,243.7031 Q191.2031,243.3906 191.0313,243.2188 Q190.7188,242.8906 190.1563,242.7031 Q189.5938,242.5 189.0313,242.5 Q188.3281,242.5 187.7344,242.7813 Q187.1563,243.0625 186.7031,243.6875 Q186.25,244.3125 186.25,245.1719 L186.25,246.0938 Q186.25,247.125 187.0938,247.8125 Q187.9375,248.5 189.4375,248.5 Q190.3281,248.5 190.9531,248.2969 Q191.3125,248.1875 191.7188,247.8281 Q191.9844,247.625 192.125,247.5625 Q192.2656,247.5 192.4375,247.5 Q192.7656,247.5 193,247.7656 Q193.25,248.0156 193.25,248.375 Q193.25,248.7188 192.9063,249.125 Q192.4063,249.7188 191.6094,250.0469 Q190.5625,250.5 189.2813,250.5 Q187.7813,250.5 186.5781,249.9063 Q185.6094,249.4375 184.9219,248.4219 Q184.25,247.4063 184.25,246.2031 L184.25,245.1094 Q184.25,243.8594 184.8438,242.7656 Q185.4531,241.6719 186.5,241.0938 Q187.5625,240.5 188.75,240.5 Q189.4688,240.5 190.0938,240.75 Q190.7188,241 191.25,241.5 Z " fill="#000000"/><text fill="#000000" font-family="sans-serif" font-size="12" lengthAdjust="spacing" textLength="53" x="209.75" y="249.9102">Company</text><line style="stroke:#A80036;stroke-width:1.5;" x1="48.5" x2="391.5" y1="261" y2="261"/><line style="stroke:#A80036;stroke-width:1.5;" x1="48.5" x2="391.5" y1="269" y2="269"/><text fill="#000000" font-family="sans-serif" font-size="11" lengthAdjust="spacing" textLength="333" x="53.5" y="284.4189">+registerArrival(Arrival arrival, VaccinationCenter vaccinationCenter)</text><!--MD5=[b854a15348c14bf8d2de44e62ca1ae6c]
class RegisterArrivalOfSNSUserUI--><rect codeLine="10" fill="#FEFECE" filter="url(#f1rk7jahoccq8b)" height="48" id="RegisterArrivalOfSNSUserUI" style="stroke:#A80036;stroke-width:1.5;" width="188" x="126" y="7"/><ellipse cx="141" cy="23" fill="#ADD1B2" rx="11" ry="11" style="stroke:#A80036;stroke-width:1.0;"/><path d="M143,19.5 Q143.2031,19 143.4375,18.75 Q143.6719,18.5 143.9375,18.5 Q144.4063,18.5 144.7031,18.7813 Q145,19.0625 145,19.7188 L145,21.2813 Q145,21.9375 144.7188,22.2188 Q144.4375,22.5 144,22.5 Q143.6094,22.5 143.3594,22.3281 Q143.1094,22.1563 143,21.7031 Q142.9531,21.3906 142.7813,21.2188 Q142.4688,20.8906 141.9063,20.7031 Q141.3438,20.5 140.7813,20.5 Q140.0781,20.5 139.4844,20.7813 Q138.9063,21.0625 138.4531,21.6875 Q138,22.3125 138,23.1719 L138,24.0938 Q138,25.125 138.8438,25.8125 Q139.6875,26.5 141.1875,26.5 Q142.0781,26.5 142.7031,26.2969 Q143.0625,26.1875 143.4688,25.8281 Q143.7344,25.625 143.875,25.5625 Q144.0156,25.5 144.1875,25.5 Q144.5156,25.5 144.75,25.7656 Q145,26.0156 145,26.375 Q145,26.7188 144.6563,27.125 Q144.1563,27.7188 143.3594,28.0469 Q142.3125,28.5 141.0313,28.5 Q139.5313,28.5 138.3281,27.9063 Q137.3594,27.4375 136.6719,26.4219 Q136,25.4063 136,24.2031 L136,23.1094 Q136,21.8594 136.5938,20.7656 Q137.2031,19.6719 138.25,19.0938 Q139.3125,18.5 140.5,18.5 Q141.2188,18.5 141.8438,18.75 Q142.4688,19 143,19.5 Z " fill="#000000"/><text fill="#000000" font-family="sans-serif" font-size="12" lengthAdjust="spacing" textLength="156" x="155" y="27.9102">RegisterArrivalOfSNSUserUI</text><line style="stroke:#A80036;stroke-width:1.5;" x1="127" x2="313" y1="39" y2="39"/><line style="stroke:#A80036;stroke-width:1.5;" x1="127" x2="313" y1="47" y2="47"/><!--MD5=[7596083637d10a9733a3a3b1fb1a72db]
class RegisterArrivalOfSNSUserController--><rect codeLine="12" fill="#FEFECE" filter="url(#f1rk7jahoccq8b)" height="103.3438" id="RegisterArrivalOfSNSUserController" style="stroke:#A80036;stroke-width:1.5;" width="426" x="7" y="90.5"/><ellipse cx="116.75" cy="106.5" fill="#ADD1B2" rx="11" ry="11" style="stroke:#A80036;stroke-width:1.0;"/><path d="M118.75,103 Q118.9531,102.5 119.1875,102.25 Q119.4219,102 119.6875,102 Q120.1563,102 120.4531,102.2813 Q120.75,102.5625 120.75,103.2188 L120.75,104.7813 Q120.75,105.4375 120.4688,105.7188 Q120.1875,106 119.75,106 Q119.3594,106 119.1094,105.8281 Q118.8594,105.6563 118.75,105.2031 Q118.7031,104.8906 118.5313,104.7188 Q118.2188,104.3906 117.6563,104.2031 Q117.0938,104 116.5313,104 Q115.8281,104 115.2344,104.2813 Q114.6563,104.5625 114.2031,105.1875 Q113.75,105.8125 113.75,106.6719 L113.75,107.5938 Q113.75,108.625 114.5938,109.3125 Q115.4375,110 116.9375,110 Q117.8281,110 118.4531,109.7969 Q118.8125,109.6875 119.2188,109.3281 Q119.4844,109.125 119.625,109.0625 Q119.7656,109 119.9375,109 Q120.2656,109 120.5,109.2656 Q120.75,109.5156 120.75,109.875 Q120.75,110.2188 120.4063,110.625 Q119.9063,111.2188 119.1094,111.5469 Q118.0625,112 116.7813,112 Q115.2813,112 114.0781,111.4063 Q113.1094,110.9375 112.4219,109.9219 Q111.75,108.9063 111.75,107.7031 L111.75,106.6094 Q111.75,105.3594 112.3438,104.2656 Q112.9531,103.1719 114,102.5938 Q115.0625,102 116.25,102 Q116.9688,102 117.5938,102.25 Q118.2188,102.5 118.75,103 Z " fill="#000000"/><text fill="#000000" font-family="sans-serif" font-size="12" lengthAdjust="spacing" textLength="198" x="137.25" y="111.4102">RegisterArrivalOfSNSUserController</text><line style="stroke:#A80036;stroke-width:1.5;" x1="8" x2="432" y1="122.5" y2="122.5"/><line style="stroke:#A80036;stroke-width:1.5;" x1="8" x2="432" y1="130.5" y2="130.5"/><text fill="#000000" font-family="sans-serif" font-size="11" lengthAdjust="spacing" textLength="354" x="13" y="145.9189">+checkRegistration(int snsNumber, VaccinationCenter vaccinationCenter)</text><text fill="#000000" font-family="sans-serif" font-size="11" lengthAdjust="spacing" textLength="414" x="13" y="159.7549">+getUserAppointment(int snsNumber, List&lt;ScheduledVaccine&gt; vaccineAppointments)</text><text fill="#000000" font-family="sans-serif" font-size="11" lengthAdjust="spacing" textLength="337" x="13" y="173.5908">+registerArrival(int snsNumber, VaccinationCenter vaccinationCenter)</text><text fill="#000000" font-family="sans-serif" font-size="11" lengthAdjust="spacing" textLength="333" x="13" y="187.4268">+checkDateAndTie(LocalDateTime date, LocalDateTime Day, int hour)</text><!--MD5=[950bab46f39ba9ae59885963abb53c18]
class Arrival--><rect codeLine="19" fill="#FEFECE" filter="url(#f1rk7jahoccq8b)" height="158.6875" id="Arrival" style="stroke:#A80036;stroke-width:1.5;" width="426" x="493" y="62.5"/><ellipse cx="685.25" cy="78.5" fill="#ADD1B2" rx="11" ry="11" style="stroke:#A80036;stroke-width:1.0;"/><path d="M687.25,75 Q687.4531,74.5 687.6875,74.25 Q687.9219,74 688.1875,74 Q688.6563,74 688.9531,74.2813 Q689.25,74.5625 689.25,75.2188 L689.25,76.7813 Q689.25,77.4375 688.9688,77.7188 Q688.6875,78 688.25,78 Q687.8594,78 687.6094,77.8281 Q687.3594,77.6563 687.25,77.2031 Q687.2031,76.8906 687.0313,76.7188 Q686.7188,76.3906 686.1563,76.2031 Q685.5938,76 685.0313,76 Q684.3281,76 683.7344,76.2813 Q683.1563,76.5625 682.7031,77.1875 Q682.25,77.8125 682.25,78.6719 L682.25,79.5938 Q682.25,80.625 683.0938,81.3125 Q683.9375,82 685.4375,82 Q686.3281,82 686.9531,81.7969 Q687.3125,81.6875 687.7188,81.3281 Q687.9844,81.125 688.125,81.0625 Q688.2656,81 688.4375,81 Q688.7656,81 689,81.2656 Q689.25,81.5156 689.25,81.875 Q689.25,82.2188 688.9063,82.625 Q688.4063,83.2188 687.6094,83.5469 Q686.5625,84 685.2813,84 Q683.7813,84 682.5781,83.4063 Q681.6094,82.9375 680.9219,81.9219 Q680.25,80.9063 680.25,79.7031 L680.25,78.6094 Q680.25,77.3594 680.8438,76.2656 Q681.4531,75.1719 682.5,74.5938 Q683.5625,74 684.75,74 Q685.4688,74 686.0938,74.25 Q686.7188,74.5 687.25,75 Z " fill="#000000"/><text fill="#000000" font-family="sans-serif" font-size="12" lengthAdjust="spacing" textLength="33" x="705.75" y="83.4102">Arrival</text><line style="stroke:#A80036;stroke-width:1.5;" x1="494" x2="918" y1="94.5" y2="94.5"/><text fill="#000000" font-family="sans-serif" font-size="11" lengthAdjust="spacing" textLength="73" x="499" y="109.9189">-int snsNumber</text><text fill="#000000" font-family="sans-serif" font-size="11" lengthAdjust="spacing" textLength="120" x="499" y="123.7549">-LocalDateTime dateTime</text><text fill="#000000" font-family="sans-serif" font-size="11" lengthAdjust="spacing" textLength="133" x="499" y="137.5908">-VaccineType vaccineType</text><line style="stroke:#A80036;stroke-width:1.5;" x1="494" x2="918" y1="144.0078" y2="144.0078"/><text fill="#000000" font-family="sans-serif" font-size="11" lengthAdjust="spacing" textLength="414" x="499" y="159.4268">+getUserAppointment(int snsNumber, List&lt;ScheduledVaccine&gt; vaccineAppointments)</text><text fill="#000000" font-family="sans-serif" font-size="11" lengthAdjust="spacing" textLength="213" x="499" y="173.2627">-checkDate(LocalDateTime appointmentDay)</text><text fill="#000000" font-family="sans-serif" font-size="11" lengthAdjust="spacing" textLength="216" x="499" y="187.0986">-checkTime(LocalDateTime appointmentTime)</text><text fill="#000000" font-family="sans-serif" font-size="11" lengthAdjust="spacing" textLength="333" x="499" y="200.9346">+checkDateAndTie(LocalDateTime date, LocalDateTime Day, int hour)</text><text fill="#000000" font-family="sans-serif" font-size="11" lengthAdjust="spacing" textLength="337" x="499" y="214.7705">+registerArrival(int snsNumber, VaccinationCenter vaccinationCenter)</text><!--MD5=[9c2b63b5005cac7dc9d607513420f25d]
link RegisterArrivalOfSNSUserController to Company--><path codeLine="33" d="M220,193.79 C220,203.69 220,213.58 220,223.48 " fill="none" id="RegisterArrivalOfSNSUserController-to-Company" style="stroke:#A80036;stroke-width:1.0;"/><polygon fill="#A80036" points="220,228.66,224,219.66,220,223.66,216,219.66,220,228.66" style="stroke:#A80036;stroke-width:1.0;"/><!--MD5=[fc91df0374a9db7ee07d3ebc6859d0ff]
link RegisterArrivalOfSNSUserController to Arrival--><path codeLine="34" d="M433.29,142 C453.1,142 473.18,142 492.99,142 " fill="none" id="RegisterArrivalOfSNSUserController-Arrival" style="stroke:#A80036;stroke-width:1.0;"/><!--MD5=[c02671460e69f12b5222eca068106625]
link RegisterArrivalOfSNSUserUI to RegisterArrivalOfSNSUserController--><path codeLine="35" d="M220,55.13 C220,66.89 220,78.65 220,90.4 " fill="none" id="RegisterArrivalOfSNSUserUI-RegisterArrivalOfSNSUserController" style="stroke:#A80036;stroke-width:1.0;"/><!--MD5=[bd7ae347a578a1dba210947a46bfbc5b]
@startuml
'https://plantuml.com/class-diagram

skinparam classAttributeIconSize 0

class Company {
+registerArrival(Arrival arrival, VaccinationCenter vaccinationCenter)
}


class RegisterArrivalOfSNSUserUI

class RegisterArrivalOfSNSUserController{
+checkRegistration(int snsNumber, VaccinationCenter vaccinationCenter)
+getUserAppointment(int snsNumber, List<ScheduledVaccine> vaccineAppointments)
+registerArrival(int snsNumber, VaccinationCenter vaccinationCenter)
+checkDateAndTie(LocalDateTime date, LocalDateTime Day, int hour)
}

class Arrival {
-int snsNumber
-LocalDateTime dateTime
-VaccineType vaccineType
+getUserAppointment(int snsNumber, List<ScheduledVaccine> vaccineAppointments)
-checkDate(LocalDateTime appointmentDay)
-checkTime(LocalDateTime appointmentTime)
+checkDateAndTie(LocalDateTime date, LocalDateTime Day, int hour)
+registerArrival(int snsNumber, VaccinationCenter vaccinationCenter)
}


left to right direction

RegisterArrivalOfSNSUserController -> Company
RegisterArrivalOfSNSUserController - - Arrival
RegisterArrivalOfSNSUserUI - RegisterArrivalOfSNSUserController

@enduml

@startuml

skinparam classAttributeIconSize 0

class Company {
+registerArrival(Arrival arrival, VaccinationCenter vaccinationCenter)
}


class RegisterArrivalOfSNSUserUI

class RegisterArrivalOfSNSUserController{
+checkRegistration(int snsNumber, VaccinationCenter vaccinationCenter)
+getUserAppointment(int snsNumber, List<ScheduledVaccine> vaccineAppointments)
+registerArrival(int snsNumber, VaccinationCenter vaccinationCenter)
+checkDateAndTie(LocalDateTime date, LocalDateTime Day, int hour)
}

class Arrival {
-int snsNumber
-LocalDateTime dateTime
-VaccineType vaccineType
+getUserAppointment(int snsNumber, List<ScheduledVaccine> vaccineAppointments)
-checkDate(LocalDateTime appointmentDay)
-checkTime(LocalDateTime appointmentTime)
+checkDateAndTie(LocalDateTime date, LocalDateTime Day, int hour)
+registerArrival(int snsNumber, VaccinationCenter vaccinationCenter)
}


left to right direction

RegisterArrivalOfSNSUserController -> Company
RegisterArrivalOfSNSUserController - - Arrival
RegisterArrivalOfSNSUserUI - RegisterArrivalOfSNSUserController

@enduml

PlantUML version 1.2022.1(Tue Feb 01 18:19:58 GMT 2022)
(GPL source distribution)
Java Runtime: OpenJDK Runtime Environment
JVM: OpenJDK 64-Bit Server VM
Default Encoding: Cp1252
Language: pt
Country: PT
--></g></svg>