<?xml version="1.0" encoding="UTF-8" standalone="no"?><svg xmlns="http://www.w3.org/2000/svg" xmlns:xlink="http://www.w3.org/1999/xlink" contentStyleType="text/css" height="1058px" preserveAspectRatio="none" style="width:1850px;height:1058px;background:#FFFFFF;" version="1.1" viewBox="0 0 1850 1058" width="1850px" zoomAndPan="magnify"><defs/><g><rect fill="#FFFFFF" height="865.7344" style="stroke:#181818;stroke-width:1.0;" width="10" x="59.5" y="92.6094"/><rect fill="#FFFFFF" height="30.3516" style="stroke:#181818;stroke-width:1.0;" width="10" x="450.5" y="114.9609"/><rect fill="#FFFFFF" height="87.0547" style="stroke:#181818;stroke-width:1.0;" width="10" x="450.5" y="175.6641"/><rect fill="#FFFFFF" height="374.8125" style="stroke:#181818;stroke-width:1.0;" width="10" x="450.5" y="285.0703"/><rect fill="#FFFFFF" height="268.1094" style="stroke:#181818;stroke-width:1.0;" width="10" x="450.5" y="690.2344"/><rect fill="#FFFFFF" height="314.1094" style="stroke:#181818;stroke-width:1.0;" width="10" x="936.5" y="315.4219"/><rect fill="#FFFFFF" height="246.7578" style="stroke:#181818;stroke-width:1.0;" width="10" x="936.5" y="720.5859"/><rect fill="#FFFFFF" height="30" style="stroke:#181818;stroke-width:1.0;" width="10" x="1336.5" y="345.7734"/><rect fill="#FFFFFF" height="30" style="stroke:#181818;stroke-width:1.0;" width="10" x="1336.5" y="442.4766"/><rect fill="#FFFFFF" height="66.3516" style="stroke:#181818;stroke-width:1.0;" width="10" x="1336.5" y="750.9375"/><rect fill="#FFFFFF" height="28" style="stroke:#181818;stroke-width:1.0;" width="10" x="1341.5" y="789.2891"/><rect fill="#FFFFFF" height="30" style="stroke:#181818;stroke-width:1.0;" width="10" x="1575.5" y="502.8281"/><rect fill="#FFFFFF" height="30" style="stroke:#181818;stroke-width:1.0;" width="10" x="1575.5" y="599.5313"/><rect fill="#FFFFFF" height="66.3516" style="stroke:#181818;stroke-width:1.0;" width="10" x="1575.5" y="854.6406"/><rect fill="#FFFFFF" height="28" style="stroke:#181818;stroke-width:1.0;" width="10" x="1580.5" y="892.9922"/><rect height="65.0547" style="stroke:#000000;stroke-width:1.5;fill:none;" width="690.5" x="10" y="190.6641"/><line style="stroke:#181818;stroke-width:0.5;fill:none;stroke-dasharray:5.0,5.0;" x1="64" x2="64" y1="82.6094" y2="976.3438"/><line style="stroke:#181818;stroke-width:0.5;fill:none;stroke-dasharray:5.0,5.0;" x1="455" x2="455" y1="82.6094" y2="976.3438"/><line style="stroke:#181818;stroke-width:0.5;fill:none;stroke-dasharray:5.0,5.0;" x1="941" x2="941" y1="82.6094" y2="976.3438"/><line style="stroke:#181818;stroke-width:0.5;fill:none;stroke-dasharray:5.0,5.0;" x1="1341.5" x2="1341.5" y1="82.6094" y2="976.3438"/><line style="stroke:#181818;stroke-width:0.5;fill:none;stroke-dasharray:5.0,5.0;" x1="1580.5" x2="1580.5" y1="82.6094" y2="976.3438"/><line style="stroke:#181818;stroke-width:0.5;fill:none;stroke-dasharray:5.0,5.0;" x1="1741" x2="1741" y1="82.6094" y2="976.3438"/><text fill="#000000" font-family="sans-serif" font-size="14" lengthAdjust="spacing" textLength="83" x="20" y="79.5332">Administrator</text><ellipse cx="64.5" cy="13.5" fill="#E2E2F0" rx="8" ry="8" style="stroke:#181818;stroke-width:0.5;"/><path d="M64.5,21.5 L64.5,48.5 M51.5,29.5 L77.5,29.5 M64.5,48.5 L51.5,63.5 M64.5,48.5 L77.5,63.5 " fill="none" style="stroke:#181818;stroke-width:0.5;"/><text fill="#000000" font-family="sans-serif" font-size="14" lengthAdjust="spacing" textLength="83" x="20" y="989.877">Administrator</text><ellipse cx="64.5" cy="1001.4531" fill="#E2E2F0" rx="8" ry="8" style="stroke:#181818;stroke-width:0.5;"/><path d="M64.5,1009.4531 L64.5,1036.4531 M51.5,1017.4531 L77.5,1017.4531 M64.5,1036.4531 L51.5,1051.4531 M64.5,1036.4531 L77.5,1051.4531 " fill="none" style="stroke:#181818;stroke-width:0.5;"/><rect fill="#E2E2F0" height="31.6094" rx="2.5" ry="2.5" style="stroke:#181818;stroke-width:0.5;" width="241" x="335" y="50"/><text fill="#000000" font-family="sans-serif" font-size="14" lengthAdjust="spacing" textLength="227" x="342" y="71.5332">:SpecifyVaccineAndAdminProcessUI</text><rect fill="#E2E2F0" height="31.6094" rx="2.5" ry="2.5" style="stroke:#181818;stroke-width:0.5;" width="241" x="335" y="975.3438"/><text fill="#000000" font-family="sans-serif" font-size="14" lengthAdjust="spacing" textLength="227" x="342" y="996.877">:SpecifyVaccineAndAdminProcessUI</text><rect fill="#E2E2F0" height="31.6094" rx="2.5" ry="2.5" style="stroke:#181818;stroke-width:0.5;" width="291" x="796" y="50"/><text fill="#000000" font-family="sans-serif" font-size="14" lengthAdjust="spacing" textLength="277" x="803" y="71.5332">:SpecifyVaccineAndAdminProcessController</text><rect fill="#E2E2F0" height="31.6094" rx="2.5" ry="2.5" style="stroke:#181818;stroke-width:0.5;" width="291" x="796" y="975.3438"/><text fill="#000000" font-family="sans-serif" font-size="14" lengthAdjust="spacing" textLength="277" x="803" y="996.877">:SpecifyVaccineAndAdminProcessController</text><rect fill="#E2E2F0" height="49.2188" rx="2.5" ry="2.5" style="stroke:#181818;stroke-width:0.5;" width="158" x="1262.5" y="32.3906"/><text fill="#000000" font-family="sans-serif" font-size="14" lengthAdjust="spacing" textLength="139" x="1272" y="53.9238">administrationProcess</text><text fill="#000000" font-family="sans-serif" font-size="14" lengthAdjust="spacing" textLength="144" x="1269.5" y="71.5332">:AdministrationProcess</text><rect fill="#E2E2F0" height="49.2188" rx="2.5" ry="2.5" style="stroke:#181818;stroke-width:0.5;" width="158" x="1262.5" y="975.3438"/><text fill="#000000" font-family="sans-serif" font-size="14" lengthAdjust="spacing" textLength="139" x="1272" y="996.877">administrationProcess</text><text fill="#000000" font-family="sans-serif" font-size="14" lengthAdjust="spacing" textLength="144" x="1269.5" y="1014.4863">:AdministrationProcess</text><rect fill="#E2E2F0" height="49.2188" rx="2.5" ry="2.5" style="stroke:#181818;stroke-width:0.5;" width="68" x="1546.5" y="32.3906"/><text fill="#000000" font-family="sans-serif" font-size="14" lengthAdjust="spacing" textLength="48" x="1556.5" y="53.9238">vaccine</text><text fill="#000000" font-family="sans-serif" font-size="14" lengthAdjust="spacing" textLength="54" x="1553.5" y="71.5332">:Vaccine</text><rect fill="#E2E2F0" height="49.2188" rx="2.5" ry="2.5" style="stroke:#181818;stroke-width:0.5;" width="68" x="1546.5" y="975.3438"/><text fill="#000000" font-family="sans-serif" font-size="14" lengthAdjust="spacing" textLength="48" x="1556.5" y="996.877">vaccine</text><text fill="#000000" font-family="sans-serif" font-size="14" lengthAdjust="spacing" textLength="54" x="1553.5" y="1014.4863">:Vaccine</text><rect fill="#E2E2F0" height="49.2188" rx="2.5" ry="2.5" style="stroke:#181818;stroke-width:0.5;" width="205" x="1639" y="32.3906"/><text fill="#000000" font-family="sans-serif" font-size="14" lengthAdjust="spacing" textLength="185" x="1649" y="53.9238">vaccineAndAdminProcessDto</text><text fill="#000000" font-family="sans-serif" font-size="14" lengthAdjust="spacing" textLength="191" x="1646" y="71.5332">:VaccineAndAdminProcessDto</text><rect fill="#E2E2F0" height="49.2188" rx="2.5" ry="2.5" style="stroke:#181818;stroke-width:0.5;" width="205" x="1639" y="975.3438"/><text fill="#000000" font-family="sans-serif" font-size="14" lengthAdjust="spacing" textLength="185" x="1649" y="996.877">vaccineAndAdminProcessDto</text><text fill="#000000" font-family="sans-serif" font-size="14" lengthAdjust="spacing" textLength="191" x="1646" y="1014.4863">:VaccineAndAdminProcessDto</text><rect fill="#FFFFFF" height="865.7344" style="stroke:#181818;stroke-width:1.0;" width="10" x="59.5" y="92.6094"/><rect fill="#FFFFFF" height="30.3516" style="stroke:#181818;stroke-width:1.0;" width="10" x="450.5" y="114.9609"/><rect fill="#FFFFFF" height="87.0547" style="stroke:#181818;stroke-width:1.0;" width="10" x="450.5" y="175.6641"/><rect fill="#FFFFFF" height="374.8125" style="stroke:#181818;stroke-width:1.0;" width="10" x="450.5" y="285.0703"/><rect fill="#FFFFFF" height="268.1094" style="stroke:#181818;stroke-width:1.0;" width="10" x="450.5" y="690.2344"/><rect fill="#FFFFFF" height="314.1094" style="stroke:#181818;stroke-width:1.0;" width="10" x="936.5" y="315.4219"/><rect fill="#FFFFFF" height="246.7578" style="stroke:#181818;stroke-width:1.0;" width="10" x="936.5" y="720.5859"/><rect fill="#FFFFFF" height="30" style="stroke:#181818;stroke-width:1.0;" width="10" x="1336.5" y="345.7734"/><rect fill="#FFFFFF" height="30" style="stroke:#181818;stroke-width:1.0;" width="10" x="1336.5" y="442.4766"/><rect fill="#FFFFFF" height="66.3516" style="stroke:#181818;stroke-width:1.0;" width="10" x="1336.5" y="750.9375"/><rect fill="#FFFFFF" height="28" style="stroke:#181818;stroke-width:1.0;" width="10" x="1341.5" y="789.2891"/><rect fill="#FFFFFF" height="30" style="stroke:#181818;stroke-width:1.0;" width="10" x="1575.5" y="502.8281"/><rect fill="#FFFFFF" height="30" style="stroke:#181818;stroke-width:1.0;" width="10" x="1575.5" y="599.5313"/><rect fill="#FFFFFF" height="66.3516" style="stroke:#181818;stroke-width:1.0;" width="10" x="1575.5" y="854.6406"/><rect fill="#FFFFFF" height="28" style="stroke:#181818;stroke-width:1.0;" width="10" x="1580.5" y="892.9922"/><polygon fill="#181818" points="438.5,110.9609,448.5,114.9609,438.5,118.9609,442.5,114.9609" style="stroke:#181818;stroke-width:1.0;"/><line style="stroke:#181818;stroke-width:1.0;" x1="69.5" x2="444.5" y1="114.9609" y2="114.9609"/><text fill="#000000" font-family="sans-serif" font-size="13" font-weight="bold" lengthAdjust="spacing" textLength="7" x="76.5" y="110.1045">1</text><text fill="#000000" font-family="sans-serif" font-size="13" lengthAdjust="spacing" textLength="351" x="87.5" y="110.1045">asks to specify a new vaccine and its administration process</text><polygon fill="#181818" points="80.5,141.3125,70.5,145.3125,80.5,149.3125,76.5,145.3125" style="stroke:#181818;stroke-width:1.0;"/><line style="stroke:#181818;stroke-width:1.0;stroke-dasharray:2.0,2.0;" x1="74.5" x2="454.5" y1="145.3125" y2="145.3125"/><text fill="#000000" font-family="sans-serif" font-size="13" font-weight="bold" lengthAdjust="spacing" textLength="7" x="86.5" y="140.4561">2</text><text fill="#000000" font-family="sans-serif" font-size="13" lengthAdjust="spacing" textLength="260" x="97.5" y="140.4561">requests data (id, name, brand, vaccineType)</text><polygon fill="#181818" points="438.5,171.6641,448.5,175.6641,438.5,179.6641,442.5,175.6641" style="stroke:#181818;stroke-width:1.0;"/><line style="stroke:#181818;stroke-width:1.0;" x1="69.5" x2="444.5" y1="175.6641" y2="175.6641"/><text fill="#000000" font-family="sans-serif" font-size="13" font-weight="bold" lengthAdjust="spacing" textLength="7" x="76.5" y="170.8076">3</text><text fill="#000000" font-family="sans-serif" font-size="13" lengthAdjust="spacing" textLength="125" x="87.5" y="170.8076">inputs requested data</text><path d="M10,190.6641 L83,190.6641 L83,199.0156 L73,209.0156 L10,209.0156 L10,190.6641 " fill="#EEEEEE" style="stroke:#000000;stroke-width:1.5;"/><rect fill="none" height="65.0547" style="stroke:#000000;stroke-width:1.5;" width="690.5" x="10" y="190.6641"/><text fill="#000000" font-family="sans-serif" font-size="13" font-weight="bold" lengthAdjust="spacing" textLength="28" x="25" y="205.1592">loop</text><text fill="#000000" font-family="sans-serif" font-size="11" font-weight="bold" lengthAdjust="spacing" textLength="144" x="98" y="204.083">[while adding age groups]</text><polygon fill="#181818" points="80.5,243.7188,70.5,247.7188,80.5,251.7188,76.5,247.7188" style="stroke:#181818;stroke-width:1.0;"/><line style="stroke:#181818;stroke-width:1.0;stroke-dasharray:2.0,2.0;" x1="74.5" x2="449.5" y1="247.7188" y2="247.7188"/><text fill="#000000" font-family="sans-serif" font-size="13" font-weight="bold" lengthAdjust="spacing" textLength="7" x="86.5" y="234.6865">4</text><text fill="#000000" font-family="sans-serif" font-size="13" lengthAdjust="spacing" textLength="251" x="97.5" y="226.5107">requests data (age limits, number of doses,</text><text fill="#000000" font-family="sans-serif" font-size="13" lengthAdjust="spacing" textLength="280" x="101.5" y="242.8623">vaccine dosage, time interval between vaccines )</text><path d="M465,219.1914 L465,245.1914 L690,245.1914 L690,229.1914 L680,219.1914 L465,219.1914 " fill="#FEFFDD" style="stroke:#181818;stroke-width:0.5;"/><path d="M680,219.1914 L680,229.1914 L690,229.1914 L680,219.1914 " fill="#FEFFDD" style="stroke:#181818;stroke-width:0.5;"/><text fill="#000000" font-family="sans-serif" font-size="13" lengthAdjust="spacing" textLength="204" x="471" y="237.6865">data for the Administration Process</text><polygon fill="#181818" points="438.5,281.0703,448.5,285.0703,438.5,289.0703,442.5,285.0703" style="stroke:#181818;stroke-width:1.0;"/><line style="stroke:#181818;stroke-width:1.0;" x1="69.5" x2="444.5" y1="285.0703" y2="285.0703"/><text fill="#000000" font-family="sans-serif" font-size="13" font-weight="bold" lengthAdjust="spacing" textLength="7" x="76.5" y="280.2139">5</text><text fill="#000000" font-family="sans-serif" font-size="13" lengthAdjust="spacing" textLength="122" x="87.5" y="280.2139">types requested data</text><polygon fill="#181818" points="924.5,311.4219,934.5,315.4219,924.5,319.4219,928.5,315.4219" style="stroke:#181818;stroke-width:1.0;"/><line style="stroke:#181818;stroke-width:1.0;" x1="460.5" x2="930.5" y1="315.4219" y2="315.4219"/><text fill="#000000" font-family="sans-serif" font-size="13" font-weight="bold" lengthAdjust="spacing" textLength="7" x="467.5" y="310.5654">6</text><text fill="#000000" font-family="sans-serif" font-size="13" lengthAdjust="spacing" textLength="446" x="478.5" y="310.5654">specifyNewVaccineAndAdminProcess(vaccineAndAdministrationProcessDto)</text><polygon fill="#181818" points="1324.5,341.7734,1334.5,345.7734,1324.5,349.7734,1328.5,345.7734" style="stroke:#181818;stroke-width:1.0;"/><line style="stroke:#181818;stroke-width:1.0;" x1="946.5" x2="1330.5" y1="345.7734" y2="345.7734"/><text fill="#000000" font-family="sans-serif" font-size="13" font-weight="bold" lengthAdjust="spacing" textLength="7" x="953.5" y="340.917">7</text><text fill="#000000" font-family="sans-serif" font-size="13" lengthAdjust="spacing" textLength="360" x="964.5" y="340.917">adminProcess = create(vaccineAndAdministrationProcessDto)</text><path d="M1253,388.7734 L1253,414.7734 L1829,414.7734 L1829,398.7734 L1819,388.7734 L1253,388.7734 " fill="#FEFFDD" style="stroke:#181818;stroke-width:0.5;"/><path d="M1819,388.7734 L1819,398.7734 L1829,398.7734 L1819,388.7734 " fill="#FEFFDD" style="stroke:#181818;stroke-width:0.5;"/><text fill="#000000" font-family="sans-serif" font-size="13" lengthAdjust="spacing" textLength="264" x="1404.75" y="407.2686">Several interactions to extract data from DTO.</text><polygon fill="#181818" points="1324.5,438.4766,1334.5,442.4766,1324.5,446.4766,1328.5,442.4766" style="stroke:#181818;stroke-width:1.0;"/><line style="stroke:#181818;stroke-width:1.0;" x1="946.5" x2="1330.5" y1="442.4766" y2="442.4766"/><text fill="#000000" font-family="sans-serif" font-size="13" font-weight="bold" lengthAdjust="spacing" textLength="7" x="953.5" y="437.6201">8</text><text fill="#000000" font-family="sans-serif" font-size="13" lengthAdjust="spacing" textLength="265" x="964.5" y="437.6201">validateAdministrationProcess(adminProcess)</text><polygon fill="#181818" points="1563.5,498.8281,1573.5,502.8281,1563.5,506.8281,1567.5,502.8281" style="stroke:#181818;stroke-width:1.0;"/><line style="stroke:#181818;stroke-width:1.0;" x1="946.5" x2="1569.5" y1="502.8281" y2="502.8281"/><text fill="#000000" font-family="sans-serif" font-size="13" font-weight="bold" lengthAdjust="spacing" textLength="7" x="953.5" y="497.9717">9</text><text fill="#000000" font-family="sans-serif" font-size="13" lengthAdjust="spacing" textLength="320" x="964.5" y="497.9717">vaccine = create(vaccineAndAdministrationProcessDto)</text><path d="M1514,545.8281 L1514,571.8281 L1806,571.8281 L1806,555.8281 L1796,545.8281 L1514,545.8281 " fill="#FEFFDD" style="stroke:#181818;stroke-width:0.5;"/><path d="M1796,545.8281 L1796,555.8281 L1806,555.8281 L1796,545.8281 " fill="#FEFFDD" style="stroke:#181818;stroke-width:0.5;"/><text fill="#000000" font-family="sans-serif" font-size="13" lengthAdjust="spacing" textLength="264" x="1523.75" y="564.3232">Several interactions to extract data from DTO.</text><polygon fill="#181818" points="1563.5,595.5313,1573.5,599.5313,1563.5,603.5313,1567.5,599.5313" style="stroke:#181818;stroke-width:1.0;"/><line style="stroke:#181818;stroke-width:1.0;" x1="946.5" x2="1569.5" y1="599.5313" y2="599.5313"/><text fill="#000000" font-family="sans-serif" font-size="13" font-weight="bold" lengthAdjust="spacing" textLength="14" x="953.5" y="594.6748">10</text><text fill="#000000" font-family="sans-serif" font-size="13" lengthAdjust="spacing" textLength="141" x="971.5" y="594.6748">validateVaccine(vaccine)</text><polygon fill="#181818" points="80.5,655.8828,70.5,659.8828,80.5,663.8828,76.5,659.8828" style="stroke:#181818;stroke-width:1.0;"/><line style="stroke:#181818;stroke-width:1.0;" x1="74.5" x2="454.5" y1="659.8828" y2="659.8828"/><text fill="#000000" font-family="sans-serif" font-size="13" font-weight="bold" lengthAdjust="spacing" textLength="14" x="86.5" y="655.0264">11</text><text fill="#000000" font-family="sans-serif" font-size="13" lengthAdjust="spacing" textLength="241" x="104.5" y="655.0264">shows the data and requests confirmation</text><polygon fill="#181818" points="438.5,686.2344,448.5,690.2344,438.5,694.2344,442.5,690.2344" style="stroke:#181818;stroke-width:1.0;"/><line style="stroke:#181818;stroke-width:1.0;" x1="69.5" x2="444.5" y1="690.2344" y2="690.2344"/><text fill="#000000" font-family="sans-serif" font-size="13" font-weight="bold" lengthAdjust="spacing" textLength="14" x="76.5" y="685.3779">12</text><text fill="#000000" font-family="sans-serif" font-size="13" lengthAdjust="spacing" textLength="100" x="94.5" y="685.3779">confirms the data</text><polygon fill="#181818" points="924.5,716.5859,934.5,720.5859,924.5,724.5859,928.5,720.5859" style="stroke:#181818;stroke-width:1.0;"/><line style="stroke:#181818;stroke-width:1.0;" x1="460.5" x2="930.5" y1="720.5859" y2="720.5859"/><text fill="#000000" font-family="sans-serif" font-size="13" font-weight="bold" lengthAdjust="spacing" textLength="14" x="467.5" y="715.7295">13</text><text fill="#000000" font-family="sans-serif" font-size="13" lengthAdjust="spacing" textLength="189" x="485.5" y="715.7295">saveVaccineAndAdminProcess()</text><polygon fill="#181818" points="1324.5,746.9375,1334.5,750.9375,1324.5,754.9375,1328.5,750.9375" style="stroke:#181818;stroke-width:1.0;"/><line style="stroke:#181818;stroke-width:1.0;" x1="946.5" x2="1330.5" y1="750.9375" y2="750.9375"/><text fill="#000000" font-family="sans-serif" font-size="13" font-weight="bold" lengthAdjust="spacing" textLength="14" x="953.5" y="746.0811">14</text><text fill="#000000" font-family="sans-serif" font-size="13" lengthAdjust="spacing" textLength="202" x="971.5" y="746.0811">saveAdminProcess(adminProcess)</text><line style="stroke:#181818;stroke-width:1.0;" x1="1351.5" x2="1393.5" y1="781.2891" y2="781.2891"/><line style="stroke:#181818;stroke-width:1.0;" x1="1393.5" x2="1393.5" y1="781.2891" y2="794.2891"/><line style="stroke:#181818;stroke-width:1.0;" x1="1352.5" x2="1393.5" y1="794.2891" y2="794.2891"/><polygon fill="#181818" points="1362.5,790.2891,1352.5,794.2891,1362.5,798.2891,1358.5,794.2891" style="stroke:#181818;stroke-width:1.0;"/><text fill="#000000" font-family="sans-serif" font-size="13" font-weight="bold" lengthAdjust="spacing" textLength="14" x="1358.5" y="776.4326">15</text><text fill="#000000" font-family="sans-serif" font-size="13" lengthAdjust="spacing" textLength="197" x="1376.5" y="776.4326">addAdminProcess(adminProcess)</text><polygon fill="#181818" points="1563.5,850.6406,1573.5,854.6406,1563.5,858.6406,1567.5,854.6406" style="stroke:#181818;stroke-width:1.0;"/><line style="stroke:#181818;stroke-width:1.0;" x1="946.5" x2="1569.5" y1="854.6406" y2="854.6406"/><text fill="#000000" font-family="sans-serif" font-size="13" font-weight="bold" lengthAdjust="spacing" textLength="14" x="953.5" y="849.7842">16</text><text fill="#000000" font-family="sans-serif" font-size="13" lengthAdjust="spacing" textLength="124" x="971.5" y="849.7842">saveVaccine(vaccine)</text><line style="stroke:#181818;stroke-width:1.0;" x1="1590.5" x2="1632.5" y1="884.9922" y2="884.9922"/><line style="stroke:#181818;stroke-width:1.0;" x1="1632.5" x2="1632.5" y1="884.9922" y2="897.9922"/><line style="stroke:#181818;stroke-width:1.0;" x1="1591.5" x2="1632.5" y1="897.9922" y2="897.9922"/><polygon fill="#181818" points="1601.5,893.9922,1591.5,897.9922,1601.5,901.9922,1597.5,897.9922" style="stroke:#181818;stroke-width:1.0;"/><text fill="#000000" font-family="sans-serif" font-size="13" font-weight="bold" lengthAdjust="spacing" textLength="14" x="1597.5" y="880.1357">17</text><text fill="#000000" font-family="sans-serif" font-size="13" lengthAdjust="spacing" textLength="119" x="1615.5" y="880.1357">addVaccine(vaccine)</text><polygon fill="#181818" points="75.5,954.3438,65.5,958.3438,75.5,962.3438,71.5,958.3438" style="stroke:#181818;stroke-width:1.0;"/><line style="stroke:#181818;stroke-width:1.0;" x1="69.5" x2="454.5" y1="958.3438" y2="958.3438"/><text fill="#000000" font-family="sans-serif" font-size="13" font-weight="bold" lengthAdjust="spacing" textLength="14" x="81.5" y="953.4873">18</text><text fill="#000000" font-family="sans-serif" font-size="13" lengthAdjust="spacing" textLength="152" x="99.5" y="953.4873">informs operation success</text><!--MD5=[d885ce9e3a12b0dda6db58f4c0d8a78b]
@startuml

autonumber

actor Administrator as A

participant ":SpecifyVaccineAndAdminProcessUI" as UI
participant ":SpecifyVaccineAndAdminProcessController" as CTRL
participant "administrationProcess\n:AdministrationProcess" as AP

participant "vaccine\n:Vaccine" as V
participant "vaccineAndAdminProcessDto\n:VaccineAndAdminProcessDto" as DTO

activate A
A -> UI :asks to specify a new vaccine and its administration process
activate UI
UI - -> A : requests data (id, name, brand, vaccineType)
deactivate UI

A -> UI : inputs requested data

activate UI

loop while adding age groups
 UI - -> A : requests data (age limits, number of doses,\n vaccine dosage, time interval between vaccines )

note right
data for the Administration Process
end note
end

deactivate UI

A -> UI : types requested data

activate UI
UI -> CTRL : specifyNewVaccineAndAdminProcess(vaccineAndAdministrationProcessDto)

activate CTRL
CTRL -> AP : adminProcess = create(vaccineAndAdministrationProcessDto)
note over AP, DTO : Several interactions to extract data from DTO.


activate AP
deactivate AP

CTRL -> AP : validateAdministrationProcess(adminProcess)
activate AP
deactivate AP

CTRL -> V : vaccine = create(vaccineAndAdministrationProcessDto)
note over V, DTO : Several interactions to extract data from DTO.

activate V
deactivate V

CTRL -> V : validateVaccine(vaccine)
activate V
deactivate V
deactivate CTRL
UI -> A : shows the data and requests confirmation
deactivate UI
A -> UI : confirms the data
activate UI
UI -> CTRL : saveVaccineAndAdminProcess()

activate CTRL
CTRL -> AP : saveAdminProcess(adminProcess)
activate AP
AP -> AP : addAdminProcess(adminProcess)
activate AP

deactivate AP
deactivate AP

CTRL -> V : saveVaccine(vaccine)
activate V
V -> V : addVaccine(vaccine)
activate V
deactivate V
deactivate V

UI -> A : informs operation success
deactivate UI
deactivate A
@enduml

PlantUML version 1.2022.4(Sat Apr 09 14:29:17 BST 2022)
(GPL source distribution)
Java Runtime: OpenJDK Runtime Environment
JVM: OpenJDK 64-Bit Server VM
Default Encoding: Cp1252
Language: en
Country: US
--></g></svg>