<?xml version="1.0" encoding="UTF-8" standalone="no"?><svg xmlns="http://www.w3.org/2000/svg" xmlns:xlink="http://www.w3.org/1999/xlink" contentStyleType="text/css" height="1197px" preserveAspectRatio="none" style="width:2263px;height:1197px;background:#FFFFFF;" version="1.1" viewBox="0 0 2263 1197" width="2263px" zoomAndPan="magnify"><defs/><g><rect fill="#FFFFFF" height="1004.4922" style="stroke:#181818;stroke-width:1.0;" width="10" x="59.5" y="92.6094"/><rect fill="#FFFFFF" height="30.3516" style="stroke:#181818;stroke-width:1.0;" width="10" x="426.5" y="114.9609"/><rect fill="#FFFFFF" height="72.0547" style="stroke:#181818;stroke-width:1.0;" width="10" x="426.5" y="175.6641"/><rect fill="#FFFFFF" height="472.8672" style="stroke:#181818;stroke-width:1.0;" width="10" x="426.5" y="278.0703"/><rect fill="#FFFFFF" height="315.8125" style="stroke:#181818;stroke-width:1.0;" width="10" x="426.5" y="781.2891"/><rect fill="#FFFFFF" height="405.1641" style="stroke:#181818;stroke-width:1.0;" width="10" x="866.5" y="315.4219"/><rect fill="#FFFFFF" height="294.4609" style="stroke:#181818;stroke-width:1.0;" width="10" x="866.5" y="811.6406"/><rect fill="#FFFFFF" height="374.8125" style="stroke:#181818;stroke-width:1.0;" width="10" x="1306.5" y="345.7734"/><rect fill="#FFFFFF" height="264.1094" style="stroke:#181818;stroke-width:1.0;" width="10" x="1306.5" y="841.9922"/><rect fill="#FFFFFF" height="30" style="stroke:#181818;stroke-width:1.0;" width="10" x="1880.5" y="376.125"/><rect fill="#FFFFFF" height="30" style="stroke:#181818;stroke-width:1.0;" width="10" x="1880.5" y="472.8281"/><rect fill="#FFFFFF" height="30" style="stroke:#181818;stroke-width:1.0;" width="10" x="1880.5" y="872.3438"/><rect fill="#FFFFFF" height="30" style="stroke:#181818;stroke-width:1.0;" width="10" x="2003.5" y="533.1797"/><rect fill="#FFFFFF" height="30" style="stroke:#181818;stroke-width:1.0;" width="10" x="2003.5" y="629.8828"/><rect fill="#FFFFFF" height="30" style="stroke:#181818;stroke-width:1.0;" width="10" x="2003.5" y="932.6953"/><rect height="95.4063" style="stroke:#000000;stroke-width:1.5;fill:none;" width="671.5" x="10" y="190.6641"/><line style="stroke:#181818;stroke-width:0.5;fill:none;stroke-dasharray:5.0,5.0;" x1="64" x2="64" y1="82.6094" y2="1115.1016"/><line style="stroke:#181818;stroke-width:0.5;fill:none;stroke-dasharray:5.0,5.0;" x1="431" x2="431" y1="82.6094" y2="1115.1016"/><line style="stroke:#181818;stroke-width:0.5;fill:none;stroke-dasharray:5.0,5.0;" x1="871" x2="871" y1="82.6094" y2="1115.1016"/><line style="stroke:#181818;stroke-width:0.5;fill:none;stroke-dasharray:5.0,5.0;" x1="1311.5" x2="1311.5" y1="82.6094" y2="1115.1016"/><line style="stroke:#181818;stroke-width:0.5;fill:none;stroke-dasharray:5.0,5.0;" x1="1885.5" x2="1885.5" y1="82.6094" y2="1115.1016"/><line style="stroke:#181818;stroke-width:0.5;fill:none;stroke-dasharray:5.0,5.0;" x1="2008.5" x2="2008.5" y1="82.6094" y2="1115.1016"/><line style="stroke:#181818;stroke-width:0.5;fill:none;stroke-dasharray:5.0,5.0;" x1="2154.5" x2="2154.5" y1="82.6094" y2="1115.1016"/><text fill="#000000" font-family="sans-serif" font-size="14" lengthAdjust="spacing" textLength="83" x="20" y="79.5332">Administrator</text><ellipse cx="64.5" cy="13.5" fill="#E2E2F0" rx="8" ry="8" style="stroke:#181818;stroke-width:0.5;"/><path d="M64.5,21.5 L64.5,48.5 M51.5,29.5 L77.5,29.5 M64.5,48.5 L51.5,63.5 M64.5,48.5 L77.5,63.5 " fill="none" style="stroke:#181818;stroke-width:0.5;"/><text fill="#000000" font-family="sans-serif" font-size="14" lengthAdjust="spacing" textLength="83" x="20" y="1128.6348">Administrator</text><ellipse cx="64.5" cy="1140.2109" fill="#E2E2F0" rx="8" ry="8" style="stroke:#181818;stroke-width:0.5;"/><path d="M64.5,1148.2109 L64.5,1175.2109 M51.5,1156.2109 L77.5,1156.2109 M64.5,1175.2109 L51.5,1190.2109 M64.5,1175.2109 L77.5,1190.2109 " fill="none" style="stroke:#181818;stroke-width:0.5;"/><rect fill="#E2E2F0" height="31.6094" rx="2.5" ry="2.5" style="stroke:#181818;stroke-width:0.5;" width="241" x="311" y="50"/><text fill="#000000" font-family="sans-serif" font-size="14" lengthAdjust="spacing" textLength="227" x="318" y="71.5332">:SpecifyVaccineAndAdminProcessUI</text><rect fill="#E2E2F0" height="31.6094" rx="2.5" ry="2.5" style="stroke:#181818;stroke-width:0.5;" width="241" x="311" y="1114.1016"/><text fill="#000000" font-family="sans-serif" font-size="14" lengthAdjust="spacing" textLength="227" x="318" y="1135.6348">:SpecifyVaccineAndAdminProcessUI</text><rect fill="#E2E2F0" height="31.6094" rx="2.5" ry="2.5" style="stroke:#181818;stroke-width:0.5;" width="291" x="726" y="50"/><text fill="#000000" font-family="sans-serif" font-size="14" lengthAdjust="spacing" textLength="277" x="733" y="71.5332">:SpecifyVaccineAndAdminProcessController</text><rect fill="#E2E2F0" height="31.6094" rx="2.5" ry="2.5" style="stroke:#181818;stroke-width:0.5;" width="291" x="726" y="1114.1016"/><text fill="#000000" font-family="sans-serif" font-size="14" lengthAdjust="spacing" textLength="277" x="733" y="1135.6348">:SpecifyVaccineAndAdminProcessController</text><rect fill="#E2E2F0" height="49.2188" rx="2.5" ry="2.5" style="stroke:#181818;stroke-width:0.5;" width="78" x="1272.5" y="32.3906"/><text fill="#000000" font-family="sans-serif" font-size="14" lengthAdjust="spacing" textLength="57" x="1283" y="53.9238">company</text><text fill="#000000" font-family="sans-serif" font-size="14" lengthAdjust="spacing" textLength="64" x="1279.5" y="71.5332">:Company</text><rect fill="#E2E2F0" height="49.2188" rx="2.5" ry="2.5" style="stroke:#181818;stroke-width:0.5;" width="78" x="1272.5" y="1114.1016"/><text fill="#000000" font-family="sans-serif" font-size="14" lengthAdjust="spacing" textLength="57" x="1283" y="1135.6348">company</text><text fill="#000000" font-family="sans-serif" font-size="14" lengthAdjust="spacing" textLength="64" x="1279.5" y="1153.2441">:Company</text><rect fill="#E2E2F0" height="49.2188" rx="2.5" ry="2.5" style="stroke:#181818;stroke-width:0.5;" width="158" x="1806.5" y="32.3906"/><text fill="#000000" font-family="sans-serif" font-size="14" lengthAdjust="spacing" textLength="139" x="1816" y="53.9238">administrationProcess</text><text fill="#000000" font-family="sans-serif" font-size="14" lengthAdjust="spacing" textLength="144" x="1813.5" y="71.5332">:AdministrationProcess</text><rect fill="#E2E2F0" height="49.2188" rx="2.5" ry="2.5" style="stroke:#181818;stroke-width:0.5;" width="158" x="1806.5" y="1114.1016"/><text fill="#000000" font-family="sans-serif" font-size="14" lengthAdjust="spacing" textLength="139" x="1816" y="1135.6348">administrationProcess</text><text fill="#000000" font-family="sans-serif" font-size="14" lengthAdjust="spacing" textLength="144" x="1813.5" y="1153.2441">:AdministrationProcess</text><rect fill="#E2E2F0" height="49.2188" rx="2.5" ry="2.5" style="stroke:#181818;stroke-width:0.5;" width="68" x="1974.5" y="32.3906"/><text fill="#000000" font-family="sans-serif" font-size="14" lengthAdjust="spacing" textLength="48" x="1984.5" y="53.9238">vaccine</text><text fill="#000000" font-family="sans-serif" font-size="14" lengthAdjust="spacing" textLength="54" x="1981.5" y="71.5332">:Vaccine</text><rect fill="#E2E2F0" height="49.2188" rx="2.5" ry="2.5" style="stroke:#181818;stroke-width:0.5;" width="68" x="1974.5" y="1114.1016"/><text fill="#000000" font-family="sans-serif" font-size="14" lengthAdjust="spacing" textLength="48" x="1984.5" y="1135.6348">vaccine</text><text fill="#000000" font-family="sans-serif" font-size="14" lengthAdjust="spacing" textLength="54" x="1981.5" y="1153.2441">:Vaccine</text><rect fill="#E2E2F0" height="49.2188" rx="2.5" ry="2.5" style="stroke:#181818;stroke-width:0.5;" width="205" x="2052.5" y="32.3906"/><text fill="#000000" font-family="sans-serif" font-size="14" lengthAdjust="spacing" textLength="185" x="2062.5" y="53.9238">vaccineAndAdminProcessDto</text><text fill="#000000" font-family="sans-serif" font-size="14" lengthAdjust="spacing" textLength="191" x="2059.5" y="71.5332">:VaccineAndAdminProcessDto</text><rect fill="#E2E2F0" height="49.2188" rx="2.5" ry="2.5" style="stroke:#181818;stroke-width:0.5;" width="205" x="2052.5" y="1114.1016"/><text fill="#000000" font-family="sans-serif" font-size="14" lengthAdjust="spacing" textLength="185" x="2062.5" y="1135.6348">vaccineAndAdminProcessDto</text><text fill="#000000" font-family="sans-serif" font-size="14" lengthAdjust="spacing" textLength="191" x="2059.5" y="1153.2441">:VaccineAndAdminProcessDto</text><rect fill="#FFFFFF" height="1004.4922" style="stroke:#181818;stroke-width:1.0;" width="10" x="59.5" y="92.6094"/><rect fill="#FFFFFF" height="30.3516" style="stroke:#181818;stroke-width:1.0;" width="10" x="426.5" y="114.9609"/><rect fill="#FFFFFF" height="72.0547" style="stroke:#181818;stroke-width:1.0;" width="10" x="426.5" y="175.6641"/><rect fill="#FFFFFF" height="472.8672" style="stroke:#181818;stroke-width:1.0;" width="10" x="426.5" y="278.0703"/><rect fill="#FFFFFF" height="315.8125" style="stroke:#181818;stroke-width:1.0;" width="10" x="426.5" y="781.2891"/><rect fill="#FFFFFF" height="405.1641" style="stroke:#181818;stroke-width:1.0;" width="10" x="866.5" y="315.4219"/><rect fill="#FFFFFF" height="294.4609" style="stroke:#181818;stroke-width:1.0;" width="10" x="866.5" y="811.6406"/><rect fill="#FFFFFF" height="374.8125" style="stroke:#181818;stroke-width:1.0;" width="10" x="1306.5" y="345.7734"/><rect fill="#FFFFFF" height="264.1094" style="stroke:#181818;stroke-width:1.0;" width="10" x="1306.5" y="841.9922"/><rect fill="#FFFFFF" height="30" style="stroke:#181818;stroke-width:1.0;" width="10" x="1880.5" y="376.125"/><rect fill="#FFFFFF" height="30" style="stroke:#181818;stroke-width:1.0;" width="10" x="1880.5" y="472.8281"/><rect fill="#FFFFFF" height="30" style="stroke:#181818;stroke-width:1.0;" width="10" x="1880.5" y="872.3438"/><rect fill="#FFFFFF" height="30" style="stroke:#181818;stroke-width:1.0;" width="10" x="2003.5" y="533.1797"/><rect fill="#FFFFFF" height="30" style="stroke:#181818;stroke-width:1.0;" width="10" x="2003.5" y="629.8828"/><rect fill="#FFFFFF" height="30" style="stroke:#181818;stroke-width:1.0;" width="10" x="2003.5" y="932.6953"/><polygon fill="#181818" points="414.5,110.9609,424.5,114.9609,414.5,118.9609,418.5,114.9609" style="stroke:#181818;stroke-width:1.0;"/><line style="stroke:#181818;stroke-width:1.0;" x1="69.5" x2="420.5" y1="114.9609" y2="114.9609"/><text fill="#000000" font-family="sans-serif" font-size="13" font-weight="bold" lengthAdjust="spacing" textLength="7" x="76.5" y="110.1045">1</text><text fill="#000000" font-family="sans-serif" font-size="13" lengthAdjust="spacing" textLength="327" x="87.5" y="110.1045">asks to specify a new vac and its administration process</text><polygon fill="#181818" points="80.5,141.3125,70.5,145.3125,80.5,149.3125,76.5,145.3125" style="stroke:#181818;stroke-width:1.0;"/><line style="stroke:#181818;stroke-width:1.0;stroke-dasharray:2.0,2.0;" x1="74.5" x2="430.5" y1="145.3125" y2="145.3125"/><text fill="#000000" font-family="sans-serif" font-size="13" font-weight="bold" lengthAdjust="spacing" textLength="7" x="86.5" y="140.4561">2</text><text fill="#000000" font-family="sans-serif" font-size="13" lengthAdjust="spacing" textLength="260" x="97.5" y="140.4561">requests data (id, name, brand, vaccineType)</text><polygon fill="#181818" points="414.5,171.6641,424.5,175.6641,414.5,179.6641,418.5,175.6641" style="stroke:#181818;stroke-width:1.0;"/><line style="stroke:#181818;stroke-width:1.0;" x1="69.5" x2="420.5" y1="175.6641" y2="175.6641"/><text fill="#000000" font-family="sans-serif" font-size="13" font-weight="bold" lengthAdjust="spacing" textLength="7" x="76.5" y="170.8076">3</text><text fill="#000000" font-family="sans-serif" font-size="13" lengthAdjust="spacing" textLength="125" x="87.5" y="170.8076">inputs requested data</text><path d="M10,190.6641 L83,190.6641 L83,199.0156 L73,209.0156 L10,209.0156 L10,190.6641 " fill="#EEEEEE" style="stroke:#000000;stroke-width:1.5;"/><rect fill="none" height="95.4063" style="stroke:#000000;stroke-width:1.5;" width="671.5" x="10" y="190.6641"/><text fill="#000000" font-family="sans-serif" font-size="13" font-weight="bold" lengthAdjust="spacing" textLength="28" x="25" y="205.1592">loop</text><text fill="#000000" font-family="sans-serif" font-size="11" font-weight="bold" lengthAdjust="spacing" textLength="144" x="98" y="204.083">[while adding age groups]</text><polygon fill="#181818" points="80.5,243.7188,70.5,247.7188,80.5,251.7188,76.5,247.7188" style="stroke:#181818;stroke-width:1.0;"/><line style="stroke:#181818;stroke-width:1.0;stroke-dasharray:2.0,2.0;" x1="74.5" x2="430.5" y1="247.7188" y2="247.7188"/><text fill="#000000" font-family="sans-serif" font-size="13" font-weight="bold" lengthAdjust="spacing" textLength="7" x="86.5" y="234.6865">4</text><text fill="#000000" font-family="sans-serif" font-size="13" lengthAdjust="spacing" textLength="251" x="97.5" y="226.5107">requests data (age limits, number of doses,</text><text fill="#000000" font-family="sans-serif" font-size="13" lengthAdjust="spacing" textLength="256" x="101.5" y="242.8623">vac dosage, time interval between vaccines )</text><path d="M441,219.1914 L441,245.1914 L666,245.1914 L666,229.1914 L656,219.1914 L441,219.1914 " fill="#FEFFDD" style="stroke:#181818;stroke-width:0.5;"/><path d="M656,219.1914 L656,229.1914 L666,229.1914 L656,219.1914 " fill="#FEFFDD" style="stroke:#181818;stroke-width:0.5;"/><text fill="#000000" font-family="sans-serif" font-size="13" lengthAdjust="spacing" textLength="204" x="447" y="237.6865">data for the Administration Process</text><polygon fill="#181818" points="414.5,274.0703,424.5,278.0703,414.5,282.0703,418.5,278.0703" style="stroke:#181818;stroke-width:1.0;"/><line style="stroke:#181818;stroke-width:1.0;" x1="69.5" x2="420.5" y1="278.0703" y2="278.0703"/><text fill="#000000" font-family="sans-serif" font-size="13" font-weight="bold" lengthAdjust="spacing" textLength="7" x="76.5" y="273.2139">5</text><text fill="#000000" font-family="sans-serif" font-size="13" lengthAdjust="spacing" textLength="122" x="87.5" y="273.2139">types requested data</text><polygon fill="#181818" points="854.5,311.4219,864.5,315.4219,854.5,319.4219,858.5,315.4219" style="stroke:#181818;stroke-width:1.0;"/><line style="stroke:#181818;stroke-width:1.0;" x1="436.5" x2="860.5" y1="315.4219" y2="315.4219"/><text fill="#000000" font-family="sans-serif" font-size="13" font-weight="bold" lengthAdjust="spacing" textLength="7" x="443.5" y="310.5654">6</text><text fill="#000000" font-family="sans-serif" font-size="13" lengthAdjust="spacing" textLength="400" x="454.5" y="310.5654">specifyNewVaccineAndAdminProcess(vaccineAndAdminProcessDto)</text><polygon fill="#181818" points="1294.5,341.7734,1304.5,345.7734,1294.5,349.7734,1298.5,345.7734" style="stroke:#181818;stroke-width:1.0;"/><line style="stroke:#181818;stroke-width:1.0;" x1="876.5" x2="1300.5" y1="345.7734" y2="345.7734"/><text fill="#000000" font-family="sans-serif" font-size="13" font-weight="bold" lengthAdjust="spacing" textLength="7" x="883.5" y="340.917">7</text><text fill="#000000" font-family="sans-serif" font-size="13" lengthAdjust="spacing" textLength="400" x="894.5" y="340.917">specifyNewVaccineAndAdminProcess(vaccineAndAdminProcessDto)</text><polygon fill="#181818" points="1868.5,372.125,1878.5,376.125,1868.5,380.125,1872.5,376.125" style="stroke:#181818;stroke-width:1.0;"/><line style="stroke:#181818;stroke-width:1.0;" x1="1316.5" x2="1874.5" y1="376.125" y2="376.125"/><text fill="#000000" font-family="sans-serif" font-size="13" font-weight="bold" lengthAdjust="spacing" textLength="7" x="1323.5" y="371.2686">8</text><text fill="#000000" font-family="sans-serif" font-size="13" lengthAdjust="spacing" textLength="534" x="1334.5" y="371.2686">adminProcess = create(ageGroups, numberOfDoses, dosage, timeIntervalBetweenVaccines)</text><path d="M1243,419.125 L1243,445.125 L2223,445.125 L2223,429.125 L2213,419.125 L1243,419.125 " fill="#FEFFDD" style="stroke:#181818;stroke-width:0.5;"/><path d="M2213,419.125 L2213,429.125 L2223,429.125 L2213,419.125 " fill="#FEFFDD" style="stroke:#181818;stroke-width:0.5;"/><text fill="#000000" font-family="sans-serif" font-size="13" lengthAdjust="spacing" textLength="264" x="1596.5" y="437.6201">Several interactions to extract data from DTO.</text><polygon fill="#181818" points="1868.5,468.8281,1878.5,472.8281,1868.5,476.8281,1872.5,472.8281" style="stroke:#181818;stroke-width:1.0;"/><line style="stroke:#181818;stroke-width:1.0;" x1="1316.5" x2="1874.5" y1="472.8281" y2="472.8281"/><text fill="#000000" font-family="sans-serif" font-size="13" font-weight="bold" lengthAdjust="spacing" textLength="7" x="1323.5" y="467.9717">9</text><text fill="#000000" font-family="sans-serif" font-size="13" lengthAdjust="spacing" textLength="265" x="1334.5" y="467.9717">validateAdministrationProcess(adminProcess)</text><polygon fill="#181818" points="1991.5,529.1797,2001.5,533.1797,1991.5,537.1797,1995.5,533.1797" style="stroke:#181818;stroke-width:1.0;"/><line style="stroke:#181818;stroke-width:1.0;" x1="1316.5" x2="1997.5" y1="533.1797" y2="533.1797"/><text fill="#000000" font-family="sans-serif" font-size="13" font-weight="bold" lengthAdjust="spacing" textLength="14" x="1323.5" y="528.3232">10</text><text fill="#000000" font-family="sans-serif" font-size="13" lengthAdjust="spacing" textLength="339" x="1341.5" y="528.3232">vac = create(name, id, brand, adminProcess, vaccineType)</text><path d="M1243,576.1797 L1243,602.1797 L2223,602.1797 L2223,586.1797 L2213,576.1797 L1243,576.1797 " fill="#FEFFDD" style="stroke:#181818;stroke-width:0.5;"/><path d="M2213,576.1797 L2213,586.1797 L2223,586.1797 L2213,576.1797 " fill="#FEFFDD" style="stroke:#181818;stroke-width:0.5;"/><text fill="#000000" font-family="sans-serif" font-size="13" lengthAdjust="spacing" textLength="264" x="1596.5" y="594.6748">Several interactions to extract data from DTO.</text><polygon fill="#181818" points="1991.5,625.8828,2001.5,629.8828,1991.5,633.8828,1995.5,629.8828" style="stroke:#181818;stroke-width:1.0;"/><line style="stroke:#181818;stroke-width:1.0;" x1="1316.5" x2="1997.5" y1="629.8828" y2="629.8828"/><text fill="#000000" font-family="sans-serif" font-size="13" font-weight="bold" lengthAdjust="spacing" textLength="14" x="1323.5" y="625.0264">11</text><text fill="#000000" font-family="sans-serif" font-size="13" lengthAdjust="spacing" textLength="117" x="1341.5" y="625.0264">validateVaccine(vac)</text><polygon fill="#181818" points="887.5,686.2344,877.5,690.2344,887.5,694.2344,883.5,690.2344" style="stroke:#181818;stroke-width:1.0;"/><line style="stroke:#181818;stroke-width:1.0;stroke-dasharray:2.0,2.0;" x1="881.5" x2="1305.5" y1="690.2344" y2="690.2344"/><text fill="#000000" font-family="sans-serif" font-size="13" font-weight="bold" lengthAdjust="spacing" textLength="14" x="893.5" y="685.3779">12</text><text fill="#000000" font-family="sans-serif" font-size="13" lengthAdjust="spacing" textLength="32" x="911.5" y="685.3779">result</text><polygon fill="#181818" points="447.5,716.5859,437.5,720.5859,447.5,724.5859,443.5,720.5859" style="stroke:#181818;stroke-width:1.0;"/><line style="stroke:#181818;stroke-width:1.0;stroke-dasharray:2.0,2.0;" x1="441.5" x2="870.5" y1="720.5859" y2="720.5859"/><text fill="#000000" font-family="sans-serif" font-size="13" font-weight="bold" lengthAdjust="spacing" textLength="14" x="453.5" y="715.7295">13</text><text fill="#000000" font-family="sans-serif" font-size="13" lengthAdjust="spacing" textLength="32" x="471.5" y="715.7295">result</text><polygon fill="#181818" points="80.5,746.9375,70.5,750.9375,80.5,754.9375,76.5,750.9375" style="stroke:#181818;stroke-width:1.0;"/><line style="stroke:#181818;stroke-width:1.0;stroke-dasharray:2.0,2.0;" x1="74.5" x2="430.5" y1="750.9375" y2="750.9375"/><text fill="#000000" font-family="sans-serif" font-size="13" font-weight="bold" lengthAdjust="spacing" textLength="14" x="86.5" y="746.0811">14</text><text fill="#000000" font-family="sans-serif" font-size="13" lengthAdjust="spacing" textLength="241" x="104.5" y="746.0811">shows the data and requests confirmation</text><polygon fill="#181818" points="414.5,777.2891,424.5,781.2891,414.5,785.2891,418.5,781.2891" style="stroke:#181818;stroke-width:1.0;"/><line style="stroke:#181818;stroke-width:1.0;" x1="69.5" x2="420.5" y1="781.2891" y2="781.2891"/><text fill="#000000" font-family="sans-serif" font-size="13" font-weight="bold" lengthAdjust="spacing" textLength="14" x="76.5" y="776.4326">15</text><text fill="#000000" font-family="sans-serif" font-size="13" lengthAdjust="spacing" textLength="100" x="94.5" y="776.4326">confirms the data</text><polygon fill="#181818" points="854.5,807.6406,864.5,811.6406,854.5,815.6406,858.5,811.6406" style="stroke:#181818;stroke-width:1.0;"/><line style="stroke:#181818;stroke-width:1.0;stroke-dasharray:2.0,2.0;" x1="436.5" x2="860.5" y1="811.6406" y2="811.6406"/><text fill="#000000" font-family="sans-serif" font-size="13" font-weight="bold" lengthAdjust="spacing" textLength="14" x="443.5" y="806.7842">16</text><text fill="#000000" font-family="sans-serif" font-size="13" lengthAdjust="spacing" textLength="252" x="461.5" y="806.7842">saveVaccine(vaccineAndAdminProcessDto)</text><polygon fill="#181818" points="1294.5,837.9922,1304.5,841.9922,1294.5,845.9922,1298.5,841.9922" style="stroke:#181818;stroke-width:1.0;"/><line style="stroke:#181818;stroke-width:1.0;" x1="876.5" x2="1300.5" y1="841.9922" y2="841.9922"/><text fill="#000000" font-family="sans-serif" font-size="13" font-weight="bold" lengthAdjust="spacing" textLength="14" x="883.5" y="837.1357">17</text><text fill="#000000" font-family="sans-serif" font-size="13" lengthAdjust="spacing" textLength="252" x="901.5" y="837.1357">saveVaccine(vaccineAndAdminProcessDto)</text><polygon fill="#181818" points="1868.5,868.3438,1878.5,872.3438,1868.5,876.3438,1872.5,872.3438" style="stroke:#181818;stroke-width:1.0;"/><line style="stroke:#181818;stroke-width:1.0;" x1="1316.5" x2="1874.5" y1="872.3438" y2="872.3438"/><text fill="#000000" font-family="sans-serif" font-size="13" font-weight="bold" lengthAdjust="spacing" textLength="14" x="1323.5" y="867.4873">18</text><text fill="#000000" font-family="sans-serif" font-size="13" lengthAdjust="spacing" textLength="357" x="1341.5" y="867.4873">adminProcess = createAdministrationProcess(adminProcess)</text><polygon fill="#181818" points="1991.5,928.6953,2001.5,932.6953,1991.5,936.6953,1995.5,932.6953" style="stroke:#181818;stroke-width:1.0;"/><line style="stroke:#181818;stroke-width:1.0;" x1="1316.5" x2="1997.5" y1="932.6953" y2="932.6953"/><text fill="#000000" font-family="sans-serif" font-size="13" font-weight="bold" lengthAdjust="spacing" textLength="14" x="1323.5" y="927.8389">19</text><text fill="#000000" font-family="sans-serif" font-size="13" lengthAdjust="spacing" textLength="339" x="1341.5" y="927.8389">vac = create(name, id, brand, adminProcess, vaccineType)</text><line style="stroke:#181818;stroke-width:1.0;" x1="1316.5" x2="1358.5" y1="993.0469" y2="993.0469"/><line style="stroke:#181818;stroke-width:1.0;" x1="1358.5" x2="1358.5" y1="993.0469" y2="1006.0469"/><line style="stroke:#181818;stroke-width:1.0;" x1="1317.5" x2="1358.5" y1="1006.0469" y2="1006.0469"/><polygon fill="#181818" points="1327.5,1002.0469,1317.5,1006.0469,1327.5,1010.0469,1323.5,1006.0469" style="stroke:#181818;stroke-width:1.0;"/><text fill="#000000" font-family="sans-serif" font-size="13" font-weight="bold" lengthAdjust="spacing" textLength="14" x="1323.5" y="988.1904">20</text><text fill="#000000" font-family="sans-serif" font-size="13" lengthAdjust="spacing" textLength="95" x="1341.5" y="988.1904">addVaccine(vac)</text><polygon fill="#181818" points="887.5,1032.3984,877.5,1036.3984,887.5,1040.3984,883.5,1036.3984" style="stroke:#181818;stroke-width:1.0;"/><line style="stroke:#181818;stroke-width:1.0;stroke-dasharray:2.0,2.0;" x1="881.5" x2="1305.5" y1="1036.3984" y2="1036.3984"/><text fill="#000000" font-family="sans-serif" font-size="13" font-weight="bold" lengthAdjust="spacing" textLength="14" x="893.5" y="1031.542">21</text><text fill="#000000" font-family="sans-serif" font-size="13" lengthAdjust="spacing" textLength="32" x="911.5" y="1031.542">result</text><polygon fill="#181818" points="447.5,1062.75,437.5,1066.75,447.5,1070.75,443.5,1066.75" style="stroke:#181818;stroke-width:1.0;"/><line style="stroke:#181818;stroke-width:1.0;stroke-dasharray:2.0,2.0;" x1="441.5" x2="865.5" y1="1066.75" y2="1066.75"/><text fill="#000000" font-family="sans-serif" font-size="13" font-weight="bold" lengthAdjust="spacing" textLength="14" x="453.5" y="1061.8936">22</text><text fill="#000000" font-family="sans-serif" font-size="13" lengthAdjust="spacing" textLength="32" x="471.5" y="1061.8936">result</text><polygon fill="#181818" points="75.5,1093.1016,65.5,1097.1016,75.5,1101.1016,71.5,1097.1016" style="stroke:#181818;stroke-width:1.0;"/><line style="stroke:#181818;stroke-width:1.0;stroke-dasharray:2.0,2.0;" x1="69.5" x2="430.5" y1="1097.1016" y2="1097.1016"/><text fill="#000000" font-family="sans-serif" font-size="13" font-weight="bold" lengthAdjust="spacing" textLength="14" x="81.5" y="1092.2451">23</text><text fill="#000000" font-family="sans-serif" font-size="13" lengthAdjust="spacing" textLength="152" x="99.5" y="1092.2451">informs operation success</text><!--MD5=[68c52e3b1d7ddbb3de32d28ae8d8e156]
@startuml

autonumber

actor Administrator as A

participant ":SpecifyVaccineAndAdminProcessUI" as UI
participant ":SpecifyVaccineAndAdminProcessController" as CTRL
participant "company\n:Company" as C
participant "administrationProcess\n:AdministrationProcess" as AP
participant "vaccine\n:Vaccine" as V
participant "vaccineAndAdminProcessDto\n:VaccineAndAdminProcessDto" as DTO

activate A
A -> UI :asks to specify a new vac and its administration process
activate UI
UI - -> A : requests data (id, name, brand, vaccineType)
deactivate UI

A -> UI : inputs requested data

activate UI

loop while adding age groups
 UI - -> A : requests data (age limits, number of doses,\n vac dosage, time interval between vaccines )

deactivate UI
note right
data for the Administration Process
end note


A -> UI : types requested data
activate UI

end



activate UI
UI -> CTRL : specifyNewVaccineAndAdminProcess(vaccineAndAdminProcessDto)

activate CTRL
CTRL -> C : specifyNewVaccineAndAdminProcess(vaccineAndAdminProcessDto)

activate C
C -> AP : adminProcess = create(ageGroups, numberOfDoses, dosage, timeIntervalBetweenVaccines)

note over C, DTO : Several interactions to extract data from DTO.


activate AP
deactivate AP

C -> AP : validateAdministrationProcess(adminProcess)
activate AP
deactivate AP


C -> V : vac = create(name, id, brand, adminProcess, vaccineType)
note over C, DTO : Several interactions to extract data from DTO.

activate V
deactivate V

C -> V : validateVaccine(vac)
activate V
deactivate V
C - -> CTRL : result
CTRL - -> UI : result
deactivate CTRL
deactivate C
UI - -> A : shows the data and requests confirmation
deactivate UI
A -> UI : confirms the data
activate UI
UI - -> CTRL : saveVaccine(vaccineAndAdminProcessDto)

activate CTRL

CTRL -> C : saveVaccine(vaccineAndAdminProcessDto)

activate C
C -> AP : adminProcess = createAdministrationProcess(adminProcess)
activate AP
deactivate AP
C -> V :vac = create(name, id, brand, adminProcess, vaccineType)
activate V
deactivate V

C -> C : addVaccine(vac)



C - -> CTRL : result
CTRL - - -> UI : result
UI - -> A : informs operation success
deactivate UI
deactivate A
@enduml

PlantUML version 1.2022.4(Sat Apr 09 14:29:17 BST 2022)
(GPL source distribution)
Java Runtime: OpenJDK Runtime Environment
JVM: OpenJDK 64-Bit Server VM
Default Encoding: Cp1252
Language: en
Country: US
--></g></svg>