<?xml version="1.0" encoding="UTF-8" standalone="no"?><svg xmlns="http://www.w3.org/2000/svg" xmlns:xlink="http://www.w3.org/1999/xlink" contentScriptType="application/ecmascript" contentStyleType="text/css" height="426px" preserveAspectRatio="none" style="width:451px;height:426px;background:#FFFFFF;" version="1.1" viewBox="0 0 451 426" width="451px" zoomAndPan="magnify"><defs><filter height="300%" id="f1ll21fb6v4soz" width="300%" x="-1" y="-1"><feGaussianBlur result="blurOut" stdDeviation="2.0"/><feColorMatrix in="blurOut" result="blurOut2" type="matrix" values="0 0 0 0 0 0 0 0 0 0 0 0 0 0 0 0 0 0 .4 0"/><feOffset dx="4.0" dy="4.0" in="blurOut2" result="blurOut3"/><feBlend in="SourceGraphic" in2="blurOut3" mode="normal"/></filter></defs><g><rect fill="#FFFFFF" filter="url(#f1ll21fb6v4soz)" height="222.8125" style="stroke:#A80036;stroke-width:1.0;" width="10" x="59.5" y="99.6094"/><rect fill="#FFFFFF" filter="url(#f1ll21fb6v4soz)" height="30.3516" style="stroke:#A80036;stroke-width:1.0;" width="10" x="388.5" y="121.9609"/><rect fill="#FFFFFF" filter="url(#f1ll21fb6v4soz)" height="87.0547" style="stroke:#A80036;stroke-width:1.0;" width="10" x="388.5" y="182.6641"/><rect fill="#FFFFFF" filter="url(#f1ll21fb6v4soz)" height="30.3516" style="stroke:#A80036;stroke-width:1.0;" width="10" x="388.5" y="292.0703"/><rect fill="#FFFFFF" filter="url(#f1ll21fb6v4soz)" height="65.0547" style="stroke:#000000;stroke-width:2.0;" width="427.5" x="10" y="197.6641"/><line style="stroke:#A80036;stroke-width:1.0;stroke-dasharray:5.0,5.0;" x1="64" x2="64" y1="89.6094" y2="340.4219"/><line style="stroke:#A80036;stroke-width:1.0;stroke-dasharray:5.0,5.0;" x1="393.5" x2="393.5" y1="89.6094" y2="340.4219"/><text fill="#000000" font-family="sans-serif" font-size="14" lengthAdjust="spacing" textLength="83" x="20" y="86.5332">Administrator</text><ellipse cx="64.5" cy="15" fill="#FEFECE" filter="url(#f1ll21fb6v4soz)" rx="8" ry="8" style="stroke:#A80036;stroke-width:2.0;"/><path d="M64.5,23 L64.5,50 M51.5,31 L77.5,31 M64.5,50 L51.5,65 M64.5,50 L77.5,65 " fill="none" filter="url(#f1ll21fb6v4soz)" style="stroke:#A80036;stroke-width:2.0;"/><text fill="#000000" font-family="sans-serif" font-size="14" lengthAdjust="spacing" textLength="83" x="20" y="353.9551">Administrator</text><ellipse cx="64.5" cy="367.0313" fill="#FEFECE" filter="url(#f1ll21fb6v4soz)" rx="8" ry="8" style="stroke:#A80036;stroke-width:2.0;"/><path d="M64.5,375.0313 L64.5,402.0313 M51.5,383.0313 L77.5,383.0313 M64.5,402.0313 L51.5,417.0313 M64.5,402.0313 L77.5,417.0313 " fill="none" filter="url(#f1ll21fb6v4soz)" style="stroke:#A80036;stroke-width:2.0;"/><rect fill="#FEFECE" filter="url(#f1ll21fb6v4soz)" height="31.6094" style="stroke:#A80036;stroke-width:1.5;" width="64" x="359.5" y="53"/><text fill="#000000" font-family="sans-serif" font-size="14" lengthAdjust="spacing" textLength="50" x="366.5" y="74.5332">:System</text><rect fill="#FEFECE" filter="url(#f1ll21fb6v4soz)" height="31.6094" style="stroke:#A80036;stroke-width:1.5;" width="64" x="359.5" y="339.4219"/><text fill="#000000" font-family="sans-serif" font-size="14" lengthAdjust="spacing" textLength="50" x="366.5" y="360.9551">:System</text><rect fill="#FFFFFF" filter="url(#f1ll21fb6v4soz)" height="222.8125" style="stroke:#A80036;stroke-width:1.0;" width="10" x="59.5" y="99.6094"/><rect fill="#FFFFFF" filter="url(#f1ll21fb6v4soz)" height="30.3516" style="stroke:#A80036;stroke-width:1.0;" width="10" x="388.5" y="121.9609"/><rect fill="#FFFFFF" filter="url(#f1ll21fb6v4soz)" height="87.0547" style="stroke:#A80036;stroke-width:1.0;" width="10" x="388.5" y="182.6641"/><rect fill="#FFFFFF" filter="url(#f1ll21fb6v4soz)" height="30.3516" style="stroke:#A80036;stroke-width:1.0;" width="10" x="388.5" y="292.0703"/><polygon fill="#A80036" points="376.5,117.9609,386.5,121.9609,376.5,125.9609,380.5,121.9609" style="stroke:#A80036;stroke-width:1.0;"/><line style="stroke:#A80036;stroke-width:1.0;" x1="69.5" x2="382.5" y1="121.9609" y2="121.9609"/><text fill="#000000" font-family="sans-serif" font-size="13" font-weight="bold" lengthAdjust="spacing" textLength="7" x="76.5" y="117.1045">1</text><text fill="#000000" font-family="sans-serif" font-size="13" lengthAdjust="spacing" textLength="173" x="87.5" y="117.1045">asks to specify a new vaccine</text><polygon fill="#A80036" points="80.5,148.3125,70.5,152.3125,80.5,156.3125,76.5,152.3125" style="stroke:#A80036;stroke-width:1.0;"/><line style="stroke:#A80036;stroke-width:1.0;stroke-dasharray:2.0,2.0;" x1="74.5" x2="392.5" y1="152.3125" y2="152.3125"/><text fill="#000000" font-family="sans-serif" font-size="13" font-weight="bold" lengthAdjust="spacing" textLength="7" x="86.5" y="147.4561">2</text><text fill="#000000" font-family="sans-serif" font-size="13" lengthAdjust="spacing" textLength="206" x="97.5" y="147.4561">requests data (name of the vaccine)</text><polygon fill="#A80036" points="376.5,178.6641,386.5,182.6641,376.5,186.6641,380.5,182.6641" style="stroke:#A80036;stroke-width:1.0;"/><line style="stroke:#A80036;stroke-width:1.0;" x1="69.5" x2="382.5" y1="182.6641" y2="182.6641"/><text fill="#000000" font-family="sans-serif" font-size="13" font-weight="bold" lengthAdjust="spacing" textLength="7" x="76.5" y="177.8076">3</text><text fill="#000000" font-family="sans-serif" font-size="13" lengthAdjust="spacing" textLength="125" x="87.5" y="177.8076">inputs requested data</text><path d="M10,197.6641 L83,197.6641 L83,205.6641 L73,215.6641 L10,215.6641 L10,197.6641 " fill="#EEEEEE" style="stroke:#000000;stroke-width:1.0;"/><rect fill="none" height="65.0547" style="stroke:#000000;stroke-width:2.0;" width="427.5" x="10" y="197.6641"/><text fill="#000000" font-family="sans-serif" font-size="13" font-weight="bold" lengthAdjust="spacing" textLength="28" x="25" y="212.1592">loop</text><text fill="#000000" font-family="sans-serif" font-size="11" font-weight="bold" lengthAdjust="spacing" textLength="144" x="98" y="211.083">[while adding age groups]</text><polygon fill="#A80036" points="80.5,250.7188,70.5,254.7188,80.5,258.7188,76.5,254.7188" style="stroke:#A80036;stroke-width:1.0;"/><line style="stroke:#A80036;stroke-width:1.0;stroke-dasharray:2.0,2.0;" x1="74.5" x2="387.5" y1="254.7188" y2="254.7188"/><text fill="#000000" font-family="sans-serif" font-size="13" font-weight="bold" lengthAdjust="spacing" textLength="7" x="86.5" y="241.6865">4</text><text fill="#000000" font-family="sans-serif" font-size="13" lengthAdjust="spacing" textLength="251" x="97.5" y="233.5107">requests data (age limits, number of doses,</text><text fill="#000000" font-family="sans-serif" font-size="13" lengthAdjust="spacing" textLength="280" x="101.5" y="249.8623">vaccine dosage, time interval between vaccines )</text><polygon fill="#A80036" points="376.5,288.0703,386.5,292.0703,376.5,296.0703,380.5,292.0703" style="stroke:#A80036;stroke-width:1.0;"/><line style="stroke:#A80036;stroke-width:1.0;" x1="69.5" x2="382.5" y1="292.0703" y2="292.0703"/><text fill="#000000" font-family="sans-serif" font-size="13" font-weight="bold" lengthAdjust="spacing" textLength="7" x="76.5" y="287.2139">5</text><text fill="#000000" font-family="sans-serif" font-size="13" lengthAdjust="spacing" textLength="122" x="87.5" y="287.2139">types requested data</text><polygon fill="#A80036" points="75.5,318.4219,65.5,322.4219,75.5,326.4219,71.5,322.4219" style="stroke:#A80036;stroke-width:1.0;"/><line style="stroke:#A80036;stroke-width:1.0;stroke-dasharray:2.0,2.0;" x1="69.5" x2="392.5" y1="322.4219" y2="322.4219"/><text fill="#000000" font-family="sans-serif" font-size="13" font-weight="bold" lengthAdjust="spacing" textLength="7" x="81.5" y="317.5654">6</text><text fill="#000000" font-family="sans-serif" font-size="13" lengthAdjust="spacing" textLength="152" x="92.5" y="317.5654">informs operation success</text><!--MD5=[d39b3774451b91ef8fc2ba8bfbf01136]
@startuml

autonumber
actor "Administrator" as A

activate A
A -> ":System" : asks to specify a new vaccine

activate ":System"
":System" - -> A : requests data (name of the vaccine)
deactivate ":System"

A -> ":System" : inputs requested data

activate ":System"

loop while adding age groups
 ":System" - -> A : requests data (age limits, number of doses,\n vaccine dosage, time interval between vaccines )
end

deactivate ":System"

A -> ":System" : types requested data
activate ":System"
":System" - -> A : informs operation success
deactivate ":System"

deactivate A

@enduml

PlantUML version 1.2022.1(Tue Feb 01 18:19:58 GMT 2022)
(GPL source distribution)
Java Runtime: OpenJDK Runtime Environment
JVM: OpenJDK 64-Bit Server VM
Default Encoding: Cp1252
Language: en
Country: US
--></g></svg>