<?xml version="1.0" encoding="UTF-8" standalone="no"?><svg xmlns="http://www.w3.org/2000/svg" xmlns:xlink="http://www.w3.org/1999/xlink" contentStyleType="text/css" height="271px" preserveAspectRatio="none" style="width:869px;height:271px;background:#FFFFFF;" version="1.1" viewBox="0 0 869 271" width="869px" zoomAndPan="magnify"><defs/><g><!--MD5=[da547346deef918ea16944ba046651ef]
class Administrator--><g id="elem_Administrator"><rect codeLine="7" fill="#F1F1F1" height="40" id="Administrator" rx="2.5" ry="2.5" style="stroke:#181818;stroke-width:0.5;" width="115" x="198" y="119"/><ellipse cx="213" cy="135" fill="#ADD1B2" rx="11" ry="11" style="stroke:#181818;stroke-width:1.0;"/><path d="M215,131.5 Q215.2031,131 215.4375,130.75 Q215.6719,130.5 215.9375,130.5 Q216.4063,130.5 216.7031,130.7813 Q217,131.0625 217,131.7188 L217,133.2813 Q217,133.9375 216.7188,134.2188 Q216.4375,134.5 216,134.5 Q215.6094,134.5 215.3594,134.3281 Q215.1094,134.1563 215,133.7031 Q214.9531,133.3906 214.7813,133.2188 Q214.4688,132.8906 213.9063,132.7031 Q213.3438,132.5 212.7813,132.5 Q212.0781,132.5 211.4844,132.7813 Q210.9063,133.0625 210.4531,133.6875 Q210,134.3125 210,135.1719 L210,136.0938 Q210,137.125 210.8438,137.8125 Q211.6875,138.5 213.1875,138.5 Q214.0781,138.5 214.7031,138.2969 Q215.0625,138.1875 215.4688,137.8281 Q215.7344,137.625 215.875,137.5625 Q216.0156,137.5 216.1875,137.5 Q216.5156,137.5 216.75,137.7656 Q217,138.0156 217,138.375 Q217,138.7188 216.6563,139.125 Q216.1563,139.7188 215.3594,140.0469 Q214.3125,140.5 213.0313,140.5 Q211.5313,140.5 210.3281,139.9063 Q209.3594,139.4375 208.6719,138.4219 Q208,137.4063 208,136.2031 L208,135.1094 Q208,133.8594 208.5938,132.7656 Q209.2031,131.6719 210.25,131.0938 Q211.3125,130.5 212.5,130.5 Q213.2188,130.5 213.8438,130.75 Q214.4688,131 215,131.5 Z " fill="#000000"/><text fill="#000000" font-family="sans-serif" font-size="14" lengthAdjust="spacing" textLength="83" x="227" y="140.7285">Administrator</text><line style="stroke:#181818;stroke-width:0.5;" x1="199" x2="312" y1="151" y2="151"/></g><!--MD5=[19e445fc4d3b48519cbe33da05496394]
class Vaccine--><g id="elem_Vaccine"><rect codeLine="11" fill="#F1F1F1" height="92.8281" id="Vaccine" rx="2.5" ry="2.5" style="stroke:#181818;stroke-width:0.5;" width="82" x="466" y="92.5"/><ellipse cx="481" cy="108.5" fill="#ADD1B2" rx="11" ry="11" style="stroke:#181818;stroke-width:1.0;"/><path d="M483,105 Q483.2031,104.5 483.4375,104.25 Q483.6719,104 483.9375,104 Q484.4063,104 484.7031,104.2813 Q485,104.5625 485,105.2188 L485,106.7813 Q485,107.4375 484.7188,107.7188 Q484.4375,108 484,108 Q483.6094,108 483.3594,107.8281 Q483.1094,107.6563 483,107.2031 Q482.9531,106.8906 482.7813,106.7188 Q482.4688,106.3906 481.9063,106.2031 Q481.3438,106 480.7813,106 Q480.0781,106 479.4844,106.2813 Q478.9063,106.5625 478.4531,107.1875 Q478,107.8125 478,108.6719 L478,109.5938 Q478,110.625 478.8438,111.3125 Q479.6875,112 481.1875,112 Q482.0781,112 482.7031,111.7969 Q483.0625,111.6875 483.4688,111.3281 Q483.7344,111.125 483.875,111.0625 Q484.0156,111 484.1875,111 Q484.5156,111 484.75,111.2656 Q485,111.5156 485,111.875 Q485,112.2188 484.6563,112.625 Q484.1563,113.2188 483.3594,113.5469 Q482.3125,114 481.0313,114 Q479.5313,114 478.3281,113.4063 Q477.3594,112.9375 476.6719,111.9219 Q476,110.9063 476,109.7031 L476,108.6094 Q476,107.3594 476.5938,106.2656 Q477.2031,105.1719 478.25,104.5938 Q479.3125,104 480.5,104 Q481.2188,104 481.8438,104.25 Q482.4688,104.5 483,105 Z " fill="#000000"/><text fill="#000000" font-family="sans-serif" font-size="14" lengthAdjust="spacing" textLength="50" x="495" y="114.2285">Vaccine</text><line style="stroke:#181818;stroke-width:0.5;" x1="467" x2="547" y1="124.5" y2="124.5"/><text fill="#000000" font-family="sans-serif" font-size="14" lengthAdjust="spacing" textLength="40" x="472" y="143.0332">-name</text><text fill="#000000" font-family="sans-serif" font-size="14" lengthAdjust="spacing" textLength="16" x="472" y="160.6426">-id</text><text fill="#000000" font-family="sans-serif" font-size="14" lengthAdjust="spacing" textLength="42" x="472" y="178.252">-brand</text></g><!--MD5=[a2530d24bafc45bb45314d96545aa194]
class AdministrationProcess--><g id="elem_AdministrationProcess"><rect codeLine="17" fill="#F1F1F1" height="110.4375" id="AdministrationProcess" rx="2.5" ry="2.5" style="stroke:#181818;stroke-width:0.5;" width="200" x="662" y="7"/><ellipse cx="689.6" cy="23" fill="#ADD1B2" rx="11" ry="11" style="stroke:#181818;stroke-width:1.0;"/><path d="M691.6,19.5 Q691.8031,19 692.0375,18.75 Q692.2719,18.5 692.5375,18.5 Q693.0063,18.5 693.3031,18.7813 Q693.6,19.0625 693.6,19.7188 L693.6,21.2813 Q693.6,21.9375 693.3188,22.2188 Q693.0375,22.5 692.6,22.5 Q692.2094,22.5 691.9594,22.3281 Q691.7094,22.1563 691.6,21.7031 Q691.5531,21.3906 691.3813,21.2188 Q691.0688,20.8906 690.5063,20.7031 Q689.9438,20.5 689.3813,20.5 Q688.6781,20.5 688.0844,20.7813 Q687.5063,21.0625 687.0531,21.6875 Q686.6,22.3125 686.6,23.1719 L686.6,24.0938 Q686.6,25.125 687.4438,25.8125 Q688.2875,26.5 689.7875,26.5 Q690.6781,26.5 691.3031,26.2969 Q691.6625,26.1875 692.0688,25.8281 Q692.3344,25.625 692.475,25.5625 Q692.6156,25.5 692.7875,25.5 Q693.1156,25.5 693.35,25.7656 Q693.6,26.0156 693.6,26.375 Q693.6,26.7188 693.2563,27.125 Q692.7563,27.7188 691.9594,28.0469 Q690.9125,28.5 689.6313,28.5 Q688.1313,28.5 686.9281,27.9063 Q685.9594,27.4375 685.2719,26.4219 Q684.6,25.4063 684.6,24.2031 L684.6,23.1094 Q684.6,21.8594 685.1938,20.7656 Q685.8031,19.6719 686.85,19.0938 Q687.9125,18.5 689.1,18.5 Q689.8188,18.5 690.4438,18.75 Q691.0688,19 691.6,19.5 Z " fill="#000000"/><text fill="#000000" font-family="sans-serif" font-size="14" lengthAdjust="spacing" textLength="140" x="706.4" y="28.7285">AdministrationProcess</text><line style="stroke:#181818;stroke-width:0.5;" x1="663" x2="861" y1="39" y2="39"/><text fill="#000000" font-family="sans-serif" font-size="14" lengthAdjust="spacing" textLength="65" x="668" y="57.5332">-ageLimits</text><text fill="#000000" font-family="sans-serif" font-size="14" lengthAdjust="spacing" textLength="108" x="668" y="75.1426">-numberOfDoses</text><text fill="#000000" font-family="sans-serif" font-size="14" lengthAdjust="spacing" textLength="102" x="668" y="92.752">-vaccineDosage</text><text fill="#000000" font-family="sans-serif" font-size="14" lengthAdjust="spacing" textLength="188" x="668" y="110.3613">-timeIntervalBetweenVaccines</text></g><!--MD5=[0e501da62322464167c8ec4d233a6b7e]
class VaccineType--><g id="elem_VaccineType"><rect codeLine="25" fill="#F1F1F1" height="92.8281" id="VaccineType" rx="2.5" ry="2.5" style="stroke:#181818;stroke-width:0.5;" width="139" x="692.5" y="171.5"/><ellipse cx="718.75" cy="187.5" fill="#ADD1B2" rx="11" ry="11" style="stroke:#181818;stroke-width:1.0;"/><path d="M720.75,184 Q720.9531,183.5 721.1875,183.25 Q721.4219,183 721.6875,183 Q722.1563,183 722.4531,183.2813 Q722.75,183.5625 722.75,184.2188 L722.75,185.7813 Q722.75,186.4375 722.4688,186.7188 Q722.1875,187 721.75,187 Q721.3594,187 721.1094,186.8281 Q720.8594,186.6563 720.75,186.2031 Q720.7031,185.8906 720.5313,185.7188 Q720.2188,185.3906 719.6563,185.2031 Q719.0938,185 718.5313,185 Q717.8281,185 717.2344,185.2813 Q716.6563,185.5625 716.2031,186.1875 Q715.75,186.8125 715.75,187.6719 L715.75,188.5938 Q715.75,189.625 716.5938,190.3125 Q717.4375,191 718.9375,191 Q719.8281,191 720.4531,190.7969 Q720.8125,190.6875 721.2188,190.3281 Q721.4844,190.125 721.625,190.0625 Q721.7656,190 721.9375,190 Q722.2656,190 722.5,190.2656 Q722.75,190.5156 722.75,190.875 Q722.75,191.2188 722.4063,191.625 Q721.9063,192.2188 721.1094,192.5469 Q720.0625,193 718.7813,193 Q717.2813,193 716.0781,192.4063 Q715.1094,191.9375 714.4219,190.9219 Q713.75,189.9063 713.75,188.7031 L713.75,187.6094 Q713.75,186.3594 714.3438,185.2656 Q714.9531,184.1719 716,183.5938 Q717.0625,183 718.25,183 Q718.9688,183 719.5938,183.25 Q720.2188,183.5 720.75,184 Z " fill="#000000"/><text fill="#000000" font-family="sans-serif" font-size="14" lengthAdjust="spacing" textLength="82" x="735.25" y="193.2285">VaccineType</text><line style="stroke:#181818;stroke-width:0.5;" x1="693.5" x2="830.5" y1="203.5" y2="203.5"/><text fill="#000000" font-family="sans-serif" font-size="14" lengthAdjust="spacing" textLength="74" x="698.5" y="222.0332">-description</text><text fill="#000000" font-family="sans-serif" font-size="14" lengthAdjust="spacing" textLength="36" x="698.5" y="239.6426">-code</text><text fill="#000000" font-family="sans-serif" font-size="14" lengthAdjust="spacing" textLength="127" x="698.5" y="257.252">-vaccineTechnology</text></g><!--MD5=[9b956c59b16436292d60adff39fe4d1c]
class ApplicationUser--><g id="elem_ApplicationUser"><rect codeLine="31" fill="#F1F1F1" height="110.4375" id="ApplicationUser" rx="2.5" ry="2.5" style="stroke:#181818;stroke-width:0.5;" width="130" x="7" y="84"/><ellipse cx="22" cy="100" fill="#ADD1B2" rx="11" ry="11" style="stroke:#181818;stroke-width:1.0;"/><path d="M24,96.5 Q24.2031,96 24.4375,95.75 Q24.6719,95.5 24.9375,95.5 Q25.4063,95.5 25.7031,95.7813 Q26,96.0625 26,96.7188 L26,98.2813 Q26,98.9375 25.7188,99.2188 Q25.4375,99.5 25,99.5 Q24.6094,99.5 24.3594,99.3281 Q24.1094,99.1563 24,98.7031 Q23.9531,98.3906 23.7813,98.2188 Q23.4688,97.8906 22.9063,97.7031 Q22.3438,97.5 21.7813,97.5 Q21.0781,97.5 20.4844,97.7813 Q19.9063,98.0625 19.4531,98.6875 Q19,99.3125 19,100.1719 L19,101.0938 Q19,102.125 19.8438,102.8125 Q20.6875,103.5 22.1875,103.5 Q23.0781,103.5 23.7031,103.2969 Q24.0625,103.1875 24.4688,102.8281 Q24.7344,102.625 24.875,102.5625 Q25.0156,102.5 25.1875,102.5 Q25.5156,102.5 25.75,102.7656 Q26,103.0156 26,103.375 Q26,103.7188 25.6563,104.125 Q25.1563,104.7188 24.3594,105.0469 Q23.3125,105.5 22.0313,105.5 Q20.5313,105.5 19.3281,104.9063 Q18.3594,104.4375 17.6719,103.4219 Q17,102.4063 17,101.2031 L17,100.1094 Q17,98.8594 17.5938,97.7656 Q18.2031,96.6719 19.25,96.0938 Q20.3125,95.5 21.5,95.5 Q22.2188,95.5 22.8438,95.75 Q23.4688,96 24,96.5 Z " fill="#000000"/><text fill="#000000" font-family="sans-serif" font-size="14" lengthAdjust="spacing" textLength="98" x="36" y="105.7285">ApplicationUser</text><line style="stroke:#181818;stroke-width:0.5;" x1="8" x2="136" y1="116" y2="116"/><text fill="#000000" font-family="sans-serif" font-size="14" lengthAdjust="spacing" textLength="40" x="13" y="134.5332">-name</text><text fill="#000000" font-family="sans-serif" font-size="14" lengthAdjust="spacing" textLength="38" x="13" y="152.1426">-email</text><text fill="#000000" font-family="sans-serif" font-size="14" lengthAdjust="spacing" textLength="65" x="13" y="169.752">-password</text><text fill="#000000" font-family="sans-serif" font-size="14" lengthAdjust="spacing" textLength="29" x="13" y="187.3613">-role</text></g><!--MD5=[0e439f75a3d966f965fe5f237a1bacbe]
link Administrator to Vaccine--><g id="link_Administrator_Vaccine"><path codeLine="38" d="M313.12,139 C359.7,139 424.57,139 465.92,139 " fill="none" id="Administrator-Vaccine" style="stroke:#181818;stroke-width:1.0;"/><polygon fill="#000000" points="353,130.1758,343.9549,127.2369,343.9549,133.1147,353,130.1758" style="stroke:#000000;stroke-width:1.0;"/><text fill="#000000" font-family="sans-serif" font-size="13" lengthAdjust="spacing" textLength="78" x="357" y="135.4951">specifies new</text><text fill="#000000" font-family="sans-serif" font-size="13" lengthAdjust="spacing" textLength="7" x="320.951" y="153.5426">1</text><text fill="#000000" font-family="sans-serif" font-size="13" lengthAdjust="spacing" textLength="5" x="452.8849" y="154.0184">*</text></g><!--MD5=[25a400ed2d8aa756bd4209cb2645d428]
link Administrator to AdministrationProcess--><g id="link_Administrator_AdministrationProcess"><path codeLine="39" d="M308.99,118.92 C350.83,103.9 411.28,84.41 466,75 C530.54,63.9 604.13,60.64 661.67,60.16 " fill="none" id="Administrator-AdministrationProcess" style="stroke:#181818;stroke-width:1.0;"/><polygon fill="#000000" points="483.932,55.3541,474.5269,53.9416,475.4929,59.7395,483.932,55.3541" style="stroke:#000000;stroke-width:1.0;"/><text fill="#000000" font-family="sans-serif" font-size="13" lengthAdjust="spacing" textLength="51" x="488" y="61.4951">specifies</text><text fill="#000000" font-family="sans-serif" font-size="13" lengthAdjust="spacing" textLength="7" x="316.6746" y="108.2183">1</text><text fill="#000000" font-family="sans-serif" font-size="13" lengthAdjust="spacing" textLength="5" x="649.1184" y="74.1043">*</text></g><!--MD5=[d0b477519989ed3601cd00d052224350]
link Administrator to VaccineType--><g id="link_Administrator_VaccineType"><path codeLine="40" d="M294.97,159.11 C336.03,179.36 403.63,209.23 466,221 C542.5,235.44 632.16,231.67 692.38,226.23 " fill="none" id="Administrator-VaccineType" style="stroke:#181818;stroke-width:1.0;"/><polygon fill="#000000" points="483.9302,213.0085,475.5008,208.6042,474.522,214.4,483.9302,213.0085" style="stroke:#000000;stroke-width:1.0;"/><text fill="#000000" font-family="sans-serif" font-size="13" lengthAdjust="spacing" textLength="51" x="488" y="217.4951">specifies</text><text fill="#000000" font-family="sans-serif" font-size="13" lengthAdjust="spacing" textLength="7" x="298.0866" y="180.5605">1</text><text fill="#000000" font-family="sans-serif" font-size="13" lengthAdjust="spacing" textLength="5" x="679.4919" y="241.5289">*</text></g><!--MD5=[a98252b7739f22b1ddec3651c1c3aaea]
link Vaccine to AdministrationProcess--><g id="link_Vaccine_AdministrationProcess"><path codeLine="42" d="M548.09,126.8 C578.67,117.49 622.16,104.25 661.88,92.17 " fill="none" id="Vaccine-AdministrationProcess" style="stroke:#181818;stroke-width:1.0;"/><polygon fill="#000000" points="587.7834,91.72,578.2745,91.5419,579.9858,97.1651,587.7834,91.72" style="stroke:#000000;stroke-width:1.0;"/><text fill="#000000" font-family="sans-serif" font-size="13" lengthAdjust="spacing" textLength="39" x="592" y="98.4951">has an</text><text fill="#000000" font-family="sans-serif" font-size="13" lengthAdjust="spacing" textLength="7" x="556.0326" y="139.5936">1</text><text fill="#000000" font-family="sans-serif" font-size="13" lengthAdjust="spacing" textLength="7" x="646.9466" y="108.5842">1</text></g><!--MD5=[3568623adf67b2630dce9e60c05bd02a]
link Vaccine to VaccineType--><g id="link_Vaccine_VaccineType"><path codeLine="43" d="M548.09,151.52 C586.68,163.57 645.84,182.04 692.01,196.46 " fill="none" id="Vaccine-VaccineType" style="stroke:#181818;stroke-width:1.0;"/><polygon fill="#000000" points="587.7727,154.6661,580.0148,149.1647,578.2628,154.7754,587.7727,154.6661" style="stroke:#000000;stroke-width:1.0;"/><text fill="#000000" font-family="sans-serif" font-size="13" lengthAdjust="spacing" textLength="39" x="592" y="158.4951">has an</text><text fill="#000000" font-family="sans-serif" font-size="13" lengthAdjust="spacing" textLength="7" x="556.0326" y="168.7169">1</text><text fill="#000000" font-family="sans-serif" font-size="13" lengthAdjust="spacing" textLength="7" x="677.4313" y="208.5858">1</text></g><!--MD5=[66b8b66cc0d48364d094f14c216c75e8]
reverse link ApplicationUser to Administrator--><g id="link_ApplicationUser_Administrator"><path codeLine="44" d="M157.65,139 C171.29,139 185.11,139 197.89,139 " fill="none" id="ApplicationUser-backto-Administrator" style="stroke:#181818;stroke-width:1.0;"/><polygon fill="none" points="157.25,146,137.25,139,157.25,132,157.25,146" style="stroke:#181818;stroke-width:1.0;"/></g><!--MD5=[80defef8b85eadb85d8600618628eff3]
@startuml

hide methods
left to right direction
skinparam classAttributeIconSize 0


class Administrator {

}

class Vaccine{
    -name
    -id
    -brand
}

class AdministrationProcess {
    -ageLimits
    -numberOfDoses
    -vaccineDosage
    -timeIntervalBetweenVaccines

}

class VaccineType{
-description
-code
-vaccineTechnology
}

class ApplicationUser {
    -name
    -email
    -password
    -role
}

Administrator "1" - - "*" Vaccine: specifies new >
Administrator "1" - - "*" AdministrationProcess: specifies  >
Administrator "1" - - "*" VaccineType: specifies  >

Vaccine "1" - - "1" AdministrationProcess: has an >
Vaccine "1" - - "1" VaccineType: has an >
ApplicationUser  <|- - Administrator



@enduml

PlantUML version 1.2022.4(Sat Apr 09 14:29:17 BST 2022)
(GPL source distribution)
Java Runtime: OpenJDK Runtime Environment
JVM: OpenJDK 64-Bit Server VM
Default Encoding: Cp1252
Language: en
Country: US
--></g></svg>