<?xml version="1.0" encoding="UTF-8" standalone="no"?><svg xmlns="http://www.w3.org/2000/svg" xmlns:xlink="http://www.w3.org/1999/xlink" contentScriptType="application/ecmascript" contentStyleType="text/css" height="146px" preserveAspectRatio="none" style="width:808px;height:146px;background:#FFFFFF;" version="1.1" viewBox="0 0 808 146" width="808px" zoomAndPan="magnify"><defs><filter height="300%" id="f1e8eb5jhxrgc5" width="300%" x="-1" y="-1"><feGaussianBlur result="blurOut" stdDeviation="2.0"/><feColorMatrix in="blurOut" result="blurOut2" type="matrix" values="0 0 0 0 0 0 0 0 0 0 0 0 0 0 0 0 0 0 .4 0"/><feOffset dx="4.0" dy="4.0" in="blurOut2" result="blurOut3"/><feBlend in="SourceGraphic" in2="blurOut3" mode="normal"/></filter></defs><g><!--MD5=[da547346deef918ea16944ba046651ef]
class Administrator--><rect codeLine="7" fill="#FEFECE" filter="url(#f1e8eb5jhxrgc5)" height="40" id="Administrator" style="stroke:#A80036;stroke-width:1.5;" width="105" x="187" y="65"/><ellipse cx="202" cy="81" fill="#ADD1B2" rx="11" ry="11" style="stroke:#A80036;stroke-width:1.0;"/><path d="M204,77.5 Q204.2031,77 204.4375,76.75 Q204.6719,76.5 204.9375,76.5 Q205.4063,76.5 205.7031,76.7813 Q206,77.0625 206,77.7188 L206,79.2813 Q206,79.9375 205.7188,80.2188 Q205.4375,80.5 205,80.5 Q204.6094,80.5 204.3594,80.3281 Q204.1094,80.1563 204,79.7031 Q203.9531,79.3906 203.7813,79.2188 Q203.4688,78.8906 202.9063,78.7031 Q202.3438,78.5 201.7813,78.5 Q201.0781,78.5 200.4844,78.7813 Q199.9063,79.0625 199.4531,79.6875 Q199,80.3125 199,81.1719 L199,82.0938 Q199,83.125 199.8438,83.8125 Q200.6875,84.5 202.1875,84.5 Q203.0781,84.5 203.7031,84.2969 Q204.0625,84.1875 204.4688,83.8281 Q204.7344,83.625 204.875,83.5625 Q205.0156,83.5 205.1875,83.5 Q205.5156,83.5 205.75,83.7656 Q206,84.0156 206,84.375 Q206,84.7188 205.6563,85.125 Q205.1563,85.7188 204.3594,86.0469 Q203.3125,86.5 202.0313,86.5 Q200.5313,86.5 199.3281,85.9063 Q198.3594,85.4375 197.6719,84.4219 Q197,83.4063 197,82.2031 L197,81.1094 Q197,79.8594 197.5938,78.7656 Q198.2031,77.6719 199.25,77.0938 Q200.3125,76.5 201.5,76.5 Q202.2188,76.5 202.8438,76.75 Q203.4688,77 204,77.5 Z " fill="#000000"/><text fill="#000000" font-family="sans-serif" font-size="12" lengthAdjust="spacing" textLength="73" x="216" y="85.9102">Administrator</text><line style="stroke:#A80036;stroke-width:1.5;" x1="188" x2="291" y1="97" y2="97"/><!--MD5=[19e445fc4d3b48519cbe33da05496394]
class Vaccine--><rect codeLine="11" fill="#FEFECE" filter="url(#f1e8eb5jhxrgc5)" height="53.8359" id="Vaccine" style="stroke:#A80036;stroke-width:1.5;" width="75" x="445" y="7"/><ellipse cx="460" cy="23" fill="#ADD1B2" rx="11" ry="11" style="stroke:#A80036;stroke-width:1.0;"/><path d="M462,19.5 Q462.2031,19 462.4375,18.75 Q462.6719,18.5 462.9375,18.5 Q463.4063,18.5 463.7031,18.7813 Q464,19.0625 464,19.7188 L464,21.2813 Q464,21.9375 463.7188,22.2188 Q463.4375,22.5 463,22.5 Q462.6094,22.5 462.3594,22.3281 Q462.1094,22.1563 462,21.7031 Q461.9531,21.3906 461.7813,21.2188 Q461.4688,20.8906 460.9063,20.7031 Q460.3438,20.5 459.7813,20.5 Q459.0781,20.5 458.4844,20.7813 Q457.9063,21.0625 457.4531,21.6875 Q457,22.3125 457,23.1719 L457,24.0938 Q457,25.125 457.8438,25.8125 Q458.6875,26.5 460.1875,26.5 Q461.0781,26.5 461.7031,26.2969 Q462.0625,26.1875 462.4688,25.8281 Q462.7344,25.625 462.875,25.5625 Q463.0156,25.5 463.1875,25.5 Q463.5156,25.5 463.75,25.7656 Q464,26.0156 464,26.375 Q464,26.7188 463.6563,27.125 Q463.1563,27.7188 462.3594,28.0469 Q461.3125,28.5 460.0313,28.5 Q458.5313,28.5 457.3281,27.9063 Q456.3594,27.4375 455.6719,26.4219 Q455,25.4063 455,24.2031 L455,23.1094 Q455,21.8594 455.5938,20.7656 Q456.2031,19.6719 457.25,19.0938 Q458.3125,18.5 459.5,18.5 Q460.2188,18.5 460.8438,18.75 Q461.4688,19 462,19.5 Z " fill="#000000"/><text fill="#000000" font-family="sans-serif" font-size="12" lengthAdjust="spacing" textLength="43" x="474" y="27.9102">Vaccine</text><line style="stroke:#A80036;stroke-width:1.5;" x1="446" x2="519" y1="39" y2="39"/><text fill="#000000" font-family="sans-serif" font-size="11" lengthAdjust="spacing" textLength="30" x="451" y="54.4189">-name</text><!--MD5=[a2530d24bafc45bb45314d96545aa194]
class AdministrationProcess--><rect codeLine="15" fill="#FEFECE" filter="url(#f1e8eb5jhxrgc5)" height="95.3438" id="AdministrationProcess" style="stroke:#A80036;stroke-width:1.5;" width="160" x="634" y="37.5"/><ellipse cx="650.35" cy="53.5" fill="#ADD1B2" rx="11" ry="11" style="stroke:#A80036;stroke-width:1.0;"/><path d="M652.35,50 Q652.5531,49.5 652.7875,49.25 Q653.0219,49 653.2875,49 Q653.7563,49 654.0531,49.2813 Q654.35,49.5625 654.35,50.2188 L654.35,51.7813 Q654.35,52.4375 654.0688,52.7188 Q653.7875,53 653.35,53 Q652.9594,53 652.7094,52.8281 Q652.4594,52.6563 652.35,52.2031 Q652.3031,51.8906 652.1313,51.7188 Q651.8188,51.3906 651.2563,51.2031 Q650.6938,51 650.1313,51 Q649.4281,51 648.8344,51.2813 Q648.2563,51.5625 647.8031,52.1875 Q647.35,52.8125 647.35,53.6719 L647.35,54.5938 Q647.35,55.625 648.1938,56.3125 Q649.0375,57 650.5375,57 Q651.4281,57 652.0531,56.7969 Q652.4125,56.6875 652.8188,56.3281 Q653.0844,56.125 653.225,56.0625 Q653.3656,56 653.5375,56 Q653.8656,56 654.1,56.2656 Q654.35,56.5156 654.35,56.875 Q654.35,57.2188 654.0063,57.625 Q653.5063,58.2188 652.7094,58.5469 Q651.6625,59 650.3813,59 Q648.8813,59 647.6781,58.4063 Q646.7094,57.9375 646.0219,56.9219 Q645.35,55.9063 645.35,54.7031 L645.35,53.6094 Q645.35,52.3594 645.9438,51.2656 Q646.5531,50.1719 647.6,49.5938 Q648.6625,49 649.85,49 Q650.5688,49 651.1938,49.25 Q651.8188,49.5 652.35,50 Z " fill="#000000"/><text fill="#000000" font-family="sans-serif" font-size="12" lengthAdjust="spacing" textLength="125" x="664.65" y="58.4102">AdministrationProcess</text><line style="stroke:#A80036;stroke-width:1.5;" x1="635" x2="793" y1="69.5" y2="69.5"/><text fill="#000000" font-family="sans-serif" font-size="11" lengthAdjust="spacing" textLength="49" x="640" y="84.9189">-ageLimits</text><text fill="#000000" font-family="sans-serif" font-size="11" lengthAdjust="spacing" textLength="83" x="640" y="98.7549">-numberOfDoses</text><text fill="#000000" font-family="sans-serif" font-size="11" lengthAdjust="spacing" textLength="79" x="640" y="112.5908">-vaccineDosage</text><text fill="#000000" font-family="sans-serif" font-size="11" lengthAdjust="spacing" textLength="148" x="640" y="126.4268">-timeIntervalBetweenVaccines</text><!--MD5=[9b956c59b16436292d60adff39fe4d1c]
class ApplicationUser--><rect codeLine="23" fill="#FEFECE" filter="url(#f1e8eb5jhxrgc5)" height="95.3438" id="ApplicationUser" style="stroke:#A80036;stroke-width:1.5;" width="119" x="7" y="37.5"/><ellipse cx="22" cy="53.5" fill="#ADD1B2" rx="11" ry="11" style="stroke:#A80036;stroke-width:1.0;"/><path d="M24,50 Q24.2031,49.5 24.4375,49.25 Q24.6719,49 24.9375,49 Q25.4063,49 25.7031,49.2813 Q26,49.5625 26,50.2188 L26,51.7813 Q26,52.4375 25.7188,52.7188 Q25.4375,53 25,53 Q24.6094,53 24.3594,52.8281 Q24.1094,52.6563 24,52.2031 Q23.9531,51.8906 23.7813,51.7188 Q23.4688,51.3906 22.9063,51.2031 Q22.3438,51 21.7813,51 Q21.0781,51 20.4844,51.2813 Q19.9063,51.5625 19.4531,52.1875 Q19,52.8125 19,53.6719 L19,54.5938 Q19,55.625 19.8438,56.3125 Q20.6875,57 22.1875,57 Q23.0781,57 23.7031,56.7969 Q24.0625,56.6875 24.4688,56.3281 Q24.7344,56.125 24.875,56.0625 Q25.0156,56 25.1875,56 Q25.5156,56 25.75,56.2656 Q26,56.5156 26,56.875 Q26,57.2188 25.6563,57.625 Q25.1563,58.2188 24.3594,58.5469 Q23.3125,59 22.0313,59 Q20.5313,59 19.3281,58.4063 Q18.3594,57.9375 17.6719,56.9219 Q17,55.9063 17,54.7031 L17,53.6094 Q17,52.3594 17.5938,51.2656 Q18.2031,50.1719 19.25,49.5938 Q20.3125,49 21.5,49 Q22.2188,49 22.8438,49.25 Q23.4688,49.5 24,50 Z " fill="#000000"/><text fill="#000000" font-family="sans-serif" font-size="12" lengthAdjust="spacing" textLength="87" x="36" y="58.4102">ApplicationUser</text><line style="stroke:#A80036;stroke-width:1.5;" x1="8" x2="125" y1="69.5" y2="69.5"/><text fill="#000000" font-family="sans-serif" font-size="11" lengthAdjust="spacing" textLength="30" x="13" y="84.9189">-name</text><text fill="#000000" font-family="sans-serif" font-size="11" lengthAdjust="spacing" textLength="28" x="13" y="98.7549">-email</text><text fill="#000000" font-family="sans-serif" font-size="11" lengthAdjust="spacing" textLength="54" x="13" y="112.5908">-password</text><text fill="#000000" font-family="sans-serif" font-size="11" lengthAdjust="spacing" textLength="22" x="13" y="126.4268">-role</text><!--MD5=[0e439f75a3d966f965fe5f237a1bacbe]
link Administrator to Vaccine--><path codeLine="30" d="M292.2,74.06 C338.12,64.34 404.08,50.38 444.79,41.77 " fill="none" id="Administrator-Vaccine" style="stroke:#A80036;stroke-width:1.0;"/><polygon fill="#000000" points="331.8917,40.1406,322.4341,39.138,323.651,44.8885,331.8917,40.1406" style="stroke:#000000;stroke-width:1.0;"/><text fill="#000000" font-family="sans-serif" font-size="13" lengthAdjust="spacing" textLength="78" x="336" y="46.4951">specifies new</text><text fill="#000000" font-family="sans-serif" font-size="13" lengthAdjust="spacing" textLength="7" x="300.1031" y="87.1664">1</text><text fill="#000000" font-family="sans-serif" font-size="13" lengthAdjust="spacing" textLength="5" x="432.125" y="58.3204">*</text><!--MD5=[25a400ed2d8aa756bd4209cb2645d428]
link Administrator to AdministrationProcess--><path codeLine="31" d="M292,89.12 C348.07,93.11 440.39,98.27 520,96 C557.41,94.93 598.84,92.71 633.7,90.54 " fill="none" id="Administrator-AdministrationProcess" style="stroke:#A80036;stroke-width:1.0;"/><polygon fill="#000000" points="459.5,87.1966,450.4672,84.2201,450.4427,90.0979,459.5,87.1966" style="stroke:#000000;stroke-width:1.0;"/><text fill="#000000" font-family="sans-serif" font-size="13" lengthAdjust="spacing" textLength="51" x="463.5" y="92.4951">specifies</text><text fill="#000000" font-family="sans-serif" font-size="13" lengthAdjust="spacing" textLength="7" x="299.875" y="104.3442">1</text><text fill="#000000" font-family="sans-serif" font-size="13" lengthAdjust="spacing" textLength="5" x="621.0669" y="105.2837">*</text><!--MD5=[a98252b7739f22b1ddec3651c1c3aaea]
link Vaccine to AdministrationProcess--><path codeLine="32" d="M520.12,42.14 C550.62,48.92 595.14,58.81 633.73,67.38 " fill="none" id="Vaccine-AdministrationProcess" style="stroke:#A80036;stroke-width:1.0;"/><polygon fill="#000000" points="559.881,42.2602,551.6886,37.4295,550.4138,43.1675,559.881,42.2602" style="stroke:#000000;stroke-width:1.0;"/><text fill="#000000" font-family="sans-serif" font-size="13" lengthAdjust="spacing" textLength="39" x="564" y="46.4951">has an</text><text fill="#000000" font-family="sans-serif" font-size="13" lengthAdjust="spacing" textLength="7" x="527.9585" y="58.761">1</text><text fill="#000000" font-family="sans-serif" font-size="13" lengthAdjust="spacing" textLength="7" x="619.0075" y="79.9886">1</text><!--MD5=[66b8b66cc0d48364d094f14c216c75e8]
reverse link ApplicationUser to Administrator--><path codeLine="33" d="M146.74,85 C160.4,85 174.28,85 186.97,85 " fill="none" id="ApplicationUser-backto-Administrator" style="stroke:#A80036;stroke-width:1.0;"/><polygon fill="none" points="146.35,92,126.35,85,146.35,78,146.35,92" style="stroke:#A80036;stroke-width:1.0;"/><!--MD5=[48fe8e2b268bca8cfd6434335cddb35f]
@startuml

hide methods
left to right direction
skinparam classAttributeIconSize 0


class Administrator {

}

class Vaccine{
    -name
}

class AdministrationProcess {
    -ageLimits
    -numberOfDoses
    -vaccineDosage
    -timeIntervalBetweenVaccines

}

class ApplicationUser {
    -name
    -email
    -password
    -role
}

Administrator "1" - - "*" Vaccine: specifies new >
Administrator "1" - - "*" AdministrationProcess: specifies  >
Vaccine "1" - - "1" AdministrationProcess: has an >
ApplicationUser  <|- - Administrator



@enduml

PlantUML version 1.2022.1(Tue Feb 01 18:19:58 GMT 2022)
(GPL source distribution)
Java Runtime: OpenJDK Runtime Environment
JVM: OpenJDK 64-Bit Server VM
Default Encoding: Cp1252
Language: en
Country: US
--></g></svg>