<?xml version="1.0" encoding="UTF-8" standalone="no"?><svg xmlns="http://www.w3.org/2000/svg" xmlns:xlink="http://www.w3.org/1999/xlink" contentStyleType="text/css" height="1338px" preserveAspectRatio="none" style="width:1227px;height:1338px;background:#FFFFFF;" version="1.1" viewBox="0 0 1227 1338" width="1227px" zoomAndPan="magnify"><defs/><g><!--MD5=[b2e86da990ee9e769b8776cd15ea5c5f]
class ScheduleVaccineUI--><g id="elem_ScheduleVaccineUI"><rect codeLine="3" fill="#F1F1F1" height="259.3125" id="ScheduleVaccineUI" rx="2.5" ry="2.5" style="stroke:#181818;stroke-width:0.5;" width="514" x="574" y="7"/><ellipse cx="766.25" cy="23" fill="#ADD1B2" rx="11" ry="11" style="stroke:#181818;stroke-width:1.0;"/><path d="M768.25,19.5 Q768.4531,19 768.6875,18.75 Q768.9219,18.5 769.1875,18.5 Q769.6563,18.5 769.9531,18.7813 Q770.25,19.0625 770.25,19.7188 L770.25,21.2813 Q770.25,21.9375 769.9688,22.2188 Q769.6875,22.5 769.25,22.5 Q768.8594,22.5 768.6094,22.3281 Q768.3594,22.1563 768.25,21.7031 Q768.2031,21.3906 768.0313,21.2188 Q767.7188,20.8906 767.1563,20.7031 Q766.5938,20.5 766.0313,20.5 Q765.3281,20.5 764.7344,20.7813 Q764.1563,21.0625 763.7031,21.6875 Q763.25,22.3125 763.25,23.1719 L763.25,24.0938 Q763.25,25.125 764.0938,25.8125 Q764.9375,26.5 766.4375,26.5 Q767.3281,26.5 767.9531,26.2969 Q768.3125,26.1875 768.7188,25.8281 Q768.9844,25.625 769.125,25.5625 Q769.2656,25.5 769.4375,25.5 Q769.7656,25.5 770,25.7656 Q770.25,26.0156 770.25,26.375 Q770.25,26.7188 769.9063,27.125 Q769.4063,27.7188 768.6094,28.0469 Q767.5625,28.5 766.2813,28.5 Q764.7813,28.5 763.5781,27.9063 Q762.6094,27.4375 761.9219,26.4219 Q761.25,25.4063 761.25,24.2031 L761.25,23.1094 Q761.25,21.8594 761.8438,20.7656 Q762.4531,19.6719 763.5,19.0938 Q764.5625,18.5 765.75,18.5 Q766.4688,18.5 767.0938,18.75 Q767.7188,19 768.25,19.5 Z " fill="#000000"/><text fill="#000000" font-family="sans-serif" font-size="14" lengthAdjust="spacing" textLength="121" x="786.75" y="28.7285">ScheduleVaccineUI</text><line style="stroke:#181818;stroke-width:0.5;" x1="575" x2="1087" y1="39" y2="39"/><line style="stroke:#181818;stroke-width:0.5;" x1="575" x2="1087" y1="47" y2="47"/><text fill="#000000" font-family="sans-serif" font-size="14" lengthAdjust="spacing" textLength="39" x="580" y="65.5332">+run()</text><text fill="#000000" font-family="sans-serif" font-size="14" lengthAdjust="spacing" textLength="159" x="580" y="83.1426">-introduceSnsNumberUI()</text><text fill="#000000" font-family="sans-serif" font-size="14" lengthAdjust="spacing" textLength="370" x="580" y="100.752">-selectVaccineTypeHealthCareCenterUI(healthcareCenter)</text><text fill="#000000" font-family="sans-serif" font-size="14" lengthAdjust="spacing" textLength="260" x="580" y="118.3613">-selectVaccineTypeUI(vaccinationCenter)</text><text fill="#000000" font-family="sans-serif" font-size="14" lengthAdjust="spacing" textLength="208" x="580" y="135.9707">-selectDateUI(vaccinationCenter)</text><text fill="#000000" font-family="sans-serif" font-size="14" lengthAdjust="spacing" textLength="502" x="580" y="153.5801">-selectDateFromCurrentMonth(appointmentsList, slotsPerDay, vaccinesPerSlot)</text><text fill="#000000" font-family="sans-serif" font-size="14" lengthAdjust="spacing" textLength="481" x="580" y="171.1895">-selectDateFromNextMonth(appointmentsList, slotsPerDay, vaccinesPerSlot)</text><text fill="#000000" font-family="sans-serif" font-size="14" lengthAdjust="spacing" textLength="396" x="580" y="188.7988">-calculateSlotsPerDay(openingHour, closingHour, slotDuration)</text><text fill="#000000" font-family="sans-serif" font-size="14" lengthAdjust="spacing" textLength="442" x="580" y="206.4082">-dayHasAvailability(slotsPerDay, vaccinesPerSlot, date, appointments)</text><text fill="#000000" font-family="sans-serif" font-size="14" lengthAdjust="spacing" textLength="404" x="580" y="224.0176">-printAppointmentInfo(scheduledVaccineDto, vaccinationCenter)</text><text fill="#000000" font-family="sans-serif" font-size="14" lengthAdjust="spacing" textLength="435" x="580" y="241.627">-printValidAppointmentInfo(scheduledVaccineDto, vaccinationCenter)</text><text fill="#000000" font-family="sans-serif" font-size="14" lengthAdjust="spacing" textLength="162" x="580" y="259.2363">-printInvalidAppointment()</text></g><!--MD5=[f6c4ddcb8ab0ba42ee4498672e538bba]
class ScheduleVaccineController--><g id="elem_ScheduleVaccineController"><rect codeLine="18" fill="#F1F1F1" height="136.0469" id="ScheduleVaccineController" rx="2.5" ry="2.5" style="stroke:#181818;stroke-width:0.5;" width="639" x="511.5" y="327"/><ellipse cx="741.25" cy="343" fill="#ADD1B2" rx="11" ry="11" style="stroke:#181818;stroke-width:1.0;"/><path d="M743.25,339.5 Q743.4531,339 743.6875,338.75 Q743.9219,338.5 744.1875,338.5 Q744.6563,338.5 744.9531,338.7813 Q745.25,339.0625 745.25,339.7188 L745.25,341.2813 Q745.25,341.9375 744.9688,342.2188 Q744.6875,342.5 744.25,342.5 Q743.8594,342.5 743.6094,342.3281 Q743.3594,342.1563 743.25,341.7031 Q743.2031,341.3906 743.0313,341.2188 Q742.7188,340.8906 742.1563,340.7031 Q741.5938,340.5 741.0313,340.5 Q740.3281,340.5 739.7344,340.7813 Q739.1563,341.0625 738.7031,341.6875 Q738.25,342.3125 738.25,343.1719 L738.25,344.0938 Q738.25,345.125 739.0938,345.8125 Q739.9375,346.5 741.4375,346.5 Q742.3281,346.5 742.9531,346.2969 Q743.3125,346.1875 743.7188,345.8281 Q743.9844,345.625 744.125,345.5625 Q744.2656,345.5 744.4375,345.5 Q744.7656,345.5 745,345.7656 Q745.25,346.0156 745.25,346.375 Q745.25,346.7188 744.9063,347.125 Q744.4063,347.7188 743.6094,348.0469 Q742.5625,348.5 741.2813,348.5 Q739.7813,348.5 738.5781,347.9063 Q737.6094,347.4375 736.9219,346.4219 Q736.25,345.4063 736.25,344.2031 L736.25,343.1094 Q736.25,341.8594 736.8438,340.7656 Q737.4531,339.6719 738.5,339.0938 Q739.5625,338.5 740.75,338.5 Q741.4688,338.5 742.0938,338.75 Q742.7188,339 743.25,339.5 Z " fill="#000000"/><text fill="#000000" font-family="sans-serif" font-size="14" lengthAdjust="spacing" textLength="171" x="761.75" y="348.7285">ScheduleVaccineController</text><line style="stroke:#181818;stroke-width:0.5;" x1="512.5" x2="1149.5" y1="359" y2="359"/><line style="stroke:#181818;stroke-width:0.5;" x1="512.5" x2="1149.5" y1="367" y2="367"/><text fill="#000000" font-family="sans-serif" font-size="14" lengthAdjust="spacing" textLength="189" x="517.5" y="385.5332">+ScheduleVaccineController()</text><text fill="#000000" font-family="sans-serif" font-size="14" lengthAdjust="spacing" textLength="384" x="517.5" y="403.1426">+scheduleVaccine(scheduledVaccineDto, vaccinationCenter)</text><text fill="#000000" font-family="sans-serif" font-size="14" lengthAdjust="spacing" textLength="405" x="517.5" y="420.752">+validateAppointment(scheduledVaccineDto, vaccinationCenter)</text><text fill="#000000" font-family="sans-serif" font-size="14" lengthAdjust="spacing" textLength="627" x="517.5" y="438.3613">+validateAppointmentAccordingToAgeGroupAndTimeSinceLastDose(scheduledVaccineDto, center)</text><text fill="#000000" font-family="sans-serif" font-size="14" lengthAdjust="spacing" textLength="239" x="517.5" y="455.9707">-dataIsAllFilled(scheduledVaccineDto)</text></g><!--MD5=[de60e6d4f424ae4d0522096f76a59010]
class VaccinationCenter--><g id="elem_VaccinationCenter"><rect codeLine="27" fill="#F1F1F1" height="629.1094" id="VaccinationCenter" rx="2.5" ry="2.5" style="stroke:#181818;stroke-width:0.5;" width="1052" x="7" y="524"/><ellipse cx="470.75" cy="540" fill="#ADD1B2" rx="11" ry="11" style="stroke:#181818;stroke-width:1.0;"/><path d="M472.75,536.5 Q472.9531,536 473.1875,535.75 Q473.4219,535.5 473.6875,535.5 Q474.1563,535.5 474.4531,535.7813 Q474.75,536.0625 474.75,536.7188 L474.75,538.2813 Q474.75,538.9375 474.4688,539.2188 Q474.1875,539.5 473.75,539.5 Q473.3594,539.5 473.1094,539.3281 Q472.8594,539.1563 472.75,538.7031 Q472.7031,538.3906 472.5313,538.2188 Q472.2188,537.8906 471.6563,537.7031 Q471.0938,537.5 470.5313,537.5 Q469.8281,537.5 469.2344,537.7813 Q468.6563,538.0625 468.2031,538.6875 Q467.75,539.3125 467.75,540.1719 L467.75,541.0938 Q467.75,542.125 468.5938,542.8125 Q469.4375,543.5 470.9375,543.5 Q471.8281,543.5 472.4531,543.2969 Q472.8125,543.1875 473.2188,542.8281 Q473.4844,542.625 473.625,542.5625 Q473.7656,542.5 473.9375,542.5 Q474.2656,542.5 474.5,542.7656 Q474.75,543.0156 474.75,543.375 Q474.75,543.7188 474.4063,544.125 Q473.9063,544.7188 473.1094,545.0469 Q472.0625,545.5 470.7813,545.5 Q469.2813,545.5 468.0781,544.9063 Q467.1094,544.4375 466.4219,543.4219 Q465.75,542.4063 465.75,541.2031 L465.75,540.1094 Q465.75,538.8594 466.3438,537.7656 Q466.9531,536.6719 468,536.0938 Q469.0625,535.5 470.25,535.5 Q470.9688,535.5 471.5938,535.75 Q472.2188,536 472.75,536.5 Z " fill="#000000"/><text fill="#000000" font-family="sans-serif" font-size="14" lengthAdjust="spacing" textLength="116" x="491.25" y="545.7285">VaccinationCenter</text><line style="stroke:#181818;stroke-width:0.5;" x1="8" x2="1058" y1="556" y2="556"/><text fill="#000000" font-family="sans-serif" font-size="14" lengthAdjust="spacing" textLength="16" x="13" y="574.5332">-id</text><text fill="#000000" font-family="sans-serif" font-size="14" lengthAdjust="spacing" textLength="40" x="13" y="592.1426">-name</text><text fill="#000000" font-family="sans-serif" font-size="14" lengthAdjust="spacing" textLength="94" x="13" y="609.752">-phoneNumber</text><text fill="#000000" font-family="sans-serif" font-size="14" lengthAdjust="spacing" textLength="38" x="13" y="627.3613">-email</text><text fill="#000000" font-family="sans-serif" font-size="14" lengthAdjust="spacing" textLength="23" x="13" y="644.9707">-fax</text><text fill="#000000" font-family="sans-serif" font-size="14" lengthAdjust="spacing" textLength="52" x="13" y="662.5801">-website</text><text fill="#000000" font-family="sans-serif" font-size="14" lengthAdjust="spacing" textLength="86" x="13" y="680.1895">-openingHour</text><text fill="#000000" font-family="sans-serif" font-size="14" lengthAdjust="spacing" textLength="79" x="13" y="697.7988">-closingHour</text><text fill="#000000" font-family="sans-serif" font-size="14" lengthAdjust="spacing" textLength="81" x="13" y="715.4082">-slotDuration</text><text fill="#000000" font-family="sans-serif" font-size="14" lengthAdjust="spacing" textLength="106" x="13" y="733.0176">-vaccinesPerSlot</text><text fill="#000000" font-family="sans-serif" font-size="14" lengthAdjust="spacing" textLength="34" x="13" y="750.627">-road</text><text fill="#000000" font-family="sans-serif" font-size="14" lengthAdjust="spacing" textLength="56" x="13" y="768.2363">-zipCode</text><text fill="#000000" font-family="sans-serif" font-size="14" lengthAdjust="spacing" textLength="34" x="13" y="785.8457">-local</text><text fill="#000000" font-family="sans-serif" font-size="14" lengthAdjust="spacing" textLength="128" x="13" y="803.4551">centerCoordinatorID</text><text fill="#000000" font-family="sans-serif" font-size="14" lengthAdjust="spacing" textLength="73" x="13" y="821.0645">-arrivalsList</text><line style="stroke:#181818;stroke-width:0.5;" x1="8" x2="1058" y1="828.1406" y2="828.1406"/><text fill="#000000" font-family="sans-serif" font-size="14" lengthAdjust="spacing" textLength="1040" x="13" y="846.6738">+VaccinationCenter(id, name, phoneNumber, email, fax, website, openingHour, closingHour, slotDuration, vaccinesPerSlot, road, zipCode, local, centerCoordinatorID)</text><text fill="#000000" font-family="sans-serif" font-size="14" lengthAdjust="spacing" textLength="67" x="13" y="864.2832">+toString()</text><text fill="#000000" font-family="sans-serif" font-size="14" lengthAdjust="spacing" textLength="383" x="13" y="881.8926">+validateVaccinationCenterHours(openingHour, closingHour)</text><text fill="#000000" font-family="sans-serif" font-size="14" lengthAdjust="spacing" textLength="377" x="13" y="899.502">+validateWebsite(website, topLevelDomain, worldWideWeb)</text><text fill="#000000" font-family="sans-serif" font-size="14" lengthAdjust="spacing" textLength="134" x="13" y="917.1113">+validateEmail(email)</text><text fill="#000000" font-family="sans-serif" font-size="14" lengthAdjust="spacing" textLength="399" x="13" y="934.7207">+validatePhoneNumberAndFax(strPhoneNumberOrFaxNumber)</text><text fill="#000000" font-family="sans-serif" font-size="14" lengthAdjust="spacing" textLength="189" x="13" y="952.3301">+validateZipCode(strZipCode)</text><text fill="#000000" font-family="sans-serif" font-size="14" lengthAdjust="spacing" textLength="239" x="13" y="969.9395">+validateSlotDuration(strSlotDuration)</text><text fill="#000000" font-family="sans-serif" font-size="14" lengthAdjust="spacing" textLength="289" x="13" y="987.5488">+validateVaccinesPerSlot(strVaccinesPerSlot)</text><text fill="#000000" font-family="sans-serif" font-size="14" lengthAdjust="spacing" textLength="190" x="13" y="1005.1582">+validateVaccinationCenters()</text><text fill="#000000" font-family="sans-serif" font-size="14" lengthAdjust="spacing" textLength="59" x="13" y="1022.7676">+fullInfo()</text><text fill="#000000" font-family="sans-serif" font-size="14" lengthAdjust="spacing" textLength="225" x="13" y="1040.377">+addAppointment(newAppointment)</text><text fill="#000000" font-family="sans-serif" font-size="14" lengthAdjust="spacing" textLength="283" x="13" y="1057.9863">+validateAppointment(scheduledVaccineDto)</text><text fill="#000000" font-family="sans-serif" font-size="14" lengthAdjust="spacing" textLength="445" x="13" y="1075.5957">-centerHasAvailability(appointmentsList, scheduledVaccineDto, center)</text><text fill="#000000" font-family="sans-serif" font-size="14" lengthAdjust="spacing" textLength="527" x="13" y="1093.2051">+validateAppointmentAccordingToAgeGroupAndTimeSinceLastDose(dto, company)</text><text fill="#000000" font-family="sans-serif" font-size="14" lengthAdjust="spacing" textLength="488" x="13" y="1110.8145">+validateAppointmentAccordingToAdminProcess(snsUser, dto, takenVaccine)</text><text fill="#000000" font-family="sans-serif" font-size="14" lengthAdjust="spacing" textLength="327" x="13" y="1128.4238">-getUserAgeGroup(snsUser, administrationProcess)</text><text fill="#000000" font-family="sans-serif" font-size="14" lengthAdjust="spacing" textLength="327" x="13" y="1146.0332">-validateAgeGroup(snsUser, administrationProcess)</text></g><!--MD5=[19e445fc4d3b48519cbe33da05496394]
class Vaccine--><g id="elem_Vaccine"><rect codeLine="63" fill="#F1F1F1" height="100.8281" id="Vaccine" rx="2.5" ry="2.5" style="stroke:#181818;stroke-width:0.5;" width="100" x="483" y="1231"/><ellipse cx="506.1" cy="1247" fill="#ADD1B2" rx="11" ry="11" style="stroke:#181818;stroke-width:1.0;"/><path d="M508.1,1243.5 Q508.3031,1243 508.5375,1242.75 Q508.7719,1242.5 509.0375,1242.5 Q509.5063,1242.5 509.8031,1242.7813 Q510.1,1243.0625 510.1,1243.7188 L510.1,1245.2813 Q510.1,1245.9375 509.8188,1246.2188 Q509.5375,1246.5 509.1,1246.5 Q508.7094,1246.5 508.4594,1246.3281 Q508.2094,1246.1563 508.1,1245.7031 Q508.0531,1245.3906 507.8813,1245.2188 Q507.5688,1244.8906 507.0063,1244.7031 Q506.4438,1244.5 505.8813,1244.5 Q505.1781,1244.5 504.5844,1244.7813 Q504.0063,1245.0625 503.5531,1245.6875 Q503.1,1246.3125 503.1,1247.1719 L503.1,1248.0938 Q503.1,1249.125 503.9438,1249.8125 Q504.7875,1250.5 506.2875,1250.5 Q507.1781,1250.5 507.8031,1250.2969 Q508.1625,1250.1875 508.5688,1249.8281 Q508.8344,1249.625 508.975,1249.5625 Q509.1156,1249.5 509.2875,1249.5 Q509.6156,1249.5 509.85,1249.7656 Q510.1,1250.0156 510.1,1250.375 Q510.1,1250.7188 509.7563,1251.125 Q509.2563,1251.7188 508.4594,1252.0469 Q507.4125,1252.5 506.1313,1252.5 Q504.6313,1252.5 503.4281,1251.9063 Q502.4594,1251.4375 501.7719,1250.4219 Q501.1,1249.4063 501.1,1248.2031 L501.1,1247.1094 Q501.1,1245.8594 501.6938,1244.7656 Q502.3031,1243.6719 503.35,1243.0938 Q504.4125,1242.5 505.6,1242.5 Q506.3188,1242.5 506.9438,1242.75 Q507.5688,1243 508.1,1243.5 Z " fill="#000000"/><text fill="#000000" font-family="sans-serif" font-size="14" lengthAdjust="spacing" textLength="50" x="521.9" y="1252.7285">Vaccine</text><line style="stroke:#181818;stroke-width:0.5;" x1="484" x2="582" y1="1263" y2="1263"/><text fill="#000000" font-family="sans-serif" font-size="14" lengthAdjust="spacing" textLength="20" x="489" y="1281.5332">-id;</text><text fill="#000000" font-family="sans-serif" font-size="14" lengthAdjust="spacing" textLength="46" x="489" y="1299.1426">-brand;</text><text fill="#000000" font-family="sans-serif" font-size="14" lengthAdjust="spacing" textLength="88" x="489" y="1316.752">-vaccine type;</text><line style="stroke:#181818;stroke-width:0.5;" x1="484" x2="582" y1="1323.8281" y2="1323.8281"/></g><!--MD5=[dba9a92b96999febf7a21ca0aa8468a3]
class ScheduledVaccine--><g id="elem_ScheduledVaccine"><rect codeLine="69" fill="#F1F1F1" height="100.8281" id="ScheduledVaccine" rx="2.5" ry="2.5" style="stroke:#181818;stroke-width:0.5;" width="149" x="897.5" y="1231"/><ellipse cx="912.5" cy="1247" fill="#ADD1B2" rx="11" ry="11" style="stroke:#181818;stroke-width:1.0;"/><path d="M914.5,1243.5 Q914.7031,1243 914.9375,1242.75 Q915.1719,1242.5 915.4375,1242.5 Q915.9063,1242.5 916.2031,1242.7813 Q916.5,1243.0625 916.5,1243.7188 L916.5,1245.2813 Q916.5,1245.9375 916.2188,1246.2188 Q915.9375,1246.5 915.5,1246.5 Q915.1094,1246.5 914.8594,1246.3281 Q914.6094,1246.1563 914.5,1245.7031 Q914.4531,1245.3906 914.2813,1245.2188 Q913.9688,1244.8906 913.4063,1244.7031 Q912.8438,1244.5 912.2813,1244.5 Q911.5781,1244.5 910.9844,1244.7813 Q910.4063,1245.0625 909.9531,1245.6875 Q909.5,1246.3125 909.5,1247.1719 L909.5,1248.0938 Q909.5,1249.125 910.3438,1249.8125 Q911.1875,1250.5 912.6875,1250.5 Q913.5781,1250.5 914.2031,1250.2969 Q914.5625,1250.1875 914.9688,1249.8281 Q915.2344,1249.625 915.375,1249.5625 Q915.5156,1249.5 915.6875,1249.5 Q916.0156,1249.5 916.25,1249.7656 Q916.5,1250.0156 916.5,1250.375 Q916.5,1250.7188 916.1563,1251.125 Q915.6563,1251.7188 914.8594,1252.0469 Q913.8125,1252.5 912.5313,1252.5 Q911.0313,1252.5 909.8281,1251.9063 Q908.8594,1251.4375 908.1719,1250.4219 Q907.5,1249.4063 907.5,1248.2031 L907.5,1247.1094 Q907.5,1245.8594 908.0938,1244.7656 Q908.7031,1243.6719 909.75,1243.0938 Q910.8125,1242.5 912,1242.5 Q912.7188,1242.5 913.3438,1242.75 Q913.9688,1243 914.5,1243.5 Z " fill="#000000"/><text fill="#000000" font-family="sans-serif" font-size="14" lengthAdjust="spacing" textLength="117" x="926.5" y="1252.7285">ScheduledVaccine</text><line style="stroke:#181818;stroke-width:0.5;" x1="898.5" x2="1045.5" y1="1263" y2="1263"/><text fill="#000000" font-family="sans-serif" font-size="14" lengthAdjust="spacing" textLength="105" x="903.5" y="1281.5332">-snsUserNumber</text><text fill="#000000" font-family="sans-serif" font-size="14" lengthAdjust="spacing" textLength="33" x="903.5" y="1299.1426">-date</text><text fill="#000000" font-family="sans-serif" font-size="14" lengthAdjust="spacing" textLength="85" x="903.5" y="1316.752">-vaccineType</text><line style="stroke:#181818;stroke-width:0.5;" x1="898.5" x2="1045.5" y1="1323.8281" y2="1323.8281"/></g><!--MD5=[77f394cc6139a22c0e019720b3e71c2a]
link ScheduleVaccineUI to ScheduleVaccineController--><g id="link_ScheduleVaccineUI_ScheduleVaccineController"><path codeLine="76" d="M831,266.13 C831,285.16 831,304.18 831,321.51 " fill="none" id="ScheduleVaccineUI-to-ScheduleVaccineController" style="stroke:#181818;stroke-width:1.0;stroke-dasharray:7.0,7.0;"/><polygon fill="#181818" points="831,326.83,835,317.83,831,321.83,827,317.83,831,326.83" style="stroke:#181818;stroke-width:1.0;"/></g><!--MD5=[0d042facf6450482992b740b8d87904b]
link ScheduleVaccineController to VaccinationCenter--><g id="link_ScheduleVaccineController_VaccinationCenter"><path codeLine="77" d="M785.74,463.05 C774.37,479.9 761.4,499.12 747.47,519.75 " fill="none" id="ScheduleVaccineController-to-VaccinationCenter" style="stroke:#181818;stroke-width:1.0;stroke-dasharray:7.0,7.0;"/><polygon fill="#181818" points="744.67,523.9,753.0237,518.6832,747.4698,519.7574,746.3956,514.2035,744.67,523.9" style="stroke:#181818;stroke-width:1.0;"/></g><!--MD5=[40d7b2952f571adf3c15ceca43749525]
link ScheduleVaccineController to ScheduledVaccine--><g id="link_ScheduleVaccineController_ScheduledVaccine"><path codeLine="78" d="M1016,463.1 C1039.87,479.43 1061.14,499.48 1076,524 C1220.85,763.1 1169.79,889.65 1076,1153 C1065.7,1181.93 1045.71,1209.04 1025.99,1230.77 " fill="none" id="ScheduleVaccineController-ScheduledVaccine" style="stroke:#181818;stroke-width:1.0;"/><text fill="#000000" font-family="sans-serif" font-size="13" lengthAdjust="spacing" textLength="43" x="1168" y="843.9951">creates</text></g><!--MD5=[759c7f6dbf62b13e16002bff783a0fa8]
link VaccinationCenter to Vaccine--><g id="link_VaccinationCenter_Vaccine"><path codeLine="79" d="M533,1153.24 C533,1180.48 533,1205.39 533,1225.8 " fill="none" id="VaccinationCenter-to-Vaccine" style="stroke:#181818;stroke-width:1.0;stroke-dasharray:7.0,7.0;"/><polygon fill="#181818" points="533,1230.9,537,1221.9,533,1225.9,529,1221.9,533,1230.9" style="stroke:#181818;stroke-width:1.0;"/></g><!--MD5=[adcf0078a0299005c9f5ccec10b6ed04]
link VaccinationCenter to ScheduledVaccine--><g id="link_VaccinationCenter_ScheduledVaccine"><path codeLine="80" d="M845.32,1153.24 C873.12,1181.17 898.49,1206.65 919.09,1227.35 " fill="none" id="VaccinationCenter-to-ScheduledVaccine" style="stroke:#181818;stroke-width:1.0;"/><polygon fill="#181818" points="922.62,1230.9,919.1216,1221.6934,919.0988,1227.3502,913.4419,1227.3274,922.62,1230.9" style="stroke:#181818;stroke-width:1.0;"/><text fill="#000000" font-family="sans-serif" font-size="13" lengthAdjust="spacing" textLength="67" x="890" y="1197.4951">has a list of</text></g><!--MD5=[a26933899e23d06178ba897bd654525f]
@startuml
skinparam classAttributeIconSize 0

class ScheduleVaccineUI {
+run()
-introduceSnsNumberUI()
-selectVaccineTypeHealthCareCenterUI(healthcareCenter)
-selectVaccineTypeUI(vaccinationCenter)
-selectDateUI(vaccinationCenter)
-selectDateFromCurrentMonth(appointmentsList, slotsPerDay, vaccinesPerSlot)
-selectDateFromNextMonth(appointmentsList, slotsPerDay, vaccinesPerSlot)
-calculateSlotsPerDay(openingHour, closingHour, slotDuration)
-dayHasAvailability(slotsPerDay, vaccinesPerSlot, date, appointments)
-printAppointmentInfo(scheduledVaccineDto, vaccinationCenter)
-printValidAppointmentInfo(scheduledVaccineDto, vaccinationCenter)
-printInvalidAppointment()
}

class ScheduleVaccineController {
+ScheduleVaccineController()
+scheduleVaccine(scheduledVaccineDto, vaccinationCenter)
+validateAppointment(scheduledVaccineDto, vaccinationCenter)
+validateAppointmentAccordingToAgeGroupAndTimeSinceLastDose(scheduledVaccineDto, center)
-dataIsAllFilled(scheduledVaccineDto)
}


class VaccinationCenter {
-id
-name
-phoneNumber
-email
-fax
-website
-openingHour
-closingHour
-slotDuration
-vaccinesPerSlot
-road
-zipCode
-local
centerCoordinatorID
-arrivalsList
+VaccinationCenter(id, name, phoneNumber, email, fax, website, openingHour, closingHour, slotDuration, vaccinesPerSlot, road, zipCode, local, centerCoordinatorID)
+toString()
+validateVaccinationCenterHours(openingHour, closingHour)
+validateWebsite(website, topLevelDomain, worldWideWeb)
+validateEmail(email)
+validatePhoneNumberAndFax(strPhoneNumberOrFaxNumber)
+validateZipCode(strZipCode)
+validateSlotDuration(strSlotDuration)
+validateVaccinesPerSlot(strVaccinesPerSlot)
+validateVaccinationCenters()
+fullInfo()
+addAppointment(newAppointment)
+validateAppointment(scheduledVaccineDto)
-centerHasAvailability(appointmentsList, scheduledVaccineDto, center)
+validateAppointmentAccordingToAgeGroupAndTimeSinceLastDose(dto, company)
+validateAppointmentAccordingToAdminProcess(snsUser, dto, takenVaccine)
-getUserAgeGroup(snsUser, administrationProcess)
-validateAgeGroup(snsUser, administrationProcess)
}

class Vaccine {
-id;
-brand;
-vaccine type;
}

 class ScheduledVaccine {
 -snsUserNumber
 -date
 -vaccineType

 }

ScheduleVaccineUI ..> ScheduleVaccineController
ScheduleVaccineController ..> VaccinationCenter
ScheduleVaccineController - - ScheduledVaccine : creates
VaccinationCenter ..> Vaccine
VaccinationCenter - -> ScheduledVaccine : has a list of
@enduml

PlantUML version 1.2022.4(Sat Apr 09 14:29:17 BST 2022)
(GPL source distribution)
Java Runtime: OpenJDK Runtime Environment
JVM: OpenJDK 64-Bit Server VM
Default Encoding: Cp1252
Language: en
Country: US
--></g></svg>