<?xml version="1.0" encoding="UTF-8" standalone="no"?><svg xmlns="http://www.w3.org/2000/svg" xmlns:xlink="http://www.w3.org/1999/xlink" contentStyleType="text/css" height="1459px" preserveAspectRatio="none" style="width:2295px;height:1459px;background:#FFFFFF;" version="1.1" viewBox="0 0 2295 1459" width="2295px" zoomAndPan="magnify"><defs/><g><rect fill="#FFFFFF" height="1267.2266" style="stroke:#181818;stroke-width:1.0;" width="10" x="42" y="92.6094"/><rect fill="#FFFFFF" height="30.3516" style="stroke:#181818;stroke-width:1.0;" width="10" x="522" y="114.9609"/><rect fill="#FFFFFF" height="30.3516" style="stroke:#181818;stroke-width:1.0;" width="10" x="522" y="175.6641"/><rect fill="#FFFFFF" height="30.3516" style="stroke:#181818;stroke-width:1.0;" width="10" x="522" y="236.3672"/><rect fill="#FFFFFF" height="30.3516" style="stroke:#181818;stroke-width:1.0;" width="10" x="522" y="297.0703"/><rect fill="#FFFFFF" height="30.3516" style="stroke:#181818;stroke-width:1.0;" width="10" x="522" y="357.7734"/><rect fill="#FFFFFF" height="346.5156" style="stroke:#181818;stroke-width:1.0;" width="10" x="522" y="418.4766"/><rect fill="#FFFFFF" height="430.4375" style="stroke:#181818;stroke-width:1.0;" width="10" x="522" y="795.3438"/><rect fill="#FFFFFF" height="103.7031" style="stroke:#181818;stroke-width:1.0;" width="10" x="522" y="1256.1328"/><rect fill="#FFFFFF" height="28" style="stroke:#181818;stroke-width:1.0;" width="10" x="527" y="1294.4844"/><rect fill="#FFFFFF" height="285.8125" style="stroke:#181818;stroke-width:1.0;" width="10" x="941" y="448.8281"/><rect fill="#FFFFFF" height="28" style="stroke:#181818;stroke-width:1.0;" width="10" x="946" y="487.1797"/><rect fill="#FFFFFF" height="339.3828" style="stroke:#181818;stroke-width:1.0;" width="10" x="941" y="825.6953"/><rect fill="#FFFFFF" height="30.3516" style="stroke:#181818;stroke-width:1.0;" width="10" x="1242" y="673.9375"/><rect fill="#FFFFFF" height="30.3516" style="stroke:#181818;stroke-width:1.0;" width="10" x="1242" y="856.0469"/><rect fill="#FFFFFF" height="91.0547" style="stroke:#181818;stroke-width:1.0;" width="10" x="1242" y="1043.6719"/><rect fill="#FFFFFF" height="30.3516" style="stroke:#181818;stroke-width:1.0;" width="10" x="1507" y="613.2344"/><rect fill="#FFFFFF" height="66.7031" style="stroke:#181818;stroke-width:1.0;" width="10" x="1652" y="916.75"/><rect fill="#FFFFFF" height="30.3516" style="stroke:#181818;stroke-width:1.0;" width="10" x="2037.5" y="552.5313"/><rect fill="#FFFFFF" height="375.3828" style="stroke:#181818;stroke-width:1.0;" width="10" x="2037.5" y="993.4531"/><rect fill="#FFFFFF" height="30.3516" style="stroke:#181818;stroke-width:1.0;" width="10" x="2199.5" y="1074.0234"/><line style="stroke:#181818;stroke-width:0.5;stroke-dasharray:5.0,5.0;" x1="47" x2="47" y1="82.6094" y2="1377.8359"/><line style="stroke:#181818;stroke-width:0.5;stroke-dasharray:5.0,5.0;" x1="526.5" x2="526.5" y1="82.6094" y2="1377.8359"/><line style="stroke:#181818;stroke-width:0.5;stroke-dasharray:5.0,5.0;" x1="945.5" x2="945.5" y1="82.6094" y2="1377.8359"/><line style="stroke:#181818;stroke-width:0.5;stroke-dasharray:5.0,5.0;" x1="1247" x2="1247" y1="82.6094" y2="1377.8359"/><line style="stroke:#181818;stroke-width:0.5;stroke-dasharray:5.0,5.0;" x1="1511.5" x2="1511.5" y1="82.6094" y2="1377.8359"/><line style="stroke:#181818;stroke-width:0.5;stroke-dasharray:5.0,5.0;" x1="1656.5" x2="1656.5" y1="82.6094" y2="1377.8359"/><line style="stroke:#181818;stroke-width:0.5;stroke-dasharray:5.0,5.0;" x1="1844.5" x2="1844.5" y1="82.6094" y2="1377.8359"/><line style="stroke:#181818;stroke-width:0.5;stroke-dasharray:5.0,5.0;" x1="2042" x2="2042" y1="1001.2109" y2="1377.8359"/><line style="stroke:#181818;stroke-width:0.5;stroke-dasharray:5.0,5.0;" x1="2204" x2="2204" y1="82.6094" y2="1377.8359"/><text fill="#000000" font-family="sans-serif" font-size="14" lengthAdjust="spacing" textLength="78" x="5" y="79.5332">Receptionist</text><ellipse cx="47" cy="13.5" fill="#E2E2F0" rx="8" ry="8" style="stroke:#181818;stroke-width:0.5;"/><path d="M47,21.5 L47,48.5 M34,29.5 L60,29.5 M47,48.5 L34,63.5 M47,48.5 L60,63.5 " fill="none" style="stroke:#181818;stroke-width:0.5;"/><text fill="#000000" font-family="sans-serif" font-size="14" lengthAdjust="spacing" textLength="78" x="5" y="1391.3691">Receptionist</text><ellipse cx="47" cy="1402.9453" fill="#E2E2F0" rx="8" ry="8" style="stroke:#181818;stroke-width:0.5;"/><path d="M47,1410.9453 L47,1437.9453 M34,1418.9453 L60,1418.9453 M47,1437.9453 L34,1452.9453 M47,1437.9453 L60,1452.9453 " fill="none" style="stroke:#181818;stroke-width:0.5;"/><rect fill="#E2E2F0" height="31.6094" rx="2.5" ry="2.5" style="stroke:#181818;stroke-width:0.5;" width="139" x="457.5" y="50"/><text fill="#000000" font-family="sans-serif" font-size="14" lengthAdjust="spacing" textLength="125" x="464.5" y="71.5332">:ScheduleVaccineUI</text><rect fill="#E2E2F0" height="31.6094" rx="2.5" ry="2.5" style="stroke:#181818;stroke-width:0.5;" width="139" x="457.5" y="1376.8359"/><text fill="#000000" font-family="sans-serif" font-size="14" lengthAdjust="spacing" textLength="125" x="464.5" y="1398.3691">:ScheduleVaccineUI</text><rect fill="#E2E2F0" height="31.6094" rx="2.5" ry="2.5" style="stroke:#181818;stroke-width:0.5;" width="189" x="851.5" y="50"/><text fill="#000000" font-family="sans-serif" font-size="14" lengthAdjust="spacing" textLength="175" x="858.5" y="71.5332">:ScheduleVaccineController</text><rect fill="#E2E2F0" height="31.6094" rx="2.5" ry="2.5" style="stroke:#181818;stroke-width:0.5;" width="189" x="851.5" y="1376.8359"/><text fill="#000000" font-family="sans-serif" font-size="14" lengthAdjust="spacing" textLength="175" x="858.5" y="1398.3691">:ScheduleVaccineController</text><rect fill="#E2E2F0" height="49.2188" rx="2.5" ry="2.5" style="stroke:#181818;stroke-width:0.5;" width="134" x="1180" y="32.3906"/><text fill="#000000" font-family="sans-serif" font-size="14" lengthAdjust="spacing" textLength="114" x="1190" y="53.9238">vaccinationCenter</text><text fill="#000000" font-family="sans-serif" font-size="14" lengthAdjust="spacing" textLength="120" x="1187" y="71.5332">:VaccinationCenter</text><rect fill="#E2E2F0" height="49.2188" rx="2.5" ry="2.5" style="stroke:#181818;stroke-width:0.5;" width="134" x="1180" y="1376.8359"/><text fill="#000000" font-family="sans-serif" font-size="14" lengthAdjust="spacing" textLength="114" x="1190" y="1398.3691">vaccinationCenter</text><text fill="#000000" font-family="sans-serif" font-size="14" lengthAdjust="spacing" textLength="120" x="1187" y="1415.9785">:VaccinationCenter</text><rect fill="#E2E2F0" height="49.2188" rx="2.5" ry="2.5" style="stroke:#181818;stroke-width:0.5;" width="71" x="1476.5" y="32.3906"/><text fill="#000000" font-family="sans-serif" font-size="14" lengthAdjust="spacing" textLength="51" x="1486.5" y="53.9238">snsUser</text><text fill="#000000" font-family="sans-serif" font-size="14" lengthAdjust="spacing" textLength="57" x="1483.5" y="71.5332">:SnsUser</text><rect fill="#E2E2F0" height="49.2188" rx="2.5" ry="2.5" style="stroke:#181818;stroke-width:0.5;" width="71" x="1476.5" y="1376.8359"/><text fill="#000000" font-family="sans-serif" font-size="14" lengthAdjust="spacing" textLength="51" x="1486.5" y="1398.3691">snsUser</text><text fill="#000000" font-family="sans-serif" font-size="14" lengthAdjust="spacing" textLength="57" x="1483.5" y="1415.9785">:SnsUser</text><rect fill="#E2E2F0" height="49.2188" rx="2.5" ry="2.5" style="stroke:#181818;stroke-width:0.5;" width="199" x="1557.5" y="32.3906"/><text fill="#000000" font-family="sans-serif" font-size="14" lengthAdjust="spacing" textLength="185" x="1564.5" y="53.9238">scheduledVaccineDtoMapper</text><text fill="#000000" font-family="sans-serif" font-size="14" lengthAdjust="spacing" textLength="169" x="1572.5" y="71.5332">:ScheduledVaccineMapper</text><rect fill="#E2E2F0" height="49.2188" rx="2.5" ry="2.5" style="stroke:#181818;stroke-width:0.5;" width="199" x="1557.5" y="1376.8359"/><text fill="#000000" font-family="sans-serif" font-size="14" lengthAdjust="spacing" textLength="185" x="1564.5" y="1398.3691">scheduledVaccineDtoMapper</text><text fill="#000000" font-family="sans-serif" font-size="14" lengthAdjust="spacing" textLength="169" x="1572.5" y="1415.9785">:ScheduledVaccineMapper</text><rect fill="#E2E2F0" height="49.2188" rx="2.5" ry="2.5" style="stroke:#181818;stroke-width:0.5;" width="157" x="1766.5" y="32.3906"/><text fill="#000000" font-family="sans-serif" font-size="14" lengthAdjust="spacing" textLength="137" x="1776.5" y="53.9238">scheduledVaccineDto</text><text fill="#000000" font-family="sans-serif" font-size="14" lengthAdjust="spacing" textLength="143" x="1773.5" y="71.5332">:ScheduledVaccineDto</text><rect fill="#E2E2F0" height="49.2188" rx="2.5" ry="2.5" style="stroke:#181818;stroke-width:0.5;" width="157" x="1766.5" y="1376.8359"/><text fill="#000000" font-family="sans-serif" font-size="14" lengthAdjust="spacing" textLength="137" x="1776.5" y="1398.3691">scheduledVaccineDto</text><text fill="#000000" font-family="sans-serif" font-size="14" lengthAdjust="spacing" textLength="143" x="1773.5" y="1415.9785">:ScheduledVaccineDto</text><rect fill="#E2E2F0" height="49.2188" rx="2.5" ry="2.5" style="stroke:#181818;stroke-width:0.5;" width="135" x="1975" y="1376.8359"/><text fill="#000000" font-family="sans-serif" font-size="14" lengthAdjust="spacing" textLength="115" x="1985" y="1398.3691">scheduledVaccine</text><text fill="#000000" font-family="sans-serif" font-size="14" lengthAdjust="spacing" textLength="121" x="1982" y="1415.9785">:ScheduledVaccine</text><rect fill="#E2E2F0" height="49.2188" rx="2.5" ry="2.5" style="stroke:#181818;stroke-width:0.5;" width="169" x="2120" y="32.3906"/><text fill="#000000" font-family="sans-serif" font-size="14" lengthAdjust="spacing" textLength="107" x="2151" y="53.9238">appointmentsList</text><text fill="#000000" font-family="sans-serif" font-size="14" lengthAdjust="spacing" textLength="155" x="2127" y="71.5332">List&lt;ScheduledVaccine&gt;</text><rect fill="#E2E2F0" height="49.2188" rx="2.5" ry="2.5" style="stroke:#181818;stroke-width:0.5;" width="169" x="2120" y="1376.8359"/><text fill="#000000" font-family="sans-serif" font-size="14" lengthAdjust="spacing" textLength="107" x="2151" y="1398.3691">appointmentsList</text><text fill="#000000" font-family="sans-serif" font-size="14" lengthAdjust="spacing" textLength="155" x="2127" y="1415.9785">List&lt;ScheduledVaccine&gt;</text><rect fill="#FFFFFF" height="1267.2266" style="stroke:#181818;stroke-width:1.0;" width="10" x="42" y="92.6094"/><rect fill="#FFFFFF" height="30.3516" style="stroke:#181818;stroke-width:1.0;" width="10" x="522" y="114.9609"/><rect fill="#FFFFFF" height="30.3516" style="stroke:#181818;stroke-width:1.0;" width="10" x="522" y="175.6641"/><rect fill="#FFFFFF" height="30.3516" style="stroke:#181818;stroke-width:1.0;" width="10" x="522" y="236.3672"/><rect fill="#FFFFFF" height="30.3516" style="stroke:#181818;stroke-width:1.0;" width="10" x="522" y="297.0703"/><rect fill="#FFFFFF" height="30.3516" style="stroke:#181818;stroke-width:1.0;" width="10" x="522" y="357.7734"/><rect fill="#FFFFFF" height="346.5156" style="stroke:#181818;stroke-width:1.0;" width="10" x="522" y="418.4766"/><rect fill="#FFFFFF" height="430.4375" style="stroke:#181818;stroke-width:1.0;" width="10" x="522" y="795.3438"/><rect fill="#FFFFFF" height="103.7031" style="stroke:#181818;stroke-width:1.0;" width="10" x="522" y="1256.1328"/><rect fill="#FFFFFF" height="28" style="stroke:#181818;stroke-width:1.0;" width="10" x="527" y="1294.4844"/><rect fill="#FFFFFF" height="285.8125" style="stroke:#181818;stroke-width:1.0;" width="10" x="941" y="448.8281"/><rect fill="#FFFFFF" height="28" style="stroke:#181818;stroke-width:1.0;" width="10" x="946" y="487.1797"/><rect fill="#FFFFFF" height="339.3828" style="stroke:#181818;stroke-width:1.0;" width="10" x="941" y="825.6953"/><rect fill="#FFFFFF" height="30.3516" style="stroke:#181818;stroke-width:1.0;" width="10" x="1242" y="673.9375"/><rect fill="#FFFFFF" height="30.3516" style="stroke:#181818;stroke-width:1.0;" width="10" x="1242" y="856.0469"/><rect fill="#FFFFFF" height="91.0547" style="stroke:#181818;stroke-width:1.0;" width="10" x="1242" y="1043.6719"/><rect fill="#FFFFFF" height="30.3516" style="stroke:#181818;stroke-width:1.0;" width="10" x="1507" y="613.2344"/><rect fill="#FFFFFF" height="66.7031" style="stroke:#181818;stroke-width:1.0;" width="10" x="1652" y="916.75"/><rect fill="#FFFFFF" height="30.3516" style="stroke:#181818;stroke-width:1.0;" width="10" x="2037.5" y="552.5313"/><rect fill="#FFFFFF" height="375.3828" style="stroke:#181818;stroke-width:1.0;" width="10" x="2037.5" y="993.4531"/><rect fill="#FFFFFF" height="30.3516" style="stroke:#181818;stroke-width:1.0;" width="10" x="2199.5" y="1074.0234"/><polygon fill="#181818" points="510,110.9609,520,114.9609,510,118.9609,514,114.9609" style="stroke:#181818;stroke-width:1.0;"/><line style="stroke:#181818;stroke-width:1.0;" x1="52" x2="516" y1="114.9609" y2="114.9609"/><text fill="#000000" font-family="sans-serif" font-size="13" font-weight="bold" lengthAdjust="spacing" textLength="7" x="59" y="110.1045">1</text><text fill="#000000" font-family="sans-serif" font-size="13" lengthAdjust="spacing" textLength="157" x="70" y="110.1045">asks to schedule a vaccine</text><polygon fill="#181818" points="63,141.3125,53,145.3125,63,149.3125,59,145.3125" style="stroke:#181818;stroke-width:1.0;"/><line style="stroke:#181818;stroke-width:1.0;stroke-dasharray:2.0,2.0;" x1="57" x2="526" y1="145.3125" y2="145.3125"/><text fill="#000000" font-family="sans-serif" font-size="13" font-weight="bold" lengthAdjust="spacing" textLength="7" x="69" y="140.4561">2</text><text fill="#000000" font-family="sans-serif" font-size="13" lengthAdjust="spacing" textLength="168" x="80" y="140.4561">requests user´s SNS number</text><polygon fill="#181818" points="510,171.6641,520,175.6641,510,179.6641,514,175.6641" style="stroke:#181818;stroke-width:1.0;"/><line style="stroke:#181818;stroke-width:1.0;" x1="52" x2="516" y1="175.6641" y2="175.6641"/><text fill="#000000" font-family="sans-serif" font-size="13" font-weight="bold" lengthAdjust="spacing" textLength="7" x="59" y="170.8076">3</text><text fill="#000000" font-family="sans-serif" font-size="13" lengthAdjust="spacing" textLength="178" x="70" y="170.8076">introduces user´s SNS number</text><polygon fill="#181818" points="63,202.0156,53,206.0156,63,210.0156,59,206.0156" style="stroke:#181818;stroke-width:1.0;"/><line style="stroke:#181818;stroke-width:1.0;stroke-dasharray:2.0,2.0;" x1="57" x2="526" y1="206.0156" y2="206.0156"/><text fill="#000000" font-family="sans-serif" font-size="13" font-weight="bold" lengthAdjust="spacing" textLength="7" x="69" y="201.1592">4</text><text fill="#000000" font-family="sans-serif" font-size="13" lengthAdjust="spacing" textLength="286" x="80" y="201.1592">shows a list with the available vaccination centers</text><polygon fill="#181818" points="510,232.3672,520,236.3672,510,240.3672,514,236.3672" style="stroke:#181818;stroke-width:1.0;"/><line style="stroke:#181818;stroke-width:1.0;" x1="52" x2="516" y1="236.3672" y2="236.3672"/><text fill="#000000" font-family="sans-serif" font-size="13" font-weight="bold" lengthAdjust="spacing" textLength="7" x="59" y="231.5107">5</text><text fill="#000000" font-family="sans-serif" font-size="13" lengthAdjust="spacing" textLength="175" x="70" y="231.5107">selects one vaccination center</text><polygon fill="#181818" points="63,262.7188,53,266.7188,63,270.7188,59,266.7188" style="stroke:#181818;stroke-width:1.0;"/><line style="stroke:#181818;stroke-width:1.0;stroke-dasharray:2.0,2.0;" x1="57" x2="526" y1="266.7188" y2="266.7188"/><text fill="#000000" font-family="sans-serif" font-size="13" font-weight="bold" lengthAdjust="spacing" textLength="7" x="69" y="261.8623">6</text><text fill="#000000" font-family="sans-serif" font-size="13" lengthAdjust="spacing" textLength="261" x="80" y="261.8623">shows a list with the Vaccine Types available</text><polygon fill="#181818" points="510,293.0703,520,297.0703,510,301.0703,514,297.0703" style="stroke:#181818;stroke-width:1.0;"/><line style="stroke:#181818;stroke-width:1.0;" x1="52" x2="516" y1="297.0703" y2="297.0703"/><text fill="#000000" font-family="sans-serif" font-size="13" font-weight="bold" lengthAdjust="spacing" textLength="7" x="59" y="292.2139">7</text><text fill="#000000" font-family="sans-serif" font-size="13" lengthAdjust="spacing" textLength="150" x="70" y="292.2139">selects one Vaccine Type</text><polygon fill="#181818" points="63,323.4219,53,327.4219,63,331.4219,59,327.4219" style="stroke:#181818;stroke-width:1.0;"/><line style="stroke:#181818;stroke-width:1.0;stroke-dasharray:2.0,2.0;" x1="57" x2="526" y1="327.4219" y2="327.4219"/><text fill="#000000" font-family="sans-serif" font-size="13" font-weight="bold" lengthAdjust="spacing" textLength="7" x="69" y="322.5654">8</text><text fill="#000000" font-family="sans-serif" font-size="13" lengthAdjust="spacing" textLength="224" x="80" y="322.5654">shows a list with all the dates available</text><polygon fill="#181818" points="510,353.7734,520,357.7734,510,361.7734,514,357.7734" style="stroke:#181818;stroke-width:1.0;"/><line style="stroke:#181818;stroke-width:1.0;" x1="52" x2="516" y1="357.7734" y2="357.7734"/><text fill="#000000" font-family="sans-serif" font-size="13" font-weight="bold" lengthAdjust="spacing" textLength="7" x="59" y="352.917">9</text><text fill="#000000" font-family="sans-serif" font-size="13" lengthAdjust="spacing" textLength="96" x="70" y="352.917">selects one date</text><polygon fill="#181818" points="63,384.125,53,388.125,63,392.125,59,388.125" style="stroke:#181818;stroke-width:1.0;"/><line style="stroke:#181818;stroke-width:1.0;stroke-dasharray:2.0,2.0;" x1="57" x2="526" y1="388.125" y2="388.125"/><text fill="#000000" font-family="sans-serif" font-size="13" font-weight="bold" lengthAdjust="spacing" textLength="14" x="69" y="383.2686">10</text><text fill="#000000" font-family="sans-serif" font-size="13" lengthAdjust="spacing" textLength="220" x="87" y="383.2686">shows a list with all the slots available</text><polygon fill="#181818" points="510,414.4766,520,418.4766,510,422.4766,514,418.4766" style="stroke:#181818;stroke-width:1.0;"/><line style="stroke:#181818;stroke-width:1.0;" x1="52" x2="516" y1="418.4766" y2="418.4766"/><text fill="#000000" font-family="sans-serif" font-size="13" font-weight="bold" lengthAdjust="spacing" textLength="14" x="59" y="413.6201">11</text><text fill="#000000" font-family="sans-serif" font-size="13" lengthAdjust="spacing" textLength="92" x="77" y="413.6201">selects one slot</text><polygon fill="#181818" points="929,444.8281,939,448.8281,929,452.8281,933,448.8281" style="stroke:#181818;stroke-width:1.0;"/><line style="stroke:#181818;stroke-width:1.0;" x1="532" x2="935" y1="448.8281" y2="448.8281"/><text fill="#000000" font-family="sans-serif" font-size="13" font-weight="bold" lengthAdjust="spacing" textLength="14" x="539" y="443.9717">12</text><text fill="#000000" font-family="sans-serif" font-size="13" lengthAdjust="spacing" textLength="353" x="557" y="443.9717">validateAppointment(scheduleVaccineDto, vaccinationCenter)</text><line style="stroke:#181818;stroke-width:1.0;" x1="956" x2="998" y1="479.1797" y2="479.1797"/><line style="stroke:#181818;stroke-width:1.0;" x1="998" x2="998" y1="479.1797" y2="492.1797"/><line style="stroke:#181818;stroke-width:1.0;" x1="957" x2="998" y1="492.1797" y2="492.1797"/><polygon fill="#181818" points="967,488.1797,957,492.1797,967,496.1797,963,492.1797" style="stroke:#181818;stroke-width:1.0;"/><text fill="#000000" font-family="sans-serif" font-size="13" font-weight="bold" lengthAdjust="spacing" textLength="14" x="963" y="474.3232">13</text><text fill="#000000" font-family="sans-serif" font-size="13" lengthAdjust="spacing" textLength="208" x="981" y="474.3232">dataIsAllFilled(scheduleVaccineDto)</text><polygon fill="#181818" points="2025.5,548.5313,2035.5,552.5313,2025.5,556.5313,2029.5,552.5313" style="stroke:#181818;stroke-width:1.0;"/><line style="stroke:#181818;stroke-width:1.0;" x1="951" x2="2031.5" y1="552.5313" y2="552.5313"/><text fill="#000000" font-family="sans-serif" font-size="13" font-weight="bold" lengthAdjust="spacing" textLength="14" x="958" y="547.6748">14</text><text fill="#000000" font-family="sans-serif" font-size="13" lengthAdjust="spacing" textLength="324" x="976" y="547.6748">userIsEligibleForTheAppointment(scheduledVaccineDto)</text><polygon fill="#181818" points="962,578.8828,952,582.8828,962,586.8828,958,582.8828" style="stroke:#181818;stroke-width:1.0;"/><line style="stroke:#181818;stroke-width:1.0;stroke-dasharray:2.0,2.0;" x1="956" x2="2041.5" y1="582.8828" y2="582.8828"/><text fill="#000000" font-family="sans-serif" font-size="13" font-weight="bold" lengthAdjust="spacing" textLength="14" x="968" y="578.0264">15</text><text fill="#000000" font-family="sans-serif" font-size="13" lengthAdjust="spacing" textLength="32" x="986" y="578.0264">result</text><polygon fill="#181818" points="1495,609.2344,1505,613.2344,1495,617.2344,1499,613.2344" style="stroke:#181818;stroke-width:1.0;"/><line style="stroke:#181818;stroke-width:1.0;" x1="951" x2="1501" y1="613.2344" y2="613.2344"/><text fill="#000000" font-family="sans-serif" font-size="13" font-weight="bold" lengthAdjust="spacing" textLength="14" x="958" y="608.3779">16</text><text fill="#000000" font-family="sans-serif" font-size="13" lengthAdjust="spacing" textLength="519" x="976" y="608.3779">validateAppointmentAccordingToAgeGroupAndTimeSinceLastDose(scheduledVaccineDto)</text><polygon fill="#181818" points="962,639.5859,952,643.5859,962,647.5859,958,643.5859" style="stroke:#181818;stroke-width:1.0;"/><line style="stroke:#181818;stroke-width:1.0;stroke-dasharray:2.0,2.0;" x1="956" x2="1511" y1="643.5859" y2="643.5859"/><text fill="#000000" font-family="sans-serif" font-size="13" font-weight="bold" lengthAdjust="spacing" textLength="14" x="968" y="638.7295">17</text><text fill="#000000" font-family="sans-serif" font-size="13" lengthAdjust="spacing" textLength="32" x="986" y="638.7295">result</text><polygon fill="#181818" points="1230,669.9375,1240,673.9375,1230,677.9375,1234,673.9375" style="stroke:#181818;stroke-width:1.0;"/><line style="stroke:#181818;stroke-width:1.0;" x1="951" x2="1236" y1="673.9375" y2="673.9375"/><text fill="#000000" font-family="sans-serif" font-size="13" font-weight="bold" lengthAdjust="spacing" textLength="14" x="958" y="669.0811">18</text><text fill="#000000" font-family="sans-serif" font-size="13" lengthAdjust="spacing" textLength="254" x="976" y="669.0811">centerHasAvailability(scheduledVaccineDto)</text><polygon fill="#181818" points="962,700.2891,952,704.2891,962,708.2891,958,704.2891" style="stroke:#181818;stroke-width:1.0;"/><line style="stroke:#181818;stroke-width:1.0;stroke-dasharray:2.0,2.0;" x1="956" x2="1246" y1="704.2891" y2="704.2891"/><text fill="#000000" font-family="sans-serif" font-size="13" font-weight="bold" lengthAdjust="spacing" textLength="14" x="968" y="699.4326">19</text><text fill="#000000" font-family="sans-serif" font-size="13" lengthAdjust="spacing" textLength="32" x="986" y="699.4326">result</text><polygon fill="#181818" points="543,730.6406,533,734.6406,543,738.6406,539,734.6406" style="stroke:#181818;stroke-width:1.0;"/><line style="stroke:#181818;stroke-width:1.0;stroke-dasharray:2.0,2.0;" x1="537" x2="945" y1="734.6406" y2="734.6406"/><text fill="#000000" font-family="sans-serif" font-size="13" font-weight="bold" lengthAdjust="spacing" textLength="14" x="549" y="729.7842">20</text><text fill="#000000" font-family="sans-serif" font-size="13" lengthAdjust="spacing" textLength="32" x="567" y="729.7842">result</text><polygon fill="#181818" points="63,760.9922,53,764.9922,63,768.9922,59,764.9922" style="stroke:#181818;stroke-width:1.0;"/><line style="stroke:#181818;stroke-width:1.0;" x1="57" x2="526" y1="764.9922" y2="764.9922"/><text fill="#000000" font-family="sans-serif" font-size="13" font-weight="bold" lengthAdjust="spacing" textLength="14" x="69" y="760.1357">21</text><text fill="#000000" font-family="sans-serif" font-size="13" lengthAdjust="spacing" textLength="241" x="87" y="760.1357">shows the data and requests confirmation</text><polygon fill="#181818" points="510,791.3438,520,795.3438,510,799.3438,514,795.3438" style="stroke:#181818;stroke-width:1.0;"/><line style="stroke:#181818;stroke-width:1.0;" x1="52" x2="516" y1="795.3438" y2="795.3438"/><text fill="#000000" font-family="sans-serif" font-size="13" font-weight="bold" lengthAdjust="spacing" textLength="14" x="59" y="790.4873">22</text><text fill="#000000" font-family="sans-serif" font-size="13" lengthAdjust="spacing" textLength="100" x="77" y="790.4873">confirms the data</text><polygon fill="#181818" points="929,821.6953,939,825.6953,929,829.6953,933,825.6953" style="stroke:#181818;stroke-width:1.0;"/><line style="stroke:#181818;stroke-width:1.0;" x1="532" x2="935" y1="825.6953" y2="825.6953"/><text fill="#000000" font-family="sans-serif" font-size="13" font-weight="bold" lengthAdjust="spacing" textLength="14" x="539" y="820.8389">23</text><text fill="#000000" font-family="sans-serif" font-size="13" lengthAdjust="spacing" textLength="343" x="557" y="820.8389">scheduledVaccine(scheduleVaccineDto, vaccinationCenter)</text><polygon fill="#181818" points="1230,852.0469,1240,856.0469,1230,860.0469,1234,856.0469" style="stroke:#181818;stroke-width:1.0;"/><line style="stroke:#181818;stroke-width:1.0;" x1="951" x2="1236" y1="856.0469" y2="856.0469"/><text fill="#000000" font-family="sans-serif" font-size="13" font-weight="bold" lengthAdjust="spacing" textLength="14" x="958" y="851.1904">24</text><text fill="#000000" font-family="sans-serif" font-size="13" lengthAdjust="spacing" textLength="247" x="976" y="851.1904">centerHasAvailability(scheduleVaccineDto)</text><polygon fill="#181818" points="962,882.3984,952,886.3984,962,890.3984,958,886.3984" style="stroke:#181818;stroke-width:1.0;"/><line style="stroke:#181818;stroke-width:1.0;stroke-dasharray:2.0,2.0;" x1="956" x2="1246" y1="886.3984" y2="886.3984"/><text fill="#000000" font-family="sans-serif" font-size="13" font-weight="bold" lengthAdjust="spacing" textLength="14" x="968" y="881.542">25</text><text fill="#000000" font-family="sans-serif" font-size="13" lengthAdjust="spacing" textLength="32" x="986" y="881.542">result</text><polygon fill="#181818" points="1640,912.75,1650,916.75,1640,920.75,1644,916.75" style="stroke:#181818;stroke-width:1.0;"/><line style="stroke:#181818;stroke-width:1.0;" x1="951" x2="1646" y1="916.75" y2="916.75"/><text fill="#000000" font-family="sans-serif" font-size="13" font-weight="bold" lengthAdjust="spacing" textLength="14" x="958" y="911.8936">26</text><text fill="#000000" font-family="sans-serif" font-size="13" lengthAdjust="spacing" textLength="393" x="976" y="911.8936">scheduledVaccine = createScheduledVaccine(scheduleVaccineDto)</text><path d="M1570,929.75 L1570,955.75 L1931,955.75 L1931,939.75 L1921,929.75 L1570,929.75 " fill="#FEFFDD" style="stroke:#181818;stroke-width:0.5;"/><path d="M1921,929.75 L1921,939.75 L1931,939.75 L1921,929.75 " fill="#FEFFDD" style="stroke:#181818;stroke-width:0.5;"/><text fill="#000000" font-family="sans-serif" font-size="13" lengthAdjust="spacing" textLength="247" x="1622.5" y="948.2451">Several steps to extract data from the DTO</text><polygon fill="#181818" points="1963,979.4531,1973,983.4531,1963,987.4531,1967,983.4531" style="stroke:#181818;stroke-width:1.0;"/><line style="stroke:#181818;stroke-width:1.0;stroke-dasharray:2.0,2.0;" x1="1657" x2="1969" y1="983.4531" y2="983.4531"/><text fill="#000000" font-family="sans-serif" font-size="13" font-weight="bold" lengthAdjust="spacing" textLength="14" x="1664" y="978.5967">27</text><text fill="#000000" font-family="sans-serif" font-size="13" lengthAdjust="spacing" textLength="271" x="1682" y="978.5967">createScheduledVaccine(scheduleVaccineDto)</text><rect fill="#E2E2F0" height="49.2188" rx="2.5" ry="2.5" style="stroke:#181818;stroke-width:0.5;" width="135" x="1975" y="961.1016"/><text fill="#000000" font-family="sans-serif" font-size="14" lengthAdjust="spacing" textLength="115" x="1985" y="982.6348">scheduledVaccine</text><text fill="#000000" font-family="sans-serif" font-size="14" lengthAdjust="spacing" textLength="121" x="1982" y="1000.2441">:ScheduledVaccine</text><polygon fill="#181818" points="1230,1039.6719,1240,1043.6719,1230,1047.6719,1234,1043.6719" style="stroke:#181818;stroke-width:1.0;"/><line style="stroke:#181818;stroke-width:1.0;" x1="951" x2="1236" y1="1043.6719" y2="1043.6719"/><text fill="#000000" font-family="sans-serif" font-size="13" font-weight="bold" lengthAdjust="spacing" textLength="14" x="958" y="1038.8154">28</text><text fill="#000000" font-family="sans-serif" font-size="13" lengthAdjust="spacing" textLength="208" x="976" y="1038.8154">addAppointment(scheduledVaccine)</text><polygon fill="#181818" points="2187.5,1070.0234,2197.5,1074.0234,2187.5,1078.0234,2191.5,1074.0234" style="stroke:#181818;stroke-width:1.0;"/><line style="stroke:#181818;stroke-width:1.0;" x1="1252" x2="2193.5" y1="1074.0234" y2="1074.0234"/><text fill="#000000" font-family="sans-serif" font-size="13" font-weight="bold" lengthAdjust="spacing" textLength="14" x="1259" y="1069.167">29</text><text fill="#000000" font-family="sans-serif" font-size="13" lengthAdjust="spacing" textLength="208" x="1277" y="1069.167">addAppointment(scheduledVaccine)</text><polygon fill="#181818" points="1263,1100.375,1253,1104.375,1263,1108.375,1259,1104.375" style="stroke:#181818;stroke-width:1.0;"/><line style="stroke:#181818;stroke-width:1.0;stroke-dasharray:2.0,2.0;" x1="1257" x2="2203.5" y1="1104.375" y2="1104.375"/><text fill="#000000" font-family="sans-serif" font-size="13" font-weight="bold" lengthAdjust="spacing" textLength="14" x="1269" y="1099.5186">30</text><text fill="#000000" font-family="sans-serif" font-size="13" lengthAdjust="spacing" textLength="32" x="1287" y="1099.5186">result</text><polygon fill="#181818" points="962,1130.7266,952,1134.7266,962,1138.7266,958,1134.7266" style="stroke:#181818;stroke-width:1.0;"/><line style="stroke:#181818;stroke-width:1.0;stroke-dasharray:2.0,2.0;" x1="956" x2="1246" y1="1134.7266" y2="1134.7266"/><text fill="#000000" font-family="sans-serif" font-size="13" font-weight="bold" lengthAdjust="spacing" textLength="14" x="968" y="1129.8701">31</text><text fill="#000000" font-family="sans-serif" font-size="13" lengthAdjust="spacing" textLength="32" x="986" y="1129.8701">result</text><polygon fill="#181818" points="543,1161.0781,533,1165.0781,543,1169.0781,539,1165.0781" style="stroke:#181818;stroke-width:1.0;"/><line style="stroke:#181818;stroke-width:1.0;stroke-dasharray:2.0,2.0;" x1="537" x2="945" y1="1165.0781" y2="1165.0781"/><text fill="#000000" font-family="sans-serif" font-size="13" font-weight="bold" lengthAdjust="spacing" textLength="14" x="549" y="1160.2217">32</text><text fill="#000000" font-family="sans-serif" font-size="13" lengthAdjust="spacing" textLength="32" x="567" y="1160.2217">result</text><polygon fill="#181818" points="63,1191.4297,53,1195.4297,63,1199.4297,59,1195.4297" style="stroke:#181818;stroke-width:1.0;"/><line style="stroke:#181818;stroke-width:1.0;stroke-dasharray:2.0,2.0;" x1="57" x2="521" y1="1195.4297" y2="1195.4297"/><text fill="#000000" font-family="sans-serif" font-size="13" font-weight="bold" lengthAdjust="spacing" textLength="14" x="69" y="1190.5732">33</text><text fill="#000000" font-family="sans-serif" font-size="13" lengthAdjust="spacing" textLength="360" x="87" y="1190.5732">informs operation success and shows appointment information</text><polygon fill="#181818" points="63,1221.7813,53,1225.7813,63,1229.7813,59,1225.7813" style="stroke:#181818;stroke-width:1.0;"/><line style="stroke:#181818;stroke-width:1.0;" x1="57" x2="526" y1="1225.7813" y2="1225.7813"/><text fill="#000000" font-family="sans-serif" font-size="13" font-weight="bold" lengthAdjust="spacing" textLength="14" x="69" y="1220.9248">34</text><text fill="#000000" font-family="sans-serif" font-size="13" lengthAdjust="spacing" textLength="428" x="87" y="1220.9248">asks if the user wants to receive an SMS with the appointment information</text><polygon fill="#181818" points="510,1252.1328,520,1256.1328,510,1260.1328,514,1256.1328" style="stroke:#181818;stroke-width:1.0;"/><line style="stroke:#181818;stroke-width:1.0;" x1="52" x2="516" y1="1256.1328" y2="1256.1328"/><text fill="#000000" font-family="sans-serif" font-size="13" font-weight="bold" lengthAdjust="spacing" textLength="14" x="59" y="1251.2764">35</text><text fill="#000000" font-family="sans-serif" font-size="13" lengthAdjust="spacing" textLength="271" x="77" y="1251.2764">authorizes the application to send him an SMS</text><line style="stroke:#181818;stroke-width:1.0;" x1="537" x2="579" y1="1286.4844" y2="1286.4844"/><line style="stroke:#181818;stroke-width:1.0;" x1="579" x2="579" y1="1286.4844" y2="1299.4844"/><line style="stroke:#181818;stroke-width:1.0;" x1="538" x2="579" y1="1299.4844" y2="1299.4844"/><polygon fill="#181818" points="548,1295.4844,538,1299.4844,548,1303.4844,544,1299.4844" style="stroke:#181818;stroke-width:1.0;"/><text fill="#000000" font-family="sans-serif" font-size="13" font-weight="bold" lengthAdjust="spacing" textLength="14" x="544" y="1281.6279">36</text><text fill="#000000" font-family="sans-serif" font-size="13" lengthAdjust="spacing" textLength="377" x="562" y="1281.6279">printAppointmentToFile(scheduledVaccineDto, vaccinationCenter)</text><polygon fill="#181818" points="58,1355.8359,48,1359.8359,58,1363.8359,54,1359.8359" style="stroke:#181818;stroke-width:1.0;"/><line style="stroke:#181818;stroke-width:1.0;stroke-dasharray:2.0,2.0;" x1="52" x2="526" y1="1359.8359" y2="1359.8359"/><text fill="#000000" font-family="sans-serif" font-size="13" font-weight="bold" lengthAdjust="spacing" textLength="14" x="64" y="1354.9795">37</text><text fill="#000000" font-family="sans-serif" font-size="13" lengthAdjust="spacing" textLength="152" x="82" y="1354.9795">informs operation success</text><!--MD5=[6b2513c81bfc42b6391a322e6ef19eaf]
@startuml

autonumber

actor Receptionist as R

participant ":ScheduleVaccineUI" as UI
participant ":ScheduleVaccineController" as CTRL
participant "vaccinationCenter\n:VaccinationCenter" as VC
participant "snsUser\n:SnsUser" as SU
participant "scheduledVaccineDtoMapper\n:ScheduledVaccineMapper" as M
participant "scheduledVaccineDto\n:ScheduledVaccineDto" as DTO
participant "scheduledVaccine\n:ScheduledVaccine" as SV
participant "appointmentsList\nList<ScheduledVaccine>" as L


activate R
R -> UI : asks to schedule a vaccine
activate UI
UI - -> R : requests user´s SNS number
deactivate UI
R -> UI : introduces user´s SNS number

activate UI
UI - -> R : shows a list with the available vaccination centers
deactivate UI
R -> UI : selects one vaccination center


activate UI
 UI - -> R : shows a list with the Vaccine Types available
deactivate UI
R -> UI : selects one Vaccine Type


activate UI
 UI - -> R : shows a list with all the dates available
deactivate UI
R -> UI : selects one date


activate UI
 UI - -> R : shows a list with all the slots available
deactivate UI
R -> UI : selects one slot



activate UI
UI -> CTRL : validateAppointment(scheduleVaccineDto, vaccinationCenter)

activate CTRL
CTRL -> CTRL : dataIsAllFilled(scheduleVaccineDto)
activate CTRL
deactivate CTRL
CTRL -> SV : userIsEligibleForTheAppointment(scheduledVaccineDto)
activate SV
SV - - -> CTRL : result
deactivate SV



CTRL -> SU : validateAppointmentAccordingToAgeGroupAndTimeSinceLastDose(scheduledVaccineDto)

activate SU
SU - - -> CTRL : result
deactivate SU

CTRL -> VC : centerHasAvailability(scheduledVaccineDto)
activate VC
VC - - -> CTRL : result
deactivate VC


CTRL - - -> UI : result
deactivate CTRL

UI -> R : shows the data and requests confirmation
deactivate UI

R -> UI : confirms the data
activate UI

UI -> CTRL : scheduledVaccine(scheduleVaccineDto, vaccinationCenter)
activate CTRL


CTRL -> VC : centerHasAvailability(scheduleVaccineDto)

activate VC
VC - - -> CTRL : result
deactivate VC
CTRL -> M : scheduledVaccine = createScheduledVaccine(scheduleVaccineDto)
activate M
note over M, DTO
Several steps to extract data from the DTO
end note
M - - -> SV ** : createScheduledVaccine(scheduleVaccineDto)
activate SV
deactivate SV
deactivate M

CTRL -> VC : addAppointment(scheduledVaccine)
activate VC


VC -> L : addAppointment(scheduledVaccine)
activate L
L - -> VC : result

deactivate L

VC - -> CTRL : result

deactivate VC



CTRL - - -> UI : result
deactivate CTRL
UI - -> R : informs operation success and shows appointment information

UI -> R : asks if the user wants to receive an SMS with the appointment information
deactivate UI

R -> UI : authorizes the application to send him an SMS
activate UI
UI -> UI : printAppointmentToFile(scheduledVaccineDto, vaccinationCenter)
activate UI
deactivate UI
UI - - -> R : informs operation success
deactivate UI
deactivate R
@enduml

PlantUML version 1.2022.4(Sat Apr 09 14:29:17 BST 2022)
(GPL source distribution)
Java Runtime: OpenJDK Runtime Environment
JVM: OpenJDK 64-Bit Server VM
Default Encoding: Cp1252
Language: en
Country: US
--></g></svg>