<?xml version="1.0" encoding="UTF-8" standalone="no"?><svg xmlns="http://www.w3.org/2000/svg" xmlns:xlink="http://www.w3.org/1999/xlink" contentStyleType="text/css" height="490px" preserveAspectRatio="none" style="width:1822px;height:490px;background:#FFFFFF;" version="1.1" viewBox="0 0 1822 490" width="1822px" zoomAndPan="magnify"><defs/><g><!--MD5=[2d935fd2dd068a13da1ae531f9857c4f]
class CenterCoordinator--><g id="elem_CenterCoordinator"><rect codeLine="7" fill="#F1F1F1" height="40" id="CenterCoordinator" rx="2.5" ry="2.5" style="stroke:#181818;stroke-width:0.5;" width="150" x="547" y="265.5"/><ellipse cx="562" cy="281.5" fill="#ADD1B2" rx="11" ry="11" style="stroke:#181818;stroke-width:1.0;"/><path d="M564,278 Q564.2031,277.5 564.4375,277.25 Q564.6719,277 564.9375,277 Q565.4063,277 565.7031,277.2813 Q566,277.5625 566,278.2188 L566,279.7813 Q566,280.4375 565.7188,280.7188 Q565.4375,281 565,281 Q564.6094,281 564.3594,280.8281 Q564.1094,280.6563 564,280.2031 Q563.9531,279.8906 563.7813,279.7188 Q563.4688,279.3906 562.9063,279.2031 Q562.3438,279 561.7813,279 Q561.0781,279 560.4844,279.2813 Q559.9063,279.5625 559.4531,280.1875 Q559,280.8125 559,281.6719 L559,282.5938 Q559,283.625 559.8438,284.3125 Q560.6875,285 562.1875,285 Q563.0781,285 563.7031,284.7969 Q564.0625,284.6875 564.4688,284.3281 Q564.7344,284.125 564.875,284.0625 Q565.0156,284 565.1875,284 Q565.5156,284 565.75,284.2656 Q566,284.5156 566,284.875 Q566,285.2188 565.6563,285.625 Q565.1563,286.2188 564.3594,286.5469 Q563.3125,287 562.0313,287 Q560.5313,287 559.3281,286.4063 Q558.3594,285.9375 557.6719,284.9219 Q557,283.9063 557,282.7031 L557,281.6094 Q557,280.3594 557.5938,279.2656 Q558.2031,278.1719 559.25,277.5938 Q560.3125,277 561.5,277 Q562.2188,277 562.8438,277.25 Q563.4688,277.5 564,278 Z " fill="#000000"/><text fill="#000000" font-family="sans-serif" font-size="14" lengthAdjust="spacing" textLength="118" x="576" y="287.2285">CenterCoordinator</text><line style="stroke:#181818;stroke-width:0.5;" x1="548" x2="696" y1="297.5" y2="297.5"/></g><!--MD5=[7421f545a0d8420c5bec41e74b387d9c]
class Employee--><g id="elem_Employee"><rect codeLine="9" fill="#F1F1F1" height="57.6094" id="Employee" rx="2.5" ry="2.5" style="stroke:#181818;stroke-width:0.5;" width="94" x="392" y="260.5"/><ellipse cx="407" cy="276.5" fill="#ADD1B2" rx="11" ry="11" style="stroke:#181818;stroke-width:1.0;"/><path d="M409,273 Q409.2031,272.5 409.4375,272.25 Q409.6719,272 409.9375,272 Q410.4063,272 410.7031,272.2813 Q411,272.5625 411,273.2188 L411,274.7813 Q411,275.4375 410.7188,275.7188 Q410.4375,276 410,276 Q409.6094,276 409.3594,275.8281 Q409.1094,275.6563 409,275.2031 Q408.9531,274.8906 408.7813,274.7188 Q408.4688,274.3906 407.9063,274.2031 Q407.3438,274 406.7813,274 Q406.0781,274 405.4844,274.2813 Q404.9063,274.5625 404.4531,275.1875 Q404,275.8125 404,276.6719 L404,277.5938 Q404,278.625 404.8438,279.3125 Q405.6875,280 407.1875,280 Q408.0781,280 408.7031,279.7969 Q409.0625,279.6875 409.4688,279.3281 Q409.7344,279.125 409.875,279.0625 Q410.0156,279 410.1875,279 Q410.5156,279 410.75,279.2656 Q411,279.5156 411,279.875 Q411,280.2188 410.6563,280.625 Q410.1563,281.2188 409.3594,281.5469 Q408.3125,282 407.0313,282 Q405.5313,282 404.3281,281.4063 Q403.3594,280.9375 402.6719,279.9219 Q402,278.9063 402,277.7031 L402,276.6094 Q402,275.3594 402.5938,274.2656 Q403.2031,273.1719 404.25,272.5938 Q405.3125,272 406.5,272 Q407.2188,272 407.8438,272.25 Q408.4688,272.5 409,273 Z " fill="#000000"/><text fill="#000000" font-family="sans-serif" font-size="14" lengthAdjust="spacing" textLength="62" x="421" y="282.2285">Employee</text><line style="stroke:#181818;stroke-width:0.5;" x1="393" x2="485" y1="292.5" y2="292.5"/><text fill="#000000" font-family="sans-serif" font-size="14" lengthAdjust="spacing" textLength="16" x="398" y="311.0332">-id</text></g><!--MD5=[9b956c59b16436292d60adff39fe4d1c]
class ApplicationUser--><g id="elem_ApplicationUser"><rect codeLine="13" fill="#F1F1F1" height="145.6563" id="ApplicationUser" rx="2.5" ry="2.5" style="stroke:#181818;stroke-width:0.5;" width="136" x="195" y="234.5"/><ellipse cx="212.7" cy="250.5" fill="#ADD1B2" rx="11" ry="11" style="stroke:#181818;stroke-width:1.0;"/><path d="M214.7,247 Q214.9031,246.5 215.1375,246.25 Q215.3719,246 215.6375,246 Q216.1063,246 216.4031,246.2813 Q216.7,246.5625 216.7,247.2188 L216.7,248.7813 Q216.7,249.4375 216.4188,249.7188 Q216.1375,250 215.7,250 Q215.3094,250 215.0594,249.8281 Q214.8094,249.6563 214.7,249.2031 Q214.6531,248.8906 214.4813,248.7188 Q214.1688,248.3906 213.6063,248.2031 Q213.0438,248 212.4813,248 Q211.7781,248 211.1844,248.2813 Q210.6063,248.5625 210.1531,249.1875 Q209.7,249.8125 209.7,250.6719 L209.7,251.5938 Q209.7,252.625 210.5438,253.3125 Q211.3875,254 212.8875,254 Q213.7781,254 214.4031,253.7969 Q214.7625,253.6875 215.1688,253.3281 Q215.4344,253.125 215.575,253.0625 Q215.7156,253 215.8875,253 Q216.2156,253 216.45,253.2656 Q216.7,253.5156 216.7,253.875 Q216.7,254.2188 216.3563,254.625 Q215.8563,255.2188 215.0594,255.5469 Q214.0125,256 212.7313,256 Q211.2313,256 210.0281,255.4063 Q209.0594,254.9375 208.3719,253.9219 Q207.7,252.9063 207.7,251.7031 L207.7,250.6094 Q207.7,249.3594 208.2938,248.2656 Q208.9031,247.1719 209.95,246.5938 Q211.0125,246 212.2,246 Q212.9188,246 213.5438,246.25 Q214.1688,246.5 214.7,247 Z " fill="#000000"/><text fill="#000000" font-family="sans-serif" font-size="14" lengthAdjust="spacing" textLength="98" x="227.3" y="256.2285">ApplicationUser</text><line style="stroke:#181818;stroke-width:0.5;" x1="196" x2="330" y1="266.5" y2="266.5"/><text fill="#000000" font-family="sans-serif" font-size="14" lengthAdjust="spacing" textLength="40" x="201" y="285.0332">-name</text><text fill="#000000" font-family="sans-serif" font-size="14" lengthAdjust="spacing" textLength="38" x="201" y="302.6426">-email</text><text fill="#000000" font-family="sans-serif" font-size="14" lengthAdjust="spacing" textLength="65" x="201" y="320.252">-password</text><text fill="#000000" font-family="sans-serif" font-size="14" lengthAdjust="spacing" textLength="29" x="201" y="337.8613">-role</text><text fill="#000000" font-family="sans-serif" font-size="14" lengthAdjust="spacing" textLength="56" x="201" y="355.4707">-address</text><text fill="#000000" font-family="sans-serif" font-size="14" lengthAdjust="spacing" textLength="124" x="201" y="373.0801">-citizenCardNumber</text></g><!--MD5=[de60e6d4f424ae4d0522096f76a59010]
class VaccinationCenter--><g id="elem_VaccinationCenter"><rect codeLine="22" fill="#F1F1F1" height="339.3594" id="VaccinationCenter" rx="2.5" ry="2.5" style="stroke:#181818;stroke-width:0.5;" width="176" x="1433" y="7"/><ellipse cx="1460.6" cy="23" fill="#ADD1B2" rx="11" ry="11" style="stroke:#181818;stroke-width:1.0;"/><path d="M1462.6,19.5 Q1462.8031,19 1463.0375,18.75 Q1463.2719,18.5 1463.5375,18.5 Q1464.0063,18.5 1464.3031,18.7813 Q1464.6,19.0625 1464.6,19.7188 L1464.6,21.2813 Q1464.6,21.9375 1464.3188,22.2188 Q1464.0375,22.5 1463.6,22.5 Q1463.2094,22.5 1462.9594,22.3281 Q1462.7094,22.1563 1462.6,21.7031 Q1462.5531,21.3906 1462.3813,21.2188 Q1462.0688,20.8906 1461.5063,20.7031 Q1460.9438,20.5 1460.3813,20.5 Q1459.6781,20.5 1459.0844,20.7813 Q1458.5063,21.0625 1458.0531,21.6875 Q1457.6,22.3125 1457.6,23.1719 L1457.6,24.0938 Q1457.6,25.125 1458.4438,25.8125 Q1459.2875,26.5 1460.7875,26.5 Q1461.6781,26.5 1462.3031,26.2969 Q1462.6625,26.1875 1463.0688,25.8281 Q1463.3344,25.625 1463.475,25.5625 Q1463.6156,25.5 1463.7875,25.5 Q1464.1156,25.5 1464.35,25.7656 Q1464.6,26.0156 1464.6,26.375 Q1464.6,26.7188 1464.2563,27.125 Q1463.7563,27.7188 1462.9594,28.0469 Q1461.9125,28.5 1460.6313,28.5 Q1459.1313,28.5 1457.9281,27.9063 Q1456.9594,27.4375 1456.2719,26.4219 Q1455.6,25.4063 1455.6,24.2031 L1455.6,23.1094 Q1455.6,21.8594 1456.1938,20.7656 Q1456.8031,19.6719 1457.85,19.0938 Q1458.9125,18.5 1460.1,18.5 Q1460.8188,18.5 1461.4438,18.75 Q1462.0688,19 1462.6,19.5 Z " fill="#000000"/><text fill="#000000" font-family="sans-serif" font-size="14" lengthAdjust="spacing" textLength="116" x="1477.4" y="28.7285">VaccinationCenter</text><line style="stroke:#181818;stroke-width:0.5;" x1="1434" x2="1608" y1="39" y2="39"/><text fill="#000000" font-family="sans-serif" font-size="14" lengthAdjust="spacing" textLength="16" x="1439" y="57.5332">-id</text><text fill="#000000" font-family="sans-serif" font-size="14" lengthAdjust="spacing" textLength="40" x="1439" y="75.1426">-name</text><text fill="#000000" font-family="sans-serif" font-size="14" lengthAdjust="spacing" textLength="94" x="1439" y="92.752">-phoneNumber</text><text fill="#000000" font-family="sans-serif" font-size="14" lengthAdjust="spacing" textLength="38" x="1439" y="110.3613">-email</text><text fill="#000000" font-family="sans-serif" font-size="14" lengthAdjust="spacing" textLength="23" x="1439" y="127.9707">-fax</text><text fill="#000000" font-family="sans-serif" font-size="14" lengthAdjust="spacing" textLength="52" x="1439" y="145.5801">-website</text><text fill="#000000" font-family="sans-serif" font-size="14" lengthAdjust="spacing" textLength="86" x="1439" y="163.1895">-openingHour</text><text fill="#000000" font-family="sans-serif" font-size="14" lengthAdjust="spacing" textLength="79" x="1439" y="180.7988">-closingHour</text><text fill="#000000" font-family="sans-serif" font-size="14" lengthAdjust="spacing" textLength="81" x="1439" y="198.4082">-slotDuration</text><text fill="#000000" font-family="sans-serif" font-size="14" lengthAdjust="spacing" textLength="106" x="1439" y="216.0176">-vaccinesPerSlot</text><text fill="#000000" font-family="sans-serif" font-size="14" lengthAdjust="spacing" textLength="34" x="1439" y="233.627">-road</text><text fill="#000000" font-family="sans-serif" font-size="14" lengthAdjust="spacing" textLength="56" x="1439" y="251.2363">-zipCode</text><text fill="#000000" font-family="sans-serif" font-size="14" lengthAdjust="spacing" textLength="34" x="1439" y="268.8457">-local</text><text fill="#000000" font-family="sans-serif" font-size="14" lengthAdjust="spacing" textLength="133" x="1439" y="286.4551">-centerCoordinatorID</text><text fill="#000000" font-family="sans-serif" font-size="14" lengthAdjust="spacing" textLength="73" x="1439" y="304.0645">-arrivalsList</text><text fill="#000000" font-family="sans-serif" font-size="14" lengthAdjust="spacing" textLength="142" x="1439" y="321.6738">-scheduledVaccineList</text><text fill="#000000" font-family="sans-serif" font-size="14" lengthAdjust="spacing" textLength="164" x="1439" y="339.2832">-vaccinesAdministeredList</text></g><!--MD5=[950bab46f39ba9ae59885963abb53c18]
class Arrival--><g id="elem_Arrival"><rect codeLine="42" fill="#F1F1F1" height="92.8281" id="Arrival" rx="2.5" ry="2.5" style="stroke:#181818;stroke-width:0.5;" width="97" x="1711.5" y="219"/><ellipse cx="1737.75" cy="235" fill="#ADD1B2" rx="11" ry="11" style="stroke:#181818;stroke-width:1.0;"/><path d="M1739.75,231.5 Q1739.9531,231 1740.1875,230.75 Q1740.4219,230.5 1740.6875,230.5 Q1741.1563,230.5 1741.4531,230.7813 Q1741.75,231.0625 1741.75,231.7188 L1741.75,233.2813 Q1741.75,233.9375 1741.4688,234.2188 Q1741.1875,234.5 1740.75,234.5 Q1740.3594,234.5 1740.1094,234.3281 Q1739.8594,234.1563 1739.75,233.7031 Q1739.7031,233.3906 1739.5313,233.2188 Q1739.2188,232.8906 1738.6563,232.7031 Q1738.0938,232.5 1737.5313,232.5 Q1736.8281,232.5 1736.2344,232.7813 Q1735.6563,233.0625 1735.2031,233.6875 Q1734.75,234.3125 1734.75,235.1719 L1734.75,236.0938 Q1734.75,237.125 1735.5938,237.8125 Q1736.4375,238.5 1737.9375,238.5 Q1738.8281,238.5 1739.4531,238.2969 Q1739.8125,238.1875 1740.2188,237.8281 Q1740.4844,237.625 1740.625,237.5625 Q1740.7656,237.5 1740.9375,237.5 Q1741.2656,237.5 1741.5,237.7656 Q1741.75,238.0156 1741.75,238.375 Q1741.75,238.7188 1741.4063,239.125 Q1740.9063,239.7188 1740.1094,240.0469 Q1739.0625,240.5 1737.7813,240.5 Q1736.2813,240.5 1735.0781,239.9063 Q1734.1094,239.4375 1733.4219,238.4219 Q1732.75,237.4063 1732.75,236.2031 L1732.75,235.1094 Q1732.75,233.8594 1733.3438,232.7656 Q1733.9531,231.6719 1735,231.0938 Q1736.0625,230.5 1737.25,230.5 Q1737.9688,230.5 1738.5938,230.75 Q1739.2188,231 1739.75,231.5 Z " fill="#000000"/><text fill="#000000" font-family="sans-serif" font-size="14" lengthAdjust="spacing" textLength="40" x="1754.25" y="240.7285">Arrival</text><line style="stroke:#181818;stroke-width:0.5;" x1="1712.5" x2="1807.5" y1="251" y2="251"/><text fill="#000000" font-family="sans-serif" font-size="14" lengthAdjust="spacing" textLength="76" x="1717.5" y="269.5332">-snsNumber</text><text fill="#000000" font-family="sans-serif" font-size="14" lengthAdjust="spacing" textLength="75" x="1717.5" y="287.1426">-arrivalTime</text><text fill="#000000" font-family="sans-serif" font-size="14" lengthAdjust="spacing" textLength="85" x="1717.5" y="304.752">-vaccineType</text></g><!--MD5=[48df65130f715be277a00ee6d54f7c6c]
class Departure--><g id="elem_Departure"><rect codeLine="48" fill="#F1F1F1" height="75.2188" id="Departure" rx="2.5" ry="2.5" style="stroke:#181818;stroke-width:0.5;" width="110" x="1705" y="408"/><ellipse cx="1726.3" cy="424" fill="#ADD1B2" rx="11" ry="11" style="stroke:#181818;stroke-width:1.0;"/><path d="M1728.3,420.5 Q1728.5031,420 1728.7375,419.75 Q1728.9719,419.5 1729.2375,419.5 Q1729.7063,419.5 1730.0031,419.7813 Q1730.3,420.0625 1730.3,420.7188 L1730.3,422.2813 Q1730.3,422.9375 1730.0188,423.2188 Q1729.7375,423.5 1729.3,423.5 Q1728.9094,423.5 1728.6594,423.3281 Q1728.4094,423.1563 1728.3,422.7031 Q1728.2531,422.3906 1728.0813,422.2188 Q1727.7688,421.8906 1727.2063,421.7031 Q1726.6438,421.5 1726.0813,421.5 Q1725.3781,421.5 1724.7844,421.7813 Q1724.2063,422.0625 1723.7531,422.6875 Q1723.3,423.3125 1723.3,424.1719 L1723.3,425.0938 Q1723.3,426.125 1724.1438,426.8125 Q1724.9875,427.5 1726.4875,427.5 Q1727.3781,427.5 1728.0031,427.2969 Q1728.3625,427.1875 1728.7688,426.8281 Q1729.0344,426.625 1729.175,426.5625 Q1729.3156,426.5 1729.4875,426.5 Q1729.8156,426.5 1730.05,426.7656 Q1730.3,427.0156 1730.3,427.375 Q1730.3,427.7188 1729.9563,428.125 Q1729.4563,428.7188 1728.6594,429.0469 Q1727.6125,429.5 1726.3313,429.5 Q1724.8313,429.5 1723.6281,428.9063 Q1722.6594,428.4375 1721.9719,427.4219 Q1721.3,426.4063 1721.3,425.2031 L1721.3,424.1094 Q1721.3,422.8594 1721.8938,421.7656 Q1722.5031,420.6719 1723.55,420.0938 Q1724.6125,419.5 1725.8,419.5 Q1726.5188,419.5 1727.1438,419.75 Q1727.7688,420 1728.3,420.5 Z " fill="#000000"/><text fill="#000000" font-family="sans-serif" font-size="14" lengthAdjust="spacing" textLength="64" x="1741.7" y="429.7285">Departure</text><line style="stroke:#181818;stroke-width:0.5;" x1="1706" x2="1814" y1="440" y2="440"/><text fill="#000000" font-family="sans-serif" font-size="14" lengthAdjust="spacing" textLength="76" x="1711" y="458.5332">-snsNumber</text><text fill="#000000" font-family="sans-serif" font-size="14" lengthAdjust="spacing" textLength="98" x="1711" y="476.1426">-departureTime</text></g><!--MD5=[0272a23692617c5db7456d6ea983d764]
class PerformanceAnalyzer--><g id="elem_PerformanceAnalyzer"><rect codeLine="53" fill="#F1F1F1" height="40" id="PerformanceAnalyzer" rx="2.5" ry="2.5" style="stroke:#181818;stroke-width:0.5;" width="167" x="813" y="265.5"/><ellipse cx="828" cy="281.5" fill="#ADD1B2" rx="11" ry="11" style="stroke:#181818;stroke-width:1.0;"/><path d="M830,278 Q830.2031,277.5 830.4375,277.25 Q830.6719,277 830.9375,277 Q831.4063,277 831.7031,277.2813 Q832,277.5625 832,278.2188 L832,279.7813 Q832,280.4375 831.7188,280.7188 Q831.4375,281 831,281 Q830.6094,281 830.3594,280.8281 Q830.1094,280.6563 830,280.2031 Q829.9531,279.8906 829.7813,279.7188 Q829.4688,279.3906 828.9063,279.2031 Q828.3438,279 827.7813,279 Q827.0781,279 826.4844,279.2813 Q825.9063,279.5625 825.4531,280.1875 Q825,280.8125 825,281.6719 L825,282.5938 Q825,283.625 825.8438,284.3125 Q826.6875,285 828.1875,285 Q829.0781,285 829.7031,284.7969 Q830.0625,284.6875 830.4688,284.3281 Q830.7344,284.125 830.875,284.0625 Q831.0156,284 831.1875,284 Q831.5156,284 831.75,284.2656 Q832,284.5156 832,284.875 Q832,285.2188 831.6563,285.625 Q831.1563,286.2188 830.3594,286.5469 Q829.3125,287 828.0313,287 Q826.5313,287 825.3281,286.4063 Q824.3594,285.9375 823.6719,284.9219 Q823,283.9063 823,282.7031 L823,281.6094 Q823,280.3594 823.5938,279.2656 Q824.2031,278.1719 825.25,277.5938 Q826.3125,277 827.5,277 Q828.2188,277 828.8438,277.25 Q829.4688,277.5 830,278 Z " fill="#000000"/><text fill="#000000" font-family="sans-serif" font-size="14" lengthAdjust="spacing" textLength="135" x="842" y="287.2285">PerformanceAnalyzer</text><line style="stroke:#181818;stroke-width:0.5;" x1="814" x2="979" y1="297.5" y2="297.5"/></g><!--MD5=[4d612461808e98a9b5be24cda71cf6f5]
class InformationToAnalyze--><g id="elem_InformationToAnalyze"><rect codeLine="56" fill="#F1F1F1" height="40" id="InformationToAnalyze" rx="2.5" ry="2.5" style="stroke:#181818;stroke-width:0.5;" width="168" x="1122" y="332.5"/><ellipse cx="1137" cy="348.5" fill="#ADD1B2" rx="11" ry="11" style="stroke:#181818;stroke-width:1.0;"/><path d="M1139,345 Q1139.2031,344.5 1139.4375,344.25 Q1139.6719,344 1139.9375,344 Q1140.4063,344 1140.7031,344.2813 Q1141,344.5625 1141,345.2188 L1141,346.7813 Q1141,347.4375 1140.7188,347.7188 Q1140.4375,348 1140,348 Q1139.6094,348 1139.3594,347.8281 Q1139.1094,347.6563 1139,347.2031 Q1138.9531,346.8906 1138.7813,346.7188 Q1138.4688,346.3906 1137.9063,346.2031 Q1137.3438,346 1136.7813,346 Q1136.0781,346 1135.4844,346.2813 Q1134.9063,346.5625 1134.4531,347.1875 Q1134,347.8125 1134,348.6719 L1134,349.5938 Q1134,350.625 1134.8438,351.3125 Q1135.6875,352 1137.1875,352 Q1138.0781,352 1138.7031,351.7969 Q1139.0625,351.6875 1139.4688,351.3281 Q1139.7344,351.125 1139.875,351.0625 Q1140.0156,351 1140.1875,351 Q1140.5156,351 1140.75,351.2656 Q1141,351.5156 1141,351.875 Q1141,352.2188 1140.6563,352.625 Q1140.1563,353.2188 1139.3594,353.5469 Q1138.3125,354 1137.0313,354 Q1135.5313,354 1134.3281,353.4063 Q1133.3594,352.9375 1132.6719,351.9219 Q1132,350.9063 1132,349.7031 L1132,348.6094 Q1132,347.3594 1132.5938,346.2656 Q1133.2031,345.1719 1134.25,344.5938 Q1135.3125,344 1136.5,344 Q1137.2188,344 1137.8438,344.25 Q1138.4688,344.5 1139,345 Z " fill="#000000"/><text fill="#000000" font-family="sans-serif" font-size="14" lengthAdjust="spacing" textLength="136" x="1151" y="354.2285">InformationToAnalyze</text><line style="stroke:#181818;stroke-width:0.5;" x1="1123" x2="1289" y1="364.5" y2="364.5"/></g><!--MD5=[02e4b9b7573f1156f41e60aa5b4e25a4]
class Company--><g id="elem_Company"><rect fill="#F1F1F1" height="40" id="Company" rx="2.5" ry="2.5" style="stroke:#181818;stroke-width:0.5;" width="92" x="7" y="391.5"/><ellipse cx="22" cy="407.5" fill="#ADD1B2" rx="11" ry="11" style="stroke:#181818;stroke-width:1.0;"/><path d="M24,404 Q24.2031,403.5 24.4375,403.25 Q24.6719,403 24.9375,403 Q25.4063,403 25.7031,403.2813 Q26,403.5625 26,404.2188 L26,405.7813 Q26,406.4375 25.7188,406.7188 Q25.4375,407 25,407 Q24.6094,407 24.3594,406.8281 Q24.1094,406.6563 24,406.2031 Q23.9531,405.8906 23.7813,405.7188 Q23.4688,405.3906 22.9063,405.2031 Q22.3438,405 21.7813,405 Q21.0781,405 20.4844,405.2813 Q19.9063,405.5625 19.4531,406.1875 Q19,406.8125 19,407.6719 L19,408.5938 Q19,409.625 19.8438,410.3125 Q20.6875,411 22.1875,411 Q23.0781,411 23.7031,410.7969 Q24.0625,410.6875 24.4688,410.3281 Q24.7344,410.125 24.875,410.0625 Q25.0156,410 25.1875,410 Q25.5156,410 25.75,410.2656 Q26,410.5156 26,410.875 Q26,411.2188 25.6563,411.625 Q25.1563,412.2188 24.3594,412.5469 Q23.3125,413 22.0313,413 Q20.5313,413 19.3281,412.4063 Q18.3594,411.9375 17.6719,410.9219 Q17,409.9063 17,408.7031 L17,407.6094 Q17,406.3594 17.5938,405.2656 Q18.2031,404.1719 19.25,403.5938 Q20.3125,403 21.5,403 Q22.2188,403 22.8438,403.25 Q23.4688,403.5 24,404 Z " fill="#000000"/><text fill="#000000" font-family="sans-serif" font-size="14" lengthAdjust="spacing" textLength="60" x="36" y="413.2285">Company</text><line style="stroke:#181818;stroke-width:0.5;" x1="8" x2="98" y1="423.5" y2="423.5"/></g><!--MD5=[bc55124b44ee97098f5269cfae7858cc]
reverse link ApplicationUser to Employee--><g id="link_ApplicationUser_Employee"><path codeLine="60" d="M351.55,298.44 C365.5,297 379.42,295.56 391.9,294.27 " fill="none" id="ApplicationUser-backto-Employee" style="stroke:#181818;stroke-width:1.0;"/><polygon fill="none" points="351.89,305.45,331.27,300.54,350.45,291.52,351.89,305.45" style="stroke:#181818;stroke-width:1.0;"/></g><!--MD5=[98f7f3dc8d9719d04ad14614c4ea123f]
reverse link Employee to CenterCoordinator--><g id="link_Employee_CenterCoordinator"><path codeLine="62" d="M506.6,288.03 C519.69,287.74 533.49,287.43 546.81,287.14 " fill="none" id="Employee-backto-CenterCoordinator" style="stroke:#181818;stroke-width:1.0;"/><polygon fill="none" points="506.29,295.04,486.14,288.48,505.98,281.04,506.29,295.04" style="stroke:#181818;stroke-width:1.0;"/></g><!--MD5=[4b3da0089d516695f718f969f752343e]
link PerformanceAnalyzer to InformationToAnalyze--><g id="link_PerformanceAnalyzer_InformationToAnalyze"><path codeLine="64" d="M980.31,303.54 C1024.16,313.1 1077.87,324.8 1121.78,334.37 " fill="none" id="PerformanceAnalyzer-InformationToAnalyze" style="stroke:#181818;stroke-width:1.0;"/><polygon fill="#000000" points="1042.8853,302.7404,1034.6735,297.9429,1033.4219,303.686,1042.8853,302.7404" style="stroke:#000000;stroke-width:1.0;"/><text fill="#000000" font-family="sans-serif" font-size="13" lengthAdjust="spacing" textLength="21" x="1047" y="306.9951">has</text><text fill="#000000" font-family="sans-serif" font-size="13" lengthAdjust="spacing" textLength="7" x="988.086" y="319.37">1</text><text fill="#000000" font-family="sans-serif" font-size="13" lengthAdjust="spacing" textLength="7" x="1106.9674" y="346.9786">1</text></g><!--MD5=[64aaa42afbfccbea1beddd7eb2dab549]
link InformationToAnalyze to VaccinationCenter--><g id="link_InformationToAnalyze_VaccinationCenter"><path codeLine="66" d="M1290.11,340.45 C1326.58,332.6 1368.78,319.88 1403,299.5 C1413.25,293.39 1423.19,286.14 1432.66,278.25 " fill="none" id="InformationToAnalyze-VaccinationCenter" style="stroke:#181818;stroke-width:1.0;"/><polygon fill="#000000" points="1329.5827,288.6762,1320.1171,289.5998,1322.4678,294.9872,1329.5827,288.6762" style="stroke:#000000;stroke-width:1.0;"/><text fill="#000000" font-family="sans-serif" font-size="13" lengthAdjust="spacing" textLength="68" x="1334" y="295.9951">is related to</text><text fill="#000000" font-family="sans-serif" font-size="13" lengthAdjust="spacing" textLength="7" x="1297.9128" y="353.6001">1</text><text fill="#000000" font-family="sans-serif" font-size="13" lengthAdjust="spacing" textLength="7" x="1418.0545" y="300.8335">1</text></g><!--MD5=[df64fa126a8270af2a3ddd1c173b5058]
link InformationToAnalyze to Arrival--><g id="link_InformationToAnalyze_Arrival"><path codeLine="68" d="M1290.03,372.35 C1372.04,388.73 1500.58,405.69 1609,381.5 C1640.63,374.44 1648.53,369.2 1675,350.5 C1690.42,339.6 1705.49,325.71 1718.51,312.33 " fill="none" id="InformationToAnalyze-Arrival" style="stroke:#181818;stroke-width:1.0;"/><polygon fill="#000000" points="1502.9517,371.9822,1493.5863,370.3264,1494.4017,376.1474,1502.9517,371.9822" style="stroke:#000000;stroke-width:1.0;"/><text fill="#000000" font-family="sans-serif" font-size="13" lengthAdjust="spacing" textLength="41" x="1507" y="377.9951">utilizes</text><text fill="#000000" font-family="sans-serif" font-size="13" lengthAdjust="spacing" textLength="7" x="1298.0992" y="388.4287">1</text><text fill="#000000" font-family="sans-serif" font-size="13" lengthAdjust="spacing" textLength="5" x="1707.5988" y="333.2281">*</text></g><!--MD5=[c34718504b1556d803d9ae46f8604f0f]
link InformationToAnalyze to Departure--><g id="link_InformationToAnalyze_Departure"><path codeLine="70" d="M1253.11,372.51 C1273.36,380.76 1297.58,389.91 1320,396.5 C1454.45,436.05 1620.66,444.1 1704.77,445.47 " fill="none" id="InformationToAnalyze-Departure" style="stroke:#181818;stroke-width:1.0;"/><polygon fill="#000000" points="1502.936,414.4731,1494.4754,410.1294,1493.538,415.932,1502.936,414.4731" style="stroke:#000000;stroke-width:1.0;"/><text fill="#000000" font-family="sans-serif" font-size="13" lengthAdjust="spacing" textLength="41" x="1507" y="418.9951">utilizes</text><text fill="#000000" font-family="sans-serif" font-size="13" lengthAdjust="spacing" textLength="7" x="1258.3753" y="393.9324">1</text><text fill="#000000" font-family="sans-serif" font-size="13" lengthAdjust="spacing" textLength="5" x="1692.0125" y="460.045">*</text></g><!--MD5=[24b69a571b306a26ee3f78b0f8b89751]
link VaccinationCenter to Arrival--><g id="link_VaccinationCenter_Arrival"><path codeLine="72" d="M1609.24,209.26 C1643.82,222.25 1682.23,236.67 1711.49,247.66 " fill="none" id="VaccinationCenter-Arrival" style="stroke:#181818;stroke-width:1.0;"/><polygon fill="#000000" points="1648.6808,214.4337,1641.2464,208.5023,1639.1799,214.0049,1648.6808,214.4337" style="stroke:#000000;stroke-width:1.0;"/><text fill="#000000" font-family="sans-serif" font-size="13" lengthAdjust="spacing" textLength="21" x="1653" y="217.9951">has</text><text fill="#000000" font-family="sans-serif" font-size="13" lengthAdjust="spacing" textLength="7" x="1617.1239" y="226.2576">1</text><text fill="#000000" font-family="sans-serif" font-size="13" lengthAdjust="spacing" textLength="5" x="1698.3603" y="259.6286">*</text></g><!--MD5=[cd314741d42872d131417dfbfe8ad369]
link VaccinationCenter to Departure--><g id="link_VaccinationCenter_Departure"><path codeLine="74" d="M1609.24,275.52 C1649.76,321.51 1695.53,373.46 1725.69,407.69 " fill="none" id="VaccinationCenter-Departure" style="stroke:#181818;stroke-width:1.0;"/><polygon fill="#000000" points="1647.3054,305.4274,1643.531,296.6978,1639.1208,300.5835,1647.3054,305.4274" style="stroke:#000000;stroke-width:1.0;"/><text fill="#000000" font-family="sans-serif" font-size="13" lengthAdjust="spacing" textLength="21" x="1653" y="306.9951">has</text><text fill="#000000" font-family="sans-serif" font-size="13" lengthAdjust="spacing" textLength="7" x="1617.1239" y="298.2118">1</text><text fill="#000000" font-family="sans-serif" font-size="13" lengthAdjust="spacing" textLength="5" x="1714.1332" y="397.037">*</text></g><!--MD5=[d5cf03d886352995267197dc535618ec]
link CenterCoordinator to VaccinationCenter--><g id="link_CenterCoordinator_VaccinationCenter"><path codeLine="76" d="M697.21,265.93 C707.19,263.6 717.32,261.38 727,259.5 C764.88,252.14 774.76,252.7 813,247.5 C950.27,228.82 984.21,220.82 1122,206.5 C1226.53,195.63 1346.91,187.11 1427.66,181.97 " fill="none" id="CenterCoordinator-to-VaccinationCenter" style="stroke:#181818;stroke-width:1.0;"/><polygon fill="#181818" points="1432.92,181.64,1423.6862,178.2141,1427.9299,181.9546,1424.1895,186.1983,1432.92,181.64" style="stroke:#181818;stroke-width:1.0;"/><polygon fill="#000000" points="1019.9673,201.1048,1010.6458,199.218,1011.317,205.0574,1019.9673,201.1048" style="stroke:#000000;stroke-width:1.0;"/><text fill="#000000" font-family="sans-serif" font-size="13" lengthAdjust="spacing" textLength="67" x="1024" y="206.9951">coordinates</text><text fill="#000000" font-family="sans-serif" font-size="13" lengthAdjust="spacing" textLength="7" x="704.958" y="278.3035">1</text><text fill="#000000" font-family="sans-serif" font-size="13" lengthAdjust="spacing" textLength="7" x="1418.0498" y="196.264">1</text></g><!--MD5=[fca9bdf85319580b67a33134c9cbf791]
link CenterCoordinator to PerformanceAnalyzer--><g id="link_CenterCoordinator_PerformanceAnalyzer"><path codeLine="78" d="M697.1,285.5 C731.2,285.5 771.91,285.5 807.55,285.5 " fill="none" id="CenterCoordinator-to-PerformanceAnalyzer" style="stroke:#181818;stroke-width:1.0;"/><polygon fill="#181818" points="812.77,285.5,803.77,281.5,807.77,285.5,803.77,289.5,812.77,285.5" style="stroke:#181818;stroke-width:1.0;"/><polygon fill="#000000" points="737,276.6758,727.9549,273.7369,727.9549,279.6147,737,276.6758" style="stroke:#000000;stroke-width:1.0;"/><text fill="#000000" font-family="sans-serif" font-size="13" lengthAdjust="spacing" textLength="41" x="741" y="281.9951">utilizes</text><text fill="#000000" font-family="sans-serif" font-size="13" lengthAdjust="spacing" textLength="7" x="705.2056" y="299.8382">1</text><text fill="#000000" font-family="sans-serif" font-size="13" lengthAdjust="spacing" textLength="7" x="798.0011" y="299.7233">1</text></g><!--MD5=[3d0c769b877f7b2bf012ca4ef86fbcd8]
link PerformanceAnalyzer to VaccinationCenter--><g id="link_PerformanceAnalyzer_VaccinationCenter"><path codeLine="80" d="M980.43,276.5 C1081.08,264.78 1255.65,241.9 1403,209.5 C1411.02,207.74 1419.31,205.75 1427.6,203.64 " fill="none" id="PerformanceAnalyzer-to-VaccinationCenter" style="stroke:#181818;stroke-width:1.0;"/><polygon fill="#181818" points="1432.75,202.31,1423.0382,200.6728,1427.9069,203.5529,1425.0268,208.4217,1432.75,202.31" style="stroke:#181818;stroke-width:1.0;"/><polygon fill="#000000" points="1182.4349,222.8717,1173.0349,221.4256,1173.9802,227.227,1182.4349,222.8717" style="stroke:#000000;stroke-width:1.0;"/><text fill="#000000" font-family="sans-serif" font-size="13" lengthAdjust="spacing" textLength="52" x="1186.5" y="228.9951">analyzes</text><text fill="#000000" font-family="sans-serif" font-size="13" lengthAdjust="spacing" textLength="7" x="987.9435" y="289.9243">1</text><text fill="#000000" font-family="sans-serif" font-size="13" lengthAdjust="spacing" textLength="7" x="1417.8652" y="218.7103">1</text></g><!--MD5=[32b493758c6c71b268d4802c243e6dac]
link Company to ApplicationUser--><g id="link_Company_ApplicationUser"><path codeLine="82" d="M94.1,391.45 C122.55,377.22 161.42,357.79 194.59,341.2 " fill="none" id="Company-ApplicationUser" style="stroke:#181818;stroke-width:1.0;"/><polygon fill="#000000" points="138.472,344.4395,129.0676,345.8563,131.6965,351.1135,138.472,344.4395" style="stroke:#000000;stroke-width:1.0;"/><text fill="#000000" font-family="sans-serif" font-size="13" lengthAdjust="spacing" textLength="21" x="143" y="351.9951">has</text><text fill="#000000" font-family="sans-serif" font-size="13" lengthAdjust="spacing" textLength="7" x="98.145" y="380.7571">1</text><text fill="#000000" font-family="sans-serif" font-size="13" lengthAdjust="spacing" textLength="5" x="181.8342" y="359.2941">*</text></g><!--MD5=[eebe9b198877275d05dd12630ed9e401]
link Company to VaccinationCenter--><g id="link_Company_VaccinationCenter"><path codeLine="84" d="M99.19,421.48 C141.16,429.87 205.49,440.5 262,440.5 C262,440.5 262,440.5 1207,440.5 C1304.79,440.5 1328.93,404.35 1403,340.5 C1413.46,331.48 1423.48,321.34 1432.95,310.64 " fill="none" id="Company-VaccinationCenter" style="stroke:#181818;stroke-width:1.0;"/><polygon fill="#000000" points="613.9828,431.2617,604.7254,429.082,605.2122,434.9396,613.9828,431.2617" style="stroke:#000000;stroke-width:1.0;"/><text fill="#000000" font-family="sans-serif" font-size="13" lengthAdjust="spacing" textLength="21" x="618" y="436.9951">has</text><text fill="#000000" font-family="sans-serif" font-size="13" lengthAdjust="spacing" textLength="7" x="107.1093" y="437.8687">1</text><text fill="#000000" font-family="sans-serif" font-size="13" lengthAdjust="spacing" textLength="5" x="1419.8854" y="336.7941">*</text></g><!--MD5=[0d4bc001e82bf20a0577fe10dd81dc60]
@startuml

hide methods
left to right direction
skinparam classAttributeIconSize 0


class CenterCoordinator

class Employee {
-id
}

class ApplicationUser {
    -name
    -email
    -password
    -role
    -address
    -citizenCardNumber
}

class VaccinationCenter {
-id
-name
-phoneNumber
-email
-fax
-website
-openingHour
-closingHour
-slotDuration
-vaccinesPerSlot
-road
-zipCode
-local
-centerCoordinatorID
-arrivalsList
-scheduledVaccineList
-vaccinesAdministeredList
}

class Arrival {
-snsNumber
-arrivalTime
-vaccineType
}

class Departure {
-snsNumber
-departureTime
}

class PerformanceAnalyzer {
}

class InformationToAnalyze {
}


ApplicationUser <|- - Employee

Employee <|- - CenterCoordinator

PerformanceAnalyzer "1" - - "1" InformationToAnalyze : has >

InformationToAnalyze "1" - - "1" VaccinationCenter : is related to >

InformationToAnalyze "1" - - "*" Arrival : utilizes >

InformationToAnalyze "1" - - "*" Departure : utilizes >

VaccinationCenter "1" - - "*" Arrival : has >

VaccinationCenter "1" - - "*" Departure : has >

CenterCoordinator "1" - -> "1" VaccinationCenter : coordinates >

CenterCoordinator "1" - -> "1" PerformanceAnalyzer : utilizes >

PerformanceAnalyzer "1" - -> "1" VaccinationCenter : analyzes >

Company "1" - - "*" ApplicationUser : has >

Company "1" - - "*" VaccinationCenter : has >

@enduml

PlantUML version 1.2022.5(Sat Apr 30 11:55:52 BST 2022)
(GPL source distribution)
Java Runtime: OpenJDK Runtime Environment
JVM: OpenJDK 64-Bit Server VM
Default Encoding: Cp1252
Language: en
Country: US
--></g></svg>