<?xml version="1.0" encoding="UTF-8" standalone="no"?><svg xmlns="http://www.w3.org/2000/svg" xmlns:xlink="http://www.w3.org/1999/xlink" contentScriptType="application/ecmascript" contentStyleType="text/css" height="666.6px" preserveAspectRatio="none" style="width:1725px;height:666px;background:#FFFFFF;" version="1.1" viewBox="0 0 1725 666" width="1725px" zoomAndPan="magnify"><defs><filter height="300%" id="fq37f2f11ojp7" width="300%" x="-1" y="-1"><feGaussianBlur result="blurOut" stdDeviation="1.2"/><feColorMatrix in="blurOut" result="blurOut2" type="matrix" values="0 0 0 0 0 0 0 0 0 0 0 0 0 0 0 0 0 0 .4 0"/><feOffset dx="2.4" dy="2.4" in="blurOut2" result="blurOut3"/><feBlend in="SourceGraphic" in2="blurOut3" mode="normal"/></filter></defs><g><!--MD5=[9b956c59b16436292d60adff39fe4d1c]
class ApplicationUser--><rect codeLine="5" fill="#FEFECE" filter="url(#fq37f2f11ojp7)" height="68.0438" id="ApplicationUser" style="stroke:#A80036;stroke-width:0.8999999999999999;" width="71.4" x="4.2" y="265.7139"/><ellipse cx="13.2" cy="275.3139" fill="#ADD1B2" rx="6.6" ry="6.6" style="stroke:#A80036;stroke-width:0.6;"/><path d="M14.4,273.2139 Q14.5219,272.9139 14.6625,272.7639 Q14.8031,272.6139 14.9625,272.6139 Q15.2437,272.6139 15.4219,272.7826 Q15.6,272.9514 15.6,273.3451 L15.6,274.2826 Q15.6,274.6764 15.4312,274.8451 Q15.2625,275.0139 15,275.0139 Q14.7656,275.0139 14.6156,274.9107 Q14.4656,274.8076 14.4,274.5357 Q14.3719,274.3482 14.2687,274.2451 Q14.0812,274.0482 13.7438,273.9357 Q13.4063,273.8139 13.0688,273.8139 Q12.6469,273.8139 12.2906,273.9826 Q11.9438,274.1514 11.6719,274.5264 Q11.4,274.9014 11.4,275.417 L11.4,275.9701 Q11.4,276.5889 11.9063,277.0014 Q12.4125,277.4139 13.3125,277.4139 Q13.8469,277.4139 14.2219,277.292 Q14.4375,277.2264 14.6812,277.0107 Q14.8406,276.8889 14.925,276.8514 Q15.0094,276.8139 15.1125,276.8139 Q15.3094,276.8139 15.45,276.9732 Q15.6,277.1232 15.6,277.3389 Q15.6,277.5451 15.3937,277.7889 Q15.0938,278.1451 14.6156,278.342 Q13.9875,278.6139 13.2188,278.6139 Q12.3188,278.6139 11.5969,278.2576 Q11.0156,277.9764 10.6031,277.367 Q10.2,276.7576 10.2,276.0357 L10.2,275.3795 Q10.2,274.6295 10.5563,273.9732 Q10.9219,273.317 11.55,272.9701 Q12.1875,272.6139 12.9,272.6139 Q13.3312,272.6139 13.7062,272.7639 Q14.0812,272.9139 14.4,273.2139 Z " fill="#000000"/><text fill="#000000" font-family="sans-serif" font-size="7.2" lengthAdjust="spacing" textLength="52.2" x="21.6" y="278.26">ApplicationUser</text><line style="stroke:#A80036;stroke-width:0.8999999999999999;" x1="4.8" x2="75" y1="284.9139" y2="284.9139"/><text fill="#000000" font-family="sans-serif" font-size="7.8" font-weight="bold" lengthAdjust="spacing" textLength="24" x="7.8" y="295.4109">-name</text><text fill="#000000" font-family="sans-serif" font-size="7.8" font-weight="bold" lengthAdjust="spacing" textLength="54" x="7.8" y="305.2219">-emailAddress</text><text fill="#000000" font-family="sans-serif" font-size="7.8" font-weight="bold" lengthAdjust="spacing" textLength="17.4" x="7.8" y="315.0328">-role</text><text fill="#000000" font-family="sans-serif" font-size="7.8" font-weight="bold" lengthAdjust="spacing" textLength="38.4" x="7.8" y="324.8438">-password</text><line style="stroke:#A80036;stroke-width:0.8999999999999999;" x1="4.8" x2="75" y1="328.9576" y2="328.9576"/><!--MD5=[da547346deef918ea16944ba046651ef]
class Administrator--><rect codeLine="13" fill="#FEFECE" filter="url(#fq37f2f11ojp7)" height="28.8" id="Administrator" style="stroke:#A80036;stroke-width:0.8999999999999999;" width="63" x="570.6" y="443.6139"/><ellipse cx="579.6" cy="453.2139" fill="#ADD1B2" rx="6.6" ry="6.6" style="stroke:#A80036;stroke-width:0.6;"/><path d="M580.8,451.1139 Q580.9219,450.8139 581.0625,450.6639 Q581.2031,450.5139 581.3625,450.5139 Q581.6438,450.5139 581.8219,450.6826 Q582,450.8514 582,451.2451 L582,452.1826 Q582,452.5764 581.8313,452.7451 Q581.6625,452.9139 581.4,452.9139 Q581.1656,452.9139 581.0156,452.8107 Q580.8656,452.7076 580.8,452.4357 Q580.7719,452.2482 580.6687,452.1451 Q580.4812,451.9482 580.1438,451.8357 Q579.8063,451.7139 579.4688,451.7139 Q579.0469,451.7139 578.6906,451.8826 Q578.3438,452.0514 578.0719,452.4264 Q577.8,452.8014 577.8,453.317 L577.8,453.8701 Q577.8,454.4889 578.3063,454.9014 Q578.8125,455.3139 579.7125,455.3139 Q580.2469,455.3139 580.6219,455.192 Q580.8375,455.1264 581.0813,454.9107 Q581.2406,454.7889 581.325,454.7514 Q581.4094,454.7139 581.5125,454.7139 Q581.7094,454.7139 581.85,454.8732 Q582,455.0232 582,455.2389 Q582,455.4451 581.7937,455.6889 Q581.4938,456.0451 581.0156,456.242 Q580.3875,456.5139 579.6188,456.5139 Q578.7188,456.5139 577.9969,456.1576 Q577.4156,455.8764 577.0031,455.267 Q576.6,454.6576 576.6,453.9357 L576.6,453.2795 Q576.6,452.5295 576.9563,451.8732 Q577.3219,451.217 577.95,450.8701 Q578.5875,450.5139 579.3,450.5139 Q579.7312,450.5139 580.1062,450.6639 Q580.4812,450.8139 580.8,451.1139 Z " fill="#000000"/><text fill="#000000" font-family="sans-serif" font-size="7.2" lengthAdjust="spacing" textLength="43.8" x="588" y="456.16">Administrator</text><line style="stroke:#A80036;stroke-width:0.8999999999999999;" x1="571.2" x2="633" y1="462.8139" y2="462.8139"/><line style="stroke:#A80036;stroke-width:0.8999999999999999;" x1="571.2" x2="633" y1="467.6139" y2="467.6139"/><!--MD5=[c4593935f45e4a2a0cefc4788932b53f]
class SnsUser--><rect codeLine="15" fill="#FEFECE" filter="url(#fq37f2f11ojp7)" height="38.6109" id="SnsUser" style="stroke:#A80036;stroke-width:0.8999999999999999;" width="70.2" x="803.4" y="78.8139"/><ellipse cx="822.12" cy="88.4139" fill="#ADD1B2" rx="6.6" ry="6.6" style="stroke:#A80036;stroke-width:0.6;"/><path d="M823.32,86.3139 Q823.4419,86.0139 823.5825,85.8639 Q823.7231,85.7139 823.8825,85.7139 Q824.1638,85.7139 824.3419,85.8826 Q824.52,86.0514 824.52,86.4451 L824.52,87.3826 Q824.52,87.7764 824.3513,87.9451 Q824.1825,88.1139 823.92,88.1139 Q823.6856,88.1139 823.5356,88.0107 Q823.3856,87.9076 823.32,87.6357 Q823.2919,87.4482 823.1888,87.3451 Q823.0013,87.1482 822.6638,87.0357 Q822.3263,86.9139 821.9888,86.9139 Q821.5669,86.9139 821.2106,87.0826 Q820.8638,87.2514 820.5919,87.6264 Q820.32,88.0014 820.32,88.517 L820.32,89.0701 Q820.32,89.6889 820.8263,90.1014 Q821.3325,90.5139 822.2325,90.5139 Q822.7669,90.5139 823.1419,90.392 Q823.3575,90.3264 823.6013,90.1107 Q823.7606,89.9889 823.845,89.9514 Q823.9294,89.9139 824.0325,89.9139 Q824.2294,89.9139 824.37,90.0732 Q824.52,90.2232 824.52,90.4389 Q824.52,90.6451 824.3138,90.8889 Q824.0138,91.2451 823.5356,91.442 Q822.9075,91.7139 822.1388,91.7139 Q821.2388,91.7139 820.5169,91.3576 Q819.9356,91.0764 819.5231,90.467 Q819.12,89.8576 819.12,89.1357 L819.12,88.4795 Q819.12,87.7295 819.4763,87.0732 Q819.8419,86.417 820.47,86.0701 Q821.1075,85.7139 821.82,85.7139 Q822.2513,85.7139 822.6263,85.8639 Q823.0013,86.0139 823.32,86.3139 Z " fill="#000000"/><text fill="#000000" font-family="sans-serif" font-size="7.2" lengthAdjust="spacing" textLength="29.4" x="832.68" y="91.36">SnsUser</text><line style="stroke:#A80036;stroke-width:0.8999999999999999;" x1="804" x2="873" y1="98.0139" y2="98.0139"/><text fill="#000000" font-family="sans-serif" font-size="7.8" font-weight="bold" lengthAdjust="spacing" textLength="63" x="807" y="108.5109">-SnsUserNumber</text><line style="stroke:#A80036;stroke-width:0.8999999999999999;" x1="804" x2="873" y1="112.6248" y2="112.6248"/><!--MD5=[a059576e163b46f56762f12600c49258]
class Nurse--><rect codeLine="30" fill="#FEFECE" filter="url(#fq37f2f11ojp7)" height="28.8" id="Nurse" style="stroke:#A80036;stroke-width:0.8999999999999999;" width="39.6" x="1236" y="277.4139"/><ellipse cx="1245" cy="287.0139" fill="#ADD1B2" rx="6.6" ry="6.6" style="stroke:#A80036;stroke-width:0.6;"/><path d="M1246.2,284.9139 Q1246.3219,284.6139 1246.4625,284.4639 Q1246.6031,284.3139 1246.7625,284.3139 Q1247.0438,284.3139 1247.2219,284.4826 Q1247.4,284.6514 1247.4,285.0451 L1247.4,285.9826 Q1247.4,286.3764 1247.2313,286.5451 Q1247.0625,286.7139 1246.8,286.7139 Q1246.5656,286.7139 1246.4156,286.6107 Q1246.2656,286.5076 1246.2,286.2357 Q1246.1719,286.0482 1246.0688,285.9451 Q1245.8813,285.7482 1245.5438,285.6357 Q1245.2063,285.5139 1244.8687,285.5139 Q1244.4469,285.5139 1244.0906,285.6826 Q1243.7437,285.8514 1243.4719,286.2264 Q1243.2,286.6014 1243.2,287.117 L1243.2,287.6701 Q1243.2,288.2889 1243.7063,288.7014 Q1244.2125,289.1139 1245.1125,289.1139 Q1245.6469,289.1139 1246.0219,288.992 Q1246.2375,288.9264 1246.4813,288.7107 Q1246.6406,288.5889 1246.725,288.5514 Q1246.8094,288.5139 1246.9125,288.5139 Q1247.1094,288.5139 1247.25,288.6732 Q1247.4,288.8232 1247.4,289.0389 Q1247.4,289.2451 1247.1938,289.4889 Q1246.8938,289.8451 1246.4156,290.042 Q1245.7875,290.3139 1245.0188,290.3139 Q1244.1187,290.3139 1243.3969,289.9576 Q1242.8156,289.6764 1242.4031,289.067 Q1242,288.4576 1242,287.7357 L1242,287.0795 Q1242,286.3295 1242.3563,285.6732 Q1242.7219,285.017 1243.35,284.6701 Q1243.9875,284.3139 1244.7,284.3139 Q1245.1313,284.3139 1245.5063,284.4639 Q1245.8813,284.6139 1246.2,284.9139 Z " fill="#000000"/><text fill="#000000" font-family="sans-serif" font-size="7.2" lengthAdjust="spacing" textLength="20.4" x="1253.4" y="289.96">Nurse</text><line style="stroke:#A80036;stroke-width:0.8999999999999999;" x1="1236.6" x2="1275" y1="296.6139" y2="296.6139"/><line style="stroke:#A80036;stroke-width:0.8999999999999999;" x1="1236.6" x2="1275" y1="301.4139" y2="301.4139"/><!--MD5=[03960189e81aa2c066c762ffabbee709]
class Receptionist--><rect codeLine="28" fill="#FEFECE" filter="url(#fq37f2f11ojp7)" height="28.8" id="Receptionist" style="stroke:#A80036;stroke-width:0.8999999999999999;" width="60.6" x="9.6" y="147.2139"/><ellipse cx="18.6" cy="156.8139" fill="#ADD1B2" rx="6.6" ry="6.6" style="stroke:#A80036;stroke-width:0.6;"/><path d="M19.8,154.7139 Q19.9219,154.4139 20.0625,154.2639 Q20.2031,154.1139 20.3625,154.1139 Q20.6438,154.1139 20.8219,154.2826 Q21,154.4514 21,154.8451 L21,155.7826 Q21,156.1764 20.8313,156.3451 Q20.6625,156.5139 20.4,156.5139 Q20.1656,156.5139 20.0156,156.4107 Q19.8656,156.3076 19.8,156.0357 Q19.7719,155.8482 19.6688,155.7451 Q19.4813,155.5482 19.1438,155.4357 Q18.8063,155.3139 18.4688,155.3139 Q18.0469,155.3139 17.6906,155.4826 Q17.3438,155.6514 17.0719,156.0264 Q16.8,156.4014 16.8,156.917 L16.8,157.4701 Q16.8,158.0889 17.3063,158.5014 Q17.8125,158.9139 18.7125,158.9139 Q19.2469,158.9139 19.6219,158.792 Q19.8375,158.7264 20.0813,158.5107 Q20.2406,158.3889 20.325,158.3514 Q20.4094,158.3139 20.5125,158.3139 Q20.7094,158.3139 20.85,158.4732 Q21,158.6232 21,158.8389 Q21,159.0451 20.7938,159.2889 Q20.4938,159.6451 20.0156,159.842 Q19.3875,160.1139 18.6188,160.1139 Q17.7188,160.1139 16.9969,159.7576 Q16.4156,159.4764 16.0031,158.867 Q15.6,158.2576 15.6,157.5357 L15.6,156.8795 Q15.6,156.1295 15.9562,155.4732 Q16.3219,154.817 16.95,154.4701 Q17.5875,154.1139 18.3,154.1139 Q18.7313,154.1139 19.1063,154.2639 Q19.4813,154.4139 19.8,154.7139 Z " fill="#000000"/><text fill="#000000" font-family="sans-serif" font-size="7.2" lengthAdjust="spacing" textLength="41.4" x="27" y="159.76">Receptionist</text><line style="stroke:#A80036;stroke-width:0.8999999999999999;" x1="10.2" x2="69.6" y1="166.4139" y2="166.4139"/><line style="stroke:#A80036;stroke-width:0.8999999999999999;" x1="10.2" x2="69.6" y1="171.2139" y2="171.2139"/><!--MD5=[2d935fd2dd068a13da1ae531f9857c4f]
class CenterCoordinator--><rect codeLine="32" fill="#FEFECE" filter="url(#fq37f2f11ojp7)" height="28.8" id="CenterCoordinator" style="stroke:#A80036;stroke-width:0.8999999999999999;" width="80.4" x="156" y="536.6139"/><ellipse cx="165" cy="546.2139" fill="#ADD1B2" rx="6.6" ry="6.6" style="stroke:#A80036;stroke-width:0.6;"/><path d="M166.2,544.1139 Q166.3219,543.8139 166.4625,543.6639 Q166.6031,543.5139 166.7625,543.5139 Q167.0438,543.5139 167.2219,543.6826 Q167.4,543.8514 167.4,544.2451 L167.4,545.1826 Q167.4,545.5764 167.2313,545.7451 Q167.0625,545.9139 166.8,545.9139 Q166.5656,545.9139 166.4156,545.8107 Q166.2656,545.7076 166.2,545.4357 Q166.1719,545.2482 166.0688,545.1451 Q165.8813,544.9482 165.5438,544.8357 Q165.2062,544.7139 164.8688,544.7139 Q164.4469,544.7139 164.0906,544.8826 Q163.7438,545.0514 163.4719,545.4264 Q163.2,545.8014 163.2,546.317 L163.2,546.8701 Q163.2,547.4889 163.7062,547.9014 Q164.2125,548.3139 165.1125,548.3139 Q165.6469,548.3139 166.0219,548.192 Q166.2375,548.1264 166.4813,547.9107 Q166.6406,547.7889 166.725,547.7514 Q166.8094,547.7139 166.9125,547.7139 Q167.1094,547.7139 167.25,547.8732 Q167.4,548.0232 167.4,548.2389 Q167.4,548.4451 167.1938,548.6889 Q166.8937,549.0451 166.4156,549.242 Q165.7875,549.5139 165.0187,549.5139 Q164.1188,549.5139 163.3969,549.1576 Q162.8156,548.8764 162.4031,548.267 Q162,547.6576 162,546.9357 L162,546.2795 Q162,545.5295 162.3563,544.8732 Q162.7219,544.217 163.35,543.8701 Q163.9875,543.5139 164.7,543.5139 Q165.1313,543.5139 165.5063,543.6639 Q165.8813,543.8139 166.2,544.1139 Z " fill="#000000"/><text fill="#000000" font-family="sans-serif" font-size="7.2" lengthAdjust="spacing" textLength="61.2" x="173.4" y="549.16">CenterCoordinator</text><line style="stroke:#A80036;stroke-width:0.8999999999999999;" x1="156.6" x2="235.8" y1="555.8139" y2="555.8139"/><line style="stroke:#A80036;stroke-width:0.8999999999999999;" x1="156.6" x2="235.8" y1="560.6139" y2="560.6139"/><!--MD5=[4d1d709ea04c932694b424a1dbd905a6]
class VaccinatonCenter--><rect codeLine="44" fill="#FEFECE" filter="url(#fq37f2f11ojp7)" height="136.7203" id="VaccinatonCenter" style="stroke:#A80036;stroke-width:0.8999999999999999;" width="77.4" x="1505.4" y="486.8139"/><ellipse cx="1514.4" cy="496.4139" fill="#ADD1B2" rx="6.6" ry="6.6" style="stroke:#A80036;stroke-width:0.6;"/><path d="M1515.6,494.3139 Q1515.7219,494.0139 1515.8625,493.8639 Q1516.0031,493.7139 1516.1625,493.7139 Q1516.4438,493.7139 1516.6219,493.8826 Q1516.8,494.0514 1516.8,494.4451 L1516.8,495.3826 Q1516.8,495.7764 1516.6313,495.9451 Q1516.4625,496.1139 1516.2,496.1139 Q1515.9656,496.1139 1515.8156,496.0107 Q1515.6656,495.9076 1515.6,495.6357 Q1515.5719,495.4482 1515.4688,495.3451 Q1515.2813,495.1482 1514.9438,495.0357 Q1514.6063,494.9139 1514.2688,494.9139 Q1513.8469,494.9139 1513.4906,495.0826 Q1513.1438,495.2514 1512.8719,495.6264 Q1512.6,496.0014 1512.6,496.517 L1512.6,497.0701 Q1512.6,497.6889 1513.1063,498.1014 Q1513.6125,498.5139 1514.5125,498.5139 Q1515.0469,498.5139 1515.4219,498.392 Q1515.6375,498.3264 1515.8813,498.1107 Q1516.0406,497.9889 1516.125,497.9514 Q1516.2094,497.9139 1516.3125,497.9139 Q1516.5094,497.9139 1516.65,498.0732 Q1516.8,498.2232 1516.8,498.4389 Q1516.8,498.6451 1516.5938,498.8889 Q1516.2938,499.2451 1515.8156,499.442 Q1515.1875,499.7139 1514.4188,499.7139 Q1513.5188,499.7139 1512.7969,499.3576 Q1512.2156,499.0764 1511.8031,498.467 Q1511.4,497.8576 1511.4,497.1357 L1511.4,496.4795 Q1511.4,495.7295 1511.7563,495.0732 Q1512.1219,494.417 1512.75,494.0701 Q1513.3875,493.7139 1514.1,493.7139 Q1514.5313,493.7139 1514.9063,493.8639 Q1515.2813,494.0139 1515.6,494.3139 Z " fill="#000000"/><text fill="#000000" font-family="sans-serif" font-size="7.2" lengthAdjust="spacing" textLength="58.2" x="1522.8" y="499.36">VaccinatonCenter</text><line style="stroke:#A80036;stroke-width:0.8999999999999999;" x1="1506" x2="1582.2" y1="506.0139" y2="506.0139"/><text fill="#000000" font-family="sans-serif" font-size="7.8" font-weight="bold" lengthAdjust="spacing" textLength="24" x="1509" y="516.5109">-name</text><text fill="#000000" font-family="sans-serif" font-size="7.8" font-weight="bold" lengthAdjust="spacing" textLength="31.8" x="1509" y="526.3219">-address</text><text fill="#000000" font-family="sans-serif" font-size="7.8" font-weight="bold" lengthAdjust="spacing" textLength="56.4" x="1509" y="536.1328">-phoneNumber</text><text fill="#000000" font-family="sans-serif" font-size="7.8" font-weight="bold" lengthAdjust="spacing" textLength="54" x="1509" y="545.9438">-emailAddress</text><text fill="#000000" font-family="sans-serif" font-size="7.8" font-weight="bold" lengthAdjust="spacing" textLength="44.4" x="1509" y="555.7547">-faxNumber</text><text fill="#000000" font-family="sans-serif" font-size="7.8" font-weight="bold" lengthAdjust="spacing" textLength="61.8" x="1509" y="565.5656">-websiteAddress</text><text fill="#000000" font-family="sans-serif" font-size="7.8" font-weight="bold" lengthAdjust="spacing" textLength="51.6" x="1509" y="575.3766">-openingHour</text><text fill="#000000" font-family="sans-serif" font-size="7.8" font-weight="bold" lengthAdjust="spacing" textLength="47.4" x="1509" y="585.1875">-closingHour</text><text fill="#000000" font-family="sans-serif" font-size="7.8" font-weight="bold" lengthAdjust="spacing" textLength="48" x="1509" y="594.9984">-slotDuration</text><text fill="#000000" font-family="sans-serif" font-size="7.8" font-weight="bold" lengthAdjust="spacing" textLength="63.6" x="1509" y="604.8094">-vaccinesPerSlot</text><text fill="#000000" font-family="sans-serif" font-size="7.8" font-weight="bold" lengthAdjust="spacing" textLength="46.2" x="1509" y="614.6203">-coordinator</text><line style="stroke:#A80036;stroke-width:0.8999999999999999;" x1="1506" x2="1582.2" y1="618.7342" y2="618.7342"/><!--MD5=[ad32b904b2f122cc39e054e9c13e36ab]
class TypeOfVaccine--><rect codeLine="78" fill="#FEFECE" filter="url(#fq37f2f11ojp7)" height="38.6109" id="TypeOfVaccine" style="stroke:#A80036;stroke-width:0.8999999999999999;" width="67.8" x="351.6" y="345.2139"/><ellipse cx="360.6" cy="354.8139" fill="#ADD1B2" rx="6.6" ry="6.6" style="stroke:#A80036;stroke-width:0.6;"/><path d="M361.8,352.7139 Q361.9219,352.4139 362.0625,352.2639 Q362.2031,352.1139 362.3625,352.1139 Q362.6438,352.1139 362.8219,352.2826 Q363,352.4514 363,352.8451 L363,353.7826 Q363,354.1764 362.8313,354.3451 Q362.6625,354.5139 362.4,354.5139 Q362.1656,354.5139 362.0156,354.4107 Q361.8656,354.3076 361.8,354.0357 Q361.7719,353.8482 361.6688,353.7451 Q361.4813,353.5482 361.1438,353.4357 Q360.8063,353.3139 360.4688,353.3139 Q360.0469,353.3139 359.6906,353.4826 Q359.3438,353.6514 359.0719,354.0264 Q358.8,354.4014 358.8,354.917 L358.8,355.4701 Q358.8,356.0889 359.3063,356.5014 Q359.8125,356.9139 360.7125,356.9139 Q361.2469,356.9139 361.6219,356.792 Q361.8375,356.7264 362.0813,356.5107 Q362.2406,356.3889 362.325,356.3514 Q362.4094,356.3139 362.5125,356.3139 Q362.7094,356.3139 362.85,356.4732 Q363,356.6232 363,356.8389 Q363,357.0451 362.7938,357.2889 Q362.4938,357.6451 362.0156,357.842 Q361.3875,358.1139 360.6188,358.1139 Q359.7188,358.1139 358.9969,357.7576 Q358.4156,357.4764 358.0031,356.867 Q357.6,356.2576 357.6,355.5357 L357.6,354.8795 Q357.6,354.1295 357.9563,353.4732 Q358.3219,352.817 358.95,352.4701 Q359.5875,352.1139 360.3,352.1139 Q360.7313,352.1139 361.1063,352.2639 Q361.4813,352.4139 361.8,352.7139 Z " fill="#000000"/><text fill="#000000" font-family="sans-serif" font-size="7.2" lengthAdjust="spacing" textLength="48.6" x="369" y="357.76">TypeOfVaccine</text><line style="stroke:#A80036;stroke-width:0.8999999999999999;" x1="352.2" x2="418.8" y1="364.4139" y2="364.4139"/><text fill="#000000" font-family="sans-serif" font-size="7.8" font-weight="bold" lengthAdjust="spacing" textLength="20.4" x="355.2" y="374.9109">-virus</text><line style="stroke:#A80036;stroke-width:0.8999999999999999;" x1="352.2" x2="418.8" y1="379.0248" y2="379.0248"/><!--MD5=[19e445fc4d3b48519cbe33da05496394]
class Vaccine--><rect codeLine="67" fill="#FEFECE" filter="url(#fq37f2f11ojp7)" height="38.6109" id="Vaccine" style="stroke:#A80036;stroke-width:0.8999999999999999;" width="45" x="1233.3" y="393.8139"/><ellipse cx="1242.3" cy="403.4139" fill="#ADD1B2" rx="6.6" ry="6.6" style="stroke:#A80036;stroke-width:0.6;"/><path d="M1243.5,401.3139 Q1243.6219,401.0139 1243.7625,400.8639 Q1243.9031,400.7139 1244.0625,400.7139 Q1244.3438,400.7139 1244.5219,400.8826 Q1244.7,401.0514 1244.7,401.4451 L1244.7,402.3826 Q1244.7,402.7764 1244.5313,402.9451 Q1244.3625,403.1139 1244.1,403.1139 Q1243.8656,403.1139 1243.7156,403.0107 Q1243.5656,402.9076 1243.5,402.6357 Q1243.4719,402.4482 1243.3687,402.3451 Q1243.1812,402.1482 1242.8438,402.0357 Q1242.5063,401.9139 1242.1688,401.9139 Q1241.7469,401.9139 1241.3906,402.0826 Q1241.0438,402.2514 1240.7719,402.6264 Q1240.5,403.0014 1240.5,403.517 L1240.5,404.0701 Q1240.5,404.6889 1241.0063,405.1014 Q1241.5125,405.5139 1242.4125,405.5139 Q1242.9469,405.5139 1243.3219,405.392 Q1243.5375,405.3264 1243.7813,405.1107 Q1243.9406,404.9889 1244.025,404.9514 Q1244.1094,404.9139 1244.2125,404.9139 Q1244.4094,404.9139 1244.55,405.0732 Q1244.7,405.2232 1244.7,405.4389 Q1244.7,405.6451 1244.4937,405.8889 Q1244.1938,406.2451 1243.7156,406.442 Q1243.0875,406.7139 1242.3188,406.7139 Q1241.4188,406.7139 1240.6969,406.3576 Q1240.1156,406.0764 1239.7031,405.467 Q1239.3,404.8576 1239.3,404.1357 L1239.3,403.4795 Q1239.3,402.7295 1239.6563,402.0732 Q1240.0219,401.417 1240.65,401.0701 Q1241.2875,400.7139 1242,400.7139 Q1242.4312,400.7139 1242.8062,400.8639 Q1243.1812,401.0139 1243.5,401.3139 Z " fill="#000000"/><text fill="#000000" font-family="sans-serif" font-size="7.2" lengthAdjust="spacing" textLength="25.8" x="1250.7" y="406.36">Vaccine</text><line style="stroke:#A80036;stroke-width:0.8999999999999999;" x1="1233.9" x2="1277.7" y1="413.0139" y2="413.0139"/><text fill="#000000" font-family="sans-serif" font-size="7.8" font-weight="bold" lengthAdjust="spacing" textLength="24.6" x="1236.9" y="423.5109">-brand</text><line style="stroke:#A80036;stroke-width:0.8999999999999999;" x1="1233.9" x2="1277.7" y1="427.6248" y2="427.6248"/><!--MD5=[1a3e15371b673e3affce56c749ee055f]
class DosageScheme--><rect codeLine="71" fill="#FEFECE" filter="url(#fq37f2f11ojp7)" height="68.0438" id="DosageScheme" style="stroke:#A80036;stroke-width:0.8999999999999999;" width="106.2" x="1362.6" y="455.3139"/><ellipse cx="1386.45" cy="464.9139" fill="#ADD1B2" rx="6.6" ry="6.6" style="stroke:#A80036;stroke-width:0.6;"/><path d="M1387.65,462.8139 Q1387.7719,462.5139 1387.9125,462.3639 Q1388.0531,462.2139 1388.2125,462.2139 Q1388.4937,462.2139 1388.6719,462.3826 Q1388.85,462.5514 1388.85,462.9451 L1388.85,463.8826 Q1388.85,464.2764 1388.6812,464.4451 Q1388.5125,464.6139 1388.25,464.6139 Q1388.0156,464.6139 1387.8656,464.5107 Q1387.7156,464.4076 1387.65,464.1357 Q1387.6219,463.9482 1387.5188,463.8451 Q1387.3313,463.6482 1386.9937,463.5357 Q1386.6563,463.4139 1386.3188,463.4139 Q1385.8969,463.4139 1385.5406,463.5826 Q1385.1938,463.7514 1384.9219,464.1264 Q1384.65,464.5014 1384.65,465.017 L1384.65,465.5701 Q1384.65,466.1889 1385.1563,466.6014 Q1385.6625,467.0139 1386.5625,467.0139 Q1387.0969,467.0139 1387.4719,466.892 Q1387.6875,466.8264 1387.9312,466.6107 Q1388.0906,466.4889 1388.175,466.4514 Q1388.2594,466.4139 1388.3625,466.4139 Q1388.5594,466.4139 1388.7,466.5732 Q1388.85,466.7232 1388.85,466.9389 Q1388.85,467.1451 1388.6438,467.3889 Q1388.3438,467.7451 1387.8656,467.942 Q1387.2375,468.2139 1386.4688,468.2139 Q1385.5688,468.2139 1384.8469,467.8576 Q1384.2656,467.5764 1383.8531,466.967 Q1383.45,466.3576 1383.45,465.6357 L1383.45,464.9795 Q1383.45,464.2295 1383.8062,463.5732 Q1384.1719,462.917 1384.8,462.5701 Q1385.4375,462.2139 1386.15,462.2139 Q1386.5813,462.2139 1386.9563,462.3639 Q1387.3313,462.5139 1387.65,462.8139 Z " fill="#000000"/><text fill="#000000" font-family="sans-serif" font-size="7.2" lengthAdjust="spacing" textLength="54" x="1398.15" y="467.86">DosageScheme</text><line style="stroke:#A80036;stroke-width:0.8999999999999999;" x1="1363.2" x2="1468.2" y1="474.5139" y2="474.5139"/><text fill="#000000" font-family="sans-serif" font-size="7.8" font-weight="bold" lengthAdjust="spacing" textLength="62.4" x="1366.2" y="485.0109">-numberOfDoses</text><text fill="#000000" font-family="sans-serif" font-size="7.8" font-weight="bold" lengthAdjust="spacing" textLength="30" x="1366.2" y="494.8219">-dosage</text><text fill="#000000" font-family="sans-serif" font-size="7.8" font-weight="bold" lengthAdjust="spacing" textLength="16.8" x="1366.2" y="504.6328">-age</text><text fill="#000000" font-family="sans-serif" font-size="7.8" font-weight="bold" lengthAdjust="spacing" textLength="99" x="1366.2" y="514.4438">-intervalBetweenVaccines</text><line style="stroke:#A80036;stroke-width:0.8999999999999999;" x1="1363.2" x2="1468.2" y1="518.5576" y2="518.5576"/><!--MD5=[76480a6701b5d2883bc606a2560c3cfe]
class MassVaccinationCenter--><rect codeLine="58" fill="#FEFECE" filter="url(#fq37f2f11ojp7)" height="28.8" id="MassVaccinationCenter" style="stroke:#A80036;stroke-width:0.8999999999999999;" width="97.2" x="1619.4" y="510.8139"/><ellipse cx="1628.4" cy="520.4139" fill="#ADD1B2" rx="6.6" ry="6.6" style="stroke:#A80036;stroke-width:0.6;"/><path d="M1629.6,518.3139 Q1629.7219,518.0139 1629.8625,517.8639 Q1630.0031,517.7139 1630.1625,517.7139 Q1630.4438,517.7139 1630.6219,517.8826 Q1630.8,518.0514 1630.8,518.4451 L1630.8,519.3826 Q1630.8,519.7764 1630.6313,519.9451 Q1630.4625,520.1139 1630.2,520.1139 Q1629.9656,520.1139 1629.8156,520.0107 Q1629.6656,519.9076 1629.6,519.6357 Q1629.5719,519.4482 1629.4688,519.3451 Q1629.2813,519.1482 1628.9438,519.0357 Q1628.6063,518.9139 1628.2688,518.9139 Q1627.8469,518.9139 1627.4906,519.0826 Q1627.1438,519.2514 1626.8719,519.6264 Q1626.6,520.0014 1626.6,520.517 L1626.6,521.0701 Q1626.6,521.6889 1627.1063,522.1014 Q1627.6125,522.5139 1628.5125,522.5139 Q1629.0469,522.5139 1629.4219,522.392 Q1629.6375,522.3264 1629.8813,522.1107 Q1630.0406,521.9889 1630.125,521.9514 Q1630.2094,521.9139 1630.3125,521.9139 Q1630.5094,521.9139 1630.65,522.0732 Q1630.8,522.2232 1630.8,522.4389 Q1630.8,522.6451 1630.5938,522.8889 Q1630.2938,523.2451 1629.8156,523.442 Q1629.1875,523.7139 1628.4188,523.7139 Q1627.5188,523.7139 1626.7969,523.3576 Q1626.2156,523.0764 1625.8031,522.467 Q1625.4,521.8576 1625.4,521.1357 L1625.4,520.4795 Q1625.4,519.7295 1625.7563,519.0732 Q1626.1219,518.417 1626.75,518.0701 Q1627.3875,517.7139 1628.1,517.7139 Q1628.5313,517.7139 1628.9063,517.8639 Q1629.2813,518.0139 1629.6,518.3139 Z " fill="#000000"/><text fill="#000000" font-family="sans-serif" font-size="7.2" lengthAdjust="spacing" textLength="78" x="1636.8" y="523.36">MassVaccinationCenter</text><line style="stroke:#A80036;stroke-width:0.8999999999999999;" x1="1620" x2="1716" y1="530.0139" y2="530.0139"/><line style="stroke:#A80036;stroke-width:0.8999999999999999;" x1="1620" x2="1716" y1="534.8139" y2="534.8139"/><!--MD5=[0b1ce5251ebf137e6b3550dd84e6af65]
class HealthcareCenter--><rect codeLine="62" fill="#FEFECE" filter="url(#fq37f2f11ojp7)" height="48.4219" id="HealthcareCenter" style="stroke:#A80036;stroke-width:0.8999999999999999;" width="77.4" x="1629.3" y="560.9139"/><ellipse cx="1638.3" cy="570.5139" fill="#ADD1B2" rx="6.6" ry="6.6" style="stroke:#A80036;stroke-width:0.6;"/><path d="M1639.5,568.4139 Q1639.6219,568.1139 1639.7625,567.9639 Q1639.9031,567.8139 1640.0625,567.8139 Q1640.3438,567.8139 1640.5219,567.9826 Q1640.7,568.1514 1640.7,568.5451 L1640.7,569.4826 Q1640.7,569.8764 1640.5313,570.0451 Q1640.3625,570.2139 1640.1,570.2139 Q1639.8656,570.2139 1639.7156,570.1107 Q1639.5656,570.0076 1639.5,569.7357 Q1639.4719,569.5482 1639.3687,569.4451 Q1639.1812,569.2482 1638.8438,569.1357 Q1638.5063,569.0139 1638.1688,569.0139 Q1637.7469,569.0139 1637.3906,569.1826 Q1637.0438,569.3514 1636.7719,569.7264 Q1636.5,570.1014 1636.5,570.617 L1636.5,571.1701 Q1636.5,571.7889 1637.0063,572.2014 Q1637.5125,572.6139 1638.4125,572.6139 Q1638.9469,572.6139 1639.3219,572.492 Q1639.5375,572.4264 1639.7813,572.2107 Q1639.9406,572.0889 1640.025,572.0514 Q1640.1094,572.0139 1640.2125,572.0139 Q1640.4094,572.0139 1640.55,572.1732 Q1640.7,572.3232 1640.7,572.5389 Q1640.7,572.7451 1640.4937,572.9889 Q1640.1938,573.3451 1639.7156,573.542 Q1639.0875,573.8139 1638.3188,573.8139 Q1637.4188,573.8139 1636.6969,573.4576 Q1636.1156,573.1764 1635.7031,572.567 Q1635.3,571.9576 1635.3,571.2357 L1635.3,570.5795 Q1635.3,569.8295 1635.6563,569.1732 Q1636.0219,568.517 1636.65,568.1701 Q1637.2875,567.8139 1638,567.8139 Q1638.4312,567.8139 1638.8062,567.9639 Q1639.1812,568.1139 1639.5,568.4139 Z " fill="#000000"/><text fill="#000000" font-family="sans-serif" font-size="7.2" lengthAdjust="spacing" textLength="58.2" x="1646.7" y="573.46">HealthcareCenter</text><line style="stroke:#A80036;stroke-width:0.8999999999999999;" x1="1629.9" x2="1706.1" y1="580.1139" y2="580.1139"/><text fill="#000000" font-family="sans-serif" font-size="7.8" font-weight="bold" lengthAdjust="spacing" textLength="18" x="1632.9" y="590.6109">-ARE</text><text fill="#000000" font-family="sans-serif" font-size="7.8" font-weight="bold" lengthAdjust="spacing" textLength="24" x="1632.9" y="600.4219">-AGES</text><line style="stroke:#A80036;stroke-width:0.8999999999999999;" x1="1629.9" x2="1706.1" y1="604.5357" y2="604.5357"/><!--MD5=[80a03012b5333e72487751e45bd40e3d]
class DigitalCertificate--><rect codeLine="87" fill="#FEFECE" filter="url(#fq37f2f11ojp7)" height="28.8" id="DigitalCertificate" style="stroke:#A80036;stroke-width:0.8999999999999999;" width="73.2" x="1219.2" y="83.6139"/><ellipse cx="1228.2" cy="93.2139" fill="#ADD1B2" rx="6.6" ry="6.6" style="stroke:#A80036;stroke-width:0.6;"/><path d="M1229.4,91.1139 Q1229.5219,90.8139 1229.6625,90.6639 Q1229.8031,90.5139 1229.9625,90.5139 Q1230.2437,90.5139 1230.4219,90.6826 Q1230.6,90.8514 1230.6,91.2451 L1230.6,92.1826 Q1230.6,92.5764 1230.4312,92.7451 Q1230.2625,92.9139 1230,92.9139 Q1229.7656,92.9139 1229.6156,92.8107 Q1229.4656,92.7076 1229.4,92.4357 Q1229.3719,92.2482 1229.2688,92.1451 Q1229.0813,91.9482 1228.7437,91.8357 Q1228.4063,91.7139 1228.0688,91.7139 Q1227.6469,91.7139 1227.2906,91.8826 Q1226.9438,92.0514 1226.6719,92.4264 Q1226.4,92.8014 1226.4,93.317 L1226.4,93.8701 Q1226.4,94.4889 1226.9063,94.9014 Q1227.4125,95.3139 1228.3125,95.3139 Q1228.8469,95.3139 1229.2219,95.192 Q1229.4375,95.1264 1229.6812,94.9107 Q1229.8406,94.7889 1229.925,94.7514 Q1230.0094,94.7139 1230.1125,94.7139 Q1230.3094,94.7139 1230.45,94.8732 Q1230.6,95.0232 1230.6,95.2389 Q1230.6,95.4451 1230.3938,95.6889 Q1230.0938,96.0451 1229.6156,96.242 Q1228.9875,96.5139 1228.2188,96.5139 Q1227.3188,96.5139 1226.5969,96.1576 Q1226.0156,95.8764 1225.6031,95.267 Q1225.2,94.6576 1225.2,93.9357 L1225.2,93.2795 Q1225.2,92.5295 1225.5562,91.8732 Q1225.9219,91.217 1226.55,90.8701 Q1227.1875,90.5139 1227.9,90.5139 Q1228.3313,90.5139 1228.7063,90.6639 Q1229.0813,90.8139 1229.4,91.1139 Z " fill="#000000"/><text fill="#000000" font-family="sans-serif" font-size="7.2" lengthAdjust="spacing" textLength="54" x="1236.6" y="96.16">DigitalCertificate</text><line style="stroke:#A80036;stroke-width:0.8999999999999999;" x1="1219.8" x2="1291.8" y1="102.8139" y2="102.8139"/><line style="stroke:#A80036;stroke-width:0.8999999999999999;" x1="1219.8" x2="1291.8" y1="107.6139" y2="107.6139"/><!--MD5=[cf1ec8291adc4f100e491a8c336ca0ac]
class VaccineAppointment--><rect codeLine="92" fill="#FEFECE" filter="url(#fq37f2f11ojp7)" height="28.8" id="VaccineAppointment" style="stroke:#A80036;stroke-width:0.8999999999999999;" width="86.4" x="1003.2" y="14.6139"/><ellipse cx="1012.2" cy="24.2139" fill="#ADD1B2" rx="6.6" ry="6.6" style="stroke:#A80036;stroke-width:0.6;"/><path d="M1013.4,22.1139 Q1013.5219,21.8139 1013.6625,21.6639 Q1013.8031,21.5139 1013.9625,21.5139 Q1014.2438,21.5139 1014.4219,21.6826 Q1014.6,21.8514 1014.6,22.2451 L1014.6,23.1826 Q1014.6,23.5764 1014.4313,23.7451 Q1014.2625,23.9139 1014,23.9139 Q1013.7656,23.9139 1013.6156,23.8107 Q1013.4656,23.7076 1013.4,23.4357 Q1013.3719,23.2482 1013.2688,23.1451 Q1013.0813,22.9482 1012.7438,22.8357 Q1012.4063,22.7139 1012.0687,22.7139 Q1011.6469,22.7139 1011.2906,22.8826 Q1010.9437,23.0514 1010.6719,23.4264 Q1010.4,23.8014 1010.4,24.317 L1010.4,24.8701 Q1010.4,25.4889 1010.9063,25.9014 Q1011.4125,26.3139 1012.3125,26.3139 Q1012.8469,26.3139 1013.2219,26.192 Q1013.4375,26.1264 1013.6813,25.9107 Q1013.8406,25.7889 1013.925,25.7514 Q1014.0094,25.7139 1014.1125,25.7139 Q1014.3094,25.7139 1014.45,25.8732 Q1014.6,26.0232 1014.6,26.2389 Q1014.6,26.4451 1014.3938,26.6889 Q1014.0938,27.0451 1013.6156,27.242 Q1012.9875,27.5139 1012.2188,27.5139 Q1011.3187,27.5139 1010.5969,27.1576 Q1010.0156,26.8764 1009.6031,26.267 Q1009.2,25.6576 1009.2,24.9357 L1009.2,24.2795 Q1009.2,23.5295 1009.5563,22.8732 Q1009.9219,22.217 1010.55,21.8701 Q1011.1875,21.5139 1011.9,21.5139 Q1012.3313,21.5139 1012.7063,21.6639 Q1013.0813,21.8139 1013.4,22.1139 Z " fill="#000000"/><text fill="#000000" font-family="sans-serif" font-size="7.2" lengthAdjust="spacing" textLength="67.2" x="1020.6" y="27.16">VaccineAppointment</text><line style="stroke:#A80036;stroke-width:0.8999999999999999;" x1="1003.8" x2="1089" y1="33.8139" y2="33.8139"/><line style="stroke:#A80036;stroke-width:0.8999999999999999;" x1="1003.8" x2="1089" y1="38.6139" y2="38.6139"/><!--MD5=[7cee63e05c54fc7e82ca7f101606cdb1]
class UsersWaitingList--><rect codeLine="98" fill="#FEFECE" filter="url(#fq37f2f11ojp7)" height="28.8" id="UsersWaitingList" style="stroke:#A80036;stroke-width:0.8999999999999999;" width="76.2" x="1377.6" y="180.8139"/><ellipse cx="1386.6" cy="190.4139" fill="#ADD1B2" rx="6.6" ry="6.6" style="stroke:#A80036;stroke-width:0.6;"/><path d="M1387.8,188.3139 Q1387.9219,188.0139 1388.0625,187.8639 Q1388.2031,187.7139 1388.3625,187.7139 Q1388.6438,187.7139 1388.8219,187.8826 Q1389,188.0514 1389,188.4451 L1389,189.3826 Q1389,189.7764 1388.8313,189.9451 Q1388.6625,190.1139 1388.4,190.1139 Q1388.1656,190.1139 1388.0156,190.0107 Q1387.8656,189.9076 1387.8,189.6357 Q1387.7719,189.4482 1387.6688,189.3451 Q1387.4813,189.1482 1387.1438,189.0357 Q1386.8062,188.9139 1386.4688,188.9139 Q1386.0469,188.9139 1385.6906,189.0826 Q1385.3438,189.2514 1385.0719,189.6264 Q1384.8,190.0014 1384.8,190.517 L1384.8,191.0701 Q1384.8,191.6889 1385.3062,192.1014 Q1385.8125,192.5139 1386.7125,192.5139 Q1387.2469,192.5139 1387.6219,192.392 Q1387.8375,192.3264 1388.0813,192.1107 Q1388.2406,191.9889 1388.325,191.9514 Q1388.4094,191.9139 1388.5125,191.9139 Q1388.7094,191.9139 1388.85,192.0732 Q1389,192.2232 1389,192.4389 Q1389,192.6451 1388.7938,192.8889 Q1388.4937,193.2451 1388.0156,193.442 Q1387.3875,193.7139 1386.6187,193.7139 Q1385.7188,193.7139 1384.9969,193.3576 Q1384.4156,193.0764 1384.0031,192.467 Q1383.6,191.8576 1383.6,191.1357 L1383.6,190.4795 Q1383.6,189.7295 1383.9563,189.0732 Q1384.3219,188.417 1384.95,188.0701 Q1385.5875,187.7139 1386.3,187.7139 Q1386.7313,187.7139 1387.1063,187.8639 Q1387.4813,188.0139 1387.8,188.3139 Z " fill="#000000"/><text fill="#000000" font-family="sans-serif" font-size="7.2" lengthAdjust="spacing" textLength="57" x="1395" y="193.36">UsersWaitingList</text><line style="stroke:#A80036;stroke-width:0.8999999999999999;" x1="1378.2" x2="1453.2" y1="200.0139" y2="200.0139"/><line style="stroke:#A80036;stroke-width:0.8999999999999999;" x1="1378.2" x2="1453.2" y1="204.8139" y2="204.8139"/><!--MD5=[9e94af7e26ddd61f16675ec5a7d7b75f]
class UserInfo--><rect codeLine="99" fill="#FEFECE" filter="url(#fq37f2f11ojp7)" height="28.8" id="UserInfo" style="stroke:#A80036;stroke-width:0.8999999999999999;" width="47.4" x="1392" y="277.4139"/><ellipse cx="1401" cy="287.0139" fill="#ADD1B2" rx="6.6" ry="6.6" style="stroke:#A80036;stroke-width:0.6;"/><path d="M1402.2,284.9139 Q1402.3219,284.6139 1402.4625,284.4639 Q1402.6031,284.3139 1402.7625,284.3139 Q1403.0438,284.3139 1403.2219,284.4826 Q1403.4,284.6514 1403.4,285.0451 L1403.4,285.9826 Q1403.4,286.3764 1403.2313,286.5451 Q1403.0625,286.7139 1402.8,286.7139 Q1402.5656,286.7139 1402.4156,286.6107 Q1402.2656,286.5076 1402.2,286.2357 Q1402.1719,286.0482 1402.0688,285.9451 Q1401.8813,285.7482 1401.5438,285.6357 Q1401.2063,285.5139 1400.8687,285.5139 Q1400.4469,285.5139 1400.0906,285.6826 Q1399.7437,285.8514 1399.4719,286.2264 Q1399.2,286.6014 1399.2,287.117 L1399.2,287.6701 Q1399.2,288.2889 1399.7063,288.7014 Q1400.2125,289.1139 1401.1125,289.1139 Q1401.6469,289.1139 1402.0219,288.992 Q1402.2375,288.9264 1402.4813,288.7107 Q1402.6406,288.5889 1402.725,288.5514 Q1402.8094,288.5139 1402.9125,288.5139 Q1403.1094,288.5139 1403.25,288.6732 Q1403.4,288.8232 1403.4,289.0389 Q1403.4,289.2451 1403.1938,289.4889 Q1402.8938,289.8451 1402.4156,290.042 Q1401.7875,290.3139 1401.0188,290.3139 Q1400.1187,290.3139 1399.3969,289.9576 Q1398.8156,289.6764 1398.4031,289.067 Q1398,288.4576 1398,287.7357 L1398,287.0795 Q1398,286.3295 1398.3563,285.6732 Q1398.7219,285.017 1399.35,284.6701 Q1399.9875,284.3139 1400.7,284.3139 Q1401.1313,284.3139 1401.5063,284.4639 Q1401.8813,284.6139 1402.2,284.9139 Z " fill="#000000"/><text fill="#000000" font-family="sans-serif" font-size="7.2" lengthAdjust="spacing" textLength="28.2" x="1409.4" y="289.96">UserInfo</text><line style="stroke:#A80036;stroke-width:0.8999999999999999;" x1="1392.6" x2="1438.8" y1="296.6139" y2="296.6139"/><line style="stroke:#A80036;stroke-width:0.8999999999999999;" x1="1392.6" x2="1438.8" y1="301.4139" y2="301.4139"/><!--MD5=[0a6389d85244b33bdfdb792108db6bc1]
class GivenVaccine--><rect codeLine="106" fill="#FEFECE" filter="url(#fq37f2f11ojp7)" height="28.8" id="GivenVaccine" style="stroke:#A80036;stroke-width:0.8999999999999999;" width="63.6" x="1014.6" y="240.8139"/><ellipse cx="1023.6" cy="250.4139" fill="#ADD1B2" rx="6.6" ry="6.6" style="stroke:#A80036;stroke-width:0.6;"/><path d="M1024.8,248.3139 Q1024.9219,248.0139 1025.0625,247.8639 Q1025.2031,247.7139 1025.3625,247.7139 Q1025.6438,247.7139 1025.8219,247.8826 Q1026,248.0514 1026,248.4451 L1026,249.3826 Q1026,249.7764 1025.8313,249.9451 Q1025.6625,250.1139 1025.4,250.1139 Q1025.1656,250.1139 1025.0156,250.0107 Q1024.8656,249.9076 1024.8,249.6357 Q1024.7719,249.4482 1024.6688,249.3451 Q1024.4813,249.1482 1024.1438,249.0357 Q1023.8063,248.9139 1023.4688,248.9139 Q1023.0469,248.9139 1022.6906,249.0826 Q1022.3438,249.2514 1022.0719,249.6264 Q1021.8,250.0014 1021.8,250.517 L1021.8,251.0701 Q1021.8,251.6889 1022.3063,252.1014 Q1022.8125,252.5139 1023.7125,252.5139 Q1024.2469,252.5139 1024.6219,252.392 Q1024.8375,252.3264 1025.0813,252.1107 Q1025.2406,251.9889 1025.325,251.9514 Q1025.4094,251.9139 1025.5125,251.9139 Q1025.7094,251.9139 1025.85,252.0732 Q1026,252.2232 1026,252.4389 Q1026,252.6451 1025.7938,252.8889 Q1025.4937,253.2451 1025.0156,253.442 Q1024.3875,253.7139 1023.6188,253.7139 Q1022.7188,253.7139 1021.9969,253.3576 Q1021.4156,253.0764 1021.0031,252.467 Q1020.6,251.8576 1020.6,251.1357 L1020.6,250.4795 Q1020.6,249.7295 1020.9563,249.0732 Q1021.3219,248.417 1021.95,248.0701 Q1022.5875,247.7139 1023.3,247.7139 Q1023.7312,247.7139 1024.1063,247.8639 Q1024.4813,248.0139 1024.8,248.3139 Z " fill="#000000"/><text fill="#000000" font-family="sans-serif" font-size="7.2" lengthAdjust="spacing" textLength="44.4" x="1032" y="253.36">GivenVaccine</text><line style="stroke:#A80036;stroke-width:0.8999999999999999;" x1="1015.2" x2="1077.6" y1="260.0139" y2="260.0139"/><line style="stroke:#A80036;stroke-width:0.8999999999999999;" x1="1015.2" x2="1077.6" y1="264.8139" y2="264.8139"/><!--MD5=[605056f3b750e89e8a7ae3805405579b]
class AdverseReactions--><rect codeLine="107" fill="#FEFECE" filter="url(#fq37f2f11ojp7)" height="28.8" id="AdverseReactions" style="stroke:#A80036;stroke-width:0.8999999999999999;" width="79.2" x="1006.8" y="314.0139"/><ellipse cx="1015.8" cy="323.6139" fill="#ADD1B2" rx="6.6" ry="6.6" style="stroke:#A80036;stroke-width:0.6;"/><path d="M1017,321.5139 Q1017.1219,321.2139 1017.2625,321.0639 Q1017.4031,320.9139 1017.5625,320.9139 Q1017.8438,320.9139 1018.0219,321.0826 Q1018.2,321.2514 1018.2,321.6451 L1018.2,322.5826 Q1018.2,322.9764 1018.0313,323.1451 Q1017.8625,323.3139 1017.6,323.3139 Q1017.3656,323.3139 1017.2156,323.2107 Q1017.0656,323.1076 1017,322.8357 Q1016.9719,322.6482 1016.8688,322.5451 Q1016.6813,322.3482 1016.3438,322.2357 Q1016.0062,322.1139 1015.6687,322.1139 Q1015.2469,322.1139 1014.8906,322.2826 Q1014.5437,322.4514 1014.2719,322.8264 Q1014,323.2014 1014,323.717 L1014,324.2701 Q1014,324.8889 1014.5062,325.3014 Q1015.0125,325.7139 1015.9125,325.7139 Q1016.4469,325.7139 1016.8219,325.592 Q1017.0375,325.5264 1017.2813,325.3107 Q1017.4406,325.1889 1017.525,325.1514 Q1017.6094,325.1139 1017.7125,325.1139 Q1017.9094,325.1139 1018.05,325.2732 Q1018.2,325.4232 1018.2,325.6389 Q1018.2,325.8451 1017.9938,326.0889 Q1017.6937,326.4451 1017.2156,326.642 Q1016.5875,326.9139 1015.8187,326.9139 Q1014.9187,326.9139 1014.1969,326.5576 Q1013.6156,326.2764 1013.2031,325.667 Q1012.8,325.0576 1012.8,324.3357 L1012.8,323.6795 Q1012.8,322.9295 1013.1563,322.2732 Q1013.5219,321.617 1014.15,321.2701 Q1014.7875,320.9139 1015.5,320.9139 Q1015.9313,320.9139 1016.3063,321.0639 Q1016.6813,321.2139 1017,321.5139 Z " fill="#000000"/><text fill="#000000" font-family="sans-serif" font-size="7.2" lengthAdjust="spacing" textLength="60" x="1024.2" y="326.56">AdverseReactions</text><line style="stroke:#A80036;stroke-width:0.8999999999999999;" x1="1007.4" x2="1085.4" y1="333.2139" y2="333.2139"/><line style="stroke:#A80036;stroke-width:0.8999999999999999;" x1="1007.4" x2="1085.4" y1="338.0139" y2="338.0139"/><ellipse cx="1046.4" cy="291.8139" fill="#000000" rx="1.2" ry="1.2" style="stroke:none;stroke-width:0.6;"/><!--MD5=[944ecf1b0032c0733312c6ea9b33e13a]
class ManageVaccinationProcess--><rect codeLine="113" fill="#FEFECE" filter="url(#fq37f2f11ojp7)" height="28.8" id="ManageVaccinationProcess" style="stroke:#A80036;stroke-width:0.8999999999999999;" width="111" x="330" y="629.6139"/><ellipse cx="339" cy="639.2139" fill="#ADD1B2" rx="6.6" ry="6.6" style="stroke:#A80036;stroke-width:0.6;"/><path d="M340.2,637.1139 Q340.3219,636.8139 340.4625,636.6639 Q340.6031,636.5139 340.7625,636.5139 Q341.0438,636.5139 341.2219,636.6826 Q341.4,636.8514 341.4,637.2451 L341.4,638.1826 Q341.4,638.5764 341.2313,638.7451 Q341.0625,638.9139 340.8,638.9139 Q340.5656,638.9139 340.4156,638.8107 Q340.2656,638.7076 340.2,638.4357 Q340.1719,638.2482 340.0687,638.1451 Q339.8812,637.9482 339.5438,637.8357 Q339.2063,637.7139 338.8688,637.7139 Q338.4469,637.7139 338.0906,637.8826 Q337.7438,638.0514 337.4719,638.4264 Q337.2,638.8014 337.2,639.317 L337.2,639.8701 Q337.2,640.4889 337.7063,640.9014 Q338.2125,641.3139 339.1125,641.3139 Q339.6469,641.3139 340.0219,641.192 Q340.2375,641.1264 340.4813,640.9107 Q340.6406,640.7889 340.725,640.7514 Q340.8094,640.7139 340.9125,640.7139 Q341.1094,640.7139 341.25,640.8732 Q341.4,641.0232 341.4,641.2389 Q341.4,641.4451 341.1937,641.6889 Q340.8938,642.0451 340.4156,642.242 Q339.7875,642.5139 339.0188,642.5139 Q338.1188,642.5139 337.3969,642.1576 Q336.8156,641.8764 336.4031,641.267 Q336,640.6576 336,639.9357 L336,639.2795 Q336,638.5295 336.3563,637.8732 Q336.7219,637.217 337.35,636.8701 Q337.9875,636.5139 338.7,636.5139 Q339.1312,636.5139 339.5062,636.6639 Q339.8812,636.8139 340.2,637.1139 Z " fill="#000000"/><text fill="#000000" font-family="sans-serif" font-size="7.2" lengthAdjust="spacing" textLength="91.8" x="347.4" y="642.16">ManageVaccinationProcess</text><line style="stroke:#A80036;stroke-width:0.8999999999999999;" x1="330.6" x2="440.4" y1="648.8139" y2="648.8139"/><line style="stroke:#A80036;stroke-width:0.8999999999999999;" x1="330.6" x2="440.4" y1="653.6139" y2="653.6139"/><!--MD5=[0b4e4b4980470ea387cc45de9bd14b5b]
class Application--><rect codeLine="118" fill="#FEFECE" filter="url(#fq37f2f11ojp7)" height="28.8" id="Application" style="stroke:#A80036;stroke-width:0.8999999999999999;" width="55.2" x="574.5" y="56.6139"/><ellipse cx="583.5" cy="66.2139" fill="#ADD1B2" rx="6.6" ry="6.6" style="stroke:#A80036;stroke-width:0.6;"/><path d="M584.7,64.1139 Q584.8219,63.8139 584.9625,63.6639 Q585.1031,63.5139 585.2625,63.5139 Q585.5437,63.5139 585.7219,63.6826 Q585.9,63.8514 585.9,64.2451 L585.9,65.1826 Q585.9,65.5764 585.7312,65.7451 Q585.5625,65.9139 585.3,65.9139 Q585.0656,65.9139 584.9156,65.8107 Q584.7656,65.7076 584.7,65.4357 Q584.6719,65.2482 584.5688,65.1451 Q584.3813,64.9482 584.0437,64.8357 Q583.7063,64.7139 583.3688,64.7139 Q582.9469,64.7139 582.5906,64.8826 Q582.2438,65.0514 581.9719,65.4264 Q581.7,65.8014 581.7,66.317 L581.7,66.8701 Q581.7,67.4889 582.2063,67.9014 Q582.7125,68.3139 583.6125,68.3139 Q584.1469,68.3139 584.5219,68.192 Q584.7375,68.1264 584.9812,67.9107 Q585.1406,67.7889 585.225,67.7514 Q585.3094,67.7139 585.4125,67.7139 Q585.6094,67.7139 585.75,67.8732 Q585.9,68.0232 585.9,68.2389 Q585.9,68.4451 585.6938,68.6889 Q585.3938,69.0451 584.9156,69.242 Q584.2875,69.5139 583.5188,69.5139 Q582.6188,69.5139 581.8969,69.1576 Q581.3156,68.8764 580.9031,68.267 Q580.5,67.6576 580.5,66.9357 L580.5,66.2795 Q580.5,65.5295 580.8562,64.8732 Q581.2219,64.217 581.85,63.8701 Q582.4875,63.5139 583.2,63.5139 Q583.6313,63.5139 584.0063,63.6639 Q584.3813,63.8139 584.7,64.1139 Z " fill="#000000"/><text fill="#000000" font-family="sans-serif" font-size="7.2" lengthAdjust="spacing" textLength="36" x="591.9" y="69.16">Application</text><line style="stroke:#A80036;stroke-width:0.8999999999999999;" x1="575.1" x2="629.1" y1="75.8139" y2="75.8139"/><line style="stroke:#A80036;stroke-width:0.8999999999999999;" x1="575.1" x2="629.1" y1="80.6139" y2="80.6139"/><!--MD5=[a13ca6a63a04f520383aacb00972fb48]
class EntriesAndExitsList--><rect codeLine="119" fill="#FEFECE" filter="url(#fq37f2f11ojp7)" height="28.8" id="EntriesAndExitsList" style="stroke:#A80036;stroke-width:0.8999999999999999;" width="82.8" x="344.1" y="56.6139"/><ellipse cx="353.1" cy="66.2139" fill="#ADD1B2" rx="6.6" ry="6.6" style="stroke:#A80036;stroke-width:0.6;"/><path d="M354.3,64.1139 Q354.4219,63.8139 354.5625,63.6639 Q354.7031,63.5139 354.8625,63.5139 Q355.1438,63.5139 355.3219,63.6826 Q355.5,63.8514 355.5,64.2451 L355.5,65.1826 Q355.5,65.5764 355.3313,65.7451 Q355.1625,65.9139 354.9,65.9139 Q354.6656,65.9139 354.5156,65.8107 Q354.3656,65.7076 354.3,65.4357 Q354.2719,65.2482 354.1688,65.1451 Q353.9813,64.9482 353.6438,64.8357 Q353.3063,64.7139 352.9688,64.7139 Q352.5469,64.7139 352.1906,64.8826 Q351.8438,65.0514 351.5719,65.4264 Q351.3,65.8014 351.3,66.317 L351.3,66.8701 Q351.3,67.4889 351.8063,67.9014 Q352.3125,68.3139 353.2125,68.3139 Q353.7469,68.3139 354.1219,68.192 Q354.3375,68.1264 354.5813,67.9107 Q354.7406,67.7889 354.825,67.7514 Q354.9094,67.7139 355.0125,67.7139 Q355.2094,67.7139 355.35,67.8732 Q355.5,68.0232 355.5,68.2389 Q355.5,68.4451 355.2938,68.6889 Q354.9938,69.0451 354.5156,69.242 Q353.8875,69.5139 353.1188,69.5139 Q352.2188,69.5139 351.4969,69.1576 Q350.9156,68.8764 350.5031,68.267 Q350.1,67.6576 350.1,66.9357 L350.1,66.2795 Q350.1,65.5295 350.4563,64.8732 Q350.8219,64.217 351.45,63.8701 Q352.0875,63.5139 352.8,63.5139 Q353.2313,63.5139 353.6063,63.6639 Q353.9813,63.8139 354.3,64.1139 Z " fill="#000000"/><text fill="#000000" font-family="sans-serif" font-size="7.2" lengthAdjust="spacing" textLength="63.6" x="361.5" y="69.16">EntriesAndExitsList</text><line style="stroke:#A80036;stroke-width:0.8999999999999999;" x1="344.7" x2="426.3" y1="75.8139" y2="75.8139"/><line style="stroke:#A80036;stroke-width:0.8999999999999999;" x1="344.7" x2="426.3" y1="80.6139" y2="80.6139"/><!--MD5=[ae7cf994a8037bd5ae694a195d04bab2]
reverse link ApplicationUser to SnsUser--><path codeLine="19" d="M87.528,285.4959 C89.574,284.9799 91.608,284.4819 93.6,284.0139 C330.864,228.5199 400.584,260.4819 633.6,189.2139 C695.538,170.2719 763.464,137.3079 803.304,116.6319 " fill="none" id="ApplicationUser-backto-SnsUser" style="stroke:#A80036;stroke-width:0.6;"/><polygon fill="none" points="88.452,289.5999,75.774,288.6519,86.274,281.4879,88.452,289.5999" style="stroke:#A80036;stroke-width:0.6;"/><!--MD5=[ec2784183dc102bb556cb27e2698cd6b]
reverse link ApplicationUser to Nurse--><path codeLine="20" d="M87.684,294.9879 C227.334,281.5659 650.832,242.7339 1003.2,230.0139 C1041.576,228.6279 1051.812,223.1919 1089.6,230.0139 C1144.866,239.9919 1205.742,267.2859 1235.964,282.0399 " fill="none" id="ApplicationUser-backto-Nurse" style="stroke:#A80036;stroke-width:0.6;"/><polygon fill="none" points="87.984,299.1819,75.636,296.1519,87.18,290.8179,87.984,299.1819" style="stroke:#A80036;stroke-width:0.6;"/><!--MD5=[1a9788758f9842fd4535ce3f0d98786a]
link Receptionist to ApplicationUser--><path codeLine="21" d="M39.9,176.0439 C39.9,201.8859 39.9,227.7339 39.9,253.5759 " fill="none" id="Receptionist-to-ApplicationUser" style="stroke:#A80036;stroke-width:0.6;"/><polygon fill="none" points="44.1,253.6539,39.9,265.6539,35.7,253.6539,44.1,253.6539" style="stroke:#A80036;stroke-width:0.6;"/><!--MD5=[66b8b66cc0d48364d094f14c216c75e8]
reverse link ApplicationUser to Administrator--><path codeLine="22" d="M42.378,345.6219 C47.046,392.3919 62.46,458.0139 112.2,458.0139 C112.2,458.0139 112.2,458.0139 386.1,458.0139 C451.728,458.0139 528.606,458.0139 570.468,458.0139 " fill="none" id="ApplicationUser-backto-Administrator" style="stroke:#A80036;stroke-width:0.6;"/><polygon fill="none" points="38.184,345.9039,41.364,333.5919,46.554,345.2019,38.184,345.9039" style="stroke:#A80036;stroke-width:0.6;"/><!--MD5=[80d9ae4771b252b6d25b56fdcc7914a1]
reverse link ApplicationUser to CenterCoordinator--><path codeLine="23" d="M46.536,345.5679 C53.208,382.7799 66.78,435.1539 93.6,473.6139 C112.8,501.1479 144.84,523.1259 167.886,536.5299 " fill="none" id="ApplicationUser-backto-CenterCoordinator" style="stroke:#A80036;stroke-width:0.6;"/><polygon fill="none" points="42.372,346.0959,44.532,333.5679,50.652,344.7099,42.372,346.0959" style="stroke:#A80036;stroke-width:0.6;"/><!--MD5=[bea4cef510d6480f5c2f28bf0d9d6d1e]
link Receptionist to SnsUser--><path codeLine="25" d="M53.808,147.0759 C67.176,134.1279 89.064,117.2139 112.2,117.2139 C112.2,117.2139 112.2,117.2139 602.7,117.2139 C674.19,117.2139 757.5,108.2919 803.304,102.6099 " fill="none" id="Receptionist-SnsUser" style="stroke:#A80036;stroke-width:0.6;"/><polygon fill="#000000" points="266.9947,111.7417,261.4728,110.3028,261.6816,113.8233,266.9947,111.7417" style="stroke:#000000;stroke-width:0.6;"/><text fill="#000000" font-family="sans-serif" font-size="7.8" lengthAdjust="spacing" textLength="42" x="269.4" y="115.1109">creates new</text><text fill="#000000" font-family="sans-serif" font-size="7.8" lengthAdjust="spacing" textLength="4.2" x="52.6338" y="140.6446">1</text><text fill="#000000" font-family="sans-serif" font-size="7.8" lengthAdjust="spacing" textLength="3" x="795.6023" y="111.9108">*</text><!--MD5=[69d3d6816bb2ad39f978a6f58b674d47]
link Administrator to SnsUser--><path codeLine="34" d="M612.21,443.4579 C649.164,386.8899 783.234,181.6839 825.234,117.4059 " fill="none" id="Administrator-SnsUser" style="stroke:#A80036;stroke-width:0.6;"/><polygon fill="#000000" points="676.3409,177.2078,671.8963,180.7867,674.8487,182.7156,676.3409,177.2078" style="stroke:#000000;stroke-width:0.6;"/><text fill="#000000" font-family="sans-serif" font-size="7.8" lengthAdjust="spacing" textLength="84.6" x="680.1" y="182.9109">configures and manages</text><text fill="#000000" font-family="sans-serif" font-size="7.8" lengthAdjust="spacing" textLength="3" x="611.4163" y="437.022">*</text><text fill="#000000" font-family="sans-serif" font-size="7.8" lengthAdjust="spacing" textLength="3" x="819.3269" y="130.2657">*</text><!--MD5=[e2ddcc32583ff1a2f6fdd8d9fe473f71]
link Administrator to Nurse--><path codeLine="35" d="M633.672,449.3619 C639.606,447.7839 645.786,446.2059 651.6,444.8139 C845.004,398.6199 898.572,408.8019 1089.6,353.6139 C1143.696,337.9839 1205.328,313.0119 1235.892,300.1179 " fill="none" id="Administrator-Nurse" style="stroke:#A80036;stroke-width:0.6;"/><polygon fill="#000000" points="897.5119,375.1977,891.82,374.7916,892.6684,378.2147,897.5119,375.1977" style="stroke:#000000;stroke-width:0.6;"/><text fill="#000000" font-family="sans-serif" font-size="7.8" lengthAdjust="spacing" textLength="84.6" x="900" y="379.1109">configures and manages</text><text fill="#000000" font-family="sans-serif" font-size="7.8" lengthAdjust="spacing" textLength="3" x="638.3227" y="456.9321">*</text><text fill="#000000" font-family="sans-serif" font-size="7.8" lengthAdjust="spacing" textLength="3" x="1228.209" y="311.1045">*</text><!--MD5=[68f756bc59cba637d4ff36002d7ff302]
link Receptionist to Administrator--><path codeLine="36" d="M53.61,176.1099 C91.812,217.3839 208.032,336.2739 330,394.4139 C421.356,437.9619 454.812,416.3379 552.6,442.4139 C558.456,443.9739 564.648,445.8099 570.588,447.6579 " fill="none" id="Receptionist-Administrator" style="stroke:#A80036;stroke-width:0.6;"/><polygon fill="#000000" points="149.7441,262.3243,153.7287,266.4091,155.3687,263.2868,149.7441,262.3243" style="stroke:#000000;stroke-width:0.6;"/><text fill="#000000" font-family="sans-serif" font-size="7.8" lengthAdjust="spacing" textLength="84.6" x="157.8" y="266.9109">configures and manages</text><text fill="#000000" font-family="sans-serif" font-size="7.8" lengthAdjust="spacing" textLength="3" x="53.5862" y="188.936">*</text><text fill="#000000" font-family="sans-serif" font-size="7.8" lengthAdjust="spacing" textLength="3" x="562.7394" y="454.9544">*</text><!--MD5=[8e3772fcd0ac833cbaec1bbaf09fe751]
link Administrator to VaccinatonCenter--><path codeLine="37" d="M615.03,472.5159 C624.192,482.4279 637.494,495.1479 651.6,503.0139 C726.708,544.8819 751.914,555.2139 837.9,555.2139 C837.9,555.2139 837.9,555.2139 1416.3,555.2139 C1446.222,555.2139 1480.104,555.2139 1505.37,555.2139 " fill="none" id="Administrator-VaccinatonCenter" style="stroke:#A80036;stroke-width:0.6;"/><polygon fill="#000000" points="1113.5871,550.1968,1108.3464,547.9391,1108.0203,551.4507,1113.5871,550.1968" style="stroke:#000000;stroke-width:0.6;"/><text fill="#000000" font-family="sans-serif" font-size="7.8" lengthAdjust="spacing" textLength="84.6" x="1116" y="553.1109">configures and manages</text><text fill="#000000" font-family="sans-serif" font-size="7.8" lengthAdjust="spacing" textLength="3" x="614.8161" y="485.3435">*</text><text fill="#000000" font-family="sans-serif" font-size="7.8" lengthAdjust="spacing" textLength="3" x="1497.7184" y="563.8827">*</text><!--MD5=[aeb13be6323529cdc88cf4be1fe6f78d]
link CenterCoordinator to Administrator--><path codeLine="38" d="M236.58,543.6339 C302.658,531.0999 439.014,504.0099 552.6,473.6139 C558.456,472.0479 564.648,470.2119 570.588,468.3639 " fill="none" id="CenterCoordinator-Administrator" style="stroke:#A80036;stroke-width:0.6;"/><polygon fill="#000000" points="338.7734,496.5789,344.4553,497.106,343.68,493.6656,338.7734,496.5789" style="stroke:#000000;stroke-width:0.6;"/><text fill="#000000" font-family="sans-serif" font-size="7.8" lengthAdjust="spacing" textLength="84.6" x="347.1" y="499.1109">configures and manages</text><text fill="#000000" font-family="sans-serif" font-size="7.8" lengthAdjust="spacing" textLength="3" x="241.1606" y="551.4603">*</text><text fill="#000000" font-family="sans-serif" font-size="7.8" lengthAdjust="spacing" textLength="3" x="562.7394" y="478.7016">*</text><!--MD5=[cf1f79aaa96475bd394cef514d020aeb]
link TypeOfVaccine to Administrator--><path codeLine="39" d="M419.574,377.4939 C431.862,382.0419 445.962,386.9619 459,390.8139 C499.944,402.9039 514.902,392.3739 552.6,412.4139 C567.156,420.1539 580.608,433.3359 589.704,443.5419 " fill="none" id="TypeOfVaccine-Administrator" style="stroke:#A80036;stroke-width:0.6;"/><polygon fill="#000000" points="459.2034,384.4336,463.6244,388.0415,464.9007,384.7539,459.2034,384.4336" style="stroke:#000000;stroke-width:0.6;"/><text fill="#000000" font-family="sans-serif" font-size="7.8" lengthAdjust="spacing" textLength="84.6" x="467.4" y="388.7109">configures and manages</text><text fill="#000000" font-family="sans-serif" font-size="7.8" lengthAdjust="spacing" textLength="3" x="424.1319" y="387.8818">*</text><text fill="#000000" font-family="sans-serif" font-size="7.8" lengthAdjust="spacing" textLength="3" x="583.1432" y="437.1275">*</text><!--MD5=[0e439f75a3d966f965fe5f237a1bacbe]
link Administrator to Vaccine--><path codeLine="40" d="M633.756,459.1299 C698.982,461.1579 854.958,464.3199 985.2,453.8139 C1078.056,446.3259 1187.442,426.2919 1233.27,417.3879 " fill="none" id="Administrator-Vaccine" style="stroke:#A80036;stroke-width:0.6;"/><polygon fill="#000000" points="916.4928,448.311,910.9563,446.9288,911.2013,450.447,916.4928,448.311" style="stroke:#000000;stroke-width:0.6;"/><text fill="#000000" font-family="sans-serif" font-size="7.8" lengthAdjust="spacing" textLength="46.8" x="918.9" y="451.7109">specifies new</text><text fill="#000000" font-family="sans-serif" font-size="7.8" lengthAdjust="spacing" textLength="3" x="638.4186" y="468.0737">*</text><text fill="#000000" font-family="sans-serif" font-size="7.8" lengthAdjust="spacing" textLength="3" x="1225.5391" y="427.2911">*</text><!--MD5=[d83b693103230073e156db3bf773fd07]
link Administrator to DosageScheme--><path codeLine="41" d="M633.732,467.7039 C678.402,480.7659 763.62,502.4139 837.9,502.4139 C837.9,502.4139 837.9,502.4139 1256.4,502.4139 C1291.86,502.4139 1331.616,499.1019 1362.474,495.7959 " fill="none" id="Administrator-DosageScheme" style="stroke:#A80036;stroke-width:0.6;"/><polygon fill="#000000" points="1032.5978,497.2349,1027.2427,495.2638,1027.1068,498.7879,1032.5978,497.2349" style="stroke:#000000;stroke-width:0.6;"/><text fill="#000000" font-family="sans-serif" font-size="7.8" lengthAdjust="spacing" textLength="30.6" x="1035" y="500.3109">specifies</text><text fill="#000000" font-family="sans-serif" font-size="7.8" lengthAdjust="spacing" textLength="4.2" x="638.4756" y="477.8534">1</text><text fill="#000000" font-family="sans-serif" font-size="7.8" lengthAdjust="spacing" textLength="3" x="1354.771" y="504.8697">*</text><!--MD5=[a69f9571a60c92edbe9996b131c0a798]
reverse link VaccinatonCenter to MassVaccinationCenter--><path d="M1594.554,543.0279 C1602.726,541.0299 1611.18,538.9599 1619.31,536.9739 " fill="none" id="VaccinatonCenter-backto-MassVaccinationCenter" style="stroke:#A80036;stroke-width:0.6;"/><polygon fill="none" points="1595.502,547.1139,1582.848,545.8839,1593.51,538.9539,1595.502,547.1139" style="stroke:#A80036;stroke-width:0.6;"/><!--MD5=[035b9cfd2c46d00ea6ea4e2ba6f148e6]
reverse link VaccinatonCenter to HealthcareCenter--><path d="M1594.626,567.4179 C1606.188,570.2499 1618.308,573.2139 1629.276,575.8899 " fill="none" id="VaccinatonCenter-backto-HealthcareCenter" style="stroke:#A80036;stroke-width:0.6;"/><polygon fill="none" points="1593.51,571.4739,1582.848,564.5439,1595.502,563.3139,1593.51,571.4739" style="stroke:#A80036;stroke-width:0.6;"/><!--MD5=[a5b46689cc8857272cca60e04b4c2b59]
link Vaccine to DosageScheme--><path codeLine="83" d="M1278.444,423.8559 C1288.218,428.6499 1299.87,434.3379 1310.4,439.4139 C1327.35,447.5919 1345.89,456.4359 1362.588,464.3739 " fill="none" id="Vaccine-DosageScheme" style="stroke:#A80036;stroke-width:0.6;"/><polygon fill="#000000" points="1319.103,435.4209,1314.9783,431.4776,1313.4482,434.6551,1319.103,435.4209" style="stroke:#000000;stroke-width:0.6;"/><text fill="#000000" font-family="sans-serif" font-size="7.8" lengthAdjust="spacing" textLength="19.2" x="1321.8" y="437.3109">has a</text><text fill="#000000" font-family="sans-serif" font-size="7.8" lengthAdjust="spacing" textLength="4.2" x="1283.1608" y="434.9347">1</text><text fill="#000000" font-family="sans-serif" font-size="7.8" lengthAdjust="spacing" textLength="4.2" x="1353.6432" y="470.7473">1</text><!--MD5=[2de32f8dee38664ec07413075ed961c1]
link TypeOfVaccine to Vaccine--><path codeLine="84" d="M419.436,364.5159 C510.3,365.0079 769.944,367.7379 985.2,383.0139 C1077.642,389.5719 1187.25,403.7379 1233.204,409.9659 " fill="none" id="TypeOfVaccine-Vaccine" style="stroke:#A80036;stroke-width:0.6;"/><polygon fill="#000000" points="826.8047,367.352,832.1249,369.4153,832.3216,365.8941,826.8047,367.352" style="stroke:#000000;stroke-width:0.6;"/><text fill="#000000" font-family="sans-serif" font-size="7.8" lengthAdjust="spacing" textLength="14.4" x="835.2" y="370.7109">is of</text><text fill="#000000" font-family="sans-serif" font-size="7.8" lengthAdjust="spacing" textLength="3" x="424.1977" y="373.2716">*</text><text fill="#000000" font-family="sans-serif" font-size="7.8" lengthAdjust="spacing" textLength="4.2" x="1224.2963" y="418.3969">1</text><!--MD5=[1f0ff94e73a393eecd3e5d6f2d296bab]
link Vaccine to VaccinatonCenter--><path codeLine="85" d="M1278.39,410.8119 C1319.274,407.8419 1408.314,406.6959 1468.8,444.8139 C1485.246,455.1759 1498.944,470.6259 1509.924,486.7059 " fill="none" id="Vaccine-VaccinatonCenter" style="stroke:#A80036;stroke-width:0.6;"/><polygon fill="#000000" points="1385.2508,407.4538,1380.6429,404.0877,1379.5444,407.439,1385.2508,407.4538" style="stroke:#000000;stroke-width:0.6;"/><text fill="#000000" font-family="sans-serif" font-size="7.8" lengthAdjust="spacing" textLength="63.6" x="1387.8" y="409.7109">is administered on</text><text fill="#000000" font-family="sans-serif" font-size="7.8" lengthAdjust="spacing" textLength="3" x="1283.1327" y="419.4204">*</text><text fill="#000000" font-family="sans-serif" font-size="7.8" lengthAdjust="spacing" textLength="4.2" x="1503.2867" y="480.2873">1</text><!--MD5=[b146a75595556fad78af069941b44148]
link DigitalCertificate to Nurse--><path codeLine="89" d="M1255.8,112.5159 C1255.8,148.4979 1255.8,241.5279 1255.8,277.4079 " fill="none" id="DigitalCertificate-Nurse" style="stroke:#A80036;stroke-width:0.6;"/><polygon fill="#000000" points="1234.2,192.0193,1232.4366,197.4464,1235.9634,197.4464,1234.2,192.0193" style="stroke:#000000;stroke-width:0.6;"/><text fill="#000000" font-family="sans-serif" font-size="7.8" lengthAdjust="spacing" textLength="25.8" x="1239.6" y="198.2109">delivers</text><text fill="#000000" font-family="sans-serif" font-size="7.8" lengthAdjust="spacing" textLength="3" x="1252.4344" y="125.3435">*</text><text fill="#000000" font-family="sans-serif" font-size="7.8" lengthAdjust="spacing" textLength="4.2" x="1251.0619" y="271.0104">1</text><!--MD5=[894f32e3bda40c7272620a3388816726]
link SnsUser to DigitalCertificate--><path codeLine="90" d="M873.684,98.0139 C951.492,98.0139 1139.724,98.0139 1219.02,98.0139 " fill="none" id="SnsUser-DigitalCertificate" style="stroke:#A80036;stroke-width:0.6;"/><polygon fill="#000000" points="1032.9,92.7193,1027.4729,90.956,1027.4729,94.4827,1032.9,92.7193" style="stroke:#000000;stroke-width:0.6;"/><text fill="#000000" font-family="sans-serif" font-size="7.8" lengthAdjust="spacing" textLength="30" x="1035.3" y="95.9109">requests</text><text fill="#000000" font-family="sans-serif" font-size="7.8" lengthAdjust="spacing" textLength="4.2" x="878.461" y="106.7259">1</text><text fill="#000000" font-family="sans-serif" font-size="7.8" lengthAdjust="spacing" textLength="4.2" x="1210.0815" y="106.7088">1</text><!--MD5=[cc5e2fb97d9f5c96dda5e8bbfd01385e]
link SnsUser to VaccineAppointment--><path codeLine="94" d="M873.696,86.4639 C909.264,74.5899 964.722,56.0799 1003.026,43.2939 " fill="none" id="SnsUser-VaccineAppointment" style="stroke:#A80036;stroke-width:0.6;"/><polygon fill="#000000" points="922.0457,43.1695,916.3395,43.2152,917.4561,46.5604,922.0457,43.1695" style="stroke:#000000;stroke-width:0.6;"/><text fill="#000000" font-family="sans-serif" font-size="7.8" lengthAdjust="spacing" textLength="35.4" x="924.6" y="47.3109">schedules</text><text fill="#000000" font-family="sans-serif" font-size="7.8" lengthAdjust="spacing" textLength="4.2" x="878.4746" y="93.6961">1</text><text fill="#000000" font-family="sans-serif" font-size="7.8" lengthAdjust="spacing" textLength="3" x="995.3984" y="53.3694">*</text><!--MD5=[d35087f30a174783cf89ba80439f9811]
link Receptionist to VaccineAppointment--><path codeLine="95" d="M40.944,146.9799 C42.924,109.7979 53.706,14.6139 112.2,14.6139 C112.2,14.6139 112.2,14.6139 839.1,14.6139 C895.938,14.6139 961.35,20.0979 1003.104,24.2979 " fill="none" id="Receptionist-VaccineAppointment" style="stroke:#A80036;stroke-width:0.6;"/><polygon fill="#000000" points="345.8759,8.9399,340.2694,7.8771,340.7155,11.3755,345.8759,8.9399" style="stroke:#000000;stroke-width:0.6;"/><text fill="#000000" font-family="sans-serif" font-size="7.8" lengthAdjust="spacing" textLength="82.2" x="348.3" y="12.5109">schedules and confirms</text><text fill="#000000" font-family="sans-serif" font-size="7.8" lengthAdjust="spacing" textLength="4.2" x="36.4866" y="140.7656">1</text><text fill="#000000" font-family="sans-serif" font-size="7.8" lengthAdjust="spacing" textLength="3" x="995.4844" y="32.4145">*</text><!--MD5=[ead49c6eb232874c9bfdd14aaf3032df]
link Receptionist to UsersWaitingList--><path codeLine="101" d="M70.368,161.9259 C175.518,162.9819 538.35,166.4139 837.9,166.4139 C837.9,166.4139 837.9,166.4139 1256.4,166.4139 C1298.334,166.4139 1345.512,176.2659 1377.45,184.4499 " fill="none" id="Receptionist-UsersWaitingList" style="stroke:#A80036;stroke-width:0.6;"/><polygon fill="#000000" points="587.9996,160.571,582.6037,158.7144,582.5429,162.2406,587.9996,160.571" style="stroke:#000000;stroke-width:0.6;"/><text fill="#000000" font-family="sans-serif" font-size="7.8" lengthAdjust="spacing" textLength="31.2" x="590.4" y="163.7109">atualizes</text><text fill="#000000" font-family="sans-serif" font-size="7.8" lengthAdjust="spacing" textLength="3" x="75.0633" y="170.7893">*</text><text fill="#000000" font-family="sans-serif" font-size="7.8" lengthAdjust="spacing" textLength="4.2" x="1368.5845" y="191.8695">1</text><!--MD5=[a130e805f12c6caaf0787465d0f0d87e]
link Nurse to UsersWaitingList--><path codeLine="102" d="M1275.702,280.0659 C1304.778,262.3659 1359.762,228.8979 1391.286,209.7099 " fill="none" id="Nurse-UsersWaitingList" style="stroke:#A80036;stroke-width:0.6;"/><polygon fill="#000000" points="1315.9626,233.9595,1310.41,235.275,1312.2437,238.2875,1315.9626,233.9595" style="stroke:#000000;stroke-width:0.6;"/><text fill="#000000" font-family="sans-serif" font-size="7.8" lengthAdjust="spacing" textLength="25.2" x="1318.8" y="238.7109">checks</text><text fill="#000000" font-family="sans-serif" font-size="7.8" lengthAdjust="spacing" textLength="3" x="1280.3837" y="286.6661">*</text><text fill="#000000" font-family="sans-serif" font-size="7.8" lengthAdjust="spacing" textLength="4.2" x="1380.6232" y="222.536">1</text><!--MD5=[49bdc4f43c0486f86f6744f0a65b0571]
link Nurse to Vaccine--><path codeLine="103" d="M1255.8,306.3639 C1255.8,328.2099 1255.8,369.5139 1255.8,393.8079 " fill="none" id="Nurse-Vaccine" style="stroke:#A80036;stroke-width:0.6;"/><polygon fill="#000000" points="1227,353.1193,1228.7634,347.6923,1225.2366,347.6923,1227,353.1193" style="stroke:#000000;stroke-width:0.6;"/><text fill="#000000" font-family="sans-serif" font-size="7.8" lengthAdjust="spacing" textLength="40.2" x="1232.4" y="353.3109">administers</text><text fill="#000000" font-family="sans-serif" font-size="7.8" lengthAdjust="spacing" textLength="4.2" x="1251.0881" y="319.2032">1</text><text fill="#000000" font-family="sans-serif" font-size="7.8" lengthAdjust="spacing" textLength="3" x="1252.4906" y="387.3537">*</text><!--MD5=[7c528da0811d8c9618b5251ce6f77b95]
link Nurse to UserInfo--><path codeLine="104" d="M1275.702,291.8139 C1304.946,291.8139 1360.386,291.8139 1391.82,291.8139 " fill="none" id="Nurse-UserInfo" style="stroke:#A80036;stroke-width:0.6;"/><polygon fill="#000000" points="1316.4,286.5193,1310.9729,284.756,1310.9729,288.2827,1316.4,286.5193" style="stroke:#000000;stroke-width:0.6;"/><text fill="#000000" font-family="sans-serif" font-size="7.8" lengthAdjust="spacing" textLength="25.2" x="1318.8" y="289.7109">checks</text><text fill="#000000" font-family="sans-serif" font-size="7.8" lengthAdjust="spacing" textLength="4.2" x="1280.5149" y="300.984">1</text><text fill="#000000" font-family="sans-serif" font-size="7.8" lengthAdjust="spacing" textLength="3" x="1384.1406" y="300.8154">*</text><!--MD5=[db176923f14d9a5230d07f28d6b8fcf5]
link GivenVaccine to apoint18051--><path d="M1046.4,269.7759 C1046.4,276.6459 1046.4,283.5159 1046.4,290.3859 " fill="none" id="GivenVaccine-apoint18051" style="stroke:#A80036;stroke-width:0.6;"/><text fill="#000000" font-family="sans-serif" font-size="7.8" lengthAdjust="spacing" textLength="3" x="1043.0344" y="282.6181">*</text><!--MD5=[73b3e5272202f179258f84b5842d6ab0]
link apoint18051 to AdverseReactions--><path d="M1046.4,293.0199 C1046.4,299.9559 1046.4,306.8919 1046.4,313.8339 " fill="none" id="apoint18051-AdverseReactions" style="stroke:#A80036;stroke-width:0.6;"/><text fill="#000000" font-family="sans-serif" font-size="7.8" lengthAdjust="spacing" textLength="3" x="1043.0156" y="307.3918">*</text><!--MD5=[45d422b63e045a55d3b81ba280339e60]
link apoint18051 to Nurse--><path d="M1047.756,291.8139 C1058.736,291.8139 1186.674,291.8139 1235.988,291.8139 " fill="none" id="apoint18051-Nurse" style="stroke:#A80036;stroke-width:0.6;"/><text fill="#000000" font-family="sans-serif" font-size="7.8" lengthAdjust="spacing" textLength="30" x="1139.4" y="289.7109">registers</text><!--MD5=[4b713ec73cfc330ec36738f439ccab33]
link CenterCoordinator to ManageVaccinationProcess--><path codeLine="115" d="M205.152,565.5399 C215.79,582.5979 235.848,610.3179 261,624.2139 C281.832,635.7219 307.446,641.0139 329.97,643.2999 " fill="none" id="CenterCoordinator-ManageVaccinationProcess" style="stroke:#A80036;stroke-width:0.6;"/><polygon fill="#000000" points="276.7463,620.5056,273.0724,616.1393,271.2076,619.1327,276.7463,620.5056" style="stroke:#000000;stroke-width:0.6;"/><text fill="#000000" font-family="sans-serif" font-size="7.8" lengthAdjust="spacing" textLength="21.6" x="279.6" y="622.1109">has to</text><text fill="#000000" font-family="sans-serif" font-size="7.8" lengthAdjust="spacing" textLength="4.2" x="202.6222" y="578.3734">1</text><text fill="#000000" font-family="sans-serif" font-size="7.8" lengthAdjust="spacing" textLength="4.2" x="320.9975" y="651.744">1</text><!--MD5=[87f7b597003eab4c55f1d6168582c2a5]
link CenterCoordinator to VaccinatonCenter--><path codeLine="116" d="M232.554,565.4379 C269.916,579.1899 330.552,597.8139 384.9,597.8139 C384.9,597.8139 384.9,597.8139 1416.3,597.8139 C1447.392,597.8139 1480.644,586.2279 1505.352,575.1399 " fill="none" id="CenterCoordinator-VaccinatonCenter" style="stroke:#A80036;stroke-width:0.6;"/><polygon fill="#000000" points="904.2001,592.4965,909.6135,594.3011,909.6404,590.7745,904.2001,592.4965" style="stroke:#000000;stroke-width:0.6;"/><text fill="#000000" font-family="sans-serif" font-size="7.8" lengthAdjust="spacing" textLength="59.4" x="912.6" y="595.7109">is coordinated by</text><text fill="#000000" font-family="sans-serif" font-size="7.8" lengthAdjust="spacing" textLength="4.2" x="236.7034" y="578.2465">1</text><text fill="#000000" font-family="sans-serif" font-size="7.8" lengthAdjust="spacing" textLength="4.2" x="1496.429" y="586.1127">1</text><!--MD5=[2075be8de63a33f6fa84805c185bc4f8]
link Application to SnsUser--><path codeLine="121" d="M629.91,79.3419 C636.918,81.2139 644.49,83.0019 651.6,84.2139 C704.034,93.1479 765.744,96.2979 803.328,97.4079 " fill="none" id="Application-SnsUser" style="stroke:#A80036;stroke-width:0.6;"/><polygon fill="#000000" points="657.5839,79.2302,652.3687,76.914,652.0033,80.4217,657.5839,79.2302" style="stroke:#000000;stroke-width:0.6;"/><text fill="#000000" font-family="sans-serif" font-size="7.8" lengthAdjust="spacing" textLength="124.8" x="660" y="82.1109">requests authorization to send SMS</text><text fill="#000000" font-family="sans-serif" font-size="7.8" lengthAdjust="spacing" textLength="4.2" x="634.49" y="89.4653">1</text><text fill="#000000" font-family="sans-serif" font-size="7.8" lengthAdjust="spacing" textLength="3" x="795.6294" y="95.2123">*</text><!--MD5=[2075be8de63a33f6fa84805c185bc4f8]
link Application to SnsUser--><path codeLine="122" d="M629.796,67.0899 C665.886,62.7519 731.448,57.9519 785.4,71.0139 C792.474,72.7239 799.662,75.5679 806.358,78.7719 " fill="none" id="Application-SnsUser-1" style="stroke:#A80036;stroke-width:0.6;"/><polygon fill="#000000" points="710.6935,57.5174,705.3947,55.3996,705.1618,58.9186,710.6935,57.5174" style="stroke:#000000;stroke-width:0.6;"/><text fill="#000000" font-family="sans-serif" font-size="7.8" lengthAdjust="spacing" textLength="18.6" x="713.1" y="60.5109">notify</text><text fill="#000000" font-family="sans-serif" font-size="7.8" lengthAdjust="spacing" textLength="4.2" x="634.5447" y="75.3434">1</text><text fill="#000000" font-family="sans-serif" font-size="7.8" lengthAdjust="spacing" textLength="3" x="796.4193" y="72.3103">*</text><!--MD5=[7a3302db0306e7272ad10de9df38a6ea]
link EntriesAndExitsList to Application--><path codeLine="123" d="M427.122,71.0139 C470.394,71.0139 537.342,71.0139 574.434,71.0139 " fill="none" id="EntriesAndExitsList-Application" style="stroke:#A80036;stroke-width:0.6;"/><polygon fill="#000000" points="484.2,65.7193,489.6271,67.4827,489.6271,63.956,484.2,65.7193" style="stroke:#000000;stroke-width:0.6;"/><text fill="#000000" font-family="sans-serif" font-size="7.8" lengthAdjust="spacing" textLength="34.2" x="492.6" y="68.9109">generates</text><text fill="#000000" font-family="sans-serif" font-size="7.8" lengthAdjust="spacing" textLength="3" x="431.569" y="79.6168">*</text><text fill="#000000" font-family="sans-serif" font-size="7.8" lengthAdjust="spacing" textLength="4.2" x="565.49" y="79.8927">1</text><!--MD5=[c86e5e1c7cdd15f5df84ab3725d0e332]
@startuml
'https://plantuml.com/class-diagram

left to right direction

class ApplicationUser {
==-name
==-emailAddress
==-role
==-password
}


class Administrator

class SnsUser {
==-SnsUserNumber
}

ApplicationUser <|- - - SnsUser
ApplicationUser <|- - Nurse
ApplicationUser <|-left- Receptionist
ApplicationUser <|- Administrator
ApplicationUser <|- - - CenterCoordinator

Receptionist "1" - "*" SnsUser : creates new >


class Receptionist

class Nurse

class CenterCoordinator

Administrator "*" - - "*" SnsUser : configures and manages  >
Administrator "*" - "*" Nurse : configures and manages >
Administrator "*" -l- "*" Receptionist : configures and manages >
Administrator "*" - - "*" VaccinatonCenter : configures and manages >
Administrator "*" -up- - "*" CenterCoordinator : configures and manages >
Administrator "*" -up- "*" TypeOfVaccine : configures and manages >
Administrator "*" - - "*" Vaccine : specifies new >
Administrator "1" - "*" DosageScheme : specifies  >


class VaccinatonCenter {
==-name
==-address
==-phoneNumber
==-emailAddress
==-faxNumber
==-websiteAddress
==-openingHour
==-closingHour
==-slotDuration
==-vaccinesPerSlot
==-coordinator
 }

class MassVaccinationCenter extends VaccinatonCenter {

}

class HealthcareCenter extends VaccinatonCenter {
==-ARE
==-AGES
}

class Vaccine {
==-brand
}

class DosageScheme {
==-numberOfDoses
==-dosage
== -age
==-intervalBetweenVaccines
}

class TypeOfVaccine {
==-virus
}


Vaccine "1" - - "1" DosageScheme : has a >
TypeOfVaccine "*" - - "1" Vaccine :is of <
Vaccine "*" - - - "1" VaccinatonCenter : is administered on >

class DigitalCertificate

Nurse "1" -left "*" DigitalCertificate : delivers >
SnsUser "1" - - - "1" DigitalCertificate : requests >

class VaccineAppointment

SnsUser "1" - - "*" VaccineAppointment : schedules >
Receptionist "1" - "*" VaccineAppointment : schedules and confirms >


class UsersWaitingList
class UserInfo

Receptionist "*" - "1" UsersWaitingList : atualizes >
Nurse "*" - - "1" UsersWaitingList : checks >
Nurse "1" - "*" Vaccine : administers >
Nurse "1" - -  "*" UserInfo : checks >

class GivenVaccine
class AdverseReactions

GivenVaccine "*" - "*" AdverseReactions
(GivenVaccine, AdverseReactions) - Nurse : registers


class ManageVaccinationProcess

CenterCoordinator "1" - - "1" ManageVaccinationProcess : has to >
CenterCoordinator "1" - - "1" VaccinatonCenter : is coordinated by <

class Application
class EntriesAndExitsList

Application "1" - - "*" SnsUser : requests authorization to send SMS >
Application "1" - - "*" SnsUser : notify >
Application "1" -up- "*" EntriesAndExitsList : generates >
@enduml

@startuml

left to right direction

class ApplicationUser {
==-name
==-emailAddress
==-role
==-password
}


class Administrator

class SnsUser {
==-SnsUserNumber
}

ApplicationUser <|- - - SnsUser
ApplicationUser <|- - Nurse
ApplicationUser <|-left- Receptionist
ApplicationUser <|- Administrator
ApplicationUser <|- - - CenterCoordinator

Receptionist "1" - "*" SnsUser : creates new >


class Receptionist

class Nurse

class CenterCoordinator

Administrator "*" - - "*" SnsUser : configures and manages  >
Administrator "*" - "*" Nurse : configures and manages >
Administrator "*" -l- "*" Receptionist : configures and manages >
Administrator "*" - - "*" VaccinatonCenter : configures and manages >
Administrator "*" -up- - "*" CenterCoordinator : configures and manages >
Administrator "*" -up- "*" TypeOfVaccine : configures and manages >
Administrator "*" - - "*" Vaccine : specifies new >
Administrator "1" - "*" DosageScheme : specifies  >


class VaccinatonCenter {
==-name
==-address
==-phoneNumber
==-emailAddress
==-faxNumber
==-websiteAddress
==-openingHour
==-closingHour
==-slotDuration
==-vaccinesPerSlot
==-coordinator
 }

class MassVaccinationCenter extends VaccinatonCenter {

}

class HealthcareCenter extends VaccinatonCenter {
==-ARE
==-AGES
}

class Vaccine {
==-brand
}

class DosageScheme {
==-numberOfDoses
==-dosage
== -age
==-intervalBetweenVaccines
}

class TypeOfVaccine {
==-virus
}


Vaccine "1" - - "1" DosageScheme : has a >
TypeOfVaccine "*" - - "1" Vaccine :is of <
Vaccine "*" - - - "1" VaccinatonCenter : is administered on >

class DigitalCertificate

Nurse "1" -left "*" DigitalCertificate : delivers >
SnsUser "1" - - - "1" DigitalCertificate : requests >

class VaccineAppointment

SnsUser "1" - - "*" VaccineAppointment : schedules >
Receptionist "1" - "*" VaccineAppointment : schedules and confirms >


class UsersWaitingList
class UserInfo

Receptionist "*" - "1" UsersWaitingList : atualizes >
Nurse "*" - - "1" UsersWaitingList : checks >
Nurse "1" - "*" Vaccine : administers >
Nurse "1" - -  "*" UserInfo : checks >

class GivenVaccine
class AdverseReactions

GivenVaccine "*" - "*" AdverseReactions
(GivenVaccine, AdverseReactions) - Nurse : registers


class ManageVaccinationProcess

CenterCoordinator "1" - - "1" ManageVaccinationProcess : has to >
CenterCoordinator "1" - - "1" VaccinatonCenter : is coordinated by <

class Application
class EntriesAndExitsList

Application "1" - - "*" SnsUser : requests authorization to send SMS >
Application "1" - - "*" SnsUser : notify >
Application "1" -up- "*" EntriesAndExitsList : generates >
@enduml

PlantUML version 1.2022.1(Tue Feb 01 18:19:58 GMT 2022)
(GPL source distribution)
Java Runtime: OpenJDK Runtime Environment
JVM: OpenJDK 64-Bit Server VM
Default Encoding: Cp1252
Language: pt
Country: PT
--></g></svg>