<?xml version="1.0" encoding="UTF-8" standalone="no"?><svg xmlns="http://www.w3.org/2000/svg" xmlns:xlink="http://www.w3.org/1999/xlink" contentScriptType="application/ecmascript" contentStyleType="text/css" height="649px" preserveAspectRatio="none" style="width:1666px;height:649px;background:#FFFFFF;" version="1.1" viewBox="0 0 1666 649" width="1666px" zoomAndPan="magnify"><defs><filter height="300%" id="f1hyqmb604mg72" width="300%" x="-1" y="-1"><feGaussianBlur result="blurOut" stdDeviation="2.0"/><feColorMatrix in="blurOut" result="blurOut2" type="matrix" values="0 0 0 0 0 0 0 0 0 0 0 0 0 0 0 0 0 0 .4 0"/><feOffset dx="4.0" dy="4.0" in="blurOut2" result="blurOut3"/><feBlend in="SourceGraphic" in2="blurOut3" mode="normal"/></filter></defs><g><rect fill="#FFFFFF" filter="url(#f1hyqmb604mg72)" height="446.2734" style="stroke:#A80036;stroke-width:1.0;" width="10" x="44.5" y="99.6094"/><rect fill="#FFFFFF" filter="url(#f1hyqmb604mg72)" height="46.7031" style="stroke:#A80036;stroke-width:1.0;" width="10" x="611.5" y="121.9609"/><rect fill="#FFFFFF" filter="url(#f1hyqmb604mg72)" height="195.1094" style="stroke:#A80036;stroke-width:1.0;" width="10" x="611.5" y="199.0156"/><rect fill="#FFFFFF" filter="url(#f1hyqmb604mg72)" height="121.4063" style="stroke:#A80036;stroke-width:1.0;" width="10" x="611.5" y="424.4766"/><rect fill="#FFFFFF" filter="url(#f1hyqmb604mg72)" height="164.7578" style="stroke:#A80036;stroke-width:1.0;" width="10" x="927.5" y="229.3672"/><rect fill="#FFFFFF" filter="url(#f1hyqmb604mg72)" height="91.0547" style="stroke:#A80036;stroke-width:1.0;" width="10" x="927.5" y="454.8281"/><rect fill="#FFFFFF" filter="url(#f1hyqmb604mg72)" height="134.4063" style="stroke:#A80036;stroke-width:1.0;" width="10" x="1243.5" y="259.7188"/><rect fill="#FFFFFF" filter="url(#f1hyqmb604mg72)" height="60.7031" style="stroke:#A80036;stroke-width:1.0;" width="10" x="1243.5" y="485.1797"/><rect fill="#FFFFFF" filter="url(#f1hyqmb604mg72)" height="104.0547" style="stroke:#A80036;stroke-width:1.0;" width="10" x="1559.5" y="290.0703"/><line style="stroke:#A80036;stroke-width:1.0;stroke-dasharray:5.0,5.0;" x1="49" x2="49" y1="89.6094" y2="563.8828"/><line style="stroke:#A80036;stroke-width:1.0;stroke-dasharray:5.0,5.0;" x1="616" x2="616" y1="89.6094" y2="563.8828"/><line style="stroke:#A80036;stroke-width:1.0;stroke-dasharray:5.0,5.0;" x1="932" x2="932" y1="89.6094" y2="563.8828"/><line style="stroke:#A80036;stroke-width:1.0;stroke-dasharray:5.0,5.0;" x1="1248.5" x2="1248.5" y1="89.6094" y2="563.8828"/><line style="stroke:#A80036;stroke-width:1.0;stroke-dasharray:5.0,5.0;" x1="1564.5" x2="1564.5" y1="89.6094" y2="563.8828"/><text fill="#000000" font-family="sans-serif" font-size="14" lengthAdjust="spacing" textLength="83" x="5" y="86.5332">Administrator</text><ellipse cx="49.5" cy="15" fill="#FEFECE" filter="url(#f1hyqmb604mg72)" rx="8" ry="8" style="stroke:#A80036;stroke-width:2.0;"/><path d="M49.5,23 L49.5,50 M36.5,31 L62.5,31 M49.5,50 L36.5,65 M49.5,50 L62.5,65 " fill="none" filter="url(#f1hyqmb604mg72)" style="stroke:#A80036;stroke-width:2.0;"/><text fill="#000000" font-family="sans-serif" font-size="14" lengthAdjust="spacing" textLength="83" x="5" y="577.416">Administrator</text><ellipse cx="49.5" cy="590.4922" fill="#FEFECE" filter="url(#f1hyqmb604mg72)" rx="8" ry="8" style="stroke:#A80036;stroke-width:2.0;"/><path d="M49.5,598.4922 L49.5,625.4922 M36.5,606.4922 L62.5,606.4922 M49.5,625.4922 L36.5,640.4922 M49.5,625.4922 L62.5,640.4922 " fill="none" filter="url(#f1hyqmb604mg72)" style="stroke:#A80036;stroke-width:2.0;"/><rect fill="#FEFECE" filter="url(#f1hyqmb604mg72)" height="31.6094" style="stroke:#A80036;stroke-width:1.5;" width="189" x="520" y="53"/><text fill="#000000" font-family="sans-serif" font-size="14" lengthAdjust="spacing" textLength="175" x="527" y="74.5332">:CreateVaccinationCenterUI</text><rect fill="#FEFECE" filter="url(#f1hyqmb604mg72)" height="31.6094" style="stroke:#A80036;stroke-width:1.5;" width="189" x="520" y="562.8828"/><text fill="#000000" font-family="sans-serif" font-size="14" lengthAdjust="spacing" textLength="175" x="527" y="584.416">:CreateVaccinationCenterUI</text><rect fill="#FEFECE" filter="url(#f1hyqmb604mg72)" height="31.6094" style="stroke:#A80036;stroke-width:1.5;" width="239" x="811" y="53"/><text fill="#000000" font-family="sans-serif" font-size="14" lengthAdjust="spacing" textLength="225" x="818" y="74.5332">:CreateVaccinationCenterController</text><rect fill="#FEFECE" filter="url(#f1hyqmb604mg72)" height="31.6094" style="stroke:#A80036;stroke-width:1.5;" width="239" x="811" y="562.8828"/><text fill="#000000" font-family="sans-serif" font-size="14" lengthAdjust="spacing" textLength="225" x="818" y="584.416">:CreateVaccinationCenterController</text><rect fill="#FEFECE" filter="url(#f1hyqmb604mg72)" height="31.6094" style="stroke:#A80036;stroke-width:1.5;" width="78" x="1207.5" y="53"/><text fill="#000000" font-family="sans-serif" font-size="14" lengthAdjust="spacing" textLength="64" x="1214.5" y="74.5332">:Company</text><rect fill="#FEFECE" filter="url(#f1hyqmb604mg72)" height="31.6094" style="stroke:#A80036;stroke-width:1.5;" width="78" x="1207.5" y="562.8828"/><text fill="#000000" font-family="sans-serif" font-size="14" lengthAdjust="spacing" textLength="64" x="1214.5" y="584.416">:Company</text><rect fill="#FEFECE" filter="url(#f1hyqmb604mg72)" height="31.6094" style="stroke:#A80036;stroke-width:1.5;" width="134" x="1495.5" y="53"/><text fill="#000000" font-family="sans-serif" font-size="14" lengthAdjust="spacing" textLength="120" x="1502.5" y="74.5332">:VaccinationCenter</text><rect fill="#FEFECE" filter="url(#f1hyqmb604mg72)" height="31.6094" style="stroke:#A80036;stroke-width:1.5;" width="134" x="1495.5" y="562.8828"/><text fill="#000000" font-family="sans-serif" font-size="14" lengthAdjust="spacing" textLength="120" x="1502.5" y="584.416">:VaccinationCenter</text><rect fill="#FFFFFF" filter="url(#f1hyqmb604mg72)" height="446.2734" style="stroke:#A80036;stroke-width:1.0;" width="10" x="44.5" y="99.6094"/><rect fill="#FFFFFF" filter="url(#f1hyqmb604mg72)" height="46.7031" style="stroke:#A80036;stroke-width:1.0;" width="10" x="611.5" y="121.9609"/><rect fill="#FFFFFF" filter="url(#f1hyqmb604mg72)" height="195.1094" style="stroke:#A80036;stroke-width:1.0;" width="10" x="611.5" y="199.0156"/><rect fill="#FFFFFF" filter="url(#f1hyqmb604mg72)" height="121.4063" style="stroke:#A80036;stroke-width:1.0;" width="10" x="611.5" y="424.4766"/><rect fill="#FFFFFF" filter="url(#f1hyqmb604mg72)" height="164.7578" style="stroke:#A80036;stroke-width:1.0;" width="10" x="927.5" y="229.3672"/><rect fill="#FFFFFF" filter="url(#f1hyqmb604mg72)" height="91.0547" style="stroke:#A80036;stroke-width:1.0;" width="10" x="927.5" y="454.8281"/><rect fill="#FFFFFF" filter="url(#f1hyqmb604mg72)" height="134.4063" style="stroke:#A80036;stroke-width:1.0;" width="10" x="1243.5" y="259.7188"/><rect fill="#FFFFFF" filter="url(#f1hyqmb604mg72)" height="60.7031" style="stroke:#A80036;stroke-width:1.0;" width="10" x="1243.5" y="485.1797"/><rect fill="#FFFFFF" filter="url(#f1hyqmb604mg72)" height="104.0547" style="stroke:#A80036;stroke-width:1.0;" width="10" x="1559.5" y="290.0703"/><polygon fill="#A80036" points="599.5,117.9609,609.5,121.9609,599.5,125.9609,603.5,121.9609" style="stroke:#A80036;stroke-width:1.0;"/><line style="stroke:#A80036;stroke-width:1.0;" x1="54.5" x2="605.5" y1="121.9609" y2="121.9609"/><text fill="#000000" font-family="sans-serif" font-size="13" font-weight="bold" lengthAdjust="spacing" textLength="7" x="61.5" y="117.1045">1</text><text fill="#000000" font-family="sans-serif" font-size="13" lengthAdjust="spacing" textLength="229" x="72.5" y="117.1045">asks to create a new vaccination center</text><polygon fill="#A80036" points="65.5,164.6641,55.5,168.6641,65.5,172.6641,61.5,168.6641" style="stroke:#A80036;stroke-width:1.0;"/><line style="stroke:#A80036;stroke-width:1.0;stroke-dasharray:2.0,2.0;" x1="59.5" x2="615.5" y1="168.6641" y2="168.6641"/><text fill="#000000" font-family="sans-serif" font-size="13" font-weight="bold" lengthAdjust="spacing" textLength="7" x="71.5" y="155.6318">2</text><text fill="#000000" font-family="sans-serif" font-size="13" lengthAdjust="spacing" textLength="335" x="82.5" y="147.4561">requests data (center id, name, phone number, email, fax,</text><text fill="#000000" font-family="sans-serif" font-size="13" lengthAdjust="spacing" textLength="518" x="86.5" y="163.8076">website, opening hour, closing hour, slot duration, vaccines per slot, address, coordinator)</text><polygon fill="#A80036" points="599.5,195.0156,609.5,199.0156,599.5,203.0156,603.5,199.0156" style="stroke:#A80036;stroke-width:1.0;"/><line style="stroke:#A80036;stroke-width:1.0;" x1="54.5" x2="605.5" y1="199.0156" y2="199.0156"/><text fill="#000000" font-family="sans-serif" font-size="13" font-weight="bold" lengthAdjust="spacing" textLength="7" x="61.5" y="194.1592">3</text><text fill="#000000" font-family="sans-serif" font-size="13" lengthAdjust="spacing" textLength="122" x="72.5" y="194.1592">types requested data</text><polygon fill="#A80036" points="915.5,225.3672,925.5,229.3672,915.5,233.3672,919.5,229.3672" style="stroke:#A80036;stroke-width:1.0;"/><line style="stroke:#A80036;stroke-width:1.0;" x1="621.5" x2="921.5" y1="229.3672" y2="229.3672"/><text fill="#000000" font-family="sans-serif" font-size="13" font-weight="bold" lengthAdjust="spacing" textLength="7" x="628.5" y="224.5107">4</text><text fill="#000000" font-family="sans-serif" font-size="13" lengthAdjust="spacing" textLength="276" x="639.5" y="224.5107">createVaccinationCenter(VaccinationCenterDto)</text><polygon fill="#A80036" points="1231.5,255.7188,1241.5,259.7188,1231.5,263.7188,1235.5,259.7188" style="stroke:#A80036;stroke-width:1.0;"/><line style="stroke:#A80036;stroke-width:1.0;" x1="937.5" x2="1237.5" y1="259.7188" y2="259.7188"/><text fill="#000000" font-family="sans-serif" font-size="13" font-weight="bold" lengthAdjust="spacing" textLength="7" x="944.5" y="254.8623">5</text><text fill="#000000" font-family="sans-serif" font-size="13" lengthAdjust="spacing" textLength="276" x="955.5" y="254.8623">createVaccinationCenter(VaccinationCenterDto)</text><polygon fill="#A80036" points="1547.5,286.0703,1557.5,290.0703,1547.5,294.0703,1551.5,290.0703" style="stroke:#A80036;stroke-width:1.0;"/><line style="stroke:#A80036;stroke-width:1.0;stroke-dasharray:2.0,2.0;" x1="1253.5" x2="1553.5" y1="290.0703" y2="290.0703"/><text fill="#000000" font-family="sans-serif" font-size="13" font-weight="bold" lengthAdjust="spacing" textLength="7" x="1260.5" y="285.2139">6</text><text fill="#000000" font-family="sans-serif" font-size="13" lengthAdjust="spacing" textLength="276" x="1271.5" y="285.2139">createVaccinationCenter(VaccinationCenterDto)</text><line style="stroke:#A80036;stroke-width:1.0;" x1="1569.5" x2="1611.5" y1="320.4219" y2="320.4219"/><line style="stroke:#A80036;stroke-width:1.0;" x1="1611.5" x2="1611.5" y1="320.4219" y2="333.4219"/><line style="stroke:#A80036;stroke-width:1.0;" x1="1570.5" x2="1611.5" y1="333.4219" y2="333.4219"/><polygon fill="#A80036" points="1580.5,329.4219,1570.5,333.4219,1580.5,337.4219,1576.5,333.4219" style="stroke:#A80036;stroke-width:1.0;"/><text fill="#000000" font-family="sans-serif" font-size="13" font-weight="bold" lengthAdjust="spacing" textLength="7" x="1576.5" y="315.5654">7</text><text fill="#000000" font-family="sans-serif" font-size="13" lengthAdjust="spacing" textLength="72" x="1587.5" y="315.5654">validate data</text><polygon fill="#A80036" points="632.5,359.7734,622.5,363.7734,632.5,367.7734,628.5,363.7734" style="stroke:#A80036;stroke-width:1.0;"/><line style="stroke:#A80036;stroke-width:1.0;stroke-dasharray:2.0,2.0;" x1="626.5" x2="926.5" y1="363.7734" y2="363.7734"/><text fill="#000000" font-family="sans-serif" font-size="13" font-weight="bold" lengthAdjust="spacing" textLength="7" x="638.5" y="358.917">8</text><text fill="#000000" font-family="sans-serif" font-size="13" lengthAdjust="spacing" textLength="32" x="649.5" y="358.917">result</text><polygon fill="#A80036" points="65.5,390.125,55.5,394.125,65.5,398.125,61.5,394.125" style="stroke:#A80036;stroke-width:1.0;"/><line style="stroke:#A80036;stroke-width:1.0;stroke-dasharray:2.0,2.0;" x1="59.5" x2="615.5" y1="394.125" y2="394.125"/><text fill="#000000" font-family="sans-serif" font-size="13" font-weight="bold" lengthAdjust="spacing" textLength="7" x="71.5" y="389.2686">9</text><text fill="#000000" font-family="sans-serif" font-size="13" lengthAdjust="spacing" textLength="236" x="82.5" y="389.2686">shows all data and requests confirmation</text><polygon fill="#A80036" points="599.5,420.4766,609.5,424.4766,599.5,428.4766,603.5,424.4766" style="stroke:#A80036;stroke-width:1.0;"/><line style="stroke:#A80036;stroke-width:1.0;" x1="54.5" x2="605.5" y1="424.4766" y2="424.4766"/><text fill="#000000" font-family="sans-serif" font-size="13" font-weight="bold" lengthAdjust="spacing" textLength="14" x="61.5" y="419.6201">10</text><text fill="#000000" font-family="sans-serif" font-size="13" lengthAdjust="spacing" textLength="100" x="79.5" y="419.6201">confirms the data</text><polygon fill="#A80036" points="915.5,450.8281,925.5,454.8281,915.5,458.8281,919.5,454.8281" style="stroke:#A80036;stroke-width:1.0;"/><line style="stroke:#A80036;stroke-width:1.0;" x1="621.5" x2="921.5" y1="454.8281" y2="454.8281"/><text fill="#000000" font-family="sans-serif" font-size="13" font-weight="bold" lengthAdjust="spacing" textLength="14" x="628.5" y="449.9717">11</text><text fill="#000000" font-family="sans-serif" font-size="13" lengthAdjust="spacing" textLength="266" x="646.5" y="449.9717">saveVaccinationCenter(VaccinationCenterDto)</text><polygon fill="#A80036" points="1231.5,481.1797,1241.5,485.1797,1231.5,489.1797,1235.5,485.1797" style="stroke:#A80036;stroke-width:1.0;"/><line style="stroke:#A80036;stroke-width:1.0;" x1="937.5" x2="1237.5" y1="485.1797" y2="485.1797"/><text fill="#000000" font-family="sans-serif" font-size="13" font-weight="bold" lengthAdjust="spacing" textLength="14" x="944.5" y="480.3232">12</text><text fill="#000000" font-family="sans-serif" font-size="13" lengthAdjust="spacing" textLength="266" x="962.5" y="480.3232">saveVaccinationCenter(VaccinationCenterDto)</text><polygon fill="#A80036" points="632.5,511.5313,622.5,515.5313,632.5,519.5313,628.5,515.5313" style="stroke:#A80036;stroke-width:1.0;"/><line style="stroke:#A80036;stroke-width:1.0;stroke-dasharray:2.0,2.0;" x1="626.5" x2="926.5" y1="515.5313" y2="515.5313"/><text fill="#000000" font-family="sans-serif" font-size="13" font-weight="bold" lengthAdjust="spacing" textLength="14" x="638.5" y="510.6748">13</text><text fill="#000000" font-family="sans-serif" font-size="13" lengthAdjust="spacing" textLength="32" x="656.5" y="510.6748">result</text><polygon fill="#A80036" points="60.5,541.8828,50.5,545.8828,60.5,549.8828,56.5,545.8828" style="stroke:#A80036;stroke-width:1.0;"/><line style="stroke:#A80036;stroke-width:1.0;stroke-dasharray:2.0,2.0;" x1="54.5" x2="615.5" y1="545.8828" y2="545.8828"/><text fill="#000000" font-family="sans-serif" font-size="13" font-weight="bold" lengthAdjust="spacing" textLength="14" x="66.5" y="541.0264">14</text><text fill="#000000" font-family="sans-serif" font-size="13" lengthAdjust="spacing" textLength="152" x="84.5" y="541.0264">informs operation success</text><!--MD5=[9f757a01373e837aa4a750136e7e4840]
@startuml
autonumber

actor "Administrator" as A

participant ":CreateVaccinationCenterUI" as UI
participant ":CreateVaccinationCenterController" as CTRL
participant ":Company" as C
participant ":VaccinationCenter" as V

activate A
A -> UI : asks to create a new vaccination center
activate UI

UI - -> A : requests data (center id, name, phone number, email, fax,\n website, opening hour, closing hour, slot duration, vaccines per slot, address, coordinator)
deactivate UI

A -> UI : types requested data
activate UI

UI -> CTRL : createVaccinationCenter(VaccinationCenterDto)
activate CTRL

CTRL -> C : createVaccinationCenter(VaccinationCenterDto)
activate C
C - -> V : createVaccinationCenter(VaccinationCenterDto)
activate V
V -> V :  validate data

CTRL - -> UI : result

UI - -> A: shows all data and requests confirmation

deactivate V
deactivate C
deactivate CTRL
deactivate UI

A -> UI : confirms the data
activate UI
UI -> CTRL : saveVaccinationCenter(VaccinationCenterDto)
activate CTRL
CTRL -> C : saveVaccinationCenter(VaccinationCenterDto)
activate C

CTRL - -> UI: result

UI - -> A : informs operation success

deactivate C
deactivate CTRL
deactivate UI
deactivate A

@enduml

PlantUML version 1.2022.1(Tue Feb 01 18:19:58 GMT 2022)
(GPL source distribution)
Java Runtime: OpenJDK Runtime Environment
JVM: OpenJDK 64-Bit Server VM
Default Encoding: Cp1252
Language: en
Country: US
--></g></svg>