<?xml version="1.0" encoding="UTF-8" standalone="no"?><svg xmlns="http://www.w3.org/2000/svg" xmlns:xlink="http://www.w3.org/1999/xlink" contentScriptType="application/ecmascript" contentStyleType="text/css" height="582px" preserveAspectRatio="none" style="width:420px;height:582px;background:#FFFFFF;" version="1.1" viewBox="0 0 420 582" width="420px" zoomAndPan="magnify"><defs><filter height="300%" id="fo2lg2pggx2ja" width="300%" x="-1" y="-1"><feGaussianBlur result="blurOut" stdDeviation="2.0"/><feColorMatrix in="blurOut" result="blurOut2" type="matrix" values="0 0 0 0 0 0 0 0 0 0 0 0 0 0 0 0 0 0 .4 0"/><feOffset dx="4.0" dy="4.0" in="blurOut2" result="blurOut3"/><feBlend in="SourceGraphic" in2="blurOut3" mode="normal"/></filter></defs><g><!--MD5=[da547346deef918ea16944ba046651ef]
class Administrator--><rect codeLine="4" fill="#FEFECE" filter="url(#fo2lg2pggx2ja)" height="48" id="Administrator" style="stroke:#A80036;stroke-width:1.5;" width="105" x="125" y="13"/><ellipse cx="140" cy="29" fill="#ADD1B2" rx="11" ry="11" style="stroke:#A80036;stroke-width:1.0;"/><path d="M142,25.5 Q142.2031,25 142.4375,24.75 Q142.6719,24.5 142.9375,24.5 Q143.4063,24.5 143.7031,24.7813 Q144,25.0625 144,25.7188 L144,27.2813 Q144,27.9375 143.7188,28.2188 Q143.4375,28.5 143,28.5 Q142.6094,28.5 142.3594,28.3281 Q142.1094,28.1563 142,27.7031 Q141.9531,27.3906 141.7813,27.2188 Q141.4688,26.8906 140.9063,26.7031 Q140.3438,26.5 139.7813,26.5 Q139.0781,26.5 138.4844,26.7813 Q137.9063,27.0625 137.4531,27.6875 Q137,28.3125 137,29.1719 L137,30.0938 Q137,31.125 137.8438,31.8125 Q138.6875,32.5 140.1875,32.5 Q141.0781,32.5 141.7031,32.2969 Q142.0625,32.1875 142.4688,31.8281 Q142.7344,31.625 142.875,31.5625 Q143.0156,31.5 143.1875,31.5 Q143.5156,31.5 143.75,31.7656 Q144,32.0156 144,32.375 Q144,32.7188 143.6563,33.125 Q143.1563,33.7188 142.3594,34.0469 Q141.3125,34.5 140.0313,34.5 Q138.5313,34.5 137.3281,33.9063 Q136.3594,33.4375 135.6719,32.4219 Q135,31.4063 135,30.2031 L135,29.1094 Q135,27.8594 135.5938,26.7656 Q136.2031,25.6719 137.25,25.0938 Q138.3125,24.5 139.5,24.5 Q140.2188,24.5 140.8438,24.75 Q141.4688,25 142,25.5 Z " fill="#000000"/><text fill="#000000" font-family="sans-serif" font-size="12" lengthAdjust="spacing" textLength="73" x="154" y="33.9102">Administrator</text><line style="stroke:#A80036;stroke-width:1.5;" x1="126" x2="229" y1="45" y2="45"/><line style="stroke:#A80036;stroke-width:1.5;" x1="126" x2="229" y1="53" y2="53"/><!--MD5=[de60e6d4f424ae4d0522096f76a59010]
class VaccinationCenter--><rect codeLine="6" fill="#FEFECE" filter="url(#fo2lg2pggx2ja)" height="211.5156" id="VaccinationCenter" style="stroke:#A80036;stroke-width:1.5;" width="132" x="111.5" y="153"/><ellipse cx="126.5" cy="169" fill="#ADD1B2" rx="11" ry="11" style="stroke:#A80036;stroke-width:1.0;"/><path d="M128.5,165.5 Q128.7031,165 128.9375,164.75 Q129.1719,164.5 129.4375,164.5 Q129.9063,164.5 130.2031,164.7813 Q130.5,165.0625 130.5,165.7188 L130.5,167.2813 Q130.5,167.9375 130.2188,168.2188 Q129.9375,168.5 129.5,168.5 Q129.1094,168.5 128.8594,168.3281 Q128.6094,168.1563 128.5,167.7031 Q128.4531,167.3906 128.2813,167.2188 Q127.9688,166.8906 127.4063,166.7031 Q126.8438,166.5 126.2813,166.5 Q125.5781,166.5 124.9844,166.7813 Q124.4063,167.0625 123.9531,167.6875 Q123.5,168.3125 123.5,169.1719 L123.5,170.0938 Q123.5,171.125 124.3438,171.8125 Q125.1875,172.5 126.6875,172.5 Q127.5781,172.5 128.2031,172.2969 Q128.5625,172.1875 128.9688,171.8281 Q129.2344,171.625 129.375,171.5625 Q129.5156,171.5 129.6875,171.5 Q130.0156,171.5 130.25,171.7656 Q130.5,172.0156 130.5,172.375 Q130.5,172.7188 130.1563,173.125 Q129.6563,173.7188 128.8594,174.0469 Q127.8125,174.5 126.5313,174.5 Q125.0313,174.5 123.8281,173.9063 Q122.8594,173.4375 122.1719,172.4219 Q121.5,171.4063 121.5,170.2031 L121.5,169.1094 Q121.5,167.8594 122.0938,166.7656 Q122.7031,165.6719 123.75,165.0938 Q124.8125,164.5 126,164.5 Q126.7188,164.5 127.3438,164.75 Q127.9688,165 128.5,165.5 Z " fill="#000000"/><text fill="#000000" font-family="sans-serif" font-size="12" lengthAdjust="spacing" textLength="100" x="140.5" y="173.9102">VaccinationCenter</text><line style="stroke:#A80036;stroke-width:1.5;" x1="112.5" x2="242.5" y1="185" y2="185"/><text fill="#000000" font-family="sans-serif" font-size="13" font-weight="bold" lengthAdjust="spacing" textLength="40" x="117.5" y="202.4951">-name</text><text fill="#000000" font-family="sans-serif" font-size="13" font-weight="bold" lengthAdjust="spacing" textLength="53" x="117.5" y="218.8467">-address</text><text fill="#000000" font-family="sans-serif" font-size="13" font-weight="bold" lengthAdjust="spacing" textLength="94" x="117.5" y="235.1982">-phoneNumber</text><text fill="#000000" font-family="sans-serif" font-size="13" font-weight="bold" lengthAdjust="spacing" textLength="90" x="117.5" y="251.5498">-emailAddress</text><text fill="#000000" font-family="sans-serif" font-size="13" font-weight="bold" lengthAdjust="spacing" textLength="74" x="117.5" y="267.9014">-faxNumber</text><text fill="#000000" font-family="sans-serif" font-size="13" font-weight="bold" lengthAdjust="spacing" textLength="103" x="117.5" y="284.2529">-websiteAddress</text><text fill="#000000" font-family="sans-serif" font-size="13" font-weight="bold" lengthAdjust="spacing" textLength="86" x="117.5" y="300.6045">-openingHour</text><text fill="#000000" font-family="sans-serif" font-size="13" font-weight="bold" lengthAdjust="spacing" textLength="79" x="117.5" y="316.9561">-closingHour</text><text fill="#000000" font-family="sans-serif" font-size="13" font-weight="bold" lengthAdjust="spacing" textLength="80" x="117.5" y="333.3076">-slotDuration</text><text fill="#000000" font-family="sans-serif" font-size="13" font-weight="bold" lengthAdjust="spacing" textLength="106" x="117.5" y="349.6592">-vaccinesPerSlot</text><line style="stroke:#A80036;stroke-width:1.5;" x1="112.5" x2="242.5" y1="356.5156" y2="356.5156"/><!--MD5=[5d2bdee92db0d01b75732190da037553]
class Coordinator--><rect codeLine="19" fill="#FEFECE" filter="url(#fo2lg2pggx2ja)" height="48" id="Coordinator" style="stroke:#A80036;stroke-width:1.5;" width="97" x="7" y="520"/><ellipse cx="22" cy="536" fill="#ADD1B2" rx="11" ry="11" style="stroke:#A80036;stroke-width:1.0;"/><path d="M24,532.5 Q24.2031,532 24.4375,531.75 Q24.6719,531.5 24.9375,531.5 Q25.4063,531.5 25.7031,531.7813 Q26,532.0625 26,532.7188 L26,534.2813 Q26,534.9375 25.7188,535.2188 Q25.4375,535.5 25,535.5 Q24.6094,535.5 24.3594,535.3281 Q24.1094,535.1563 24,534.7031 Q23.9531,534.3906 23.7813,534.2188 Q23.4688,533.8906 22.9063,533.7031 Q22.3438,533.5 21.7813,533.5 Q21.0781,533.5 20.4844,533.7813 Q19.9063,534.0625 19.4531,534.6875 Q19,535.3125 19,536.1719 L19,537.0938 Q19,538.125 19.8438,538.8125 Q20.6875,539.5 22.1875,539.5 Q23.0781,539.5 23.7031,539.2969 Q24.0625,539.1875 24.4688,538.8281 Q24.7344,538.625 24.875,538.5625 Q25.0156,538.5 25.1875,538.5 Q25.5156,538.5 25.75,538.7656 Q26,539.0156 26,539.375 Q26,539.7188 25.6563,540.125 Q25.1563,540.7188 24.3594,541.0469 Q23.3125,541.5 22.0313,541.5 Q20.5313,541.5 19.3281,540.9063 Q18.3594,540.4375 17.6719,539.4219 Q17,538.4063 17,537.2031 L17,536.1094 Q17,534.8594 17.5938,533.7656 Q18.2031,532.6719 19.25,532.0938 Q20.3125,531.5 21.5,531.5 Q22.2188,531.5 22.8438,531.75 Q23.4688,532 24,532.5 Z " fill="#000000"/><text fill="#000000" font-family="sans-serif" font-size="12" lengthAdjust="spacing" textLength="65" x="36" y="540.9102">Coordinator</text><line style="stroke:#A80036;stroke-width:1.5;" x1="8" x2="103" y1="552" y2="552"/><line style="stroke:#A80036;stroke-width:1.5;" x1="8" x2="103" y1="560" y2="560"/><!--MD5=[76480a6701b5d2883bc606a2560c3cfe]
class MassVaccinationCenter--><rect codeLine="21" fill="#FEFECE" filter="url(#fo2lg2pggx2ja)" height="48" id="MassVaccinationCenter" style="stroke:#A80036;stroke-width:1.5;" width="162" x="96.5" y="418.5"/><ellipse cx="111.5" cy="434.5" fill="#ADD1B2" rx="11" ry="11" style="stroke:#A80036;stroke-width:1.0;"/><path d="M113.5,431 Q113.7031,430.5 113.9375,430.25 Q114.1719,430 114.4375,430 Q114.9063,430 115.2031,430.2813 Q115.5,430.5625 115.5,431.2188 L115.5,432.7813 Q115.5,433.4375 115.2188,433.7188 Q114.9375,434 114.5,434 Q114.1094,434 113.8594,433.8281 Q113.6094,433.6563 113.5,433.2031 Q113.4531,432.8906 113.2813,432.7188 Q112.9688,432.3906 112.4063,432.2031 Q111.8438,432 111.2813,432 Q110.5781,432 109.9844,432.2813 Q109.4063,432.5625 108.9531,433.1875 Q108.5,433.8125 108.5,434.6719 L108.5,435.5938 Q108.5,436.625 109.3438,437.3125 Q110.1875,438 111.6875,438 Q112.5781,438 113.2031,437.7969 Q113.5625,437.6875 113.9688,437.3281 Q114.2344,437.125 114.375,437.0625 Q114.5156,437 114.6875,437 Q115.0156,437 115.25,437.2656 Q115.5,437.5156 115.5,437.875 Q115.5,438.2188 115.1563,438.625 Q114.6563,439.2188 113.8594,439.5469 Q112.8125,440 111.5313,440 Q110.0313,440 108.8281,439.4063 Q107.8594,438.9375 107.1719,437.9219 Q106.5,436.9063 106.5,435.7031 L106.5,434.6094 Q106.5,433.3594 107.0938,432.2656 Q107.7031,431.1719 108.75,430.5938 Q109.8125,430 111,430 Q111.7188,430 112.3438,430.25 Q112.9688,430.5 113.5,431 Z " fill="#000000"/><text fill="#000000" font-family="sans-serif" font-size="12" lengthAdjust="spacing" textLength="130" x="125.5" y="439.4102">MassVaccinationCenter</text><line style="stroke:#A80036;stroke-width:1.5;" x1="97.5" x2="257.5" y1="450.5" y2="450.5"/><line style="stroke:#A80036;stroke-width:1.5;" x1="97.5" x2="257.5" y1="458.5" y2="458.5"/><!--MD5=[0b1ce5251ebf137e6b3550dd84e6af65]
class HealthcareCenter--><rect codeLine="25" fill="#FEFECE" filter="url(#fo2lg2pggx2ja)" height="80.7031" id="HealthcareCenter" style="stroke:#A80036;stroke-width:1.5;" width="129" x="277" y="402"/><ellipse cx="292" cy="418" fill="#ADD1B2" rx="11" ry="11" style="stroke:#A80036;stroke-width:1.0;"/><path d="M294,414.5 Q294.2031,414 294.4375,413.75 Q294.6719,413.5 294.9375,413.5 Q295.4063,413.5 295.7031,413.7813 Q296,414.0625 296,414.7188 L296,416.2813 Q296,416.9375 295.7188,417.2188 Q295.4375,417.5 295,417.5 Q294.6094,417.5 294.3594,417.3281 Q294.1094,417.1563 294,416.7031 Q293.9531,416.3906 293.7813,416.2188 Q293.4688,415.8906 292.9063,415.7031 Q292.3438,415.5 291.7813,415.5 Q291.0781,415.5 290.4844,415.7813 Q289.9063,416.0625 289.4531,416.6875 Q289,417.3125 289,418.1719 L289,419.0938 Q289,420.125 289.8438,420.8125 Q290.6875,421.5 292.1875,421.5 Q293.0781,421.5 293.7031,421.2969 Q294.0625,421.1875 294.4688,420.8281 Q294.7344,420.625 294.875,420.5625 Q295.0156,420.5 295.1875,420.5 Q295.5156,420.5 295.75,420.7656 Q296,421.0156 296,421.375 Q296,421.7188 295.6563,422.125 Q295.1563,422.7188 294.3594,423.0469 Q293.3125,423.5 292.0313,423.5 Q290.5313,423.5 289.3281,422.9063 Q288.3594,422.4375 287.6719,421.4219 Q287,420.4063 287,419.2031 L287,418.1094 Q287,416.8594 287.5938,415.7656 Q288.2031,414.6719 289.25,414.0938 Q290.3125,413.5 291.5,413.5 Q292.2188,413.5 292.8438,413.75 Q293.4688,414 294,414.5 Z " fill="#000000"/><text fill="#000000" font-family="sans-serif" font-size="12" lengthAdjust="spacing" textLength="97" x="306" y="422.9102">HealthcareCenter</text><line style="stroke:#A80036;stroke-width:1.5;" x1="278" x2="405" y1="434" y2="434"/><text fill="#000000" font-family="sans-serif" font-size="13" font-weight="bold" lengthAdjust="spacing" textLength="30" x="283" y="451.4951">-ARE</text><text fill="#000000" font-family="sans-serif" font-size="13" font-weight="bold" lengthAdjust="spacing" textLength="40" x="283" y="467.8467">-AGES</text><line style="stroke:#A80036;stroke-width:1.5;" x1="278" x2="405" y1="474.7031" y2="474.7031"/><path d="M177.5,365.0537 C177.5,385.1226 177.5,404.2342 177.5,418.3285 " fill="none" style="stroke:#A80036;stroke-width:1.0;"/><polygon fill="#FFFFFF" points="177.5,365.0537,171.5,381.0537,183.5,381.0537,177.5,365.0537" style="stroke:#A80036;stroke-width:1.0;"/><path d="M243.7324,333.2998 C264.8902,356.7154 287.5035,381.7416 305.6473,401.8215 " fill="none" style="stroke:#A80036;stroke-width:1.0;"/><polygon fill="#FFFFFF" points="243.7324,333.2998,250.0074,349.194,258.9111,341.1488,243.7324,333.2998" style="stroke:#A80036;stroke-width:1.0;"/><path d="M111.2223,326.1443 C92.8344,348.4448 75.0396,374.6606 64.5,402 C49.3682,441.2515 50.4715,491.1923 52.8485,519.8845 " fill="none" style="stroke:#A80036;stroke-width:1.0;"/><text fill="#000000" font-family="sans-serif" font-size="13" lengthAdjust="spacing" textLength="21" x="65.5" y="447.9951">has</text><text fill="#000000" font-family="sans-serif" font-size="13" lengthAdjust="spacing" textLength="7" x="44.8485" y="516.3796">1</text><text fill="#000000" font-family="sans-serif" font-size="13" lengthAdjust="spacing" textLength="7" x="103.2223" y="322.6394">1</text><path d="M177.5,61.128 C177.5,83.3025 177.5,118.408 177.5,152.8741 " fill="none" style="stroke:#A80036;stroke-width:1.0;"/><text fill="#000000" font-family="sans-serif" font-size="13" lengthAdjust="spacing" textLength="43" x="178.5" y="112.4951">creates</text><text fill="#000000" font-family="sans-serif" font-size="13" lengthAdjust="spacing" textLength="5" x="171.5" y="149.3692">*</text><text fill="#000000" font-family="sans-serif" font-size="13" lengthAdjust="spacing" textLength="7" x="169.5" y="75.6232">1</text><!--MD5=[a5403f0e9d14a2ba73e507df664ad3b0]
@startuml
'https://plantuml.com/class-diagram
!pragma layout smetana

class Administrator

class VaccinationCenter{
==-name
==-address
==-phoneNumber
==-emailAddress
==-faxNumber
==-websiteAddress
==-openingHour
==-closingHour
==-slotDuration
==-vaccinesPerSlot
}

class Coordinator

class MassVaccinationCenter extends VaccinationCenter{

}

class HealthcareCenter extends VaccinationCenter{
==-ARE
==-AGES
}

VaccinationCenter "1" - - - "1" Coordinator: has
Administrator "1" - - - "*" VaccinationCenter: creates

@enduml

@startuml
!pragma layout smetana

class Administrator

class VaccinationCenter{
==-name
==-address
==-phoneNumber
==-emailAddress
==-faxNumber
==-websiteAddress
==-openingHour
==-closingHour
==-slotDuration
==-vaccinesPerSlot
}

class Coordinator

class MassVaccinationCenter extends VaccinationCenter{

}

class HealthcareCenter extends VaccinationCenter{
==-ARE
==-AGES
}

VaccinationCenter "1" - - - "1" Coordinator: has
Administrator "1" - - - "*" VaccinationCenter: creates

@enduml

PlantUML version 1.2022.1(Tue Feb 01 18:19:58 GMT 2022)
(GPL source distribution)
Java Runtime: OpenJDK Runtime Environment
JVM: OpenJDK 64-Bit Server VM
Default Encoding: Cp1252
Language: en
Country: US
--></g></svg>