<?xml version="1.0" encoding="UTF-8" standalone="no"?><svg xmlns="http://www.w3.org/2000/svg" xmlns:xlink="http://www.w3.org/1999/xlink" contentScriptType="application/ecmascript" contentStyleType="text/css" height="914px" preserveAspectRatio="none" style="width:849px;height:914px;background:#FFFFFF;" version="1.1" viewBox="0 0 849 914" width="849px" zoomAndPan="magnify"><defs><filter height="300%" id="f2atqcq4yqyu2" width="300%" x="-1" y="-1"><feGaussianBlur result="blurOut" stdDeviation="2.0"/><feColorMatrix in="blurOut" result="blurOut2" type="matrix" values="0 0 0 0 0 0 0 0 0 0 0 0 0 0 0 0 0 0 .4 0"/><feOffset dx="4.0" dy="4.0" in="blurOut2" result="blurOut3"/><feBlend in="SourceGraphic" in2="blurOut3" mode="normal"/></filter></defs><g><!--MD5=[02e4b9b7573f1156f41e60aa5b4e25a4]
class Company--><rect codeLine="4" fill="#FEFECE" filter="url(#f2atqcq4yqyu2)" height="75.6719" id="Company" style="stroke:#A80036;stroke-width:1.5;" width="277" x="159" y="308"/><ellipse cx="266.75" cy="324" fill="#ADD1B2" rx="11" ry="11" style="stroke:#A80036;stroke-width:1.0;"/><path d="M268.75,320.5 Q268.9531,320 269.1875,319.75 Q269.4219,319.5 269.6875,319.5 Q270.1563,319.5 270.4531,319.7813 Q270.75,320.0625 270.75,320.7188 L270.75,322.2813 Q270.75,322.9375 270.4688,323.2188 Q270.1875,323.5 269.75,323.5 Q269.3594,323.5 269.1094,323.3281 Q268.8594,323.1563 268.75,322.7031 Q268.7031,322.3906 268.5313,322.2188 Q268.2188,321.8906 267.6563,321.7031 Q267.0938,321.5 266.5313,321.5 Q265.8281,321.5 265.2344,321.7813 Q264.6563,322.0625 264.2031,322.6875 Q263.75,323.3125 263.75,324.1719 L263.75,325.0938 Q263.75,326.125 264.5938,326.8125 Q265.4375,327.5 266.9375,327.5 Q267.8281,327.5 268.4531,327.2969 Q268.8125,327.1875 269.2188,326.8281 Q269.4844,326.625 269.625,326.5625 Q269.7656,326.5 269.9375,326.5 Q270.2656,326.5 270.5,326.7656 Q270.75,327.0156 270.75,327.375 Q270.75,327.7188 270.4063,328.125 Q269.9063,328.7188 269.1094,329.0469 Q268.0625,329.5 266.7813,329.5 Q265.2813,329.5 264.0781,328.9063 Q263.1094,328.4375 262.4219,327.4219 Q261.75,326.4063 261.75,325.2031 L261.75,324.1094 Q261.75,322.8594 262.3438,321.7656 Q262.9531,320.6719 264,320.0938 Q265.0625,319.5 266.25,319.5 Q266.9688,319.5 267.5938,319.75 Q268.2188,320 268.75,320.5 Z " fill="#000000"/><text fill="#000000" font-family="sans-serif" font-size="12" lengthAdjust="spacing" textLength="53" x="287.25" y="328.9102">Company</text><line style="stroke:#A80036;stroke-width:1.5;" x1="160" x2="435" y1="340" y2="340"/><line style="stroke:#A80036;stroke-width:1.5;" x1="160" x2="435" y1="348" y2="348"/><ellipse cx="170" cy="359" fill="#84BE84" rx="3" ry="3" style="stroke:#038048;stroke-width:1.0;"/><text fill="#000000" font-family="sans-serif" font-size="11" lengthAdjust="spacing" textLength="251" x="179" y="363.4189">createVaccinationCenter(VaccinationCenterDto dto)</text><ellipse cx="170" cy="372.8359" fill="#84BE84" rx="3" ry="3" style="stroke:#038048;stroke-width:1.0;"/><text fill="#000000" font-family="sans-serif" font-size="11" lengthAdjust="spacing" textLength="244" x="179" y="377.2549">saveVaccinationCenter(VaccinationCenterDto dto)</text><!--MD5=[de60e6d4f424ae4d0522096f76a59010]
class VaccinationCenter--><rect codeLine="9" fill="#FEFECE" filter="url(#f2atqcq4yqyu2)" height="186.3594" id="VaccinationCenter" style="stroke:#A80036;stroke-width:1.5;" width="132" x="522.5" y="253"/><ellipse cx="537.5" cy="269" fill="#ADD1B2" rx="11" ry="11" style="stroke:#A80036;stroke-width:1.0;"/><path d="M539.5,265.5 Q539.7031,265 539.9375,264.75 Q540.1719,264.5 540.4375,264.5 Q540.9063,264.5 541.2031,264.7813 Q541.5,265.0625 541.5,265.7188 L541.5,267.2813 Q541.5,267.9375 541.2188,268.2188 Q540.9375,268.5 540.5,268.5 Q540.1094,268.5 539.8594,268.3281 Q539.6094,268.1563 539.5,267.7031 Q539.4531,267.3906 539.2813,267.2188 Q538.9688,266.8906 538.4063,266.7031 Q537.8438,266.5 537.2813,266.5 Q536.5781,266.5 535.9844,266.7813 Q535.4063,267.0625 534.9531,267.6875 Q534.5,268.3125 534.5,269.1719 L534.5,270.0938 Q534.5,271.125 535.3438,271.8125 Q536.1875,272.5 537.6875,272.5 Q538.5781,272.5 539.2031,272.2969 Q539.5625,272.1875 539.9688,271.8281 Q540.2344,271.625 540.375,271.5625 Q540.5156,271.5 540.6875,271.5 Q541.0156,271.5 541.25,271.7656 Q541.5,272.0156 541.5,272.375 Q541.5,272.7188 541.1563,273.125 Q540.6563,273.7188 539.8594,274.0469 Q538.8125,274.5 537.5313,274.5 Q536.0313,274.5 534.8281,273.9063 Q533.8594,273.4375 533.1719,272.4219 Q532.5,271.4063 532.5,270.2031 L532.5,269.1094 Q532.5,267.8594 533.0938,266.7656 Q533.7031,265.6719 534.75,265.0938 Q535.8125,264.5 537,264.5 Q537.7188,264.5 538.3438,264.75 Q538.9688,265 539.5,265.5 Z " fill="#000000"/><text fill="#000000" font-family="sans-serif" font-size="12" lengthAdjust="spacing" textLength="100" x="551.5" y="273.9102">VaccinationCenter</text><line style="stroke:#A80036;stroke-width:1.5;" x1="523.5" x2="653.5" y1="285" y2="285"/><rect fill="none" height="6" style="stroke:#C82930;stroke-width:1.0;" width="6" x="530.5" y="293"/><text fill="#000000" font-family="sans-serif" font-size="11" lengthAdjust="spacing" textLength="23" x="542.5" y="300.4189">intID;</text><rect fill="none" height="6" style="stroke:#C82930;stroke-width:1.0;" width="6" x="530.5" y="306.8359"/><text fill="#000000" font-family="sans-serif" font-size="11" lengthAdjust="spacing" textLength="43" x="542.5" y="314.2549">strName;</text><rect fill="none" height="6" style="stroke:#C82930;stroke-width:1.0;" width="6" x="530.5" y="320.6719"/><text fill="#000000" font-family="sans-serif" font-size="11" lengthAdjust="spacing" textLength="83" x="542.5" y="328.0908">strPhoneNumber;</text><rect fill="none" height="6" style="stroke:#C82930;stroke-width:1.0;" width="6" x="530.5" y="334.5078"/><text fill="#000000" font-family="sans-serif" font-size="11" lengthAdjust="spacing" textLength="40" x="542.5" y="341.9268">strEmail;</text><rect fill="none" height="6" style="stroke:#C82930;stroke-width:1.0;" width="6" x="530.5" y="348.3438"/><text fill="#000000" font-family="sans-serif" font-size="11" lengthAdjust="spacing" textLength="34" x="542.5" y="355.7627">strFax;</text><rect fill="none" height="6" style="stroke:#C82930;stroke-width:1.0;" width="6" x="530.5" y="362.1797"/><text fill="#000000" font-family="sans-serif" font-size="11" lengthAdjust="spacing" textLength="55" x="542.5" y="369.5986">strWebsite;</text><rect fill="none" height="6" style="stroke:#C82930;stroke-width:1.0;" width="6" x="530.5" y="376.0156"/><text fill="#000000" font-family="sans-serif" font-size="11" lengthAdjust="spacing" textLength="79" x="542.5" y="383.4346">strOpeningHour;</text><rect fill="none" height="6" style="stroke:#C82930;stroke-width:1.0;" width="6" x="530.5" y="389.8516"/><text fill="#000000" font-family="sans-serif" font-size="11" lengthAdjust="spacing" textLength="74" x="542.5" y="397.2705">strClosingHour;</text><rect fill="none" height="6" style="stroke:#C82930;stroke-width:1.0;" width="6" x="530.5" y="403.6875"/><text fill="#000000" font-family="sans-serif" font-size="11" lengthAdjust="spacing" textLength="74" x="542.5" y="411.1064">strSlotDuration;</text><rect fill="none" height="6" style="stroke:#C82930;stroke-width:1.0;" width="6" x="530.5" y="417.5234"/><text fill="#000000" font-family="sans-serif" font-size="11" lengthAdjust="spacing" textLength="96" x="542.5" y="424.9424">strVaccinesPerSlot;</text><line style="stroke:#A80036;stroke-width:1.5;" x1="523.5" x2="653.5" y1="431.3594" y2="431.3594"/><!--MD5=[2d935fd2dd068a13da1ae531f9857c4f]
class CenterCoordinator--><rect codeLine="22" fill="#FEFECE" filter="url(#f2atqcq4yqyu2)" height="48" id="CenterCoordinator" style="stroke:#A80036;stroke-width:1.5;" width="134" x="98.5" y="531"/><ellipse cx="113.5" cy="547" fill="#ADD1B2" rx="11" ry="11" style="stroke:#A80036;stroke-width:1.0;"/><path d="M115.5,543.5 Q115.7031,543 115.9375,542.75 Q116.1719,542.5 116.4375,542.5 Q116.9063,542.5 117.2031,542.7813 Q117.5,543.0625 117.5,543.7188 L117.5,545.2813 Q117.5,545.9375 117.2188,546.2188 Q116.9375,546.5 116.5,546.5 Q116.1094,546.5 115.8594,546.3281 Q115.6094,546.1563 115.5,545.7031 Q115.4531,545.3906 115.2813,545.2188 Q114.9688,544.8906 114.4063,544.7031 Q113.8438,544.5 113.2813,544.5 Q112.5781,544.5 111.9844,544.7813 Q111.4063,545.0625 110.9531,545.6875 Q110.5,546.3125 110.5,547.1719 L110.5,548.0938 Q110.5,549.125 111.3438,549.8125 Q112.1875,550.5 113.6875,550.5 Q114.5781,550.5 115.2031,550.2969 Q115.5625,550.1875 115.9688,549.8281 Q116.2344,549.625 116.375,549.5625 Q116.5156,549.5 116.6875,549.5 Q117.0156,549.5 117.25,549.7656 Q117.5,550.0156 117.5,550.375 Q117.5,550.7188 117.1563,551.125 Q116.6563,551.7188 115.8594,552.0469 Q114.8125,552.5 113.5313,552.5 Q112.0313,552.5 110.8281,551.9063 Q109.8594,551.4375 109.1719,550.4219 Q108.5,549.4063 108.5,548.2031 L108.5,547.1094 Q108.5,545.8594 109.0938,544.7656 Q109.7031,543.6719 110.75,543.0938 Q111.8125,542.5 113,542.5 Q113.7188,542.5 114.3438,542.75 Q114.9688,543 115.5,543.5 Z " fill="#000000"/><text fill="#000000" font-family="sans-serif" font-size="12" lengthAdjust="spacing" textLength="102" x="127.5" y="551.9102">CenterCoordinator</text><line style="stroke:#A80036;stroke-width:1.5;" x1="99.5" x2="231.5" y1="563" y2="563"/><line style="stroke:#A80036;stroke-width:1.5;" x1="99.5" x2="231.5" y1="571" y2="571"/><!--MD5=[0e501da62322464167c8ec4d233a6b7e]
class VaccineType--><rect codeLine="26" fill="#FEFECE" filter="url(#f2atqcq4yqyu2)" height="89.5078" id="VaccineType" style="stroke:#A80036;stroke-width:1.5;" width="120" x="527.5" y="671"/><ellipse cx="551.05" cy="687" fill="#ADD1B2" rx="11" ry="11" style="stroke:#A80036;stroke-width:1.0;"/><path d="M553.05,683.5 Q553.2531,683 553.4875,682.75 Q553.7219,682.5 553.9875,682.5 Q554.4563,682.5 554.7531,682.7813 Q555.05,683.0625 555.05,683.7188 L555.05,685.2813 Q555.05,685.9375 554.7688,686.2188 Q554.4875,686.5 554.05,686.5 Q553.6594,686.5 553.4094,686.3281 Q553.1594,686.1563 553.05,685.7031 Q553.0031,685.3906 552.8313,685.2188 Q552.5188,684.8906 551.9563,684.7031 Q551.3938,684.5 550.8313,684.5 Q550.1281,684.5 549.5344,684.7813 Q548.9563,685.0625 548.5031,685.6875 Q548.05,686.3125 548.05,687.1719 L548.05,688.0938 Q548.05,689.125 548.8938,689.8125 Q549.7375,690.5 551.2375,690.5 Q552.1281,690.5 552.7531,690.2969 Q553.1125,690.1875 553.5188,689.8281 Q553.7844,689.625 553.925,689.5625 Q554.0656,689.5 554.2375,689.5 Q554.5656,689.5 554.8,689.7656 Q555.05,690.0156 555.05,690.375 Q555.05,690.7188 554.7063,691.125 Q554.2063,691.7188 553.4094,692.0469 Q552.3625,692.5 551.0813,692.5 Q549.5813,692.5 548.3781,691.9063 Q547.4094,691.4375 546.7219,690.4219 Q546.05,689.4063 546.05,688.2031 L546.05,687.1094 Q546.05,685.8594 546.6438,684.7656 Q547.2531,683.6719 548.3,683.0938 Q549.3625,682.5 550.55,682.5 Q551.2688,682.5 551.8938,682.75 Q552.5188,683 553.05,683.5 Z " fill="#000000"/><text fill="#000000" font-family="sans-serif" font-size="12" lengthAdjust="spacing" textLength="69" x="566.95" y="691.9102">VaccineType</text><line style="stroke:#A80036;stroke-width:1.5;" x1="528.5" x2="646.5" y1="703" y2="703"/><rect fill="none" height="6" style="stroke:#C82930;stroke-width:1.0;" width="6" x="535.5" y="711"/><text fill="#000000" font-family="sans-serif" font-size="11" lengthAdjust="spacing" textLength="53" x="547.5" y="718.4189">description</text><rect fill="none" height="6" style="stroke:#C82930;stroke-width:1.0;" width="6" x="535.5" y="724.8359"/><text fill="#000000" font-family="sans-serif" font-size="11" lengthAdjust="spacing" textLength="24" x="547.5" y="732.2549">code</text><rect fill="none" height="6" style="stroke:#C82930;stroke-width:1.0;" width="6" x="535.5" y="738.6719"/><text fill="#000000" font-family="sans-serif" font-size="11" lengthAdjust="spacing" textLength="94" x="547.5" y="746.0908">vaccineTechnology</text><line style="stroke:#A80036;stroke-width:1.5;" x1="528.5" x2="646.5" y1="752.5078" y2="752.5078"/><!--MD5=[19e445fc4d3b48519cbe33da05496394]
class Vaccine--><rect codeLine="32" fill="#FEFECE" filter="url(#f2atqcq4yqyu2)" height="61.8359" id="Vaccine" style="stroke:#A80036;stroke-width:1.5;" width="75" x="550" y="839"/><ellipse cx="565" cy="855" fill="#ADD1B2" rx="11" ry="11" style="stroke:#A80036;stroke-width:1.0;"/><path d="M567,851.5 Q567.2031,851 567.4375,850.75 Q567.6719,850.5 567.9375,850.5 Q568.4063,850.5 568.7031,850.7813 Q569,851.0625 569,851.7188 L569,853.2813 Q569,853.9375 568.7188,854.2188 Q568.4375,854.5 568,854.5 Q567.6094,854.5 567.3594,854.3281 Q567.1094,854.1563 567,853.7031 Q566.9531,853.3906 566.7813,853.2188 Q566.4688,852.8906 565.9063,852.7031 Q565.3438,852.5 564.7813,852.5 Q564.0781,852.5 563.4844,852.7813 Q562.9063,853.0625 562.4531,853.6875 Q562,854.3125 562,855.1719 L562,856.0938 Q562,857.125 562.8438,857.8125 Q563.6875,858.5 565.1875,858.5 Q566.0781,858.5 566.7031,858.2969 Q567.0625,858.1875 567.4688,857.8281 Q567.7344,857.625 567.875,857.5625 Q568.0156,857.5 568.1875,857.5 Q568.5156,857.5 568.75,857.7656 Q569,858.0156 569,858.375 Q569,858.7188 568.6563,859.125 Q568.1563,859.7188 567.3594,860.0469 Q566.3125,860.5 565.0313,860.5 Q563.5313,860.5 562.3281,859.9063 Q561.3594,859.4375 560.6719,858.4219 Q560,857.4063 560,856.2031 L560,855.1094 Q560,853.8594 560.5938,852.7656 Q561.2031,851.6719 562.25,851.0938 Q563.3125,850.5 564.5,850.5 Q565.2188,850.5 565.8438,850.75 Q566.4688,851 567,851.5 Z " fill="#000000"/><text fill="#000000" font-family="sans-serif" font-size="12" lengthAdjust="spacing" textLength="43" x="579" y="859.9102">Vaccine</text><line style="stroke:#A80036;stroke-width:1.5;" x1="551" x2="624" y1="871" y2="871"/><rect fill="none" height="6" style="stroke:#C82930;stroke-width:1.0;" width="6" x="558" y="879"/><text fill="#000000" font-family="sans-serif" font-size="11" lengthAdjust="spacing" textLength="28" x="570" y="886.4189">brand</text><line style="stroke:#A80036;stroke-width:1.5;" x1="551" x2="624" y1="892.8359" y2="892.8359"/><!--MD5=[7421f545a0d8420c5bec41e74b387d9c]
class Employee--><rect codeLine="36" fill="#FEFECE" filter="url(#f2atqcq4yqyu2)" height="144.8516" id="Employee" style="stroke:#A80036;stroke-width:1.5;" width="117" x="7" y="273.5"/><ellipse cx="35.5" cy="289.5" fill="#ADD1B2" rx="11" ry="11" style="stroke:#A80036;stroke-width:1.0;"/><path d="M37.5,286 Q37.7031,285.5 37.9375,285.25 Q38.1719,285 38.4375,285 Q38.9063,285 39.2031,285.2813 Q39.5,285.5625 39.5,286.2188 L39.5,287.7813 Q39.5,288.4375 39.2188,288.7188 Q38.9375,289 38.5,289 Q38.1094,289 37.8594,288.8281 Q37.6094,288.6563 37.5,288.2031 Q37.4531,287.8906 37.2813,287.7188 Q36.9688,287.3906 36.4063,287.2031 Q35.8438,287 35.2813,287 Q34.5781,287 33.9844,287.2813 Q33.4063,287.5625 32.9531,288.1875 Q32.5,288.8125 32.5,289.6719 L32.5,290.5938 Q32.5,291.625 33.3438,292.3125 Q34.1875,293 35.6875,293 Q36.5781,293 37.2031,292.7969 Q37.5625,292.6875 37.9688,292.3281 Q38.2344,292.125 38.375,292.0625 Q38.5156,292 38.6875,292 Q39.0156,292 39.25,292.2656 Q39.5,292.5156 39.5,292.875 Q39.5,293.2188 39.1563,293.625 Q38.6563,294.2188 37.8594,294.5469 Q36.8125,295 35.5313,295 Q34.0313,295 32.8281,294.4063 Q31.8594,293.9375 31.1719,292.9219 Q30.5,291.9063 30.5,290.7031 L30.5,289.6094 Q30.5,288.3594 31.0938,287.2656 Q31.7031,286.1719 32.75,285.5938 Q33.8125,285 35,285 Q35.7188,285 36.3438,285.25 Q36.9688,285.5 37.5,286 Z " fill="#000000"/><text fill="#000000" font-family="sans-serif" font-size="12" lengthAdjust="spacing" textLength="55" x="52.5" y="294.4102">Employee</text><line style="stroke:#A80036;stroke-width:1.5;" x1="8" x2="123" y1="305.5" y2="305.5"/><rect fill="none" height="6" style="stroke:#C82930;stroke-width:1.0;" width="6" x="15" y="313.5"/><text fill="#000000" font-family="sans-serif" font-size="11" lengthAdjust="spacing" textLength="8" x="27" y="320.9189">id</text><rect fill="none" height="6" style="stroke:#C82930;stroke-width:1.0;" width="6" x="15" y="327.3359"/><text fill="#000000" font-family="sans-serif" font-size="11" lengthAdjust="spacing" textLength="26" x="27" y="334.7549">name</text><rect fill="none" height="6" style="stroke:#C82930;stroke-width:1.0;" width="6" x="15" y="341.1719"/><text fill="#000000" font-family="sans-serif" font-size="11" lengthAdjust="spacing" textLength="40" x="27" y="348.5908">address</text><rect fill="none" height="6" style="stroke:#C82930;stroke-width:1.0;" width="6" x="15" y="355.0078"/><text fill="#000000" font-family="sans-serif" font-size="11" lengthAdjust="spacing" textLength="67" x="27" y="362.4268">phoneNumber</text><rect fill="none" height="6" style="stroke:#C82930;stroke-width:1.0;" width="6" x="15" y="368.8438"/><text fill="#000000" font-family="sans-serif" font-size="11" lengthAdjust="spacing" textLength="24" x="27" y="376.2627">email</text><rect fill="none" height="6" style="stroke:#C82930;stroke-width:1.0;" width="6" x="15" y="382.6797"/><text fill="#000000" font-family="sans-serif" font-size="11" lengthAdjust="spacing" textLength="91" x="27" y="390.0986">citizenCardNumber</text><rect fill="none" height="6" style="stroke:#C82930;stroke-width:1.0;" width="6" x="15" y="396.5156"/><text fill="#000000" font-family="sans-serif" font-size="11" lengthAdjust="spacing" textLength="50" x="27" y="403.9346">password</text><line style="stroke:#A80036;stroke-width:1.5;" x1="8" x2="123" y1="410.3516" y2="410.3516"/><!--MD5=[0f39e4cb6f03951afbf6d14bd2505654]
class Address--><rect codeLine="46" fill="#FEFECE" filter="url(#f2atqcq4yqyu2)" height="89.5078" id="Address" style="stroke:#A80036;stroke-width:1.5;" width="79" x="756" y="301"/><ellipse cx="771.45" cy="317" fill="#ADD1B2" rx="11" ry="11" style="stroke:#A80036;stroke-width:1.0;"/><path d="M773.45,313.5 Q773.6531,313 773.8875,312.75 Q774.1219,312.5 774.3875,312.5 Q774.8563,312.5 775.1531,312.7813 Q775.45,313.0625 775.45,313.7188 L775.45,315.2813 Q775.45,315.9375 775.1688,316.2188 Q774.8875,316.5 774.45,316.5 Q774.0594,316.5 773.8094,316.3281 Q773.5594,316.1563 773.45,315.7031 Q773.4031,315.3906 773.2313,315.2188 Q772.9188,314.8906 772.3563,314.7031 Q771.7938,314.5 771.2313,314.5 Q770.5281,314.5 769.9344,314.7813 Q769.3563,315.0625 768.9031,315.6875 Q768.45,316.3125 768.45,317.1719 L768.45,318.0938 Q768.45,319.125 769.2938,319.8125 Q770.1375,320.5 771.6375,320.5 Q772.5281,320.5 773.1531,320.2969 Q773.5125,320.1875 773.9188,319.8281 Q774.1844,319.625 774.325,319.5625 Q774.4656,319.5 774.6375,319.5 Q774.9656,319.5 775.2,319.7656 Q775.45,320.0156 775.45,320.375 Q775.45,320.7188 775.1063,321.125 Q774.6063,321.7188 773.8094,322.0469 Q772.7625,322.5 771.4813,322.5 Q769.9813,322.5 768.7781,321.9063 Q767.8094,321.4375 767.1219,320.4219 Q766.45,319.4063 766.45,318.2031 L766.45,317.1094 Q766.45,315.8594 767.0438,314.7656 Q767.6531,313.6719 768.7,313.0938 Q769.7625,312.5 770.95,312.5 Q771.6688,312.5 772.2938,312.75 Q772.9188,313 773.45,313.5 Z " fill="#000000"/><text fill="#000000" font-family="sans-serif" font-size="12" lengthAdjust="spacing" textLength="46" x="785.55" y="321.9102">Address</text><line style="stroke:#A80036;stroke-width:1.5;" x1="757" x2="834" y1="333" y2="333"/><rect fill="none" height="6" style="stroke:#C82930;stroke-width:1.0;" width="6" x="764" y="341"/><text fill="#000000" font-family="sans-serif" font-size="11" lengthAdjust="spacing" textLength="38" x="776" y="348.4189">strRoad</text><rect fill="none" height="6" style="stroke:#C82930;stroke-width:1.0;" width="6" x="764" y="354.8359"/><text fill="#000000" font-family="sans-serif" font-size="11" lengthAdjust="spacing" textLength="53" x="776" y="362.2549">strZipCode</text><rect fill="none" height="6" style="stroke:#C82930;stroke-width:1.0;" width="6" x="764" y="368.6719"/><text fill="#000000" font-family="sans-serif" font-size="11" lengthAdjust="spacing" textLength="39" x="776" y="376.0908">strLocal</text><line style="stroke:#A80036;stroke-width:1.5;" x1="757" x2="834" y1="382.5078" y2="382.5078"/><!--MD5=[76480a6701b5d2883bc606a2560c3cfe]
class MassVaccinationCenter--><rect codeLine="52" fill="#FEFECE" filter="url(#f2atqcq4yqyu2)" height="48" id="MassVaccinationCenter" style="stroke:#A80036;stroke-width:1.5;" width="162" x="416.5" y="531"/><ellipse cx="431.5" cy="547" fill="#ADD1B2" rx="11" ry="11" style="stroke:#A80036;stroke-width:1.0;"/><path d="M433.5,543.5 Q433.7031,543 433.9375,542.75 Q434.1719,542.5 434.4375,542.5 Q434.9063,542.5 435.2031,542.7813 Q435.5,543.0625 435.5,543.7188 L435.5,545.2813 Q435.5,545.9375 435.2188,546.2188 Q434.9375,546.5 434.5,546.5 Q434.1094,546.5 433.8594,546.3281 Q433.6094,546.1563 433.5,545.7031 Q433.4531,545.3906 433.2813,545.2188 Q432.9688,544.8906 432.4063,544.7031 Q431.8438,544.5 431.2813,544.5 Q430.5781,544.5 429.9844,544.7813 Q429.4063,545.0625 428.9531,545.6875 Q428.5,546.3125 428.5,547.1719 L428.5,548.0938 Q428.5,549.125 429.3438,549.8125 Q430.1875,550.5 431.6875,550.5 Q432.5781,550.5 433.2031,550.2969 Q433.5625,550.1875 433.9688,549.8281 Q434.2344,549.625 434.375,549.5625 Q434.5156,549.5 434.6875,549.5 Q435.0156,549.5 435.25,549.7656 Q435.5,550.0156 435.5,550.375 Q435.5,550.7188 435.1563,551.125 Q434.6563,551.7188 433.8594,552.0469 Q432.8125,552.5 431.5313,552.5 Q430.0313,552.5 428.8281,551.9063 Q427.8594,551.4375 427.1719,550.4219 Q426.5,549.4063 426.5,548.2031 L426.5,547.1094 Q426.5,545.8594 427.0938,544.7656 Q427.7031,543.6719 428.75,543.0938 Q429.8125,542.5 431,542.5 Q431.7188,542.5 432.3438,542.75 Q432.9688,543 433.5,543.5 Z " fill="#000000"/><text fill="#000000" font-family="sans-serif" font-size="12" lengthAdjust="spacing" textLength="130" x="445.5" y="551.9102">MassVaccinationCenter</text><line style="stroke:#A80036;stroke-width:1.5;" x1="417.5" x2="577.5" y1="563" y2="563"/><line style="stroke:#A80036;stroke-width:1.5;" x1="417.5" x2="577.5" y1="571" y2="571"/><!--MD5=[0b1ce5251ebf137e6b3550dd84e6af65]
class HealthcareCenter--><rect codeLine="55" fill="#FEFECE" filter="url(#f2atqcq4yqyu2)" height="75.6719" id="HealthcareCenter" style="stroke:#A80036;stroke-width:1.5;" width="129" x="614" y="517"/><ellipse cx="629" cy="533" fill="#ADD1B2" rx="11" ry="11" style="stroke:#A80036;stroke-width:1.0;"/><path d="M631,529.5 Q631.2031,529 631.4375,528.75 Q631.6719,528.5 631.9375,528.5 Q632.4063,528.5 632.7031,528.7813 Q633,529.0625 633,529.7188 L633,531.2813 Q633,531.9375 632.7188,532.2188 Q632.4375,532.5 632,532.5 Q631.6094,532.5 631.3594,532.3281 Q631.1094,532.1563 631,531.7031 Q630.9531,531.3906 630.7813,531.2188 Q630.4688,530.8906 629.9063,530.7031 Q629.3438,530.5 628.7813,530.5 Q628.0781,530.5 627.4844,530.7813 Q626.9063,531.0625 626.4531,531.6875 Q626,532.3125 626,533.1719 L626,534.0938 Q626,535.125 626.8438,535.8125 Q627.6875,536.5 629.1875,536.5 Q630.0781,536.5 630.7031,536.2969 Q631.0625,536.1875 631.4688,535.8281 Q631.7344,535.625 631.875,535.5625 Q632.0156,535.5 632.1875,535.5 Q632.5156,535.5 632.75,535.7656 Q633,536.0156 633,536.375 Q633,536.7188 632.6563,537.125 Q632.1563,537.7188 631.3594,538.0469 Q630.3125,538.5 629.0313,538.5 Q627.5313,538.5 626.3281,537.9063 Q625.3594,537.4375 624.6719,536.4219 Q624,535.4063 624,534.2031 L624,533.1094 Q624,531.8594 624.5938,530.7656 Q625.2031,529.6719 626.25,529.0938 Q627.3125,528.5 628.5,528.5 Q629.2188,528.5 629.8438,528.75 Q630.4688,529 631,529.5 Z " fill="#000000"/><text fill="#000000" font-family="sans-serif" font-size="12" lengthAdjust="spacing" textLength="97" x="643" y="537.9102">HealthcareCenter</text><line style="stroke:#A80036;stroke-width:1.5;" x1="615" x2="742" y1="549" y2="549"/><rect fill="none" height="6" style="stroke:#C82930;stroke-width:1.0;" width="6" x="622" y="557"/><text fill="#000000" font-family="sans-serif" font-size="11" lengthAdjust="spacing" textLength="38" x="634" y="564.4189">strARS;</text><rect fill="none" height="6" style="stroke:#C82930;stroke-width:1.0;" width="6" x="622" y="570.8359"/><text fill="#000000" font-family="sans-serif" font-size="11" lengthAdjust="spacing" textLength="45" x="634" y="578.2549">strAGES;</text><line style="stroke:#A80036;stroke-width:1.5;" x1="615" x2="742" y1="584.6719" y2="584.6719"/><!--MD5=[b7442edae8257d344c53a2c307fd2012]
class CreateNewVaccinationCenterUI--><rect codeLine="60" fill="#FEFECE" filter="url(#f2atqcq4yqyu2)" height="48" id="CreateNewVaccinationCenterUI" style="stroke:#A80036;stroke-width:1.5;" width="206" x="339.5" y="7"/><ellipse cx="354.5" cy="23" fill="#ADD1B2" rx="11" ry="11" style="stroke:#A80036;stroke-width:1.0;"/><path d="M356.5,19.5 Q356.7031,19 356.9375,18.75 Q357.1719,18.5 357.4375,18.5 Q357.9063,18.5 358.2031,18.7813 Q358.5,19.0625 358.5,19.7188 L358.5,21.2813 Q358.5,21.9375 358.2188,22.2188 Q357.9375,22.5 357.5,22.5 Q357.1094,22.5 356.8594,22.3281 Q356.6094,22.1563 356.5,21.7031 Q356.4531,21.3906 356.2813,21.2188 Q355.9688,20.8906 355.4063,20.7031 Q354.8438,20.5 354.2813,20.5 Q353.5781,20.5 352.9844,20.7813 Q352.4063,21.0625 351.9531,21.6875 Q351.5,22.3125 351.5,23.1719 L351.5,24.0938 Q351.5,25.125 352.3438,25.8125 Q353.1875,26.5 354.6875,26.5 Q355.5781,26.5 356.2031,26.2969 Q356.5625,26.1875 356.9688,25.8281 Q357.2344,25.625 357.375,25.5625 Q357.5156,25.5 357.6875,25.5 Q358.0156,25.5 358.25,25.7656 Q358.5,26.0156 358.5,26.375 Q358.5,26.7188 358.1563,27.125 Q357.6563,27.7188 356.8594,28.0469 Q355.8125,28.5 354.5313,28.5 Q353.0313,28.5 351.8281,27.9063 Q350.8594,27.4375 350.1719,26.4219 Q349.5,25.4063 349.5,24.2031 L349.5,23.1094 Q349.5,21.8594 350.0938,20.7656 Q350.7031,19.6719 351.75,19.0938 Q352.8125,18.5 354,18.5 Q354.7188,18.5 355.3438,18.75 Q355.9688,19 356.5,19.5 Z " fill="#000000"/><text fill="#000000" font-family="sans-serif" font-size="12" lengthAdjust="spacing" textLength="174" x="368.5" y="27.9102">CreateNewVaccinationCenterUI</text><line style="stroke:#A80036;stroke-width:1.5;" x1="340.5" x2="544.5" y1="39" y2="39"/><line style="stroke:#A80036;stroke-width:1.5;" x1="340.5" x2="544.5" y1="47" y2="47"/><!--MD5=[bc8a794e0bae9c4c449c5bd01ac9fd85]
class CreateNewVaccinationCenterController--><rect codeLine="62" fill="#FEFECE" filter="url(#f2atqcq4yqyu2)" height="75.6719" id="CreateNewVaccinationCenterController" style="stroke:#A80036;stroke-width:1.5;" width="277" x="304" y="116"/><ellipse cx="332.05" cy="132" fill="#ADD1B2" rx="11" ry="11" style="stroke:#A80036;stroke-width:1.0;"/><path d="M334.05,128.5 Q334.2531,128 334.4875,127.75 Q334.7219,127.5 334.9875,127.5 Q335.4563,127.5 335.7531,127.7813 Q336.05,128.0625 336.05,128.7188 L336.05,130.2813 Q336.05,130.9375 335.7688,131.2188 Q335.4875,131.5 335.05,131.5 Q334.6594,131.5 334.4094,131.3281 Q334.1594,131.1563 334.05,130.7031 Q334.0031,130.3906 333.8313,130.2188 Q333.5188,129.8906 332.9563,129.7031 Q332.3938,129.5 331.8313,129.5 Q331.1281,129.5 330.5344,129.7813 Q329.9563,130.0625 329.5031,130.6875 Q329.05,131.3125 329.05,132.1719 L329.05,133.0938 Q329.05,134.125 329.8938,134.8125 Q330.7375,135.5 332.2375,135.5 Q333.1281,135.5 333.7531,135.2969 Q334.1125,135.1875 334.5188,134.8281 Q334.7844,134.625 334.925,134.5625 Q335.0656,134.5 335.2375,134.5 Q335.5656,134.5 335.8,134.7656 Q336.05,135.0156 336.05,135.375 Q336.05,135.7188 335.7063,136.125 Q335.2063,136.7188 334.4094,137.0469 Q333.3625,137.5 332.0813,137.5 Q330.5813,137.5 329.3781,136.9063 Q328.4094,136.4375 327.7219,135.4219 Q327.05,134.4063 327.05,133.2031 L327.05,132.1094 Q327.05,130.8594 327.6438,129.7656 Q328.2531,128.6719 329.3,128.0938 Q330.3625,127.5 331.55,127.5 Q332.2688,127.5 332.8938,127.75 Q333.5188,128 334.05,128.5 Z " fill="#000000"/><text fill="#000000" font-family="sans-serif" font-size="12" lengthAdjust="spacing" textLength="216" x="348.95" y="136.9102">CreateNewVaccinationCenterController</text><line style="stroke:#A80036;stroke-width:1.5;" x1="305" x2="580" y1="148" y2="148"/><line style="stroke:#A80036;stroke-width:1.5;" x1="305" x2="580" y1="156" y2="156"/><ellipse cx="315" cy="167" fill="#84BE84" rx="3" ry="3" style="stroke:#038048;stroke-width:1.0;"/><text fill="#000000" font-family="sans-serif" font-size="11" lengthAdjust="spacing" textLength="251" x="324" y="171.4189">createVaccinationCenter(VaccinationCenterDto dto)</text><ellipse cx="315" cy="180.8359" fill="#84BE84" rx="3" ry="3" style="stroke:#038048;stroke-width:1.0;"/><text fill="#000000" font-family="sans-serif" font-size="11" lengthAdjust="spacing" textLength="244" x="324" y="185.2549">saveVaccinationCenter(VaccinationCenterDto dto)</text><!--MD5=[c840c97a6fd6b6ead5f5490bc5a5dbf4]
link CreateNewVaccinationCenterUI to CreateNewVaccinationCenterController--><path codeLine="67" d="M442.5,55.04 C442.5,70.71 442.5,91.91 442.5,110.58 " fill="none" id="CreateNewVaccinationCenterUI-to-CreateNewVaccinationCenterController" style="stroke:#A80036;stroke-width:1.0;stroke-dasharray:7.0,7.0;"/><polygon fill="#A80036" points="442.5,115.77,446.5,106.77,442.5,110.77,438.5,106.77,442.5,115.77" style="stroke:#A80036;stroke-width:1.0;"/><!--MD5=[81bf9e6c6319f820f5df8a925d4a9a24]
link CreateNewVaccinationCenterController to Company--><path codeLine="68" d="M414.2,192.08 C389.73,224.15 354.39,270.46 329.02,303.7 " fill="none" id="CreateNewVaccinationCenterController-to-Company" style="stroke:#A80036;stroke-width:1.0;stroke-dasharray:7.0,7.0;"/><polygon fill="#A80036" points="325.98,307.68,334.6182,302.949,329.0119,303.7042,328.2568,298.0979,325.98,307.68" style="stroke:#A80036;stroke-width:1.0;"/><!--MD5=[eebe9b198877275d05dd12630ed9e401]
link Company to VaccinationCenter--><path codeLine="69" d="M436.18,346 C464.2,346 492.55,346 517.08,346 " fill="none" id="Company-to-VaccinationCenter" style="stroke:#A80036;stroke-width:1.0;"/><polygon fill="#A80036" points="522.25,346,513.25,342,517.25,346,513.25,350,522.25,346" style="stroke:#A80036;stroke-width:1.0;"/><text fill="#000000" font-family="sans-serif" font-size="13" lengthAdjust="spacing" textLength="50" x="454.25" y="339.4951">storages</text><text fill="#000000" font-family="sans-serif" font-size="13" lengthAdjust="spacing" textLength="7" x="443.9555" y="343.0762">1</text><text fill="#000000" font-family="sans-serif" font-size="13" lengthAdjust="spacing" textLength="5" x="509.3008" y="342.5697">*</text><!--MD5=[de34d9d1b0476900926df8e9fdc32a7b]
link CreateNewVaccinationCenterController to VaccinationCenter--><path codeLine="70" d="M471,192.08 C484.82,210.08 502.1,232.56 519.11,254.7 " fill="none" id="CreateNewVaccinationCenterController-to-VaccinationCenter" style="stroke:#A80036;stroke-width:1.0;stroke-dasharray:7.0,7.0;"/><polygon fill="#A80036" points="522.28,258.82,519.9431,249.2524,519.2232,254.8633,513.6123,254.1433,522.28,258.82" style="stroke:#A80036;stroke-width:1.0;"/><!--MD5=[8d58cf1c2119791001cf5144e9295faa]
link VaccinationCenter to CenterCoordinator--><path codeLine="71" d="M522.32,396.33 C500.97,411.08 476.79,426.61 453.5,439 C382.77,476.64 296.95,509.38 237.49,530.2 " fill="none" id="VaccinationCenter-to-CenterCoordinator" style="stroke:#A80036;stroke-width:1.0;"/><polygon fill="#A80036" points="232.53,531.92,242.345,532.7355,237.2515,530.2746,239.7124,525.1811,232.53,531.92" style="stroke:#A80036;stroke-width:1.0;"/><polygon fill="#000000" points="384.9749,480.3026,394.411,479.115,391.9108,473.7954,384.9749,480.3026" style="stroke:#000000;stroke-width:1.0;"/><text fill="#000000" font-family="sans-serif" font-size="13" lengthAdjust="spacing" textLength="21" x="398.5" y="483.4951">has</text><text fill="#000000" font-family="sans-serif" font-size="13" lengthAdjust="spacing" textLength="7" x="507.6988" y="398.4545">1</text><text fill="#000000" font-family="sans-serif" font-size="13" lengthAdjust="spacing" textLength="7" x="240.685" y="525.8418">1</text><!--MD5=[a09fc339ad85d4e67aa3195beeccb7d9]
reverse link VaccinationCenter to MassVaccinationCenter--><path codeLine="72" d="M539.87,457.62 C527.62,485.48 515.68,512.64 507.61,530.99 " fill="none" id="VaccinationCenter-backto-MassVaccinationCenter" style="stroke:#A80036;stroke-width:1.0;"/><polygon fill="none" points="533.47,454.79,547.92,439.3,546.28,460.43,533.47,454.79" style="stroke:#A80036;stroke-width:1.0;"/><!--MD5=[860a319d9f073c66a49856aa2bd7c3ed]
reverse link VaccinationCenter to HealthcareCenter--><path codeLine="73" d="M636.61,457.66 C645.9,479.02 655,499.96 662.34,516.84 " fill="none" id="VaccinationCenter-backto-HealthcareCenter" style="stroke:#A80036;stroke-width:1.0;"/><polygon fill="none" points="630.19,460.43,628.63,439.3,643.02,454.85,630.19,460.43" style="stroke:#A80036;stroke-width:1.0;"/><!--MD5=[98f7f3dc8d9719d04ad14614c4ea123f]
reverse link Employee to CenterCoordinator--><path codeLine="74" d="M108.91,436.86 C125.59,471.39 143.27,507.98 154.34,530.9 " fill="none" id="Employee-backto-CenterCoordinator" style="stroke:#A80036;stroke-width:1.0;"/><polygon fill="none" points="102.45,439.58,100.05,418.53,115.06,433.49,102.45,439.58" style="stroke:#A80036;stroke-width:1.0;"/><!--MD5=[233a09a91aa8c3856d31bdcfa7c5bcf8]
link VaccinationCenter to Address--><path codeLine="75" d="M654.57,346 C685.98,346 722.7,346 750.79,346 " fill="none" id="VaccinationCenter-to-Address" style="stroke:#A80036;stroke-width:1.0;"/><polygon fill="#A80036" points="755.93,346,746.93,342,750.93,346,746.93,350,755.93,346" style="stroke:#A80036;stroke-width:1.0;"/><text fill="#000000" font-family="sans-serif" font-size="13" lengthAdjust="spacing" textLength="65" x="672.75" y="339.4951">localized in</text><text fill="#000000" font-family="sans-serif" font-size="13" lengthAdjust="spacing" textLength="7" x="662.614" y="342.5697">1</text><text fill="#000000" font-family="sans-serif" font-size="13" lengthAdjust="spacing" textLength="7" x="740.989" y="342.0979">1</text><!--MD5=[621e86b706bec9720bc9ed1d445091d9]
link MassVaccinationCenter to VaccineType--><path codeLine="76" d="M510.59,579.12 C523.45,601.85 543.49,637.24 559.88,666.21 " fill="none" id="MassVaccinationCenter-to-VaccineType" style="stroke:#A80036;stroke-width:1.0;"/><polygon fill="#A80036" points="562.48,670.8,561.5295,660.9971,560.0178,666.4483,554.5667,664.9366,562.48,670.8" style="stroke:#A80036;stroke-width:1.0;"/><text fill="#000000" font-family="sans-serif" font-size="13" lengthAdjust="spacing" textLength="67" x="545.5" y="637.4951">administers</text><text fill="#000000" font-family="sans-serif" font-size="13" lengthAdjust="spacing" textLength="7" x="505.9276" y="600.4872">1</text><text fill="#000000" font-family="sans-serif" font-size="13" lengthAdjust="spacing" textLength="7" x="551.1129" y="660.2135">1</text><!--MD5=[fadf3c4cc459913b8138733d6e23cb41]
link HealthcareCenter to VaccineType--><path codeLine="77" d="M657.16,593.28 C644.65,615.14 628.71,643 615.23,666.55 " fill="none" id="HealthcareCenter-to-VaccineType" style="stroke:#A80036;stroke-width:1.0;"/><polygon fill="#A80036" points="612.74,670.9,620.6906,665.0873,615.2299,666.5641,613.7531,661.1034,612.74,670.9" style="stroke:#A80036;stroke-width:1.0;"/><text fill="#000000" font-family="sans-serif" font-size="13" lengthAdjust="spacing" textLength="67" x="638.5" y="637.4951">administers</text><text fill="#000000" font-family="sans-serif" font-size="13" lengthAdjust="spacing" textLength="7" x="646.2011" y="614.2052">1</text><text fill="#000000" font-family="sans-serif" font-size="13" lengthAdjust="spacing" textLength="5" x="611.3642" y="659.9995">*</text><!--MD5=[072864a2f2bb2188181fc5342039b9ed]
reverse link VaccineType to Vaccine--><path codeLine="78" d="M587.5,766.4 C587.5,790.26 587.5,818.12 587.5,838.79 " fill="none" id="VaccineType-backto-Vaccine" style="stroke:#A80036;stroke-width:1.0;"/><polygon fill="#A80036" points="587.5,761.37,583.5,770.37,587.5,766.37,591.5,770.37,587.5,761.37" style="stroke:#A80036;stroke-width:1.0;"/><polygon fill="#000000" points="592.5,795.1758,589.5611,804.2209,595.4389,804.2209,592.5,795.1758" style="stroke:#000000;stroke-width:1.0;"/><text fill="#000000" font-family="sans-serif" font-size="13" lengthAdjust="spacing" textLength="24" x="601.5" y="805.4951">is of</text><text fill="#000000" font-family="sans-serif" font-size="13" lengthAdjust="spacing" textLength="7" x="580.0297" y="782.0934">1</text><text fill="#000000" font-family="sans-serif" font-size="13" lengthAdjust="spacing" textLength="5" x="581.9844" y="828.2512">*</text><!--MD5=[41156c6cb6de5da27c55db7d6cf1c57d]
@startuml
'https://plantuml.com/class-diagram
'!pragma layout smetana

class Company {
+createVaccinationCenter(VaccinationCenterDto dto)
+saveVaccinationCenter(VaccinationCenterDto dto)
}

class VaccinationCenter {
-intID;
-strName;
-strPhoneNumber;
-strEmail;
-strFax;
-strWebsite;
-strOpeningHour;
-strClosingHour;
-strSlotDuration;
-strVaccinesPerSlot;
}

class CenterCoordinator{

}

class VaccineType{
-description
-code
-vaccineTechnology
}

class Vaccine{
-brand
}

class Employee{
-id
-name
-address
-phoneNumber
-email
-citizenCardNumber
-password
}

class Address{
-strRoad
-strZipCode
-strLocal
}

class MassVaccinationCenter{
}

class HealthcareCenter{
-strARS;
-strAGES;
}

class CreateNewVaccinationCenterUI

class CreateNewVaccinationCenterController{
+createVaccinationCenter(VaccinationCenterDto dto)
+saveVaccinationCenter(VaccinationCenterDto dto)
}

CreateNewVaccinationCenterUI ..> CreateNewVaccinationCenterController
CreateNewVaccinationCenterController ..> Company
Company "1" -> "*" VaccinationCenter : storages
CreateNewVaccinationCenterController ..> VaccinationCenter
VaccinationCenter "1" - -> "1" CenterCoordinator : has >
VaccinationCenter <|- - MassVaccinationCenter
VaccinationCenter <|- - HealthcareCenter
Employee <|- - CenterCoordinator
VaccinationCenter "1" -> "1" Address : localized in
MassVaccinationCenter "1" - -> "1" VaccineType: administers
HealthcareCenter "1" -down-> "*" VaccineType: administers
VaccineType "1" <-down- "*" Vaccine: is of <

@enduml

@startuml

class Company {
+createVaccinationCenter(VaccinationCenterDto dto)
+saveVaccinationCenter(VaccinationCenterDto dto)
}

class VaccinationCenter {
-intID;
-strName;
-strPhoneNumber;
-strEmail;
-strFax;
-strWebsite;
-strOpeningHour;
-strClosingHour;
-strSlotDuration;
-strVaccinesPerSlot;
}

class CenterCoordinator{

}

class VaccineType{
-description
-code
-vaccineTechnology
}

class Vaccine{
-brand
}

class Employee{
-id
-name
-address
-phoneNumber
-email
-citizenCardNumber
-password
}

class Address{
-strRoad
-strZipCode
-strLocal
}

class MassVaccinationCenter{
}

class HealthcareCenter{
-strARS;
-strAGES;
}

class CreateNewVaccinationCenterUI

class CreateNewVaccinationCenterController{
+createVaccinationCenter(VaccinationCenterDto dto)
+saveVaccinationCenter(VaccinationCenterDto dto)
}

CreateNewVaccinationCenterUI ..> CreateNewVaccinationCenterController
CreateNewVaccinationCenterController ..> Company
Company "1" -> "*" VaccinationCenter : storages
CreateNewVaccinationCenterController ..> VaccinationCenter
VaccinationCenter "1" - -> "1" CenterCoordinator : has >
VaccinationCenter <|- - MassVaccinationCenter
VaccinationCenter <|- - HealthcareCenter
Employee <|- - CenterCoordinator
VaccinationCenter "1" -> "1" Address : localized in
MassVaccinationCenter "1" - -> "1" VaccineType: administers
HealthcareCenter "1" -down-> "*" VaccineType: administers
VaccineType "1" <-down- "*" Vaccine: is of <

@enduml

PlantUML version 1.2022.1(Tue Feb 01 18:19:58 GMT 2022)
(GPL source distribution)
Java Runtime: OpenJDK Runtime Environment
JVM: OpenJDK 64-Bit Server VM
Default Encoding: Cp1252
Language: en
Country: US
--></g></svg>