<?xml version="1.0" encoding="UTF-8" standalone="no"?><svg xmlns="http://www.w3.org/2000/svg" xmlns:xlink="http://www.w3.org/1999/xlink" contentScriptType="application/ecmascript" contentStyleType="text/css" height="961px" preserveAspectRatio="none" style="width:560px;height:961px;background:#FFFFFF;" version="1.1" viewBox="0 0 560 961" width="560px" zoomAndPan="magnify"><defs><filter height="300%" id="f4o6ygnw5f8tq" width="300%" x="-1" y="-1"><feGaussianBlur result="blurOut" stdDeviation="2.0"/><feColorMatrix in="blurOut" result="blurOut2" type="matrix" values="0 0 0 0 0 0 0 0 0 0 0 0 0 0 0 0 0 0 .4 0"/><feOffset dx="4.0" dy="4.0" in="blurOut2" result="blurOut3"/><feBlend in="SourceGraphic" in2="blurOut3" mode="normal"/></filter></defs><g><!--MD5=[02e4b9b7573f1156f41e60aa5b4e25a4]
class Company--><rect codeLine="4" fill="#FEFECE" filter="url(#f4o6ygnw5f8tq)" height="48" id="Company" style="stroke:#A80036;stroke-width:1.5;" width="85" x="238.5" y="64"/><ellipse cx="253.5" cy="80" fill="#ADD1B2" rx="11" ry="11" style="stroke:#A80036;stroke-width:1.0;"/><path d="M255.5,76.5 Q255.7031,76 255.9375,75.75 Q256.1719,75.5 256.4375,75.5 Q256.9063,75.5 257.2031,75.7813 Q257.5,76.0625 257.5,76.7188 L257.5,78.2813 Q257.5,78.9375 257.2188,79.2188 Q256.9375,79.5 256.5,79.5 Q256.1094,79.5 255.8594,79.3281 Q255.6094,79.1563 255.5,78.7031 Q255.4531,78.3906 255.2813,78.2188 Q254.9688,77.8906 254.4063,77.7031 Q253.8438,77.5 253.2813,77.5 Q252.5781,77.5 251.9844,77.7813 Q251.4063,78.0625 250.9531,78.6875 Q250.5,79.3125 250.5,80.1719 L250.5,81.0938 Q250.5,82.125 251.3438,82.8125 Q252.1875,83.5 253.6875,83.5 Q254.5781,83.5 255.2031,83.2969 Q255.5625,83.1875 255.9688,82.8281 Q256.2344,82.625 256.375,82.5625 Q256.5156,82.5 256.6875,82.5 Q257.0156,82.5 257.25,82.7656 Q257.5,83.0156 257.5,83.375 Q257.5,83.7188 257.1563,84.125 Q256.6563,84.7188 255.8594,85.0469 Q254.8125,85.5 253.5313,85.5 Q252.0313,85.5 250.8281,84.9063 Q249.8594,84.4375 249.1719,83.4219 Q248.5,82.4063 248.5,81.2031 L248.5,80.1094 Q248.5,78.8594 249.0938,77.7656 Q249.7031,76.6719 250.75,76.0938 Q251.8125,75.5 253,75.5 Q253.7188,75.5 254.3438,75.75 Q254.9688,76 255.5,76.5 Z " fill="#000000"/><text fill="#000000" font-family="sans-serif" font-size="12" lengthAdjust="spacing" textLength="53" x="267.5" y="84.9102">Company</text><line style="stroke:#A80036;stroke-width:1.5;" x1="239.5" x2="322.5" y1="96" y2="96"/><line style="stroke:#A80036;stroke-width:1.5;" x1="239.5" x2="322.5" y1="104" y2="104"/><!--MD5=[0e501da62322464167c8ec4d233a6b7e]
class VaccineType--><rect codeLine="6" fill="#FEFECE" filter="url(#f4o6ygnw5f8tq)" height="97.0547" id="VaccineType" style="stroke:#A80036;stroke-width:1.5;" width="139" x="187.5" y="850"/><ellipse cx="219.6" cy="866" fill="#ADD1B2" rx="11" ry="11" style="stroke:#A80036;stroke-width:1.0;"/><path d="M221.6,862.5 Q221.8031,862 222.0375,861.75 Q222.2719,861.5 222.5375,861.5 Q223.0063,861.5 223.3031,861.7813 Q223.6,862.0625 223.6,862.7188 L223.6,864.2813 Q223.6,864.9375 223.3188,865.2188 Q223.0375,865.5 222.6,865.5 Q222.2094,865.5 221.9594,865.3281 Q221.7094,865.1563 221.6,864.7031 Q221.5531,864.3906 221.3813,864.2188 Q221.0688,863.8906 220.5063,863.7031 Q219.9438,863.5 219.3813,863.5 Q218.6781,863.5 218.0844,863.7813 Q217.5063,864.0625 217.0531,864.6875 Q216.6,865.3125 216.6,866.1719 L216.6,867.0938 Q216.6,868.125 217.4438,868.8125 Q218.2875,869.5 219.7875,869.5 Q220.6781,869.5 221.3031,869.2969 Q221.6625,869.1875 222.0688,868.8281 Q222.3344,868.625 222.475,868.5625 Q222.6156,868.5 222.7875,868.5 Q223.1156,868.5 223.35,868.7656 Q223.6,869.0156 223.6,869.375 Q223.6,869.7188 223.2563,870.125 Q222.7563,870.7188 221.9594,871.0469 Q220.9125,871.5 219.6313,871.5 Q218.1313,871.5 216.9281,870.9063 Q215.9594,870.4375 215.2719,869.4219 Q214.6,868.4063 214.6,867.2031 L214.6,866.1094 Q214.6,864.8594 215.1938,863.7656 Q215.8031,862.6719 216.85,862.0938 Q217.9125,861.5 219.1,861.5 Q219.8188,861.5 220.4438,861.75 Q221.0688,862 221.6,862.5 Z " fill="#000000"/><text fill="#000000" font-family="sans-serif" font-size="12" lengthAdjust="spacing" textLength="69" x="237.4" y="870.9102">VaccineType</text><line style="stroke:#A80036;stroke-width:1.5;" x1="188.5" x2="325.5" y1="882" y2="882"/><text fill="#000000" font-family="sans-serif" font-size="13" font-weight="bold" lengthAdjust="spacing" textLength="74" x="193.5" y="899.4951">-description</text><text fill="#000000" font-family="sans-serif" font-size="13" font-weight="bold" lengthAdjust="spacing" textLength="35" x="193.5" y="915.8467">-code</text><text fill="#000000" font-family="sans-serif" font-size="13" font-weight="bold" lengthAdjust="spacing" textLength="127" x="193.5" y="932.1982">-vaccineTechnology</text><line style="stroke:#A80036;stroke-width:1.5;" x1="188.5" x2="325.5" y1="939.0547" y2="939.0547"/><!--MD5=[19e445fc4d3b48519cbe33da05496394]
class Vaccine--><rect codeLine="12" fill="#FEFECE" filter="url(#f4o6ygnw5f8tq)" height="64.3516" id="Vaccine" style="stroke:#A80036;stroke-width:1.5;" width="75" x="400.5" y="866.5"/><ellipse cx="415.5" cy="882.5" fill="#ADD1B2" rx="11" ry="11" style="stroke:#A80036;stroke-width:1.0;"/><path d="M417.5,879 Q417.7031,878.5 417.9375,878.25 Q418.1719,878 418.4375,878 Q418.9063,878 419.2031,878.2813 Q419.5,878.5625 419.5,879.2188 L419.5,880.7813 Q419.5,881.4375 419.2188,881.7188 Q418.9375,882 418.5,882 Q418.1094,882 417.8594,881.8281 Q417.6094,881.6563 417.5,881.2031 Q417.4531,880.8906 417.2813,880.7188 Q416.9688,880.3906 416.4063,880.2031 Q415.8438,880 415.2813,880 Q414.5781,880 413.9844,880.2813 Q413.4063,880.5625 412.9531,881.1875 Q412.5,881.8125 412.5,882.6719 L412.5,883.5938 Q412.5,884.625 413.3438,885.3125 Q414.1875,886 415.6875,886 Q416.5781,886 417.2031,885.7969 Q417.5625,885.6875 417.9688,885.3281 Q418.2344,885.125 418.375,885.0625 Q418.5156,885 418.6875,885 Q419.0156,885 419.25,885.2656 Q419.5,885.5156 419.5,885.875 Q419.5,886.2188 419.1563,886.625 Q418.6563,887.2188 417.8594,887.5469 Q416.8125,888 415.5313,888 Q414.0313,888 412.8281,887.4063 Q411.8594,886.9375 411.1719,885.9219 Q410.5,884.9063 410.5,883.7031 L410.5,882.6094 Q410.5,881.3594 411.0938,880.2656 Q411.7031,879.1719 412.75,878.5938 Q413.8125,878 415,878 Q415.7188,878 416.3438,878.25 Q416.9688,878.5 417.5,879 Z " fill="#000000"/><text fill="#000000" font-family="sans-serif" font-size="12" lengthAdjust="spacing" textLength="43" x="429.5" y="887.4102">Vaccine</text><line style="stroke:#A80036;stroke-width:1.5;" x1="401.5" x2="474.5" y1="898.5" y2="898.5"/><text fill="#000000" font-family="sans-serif" font-size="13" font-weight="bold" lengthAdjust="spacing" textLength="41" x="406.5" y="915.9951">-brand</text><line style="stroke:#A80036;stroke-width:1.5;" x1="401.5" x2="474.5" y1="922.8516" y2="922.8516"/><!--MD5=[0f39e4cb6f03951afbf6d14bd2505654]
class Address--><rect codeLine="16" fill="#FEFECE" filter="url(#f4o6ygnw5f8tq)" height="97.0547" id="Address" style="stroke:#A80036;stroke-width:1.5;" width="83" x="463.5" y="304.5"/><ellipse cx="480.75" cy="320.5" fill="#ADD1B2" rx="11" ry="11" style="stroke:#A80036;stroke-width:1.0;"/><path d="M482.75,317 Q482.9531,316.5 483.1875,316.25 Q483.4219,316 483.6875,316 Q484.1563,316 484.4531,316.2813 Q484.75,316.5625 484.75,317.2188 L484.75,318.7813 Q484.75,319.4375 484.4688,319.7188 Q484.1875,320 483.75,320 Q483.3594,320 483.1094,319.8281 Q482.8594,319.6563 482.75,319.2031 Q482.7031,318.8906 482.5313,318.7188 Q482.2188,318.3906 481.6563,318.2031 Q481.0938,318 480.5313,318 Q479.8281,318 479.2344,318.2813 Q478.6563,318.5625 478.2031,319.1875 Q477.75,319.8125 477.75,320.6719 L477.75,321.5938 Q477.75,322.625 478.5938,323.3125 Q479.4375,324 480.9375,324 Q481.8281,324 482.4531,323.7969 Q482.8125,323.6875 483.2188,323.3281 Q483.4844,323.125 483.625,323.0625 Q483.7656,323 483.9375,323 Q484.2656,323 484.5,323.2656 Q484.75,323.5156 484.75,323.875 Q484.75,324.2188 484.4063,324.625 Q483.9063,325.2188 483.1094,325.5469 Q482.0625,326 480.7813,326 Q479.2813,326 478.0781,325.4063 Q477.1094,324.9375 476.4219,323.9219 Q475.75,322.9063 475.75,321.7031 L475.75,320.6094 Q475.75,319.3594 476.3438,318.2656 Q476.9531,317.1719 478,316.5938 Q479.0625,316 480.25,316 Q480.9688,316 481.5938,316.25 Q482.2188,316.5 482.75,317 Z " fill="#000000"/><text fill="#000000" font-family="sans-serif" font-size="12" lengthAdjust="spacing" textLength="46" x="495.25" y="325.4102">Address</text><line style="stroke:#A80036;stroke-width:1.5;" x1="464.5" x2="545.5" y1="336.5" y2="336.5"/><text fill="#000000" font-family="sans-serif" font-size="13" font-weight="bold" lengthAdjust="spacing" textLength="52" x="469.5" y="353.9951">-strRoad</text><text fill="#000000" font-family="sans-serif" font-size="13" font-weight="bold" lengthAdjust="spacing" textLength="71" x="469.5" y="370.3467">-strZipCode</text><text fill="#000000" font-family="sans-serif" font-size="13" font-weight="bold" lengthAdjust="spacing" textLength="54" x="469.5" y="386.6982">-strLocal</text><line style="stroke:#A80036;stroke-width:1.5;" x1="464.5" x2="545.5" y1="393.5547" y2="393.5547"/><!--MD5=[de60e6d4f424ae4d0522096f76a59010]
class VaccinationCenter--><rect codeLine="22" fill="#FEFECE" filter="url(#f4o6ygnw5f8tq)" height="211.5156" id="VaccinationCenter" style="stroke:#A80036;stroke-width:1.5;" width="135" x="213.5" y="247"/><ellipse cx="229.85" cy="263" fill="#ADD1B2" rx="11" ry="11" style="stroke:#A80036;stroke-width:1.0;"/><path d="M231.85,259.5 Q232.0531,259 232.2875,258.75 Q232.5219,258.5 232.7875,258.5 Q233.2563,258.5 233.5531,258.7813 Q233.85,259.0625 233.85,259.7188 L233.85,261.2813 Q233.85,261.9375 233.5688,262.2188 Q233.2875,262.5 232.85,262.5 Q232.4594,262.5 232.2094,262.3281 Q231.9594,262.1563 231.85,261.7031 Q231.8031,261.3906 231.6313,261.2188 Q231.3188,260.8906 230.7563,260.7031 Q230.1938,260.5 229.6313,260.5 Q228.9281,260.5 228.3344,260.7813 Q227.7563,261.0625 227.3031,261.6875 Q226.85,262.3125 226.85,263.1719 L226.85,264.0938 Q226.85,265.125 227.6938,265.8125 Q228.5375,266.5 230.0375,266.5 Q230.9281,266.5 231.5531,266.2969 Q231.9125,266.1875 232.3188,265.8281 Q232.5844,265.625 232.725,265.5625 Q232.8656,265.5 233.0375,265.5 Q233.3656,265.5 233.6,265.7656 Q233.85,266.0156 233.85,266.375 Q233.85,266.7188 233.5063,267.125 Q233.0063,267.7188 232.2094,268.0469 Q231.1625,268.5 229.8813,268.5 Q228.3813,268.5 227.1781,267.9063 Q226.2094,267.4375 225.5219,266.4219 Q224.85,265.4063 224.85,264.2031 L224.85,263.1094 Q224.85,261.8594 225.4438,260.7656 Q226.0531,259.6719 227.1,259.0938 Q228.1625,258.5 229.35,258.5 Q230.0688,258.5 230.6938,258.75 Q231.3188,259 231.85,259.5 Z " fill="#000000"/><text fill="#000000" font-family="sans-serif" font-size="12" lengthAdjust="spacing" textLength="100" x="244.15" y="267.9102">VaccinationCenter</text><line style="stroke:#A80036;stroke-width:1.5;" x1="214.5" x2="347.5" y1="279" y2="279"/><text fill="#000000" font-family="sans-serif" font-size="13" font-weight="bold" lengthAdjust="spacing" textLength="33" x="219.5" y="296.4951">-intID</text><text fill="#000000" font-family="sans-serif" font-size="13" font-weight="bold" lengthAdjust="spacing" textLength="56" x="219.5" y="312.8467">-strName</text><text fill="#000000" font-family="sans-serif" font-size="13" font-weight="bold" lengthAdjust="spacing" textLength="110" x="219.5" y="329.1982">-strPhoneNumber</text><text fill="#000000" font-family="sans-serif" font-size="13" font-weight="bold" lengthAdjust="spacing" textLength="55" x="219.5" y="345.5498">-strEmail</text><text fill="#000000" font-family="sans-serif" font-size="13" font-weight="bold" lengthAdjust="spacing" textLength="43" x="219.5" y="361.9014">-strFax</text><text fill="#000000" font-family="sans-serif" font-size="13" font-weight="bold" lengthAdjust="spacing" textLength="70" x="219.5" y="378.2529">-strWebsite</text><text fill="#000000" font-family="sans-serif" font-size="13" font-weight="bold" lengthAdjust="spacing" textLength="103" x="219.5" y="394.6045">-strOpeningHour</text><text fill="#000000" font-family="sans-serif" font-size="13" font-weight="bold" lengthAdjust="spacing" textLength="96" x="219.5" y="410.9561">-strClosingHour</text><text fill="#000000" font-family="sans-serif" font-size="13" font-weight="bold" lengthAdjust="spacing" textLength="98" x="219.5" y="427.3076">-strSlotDuration</text><text fill="#000000" font-family="sans-serif" font-size="13" font-weight="bold" lengthAdjust="spacing" textLength="123" x="219.5" y="443.6592">-strVaccinesPerSlot</text><line style="stroke:#A80036;stroke-width:1.5;" x1="214.5" x2="347.5" y1="450.5156" y2="450.5156"/><!--MD5=[2d935fd2dd068a13da1ae531f9857c4f]
class CenterCoordinator--><rect codeLine="35" fill="#FEFECE" filter="url(#f4o6ygnw5f8tq)" height="48" id="CenterCoordinator" style="stroke:#A80036;stroke-width:1.5;" width="134" x="9" y="329"/><ellipse cx="24" cy="345" fill="#ADD1B2" rx="11" ry="11" style="stroke:#A80036;stroke-width:1.0;"/><path d="M26,341.5 Q26.2031,341 26.4375,340.75 Q26.6719,340.5 26.9375,340.5 Q27.4063,340.5 27.7031,340.7813 Q28,341.0625 28,341.7188 L28,343.2813 Q28,343.9375 27.7188,344.2188 Q27.4375,344.5 27,344.5 Q26.6094,344.5 26.3594,344.3281 Q26.1094,344.1563 26,343.7031 Q25.9531,343.3906 25.7813,343.2188 Q25.4688,342.8906 24.9063,342.7031 Q24.3438,342.5 23.7813,342.5 Q23.0781,342.5 22.4844,342.7813 Q21.9063,343.0625 21.4531,343.6875 Q21,344.3125 21,345.1719 L21,346.0938 Q21,347.125 21.8438,347.8125 Q22.6875,348.5 24.1875,348.5 Q25.0781,348.5 25.7031,348.2969 Q26.0625,348.1875 26.4688,347.8281 Q26.7344,347.625 26.875,347.5625 Q27.0156,347.5 27.1875,347.5 Q27.5156,347.5 27.75,347.7656 Q28,348.0156 28,348.375 Q28,348.7188 27.6563,349.125 Q27.1563,349.7188 26.3594,350.0469 Q25.3125,350.5 24.0313,350.5 Q22.5313,350.5 21.3281,349.9063 Q20.3594,349.4375 19.6719,348.4219 Q19,347.4063 19,346.2031 L19,345.1094 Q19,343.8594 19.5938,342.7656 Q20.2031,341.6719 21.25,341.0938 Q22.3125,340.5 23.5,340.5 Q24.2188,340.5 24.8438,340.75 Q25.4688,341 26,341.5 Z " fill="#000000"/><text fill="#000000" font-family="sans-serif" font-size="12" lengthAdjust="spacing" textLength="102" x="38" y="349.9102">CenterCoordinator</text><line style="stroke:#A80036;stroke-width:1.5;" x1="10" x2="142" y1="361" y2="361"/><line style="stroke:#A80036;stroke-width:1.5;" x1="10" x2="142" y1="369" y2="369"/><!--MD5=[7421f545a0d8420c5bec41e74b387d9c]
class Employee--><rect codeLine="38" fill="#FEFECE" filter="url(#f4o6ygnw5f8tq)" height="162.4609" id="Employee" style="stroke:#A80036;stroke-width:1.5;" width="138" x="7" y="7"/><ellipse cx="44.95" cy="23" fill="#ADD1B2" rx="11" ry="11" style="stroke:#A80036;stroke-width:1.0;"/><path d="M46.95,19.5 Q47.1531,19 47.3875,18.75 Q47.6219,18.5 47.8875,18.5 Q48.3563,18.5 48.6531,18.7813 Q48.95,19.0625 48.95,19.7188 L48.95,21.2813 Q48.95,21.9375 48.6688,22.2188 Q48.3875,22.5 47.95,22.5 Q47.5594,22.5 47.3094,22.3281 Q47.0594,22.1563 46.95,21.7031 Q46.9031,21.3906 46.7313,21.2188 Q46.4188,20.8906 45.8563,20.7031 Q45.2938,20.5 44.7313,20.5 Q44.0281,20.5 43.4344,20.7813 Q42.8563,21.0625 42.4031,21.6875 Q41.95,22.3125 41.95,23.1719 L41.95,24.0938 Q41.95,25.125 42.7938,25.8125 Q43.6375,26.5 45.1375,26.5 Q46.0281,26.5 46.6531,26.2969 Q47.0125,26.1875 47.4188,25.8281 Q47.6844,25.625 47.825,25.5625 Q47.9656,25.5 48.1375,25.5 Q48.4656,25.5 48.7,25.7656 Q48.95,26.0156 48.95,26.375 Q48.95,26.7188 48.6063,27.125 Q48.1063,27.7188 47.3094,28.0469 Q46.2625,28.5 44.9813,28.5 Q43.4813,28.5 42.2781,27.9063 Q41.3094,27.4375 40.6219,26.4219 Q39.95,25.4063 39.95,24.2031 L39.95,23.1094 Q39.95,21.8594 40.5438,20.7656 Q41.1531,19.6719 42.2,19.0938 Q43.2625,18.5 44.45,18.5 Q45.1688,18.5 45.7938,18.75 Q46.4188,19 46.95,19.5 Z " fill="#000000"/><text fill="#000000" font-family="sans-serif" font-size="12" lengthAdjust="spacing" textLength="55" x="64.05" y="27.9102">Employee</text><line style="stroke:#A80036;stroke-width:1.5;" x1="8" x2="144" y1="39" y2="39"/><text fill="#000000" font-family="sans-serif" font-size="13" font-weight="bold" lengthAdjust="spacing" textLength="16" x="13" y="56.4951">-id</text><text fill="#000000" font-family="sans-serif" font-size="13" font-weight="bold" lengthAdjust="spacing" textLength="40" x="13" y="72.8467">-name</text><text fill="#000000" font-family="sans-serif" font-size="13" font-weight="bold" lengthAdjust="spacing" textLength="53" x="13" y="89.1982">-address</text><text fill="#000000" font-family="sans-serif" font-size="13" font-weight="bold" lengthAdjust="spacing" textLength="94" x="13" y="105.5498">-phoneNumber</text><text fill="#000000" font-family="sans-serif" font-size="13" font-weight="bold" lengthAdjust="spacing" textLength="40" x="13" y="121.9014">-email</text><text fill="#000000" font-family="sans-serif" font-size="13" font-weight="bold" lengthAdjust="spacing" textLength="126" x="13" y="138.2529">-citizenCardNumber</text><text fill="#000000" font-family="sans-serif" font-size="13" font-weight="bold" lengthAdjust="spacing" textLength="64" x="13" y="154.6045">-password</text><line style="stroke:#A80036;stroke-width:1.5;" x1="8" x2="144" y1="161.4609" y2="161.4609"/><!--MD5=[76480a6701b5d2883bc606a2560c3cfe]
class MassVaccinationCenter--><rect codeLine="48" fill="#FEFECE" filter="url(#f4o6ygnw5f8tq)" height="48" id="MassVaccinationCenter" style="stroke:#A80036;stroke-width:1.5;" width="162" x="109" y="520"/><ellipse cx="124" cy="536" fill="#ADD1B2" rx="11" ry="11" style="stroke:#A80036;stroke-width:1.0;"/><path d="M126,532.5 Q126.2031,532 126.4375,531.75 Q126.6719,531.5 126.9375,531.5 Q127.4063,531.5 127.7031,531.7813 Q128,532.0625 128,532.7188 L128,534.2813 Q128,534.9375 127.7188,535.2188 Q127.4375,535.5 127,535.5 Q126.6094,535.5 126.3594,535.3281 Q126.1094,535.1563 126,534.7031 Q125.9531,534.3906 125.7813,534.2188 Q125.4688,533.8906 124.9063,533.7031 Q124.3438,533.5 123.7813,533.5 Q123.0781,533.5 122.4844,533.7813 Q121.9063,534.0625 121.4531,534.6875 Q121,535.3125 121,536.1719 L121,537.0938 Q121,538.125 121.8438,538.8125 Q122.6875,539.5 124.1875,539.5 Q125.0781,539.5 125.7031,539.2969 Q126.0625,539.1875 126.4688,538.8281 Q126.7344,538.625 126.875,538.5625 Q127.0156,538.5 127.1875,538.5 Q127.5156,538.5 127.75,538.7656 Q128,539.0156 128,539.375 Q128,539.7188 127.6563,540.125 Q127.1563,540.7188 126.3594,541.0469 Q125.3125,541.5 124.0313,541.5 Q122.5313,541.5 121.3281,540.9063 Q120.3594,540.4375 119.6719,539.4219 Q119,538.4063 119,537.2031 L119,536.1094 Q119,534.8594 119.5938,533.7656 Q120.2031,532.6719 121.25,532.0938 Q122.3125,531.5 123.5,531.5 Q124.2188,531.5 124.8438,531.75 Q125.4688,532 126,532.5 Z " fill="#000000"/><text fill="#000000" font-family="sans-serif" font-size="12" lengthAdjust="spacing" textLength="130" x="138" y="540.9102">MassVaccinationCenter</text><line style="stroke:#A80036;stroke-width:1.5;" x1="110" x2="270" y1="552" y2="552"/><line style="stroke:#A80036;stroke-width:1.5;" x1="110" x2="270" y1="560" y2="560"/><!--MD5=[0b1ce5251ebf137e6b3550dd84e6af65]
class HealthcareCenter--><rect codeLine="52" fill="#FEFECE" filter="url(#f4o6ygnw5f8tq)" height="80.7031" id="HealthcareCenter" style="stroke:#A80036;stroke-width:1.5;" width="129" x="257.5" y="598"/><ellipse cx="272.5" cy="614" fill="#ADD1B2" rx="11" ry="11" style="stroke:#A80036;stroke-width:1.0;"/><path d="M274.5,610.5 Q274.7031,610 274.9375,609.75 Q275.1719,609.5 275.4375,609.5 Q275.9063,609.5 276.2031,609.7813 Q276.5,610.0625 276.5,610.7188 L276.5,612.2813 Q276.5,612.9375 276.2188,613.2188 Q275.9375,613.5 275.5,613.5 Q275.1094,613.5 274.8594,613.3281 Q274.6094,613.1563 274.5,612.7031 Q274.4531,612.3906 274.2813,612.2188 Q273.9688,611.8906 273.4063,611.7031 Q272.8438,611.5 272.2813,611.5 Q271.5781,611.5 270.9844,611.7813 Q270.4063,612.0625 269.9531,612.6875 Q269.5,613.3125 269.5,614.1719 L269.5,615.0938 Q269.5,616.125 270.3438,616.8125 Q271.1875,617.5 272.6875,617.5 Q273.5781,617.5 274.2031,617.2969 Q274.5625,617.1875 274.9688,616.8281 Q275.2344,616.625 275.375,616.5625 Q275.5156,616.5 275.6875,616.5 Q276.0156,616.5 276.25,616.7656 Q276.5,617.0156 276.5,617.375 Q276.5,617.7188 276.1563,618.125 Q275.6563,618.7188 274.8594,619.0469 Q273.8125,619.5 272.5313,619.5 Q271.0313,619.5 269.8281,618.9063 Q268.8594,618.4375 268.1719,617.4219 Q267.5,616.4063 267.5,615.2031 L267.5,614.1094 Q267.5,612.8594 268.0938,611.7656 Q268.7031,610.6719 269.75,610.0938 Q270.8125,609.5 272,609.5 Q272.7188,609.5 273.3438,609.75 Q273.9688,610 274.5,610.5 Z " fill="#000000"/><text fill="#000000" font-family="sans-serif" font-size="12" lengthAdjust="spacing" textLength="97" x="286.5" y="618.9102">HealthcareCenter</text><line style="stroke:#A80036;stroke-width:1.5;" x1="258.5" x2="385.5" y1="630" y2="630"/><text fill="#000000" font-family="sans-serif" font-size="13" font-weight="bold" lengthAdjust="spacing" textLength="46" x="263.5" y="647.4951">-strARS</text><text fill="#000000" font-family="sans-serif" font-size="13" font-weight="bold" lengthAdjust="spacing" textLength="55" x="263.5" y="663.8467">-strAGES</text><line style="stroke:#A80036;stroke-width:1.5;" x1="258.5" x2="385.5" y1="670.7031" y2="670.7031"/><!--MD5=[98f7f3dc8d9719d04ad14614c4ea123f]
reverse link Employee to CenterCoordinator--><path d="M76,189.51 C76,240.32 76,297.66 76,328.82 " fill="none" id="Employee-backto-CenterCoordinator" style="stroke:#A80036;stroke-width:1.0;"/><polygon fill="none" points="69,189.34,76,169.34,83,189.34,69,189.34" style="stroke:#A80036;stroke-width:1.0;"/><!--MD5=[a09fc339ad85d4e67aa3195beeccb7d9]
reverse link VaccinationCenter to MassVaccinationCenter--><path d="M221.65,477.26 C213.88,493.4 206.71,508.3 201.16,519.82 " fill="none" id="VaccinationCenter-backto-MassVaccinationCenter" style="stroke:#A80036;stroke-width:1.0;"/><polygon fill="none" points="215.46,473.98,230.44,459,228.07,480.06,215.46,473.98" style="stroke:#A80036;stroke-width:1.0;"/><!--MD5=[860a319d9f073c66a49856aa2bd7c3ed]
reverse link VaccinationCenter to HealthcareCenter--><path d="M299.08,478.99 C305.28,521.89 311.78,566.85 316.27,597.89 " fill="none" id="VaccinationCenter-backto-HealthcareCenter" style="stroke:#A80036;stroke-width:1.0;"/><polygon fill="none" points="292.14,479.96,296.21,459.16,306,477.95,292.14,479.96" style="stroke:#A80036;stroke-width:1.0;"/><!--MD5=[eebe9b198877275d05dd12630ed9e401]
link Company to VaccinationCenter--><path codeLine="57" d="M281,112.34 C281,142.57 281,197.28 281,246.8 " fill="none" id="Company-VaccinationCenter" style="stroke:#A80036;stroke-width:1.0;"/><polygon fill="#000000" points="286,213.1758,288.9389,204.1307,283.0611,204.1307,286,213.1758" style="stroke:#000000;stroke-width:1.0;"/><text fill="#000000" font-family="sans-serif" font-size="13" lengthAdjust="spacing" textLength="30" x="295" y="213.4951">owns</text><text fill="#000000" font-family="sans-serif" font-size="13" lengthAdjust="spacing" textLength="7" x="273.1906" y="133.3544">1</text><text fill="#000000" font-family="sans-serif" font-size="13" lengthAdjust="spacing" textLength="5" x="275.8242" y="236.2948">*</text><!--MD5=[d5cf03d886352995267197dc535618ec]
link CenterCoordinator to VaccinationCenter--><path codeLine="58" d="M143.12,353 C165.66,353 190.8,353 213.37,353 " fill="none" id="CenterCoordinator-VaccinationCenter" style="stroke:#A80036;stroke-width:1.0;"/><polygon fill="#000000" points="160.25,341.1758,169.2951,344.1147,169.2951,338.2369,160.25,341.1758" style="stroke:#000000;stroke-width:1.0;"/><text fill="#000000" font-family="sans-serif" font-size="13" lengthAdjust="spacing" textLength="21" x="174.25" y="346.4951">has</text><text fill="#000000" font-family="sans-serif" font-size="13" lengthAdjust="spacing" textLength="7" x="150.8441" y="349.6393">1</text><text fill="#000000" font-family="sans-serif" font-size="13" lengthAdjust="spacing" textLength="7" x="198.5902" y="349.6658">1</text><!--MD5=[233a09a91aa8c3856d31bdcfa7c5bcf8]
link VaccinationCenter to Address--><path codeLine="59" d="M348.51,353 C385.87,353 431.11,353 463.32,353 " fill="none" id="VaccinationCenter-Address" style="stroke:#A80036;stroke-width:1.0;"/><polygon fill="#000000" points="376,341.1758,366.9549,338.2369,366.9549,344.1147,376,341.1758" style="stroke:#000000;stroke-width:1.0;"/><text fill="#000000" font-family="sans-serif" font-size="13" lengthAdjust="spacing" textLength="65" x="380" y="346.4951">localized in</text><text fill="#000000" font-family="sans-serif" font-size="13" lengthAdjust="spacing" textLength="7" x="356.7205" y="349.6184">1</text><text fill="#000000" font-family="sans-serif" font-size="13" lengthAdjust="spacing" textLength="7" x="448.5547" y="349.1456">1</text><!--MD5=[621e86b706bec9720bc9ed1d445091d9]
link MassVaccinationCenter to VaccineType--><path codeLine="60" d="M188.92,568.02 C187.6,607.44 187.12,690.17 202,758 C208.94,789.66 222.14,823.52 233.87,849.95 " fill="none" id="MassVaccinationCenter-VaccineType" style="stroke:#A80036;stroke-width:1.0;"/><polygon fill="#000000" points="207.7872,754.1134,209.2654,744.7184,203.4608,745.6439,207.7872,754.1134" style="stroke:#000000;stroke-width:1.0;"/><text fill="#000000" font-family="sans-serif" font-size="13" lengthAdjust="spacing" textLength="67" x="216" y="754.4951">administers</text><text fill="#000000" font-family="sans-serif" font-size="13" lengthAdjust="spacing" textLength="7" x="180.8036" y="589.3628">1</text><text fill="#000000" font-family="sans-serif" font-size="13" lengthAdjust="spacing" textLength="7" x="222.9587" y="839.1611">1</text><!--MD5=[fadf3c4cc459913b8138733d6e23cb41]
link HealthcareCenter to VaccineType--><path codeLine="61" d="M311.99,679.25 C300.41,725.19 281.38,800.74 269.02,849.81 " fill="none" id="HealthcareCenter-VaccineType" style="stroke:#A80036;stroke-width:1.0;"/><polygon fill="#000000" points="299.7785,754.0243,304.8381,745.9712,299.1383,744.5353,299.7785,754.0243" style="stroke:#000000;stroke-width:1.0;"/><text fill="#000000" font-family="sans-serif" font-size="13" lengthAdjust="spacing" textLength="67" x="310" y="754.4951">administers</text><text fill="#000000" font-family="sans-serif" font-size="13" lengthAdjust="spacing" textLength="7" x="302.9213" y="700.2596">1</text><text fill="#000000" font-family="sans-serif" font-size="13" lengthAdjust="spacing" textLength="5" x="265.4183" y="839.0006">*</text><!--MD5=[7991057a0b57fcb72665747661b5eb1a]
link VaccineType to Vaccine--><path codeLine="62" d="M326.72,898.5 C351.82,898.5 379.17,898.5 400.47,898.5 " fill="none" id="VaccineType-Vaccine" style="stroke:#A80036;stroke-width:1.0;"/><polygon fill="#000000" points="344,886.6758,353.0451,889.6147,353.0451,883.7369,344,886.6758" style="stroke:#000000;stroke-width:1.0;"/><text fill="#000000" font-family="sans-serif" font-size="13" lengthAdjust="spacing" textLength="24" x="358" y="891.9951">is of</text><text fill="#000000" font-family="sans-serif" font-size="13" lengthAdjust="spacing" textLength="7" x="334.7284" y="895.1364">1</text><text fill="#000000" font-family="sans-serif" font-size="13" lengthAdjust="spacing" textLength="5" x="387.5891" y="894.4201">*</text><!--MD5=[daf2885450ef86b3d5ad29e3895e7479]
@startuml
'https://plantuml.com/class-diagram
'!pragma layout smetana

class Company

class VaccineType{
==-description
==-code
==-vaccineTechnology
}

class Vaccine{
==-brand
}

class Address{
==-strRoad
==-strZipCode
==-strLocal
}

class VaccinationCenter{
==-intID
==-strName
==-strPhoneNumber
==-strEmail
==-strFax
==-strWebsite
==-strOpeningHour
==-strClosingHour
==-strSlotDuration
==-strVaccinesPerSlot
}

class CenterCoordinator extends Employee{
}

class Employee{
==-id
==-name
==-address
==-phoneNumber
==-email
==-citizenCardNumber
==-password
}

class MassVaccinationCenter extends VaccinationCenter{

}

class HealthcareCenter extends VaccinationCenter{
==-strARS
==-strAGES
}

Company "1" -down- "*" VaccinationCenter: owns >
VaccinationCenter "1" -left- "1" CenterCoordinator: has >
VaccinationCenter "1" -right- "1" Address: localized in >
MassVaccinationCenter "1" - -down- - "1" VaccineType: administers >
HealthcareCenter "1" -down- "*" VaccineType: administers >
Vaccine "*" - -left- - "1" VaccineType: is of >

@enduml

@startuml

class Company

class VaccineType{
==-description
==-code
==-vaccineTechnology
}

class Vaccine{
==-brand
}

class Address{
==-strRoad
==-strZipCode
==-strLocal
}

class VaccinationCenter{
==-intID
==-strName
==-strPhoneNumber
==-strEmail
==-strFax
==-strWebsite
==-strOpeningHour
==-strClosingHour
==-strSlotDuration
==-strVaccinesPerSlot
}

class CenterCoordinator extends Employee{
}

class Employee{
==-id
==-name
==-address
==-phoneNumber
==-email
==-citizenCardNumber
==-password
}

class MassVaccinationCenter extends VaccinationCenter{

}

class HealthcareCenter extends VaccinationCenter{
==-strARS
==-strAGES
}

Company "1" -down- "*" VaccinationCenter: owns >
VaccinationCenter "1" -left- "1" CenterCoordinator: has >
VaccinationCenter "1" -right- "1" Address: localized in >
MassVaccinationCenter "1" - -down- - "1" VaccineType: administers >
HealthcareCenter "1" -down- "*" VaccineType: administers >
Vaccine "*" - -left- - "1" VaccineType: is of >

@enduml

PlantUML version 1.2022.1(Tue Feb 01 18:19:58 GMT 2022)
(GPL source distribution)
Java Runtime: OpenJDK Runtime Environment
JVM: OpenJDK 64-Bit Server VM
Default Encoding: Cp1252
Language: en
Country: US
--></g></svg>