<?xml version="1.0" encoding="UTF-8" standalone="no"?><svg xmlns="http://www.w3.org/2000/svg" xmlns:xlink="http://www.w3.org/1999/xlink" contentScriptType="application/ecmascript" contentStyleType="text/css" height="306px" preserveAspectRatio="none" style="width:122px;height:306px;background:#FFFFFF;" version="1.1" viewBox="0 0 122 306" width="122px" zoomAndPan="magnify"><defs><filter height="300%" id="f1jtol77ib0gop" width="300%" x="-1" y="-1"><feGaussianBlur result="blurOut" stdDeviation="2.0"/><feColorMatrix in="blurOut" result="blurOut2" type="matrix" values="0 0 0 0 0 0 0 0 0 0 0 0 0 0 0 0 0 0 .4 0"/><feOffset dx="4.0" dy="4.0" in="blurOut2" result="blurOut3"/><feBlend in="SourceGraphic" in2="blurOut3" mode="normal"/></filter></defs><g><!--MD5=[03960189e81aa2c066c762ffabbee709]
class Receptionist--><rect codeLine="3" fill="#FEFECE" filter="url(#f1jtol77ib0gop)" height="48" id="Receptionist" style="stroke:#A80036;stroke-width:1.5;" width="101" x="7" y="7"/><ellipse cx="22" cy="23" fill="#ADD1B2" rx="11" ry="11" style="stroke:#A80036;stroke-width:1.0;"/><path d="M24,19.5 Q24.2031,19 24.4375,18.75 Q24.6719,18.5 24.9375,18.5 Q25.4063,18.5 25.7031,18.7813 Q26,19.0625 26,19.7188 L26,21.2813 Q26,21.9375 25.7188,22.2188 Q25.4375,22.5 25,22.5 Q24.6094,22.5 24.3594,22.3281 Q24.1094,22.1563 24,21.7031 Q23.9531,21.3906 23.7813,21.2188 Q23.4688,20.8906 22.9063,20.7031 Q22.3438,20.5 21.7813,20.5 Q21.0781,20.5 20.4844,20.7813 Q19.9063,21.0625 19.4531,21.6875 Q19,22.3125 19,23.1719 L19,24.0938 Q19,25.125 19.8438,25.8125 Q20.6875,26.5 22.1875,26.5 Q23.0781,26.5 23.7031,26.2969 Q24.0625,26.1875 24.4688,25.8281 Q24.7344,25.625 24.875,25.5625 Q25.0156,25.5 25.1875,25.5 Q25.5156,25.5 25.75,25.7656 Q26,26.0156 26,26.375 Q26,26.7188 25.6563,27.125 Q25.1563,27.7188 24.3594,28.0469 Q23.3125,28.5 22.0313,28.5 Q20.5313,28.5 19.3281,27.9063 Q18.3594,27.4375 17.6719,26.4219 Q17,25.4063 17,24.2031 L17,23.1094 Q17,21.8594 17.5938,20.7656 Q18.2031,19.6719 19.25,19.0938 Q20.3125,18.5 21.5,18.5 Q22.2188,18.5 22.8438,18.75 Q23.4688,19 24,19.5 Z " fill="#000000"/><text fill="#000000" font-family="sans-serif" font-size="12" lengthAdjust="spacing" textLength="69" x="36" y="27.9102">Receptionist</text><line style="stroke:#A80036;stroke-width:1.5;" x1="8" x2="107" y1="39" y2="39"/><line style="stroke:#A80036;stroke-width:1.5;" x1="8" x2="107" y1="47" y2="47"/><!--MD5=[c4593935f45e4a2a0cefc4788932b53f]
class SnsUser--><rect codeLine="5" fill="#FEFECE" filter="url(#f1jtol77ib0gop)" height="97.0547" id="SnsUser" style="stroke:#A80036;stroke-width:1.5;" width="81" x="17" y="195"/><ellipse cx="32" cy="211" fill="#ADD1B2" rx="11" ry="11" style="stroke:#A80036;stroke-width:1.0;"/><path d="M34,207.5 Q34.2031,207 34.4375,206.75 Q34.6719,206.5 34.9375,206.5 Q35.4063,206.5 35.7031,206.7813 Q36,207.0625 36,207.7188 L36,209.2813 Q36,209.9375 35.7188,210.2188 Q35.4375,210.5 35,210.5 Q34.6094,210.5 34.3594,210.3281 Q34.1094,210.1563 34,209.7031 Q33.9531,209.3906 33.7813,209.2188 Q33.4688,208.8906 32.9063,208.7031 Q32.3438,208.5 31.7813,208.5 Q31.0781,208.5 30.4844,208.7813 Q29.9063,209.0625 29.4531,209.6875 Q29,210.3125 29,211.1719 L29,212.0938 Q29,213.125 29.8438,213.8125 Q30.6875,214.5 32.1875,214.5 Q33.0781,214.5 33.7031,214.2969 Q34.0625,214.1875 34.4688,213.8281 Q34.7344,213.625 34.875,213.5625 Q35.0156,213.5 35.1875,213.5 Q35.5156,213.5 35.75,213.7656 Q36,214.0156 36,214.375 Q36,214.7188 35.6563,215.125 Q35.1563,215.7188 34.3594,216.0469 Q33.3125,216.5 32.0313,216.5 Q30.5313,216.5 29.3281,215.9063 Q28.3594,215.4375 27.6719,214.4219 Q27,213.4063 27,212.2031 L27,211.1094 Q27,209.8594 27.5938,208.7656 Q28.2031,207.6719 29.25,207.0938 Q30.3125,206.5 31.5,206.5 Q32.2188,206.5 32.8438,206.75 Q33.4688,207 34,207.5 Z " fill="#000000"/><text fill="#000000" font-family="sans-serif" font-size="12" lengthAdjust="spacing" textLength="49" x="46" y="215.9102">SnsUser</text><line style="stroke:#A80036;stroke-width:1.5;" x1="18" x2="97" y1="227" y2="227"/><text fill="#000000" font-family="sans-serif" font-size="13" font-weight="bold" lengthAdjust="spacing" textLength="40" x="23" y="244.4951">-name</text><text fill="#000000" font-family="sans-serif" font-size="13" font-weight="bold" lengthAdjust="spacing" textLength="40" x="23" y="260.8467">-email</text><text fill="#000000" font-family="sans-serif" font-size="13" font-weight="bold" lengthAdjust="spacing" textLength="64" x="23" y="277.1982">-password</text><line style="stroke:#A80036;stroke-width:1.5;" x1="18" x2="97" y1="284.0547" y2="284.0547"/><!--MD5=[bea4cef510d6480f5c2f28bf0d9d6d1e]
link Receptionist to SnsUser--><path codeLine="11" d="M57.5,55.33 C57.5,88.84 57.5,151.33 57.5,194.84 " fill="none" id="Receptionist-SnsUser" style="stroke:#A80036;stroke-width:1.0;"/><text fill="#000000" font-family="sans-serif" font-size="13" lengthAdjust="spacing" textLength="43" x="58.5" y="130.4951">creates</text><text fill="#000000" font-family="sans-serif" font-size="13" lengthAdjust="spacing" textLength="7" x="49.6906" y="76.3421">1</text><text fill="#000000" font-family="sans-serif" font-size="13" lengthAdjust="spacing" textLength="5" x="52.1328" y="184.035">*</text><!--MD5=[b2ca590f728af7ef03446565a4b2f3b3]
@startuml
'https://plantuml.com/class-diagram

class Receptionist

class SnsUser {
==-name
==-email
==-password
}

Receptionist "1" - - - "*" SnsUser: creates

@enduml

@startuml

class Receptionist

class SnsUser {
==-name
==-email
==-password
}

Receptionist "1" - - - "*" SnsUser: creates

@enduml

PlantUML version 1.2022.1(Tue Feb 01 18:19:58 GMT 2022)
(GPL source distribution)
Java Runtime: OpenJDK Runtime Environment
JVM: OpenJDK 64-Bit Server VM
Default Encoding: Cp1252
Language: pt
Country: PT
--></g></svg>