<?xml version="1.0" encoding="UTF-8" standalone="no"?><svg xmlns="http://www.w3.org/2000/svg" xmlns:xlink="http://www.w3.org/1999/xlink" contentScriptType="application/ecmascript" contentStyleType="text/css" height="332px" preserveAspectRatio="none" style="width:475px;height:332px;background:#FFFFFF;" version="1.1" viewBox="0 0 475 332" width="475px" zoomAndPan="magnify"><defs><filter height="300%" id="f15zfar3nnnkiw" width="300%" x="-1" y="-1"><feGaussianBlur result="blurOut" stdDeviation="2.0"/><feColorMatrix in="blurOut" result="blurOut2" type="matrix" values="0 0 0 0 0 0 0 0 0 0 0 0 0 0 0 0 0 0 .4 0"/><feOffset dx="4.0" dy="4.0" in="blurOut2" result="blurOut3"/><feBlend in="SourceGraphic" in2="blurOut3" mode="normal"/></filter></defs><g><rect fill="#FFFFFF" filter="url(#f15zfar3nnnkiw)" height="129.7578" style="stroke:#A80036;stroke-width:1.0;" width="10" x="42" y="99.6094"/><rect fill="#FFFFFF" filter="url(#f15zfar3nnnkiw)" height="46.7031" style="stroke:#A80036;stroke-width:1.0;" width="10" x="426" y="121.9609"/><rect fill="#FFFFFF" filter="url(#f15zfar3nnnkiw)" height="30.3516" style="stroke:#A80036;stroke-width:1.0;" width="10" x="426" y="199.0156"/><line style="stroke:#A80036;stroke-width:1.0;stroke-dasharray:5.0,5.0;" x1="47" x2="47" y1="89.6094" y2="247.3672"/><line style="stroke:#A80036;stroke-width:1.0;stroke-dasharray:5.0,5.0;" x1="431" x2="431" y1="89.6094" y2="247.3672"/><text fill="#000000" font-family="sans-serif" font-size="14" lengthAdjust="spacing" textLength="78" x="5" y="86.5332">Receptionist</text><ellipse cx="47" cy="15" fill="#FEFECE" filter="url(#f15zfar3nnnkiw)" rx="8" ry="8" style="stroke:#A80036;stroke-width:2.0;"/><path d="M47,23 L47,50 M34,31 L60,31 M47,50 L34,65 M47,50 L60,65 " fill="none" filter="url(#f15zfar3nnnkiw)" style="stroke:#A80036;stroke-width:2.0;"/><text fill="#000000" font-family="sans-serif" font-size="14" lengthAdjust="spacing" textLength="78" x="5" y="260.9004">Receptionist</text><ellipse cx="47" cy="273.9766" fill="#FEFECE" filter="url(#f15zfar3nnnkiw)" rx="8" ry="8" style="stroke:#A80036;stroke-width:2.0;"/><path d="M47,281.9766 L47,308.9766 M34,289.9766 L60,289.9766 M47,308.9766 L34,323.9766 M47,308.9766 L60,323.9766 " fill="none" filter="url(#f15zfar3nnnkiw)" style="stroke:#A80036;stroke-width:2.0;"/><rect fill="#FEFECE" filter="url(#f15zfar3nnnkiw)" height="31.6094" style="stroke:#A80036;stroke-width:1.5;" width="64" x="397" y="53"/><text fill="#000000" font-family="sans-serif" font-size="14" lengthAdjust="spacing" textLength="50" x="404" y="74.5332">:System</text><rect fill="#FEFECE" filter="url(#f15zfar3nnnkiw)" height="31.6094" style="stroke:#A80036;stroke-width:1.5;" width="64" x="397" y="246.3672"/><text fill="#000000" font-family="sans-serif" font-size="14" lengthAdjust="spacing" textLength="50" x="404" y="267.9004">:System</text><rect fill="#FFFFFF" filter="url(#f15zfar3nnnkiw)" height="129.7578" style="stroke:#A80036;stroke-width:1.0;" width="10" x="42" y="99.6094"/><rect fill="#FFFFFF" filter="url(#f15zfar3nnnkiw)" height="46.7031" style="stroke:#A80036;stroke-width:1.0;" width="10" x="426" y="121.9609"/><rect fill="#FFFFFF" filter="url(#f15zfar3nnnkiw)" height="30.3516" style="stroke:#A80036;stroke-width:1.0;" width="10" x="426" y="199.0156"/><polygon fill="#A80036" points="414,117.9609,424,121.9609,414,125.9609,418,121.9609" style="stroke:#A80036;stroke-width:1.0;"/><line style="stroke:#A80036;stroke-width:1.0;" x1="52" x2="420" y1="121.9609" y2="121.9609"/><text fill="#000000" font-family="sans-serif" font-size="13" font-weight="bold" lengthAdjust="spacing" textLength="7" x="59" y="117.1045">1</text><text fill="#000000" font-family="sans-serif" font-size="13" lengthAdjust="spacing" textLength="132" x="70" y="117.1045">asks to register a User</text><polygon fill="#A80036" points="63,164.6641,53,168.6641,63,172.6641,59,168.6641" style="stroke:#A80036;stroke-width:1.0;"/><line style="stroke:#A80036;stroke-width:1.0;stroke-dasharray:2.0,2.0;" x1="57" x2="430" y1="168.6641" y2="168.6641"/><text fill="#000000" font-family="sans-serif" font-size="13" font-weight="bold" lengthAdjust="spacing" textLength="7" x="69" y="155.6318">2</text><text fill="#000000" font-family="sans-serif" font-size="13" lengthAdjust="spacing" textLength="339" x="80" y="147.4561">requests data (user's name, user's email, user's password,</text><text fill="#000000" font-family="sans-serif" font-size="13" lengthAdjust="spacing" textLength="211" x="84" y="163.8076">role id associated with an SNS user)</text><polygon fill="#A80036" points="414,195.0156,424,199.0156,414,203.0156,418,199.0156" style="stroke:#A80036;stroke-width:1.0;"/><line style="stroke:#A80036;stroke-width:1.0;" x1="52" x2="420" y1="199.0156" y2="199.0156"/><text fill="#000000" font-family="sans-serif" font-size="13" font-weight="bold" lengthAdjust="spacing" textLength="7" x="59" y="194.1592">3</text><text fill="#000000" font-family="sans-serif" font-size="13" lengthAdjust="spacing" textLength="122" x="70" y="194.1592">types requested data</text><polygon fill="#A80036" points="58,225.3672,48,229.3672,58,233.3672,54,229.3672" style="stroke:#A80036;stroke-width:1.0;"/><line style="stroke:#A80036;stroke-width:1.0;stroke-dasharray:2.0,2.0;" x1="52" x2="430" y1="229.3672" y2="229.3672"/><text fill="#000000" font-family="sans-serif" font-size="13" font-weight="bold" lengthAdjust="spacing" textLength="7" x="64" y="224.5107">4</text><text fill="#000000" font-family="sans-serif" font-size="13" lengthAdjust="spacing" textLength="152" x="75" y="224.5107">informs operation success</text><!--MD5=[8d51e26b52241dc627843c5c97cbf166]
@startuml

autonumber
actor "Receptionist" as R

activate R
R -> ":System" : asks to register a User
activate ":System"
":System" - -> R : requests data (user's name, user's email, user's password,\n role id associated with an SNS user)
deactivate ":System"

R -> ":System" : types requested data
activate ":System"
":System" - -> R : informs operation success
deactivate ":System"

deactivate R

@enduml

PlantUML version 1.2022.1(Tue Feb 01 18:19:58 GMT 2022)
(GPL source distribution)
Java Runtime: OpenJDK Runtime Environment
JVM: OpenJDK 64-Bit Server VM
Default Encoding: Cp1252
Language: en
Country: US
--></g></svg>