<?xml version="1.0" encoding="UTF-8" standalone="no"?><svg xmlns="http://www.w3.org/2000/svg" xmlns:xlink="http://www.w3.org/1999/xlink" contentScriptType="application/ecmascript" contentStyleType="text/css" height="295px" preserveAspectRatio="none" style="width:592px;height:295px;background:#FFFFFF;" version="1.1" viewBox="0 0 592 295" width="592px" zoomAndPan="magnify"><defs><filter height="300%" id="f1bnh484mtexh4" width="300%" x="-1" y="-1"><feGaussianBlur result="blurOut" stdDeviation="2.0"/><feColorMatrix in="blurOut" result="blurOut2" type="matrix" values="0 0 0 0 0 0 0 0 0 0 0 0 0 0 0 0 0 0 .4 0"/><feOffset dx="4.0" dy="4.0" in="blurOut2" result="blurOut3"/><feBlend in="SourceGraphic" in2="blurOut3" mode="normal"/></filter></defs><g><!--MD5=[02e4b9b7573f1156f41e60aa5b4e25a4]
class Company--><rect codeLine="7" fill="#FEFECE" filter="url(#f1bnh484mtexh4)" height="40" id="Company" style="stroke:#A80036;stroke-width:1.5;" width="85" x="7" y="137.5"/><ellipse cx="22" cy="153.5" fill="#ADD1B2" rx="11" ry="11" style="stroke:#A80036;stroke-width:1.0;"/><path d="M24,150 Q24.2031,149.5 24.4375,149.25 Q24.6719,149 24.9375,149 Q25.4063,149 25.7031,149.2813 Q26,149.5625 26,150.2188 L26,151.7813 Q26,152.4375 25.7188,152.7188 Q25.4375,153 25,153 Q24.6094,153 24.3594,152.8281 Q24.1094,152.6563 24,152.2031 Q23.9531,151.8906 23.7813,151.7188 Q23.4688,151.3906 22.9063,151.2031 Q22.3438,151 21.7813,151 Q21.0781,151 20.4844,151.2813 Q19.9063,151.5625 19.4531,152.1875 Q19,152.8125 19,153.6719 L19,154.5938 Q19,155.625 19.8438,156.3125 Q20.6875,157 22.1875,157 Q23.0781,157 23.7031,156.7969 Q24.0625,156.6875 24.4688,156.3281 Q24.7344,156.125 24.875,156.0625 Q25.0156,156 25.1875,156 Q25.5156,156 25.75,156.2656 Q26,156.5156 26,156.875 Q26,157.2188 25.6563,157.625 Q25.1563,158.2188 24.3594,158.5469 Q23.3125,159 22.0313,159 Q20.5313,159 19.3281,158.4063 Q18.3594,157.9375 17.6719,156.9219 Q17,155.9063 17,154.7031 L17,153.6094 Q17,152.3594 17.5938,151.2656 Q18.2031,150.1719 19.25,149.5938 Q20.3125,149 21.5,149 Q22.2188,149 22.8438,149.25 Q23.4688,149.5 24,150 Z " fill="#000000"/><text fill="#000000" font-family="sans-serif" font-size="12" lengthAdjust="spacing" textLength="53" x="36" y="158.4102">Company</text><line style="stroke:#A80036;stroke-width:1.5;" x1="8" x2="91" y1="169.5" y2="169.5"/><!--MD5=[de60e6d4f424ae4d0522096f76a59010]
class VaccinationCenter--><rect codeLine="10" fill="#FEFECE" filter="url(#f1bnh484mtexh4)" height="247.5391" id="VaccinationCenter" style="stroke:#A80036;stroke-width:1.5;" width="132" x="188" y="33.5"/><ellipse cx="203" cy="49.5" fill="#ADD1B2" rx="11" ry="11" style="stroke:#A80036;stroke-width:1.0;"/><path d="M205,46 Q205.2031,45.5 205.4375,45.25 Q205.6719,45 205.9375,45 Q206.4063,45 206.7031,45.2813 Q207,45.5625 207,46.2188 L207,47.7813 Q207,48.4375 206.7188,48.7188 Q206.4375,49 206,49 Q205.6094,49 205.3594,48.8281 Q205.1094,48.6563 205,48.2031 Q204.9531,47.8906 204.7813,47.7188 Q204.4688,47.3906 203.9063,47.2031 Q203.3438,47 202.7813,47 Q202.0781,47 201.4844,47.2813 Q200.9063,47.5625 200.4531,48.1875 Q200,48.8125 200,49.6719 L200,50.5938 Q200,51.625 200.8438,52.3125 Q201.6875,53 203.1875,53 Q204.0781,53 204.7031,52.7969 Q205.0625,52.6875 205.4688,52.3281 Q205.7344,52.125 205.875,52.0625 Q206.0156,52 206.1875,52 Q206.5156,52 206.75,52.2656 Q207,52.5156 207,52.875 Q207,53.2188 206.6563,53.625 Q206.1563,54.2188 205.3594,54.5469 Q204.3125,55 203.0313,55 Q201.5313,55 200.3281,54.4063 Q199.3594,53.9375 198.6719,52.9219 Q198,51.9063 198,50.7031 L198,49.6094 Q198,48.3594 198.5938,47.2656 Q199.2031,46.1719 200.25,45.5938 Q201.3125,45 202.5,45 Q203.2188,45 203.8438,45.25 Q204.4688,45.5 205,46 Z " fill="#000000"/><text fill="#000000" font-family="sans-serif" font-size="12" lengthAdjust="spacing" textLength="100" x="217" y="54.4102">VaccinationCenter</text><line style="stroke:#A80036;stroke-width:1.5;" x1="189" x2="319" y1="65.5" y2="65.5"/><text fill="#000000" font-family="sans-serif" font-size="11" lengthAdjust="spacing" textLength="12" x="194" y="80.9189">-id</text><text fill="#000000" font-family="sans-serif" font-size="11" lengthAdjust="spacing" textLength="30" x="194" y="94.7549">-name</text><text fill="#000000" font-family="sans-serif" font-size="11" lengthAdjust="spacing" textLength="71" x="194" y="108.5908">-phoneNumber</text><text fill="#000000" font-family="sans-serif" font-size="11" lengthAdjust="spacing" textLength="28" x="194" y="122.4268">-email</text><text fill="#000000" font-family="sans-serif" font-size="11" lengthAdjust="spacing" textLength="20" x="194" y="136.2627">-fax</text><text fill="#000000" font-family="sans-serif" font-size="11" lengthAdjust="spacing" textLength="43" x="194" y="150.0986">-website</text><text fill="#000000" font-family="sans-serif" font-size="11" lengthAdjust="spacing" textLength="65" x="194" y="163.9346">-openingHour</text><text fill="#000000" font-family="sans-serif" font-size="11" lengthAdjust="spacing" textLength="61" x="194" y="177.7705">-closingHour</text><text fill="#000000" font-family="sans-serif" font-size="11" lengthAdjust="spacing" textLength="61" x="194" y="191.6064">-slotDuration</text><text fill="#000000" font-family="sans-serif" font-size="11" lengthAdjust="spacing" textLength="82" x="194" y="205.4424">-vaccinesPerSlot</text><text fill="#000000" font-family="sans-serif" font-size="11" lengthAdjust="spacing" textLength="26" x="194" y="219.2783">-road</text><text fill="#000000" font-family="sans-serif" font-size="11" lengthAdjust="spacing" textLength="43" x="194" y="233.1143">-zipCode</text><text fill="#000000" font-family="sans-serif" font-size="11" lengthAdjust="spacing" textLength="26" x="194" y="246.9502">-local</text><text fill="#000000" font-family="sans-serif" font-size="11" lengthAdjust="spacing" textLength="100" x="194" y="260.7861">-centerCoordinatorID</text><text fill="#000000" font-family="sans-serif" font-size="11" lengthAdjust="spacing" textLength="57" x="194" y="274.6221">-arrivalsList</text><!--MD5=[1869ee9863863a0d2594cbfcdbe20ea7]
class VaccineBulletin--><rect codeLine="28" fill="#FEFECE" filter="url(#f1bnh484mtexh4)" height="95.3438" id="VaccineBulletin" style="stroke:#A80036;stroke-width:1.5;" width="117" x="438.5" y="7"/><ellipse cx="453.95" cy="23" fill="#ADD1B2" rx="11" ry="11" style="stroke:#A80036;stroke-width:1.0;"/><path d="M455.95,19.5 Q456.1531,19 456.3875,18.75 Q456.6219,18.5 456.8875,18.5 Q457.3563,18.5 457.6531,18.7813 Q457.95,19.0625 457.95,19.7188 L457.95,21.2813 Q457.95,21.9375 457.6688,22.2188 Q457.3875,22.5 456.95,22.5 Q456.5594,22.5 456.3094,22.3281 Q456.0594,22.1563 455.95,21.7031 Q455.9031,21.3906 455.7313,21.2188 Q455.4188,20.8906 454.8563,20.7031 Q454.2938,20.5 453.7313,20.5 Q453.0281,20.5 452.4344,20.7813 Q451.8563,21.0625 451.4031,21.6875 Q450.95,22.3125 450.95,23.1719 L450.95,24.0938 Q450.95,25.125 451.7938,25.8125 Q452.6375,26.5 454.1375,26.5 Q455.0281,26.5 455.6531,26.2969 Q456.0125,26.1875 456.4188,25.8281 Q456.6844,25.625 456.825,25.5625 Q456.9656,25.5 457.1375,25.5 Q457.4656,25.5 457.7,25.7656 Q457.95,26.0156 457.95,26.375 Q457.95,26.7188 457.6063,27.125 Q457.1063,27.7188 456.3094,28.0469 Q455.2625,28.5 453.9813,28.5 Q452.4813,28.5 451.2781,27.9063 Q450.3094,27.4375 449.6219,26.4219 Q448.95,25.4063 448.95,24.2031 L448.95,23.1094 Q448.95,21.8594 449.5438,20.7656 Q450.1531,19.6719 451.2,19.0938 Q452.2625,18.5 453.45,18.5 Q454.1688,18.5 454.7938,18.75 Q455.4188,19 455.95,19.5 Z " fill="#000000"/><text fill="#000000" font-family="sans-serif" font-size="12" lengthAdjust="spacing" textLength="84" x="468.05" y="27.9102">VaccineBulletin</text><line style="stroke:#A80036;stroke-width:1.5;" x1="439.5" x2="554.5" y1="39" y2="39"/><text fill="#000000" font-family="sans-serif" font-size="11" lengthAdjust="spacing" textLength="42" x="444.5" y="54.4189">-vaccine</text><text fill="#000000" font-family="sans-serif" font-size="11" lengthAdjust="spacing" textLength="105" x="444.5" y="68.2549">-dateTimeOfLastDose</text><text fill="#000000" font-family="sans-serif" font-size="11" lengthAdjust="spacing" textLength="65" x="444.5" y="82.0908">-doseNumber</text><text fill="#000000" font-family="sans-serif" font-size="11" lengthAdjust="spacing" textLength="52" x="444.5" y="95.9268">-lotNumber</text><!--MD5=[76480a6701b5d2883bc606a2560c3cfe]
class MassVaccinationCenter--><rect codeLine="35" fill="#FEFECE" filter="url(#f1bnh484mtexh4)" height="40" id="MassVaccinationCenter" style="stroke:#A80036;stroke-width:1.5;" width="162" x="416" y="137.5"/><ellipse cx="431" cy="153.5" fill="#ADD1B2" rx="11" ry="11" style="stroke:#A80036;stroke-width:1.0;"/><path d="M433,150 Q433.2031,149.5 433.4375,149.25 Q433.6719,149 433.9375,149 Q434.4063,149 434.7031,149.2813 Q435,149.5625 435,150.2188 L435,151.7813 Q435,152.4375 434.7188,152.7188 Q434.4375,153 434,153 Q433.6094,153 433.3594,152.8281 Q433.1094,152.6563 433,152.2031 Q432.9531,151.8906 432.7813,151.7188 Q432.4688,151.3906 431.9063,151.2031 Q431.3438,151 430.7813,151 Q430.0781,151 429.4844,151.2813 Q428.9063,151.5625 428.4531,152.1875 Q428,152.8125 428,153.6719 L428,154.5938 Q428,155.625 428.8438,156.3125 Q429.6875,157 431.1875,157 Q432.0781,157 432.7031,156.7969 Q433.0625,156.6875 433.4688,156.3281 Q433.7344,156.125 433.875,156.0625 Q434.0156,156 434.1875,156 Q434.5156,156 434.75,156.2656 Q435,156.5156 435,156.875 Q435,157.2188 434.6563,157.625 Q434.1563,158.2188 433.3594,158.5469 Q432.3125,159 431.0313,159 Q429.5313,159 428.3281,158.4063 Q427.3594,157.9375 426.6719,156.9219 Q426,155.9063 426,154.7031 L426,153.6094 Q426,152.3594 426.5938,151.2656 Q427.2031,150.1719 428.25,149.5938 Q429.3125,149 430.5,149 Q431.2188,149 431.8438,149.25 Q432.4688,149.5 433,150 Z " fill="#000000"/><text fill="#000000" font-family="sans-serif" font-size="12" lengthAdjust="spacing" textLength="130" x="445" y="158.4102">MassVaccinationCenter</text><line style="stroke:#A80036;stroke-width:1.5;" x1="417" x2="577" y1="169.5" y2="169.5"/><!--MD5=[0b1ce5251ebf137e6b3550dd84e6af65]
class HealthcareCenter--><rect codeLine="39" fill="#FEFECE" filter="url(#f1bnh484mtexh4)" height="67.6719" id="HealthcareCenter" style="stroke:#A80036;stroke-width:1.5;" width="129" x="432.5" y="212.5"/><ellipse cx="447.5" cy="228.5" fill="#ADD1B2" rx="11" ry="11" style="stroke:#A80036;stroke-width:1.0;"/><path d="M449.5,225 Q449.7031,224.5 449.9375,224.25 Q450.1719,224 450.4375,224 Q450.9063,224 451.2031,224.2813 Q451.5,224.5625 451.5,225.2188 L451.5,226.7813 Q451.5,227.4375 451.2188,227.7188 Q450.9375,228 450.5,228 Q450.1094,228 449.8594,227.8281 Q449.6094,227.6563 449.5,227.2031 Q449.4531,226.8906 449.2813,226.7188 Q448.9688,226.3906 448.4063,226.2031 Q447.8438,226 447.2813,226 Q446.5781,226 445.9844,226.2813 Q445.4063,226.5625 444.9531,227.1875 Q444.5,227.8125 444.5,228.6719 L444.5,229.5938 Q444.5,230.625 445.3438,231.3125 Q446.1875,232 447.6875,232 Q448.5781,232 449.2031,231.7969 Q449.5625,231.6875 449.9688,231.3281 Q450.2344,231.125 450.375,231.0625 Q450.5156,231 450.6875,231 Q451.0156,231 451.25,231.2656 Q451.5,231.5156 451.5,231.875 Q451.5,232.2188 451.1563,232.625 Q450.6563,233.2188 449.8594,233.5469 Q448.8125,234 447.5313,234 Q446.0313,234 444.8281,233.4063 Q443.8594,232.9375 443.1719,231.9219 Q442.5,230.9063 442.5,229.7031 L442.5,228.6094 Q442.5,227.3594 443.0938,226.2656 Q443.7031,225.1719 444.75,224.5938 Q445.8125,224 447,224 Q447.7188,224 448.3438,224.25 Q448.9688,224.5 449.5,225 Z " fill="#000000"/><text fill="#000000" font-family="sans-serif" font-size="12" lengthAdjust="spacing" textLength="97" x="461.5" y="233.4102">HealthcareCenter</text><line style="stroke:#A80036;stroke-width:1.5;" x1="433.5" x2="560.5" y1="244.5" y2="244.5"/><text fill="#000000" font-family="sans-serif" font-size="11" lengthAdjust="spacing" textLength="25" x="438.5" y="259.9189">-ARE</text><text fill="#000000" font-family="sans-serif" font-size="11" lengthAdjust="spacing" textLength="33" x="438.5" y="273.7549">-AGES</text><!--MD5=[a09fc339ad85d4e67aa3195beeccb7d9]
reverse link VaccinationCenter to MassVaccinationCenter--><path d="M340.23,157.5 C364.76,157.5 391.44,157.5 415.67,157.5 " fill="none" id="VaccinationCenter-backto-MassVaccinationCenter" style="stroke:#A80036;stroke-width:1.0;"/><polygon fill="none" points="340.22,164.5,320.22,157.5,340.22,150.5,340.22,164.5" style="stroke:#A80036;stroke-width:1.0;"/><!--MD5=[860a319d9f073c66a49856aa2bd7c3ed]
reverse link VaccinationCenter to HealthcareCenter--><path d="M339.24,188.61 C369.84,199.91 403.88,212.48 432.4,223.01 " fill="none" id="VaccinationCenter-backto-HealthcareCenter" style="stroke:#A80036;stroke-width:1.0;"/><polygon fill="none" points="336.55,195.08,320.22,181.58,341.4,181.95,336.55,195.08" style="stroke:#A80036;stroke-width:1.0;"/><!--MD5=[eebe9b198877275d05dd12630ed9e401]
link Company to VaccinationCenter--><path codeLine="44" d="M92.46,157.5 C120.03,157.5 156.66,157.5 187.97,157.5 " fill="none" id="Company-VaccinationCenter" style="stroke:#A80036;stroke-width:1.0;"/><polygon fill="#000000" points="132,148.6758,122.9549,145.7369,122.9549,151.6147,132,148.6758" style="stroke:#000000;stroke-width:1.0;"/><text fill="#000000" font-family="sans-serif" font-size="13" lengthAdjust="spacing" textLength="21" x="136" y="153.9951">has</text><text fill="#000000" font-family="sans-serif" font-size="13" lengthAdjust="spacing" textLength="7" x="99.8646" y="172.2981">1</text><text fill="#000000" font-family="sans-serif" font-size="13" lengthAdjust="spacing" textLength="5" x="175.0462" y="171.9671">*</text><!--MD5=[774a620e86274462c922c31d6e1ab62f]
link VaccinationCenter to VaccineBulletin--><path codeLine="45" d="M320.22,129.63 C357.02,113.9 402.6,94.42 438.13,79.23 " fill="none" id="VaccinationCenter-VaccineBulletin" style="stroke:#A80036;stroke-width:1.0;"/><polygon fill="#000000" points="359.5976,92.7106,350.1253,93.5633,352.4356,98.9681,359.5976,92.7106" style="stroke:#000000;stroke-width:1.0;"/><text fill="#000000" font-family="sans-serif" font-size="13" lengthAdjust="spacing" textLength="21" x="364" y="99.9951">has</text><text fill="#000000" font-family="sans-serif" font-size="13" lengthAdjust="spacing" textLength="7" x="327.8456" y="140.9963">1</text><text fill="#000000" font-family="sans-serif" font-size="13" lengthAdjust="spacing" textLength="5" x="425.6505" y="96.7146">*</text><!--MD5=[c8d88bbd1476000bb60eb4d362e6d274]
@startuml
'https://plantuml.com/class-diagram

left to right direction
skinparam classAttributeIconSize 0
hide methods

Class Company{
}

Class VaccinationCenter{
-id
-name
-phoneNumber
-email
-fax
-website
-openingHour
-closingHour
-slotDuration
-vaccinesPerSlot
-road
-zipCode
-local
-centerCoordinatorID
-arrivalsList
}

Class VaccineBulletin{
-vaccine
-dateTimeOfLastDose
-doseNumber
-lotNumber
}

class MassVaccinationCenter extends VaccinationCenter {

}

class HealthcareCenter extends VaccinationCenter {
-ARE
-AGES
}

Company "1" - - "*" VaccinationCenter: has >
VaccinationCenter"1" - - "*"VaccineBulletin: has >
@enduml

@startuml

left to right direction
skinparam classAttributeIconSize 0
hide methods

Class Company{
}

Class VaccinationCenter{
-id
-name
-phoneNumber
-email
-fax
-website
-openingHour
-closingHour
-slotDuration
-vaccinesPerSlot
-road
-zipCode
-local
-centerCoordinatorID
-arrivalsList
}

Class VaccineBulletin{
-vaccine
-dateTimeOfLastDose
-doseNumber
-lotNumber
}

class MassVaccinationCenter extends VaccinationCenter {

}

class HealthcareCenter extends VaccinationCenter {
-ARE
-AGES
}

Company "1" - - "*" VaccinationCenter: has >
VaccinationCenter"1" - - "*"VaccineBulletin: has >
@enduml

PlantUML version 1.2022.1(Tue Feb 01 18:19:58 GMT 2022)
(GPL source distribution)
Java Runtime: OpenJDK Runtime Environment
JVM: OpenJDK 64-Bit Server VM
Default Encoding: Cp1252
Language: pt
Country: PT
--></g></svg>