<?xml version="1.0" encoding="UTF-8" standalone="no"?><svg xmlns="http://www.w3.org/2000/svg" xmlns:xlink="http://www.w3.org/1999/xlink" contentScriptType="application/ecmascript" contentStyleType="text/css" height="290px" preserveAspectRatio="none" style="width:554px;height:290px;background:#FFFFFF;" version="1.1" viewBox="0 0 554 290" width="554px" zoomAndPan="magnify"><defs><filter height="300%" id="fl9aqfd7n7ga9" width="300%" x="-1" y="-1"><feGaussianBlur result="blurOut" stdDeviation="2.0"/><feColorMatrix in="blurOut" result="blurOut2" type="matrix" values="0 0 0 0 0 0 0 0 0 0 0 0 0 0 0 0 0 0 .4 0"/><feOffset dx="4.0" dy="4.0" in="blurOut2" result="blurOut3"/><feBlend in="SourceGraphic" in2="blurOut3" mode="normal"/></filter></defs><g><!--MD5=[335f4d9be48430461c68bf6d6fdba145]
class App--><rect codeLine="6" fill="#FEFECE" filter="url(#fl9aqfd7n7ga9)" height="61.8359" id="App" style="stroke:#A80036;stroke-width:1.5;" width="94" x="64" y="57.5"/><ellipse cx="97.45" cy="73.5" fill="#ADD1B2" rx="11" ry="11" style="stroke:#A80036;stroke-width:1.0;"/><path d="M99.45,70 Q99.6531,69.5 99.8875,69.25 Q100.1219,69 100.3875,69 Q100.8563,69 101.1531,69.2813 Q101.45,69.5625 101.45,70.2188 L101.45,71.7813 Q101.45,72.4375 101.1688,72.7188 Q100.8875,73 100.45,73 Q100.0594,73 99.8094,72.8281 Q99.5594,72.6563 99.45,72.2031 Q99.4031,71.8906 99.2313,71.7188 Q98.9188,71.3906 98.3563,71.2031 Q97.7938,71 97.2313,71 Q96.5281,71 95.9344,71.2813 Q95.3563,71.5625 94.9031,72.1875 Q94.45,72.8125 94.45,73.6719 L94.45,74.5938 Q94.45,75.625 95.2938,76.3125 Q96.1375,77 97.6375,77 Q98.5281,77 99.1531,76.7969 Q99.5125,76.6875 99.9188,76.3281 Q100.1844,76.125 100.325,76.0625 Q100.4656,76 100.6375,76 Q100.9656,76 101.2,76.2656 Q101.45,76.5156 101.45,76.875 Q101.45,77.2188 101.1063,77.625 Q100.6063,78.2188 99.8094,78.5469 Q98.7625,79 97.4813,79 Q95.9813,79 94.7781,78.4063 Q93.8094,77.9375 93.1219,76.9219 Q92.45,75.9063 92.45,74.7031 L92.45,73.6094 Q92.45,72.3594 93.0438,71.2656 Q93.6531,70.1719 94.7,69.5938 Q95.7625,69 96.95,69 Q97.6688,69 98.2938,69.25 Q98.9188,69.5 99.45,70 Z " fill="#000000"/><text fill="#000000" font-family="sans-serif" font-size="12" lengthAdjust="spacing" textLength="21" x="115.55" y="78.4102">App</text><line style="stroke:#A80036;stroke-width:1.5;" x1="65" x2="157" y1="89.5" y2="89.5"/><line style="stroke:#A80036;stroke-width:1.5;" x1="65" x2="157" y1="97.5" y2="97.5"/><text fill="#000000" font-family="sans-serif" font-size="11" lengthAdjust="spacing" textLength="82" x="70" y="112.9189">+runDailyTasks()</text><!--MD5=[de60e6d4f424ae4d0522096f76a59010]
class VaccinationCenter--><rect codeLine="10" fill="#FEFECE" filter="url(#fl9aqfd7n7ga9)" height="269.375" id="VaccinationCenter" style="stroke:#A80036;stroke-width:1.5;" width="167" x="373" y="7"/><ellipse cx="403.75" cy="23" fill="#ADD1B2" rx="11" ry="11" style="stroke:#A80036;stroke-width:1.0;"/><path d="M405.75,19.5 Q405.9531,19 406.1875,18.75 Q406.4219,18.5 406.6875,18.5 Q407.1563,18.5 407.4531,18.7813 Q407.75,19.0625 407.75,19.7188 L407.75,21.2813 Q407.75,21.9375 407.4688,22.2188 Q407.1875,22.5 406.75,22.5 Q406.3594,22.5 406.1094,22.3281 Q405.8594,22.1563 405.75,21.7031 Q405.7031,21.3906 405.5313,21.2188 Q405.2188,20.8906 404.6563,20.7031 Q404.0938,20.5 403.5313,20.5 Q402.8281,20.5 402.2344,20.7813 Q401.6563,21.0625 401.2031,21.6875 Q400.75,22.3125 400.75,23.1719 L400.75,24.0938 Q400.75,25.125 401.5938,25.8125 Q402.4375,26.5 403.9375,26.5 Q404.8281,26.5 405.4531,26.2969 Q405.8125,26.1875 406.2188,25.8281 Q406.4844,25.625 406.625,25.5625 Q406.7656,25.5 406.9375,25.5 Q407.2656,25.5 407.5,25.7656 Q407.75,26.0156 407.75,26.375 Q407.75,26.7188 407.4063,27.125 Q406.9063,27.7188 406.1094,28.0469 Q405.0625,28.5 403.7813,28.5 Q402.2813,28.5 401.0781,27.9063 Q400.1094,27.4375 399.4219,26.4219 Q398.75,25.4063 398.75,24.2031 L398.75,23.1094 Q398.75,21.8594 399.3438,20.7656 Q399.9531,19.6719 401,19.0938 Q402.0625,18.5 403.25,18.5 Q403.9688,18.5 404.5938,18.75 Q405.2188,19 405.75,19.5 Z " fill="#000000"/><text fill="#000000" font-family="sans-serif" font-size="12" lengthAdjust="spacing" textLength="100" x="421.25" y="27.9102">VaccinationCenter</text><line style="stroke:#A80036;stroke-width:1.5;" x1="374" x2="539" y1="39" y2="39"/><text fill="#000000" font-family="sans-serif" font-size="11" lengthAdjust="spacing" textLength="12" x="379" y="54.4189">-id</text><text fill="#000000" font-family="sans-serif" font-size="11" lengthAdjust="spacing" textLength="30" x="379" y="68.2549">-name</text><text fill="#000000" font-family="sans-serif" font-size="11" lengthAdjust="spacing" textLength="71" x="379" y="82.0908">-phoneNumber</text><text fill="#000000" font-family="sans-serif" font-size="11" lengthAdjust="spacing" textLength="28" x="379" y="95.9268">-email</text><text fill="#000000" font-family="sans-serif" font-size="11" lengthAdjust="spacing" textLength="20" x="379" y="109.7627">-fax</text><text fill="#000000" font-family="sans-serif" font-size="11" lengthAdjust="spacing" textLength="43" x="379" y="123.5986">-website</text><text fill="#000000" font-family="sans-serif" font-size="11" lengthAdjust="spacing" textLength="65" x="379" y="137.4346">-openingHour</text><text fill="#000000" font-family="sans-serif" font-size="11" lengthAdjust="spacing" textLength="61" x="379" y="151.2705">-closingHour</text><text fill="#000000" font-family="sans-serif" font-size="11" lengthAdjust="spacing" textLength="61" x="379" y="165.1064">-slotDuration</text><text fill="#000000" font-family="sans-serif" font-size="11" lengthAdjust="spacing" textLength="82" x="379" y="178.9424">-vaccinesPerSlot</text><text fill="#000000" font-family="sans-serif" font-size="11" lengthAdjust="spacing" textLength="26" x="379" y="192.7783">-road</text><text fill="#000000" font-family="sans-serif" font-size="11" lengthAdjust="spacing" textLength="43" x="379" y="206.6143">-zipCode</text><text fill="#000000" font-family="sans-serif" font-size="11" lengthAdjust="spacing" textLength="26" x="379" y="220.4502">-local</text><text fill="#000000" font-family="sans-serif" font-size="11" lengthAdjust="spacing" textLength="100" x="379" y="234.2861">-centerCoordinatorID</text><text fill="#000000" font-family="sans-serif" font-size="11" lengthAdjust="spacing" textLength="57" x="379" y="248.1221">-arrivalsList</text><line style="stroke:#A80036;stroke-width:1.5;" x1="374" x2="539" y1="254.5391" y2="254.5391"/><text fill="#000000" font-family="sans-serif" font-size="11" lengthAdjust="spacing" textLength="155" x="379" y="269.958">+getVaccinesAdministeredList()</text><!--MD5=[02e4b9b7573f1156f41e60aa5b4e25a4]
class Company--><rect codeLine="30" fill="#FEFECE" filter="url(#fl9aqfd7n7ga9)" height="75.6719" id="Company" style="stroke:#A80036;stroke-width:1.5;" width="208" x="7" y="154.5"/><ellipse cx="80.25" cy="170.5" fill="#ADD1B2" rx="11" ry="11" style="stroke:#A80036;stroke-width:1.0;"/><path d="M82.25,167 Q82.4531,166.5 82.6875,166.25 Q82.9219,166 83.1875,166 Q83.6563,166 83.9531,166.2813 Q84.25,166.5625 84.25,167.2188 L84.25,168.7813 Q84.25,169.4375 83.9688,169.7188 Q83.6875,170 83.25,170 Q82.8594,170 82.6094,169.8281 Q82.3594,169.6563 82.25,169.2031 Q82.2031,168.8906 82.0313,168.7188 Q81.7188,168.3906 81.1563,168.2031 Q80.5938,168 80.0313,168 Q79.3281,168 78.7344,168.2813 Q78.1563,168.5625 77.7031,169.1875 Q77.25,169.8125 77.25,170.6719 L77.25,171.5938 Q77.25,172.625 78.0938,173.3125 Q78.9375,174 80.4375,174 Q81.3281,174 81.9531,173.7969 Q82.3125,173.6875 82.7188,173.3281 Q82.9844,173.125 83.125,173.0625 Q83.2656,173 83.4375,173 Q83.7656,173 84,173.2656 Q84.25,173.5156 84.25,173.875 Q84.25,174.2188 83.9063,174.625 Q83.4063,175.2188 82.6094,175.5469 Q81.5625,176 80.2813,176 Q78.7813,176 77.5781,175.4063 Q76.6094,174.9375 75.9219,173.9219 Q75.25,172.9063 75.25,171.7031 L75.25,170.6094 Q75.25,169.3594 75.8438,168.2656 Q76.4531,167.1719 77.5,166.5938 Q78.5625,166 79.75,166 Q80.4688,166 81.0938,166.25 Q81.7188,166.5 82.25,167 Z " fill="#000000"/><text fill="#000000" font-family="sans-serif" font-size="12" lengthAdjust="spacing" textLength="53" x="100.75" y="175.4102">Company</text><line style="stroke:#A80036;stroke-width:1.5;" x1="8" x2="214" y1="186.5" y2="186.5"/><text fill="#000000" font-family="sans-serif" font-size="11" lengthAdjust="spacing" textLength="119" x="13" y="201.9189">-VaccinationCenterStore</text><line style="stroke:#A80036;stroke-width:1.5;" x1="8" x2="214" y1="208.3359" y2="208.3359"/><text fill="#000000" font-family="sans-serif" font-size="11" lengthAdjust="spacing" textLength="196" x="13" y="223.7549">+registerDailyTotalOfPeopleVaccinated()</text><!--MD5=[5b0f1873c15ced29becf7ded48d12cb7]
link App to Company--><path codeLine="39" d="M111,119.61 C111,129.46 111,139.31 111,149.16 " fill="none" id="App-to-Company" style="stroke:#A80036;stroke-width:1.0;stroke-dasharray:7.0,7.0;"/><polygon fill="#A80036" points="111,154.31,115,145.31,111,149.31,107,145.31,111,154.31" style="stroke:#A80036;stroke-width:1.0;"/><!--MD5=[c8535503369a009968b8e41a00575991]
link App to VaccinationCenter--><path codeLine="40" d="M158.33,95.65 C211.78,103.9 300.87,117.64 367.6,127.94 " fill="none" id="App-to-VaccinationCenter" style="stroke:#A80036;stroke-width:1.0;stroke-dasharray:7.0,7.0;"/><polygon fill="#A80036" points="372.76,128.73,364.4694,123.4134,367.8176,127.9729,363.2581,131.3212,372.76,128.73" style="stroke:#A80036;stroke-width:1.0;"/><!--MD5=[eebe9b198877275d05dd12630ed9e401]
link Company to VaccinationCenter--><path codeLine="41" d="M215.06,177.2 C265.55,169.7 325.53,160.8 372.94,153.76 " fill="none" id="Company-VaccinationCenter" style="stroke:#A80036;stroke-width:1.0;"/><polygon fill="#000000" points="285.9458,153.9415,276.5672,152.3628,277.4304,158.1769,285.9458,153.9415" style="stroke:#000000;stroke-width:1.0;"/><text fill="#000000" font-family="sans-serif" font-size="13" lengthAdjust="spacing" textLength="21" x="290" y="159.9951">has</text><text fill="#000000" font-family="sans-serif" font-size="13" lengthAdjust="spacing" textLength="7" x="222.9589" y="190.184">1</text><text fill="#000000" font-family="sans-serif" font-size="13" lengthAdjust="spacing" textLength="5" x="360.0063" y="169.1218">*</text><!--MD5=[1ef87d2e7a1b24ec8916ce8884c3510a]
@startuml
'https://plantuml.com/class-diagram

skinparam classAttributeIconSize 0


class App{
+runDailyTasks()
}

class VaccinationCenter{
-id
-name
-phoneNumber
-email
-fax
-website
-openingHour
-closingHour
-slotDuration
-vaccinesPerSlot
-road
-zipCode
-local
-centerCoordinatorID
-arrivalsList
+getVaccinesAdministeredList()
}


class Company{
-VaccinationCenterStore
+registerDailyTotalOfPeopleVaccinated()
}


left to right direction


App .r.> Company
App .>VaccinationCenter
Company"1" - - - "*"VaccinationCenter: > has
@enduml

@startuml

skinparam classAttributeIconSize 0


class App{
+runDailyTasks()
}

class VaccinationCenter{
-id
-name
-phoneNumber
-email
-fax
-website
-openingHour
-closingHour
-slotDuration
-vaccinesPerSlot
-road
-zipCode
-local
-centerCoordinatorID
-arrivalsList
+getVaccinesAdministeredList()
}


class Company{
-VaccinationCenterStore
+registerDailyTotalOfPeopleVaccinated()
}


left to right direction


App .r.> Company
App .>VaccinationCenter
Company"1" - - - "*"VaccinationCenter: > has
@enduml

PlantUML version 1.2022.1(Tue Feb 01 18:19:58 GMT 2022)
(GPL source distribution)
Java Runtime: OpenJDK Runtime Environment
JVM: OpenJDK 64-Bit Server VM
Default Encoding: Cp1252
Language: pt
Country: PT
--></g></svg>