<?xml version="1.0" encoding="UTF-8" standalone="no"?><svg xmlns="http://www.w3.org/2000/svg" xmlns:xlink="http://www.w3.org/1999/xlink" contentStyleType="text/css" height="79px" preserveAspectRatio="none" style="width:659px;height:79px;background:#FFFFFF;" version="1.1" viewBox="0 0 659 79" width="659px" zoomAndPan="magnify"><defs/><g><!--MD5=[335f4d9be48430461c68bf6d6fdba145]
class App--><g id="elem_App"><rect codeLine="6" fill="#F1F1F1" height="65.6094" id="App" rx="2.5" ry="2.5" style="stroke:#181818;stroke-width:0.5;" width="126" x="7" y="7"/><ellipse cx="53.25" cy="23" fill="#ADD1B2" rx="11" ry="11" style="stroke:#181818;stroke-width:1.0;"/><path d="M55.25,19.5 Q55.4531,19 55.6875,18.75 Q55.9219,18.5 56.1875,18.5 Q56.6563,18.5 56.9531,18.7813 Q57.25,19.0625 57.25,19.7188 L57.25,21.2813 Q57.25,21.9375 56.9688,22.2188 Q56.6875,22.5 56.25,22.5 Q55.8594,22.5 55.6094,22.3281 Q55.3594,22.1563 55.25,21.7031 Q55.2031,21.3906 55.0313,21.2188 Q54.7188,20.8906 54.1563,20.7031 Q53.5938,20.5 53.0313,20.5 Q52.3281,20.5 51.7344,20.7813 Q51.1563,21.0625 50.7031,21.6875 Q50.25,22.3125 50.25,23.1719 L50.25,24.0938 Q50.25,25.125 51.0938,25.8125 Q51.9375,26.5 53.4375,26.5 Q54.3281,26.5 54.9531,26.2969 Q55.3125,26.1875 55.7188,25.8281 Q55.9844,25.625 56.125,25.5625 Q56.2656,25.5 56.4375,25.5 Q56.7656,25.5 57,25.7656 Q57.25,26.0156 57.25,26.375 Q57.25,26.7188 56.9063,27.125 Q56.4063,27.7188 55.6094,28.0469 Q54.5625,28.5 53.2813,28.5 Q51.7813,28.5 50.5781,27.9063 Q49.6094,27.4375 48.9219,26.4219 Q48.25,25.4063 48.25,24.2031 L48.25,23.1094 Q48.25,21.8594 48.8438,20.7656 Q49.4531,19.6719 50.5,19.0938 Q51.5625,18.5 52.75,18.5 Q53.4688,18.5 54.0938,18.75 Q54.7188,19 55.25,19.5 Z " fill="#000000"/><text fill="#000000" font-family="sans-serif" font-size="14" lengthAdjust="spacing" textLength="25" x="73.75" y="28.7285">App</text><line style="stroke:#181818;stroke-width:0.5;" x1="8" x2="132" y1="39" y2="39"/><line style="stroke:#181818;stroke-width:0.5;" x1="8" x2="132" y1="47" y2="47"/><ellipse cx="18" cy="58" fill="#84BE84" rx="3" ry="3" style="stroke:#038048;stroke-width:1.0;"/><text fill="#000000" font-family="sans-serif" font-size="14" lengthAdjust="spacing" textLength="100" x="27" y="65.5332">runDailyTasks()</text></g><!--MD5=[02e4b9b7573f1156f41e60aa5b4e25a4]
class Company--><g id="elem_Company"><rect codeLine="11" fill="#F1F1F1" height="65.6094" id="Company" rx="2.5" ry="2.5" style="stroke:#181818;stroke-width:0.5;" width="276" x="376" y="7"/><ellipse cx="479.75" cy="23" fill="#ADD1B2" rx="11" ry="11" style="stroke:#181818;stroke-width:1.0;"/><path d="M481.75,19.5 Q481.9531,19 482.1875,18.75 Q482.4219,18.5 482.6875,18.5 Q483.1563,18.5 483.4531,18.7813 Q483.75,19.0625 483.75,19.7188 L483.75,21.2813 Q483.75,21.9375 483.4688,22.2188 Q483.1875,22.5 482.75,22.5 Q482.3594,22.5 482.1094,22.3281 Q481.8594,22.1563 481.75,21.7031 Q481.7031,21.3906 481.5313,21.2188 Q481.2188,20.8906 480.6563,20.7031 Q480.0938,20.5 479.5313,20.5 Q478.8281,20.5 478.2344,20.7813 Q477.6563,21.0625 477.2031,21.6875 Q476.75,22.3125 476.75,23.1719 L476.75,24.0938 Q476.75,25.125 477.5938,25.8125 Q478.4375,26.5 479.9375,26.5 Q480.8281,26.5 481.4531,26.2969 Q481.8125,26.1875 482.2188,25.8281 Q482.4844,25.625 482.625,25.5625 Q482.7656,25.5 482.9375,25.5 Q483.2656,25.5 483.5,25.7656 Q483.75,26.0156 483.75,26.375 Q483.75,26.7188 483.4063,27.125 Q482.9063,27.7188 482.1094,28.0469 Q481.0625,28.5 479.7813,28.5 Q478.2813,28.5 477.0781,27.9063 Q476.1094,27.4375 475.4219,26.4219 Q474.75,25.4063 474.75,24.2031 L474.75,23.1094 Q474.75,21.8594 475.3438,20.7656 Q475.9531,19.6719 477,19.0938 Q478.0625,18.5 479.25,18.5 Q479.9688,18.5 480.5938,18.75 Q481.2188,19 481.75,19.5 Z " fill="#000000"/><text fill="#000000" font-family="sans-serif" font-size="14" lengthAdjust="spacing" textLength="60" x="500.25" y="28.7285">Company</text><line style="stroke:#181818;stroke-width:0.5;" x1="377" x2="651" y1="39" y2="39"/><line style="stroke:#181818;stroke-width:0.5;" x1="377" x2="651" y1="47" y2="47"/><ellipse cx="387" cy="58" fill="#84BE84" rx="3" ry="3" style="stroke:#038048;stroke-width:1.0;"/><text fill="#000000" font-family="sans-serif" font-size="14" lengthAdjust="spacing" textLength="250" x="396" y="65.5332">registerDailyTotalOfPeopleVaccinated()</text></g><!--MD5=[5b0f1873c15ced29becf7ded48d12cb7]
link App to Company--><g id="link_App_Company"><path codeLine="19" d="M133.39,40 C194.75,40 290.58,40 370.6,40 " fill="none" id="App-to-Company" style="stroke:#181818;stroke-width:1.0;stroke-dasharray:7.0,7.0;"/><polygon fill="#181818" points="375.85,40,366.85,36,370.85,40,366.85,44,375.85,40" style="stroke:#181818;stroke-width:1.0;"/></g><!--MD5=[76dfee1a10ead694e390266bd2395f1d]
@startuml
'https://plantuml.com/class-diagram




class App{
+runDailyTasks()
}


class Company{
+registerDailyTotalOfPeopleVaccinated()
}


left to right direction


App .....> Company


@enduml

@startuml




class App{
+runDailyTasks()
}


class Company{
+registerDailyTotalOfPeopleVaccinated()
}


left to right direction


App .....> Company


@enduml

PlantUML version 1.2022.5(Sat Apr 30 11:55:52 BST 2022)
(GPL source distribution)
Java Runtime: OpenJDK Runtime Environment
JVM: OpenJDK 64-Bit Server VM
Default Encoding: Cp1252
Language: pt
Country: PT
--></g></svg>