<?xml version="1.0" encoding="UTF-8" standalone="no"?><svg xmlns="http://www.w3.org/2000/svg" xmlns:xlink="http://www.w3.org/1999/xlink" contentStyleType="text/css" height="393px" preserveAspectRatio="none" style="width:629px;height:393px;background:#FFFFFF;" version="1.1" viewBox="0 0 629 393" width="629px" zoomAndPan="magnify"><defs/><g><!--MD5=[02e4b9b7573f1156f41e60aa5b4e25a4]
class Company--><g id="elem_Company"><rect codeLine="7" fill="#F1F1F1" height="40" id="Company" rx="2.5" ry="2.5" style="stroke:#181818;stroke-width:0.5;" width="92" x="7" y="317"/><ellipse cx="22" cy="333" fill="#ADD1B2" rx="11" ry="11" style="stroke:#181818;stroke-width:1.0;"/><path d="M24,329.5 Q24.2031,329 24.4375,328.75 Q24.6719,328.5 24.9375,328.5 Q25.4063,328.5 25.7031,328.7813 Q26,329.0625 26,329.7188 L26,331.2813 Q26,331.9375 25.7188,332.2188 Q25.4375,332.5 25,332.5 Q24.6094,332.5 24.3594,332.3281 Q24.1094,332.1563 24,331.7031 Q23.9531,331.3906 23.7813,331.2188 Q23.4688,330.8906 22.9063,330.7031 Q22.3438,330.5 21.7813,330.5 Q21.0781,330.5 20.4844,330.7813 Q19.9063,331.0625 19.4531,331.6875 Q19,332.3125 19,333.1719 L19,334.0938 Q19,335.125 19.8438,335.8125 Q20.6875,336.5 22.1875,336.5 Q23.0781,336.5 23.7031,336.2969 Q24.0625,336.1875 24.4688,335.8281 Q24.7344,335.625 24.875,335.5625 Q25.0156,335.5 25.1875,335.5 Q25.5156,335.5 25.75,335.7656 Q26,336.0156 26,336.375 Q26,336.7188 25.6563,337.125 Q25.1563,337.7188 24.3594,338.0469 Q23.3125,338.5 22.0313,338.5 Q20.5313,338.5 19.3281,337.9063 Q18.3594,337.4375 17.6719,336.4219 Q17,335.4063 17,334.2031 L17,333.1094 Q17,331.8594 17.5938,330.7656 Q18.2031,329.6719 19.25,329.0938 Q20.3125,328.5 21.5,328.5 Q22.2188,328.5 22.8438,328.75 Q23.4688,329 24,329.5 Z " fill="#000000"/><text fill="#000000" font-family="sans-serif" font-size="14" lengthAdjust="spacing" textLength="60" x="36" y="338.7285">Company</text><line style="stroke:#181818;stroke-width:0.5;" x1="8" x2="98" y1="349" y2="349"/></g><!--MD5=[de60e6d4f424ae4d0522096f76a59010]
class VaccinationCenter--><g id="elem_VaccinationCenter"><rect codeLine="10" fill="#F1F1F1" height="304.1406" id="VaccinationCenter" rx="2.5" ry="2.5" style="stroke:#181818;stroke-width:0.5;" width="148" x="227" y="7"/><ellipse cx="242" cy="23" fill="#ADD1B2" rx="11" ry="11" style="stroke:#181818;stroke-width:1.0;"/><path d="M244,19.5 Q244.2031,19 244.4375,18.75 Q244.6719,18.5 244.9375,18.5 Q245.4063,18.5 245.7031,18.7813 Q246,19.0625 246,19.7188 L246,21.2813 Q246,21.9375 245.7188,22.2188 Q245.4375,22.5 245,22.5 Q244.6094,22.5 244.3594,22.3281 Q244.1094,22.1563 244,21.7031 Q243.9531,21.3906 243.7813,21.2188 Q243.4688,20.8906 242.9063,20.7031 Q242.3438,20.5 241.7813,20.5 Q241.0781,20.5 240.4844,20.7813 Q239.9063,21.0625 239.4531,21.6875 Q239,22.3125 239,23.1719 L239,24.0938 Q239,25.125 239.8438,25.8125 Q240.6875,26.5 242.1875,26.5 Q243.0781,26.5 243.7031,26.2969 Q244.0625,26.1875 244.4688,25.8281 Q244.7344,25.625 244.875,25.5625 Q245.0156,25.5 245.1875,25.5 Q245.5156,25.5 245.75,25.7656 Q246,26.0156 246,26.375 Q246,26.7188 245.6563,27.125 Q245.1563,27.7188 244.3594,28.0469 Q243.3125,28.5 242.0313,28.5 Q240.5313,28.5 239.3281,27.9063 Q238.3594,27.4375 237.6719,26.4219 Q237,25.4063 237,24.2031 L237,23.1094 Q237,21.8594 237.5938,20.7656 Q238.2031,19.6719 239.25,19.0938 Q240.3125,18.5 241.5,18.5 Q242.2188,18.5 242.8438,18.75 Q243.4688,19 244,19.5 Z " fill="#000000"/><text fill="#000000" font-family="sans-serif" font-size="14" lengthAdjust="spacing" textLength="116" x="256" y="28.7285">VaccinationCenter</text><line style="stroke:#181818;stroke-width:0.5;" x1="228" x2="374" y1="39" y2="39"/><text fill="#000000" font-family="sans-serif" font-size="14" lengthAdjust="spacing" textLength="16" x="233" y="57.5332">-id</text><text fill="#000000" font-family="sans-serif" font-size="14" lengthAdjust="spacing" textLength="40" x="233" y="75.1426">-name</text><text fill="#000000" font-family="sans-serif" font-size="14" lengthAdjust="spacing" textLength="94" x="233" y="92.752">-phoneNumber</text><text fill="#000000" font-family="sans-serif" font-size="14" lengthAdjust="spacing" textLength="38" x="233" y="110.3613">-email</text><text fill="#000000" font-family="sans-serif" font-size="14" lengthAdjust="spacing" textLength="23" x="233" y="127.9707">-fax</text><text fill="#000000" font-family="sans-serif" font-size="14" lengthAdjust="spacing" textLength="52" x="233" y="145.5801">-website</text><text fill="#000000" font-family="sans-serif" font-size="14" lengthAdjust="spacing" textLength="86" x="233" y="163.1895">-openingHour</text><text fill="#000000" font-family="sans-serif" font-size="14" lengthAdjust="spacing" textLength="79" x="233" y="180.7988">-closingHour</text><text fill="#000000" font-family="sans-serif" font-size="14" lengthAdjust="spacing" textLength="81" x="233" y="198.4082">-slotDuration</text><text fill="#000000" font-family="sans-serif" font-size="14" lengthAdjust="spacing" textLength="106" x="233" y="216.0176">-vaccinesPerSlot</text><text fill="#000000" font-family="sans-serif" font-size="14" lengthAdjust="spacing" textLength="34" x="233" y="233.627">-road</text><text fill="#000000" font-family="sans-serif" font-size="14" lengthAdjust="spacing" textLength="56" x="233" y="251.2363">-zipCode</text><text fill="#000000" font-family="sans-serif" font-size="14" lengthAdjust="spacing" textLength="34" x="233" y="268.8457">-local</text><text fill="#000000" font-family="sans-serif" font-size="14" lengthAdjust="spacing" textLength="133" x="233" y="286.4551">-centerCoordinatorID</text><text fill="#000000" font-family="sans-serif" font-size="14" lengthAdjust="spacing" textLength="73" x="233" y="304.0645">-arrivalsList</text></g><!--MD5=[1869ee9863863a0d2594cbfcdbe20ea7]
class VaccineBulletin--><g id="elem_VaccineBulletin"><rect codeLine="28" fill="#F1F1F1" height="110.4375" id="VaccineBulletin" rx="2.5" ry="2.5" style="stroke:#181818;stroke-width:0.5;" width="151" x="471" y="104"/><ellipse cx="496.35" cy="120" fill="#ADD1B2" rx="11" ry="11" style="stroke:#181818;stroke-width:1.0;"/><path d="M498.35,116.5 Q498.5531,116 498.7875,115.75 Q499.0219,115.5 499.2875,115.5 Q499.7563,115.5 500.0531,115.7813 Q500.35,116.0625 500.35,116.7188 L500.35,118.2813 Q500.35,118.9375 500.0688,119.2188 Q499.7875,119.5 499.35,119.5 Q498.9594,119.5 498.7094,119.3281 Q498.4594,119.1563 498.35,118.7031 Q498.3031,118.3906 498.1313,118.2188 Q497.8188,117.8906 497.2563,117.7031 Q496.6938,117.5 496.1313,117.5 Q495.4281,117.5 494.8344,117.7813 Q494.2563,118.0625 493.8031,118.6875 Q493.35,119.3125 493.35,120.1719 L493.35,121.0938 Q493.35,122.125 494.1938,122.8125 Q495.0375,123.5 496.5375,123.5 Q497.4281,123.5 498.0531,123.2969 Q498.4125,123.1875 498.8188,122.8281 Q499.0844,122.625 499.225,122.5625 Q499.3656,122.5 499.5375,122.5 Q499.8656,122.5 500.1,122.7656 Q500.35,123.0156 500.35,123.375 Q500.35,123.7188 500.0063,124.125 Q499.5063,124.7188 498.7094,125.0469 Q497.6625,125.5 496.3813,125.5 Q494.8813,125.5 493.6781,124.9063 Q492.7094,124.4375 492.0219,123.4219 Q491.35,122.4063 491.35,121.2031 L491.35,120.1094 Q491.35,118.8594 491.9438,117.7656 Q492.5531,116.6719 493.6,116.0938 Q494.6625,115.5 495.85,115.5 Q496.5688,115.5 497.1938,115.75 Q497.8188,116 498.35,116.5 Z " fill="#000000"/><text fill="#000000" font-family="sans-serif" font-size="14" lengthAdjust="spacing" textLength="96" x="512.65" y="125.7285">VaccineBulletin</text><line style="stroke:#181818;stroke-width:0.5;" x1="472" x2="621" y1="136" y2="136"/><text fill="#000000" font-family="sans-serif" font-size="14" lengthAdjust="spacing" textLength="53" x="477" y="154.5332">-vaccine</text><text fill="#000000" font-family="sans-serif" font-size="14" lengthAdjust="spacing" textLength="139" x="477" y="172.1426">-dateTimeOfLastDose</text><text fill="#000000" font-family="sans-serif" font-size="14" lengthAdjust="spacing" textLength="85" x="477" y="189.752">-doseNumber</text><text fill="#000000" font-family="sans-serif" font-size="14" lengthAdjust="spacing" textLength="69" x="477" y="207.3613">-lotNumber</text></g><!--MD5=[b34797a66dc35cbf1d65f7e3ca75530e]
class Task--><g id="elem_Task"><rect codeLine="35" fill="#F1F1F1" height="40" id="Task" rx="2.5" ry="2.5" style="stroke:#181818;stroke-width:0.5;" width="63" x="269.5" y="346"/><ellipse cx="284.5" cy="362" fill="#ADD1B2" rx="11" ry="11" style="stroke:#181818;stroke-width:1.0;"/><path d="M286.5,358.5 Q286.7031,358 286.9375,357.75 Q287.1719,357.5 287.4375,357.5 Q287.9063,357.5 288.2031,357.7813 Q288.5,358.0625 288.5,358.7188 L288.5,360.2813 Q288.5,360.9375 288.2188,361.2188 Q287.9375,361.5 287.5,361.5 Q287.1094,361.5 286.8594,361.3281 Q286.6094,361.1563 286.5,360.7031 Q286.4531,360.3906 286.2813,360.2188 Q285.9688,359.8906 285.4063,359.7031 Q284.8438,359.5 284.2813,359.5 Q283.5781,359.5 282.9844,359.7813 Q282.4063,360.0625 281.9531,360.6875 Q281.5,361.3125 281.5,362.1719 L281.5,363.0938 Q281.5,364.125 282.3438,364.8125 Q283.1875,365.5 284.6875,365.5 Q285.5781,365.5 286.2031,365.2969 Q286.5625,365.1875 286.9688,364.8281 Q287.2344,364.625 287.375,364.5625 Q287.5156,364.5 287.6875,364.5 Q288.0156,364.5 288.25,364.7656 Q288.5,365.0156 288.5,365.375 Q288.5,365.7188 288.1563,366.125 Q287.6563,366.7188 286.8594,367.0469 Q285.8125,367.5 284.5313,367.5 Q283.0313,367.5 281.8281,366.9063 Q280.8594,366.4375 280.1719,365.4219 Q279.5,364.4063 279.5,363.2031 L279.5,362.1094 Q279.5,360.8594 280.0938,359.7656 Q280.7031,358.6719 281.75,358.0938 Q282.8125,357.5 284,357.5 Q284.7188,357.5 285.3438,357.75 Q285.9688,358 286.5,358.5 Z " fill="#000000"/><text fill="#000000" font-family="sans-serif" font-size="14" lengthAdjust="spacing" textLength="31" x="298.5" y="367.7285">Task</text><line style="stroke:#181818;stroke-width:0.5;" x1="270.5" x2="331.5" y1="378" y2="378"/></g><!--MD5=[eebe9b198877275d05dd12630ed9e401]
link Company to VaccinationCenter--><g id="link_Company_VaccinationCenter"><path codeLine="37" d="M81.74,316.93 C116.67,291.65 178.02,247.26 226.79,211.97 " fill="none" id="Company-VaccinationCenter" style="stroke:#181818;stroke-width:1.0;"/><polygon fill="#000000" points="154.0507,225.2446,145,228.1662,148.4458,232.9281,154.0507,225.2446" style="stroke:#000000;stroke-width:1.0;"/><text fill="#000000" font-family="sans-serif" font-size="13" lengthAdjust="spacing" textLength="21" x="159" y="233.4951">has</text><text fill="#000000" font-family="sans-serif" font-size="13" lengthAdjust="spacing" textLength="7" x="82.1542" y="306.2312">1</text><text fill="#000000" font-family="sans-serif" font-size="13" lengthAdjust="spacing" textLength="5" x="213.8793" y="231.7635">*</text></g><!--MD5=[774a620e86274462c922c31d6e1ab62f]
link VaccinationCenter to VaccineBulletin--><g id="link_VaccinationCenter_VaccineBulletin"><path codeLine="38" d="M375.06,159 C405.32,159 440.38,159 470.81,159 " fill="none" id="VaccinationCenter-VaccineBulletin" style="stroke:#181818;stroke-width:1.0;"/><polygon fill="#000000" points="415,150.1758,405.9549,147.2369,405.9549,153.1147,415,150.1758" style="stroke:#000000;stroke-width:1.0;"/><text fill="#000000" font-family="sans-serif" font-size="13" lengthAdjust="spacing" textLength="21" x="419" y="155.4951">has</text><text fill="#000000" font-family="sans-serif" font-size="13" lengthAdjust="spacing" textLength="7" x="383.0584" y="173.331">1</text><text fill="#000000" font-family="sans-serif" font-size="13" lengthAdjust="spacing" textLength="5" x="458.1132" y="173.2784">*</text></g><!--MD5=[87c00d0f8d1a3690d7ce06c7337176f3]
link Company to Task--><g id="link_Company_Task"><path codeLine="39" d="M99.12,342.32 C148.5,348.14 226.33,357.32 269.17,362.37 " fill="none" id="Company-Task" style="stroke:#181818;stroke-width:1.0;"/><polygon fill="#000000" points="138.9656,337.7613,130.3269,333.7834,129.6386,339.6208,138.9656,337.7613" style="stroke:#000000;stroke-width:1.0;"/><text fill="#000000" font-family="sans-serif" font-size="13" lengthAdjust="spacing" textLength="53" x="143" y="342.4951">executes</text><text fill="#000000" font-family="sans-serif" font-size="13" lengthAdjust="spacing" textLength="7" x="107.0282" y="357.966">1</text><text fill="#000000" font-family="sans-serif" font-size="13" lengthAdjust="spacing" textLength="7" x="254.4416" y="376.8595">1</text></g><!--MD5=[48ea0585396d13affb095f788449119a]
@startuml
'https://plantuml.com/class-diagram

left to right direction
skinparam classAttributeIconSize 0
hide methods

Class Company{
}

Class VaccinationCenter{
-id
-name
-phoneNumber
-email
-fax
-website
-openingHour
-closingHour
-slotDuration
-vaccinesPerSlot
-road
-zipCode
-local
-centerCoordinatorID
-arrivalsList
}

Class VaccineBulletin{
-vaccine
-dateTimeOfLastDose
-doseNumber
-lotNumber
}

Class Task

Company "1" - - "*" VaccinationCenter: has >
VaccinationCenter"1" - - "*"VaccineBulletin: has >
Company"1" - - "1"Task: executes >
@enduml

@startuml

left to right direction
skinparam classAttributeIconSize 0
hide methods

Class Company{
}

Class VaccinationCenter{
-id
-name
-phoneNumber
-email
-fax
-website
-openingHour
-closingHour
-slotDuration
-vaccinesPerSlot
-road
-zipCode
-local
-centerCoordinatorID
-arrivalsList
}

Class VaccineBulletin{
-vaccine
-dateTimeOfLastDose
-doseNumber
-lotNumber
}

Class Task

Company "1" - - "*" VaccinationCenter: has >
VaccinationCenter"1" - - "*"VaccineBulletin: has >
Company"1" - - "1"Task: executes >
@enduml

PlantUML version 1.2022.5(Sat Apr 30 11:55:52 BST 2022)
(GPL source distribution)
Java Runtime: OpenJDK Runtime Environment
JVM: OpenJDK 64-Bit Server VM
Default Encoding: Cp1252
Language: pt
Country: PT
--></g></svg>