<?xml version="1.0" encoding="UTF-8" standalone="no"?><svg xmlns="http://www.w3.org/2000/svg" xmlns:xlink="http://www.w3.org/1999/xlink" contentScriptType="application/ecmascript" contentStyleType="text/css" height="179px" preserveAspectRatio="none" style="width:237px;height:179px;background:#FFFFFF;" version="1.1" viewBox="0 0 237 179" width="237px" zoomAndPan="magnify"><defs><filter height="300%" id="f1nz4tuwghvv31" width="300%" x="-1" y="-1"><feGaussianBlur result="blurOut" stdDeviation="2.0"/><feColorMatrix in="blurOut" result="blurOut2" type="matrix" values="0 0 0 0 0 0 0 0 0 0 0 0 0 0 0 0 0 0 .4 0"/><feOffset dx="4.0" dy="4.0" in="blurOut2" result="blurOut3"/><feBlend in="SourceGraphic" in2="blurOut3" mode="normal"/></filter></defs><g><!--MD5=[335f4d9be48430461c68bf6d6fdba145]
class App--><rect codeLine="6" fill="#FEFECE" filter="url(#f1nz4tuwghvv31)" height="61.8359" id="App" style="stroke:#A80036;stroke-width:1.5;" width="102" x="64" y="7"/><ellipse cx="101.05" cy="23" fill="#ADD1B2" rx="11" ry="11" style="stroke:#A80036;stroke-width:1.0;"/><path d="M103.05,19.5 Q103.2531,19 103.4875,18.75 Q103.7219,18.5 103.9875,18.5 Q104.4563,18.5 104.7531,18.7813 Q105.05,19.0625 105.05,19.7188 L105.05,21.2813 Q105.05,21.9375 104.7688,22.2188 Q104.4875,22.5 104.05,22.5 Q103.6594,22.5 103.4094,22.3281 Q103.1594,22.1563 103.05,21.7031 Q103.0031,21.3906 102.8313,21.2188 Q102.5188,20.8906 101.9563,20.7031 Q101.3938,20.5 100.8313,20.5 Q100.1281,20.5 99.5344,20.7813 Q98.9563,21.0625 98.5031,21.6875 Q98.05,22.3125 98.05,23.1719 L98.05,24.0938 Q98.05,25.125 98.8938,25.8125 Q99.7375,26.5 101.2375,26.5 Q102.1281,26.5 102.7531,26.2969 Q103.1125,26.1875 103.5188,25.8281 Q103.7844,25.625 103.925,25.5625 Q104.0656,25.5 104.2375,25.5 Q104.5656,25.5 104.8,25.7656 Q105.05,26.0156 105.05,26.375 Q105.05,26.7188 104.7063,27.125 Q104.2063,27.7188 103.4094,28.0469 Q102.3625,28.5 101.0813,28.5 Q99.5813,28.5 98.3781,27.9063 Q97.4094,27.4375 96.7219,26.4219 Q96.05,25.4063 96.05,24.2031 L96.05,23.1094 Q96.05,21.8594 96.6438,20.7656 Q97.2531,19.6719 98.3,19.0938 Q99.3625,18.5 100.55,18.5 Q101.2688,18.5 101.8938,18.75 Q102.5188,19 103.05,19.5 Z " fill="#000000"/><text fill="#000000" font-family="sans-serif" font-size="12" lengthAdjust="spacing" textLength="21" x="119.95" y="27.9102">App</text><line style="stroke:#A80036;stroke-width:1.5;" x1="65" x2="165" y1="39" y2="39"/><line style="stroke:#A80036;stroke-width:1.5;" x1="65" x2="165" y1="47" y2="47"/><ellipse cx="75" cy="58" fill="#84BE84" rx="3" ry="3" style="stroke:#038048;stroke-width:1.0;"/><text fill="#000000" font-family="sans-serif" font-size="11" lengthAdjust="spacing" textLength="76" x="84" y="62.4189">runDailyTasks()</text><!--MD5=[02e4b9b7573f1156f41e60aa5b4e25a4]
class Company--><rect codeLine="11" fill="#FEFECE" filter="url(#f1nz4tuwghvv31)" height="61.8359" id="Company" style="stroke:#A80036;stroke-width:1.5;" width="216" x="7" y="104"/><ellipse cx="84.25" cy="120" fill="#ADD1B2" rx="11" ry="11" style="stroke:#A80036;stroke-width:1.0;"/><path d="M86.25,116.5 Q86.4531,116 86.6875,115.75 Q86.9219,115.5 87.1875,115.5 Q87.6563,115.5 87.9531,115.7813 Q88.25,116.0625 88.25,116.7188 L88.25,118.2813 Q88.25,118.9375 87.9688,119.2188 Q87.6875,119.5 87.25,119.5 Q86.8594,119.5 86.6094,119.3281 Q86.3594,119.1563 86.25,118.7031 Q86.2031,118.3906 86.0313,118.2188 Q85.7188,117.8906 85.1563,117.7031 Q84.5938,117.5 84.0313,117.5 Q83.3281,117.5 82.7344,117.7813 Q82.1563,118.0625 81.7031,118.6875 Q81.25,119.3125 81.25,120.1719 L81.25,121.0938 Q81.25,122.125 82.0938,122.8125 Q82.9375,123.5 84.4375,123.5 Q85.3281,123.5 85.9531,123.2969 Q86.3125,123.1875 86.7188,122.8281 Q86.9844,122.625 87.125,122.5625 Q87.2656,122.5 87.4375,122.5 Q87.7656,122.5 88,122.7656 Q88.25,123.0156 88.25,123.375 Q88.25,123.7188 87.9063,124.125 Q87.4063,124.7188 86.6094,125.0469 Q85.5625,125.5 84.2813,125.5 Q82.7813,125.5 81.5781,124.9063 Q80.6094,124.4375 79.9219,123.4219 Q79.25,122.4063 79.25,121.2031 L79.25,120.1094 Q79.25,118.8594 79.8438,117.7656 Q80.4531,116.6719 81.5,116.0938 Q82.5625,115.5 83.75,115.5 Q84.4688,115.5 85.0938,115.75 Q85.7188,116 86.25,116.5 Z " fill="#000000"/><text fill="#000000" font-family="sans-serif" font-size="12" lengthAdjust="spacing" textLength="53" x="104.75" y="124.9102">Company</text><line style="stroke:#A80036;stroke-width:1.5;" x1="8" x2="222" y1="136" y2="136"/><line style="stroke:#A80036;stroke-width:1.5;" x1="8" x2="222" y1="144" y2="144"/><ellipse cx="18" cy="155" fill="#84BE84" rx="3" ry="3" style="stroke:#038048;stroke-width:1.0;"/><text fill="#000000" font-family="sans-serif" font-size="11" lengthAdjust="spacing" textLength="190" x="27" y="159.4189">registerDailyTotalOfPeopleVaccinated()</text><!--MD5=[5b0f1873c15ced29becf7ded48d12cb7]
link App to Company--><path codeLine="19" d="M115,69.16 C115,80.75 115,92.34 115,103.93 " fill="none" id="App-Company" style="stroke:#A80036;stroke-width:1.0;"/><!--MD5=[7c193b2d88aa5567fd108e393e40bc8c]
@startuml
'https://plantuml.com/class-diagram




class App{
+runDailyTasks()
}


class Company{
+registerDailyTotalOfPeopleVaccinated()
}


left to right direction


App -r- Company


@enduml

@startuml




class App{
+runDailyTasks()
}


class Company{
+registerDailyTotalOfPeopleVaccinated()
}


left to right direction


App -r- Company


@enduml

PlantUML version 1.2022.1(Tue Feb 01 18:19:58 GMT 2022)
(GPL source distribution)
Java Runtime: OpenJDK Runtime Environment
JVM: OpenJDK 64-Bit Server VM
Default Encoding: Cp1252
Language: pt
Country: PT
--></g></svg>