<?xml version="1.0" encoding="UTF-8" standalone="no"?><svg xmlns="http://www.w3.org/2000/svg" xmlns:xlink="http://www.w3.org/1999/xlink" contentStyleType="text/css" height="79px" preserveAspectRatio="none" style="width:590px;height:79px;background:#FFFFFF;" version="1.1" viewBox="0 0 590 79" width="590px" zoomAndPan="magnify"><defs/><g><!--MD5=[335f4d9be48430461c68bf6d6fdba145]
class App--><g id="elem_App"><rect codeLine="6" fill="#F1F1F1" height="48" id="App" rx="2.5" ry="2.5" style="stroke:#181818;stroke-width:0.5;" width="57" x="7" y="16"/><ellipse cx="22" cy="32" fill="#ADD1B2" rx="11" ry="11" style="stroke:#181818;stroke-width:1.0;"/><path d="M24,28.5 Q24.2031,28 24.4375,27.75 Q24.6719,27.5 24.9375,27.5 Q25.4063,27.5 25.7031,27.7813 Q26,28.0625 26,28.7188 L26,30.2813 Q26,30.9375 25.7188,31.2188 Q25.4375,31.5 25,31.5 Q24.6094,31.5 24.3594,31.3281 Q24.1094,31.1563 24,30.7031 Q23.9531,30.3906 23.7813,30.2188 Q23.4688,29.8906 22.9063,29.7031 Q22.3438,29.5 21.7813,29.5 Q21.0781,29.5 20.4844,29.7813 Q19.9063,30.0625 19.4531,30.6875 Q19,31.3125 19,32.1719 L19,33.0938 Q19,34.125 19.8438,34.8125 Q20.6875,35.5 22.1875,35.5 Q23.0781,35.5 23.7031,35.2969 Q24.0625,35.1875 24.4688,34.8281 Q24.7344,34.625 24.875,34.5625 Q25.0156,34.5 25.1875,34.5 Q25.5156,34.5 25.75,34.7656 Q26,35.0156 26,35.375 Q26,35.7188 25.6563,36.125 Q25.1563,36.7188 24.3594,37.0469 Q23.3125,37.5 22.0313,37.5 Q20.5313,37.5 19.3281,36.9063 Q18.3594,36.4375 17.6719,35.4219 Q17,34.4063 17,33.2031 L17,32.1094 Q17,30.8594 17.5938,29.7656 Q18.2031,28.6719 19.25,28.0938 Q20.3125,27.5 21.5,27.5 Q22.2188,27.5 22.8438,27.75 Q23.4688,28 24,28.5 Z " fill="#000000"/><text fill="#000000" font-family="sans-serif" font-size="14" lengthAdjust="spacing" textLength="25" x="36" y="37.7285">App</text><line style="stroke:#181818;stroke-width:0.5;" x1="8" x2="63" y1="48" y2="48"/><line style="stroke:#181818;stroke-width:0.5;" x1="8" x2="63" y1="56" y2="56"/></g><!--MD5=[02e4b9b7573f1156f41e60aa5b4e25a4]
class Company--><g id="elem_Company"><rect codeLine="10" fill="#F1F1F1" height="65.6094" id="Company" rx="2.5" ry="2.5" style="stroke:#181818;stroke-width:0.5;" width="276" x="307" y="7"/><ellipse cx="410.75" cy="23" fill="#ADD1B2" rx="11" ry="11" style="stroke:#181818;stroke-width:1.0;"/><path d="M412.75,19.5 Q412.9531,19 413.1875,18.75 Q413.4219,18.5 413.6875,18.5 Q414.1563,18.5 414.4531,18.7813 Q414.75,19.0625 414.75,19.7188 L414.75,21.2813 Q414.75,21.9375 414.4688,22.2188 Q414.1875,22.5 413.75,22.5 Q413.3594,22.5 413.1094,22.3281 Q412.8594,22.1563 412.75,21.7031 Q412.7031,21.3906 412.5313,21.2188 Q412.2188,20.8906 411.6563,20.7031 Q411.0938,20.5 410.5313,20.5 Q409.8281,20.5 409.2344,20.7813 Q408.6563,21.0625 408.2031,21.6875 Q407.75,22.3125 407.75,23.1719 L407.75,24.0938 Q407.75,25.125 408.5938,25.8125 Q409.4375,26.5 410.9375,26.5 Q411.8281,26.5 412.4531,26.2969 Q412.8125,26.1875 413.2188,25.8281 Q413.4844,25.625 413.625,25.5625 Q413.7656,25.5 413.9375,25.5 Q414.2656,25.5 414.5,25.7656 Q414.75,26.0156 414.75,26.375 Q414.75,26.7188 414.4063,27.125 Q413.9063,27.7188 413.1094,28.0469 Q412.0625,28.5 410.7813,28.5 Q409.2813,28.5 408.0781,27.9063 Q407.1094,27.4375 406.4219,26.4219 Q405.75,25.4063 405.75,24.2031 L405.75,23.1094 Q405.75,21.8594 406.3438,20.7656 Q406.9531,19.6719 408,19.0938 Q409.0625,18.5 410.25,18.5 Q410.9688,18.5 411.5938,18.75 Q412.2188,19 412.75,19.5 Z " fill="#000000"/><text fill="#000000" font-family="sans-serif" font-size="14" lengthAdjust="spacing" textLength="60" x="431.25" y="28.7285">Company</text><line style="stroke:#181818;stroke-width:0.5;" x1="308" x2="582" y1="39" y2="39"/><line style="stroke:#181818;stroke-width:0.5;" x1="308" x2="582" y1="47" y2="47"/><ellipse cx="318" cy="58" fill="#84BE84" rx="3" ry="3" style="stroke:#038048;stroke-width:1.0;"/><text fill="#000000" font-family="sans-serif" font-size="14" lengthAdjust="spacing" textLength="250" x="327" y="65.5332">registerDailyTotalOfPeopleVaccinated()</text></g><!--MD5=[5b0f1873c15ced29becf7ded48d12cb7]
link App to Company--><g id="link_App_Company"><path codeLine="18" d="M64.19,40 C112.49,40 215.25,40 301.72,40 " fill="none" id="App-to-Company" style="stroke:#181818;stroke-width:1.0;stroke-dasharray:7.0,7.0;"/><polygon fill="#181818" points="306.86,40,297.86,36,301.86,40,297.86,44,306.86,40" style="stroke:#181818;stroke-width:1.0;"/></g><!--MD5=[04ab32a05b4c30b7c524406aa647a262]
@startuml
'https://plantuml.com/class-diagram




class App{
}


class Company{
+registerDailyTotalOfPeopleVaccinated()
}


left to right direction


App .....> Company


@enduml

@startuml




class App{
}


class Company{
+registerDailyTotalOfPeopleVaccinated()
}


left to right direction


App .....> Company


@enduml

PlantUML version 1.2022.5(Sat Apr 30 11:55:52 BST 2022)
(GPL source distribution)
Java Runtime: OpenJDK Runtime Environment
JVM: OpenJDK 64-Bit Server VM
Default Encoding: Cp1252
Language: pt
Country: PT
--></g></svg>