<?xml version="1.0" encoding="UTF-8" standalone="no"?><svg xmlns="http://www.w3.org/2000/svg" xmlns:xlink="http://www.w3.org/1999/xlink" contentStyleType="text/css" height="537px" preserveAspectRatio="none" style="width:684px;height:537px;background:#FFFFFF;" version="1.1" viewBox="0 0 684 537" width="684px" zoomAndPan="magnify"><defs/><g><!--MD5=[1f2cfc53d9d308f53762fd0fcbaa4873]
cluster Controller--><g id="cluster_Controller"><path d="M83.5,6 L155.5,6 A3.75,3.75 0 0 1 158,8.5 L165,29.6094 L230.5,29.6094 A2.5,2.5 0 0 1 233,32.1094 L233,121.5 A2.5,2.5 0 0 1 230.5,124 L83.5,124 A2.5,2.5 0 0 1 81,121.5 L81,8.5 A2.5,2.5 0 0 1 83.5,6 " style="stroke:#000000;stroke-width:1.5;fill:none;"/><line style="stroke:#000000;stroke-width:1.5;fill:none;" x1="81" x2="165" y1="29.6094" y2="29.6094"/><text fill="#000000" font-family="sans-serif" font-size="14" font-weight="bold" lengthAdjust="spacing" textLength="71" x="85" y="22.5332">Controller</text></g><!--MD5=[121a8bf1197281ab89ed693fab589f94]
cluster Domain--><g id="cluster_Domain"><path d="M8.5,148 L61.5,148 A3.75,3.75 0 0 1 64,150.5 L71,171.6094 L674.5,171.6094 A2.5,2.5 0 0 1 677,174.1094 L677,527.5 A2.5,2.5 0 0 1 674.5,530 L8.5,530 A2.5,2.5 0 0 1 6,527.5 L6,150.5 A2.5,2.5 0 0 1 8.5,148 " style="stroke:#000000;stroke-width:1.5;fill:none;"/><line style="stroke:#000000;stroke-width:1.5;fill:none;" x1="6" x2="71" y1="171.6094" y2="171.6094"/><text fill="#000000" font-family="sans-serif" font-size="14" font-weight="bold" lengthAdjust="spacing" textLength="52" x="10" y="164.5332">Domain</text></g><!--MD5=[335f4d9be48430461c68bf6d6fdba145]
class App--><g id="elem_App"><rect codeLine="6" fill="#F1F1F1" height="65.6094" id="App" rx="2.5" ry="2.5" style="stroke:#181818;stroke-width:0.5;" width="120" x="97" y="42"/><ellipse cx="140.35" cy="58" fill="#ADD1B2" rx="11" ry="11" style="stroke:#181818;stroke-width:1.0;"/><path d="M142.35,54.5 Q142.5531,54 142.7875,53.75 Q143.0219,53.5 143.2875,53.5 Q143.7563,53.5 144.0531,53.7813 Q144.35,54.0625 144.35,54.7188 L144.35,56.2813 Q144.35,56.9375 144.0688,57.2188 Q143.7875,57.5 143.35,57.5 Q142.9594,57.5 142.7094,57.3281 Q142.4594,57.1563 142.35,56.7031 Q142.3031,56.3906 142.1313,56.2188 Q141.8188,55.8906 141.2563,55.7031 Q140.6938,55.5 140.1313,55.5 Q139.4281,55.5 138.8344,55.7813 Q138.2563,56.0625 137.8031,56.6875 Q137.35,57.3125 137.35,58.1719 L137.35,59.0938 Q137.35,60.125 138.1938,60.8125 Q139.0375,61.5 140.5375,61.5 Q141.4281,61.5 142.0531,61.2969 Q142.4125,61.1875 142.8188,60.8281 Q143.0844,60.625 143.225,60.5625 Q143.3656,60.5 143.5375,60.5 Q143.8656,60.5 144.1,60.7656 Q144.35,61.0156 144.35,61.375 Q144.35,61.7188 144.0063,62.125 Q143.5063,62.7188 142.7094,63.0469 Q141.6625,63.5 140.3813,63.5 Q138.8813,63.5 137.6781,62.9063 Q136.7094,62.4375 136.0219,61.4219 Q135.35,60.4063 135.35,59.2031 L135.35,58.1094 Q135.35,56.8594 135.9438,55.7656 Q136.5531,54.6719 137.6,54.0938 Q138.6625,53.5 139.85,53.5 Q140.5688,53.5 141.1938,53.75 Q141.8188,54 142.35,54.5 Z " fill="#000000"/><text fill="#000000" font-family="sans-serif" font-size="14" lengthAdjust="spacing" textLength="25" x="160.65" y="63.7285">App</text><line style="stroke:#181818;stroke-width:0.5;" x1="98" x2="216" y1="74" y2="74"/><line style="stroke:#181818;stroke-width:0.5;" x1="98" x2="216" y1="82" y2="82"/><text fill="#000000" font-family="sans-serif" font-size="14" lengthAdjust="spacing" textLength="108" x="103" y="100.5332">+runDailyTasks()</text></g><!--MD5=[de60e6d4f424ae4d0522096f76a59010]
class VaccinationCenter--><g id="elem_VaccinationCenter"><rect codeLine="11" fill="#F1F1F1" height="329.75" id="VaccinationCenter" rx="2.5" ry="2.5" style="stroke:#181818;stroke-width:0.5;" width="211" x="450" y="184"/><ellipse cx="493.35" cy="200" fill="#ADD1B2" rx="11" ry="11" style="stroke:#181818;stroke-width:1.0;"/><path d="M495.35,196.5 Q495.5531,196 495.7875,195.75 Q496.0219,195.5 496.2875,195.5 Q496.7563,195.5 497.0531,195.7813 Q497.35,196.0625 497.35,196.7188 L497.35,198.2813 Q497.35,198.9375 497.0688,199.2188 Q496.7875,199.5 496.35,199.5 Q495.9594,199.5 495.7094,199.3281 Q495.4594,199.1563 495.35,198.7031 Q495.3031,198.3906 495.1313,198.2188 Q494.8188,197.8906 494.2563,197.7031 Q493.6938,197.5 493.1313,197.5 Q492.4281,197.5 491.8344,197.7813 Q491.2563,198.0625 490.8031,198.6875 Q490.35,199.3125 490.35,200.1719 L490.35,201.0938 Q490.35,202.125 491.1938,202.8125 Q492.0375,203.5 493.5375,203.5 Q494.4281,203.5 495.0531,203.2969 Q495.4125,203.1875 495.8188,202.8281 Q496.0844,202.625 496.225,202.5625 Q496.3656,202.5 496.5375,202.5 Q496.8656,202.5 497.1,202.7656 Q497.35,203.0156 497.35,203.375 Q497.35,203.7188 497.0063,204.125 Q496.5063,204.7188 495.7094,205.0469 Q494.6625,205.5 493.3813,205.5 Q491.8813,205.5 490.6781,204.9063 Q489.7094,204.4375 489.0219,203.4219 Q488.35,202.4063 488.35,201.2031 L488.35,200.1094 Q488.35,198.8594 488.9438,197.7656 Q489.5531,196.6719 490.6,196.0938 Q491.6625,195.5 492.85,195.5 Q493.5688,195.5 494.1938,195.75 Q494.8188,196 495.35,196.5 Z " fill="#000000"/><text fill="#000000" font-family="sans-serif" font-size="14" lengthAdjust="spacing" textLength="116" x="513.65" y="205.7285">VaccinationCenter</text><line style="stroke:#181818;stroke-width:0.5;" x1="451" x2="660" y1="216" y2="216"/><text fill="#000000" font-family="sans-serif" font-size="14" lengthAdjust="spacing" textLength="16" x="456" y="234.5332">-id</text><text fill="#000000" font-family="sans-serif" font-size="14" lengthAdjust="spacing" textLength="40" x="456" y="252.1426">-name</text><text fill="#000000" font-family="sans-serif" font-size="14" lengthAdjust="spacing" textLength="94" x="456" y="269.752">-phoneNumber</text><text fill="#000000" font-family="sans-serif" font-size="14" lengthAdjust="spacing" textLength="38" x="456" y="287.3613">-email</text><text fill="#000000" font-family="sans-serif" font-size="14" lengthAdjust="spacing" textLength="23" x="456" y="304.9707">-fax</text><text fill="#000000" font-family="sans-serif" font-size="14" lengthAdjust="spacing" textLength="52" x="456" y="322.5801">-website</text><text fill="#000000" font-family="sans-serif" font-size="14" lengthAdjust="spacing" textLength="86" x="456" y="340.1895">-openingHour</text><text fill="#000000" font-family="sans-serif" font-size="14" lengthAdjust="spacing" textLength="79" x="456" y="357.7988">-closingHour</text><text fill="#000000" font-family="sans-serif" font-size="14" lengthAdjust="spacing" textLength="81" x="456" y="375.4082">-slotDuration</text><text fill="#000000" font-family="sans-serif" font-size="14" lengthAdjust="spacing" textLength="106" x="456" y="393.0176">-vaccinesPerSlot</text><text fill="#000000" font-family="sans-serif" font-size="14" lengthAdjust="spacing" textLength="34" x="456" y="410.627">-road</text><text fill="#000000" font-family="sans-serif" font-size="14" lengthAdjust="spacing" textLength="56" x="456" y="428.2363">-zipCode</text><text fill="#000000" font-family="sans-serif" font-size="14" lengthAdjust="spacing" textLength="34" x="456" y="445.8457">-local</text><text fill="#000000" font-family="sans-serif" font-size="14" lengthAdjust="spacing" textLength="133" x="456" y="463.4551">-centerCoordinatorID</text><text fill="#000000" font-family="sans-serif" font-size="14" lengthAdjust="spacing" textLength="73" x="456" y="481.0645">-arrivalsList</text><line style="stroke:#181818;stroke-width:0.5;" x1="451" x2="660" y1="488.1406" y2="488.1406"/><text fill="#000000" font-family="sans-serif" font-size="14" lengthAdjust="spacing" textLength="199" x="456" y="506.6738">+getVaccinesAdministeredList()</text></g><!--MD5=[02e4b9b7573f1156f41e60aa5b4e25a4]
class Company--><g id="elem_Company"><rect codeLine="31" fill="#F1F1F1" height="83.2188" id="Company" rx="2.5" ry="2.5" style="stroke:#181818;stroke-width:0.5;" width="270" x="22" y="215.5"/><ellipse cx="122.75" cy="231.5" fill="#ADD1B2" rx="11" ry="11" style="stroke:#181818;stroke-width:1.0;"/><path d="M124.75,228 Q124.9531,227.5 125.1875,227.25 Q125.4219,227 125.6875,227 Q126.1563,227 126.4531,227.2813 Q126.75,227.5625 126.75,228.2188 L126.75,229.7813 Q126.75,230.4375 126.4688,230.7188 Q126.1875,231 125.75,231 Q125.3594,231 125.1094,230.8281 Q124.8594,230.6563 124.75,230.2031 Q124.7031,229.8906 124.5313,229.7188 Q124.2188,229.3906 123.6563,229.2031 Q123.0938,229 122.5313,229 Q121.8281,229 121.2344,229.2813 Q120.6563,229.5625 120.2031,230.1875 Q119.75,230.8125 119.75,231.6719 L119.75,232.5938 Q119.75,233.625 120.5938,234.3125 Q121.4375,235 122.9375,235 Q123.8281,235 124.4531,234.7969 Q124.8125,234.6875 125.2188,234.3281 Q125.4844,234.125 125.625,234.0625 Q125.7656,234 125.9375,234 Q126.2656,234 126.5,234.2656 Q126.75,234.5156 126.75,234.875 Q126.75,235.2188 126.4063,235.625 Q125.9063,236.2188 125.1094,236.5469 Q124.0625,237 122.7813,237 Q121.2813,237 120.0781,236.4063 Q119.1094,235.9375 118.4219,234.9219 Q117.75,233.9063 117.75,232.7031 L117.75,231.6094 Q117.75,230.3594 118.3438,229.2656 Q118.9531,228.1719 120,227.5938 Q121.0625,227 122.25,227 Q122.9688,227 123.5938,227.25 Q124.2188,227.5 124.75,228 Z " fill="#000000"/><text fill="#000000" font-family="sans-serif" font-size="14" lengthAdjust="spacing" textLength="60" x="143.25" y="237.2285">Company</text><line style="stroke:#181818;stroke-width:0.5;" x1="23" x2="291" y1="247.5" y2="247.5"/><text fill="#000000" font-family="sans-serif" font-size="14" lengthAdjust="spacing" textLength="155" x="28" y="266.0332">-VaccinationCenterStore</text><line style="stroke:#181818;stroke-width:0.5;" x1="23" x2="291" y1="273.1094" y2="273.1094"/><text fill="#000000" font-family="sans-serif" font-size="14" lengthAdjust="spacing" textLength="258" x="28" y="291.6426">+registerDailyTotalOfPeopleVaccinated()</text></g><!--MD5=[5b0f1873c15ced29becf7ded48d12cb7]
link App to Company--><g id="link_App_Company"><path codeLine="40" d="M157,108.18 C157,142.25 157,176.32 157,210.38 " fill="none" id="App-to-Company" style="stroke:#181818;stroke-width:1.0;stroke-dasharray:7.0,7.0;"/><polygon fill="#181818" points="157,215.41,161,206.41,157,210.41,153,206.41,157,215.41" style="stroke:#181818;stroke-width:1.0;"/></g><!--MD5=[c8535503369a009968b8e41a00575991]
link App to VaccinationCenter--><g id="link_App_VaccinationCenter"><path codeLine="41" d="M205.83,108.05 C264.81,148.81 366.89,219.36 445.41,273.61 " fill="none" id="App-to-VaccinationCenter" style="stroke:#181818;stroke-width:1.0;stroke-dasharray:7.0,7.0;"/><polygon fill="#181818" points="449.6,276.51,444.4695,268.103,445.4865,273.6677,439.9218,274.6846,449.6,276.51" style="stroke:#181818;stroke-width:1.0;"/></g><!--MD5=[eebe9b198877275d05dd12630ed9e401]
link Company to VaccinationCenter--><g id="link_Company_VaccinationCenter"><path codeLine="42" d="M292.24,288.15 C343.68,300.08 401.58,313.52 449.85,324.72 " fill="none" id="Company-VaccinationCenter" style="stroke:#181818;stroke-width:1.0;"/><polygon fill="#000000" points="362.8706,295.3059,354.7239,290.3986,353.3953,296.1244,362.8706,295.3059" style="stroke:#000000;stroke-width:1.0;"/><text fill="#000000" font-family="sans-serif" font-size="13" lengthAdjust="spacing" textLength="21" x="367" y="299.4951">has</text><text fill="#000000" font-family="sans-serif" font-size="13" lengthAdjust="spacing" textLength="7" x="299.8273" y="303.7898">1</text><text fill="#000000" font-family="sans-serif" font-size="13" lengthAdjust="spacing" textLength="5" x="436.9077" y="337.0416">*</text></g><!--MD5=[6db1e14081d7636e214585311168dc2a]
@startuml
'https://plantuml.com/class-diagram

skinparam classAttributeIconSize 0

package Controller {
class App{
+runDailyTasks()
}
}
package Domain {
class VaccinationCenter{
-id
-name
-phoneNumber
-email
-fax
-website
-openingHour
-closingHour
-slotDuration
-vaccinesPerSlot
-road
-zipCode
-local
-centerCoordinatorID
-arrivalsList
+getVaccinesAdministeredList()
}


class Company{
-VaccinationCenterStore
+registerDailyTotalOfPeopleVaccinated()
}
}

left to right direction


App .r.> Company
App .>VaccinationCenter
Company"1" - - - "*"VaccinationCenter: > has
@enduml

@startuml

skinparam classAttributeIconSize 0

package Controller {
class App{
+runDailyTasks()
}
}
package Domain {
class VaccinationCenter{
-id
-name
-phoneNumber
-email
-fax
-website
-openingHour
-closingHour
-slotDuration
-vaccinesPerSlot
-road
-zipCode
-local
-centerCoordinatorID
-arrivalsList
+getVaccinesAdministeredList()
}


class Company{
-VaccinationCenterStore
+registerDailyTotalOfPeopleVaccinated()
}
}

left to right direction


App .r.> Company
App .>VaccinationCenter
Company"1" - - - "*"VaccinationCenter: > has
@enduml

PlantUML version 1.2022.5(Sat Apr 30 11:55:52 BST 2022)
(GPL source distribution)
Java Runtime: OpenJDK Runtime Environment
JVM: OpenJDK 64-Bit Server VM
Default Encoding: Cp1252
Language: en
Country: US
--></g></svg>