<?xml version="1.0" encoding="UTF-8" standalone="no"?><svg xmlns="http://www.w3.org/2000/svg" xmlns:xlink="http://www.w3.org/1999/xlink" contentStyleType="text/css" height="1167px" preserveAspectRatio="none" style="width:1099px;height:1167px;background:#FFFFFF;" version="1.1" viewBox="0 0 1099 1167" width="1099.2px" zoomAndPan="magnify"><defs/><g><!--MD5=[5f6415188508429478b050fbcbecb887]
class RecordVaccineAdministrationUI--><g id="elem_RecordVaccineAdministrationUI"><rect codeLine="3" fill="#F1F1F1" height="92.1938" id="RecordVaccineAdministrationUI" rx="1.5" ry="1.5" style="stroke:#181818;stroke-width:0.3;" width="156.6" x="928.2" y="4.2"/><ellipse cx="945.84" cy="13.8" fill="#ADD1B2" rx="6.6" ry="6.6" style="stroke:#181818;stroke-width:0.6;"/><path d="M947.04,11.7 Q947.1619,11.4 947.3025,11.25 Q947.4431,11.1 947.6025,11.1 Q947.8838,11.1 948.0619,11.2687 Q948.24,11.4375 948.24,11.8312 L948.24,12.7687 Q948.24,13.1625 948.0713,13.3312 Q947.9025,13.5 947.64,13.5 Q947.4056,13.5 947.2556,13.3969 Q947.1056,13.2938 947.04,13.0219 Q947.0119,12.8344 946.9088,12.7313 Q946.7213,12.5344 946.3838,12.4219 Q946.0463,12.3 945.7088,12.3 Q945.2869,12.3 944.9306,12.4688 Q944.5838,12.6375 944.3119,13.0125 Q944.04,13.3875 944.04,13.9031 L944.04,14.4562 Q944.04,15.075 944.5463,15.4875 Q945.0525,15.9 945.9525,15.9 Q946.4869,15.9 946.8619,15.7781 Q947.0775,15.7125 947.3213,15.4969 Q947.4806,15.375 947.565,15.3375 Q947.6494,15.3 947.7525,15.3 Q947.9494,15.3 948.09,15.4594 Q948.24,15.6094 948.24,15.825 Q948.24,16.0313 948.0338,16.275 Q947.7338,16.6312 947.2556,16.8281 Q946.6275,17.1 945.8588,17.1 Q944.9588,17.1 944.2369,16.7438 Q943.6556,16.4625 943.2431,15.8531 Q942.84,15.2437 942.84,14.5219 L942.84,13.8656 Q942.84,13.1156 943.1963,12.4594 Q943.5619,11.8031 944.19,11.4562 Q944.8275,11.1 945.54,11.1 Q945.9713,11.1 946.3463,11.25 Q946.7213,11.4 947.04,11.7 Z " fill="#000000"/><text fill="#000000" font-family="sans-serif" font-size="8.4" lengthAdjust="spacing" textLength="118.2" x="956.16" y="17.2371">RecordVaccineAdministrationUI</text><line style="stroke:#181818;stroke-width:0.3;" x1="928.8" x2="1084.2" y1="23.4" y2="23.4"/><line style="stroke:#181818;stroke-width:0.3;" x1="928.8" x2="1084.2" y1="28.2" y2="28.2"/><text fill="#000000" font-family="sans-serif" font-size="8.4" lengthAdjust="spacing" textLength="23.4" x="931.8" y="39.3199">+run()</text><text fill="#000000" font-family="sans-serif" font-size="8.4" lengthAdjust="spacing" textLength="70.2" x="931.8" y="49.8855">-waitingRoomList()</text><text fill="#000000" font-family="sans-serif" font-size="8.4" lengthAdjust="spacing" textLength="62.4" x="931.8" y="60.4512">-userFirstDose()</text><text fill="#000000" font-family="sans-serif" font-size="8.4" lengthAdjust="spacing" textLength="149.4" x="931.8" y="71.0168">-setDosageAndVaccine(vaccineHistory)</text><text fill="#000000" font-family="sans-serif" font-size="8.4" lengthAdjust="spacing" textLength="144.6" x="931.8" y="81.5824">-vaccineAdministrationPrompt(prompt)</text><text fill="#000000" font-family="sans-serif" font-size="8.4" lengthAdjust="spacing" textLength="47.4" x="931.8" y="92.148">-lotNumber()</text></g><!--MD5=[4e11fa7ebac336bd1a0f15637f9edba8]
class RecordVaccineAdministrationController--><g id="elem_RecordVaccineAdministrationController"><rect codeLine="12" fill="#F1F1F1" height="145.0219" id="RecordVaccineAdministrationController" rx="1.5" ry="1.5" style="stroke:#181818;stroke-width:0.3;" width="249.6" x="792.9" y="175.5"/><ellipse cx="841.05" cy="185.1" fill="#ADD1B2" rx="6.6" ry="6.6" style="stroke:#181818;stroke-width:0.6;"/><path d="M842.25,183 Q842.3719,182.7 842.5125,182.55 Q842.6531,182.4 842.8125,182.4 Q843.0938,182.4 843.2719,182.5688 Q843.45,182.7375 843.45,183.1313 L843.45,184.0688 Q843.45,184.4625 843.2813,184.6313 Q843.1125,184.8 842.85,184.8 Q842.6156,184.8 842.4656,184.6969 Q842.3156,184.5938 842.25,184.3219 Q842.2219,184.1344 842.1188,184.0313 Q841.9313,183.8344 841.5938,183.7219 Q841.2563,183.6 840.9187,183.6 Q840.4969,183.6 840.1406,183.7687 Q839.7937,183.9375 839.5219,184.3125 Q839.25,184.6875 839.25,185.2031 L839.25,185.7563 Q839.25,186.375 839.7563,186.7875 Q840.2625,187.2 841.1625,187.2 Q841.6969,187.2 842.0719,187.0781 Q842.2875,187.0125 842.5313,186.7969 Q842.6906,186.675 842.775,186.6375 Q842.8594,186.6 842.9625,186.6 Q843.1594,186.6 843.3,186.7594 Q843.45,186.9094 843.45,187.125 Q843.45,187.3312 843.2438,187.575 Q842.9438,187.9313 842.4656,188.1281 Q841.8375,188.4 841.0688,188.4 Q840.1687,188.4 839.4469,188.0438 Q838.8656,187.7625 838.4531,187.1531 Q838.05,186.5438 838.05,185.8219 L838.05,185.1656 Q838.05,184.4156 838.4063,183.7594 Q838.7719,183.1031 839.4,182.7563 Q840.0375,182.4 840.75,182.4 Q841.1813,182.4 841.5563,182.55 Q841.9313,182.7 842.25,183 Z " fill="#000000"/><text fill="#000000" font-family="sans-serif" font-size="8.4" lengthAdjust="spacing" textLength="148.2" x="853.35" y="188.5371">RecordVaccineAdministrationController</text><line style="stroke:#181818;stroke-width:0.3;" x1="793.5" x2="1041.9" y1="194.7" y2="194.7"/><line style="stroke:#181818;stroke-width:0.3;" x1="793.5" x2="1041.9" y1="199.5" y2="199.5"/><text fill="#000000" font-family="sans-serif" font-size="8.4" lengthAdjust="spacing" textLength="129.6" x="796.5" y="210.6199">+vaccineTypeAvailableVaccines();</text><text fill="#000000" font-family="sans-serif" font-size="8.4" lengthAdjust="spacing" textLength="148.2" x="796.5" y="221.1855">+getSnsUserInformation(selectedUser);</text><text fill="#000000" font-family="sans-serif" font-size="8.4" lengthAdjust="spacing" textLength="132.6" x="796.5" y="231.7512">+snsUserIndexInList(selectedUser);</text><text fill="#000000" font-family="sans-serif" font-size="8.4" lengthAdjust="spacing" textLength="155.4" x="796.5" y="242.3168">+userFirstDoseAgeGroup(indexVaccine);</text><text fill="#000000" font-family="sans-serif" font-size="8.4" lengthAdjust="spacing" textLength="105" x="796.5" y="252.8824">+getUserNumberOfDoses();</text><text fill="#000000" font-family="sans-serif" font-size="8.4" lengthAdjust="spacing" textLength="190.8" x="796.5" y="263.448">+dosageForDose(numberOfDoses, indexVaccine);</text><text fill="#000000" font-family="sans-serif" font-size="8.4" lengthAdjust="spacing" textLength="242.4" x="796.5" y="274.0137">+vaccineAdministrationProcess(numberOfDoses, indexVaccine);</text><text fill="#000000" font-family="sans-serif" font-size="8.4" lengthAdjust="spacing" textLength="122.4" x="796.5" y="284.5793">+validateLotNumber(lotNumber);</text><text fill="#000000" font-family="sans-serif" font-size="8.4" lengthAdjust="spacing" textLength="136.2" x="796.5" y="295.1449">+registerVaccineInVaccineBulletin();</text><text fill="#000000" font-family="sans-serif" font-size="8.4" lengthAdjust="spacing" textLength="84.6" x="796.5" y="305.7105">+printRecoveryTime();</text><text fill="#000000" font-family="sans-serif" font-size="8.4" lengthAdjust="spacing" textLength="78.6" x="796.5" y="316.2762">+exportDataToFile();</text></g><!--MD5=[de60e6d4f424ae4d0522096f76a59010]
class VaccinationCenter--><g id="elem_VaccinationCenter"><rect codeLine="26" fill="#F1F1F1" height="271.8094" id="VaccinationCenter" rx="1.5" ry="1.5" style="stroke:#181818;stroke-width:0.3;" width="631.2" x="233.7" y="447"/><ellipse cx="511.95" cy="456.6" fill="#ADD1B2" rx="6.6" ry="6.6" style="stroke:#181818;stroke-width:0.6;"/><path d="M513.15,454.5 Q513.2719,454.2 513.4125,454.05 Q513.5531,453.9 513.7125,453.9 Q513.9938,453.9 514.1719,454.0687 Q514.35,454.2375 514.35,454.6312 L514.35,455.5687 Q514.35,455.9625 514.1813,456.1312 Q514.0125,456.3 513.75,456.3 Q513.5156,456.3 513.3656,456.1969 Q513.2156,456.0938 513.15,455.8219 Q513.1219,455.6344 513.0188,455.5313 Q512.8313,455.3344 512.4938,455.2219 Q512.1563,455.1 511.8187,455.1 Q511.3969,455.1 511.0406,455.2688 Q510.6937,455.4375 510.4219,455.8125 Q510.15,456.1875 510.15,456.7031 L510.15,457.2562 Q510.15,457.875 510.6563,458.2875 Q511.1625,458.7 512.0625,458.7 Q512.5969,458.7 512.9719,458.5781 Q513.1875,458.5125 513.4313,458.2969 Q513.5906,458.175 513.675,458.1375 Q513.7594,458.1 513.8625,458.1 Q514.0594,458.1 514.2,458.2594 Q514.35,458.4094 514.35,458.625 Q514.35,458.8313 514.1438,459.075 Q513.8438,459.4313 513.3656,459.6281 Q512.7375,459.9 511.9688,459.9 Q511.0687,459.9 510.3469,459.5438 Q509.7656,459.2625 509.3531,458.6531 Q508.95,458.0438 508.95,457.3219 L508.95,456.6656 Q508.95,455.9156 509.3063,455.2594 Q509.6719,454.6031 510.3,454.2562 Q510.9375,453.9 511.65,453.9 Q512.0813,453.9 512.4563,454.05 Q512.8313,454.2 513.15,454.5 Z " fill="#000000"/><text fill="#000000" font-family="sans-serif" font-size="8.4" lengthAdjust="spacing" textLength="69.6" x="524.25" y="460.0371">VaccinationCenter</text><line style="stroke:#181818;stroke-width:0.3;" x1="234.3" x2="864.3" y1="466.2" y2="466.2"/><text fill="#000000" font-family="sans-serif" font-size="8.4" lengthAdjust="spacing" textLength="9.6" x="237.3" y="477.3199">-id</text><text fill="#000000" font-family="sans-serif" font-size="8.4" lengthAdjust="spacing" textLength="24" x="237.3" y="487.8855">-name</text><text fill="#000000" font-family="sans-serif" font-size="8.4" lengthAdjust="spacing" textLength="56.4" x="237.3" y="498.4512">-phoneNumber</text><text fill="#000000" font-family="sans-serif" font-size="8.4" lengthAdjust="spacing" textLength="22.8" x="237.3" y="509.0168">-email</text><text fill="#000000" font-family="sans-serif" font-size="8.4" lengthAdjust="spacing" textLength="13.8" x="237.3" y="519.5824">-fax</text><text fill="#000000" font-family="sans-serif" font-size="8.4" lengthAdjust="spacing" textLength="31.2" x="237.3" y="530.148">-website</text><text fill="#000000" font-family="sans-serif" font-size="8.4" lengthAdjust="spacing" textLength="51.6" x="237.3" y="540.7137">-openingHour</text><text fill="#000000" font-family="sans-serif" font-size="8.4" lengthAdjust="spacing" textLength="47.4" x="237.3" y="551.2793">-closingHour</text><text fill="#000000" font-family="sans-serif" font-size="8.4" lengthAdjust="spacing" textLength="48.6" x="237.3" y="561.8449">-slotDuration</text><text fill="#000000" font-family="sans-serif" font-size="8.4" lengthAdjust="spacing" textLength="63.6" x="237.3" y="572.4105">-vaccinesPerSlot</text><text fill="#000000" font-family="sans-serif" font-size="8.4" lengthAdjust="spacing" textLength="20.4" x="237.3" y="582.9762">-road</text><text fill="#000000" font-family="sans-serif" font-size="8.4" lengthAdjust="spacing" textLength="33.6" x="237.3" y="593.5418">-zipCode</text><text fill="#000000" font-family="sans-serif" font-size="8.4" lengthAdjust="spacing" textLength="20.4" x="237.3" y="604.1074">-local</text><text fill="#000000" font-family="sans-serif" font-size="8.4" lengthAdjust="spacing" textLength="79.8" x="237.3" y="614.673">-centerCoordinatorID</text><text fill="#000000" font-family="sans-serif" font-size="8.4" lengthAdjust="spacing" textLength="43.8" x="237.3" y="625.2387">-arrivalsList</text><line style="stroke:#181818;stroke-width:0.3;" x1="234.3" x2="864.3" y1="629.4844" y2="629.4844"/><text fill="#000000" font-family="sans-serif" font-size="8.4" lengthAdjust="spacing" textLength="624" x="237.3" y="640.6043">+VaccinationCenter(id, name, phoneNumber, email, fax, website, openingHour, closingHour, slotDuration, vaccinesPerSlot, road, zipCode, local, centerCoordinatorID)</text><text fill="#000000" font-family="sans-serif" font-size="8.4" lengthAdjust="spacing" textLength="135" x="237.3" y="651.1699">+addAppointment(newAppointment)</text><text fill="#000000" font-family="sans-serif" font-size="8.4" lengthAdjust="spacing" textLength="169.8" x="237.3" y="661.7355">+validateAppointment(scheduledVaccineDto)</text><text fill="#000000" font-family="sans-serif" font-size="8.4" lengthAdjust="spacing" textLength="267" x="237.3" y="672.3012">-centerHasAvailability(appointmentsList, scheduledVaccineDto, center)</text><text fill="#000000" font-family="sans-serif" font-size="8.4" lengthAdjust="spacing" textLength="316.2" x="237.3" y="682.8668">+validateAppointmentAccordingToAgeGroupAndTimeSinceLastDose(dto, company)</text><text fill="#000000" font-family="sans-serif" font-size="8.4" lengthAdjust="spacing" textLength="292.8" x="237.3" y="693.4324">+validateAppointmentAccordingToAdminProcess(snsUser, dto, takenVaccine)</text><text fill="#000000" font-family="sans-serif" font-size="8.4" lengthAdjust="spacing" textLength="196.2" x="237.3" y="703.998">-getUserAgeGroup(snsUser, administrationProcess)</text><text fill="#000000" font-family="sans-serif" font-size="8.4" lengthAdjust="spacing" textLength="196.2" x="237.3" y="714.5637">-validateAgeGroup(snsUser, administrationProcess)</text></g><!--MD5=[7048ee8bdca3863d93eddb6f16bd3fc5]
class VaccineBulletinDto--><g id="elem_VaccineBulletinDto"><rect codeLine="52" fill="#F1F1F1" height="71.0625" id="VaccineBulletinDto" rx="1.5" ry="1.5" style="stroke:#181818;stroke-width:0.3;" width="92.4" x="928.5" y="547.5"/><ellipse cx="938.58" cy="557.1" fill="#ADD1B2" rx="6.6" ry="6.6" style="stroke:#181818;stroke-width:0.6;"/><path d="M939.78,555 Q939.9019,554.7 940.0425,554.55 Q940.1831,554.4 940.3425,554.4 Q940.6238,554.4 940.8019,554.5688 Q940.98,554.7375 940.98,555.1313 L940.98,556.0688 Q940.98,556.4625 940.8113,556.6313 Q940.6425,556.8 940.38,556.8 Q940.1456,556.8 939.9956,556.6969 Q939.8456,556.5938 939.78,556.3219 Q939.7519,556.1344 939.6488,556.0313 Q939.4613,555.8344 939.1238,555.7219 Q938.7862,555.6 938.4487,555.6 Q938.0269,555.6 937.6706,555.7688 Q937.3237,555.9375 937.0519,556.3125 Q936.78,556.6875 936.78,557.2031 L936.78,557.7563 Q936.78,558.375 937.2862,558.7875 Q937.7925,559.2 938.6925,559.2 Q939.2269,559.2 939.6019,559.0781 Q939.8175,559.0125 940.0613,558.7969 Q940.2206,558.675 940.305,558.6375 Q940.3894,558.6 940.4925,558.6 Q940.6894,558.6 940.83,558.7594 Q940.98,558.9094 940.98,559.125 Q940.98,559.3313 940.7738,559.575 Q940.4737,559.9313 939.9956,560.1281 Q939.3675,560.4 938.5987,560.4 Q937.6987,560.4 936.9769,560.0437 Q936.3956,559.7625 935.9831,559.1531 Q935.58,558.5437 935.58,557.8219 L935.58,557.1656 Q935.58,556.4156 935.9363,555.7594 Q936.3019,555.1031 936.93,554.7563 Q937.5675,554.4 938.28,554.4 Q938.7113,554.4 939.0863,554.55 Q939.4613,554.7 939.78,555 Z " fill="#000000"/><text fill="#000000" font-family="sans-serif" font-size="8.4" lengthAdjust="spacing" textLength="70.8" x="947.22" y="560.5371">VaccineBulletinDto</text><line style="stroke:#181818;stroke-width:0.3;" x1="929.1" x2="1020.3" y1="566.7" y2="566.7"/><text fill="#000000" font-family="sans-serif" font-size="8.4" lengthAdjust="spacing" textLength="33.6" x="932.1" y="577.8199">+vaccine</text><text fill="#000000" font-family="sans-serif" font-size="8.4" lengthAdjust="spacing" textLength="85.2" x="932.1" y="588.3855">+dateTimeOfLastDose</text><text fill="#000000" font-family="sans-serif" font-size="8.4" lengthAdjust="spacing" textLength="52.8" x="932.1" y="598.9512">+doseNumber</text><text fill="#000000" font-family="sans-serif" font-size="8.4" lengthAdjust="spacing" textLength="43.2" x="932.1" y="609.5168">+lotNumber</text><line style="stroke:#181818;stroke-width:0.3;" x1="929.1" x2="1020.3" y1="613.7625" y2="613.7625"/></g><!--MD5=[760b6a443496b08c4941ba8701fe7694]
class VaccineBulletinMapper--><g id="elem_VaccineBulletinMapper"><rect codeLine="59" fill="#F1F1F1" height="39.3656" id="VaccineBulletinMapper" rx="1.5" ry="1.5" style="stroke:#181818;stroke-width:0.3;" width="194.4" x="799.5" y="755.4"/><ellipse cx="850.95" cy="765" fill="#ADD1B2" rx="6.6" ry="6.6" style="stroke:#181818;stroke-width:0.6;"/><path d="M852.15,762.9 Q852.2719,762.6 852.4125,762.45 Q852.5531,762.3 852.7125,762.3 Q852.9938,762.3 853.1719,762.4688 Q853.35,762.6375 853.35,763.0313 L853.35,763.9688 Q853.35,764.3625 853.1813,764.5313 Q853.0125,764.7 852.75,764.7 Q852.5156,764.7 852.3656,764.5969 Q852.2156,764.4938 852.15,764.2219 Q852.1219,764.0344 852.0188,763.9313 Q851.8313,763.7344 851.4938,763.6219 Q851.1563,763.5 850.8188,763.5 Q850.3969,763.5 850.0406,763.6687 Q849.6938,763.8375 849.4219,764.2125 Q849.15,764.5875 849.15,765.1031 L849.15,765.6563 Q849.15,766.275 849.6563,766.6875 Q850.1625,767.1 851.0625,767.1 Q851.5969,767.1 851.9719,766.9781 Q852.1875,766.9125 852.4313,766.6969 Q852.5906,766.575 852.675,766.5375 Q852.7594,766.5 852.8625,766.5 Q853.0594,766.5 853.2,766.6594 Q853.35,766.8094 853.35,767.025 Q853.35,767.2312 853.1438,767.475 Q852.8438,767.8313 852.3656,768.0281 Q851.7375,768.3 850.9688,768.3 Q850.0688,768.3 849.3469,767.9438 Q848.7656,767.6625 848.3531,767.0531 Q847.95,766.4438 847.95,765.7219 L847.95,765.0656 Q847.95,764.3156 848.3063,763.6594 Q848.6719,763.0031 849.3,762.6563 Q849.9375,762.3 850.65,762.3 Q851.0813,762.3 851.4563,762.45 Q851.8313,762.6 852.15,762.9 Z " fill="#000000"/><text fill="#000000" font-family="sans-serif" font-size="8.4" lengthAdjust="spacing" textLength="86.4" x="863.25" y="768.4371">VaccineBulletinMapper</text><line style="stroke:#181818;stroke-width:0.3;" x1="800.1" x2="993.3" y1="774.6" y2="774.6"/><line style="stroke:#181818;stroke-width:0.3;" x1="800.1" x2="993.3" y1="779.4" y2="779.4"/><text fill="#000000" font-family="sans-serif" font-size="8.4" lengthAdjust="spacing" textLength="187.2" x="803.1" y="790.5199">+createScheduledVaccine(scheduledVaccineDto)</text></g><!--MD5=[02e4b9b7573f1156f41e60aa5b4e25a4]
class Company--><g id="elem_Company"><rect codeLine="63" fill="#F1F1F1" height="28.8" id="Company" rx="1.5" ry="1.5" style="stroke:#181818;stroke-width:0.3;" width="55.2" x="473.1" y="233.7"/><ellipse cx="482.1" cy="243.3" fill="#ADD1B2" rx="6.6" ry="6.6" style="stroke:#181818;stroke-width:0.6;"/><path d="M483.3,241.2 Q483.4219,240.9 483.5625,240.75 Q483.7031,240.6 483.8625,240.6 Q484.1437,240.6 484.3219,240.7687 Q484.5,240.9375 484.5,241.3312 L484.5,242.2687 Q484.5,242.6625 484.3312,242.8312 Q484.1625,243 483.9,243 Q483.6656,243 483.5156,242.8969 Q483.3656,242.7938 483.3,242.5219 Q483.2719,242.3344 483.1688,242.2313 Q482.9813,242.0344 482.6437,241.9219 Q482.3063,241.8 481.9688,241.8 Q481.5469,241.8 481.1906,241.9688 Q480.8438,242.1375 480.5719,242.5125 Q480.3,242.8875 480.3,243.4031 L480.3,243.9562 Q480.3,244.575 480.8063,244.9875 Q481.3125,245.4 482.2125,245.4 Q482.7469,245.4 483.1219,245.2781 Q483.3375,245.2125 483.5812,244.9969 Q483.7406,244.875 483.825,244.8375 Q483.9094,244.8 484.0125,244.8 Q484.2094,244.8 484.35,244.9594 Q484.5,245.1094 484.5,245.325 Q484.5,245.5313 484.2938,245.775 Q483.9938,246.1313 483.5156,246.3281 Q482.8875,246.6 482.1188,246.6 Q481.2188,246.6 480.4969,246.2437 Q479.9156,245.9625 479.5031,245.3531 Q479.1,244.7437 479.1,244.0219 L479.1,243.3656 Q479.1,242.6156 479.4562,241.9594 Q479.8219,241.3031 480.45,240.9562 Q481.0875,240.6 481.8,240.6 Q482.2313,240.6 482.6063,240.75 Q482.9813,240.9 483.3,241.2 Z " fill="#000000"/><text fill="#000000" font-family="sans-serif" font-size="8.4" lengthAdjust="spacing" textLength="36" x="490.5" y="246.7371">Company</text><line style="stroke:#181818;stroke-width:0.3;" x1="473.7" x2="527.7" y1="252.9" y2="252.9"/><line style="stroke:#181818;stroke-width:0.3;" x1="473.7" x2="527.7" y1="257.7" y2="257.7"/></g><!--MD5=[19e445fc4d3b48519cbe33da05496394]
class Vaccine--><g id="elem_Vaccine"><rect codeLine="65" fill="#F1F1F1" height="81.6281" id="Vaccine" rx="1.5" ry="1.5" style="stroke:#181818;stroke-width:0.3;" width="66" x="195.3" y="1081.2"/><ellipse cx="211.86" cy="1090.8" fill="#ADD1B2" rx="6.6" ry="6.6" style="stroke:#181818;stroke-width:0.6;"/><path d="M213.06,1088.7 Q213.1819,1088.4 213.3225,1088.25 Q213.4631,1088.1 213.6225,1088.1 Q213.9038,1088.1 214.0819,1088.2688 Q214.26,1088.4375 214.26,1088.8313 L214.26,1089.7688 Q214.26,1090.1625 214.0913,1090.3313 Q213.9225,1090.5 213.66,1090.5 Q213.4256,1090.5 213.2756,1090.3969 Q213.1256,1090.2938 213.06,1090.0219 Q213.0319,1089.8344 212.9288,1089.7313 Q212.7413,1089.5344 212.4038,1089.4219 Q212.0663,1089.3 211.7288,1089.3 Q211.3069,1089.3 210.9506,1089.4688 Q210.6038,1089.6375 210.3319,1090.0125 Q210.06,1090.3875 210.06,1090.9031 L210.06,1091.4563 Q210.06,1092.075 210.5663,1092.4875 Q211.0725,1092.9 211.9725,1092.9 Q212.5069,1092.9 212.8819,1092.7781 Q213.0975,1092.7125 213.3413,1092.4969 Q213.5006,1092.375 213.585,1092.3375 Q213.6694,1092.3 213.7725,1092.3 Q213.9694,1092.3 214.11,1092.4594 Q214.26,1092.6094 214.26,1092.825 Q214.26,1093.0313 214.0538,1093.275 Q213.7538,1093.6313 213.2756,1093.8281 Q212.6475,1094.1 211.8788,1094.1 Q210.9788,1094.1 210.2569,1093.7437 Q209.6756,1093.4625 209.2631,1092.8531 Q208.86,1092.2437 208.86,1091.5219 L208.86,1090.8656 Q208.86,1090.1156 209.2163,1089.4594 Q209.5819,1088.8031 210.21,1088.4563 Q210.8475,1088.1 211.56,1088.1 Q211.9913,1088.1 212.3663,1088.25 Q212.7413,1088.4 213.06,1088.7 Z " fill="#000000"/><text fill="#000000" font-family="sans-serif" font-size="8.4" lengthAdjust="spacing" textLength="30" x="221.94" y="1094.2371">Vaccine</text><line style="stroke:#181818;stroke-width:0.3;" x1="195.9" x2="260.7" y1="1100.4" y2="1100.4"/><text fill="#000000" font-family="sans-serif" font-size="8.4" lengthAdjust="spacing" textLength="26.4" x="198.9" y="1111.5199">-name;</text><text fill="#000000" font-family="sans-serif" font-size="8.4" lengthAdjust="spacing" textLength="12" x="198.9" y="1122.0855">-id;</text><text fill="#000000" font-family="sans-serif" font-size="8.4" lengthAdjust="spacing" textLength="27.6" x="198.9" y="1132.6512">-brand;</text><text fill="#000000" font-family="sans-serif" font-size="8.4" lengthAdjust="spacing" textLength="58.8" x="198.9" y="1143.2168">-adminProcess;</text><text fill="#000000" font-family="sans-serif" font-size="8.4" lengthAdjust="spacing" textLength="53.4" x="198.9" y="1153.7824">-vaccineType;</text><line style="stroke:#181818;stroke-width:0.3;" x1="195.9" x2="260.7" y1="1158.0281" y2="1158.0281"/></g><!--MD5=[1869ee9863863a0d2594cbfcdbe20ea7]
class VaccineBulletin--><g id="elem_VaccineBulletin"><rect codeLine="72" fill="#F1F1F1" height="71.0625" id="VaccineBulletin" rx="1.5" ry="1.5" style="stroke:#181818;stroke-width:0.3;" width="93" x="502.8" y="926.4"/><ellipse cx="519.09" cy="936" fill="#ADD1B2" rx="6.6" ry="6.6" style="stroke:#181818;stroke-width:0.6;"/><path d="M520.29,933.9 Q520.4119,933.6 520.5525,933.45 Q520.6931,933.3 520.8525,933.3 Q521.1338,933.3 521.3119,933.4688 Q521.49,933.6375 521.49,934.0313 L521.49,934.9688 Q521.49,935.3625 521.3213,935.5313 Q521.1525,935.7 520.89,935.7 Q520.6556,935.7 520.5056,935.5969 Q520.3556,935.4938 520.29,935.2219 Q520.2619,935.0344 520.1587,934.9313 Q519.9712,934.7344 519.6338,934.6219 Q519.2963,934.5 518.9588,934.5 Q518.5369,934.5 518.1806,934.6687 Q517.8338,934.8375 517.5619,935.2125 Q517.29,935.5875 517.29,936.1031 L517.29,936.6563 Q517.29,937.275 517.7963,937.6875 Q518.3025,938.1 519.2025,938.1 Q519.7369,938.1 520.1119,937.9781 Q520.3275,937.9125 520.5713,937.6969 Q520.7306,937.575 520.815,937.5375 Q520.8994,937.5 521.0025,937.5 Q521.1994,937.5 521.34,937.6594 Q521.49,937.8094 521.49,938.025 Q521.49,938.2312 521.2837,938.475 Q520.9838,938.8313 520.5056,939.0281 Q519.8775,939.3 519.1088,939.3 Q518.2088,939.3 517.4869,938.9437 Q516.9056,938.6625 516.4931,938.0531 Q516.09,937.4437 516.09,936.7219 L516.09,936.0656 Q516.09,935.3156 516.4463,934.6594 Q516.8119,934.0031 517.44,933.6563 Q518.0775,933.3 518.79,933.3 Q519.2212,933.3 519.5962,933.45 Q519.9712,933.6 520.29,933.9 Z " fill="#000000"/><text fill="#000000" font-family="sans-serif" font-size="8.4" lengthAdjust="spacing" textLength="57.6" x="529.11" y="939.4371">VaccineBulletin</text><line style="stroke:#181818;stroke-width:0.3;" x1="503.4" x2="595.2" y1="945.6" y2="945.6"/><text fill="#000000" font-family="sans-serif" font-size="8.4" lengthAdjust="spacing" textLength="34.2" x="506.4" y="956.7199">-vaccine;</text><text fill="#000000" font-family="sans-serif" font-size="8.4" lengthAdjust="spacing" textLength="85.8" x="506.4" y="967.2855">-dateTimeOfLastDose;</text><text fill="#000000" font-family="sans-serif" font-size="8.4" lengthAdjust="spacing" textLength="53.4" x="506.4" y="977.8512">-doseNumber;</text><text fill="#000000" font-family="sans-serif" font-size="8.4" lengthAdjust="spacing" textLength="43.8" x="506.4" y="988.4168">-lotNumber;</text><line style="stroke:#181818;stroke-width:0.3;" x1="503.4" x2="595.2" y1="992.6625" y2="992.6625"/></g><!--MD5=[c4593935f45e4a2a0cefc4788932b53f]
class SnsUser--><g id="elem_SnsUser"><rect codeLine="79" fill="#F1F1F1" height="155.5875" id="SnsUser" rx="1.5" ry="1.5" style="stroke:#181818;stroke-width:0.3;" width="408.6" x="4.2" y="170.4"/><ellipse cx="190.05" cy="180" fill="#ADD1B2" rx="6.6" ry="6.6" style="stroke:#181818;stroke-width:0.6;"/><path d="M191.25,177.9 Q191.3719,177.6 191.5125,177.45 Q191.6531,177.3 191.8125,177.3 Q192.0938,177.3 192.2719,177.4688 Q192.45,177.6375 192.45,178.0313 L192.45,178.9688 Q192.45,179.3625 192.2813,179.5313 Q192.1125,179.7 191.85,179.7 Q191.6156,179.7 191.4656,179.5969 Q191.3156,179.4938 191.25,179.2219 Q191.2219,179.0344 191.1188,178.9313 Q190.9313,178.7344 190.5938,178.6219 Q190.2563,178.5 189.9188,178.5 Q189.4969,178.5 189.1406,178.6688 Q188.7938,178.8375 188.5219,179.2125 Q188.25,179.5875 188.25,180.1031 L188.25,180.6563 Q188.25,181.275 188.7563,181.6875 Q189.2625,182.1 190.1625,182.1 Q190.6969,182.1 191.0719,181.9781 Q191.2875,181.9125 191.5313,181.6969 Q191.6906,181.575 191.775,181.5375 Q191.8594,181.5 191.9625,181.5 Q192.1594,181.5 192.3,181.6594 Q192.45,181.8094 192.45,182.025 Q192.45,182.2313 192.2438,182.475 Q191.9438,182.8312 191.4656,183.0281 Q190.8375,183.3 190.0688,183.3 Q189.1688,183.3 188.4469,182.9438 Q187.8656,182.6625 187.4531,182.0531 Q187.05,181.4438 187.05,180.7219 L187.05,180.0656 Q187.05,179.3156 187.4063,178.6594 Q187.7719,178.0031 188.4,177.6563 Q189.0375,177.3 189.75,177.3 Q190.1813,177.3 190.5563,177.45 Q190.9313,177.6 191.25,177.9 Z " fill="#000000"/><text fill="#000000" font-family="sans-serif" font-size="8.4" lengthAdjust="spacing" textLength="31.8" x="202.35" y="183.4371">SnsUser</text><line style="stroke:#181818;stroke-width:0.3;" x1="4.8" x2="412.2" y1="189.6" y2="189.6"/><text fill="#000000" font-family="sans-serif" font-size="8.4" lengthAdjust="spacing" textLength="26.4" x="7.8" y="200.7199">-name;</text><text fill="#000000" font-family="sans-serif" font-size="8.4" lengthAdjust="spacing" textLength="18" x="7.8" y="211.2855">-sex;</text><text fill="#000000" font-family="sans-serif" font-size="8.4" lengthAdjust="spacing" textLength="40.2" x="7.8" y="221.8512">-birthDate;</text><text fill="#000000" font-family="sans-serif" font-size="8.4" lengthAdjust="spacing" textLength="36" x="7.8" y="232.4168">-address;</text><text fill="#000000" font-family="sans-serif" font-size="8.4" lengthAdjust="spacing" textLength="58.8" x="7.8" y="242.9824">-phoneNumber;</text><text fill="#000000" font-family="sans-serif" font-size="8.4" lengthAdjust="spacing" textLength="25.2" x="7.8" y="253.548">-email;</text><text fill="#000000" font-family="sans-serif" font-size="8.4" lengthAdjust="spacing" textLength="51.6" x="7.8" y="264.1137">-userNumber;</text><text fill="#000000" font-family="sans-serif" font-size="8.4" lengthAdjust="spacing" textLength="76.8" x="7.8" y="274.6793">-citizenCardNumber;</text><text fill="#000000" font-family="sans-serif" font-size="8.4" lengthAdjust="spacing" textLength="41.4" x="7.8" y="285.2449">-password;</text><text fill="#000000" font-family="sans-serif" font-size="8.4" lengthAdjust="spacing" textLength="60.6" x="7.8" y="295.8105">-takenVaccines;</text><line style="stroke:#181818;stroke-width:0.3;" x1="4.8" x2="412.2" y1="300.0563" y2="300.0563"/><text fill="#000000" font-family="sans-serif" font-size="8.4" lengthAdjust="spacing" textLength="401.4" x="7.8" y="311.1762">+snsUser(Name, Sex, BirthDate, Address, Number, Email, snsUserNumber, CitizenCardNumber, Password)</text><text fill="#000000" font-family="sans-serif" font-size="8.4" lengthAdjust="spacing" textLength="177" x="7.8" y="321.7418">+registerVaccine(TakenVaccine takenVaccine)</text></g><!--MD5=[893c90894642ea7858ea0fc56278dcbd]
link RecordVaccineAdministrationUI to RecordVaccineAdministrationController--><g id="link_RecordVaccineAdministrationUI_RecordVaccineAdministrationController"><path codeLine="95" d="M985.794,96.822 C975.606,119.364 963.066,147.108 951.534,172.626 " fill="none" id="RecordVaccineAdministrationUI-to-RecordVaccineAdministrationController" style="stroke:#181818;stroke-width:0.6;stroke-dasharray:7.0,7.0;"/><polygon fill="#181818" points="950.28,175.404,954.6892,171.4697,951.5143,172.6697,950.3143,169.4948,950.28,175.404" style="stroke:#181818;stroke-width:0.6;"/></g><!--MD5=[774b429036dbb2676aa7214fe12fa270]
link RecordVaccineAdministrationUI to VaccineBulletinDto--><g id="link_RecordVaccineAdministrationUI_VaccineBulletinDto"><path codeLine="96" d="M1080.636,96.714 C1089.396,107.154 1095.3,119.334 1095.3,133.2 C1095.3,133.2 1095.3,133.2 1095.3,410.4 C1095.3,464.442 1054.86,513.54 1020.816,545.298 " fill="none" id="RecordVaccineAdministrationUI-to-VaccineBulletinDto" style="stroke:#181818;stroke-width:0.6;stroke-dasharray:7.0,7.0;"/><polygon fill="#181818" points="1018.578,547.362,1024.1747,545.4655,1020.7834,545.3282,1020.9207,541.9369,1018.578,547.362" style="stroke:#181818;stroke-width:0.6;"/></g><!--MD5=[837ced7a1c360288acf6ca3f70ea6bdc]
link RecordVaccineAdministrationController to VaccineBulletinDto--><g id="link_RecordVaccineAdministrationController_VaccineBulletinDto"><path codeLine="98" d="M930.036,320.88 C941.76,389.514 958.944,490.08 968.208,544.296 " fill="none" id="RecordVaccineAdministrationController-to-VaccineBulletinDto" style="stroke:#181818;stroke-width:0.6;stroke-dasharray:7.0,7.0;"/><polygon fill="#181818" points="968.724,547.32,970.1794,541.5927,968.2183,544.3629,965.4481,542.4018,968.724,547.32" style="stroke:#181818;stroke-width:0.6;"/></g><!--MD5=[3bea7cb9982dbffab65de4c07f27dc21]
link RecordVaccineAdministrationController to VaccinationCenter--><g id="link_RecordVaccineAdministrationController_VaccinationCenter"><path codeLine="99" d="M837.99,320.88 C797.952,357.138 748.068,402.306 701.094,444.846 " fill="none" id="RecordVaccineAdministrationController-to-VaccinationCenter" style="stroke:#181818;stroke-width:0.6;stroke-dasharray:7.0,7.0;"/><polygon fill="#181818" points="698.856,446.868,704.4714,445.0276,701.0816,444.8564,701.2528,441.4666,698.856,446.868" style="stroke:#181818;stroke-width:0.6;"/></g><!--MD5=[7f2e27e292c030267ffaae0fa5608727]
reverse link Company to RecordVaccineAdministrationController--><g id="link_Company_RecordVaccineAdministrationController"><path codeLine="100" d="M531.492,248.1 C618.594,248.1 705.702,248.1 792.81,248.1 " fill="none" id="Company-backto-RecordVaccineAdministrationController" style="stroke:#181818;stroke-width:0.6;stroke-dasharray:7.0,7.0;"/><polygon fill="#181818" points="528.39,248.1,533.79,250.5,531.39,248.1,533.79,245.7,528.39,248.1" style="stroke:#181818;stroke-width:0.6;"/></g><!--MD5=[245baed4a01f59574c96788a6fe4eb1c]
link RecordVaccineAdministrationController to VaccineBulletinMapper--><g id="link_RecordVaccineAdministrationController_VaccineBulletinMapper"><path codeLine="101" d="M900.312,320.814 C898.158,334.542 896.7,348.852 896.7,362.4 C896.7,362.4 896.7,362.4 896.7,583.5 C896.7,644.526 896.7,716.52 896.7,752.208 " fill="none" id="RecordVaccineAdministrationController-to-VaccineBulletinMapper" style="stroke:#181818;stroke-width:0.6;stroke-dasharray:7.0,7.0;"/><polygon fill="#181818" points="896.7,755.34,899.1,749.94,896.7,752.34,894.3,749.94,896.7,755.34" style="stroke:#181818;stroke-width:0.6;"/></g><!--MD5=[cc0190c79818aaa08c8bb51cd08eb132]
link RecordVaccineAdministrationController to VaccineBulletin--><g id="link_RecordVaccineAdministrationController_VaccineBulletin"><path codeLine="102" d="M1038.888,320.778 C1047.396,332.994 1052.7,346.848 1052.7,362.4 C1052.7,362.4 1052.7,362.4 1052.7,889.8 C1052.7,935.292 726.264,953.82 599.13,959.31 " fill="none" id="RecordVaccineAdministrationController-to-VaccineBulletin" style="stroke:#181818;stroke-width:0.6;stroke-dasharray:7.0,7.0;"/><polygon fill="#181818" points="595.98,959.442,601.4781,961.6079,598.9772,959.3132,601.272,956.8123,595.98,959.442" style="stroke:#181818;stroke-width:0.6;"/></g><!--MD5=[eebe9b198877275d05dd12630ed9e401]
link Company to VaccinationCenter--><g id="link_Company_VaccinationCenter"><path codeLine="104" d="M502.728,262.608 C507.342,294.3 519.06,374.724 529.584,446.976 " fill="none" id="Company-VaccinationCenter" style="stroke:#181818;stroke-width:0.6;"/><polygon fill="#000000" points="524.5324,389.4741,525.4951,383.8496,522.0052,384.3579,524.5324,389.4741" style="stroke:#000000;stroke-width:0.6;"/><text fill="#000000" font-family="sans-serif" font-size="7.8" lengthAdjust="spacing" textLength="12.6" x="529.5" y="389.6971">has</text><text fill="#000000" font-family="sans-serif" font-size="7.8" lengthAdjust="spacing" textLength="4.2" x="498.5104" y="275.4371">1</text><text fill="#000000" font-family="sans-serif" font-size="7.8" lengthAdjust="spacing" textLength="3" x="525.8216" y="440.4194">*</text></g><!--MD5=[6a02cc98ce26caafbd6c0e61791e0388]
link SnsUser to Company--><g id="link_SnsUser_Company"><path codeLine="105" d="M412.83,248.1 C436.278,248.1 457.332,248.1 472.95,248.1 " fill="none" id="SnsUser-Company" style="stroke:#181818;stroke-width:0.6;"/><polygon fill="#000000" points="432.15,241.0055,437.5771,242.7688,437.5771,239.2421,432.15,241.0055" style="stroke:#000000;stroke-width:0.6;"/><text fill="#000000" font-family="sans-serif" font-size="7.8" lengthAdjust="spacing" textLength="12.6" x="440.55" y="244.1971">has</text><text fill="#000000" font-family="sans-serif" font-size="7.8" lengthAdjust="spacing" textLength="3" x="417.6541" y="246.4848">*</text><text fill="#000000" font-family="sans-serif" font-size="7.8" lengthAdjust="spacing" textLength="4.2" x="464.1792" y="245.8782">1</text></g><!--MD5=[c29c8d42883934cbaf5793c72a334947]
link Company to Vaccine--><g id="link_Company_Vaccine"><path codeLine="106" d="M491.118,262.578 C478.014,280.362 452.754,310.704 423.3,325.8 C378.924,348.546 201.9,312.534 201.9,362.4 C201.9,362.4 201.9,362.4 201.9,1039.8 C201.9,1053.648 205.386,1068.204 209.82,1081.122 " fill="none" id="Company-Vaccine" style="stroke:#181818;stroke-width:0.6;"/><polygon fill="#000000" points="203.925,821.3426,207.3564,816.7833,204.0212,815.6371,203.925,821.3426" style="stroke:#000000;stroke-width:0.6;"/><text fill="#000000" font-family="sans-serif" font-size="7.8" lengthAdjust="spacing" textLength="12.6" x="210.3" y="821.6971">has</text><text fill="#000000" font-family="sans-serif" font-size="7.8" lengthAdjust="spacing" textLength="4.2" x="484.0705" y="275.3998">1</text><text fill="#000000" font-family="sans-serif" font-size="7.8" lengthAdjust="spacing" textLength="3" x="204.6347" y="1074.633">*</text></g><!--MD5=[774a620e86274462c922c31d6e1ab62f]
link VaccinationCenter to VaccineBulletin--><g id="link_VaccinationCenter_VaccineBulletin"><path codeLine="108" d="M549.3,718.956 C549.3,737.652 549.3,756.6 549.3,774.6 C549.3,774.6 549.3,774.6 549.3,889.8 C549.3,900.678 549.3,912.486 549.3,923.31 " fill="none" id="VaccinationCenter-to-VaccineBulletin" style="stroke:#181818;stroke-width:0.6;"/><polygon fill="#181818" points="549.3,926.334,551.7,920.934,549.3,923.334,546.9,920.934,549.3,926.334" style="stroke:#181818;stroke-width:0.6;"/><polygon fill="#000000" points="552.3,850.3055,554.0634,844.8784,550.5366,844.8784,552.3,850.3055" style="stroke:#000000;stroke-width:0.6;"/><text fill="#000000" font-family="sans-serif" font-size="7.8" lengthAdjust="spacing" textLength="12.6" x="557.7" y="850.4971">has</text><text fill="#000000" font-family="sans-serif" font-size="7.8" lengthAdjust="spacing" textLength="4.2" x="545.0311" y="731.6782">1</text><text fill="#000000" font-family="sans-serif" font-size="7.8" lengthAdjust="spacing" textLength="3" x="546.1172" y="919.9205">*</text></g><!--MD5=[50182863975a7f0fd55fd63b7dc30e9d]
link VaccineBulletin to Vaccine--><g id="link_VaccineBulletin_Vaccine"><path codeLine="109" d="M502.794,985.434 C438.144,1017.462 322.482,1074.75 264.102,1103.664 " fill="none" id="VaccineBulletin-to-Vaccine" style="stroke:#181818;stroke-width:0.6;"/><polygon fill="#181818" points="261.366,1105.02,267.2705,1104.7818,264.0561,1103.6921,265.1458,1100.4777,261.366,1105.02" style="stroke:#181818;stroke-width:0.6;"/><polygon fill="#000000" points="405.0117,1040.637,410.6576,1039.8083,409.0922,1036.6481,405.0117,1040.637" style="stroke:#000000;stroke-width:0.6;"/><text fill="#000000" font-family="sans-serif" font-size="7.8" lengthAdjust="spacing" textLength="55.2" x="413.1" y="1042.4971">is associated to</text><text fill="#000000" font-family="sans-serif" font-size="7.8" lengthAdjust="spacing" textLength="3" x="495.0684" y="985.7825">*</text><text fill="#000000" font-family="sans-serif" font-size="7.8" lengthAdjust="spacing" textLength="4.2" x="266.0914" y="1100.6027">1</text></g><!--MD5=[b495eda73bfd85a06aa47ee3eec6ebe7]
reverse link VaccineBulletinDto to VaccineBulletinMapper--><g id="link_VaccineBulletinDto_VaccineBulletinMapper"><path codeLine="111" d="M959.568,621.174 C947.01,652.362 928.626,697.812 912.3,737.4 C909.9,743.226 907.254,749.556 904.842,755.31 " fill="none" id="VaccineBulletinDto-backto-VaccineBulletinMapper" style="stroke:#181818;stroke-width:0.6;stroke-dasharray:7.0,7.0;"/><polygon fill="#181818" points="960.69,618.39,956.4452,622.5012,959.5685,621.1725,960.8972,624.2957,960.69,618.39" style="stroke:#181818;stroke-width:0.6;"/></g><!--MD5=[697a19812b70d181539613adcc311801]
link VaccineBulletinMapper to VaccineBulletin--><g id="link_VaccineBulletinMapper_VaccineBulletin"><path codeLine="112" d="M860.67,795.03 C798.12,828.408 669.372,897.12 598.596,934.89 " fill="none" id="VaccineBulletinMapper-to-VaccineBulletin" style="stroke:#181818;stroke-width:0.6;stroke-dasharray:7.0,7.0;"/><polygon fill="#181818" points="595.896,936.336,601.7899,935.9095,598.5423,934.9229,599.5289,931.6753,595.896,936.336" style="stroke:#181818;stroke-width:0.6;"/></g><!--MD5=[d0019c0afc7056194148dc542fcd30ca]
link SnsUser to VaccineBulletin--><g id="link_SnsUser_VaccineBulletin"><path codeLine="114" d="M165.48,325.932 C161.718,337.812 159.3,350.196 159.3,362.4 C159.3,362.4 159.3,362.4 159.3,889.8 C159.3,924.006 394.464,948.144 499.572,957.222 " fill="none" id="SnsUser-to-VaccineBulletin" style="stroke:#181818;stroke-width:0.6;stroke-dasharray:7.0,7.0;"/><polygon fill="#181818" points="502.644,957.486,497.4701,954.6311,499.6551,957.2283,497.0578,959.4133,502.644,957.486" style="stroke:#181818;stroke-width:0.6;"/></g><!--MD5=[55491af11c123c7940d323922bac986e]
@startuml
skinparam classAttributeIconSize 0

class RecordVaccineAdministrationUI {
+run()
-waitingRoomList()
-userFirstDose()
-setDosageAndVaccine(vaccineHistory)
-vaccineAdministrationPrompt(prompt)
-lotNumber()
}

class RecordVaccineAdministrationController {
+vaccineTypeAvailableVaccines();
+getSnsUserInformation(selectedUser);
+snsUserIndexInList(selectedUser);
+userFirstDoseAgeGroup(indexVaccine);
+getUserNumberOfDoses();
+dosageForDose(numberOfDoses, indexVaccine);
+vaccineAdministrationProcess(numberOfDoses, indexVaccine);
+validateLotNumber(lotNumber);
+registerVaccineInVaccineBulletin();
+printRecoveryTime();
+exportDataToFile();
}

class VaccinationCenter {
 -id
 -name
 -phoneNumber
 -email
 -fax
 -website
 -openingHour
 -closingHour
 -slotDuration
 -vaccinesPerSlot
 -road
 -zipCode
 -local
 -centerCoordinatorID
 -arrivalsList
 +VaccinationCenter(id, name, phoneNumber, email, fax, website, openingHour, closingHour, slotDuration, vaccinesPerSlot, road, zipCode, local, centerCoordinatorID)
 +addAppointment(newAppointment)
 +validateAppointment(scheduledVaccineDto)
 -centerHasAvailability(appointmentsList, scheduledVaccineDto, center)
 +validateAppointmentAccordingToAgeGroupAndTimeSinceLastDose(dto, company)
 +validateAppointmentAccordingToAdminProcess(snsUser, dto, takenVaccine)
 -getUserAgeGroup(snsUser, administrationProcess)
 -validateAgeGroup(snsUser, administrationProcess)
 }

class VaccineBulletinDto {
+vaccine
+dateTimeOfLastDose
+doseNumber
+lotNumber
}

class VaccineBulletinMapper {
+createScheduledVaccine(scheduledVaccineDto)
}

class Company{}

class Vaccine {
-name;
-id;
-brand;
-adminProcess;
-vaccineType;
}
 class VaccineBulletin {
-vaccine;
-dateTimeOfLastDose;
-doseNumber;
-lotNumber;
 }

class SnsUser {
- name;
- sex;
- birthDate;
- address;
- phoneNumber;
- email;
- userNumber;
- citizenCardNumber;
- password;
- takenVaccines;
+ snsUser(Name, Sex, BirthDate, Address, Number, Email, snsUserNumber, CitizenCardNumber, Password)
+ registerVaccine(TakenVaccine takenVaccine)
}

'UI
RecordVaccineAdministrationUI ...> RecordVaccineAdministrationController
RecordVaccineAdministrationUI ..> VaccineBulletinDto
'CONTROLLER
RecordVaccineAdministrationController ....> VaccineBulletinDto
RecordVaccineAdministrationController ....> VaccinationCenter
RecordVaccineAdministrationController .l.> Company
RecordVaccineAdministrationController ....> VaccineBulletinMapper
RecordVaccineAdministrationController ..> VaccineBulletin

Company "1" - - "*" VaccinationCenter : has >
Company "1" - -l- - "*" SnsUser : has >
Company "1" - - - - "*" Vaccine : has >

VaccinationCenter "1" -> "*" VaccineBulletin : has >
VaccineBulletin "*" - - -> "1" Vaccine : is associated to >

VaccineBulletinMapper .u.> VaccineBulletinDto
VaccineBulletinMapper ....> VaccineBulletin

SnsUser .> VaccineBulletin

@enduml

@startuml
skinparam classAttributeIconSize 0

class RecordVaccineAdministrationUI {
+run()
-waitingRoomList()
-userFirstDose()
-setDosageAndVaccine(vaccineHistory)
-vaccineAdministrationPrompt(prompt)
-lotNumber()
}

class RecordVaccineAdministrationController {
+vaccineTypeAvailableVaccines();
+getSnsUserInformation(selectedUser);
+snsUserIndexInList(selectedUser);
+userFirstDoseAgeGroup(indexVaccine);
+getUserNumberOfDoses();
+dosageForDose(numberOfDoses, indexVaccine);
+vaccineAdministrationProcess(numberOfDoses, indexVaccine);
+validateLotNumber(lotNumber);
+registerVaccineInVaccineBulletin();
+printRecoveryTime();
+exportDataToFile();
}

class VaccinationCenter {
 -id
 -name
 -phoneNumber
 -email
 -fax
 -website
 -openingHour
 -closingHour
 -slotDuration
 -vaccinesPerSlot
 -road
 -zipCode
 -local
 -centerCoordinatorID
 -arrivalsList
 +VaccinationCenter(id, name, phoneNumber, email, fax, website, openingHour, closingHour, slotDuration, vaccinesPerSlot, road, zipCode, local, centerCoordinatorID)
 +addAppointment(newAppointment)
 +validateAppointment(scheduledVaccineDto)
 -centerHasAvailability(appointmentsList, scheduledVaccineDto, center)
 +validateAppointmentAccordingToAgeGroupAndTimeSinceLastDose(dto, company)
 +validateAppointmentAccordingToAdminProcess(snsUser, dto, takenVaccine)
 -getUserAgeGroup(snsUser, administrationProcess)
 -validateAgeGroup(snsUser, administrationProcess)
 }

class VaccineBulletinDto {
+vaccine
+dateTimeOfLastDose
+doseNumber
+lotNumber
}

class VaccineBulletinMapper {
+createScheduledVaccine(scheduledVaccineDto)
}

class Company{}

class Vaccine {
-name;
-id;
-brand;
-adminProcess;
-vaccineType;
}
 class VaccineBulletin {
-vaccine;
-dateTimeOfLastDose;
-doseNumber;
-lotNumber;
 }

class SnsUser {
- name;
- sex;
- birthDate;
- address;
- phoneNumber;
- email;
- userNumber;
- citizenCardNumber;
- password;
- takenVaccines;
+ snsUser(Name, Sex, BirthDate, Address, Number, Email, snsUserNumber, CitizenCardNumber, Password)
+ registerVaccine(TakenVaccine takenVaccine)
}

RecordVaccineAdministrationUI ...> RecordVaccineAdministrationController
RecordVaccineAdministrationUI ..> VaccineBulletinDto
RecordVaccineAdministrationController ....> VaccineBulletinDto
RecordVaccineAdministrationController ....> VaccinationCenter
RecordVaccineAdministrationController .l.> Company
RecordVaccineAdministrationController ....> VaccineBulletinMapper
RecordVaccineAdministrationController ..> VaccineBulletin

Company "1" - - "*" VaccinationCenter : has >
Company "1" - -l- - "*" SnsUser : has >
Company "1" - - - - "*" Vaccine : has >

VaccinationCenter "1" -> "*" VaccineBulletin : has >
VaccineBulletin "*" - - -> "1" Vaccine : is associated to >

VaccineBulletinMapper .u.> VaccineBulletinDto
VaccineBulletinMapper ....> VaccineBulletin

SnsUser .> VaccineBulletin

@enduml

PlantUML version 1.2022.5(Sat Apr 30 11:55:52 BST 2022)
(GPL source distribution)
Java Runtime: OpenJDK Runtime Environment
JVM: OpenJDK 64-Bit Server VM
Default Encoding: Cp1252
Language: en
Country: US
--></g></svg>