<?xml version="1.0" encoding="UTF-8" standalone="no"?><svg xmlns="http://www.w3.org/2000/svg" xmlns:xlink="http://www.w3.org/1999/xlink" contentStyleType="text/css" height="1644px" preserveAspectRatio="none" style="width:1066px;height:1644px;background:#FFFFFF;" version="1.1" viewBox="0 0 1066 1644" width="1066px" zoomAndPan="magnify"><defs/><g><!--MD5=[adfaf45b6610d71f2f12b7cefe5f97bf]
class CheckAndExportVacStatsGUI--><g id="elem_CheckAndExportVacStatsGUI"><rect codeLine="5" fill="#F1F1F1" height="329.75" id="CheckAndExportVacStatsGUI" rx="2.5" ry="2.5" style="stroke:#181818;stroke-width:0.5;" width="360" x="505" y="7"/><ellipse cx="588.75" cy="23" fill="#ADD1B2" rx="11" ry="11" style="stroke:#181818;stroke-width:1.0;"/><path d="M590.75,19.5 Q590.9531,19 591.1875,18.75 Q591.4219,18.5 591.6875,18.5 Q592.1563,18.5 592.4531,18.7813 Q592.75,19.0625 592.75,19.7188 L592.75,21.2813 Q592.75,21.9375 592.4688,22.2188 Q592.1875,22.5 591.75,22.5 Q591.3594,22.5 591.1094,22.3281 Q590.8594,22.1563 590.75,21.7031 Q590.7031,21.3906 590.5313,21.2188 Q590.2188,20.8906 589.6563,20.7031 Q589.0938,20.5 588.5313,20.5 Q587.8281,20.5 587.2344,20.7813 Q586.6563,21.0625 586.2031,21.6875 Q585.75,22.3125 585.75,23.1719 L585.75,24.0938 Q585.75,25.125 586.5938,25.8125 Q587.4375,26.5 588.9375,26.5 Q589.8281,26.5 590.4531,26.2969 Q590.8125,26.1875 591.2188,25.8281 Q591.4844,25.625 591.625,25.5625 Q591.7656,25.5 591.9375,25.5 Q592.2656,25.5 592.5,25.7656 Q592.75,26.0156 592.75,26.375 Q592.75,26.7188 592.4063,27.125 Q591.9063,27.7188 591.1094,28.0469 Q590.0625,28.5 588.7813,28.5 Q587.2813,28.5 586.0781,27.9063 Q585.1094,27.4375 584.4219,26.4219 Q583.75,25.4063 583.75,24.2031 L583.75,23.1094 Q583.75,21.8594 584.3438,20.7656 Q584.9531,19.6719 586,19.0938 Q587.0625,18.5 588.25,18.5 Q588.9688,18.5 589.5938,18.75 Q590.2188,19 590.75,19.5 Z " fill="#000000"/><text fill="#000000" font-family="sans-serif" font-size="14" lengthAdjust="spacing" textLength="184" x="609.25" y="28.7285">CheckAndExportVacStatsGUI</text><line style="stroke:#181818;stroke-width:0.5;" x1="506" x2="864" y1="39" y2="39"/><text fill="#000000" font-family="sans-serif" font-size="14" lengthAdjust="spacing" textLength="348" x="511" y="57.5332">-controller : CheckAndExportVaccinationStatsController</text><text fill="#000000" font-family="sans-serif" font-size="14" lengthAdjust="spacing" textLength="178" x="511" y="75.1426">-firstDatePicker : DatePicker</text><text fill="#000000" font-family="sans-serif" font-size="14" lengthAdjust="spacing" textLength="177" x="511" y="92.752">-lastDatePicker : DatePicker</text><text fill="#000000" font-family="sans-serif" font-size="14" lengthAdjust="spacing" textLength="94" x="511" y="110.3613">-okBtn : Button</text><text fill="#000000" font-family="sans-serif" font-size="14" lengthAdjust="spacing" textLength="174" x="511" y="127.9707">-askFileNameTxt : TextArea</text><line style="stroke:#181818;stroke-width:0.5;" x1="506" x2="864" y1="135.0469" y2="135.0469"/><text fill="#000000" font-family="sans-serif" font-size="14" lengthAdjust="spacing" textLength="202" x="511" y="153.5801">+CheckAndExportVacStatsGUI()</text><text fill="#000000" font-family="sans-serif" font-size="14" lengthAdjust="spacing" textLength="83" x="511" y="171.1895">+back(event)</text><text fill="#000000" font-family="sans-serif" font-size="14" lengthAdjust="spacing" textLength="148" x="511" y="188.7988">+setFirstDate(firstDate)</text><text fill="#000000" font-family="sans-serif" font-size="14" lengthAdjust="spacing" textLength="146" x="511" y="206.4082">+setLastDate(lastDate)</text><text fill="#000000" font-family="sans-serif" font-size="14" lengthAdjust="spacing" textLength="187" x="511" y="224.0176">+setFirstDatePicker(firstDate)</text><text fill="#000000" font-family="sans-serif" font-size="14" lengthAdjust="spacing" textLength="185" x="511" y="241.627">+setLastDatePicker(lastDate)</text><text fill="#000000" font-family="sans-serif" font-size="14" lengthAdjust="spacing" textLength="146" x="511" y="259.2363">+checkStatistics(event)</text><text fill="#000000" font-family="sans-serif" font-size="14" lengthAdjust="spacing" textLength="148" x="511" y="276.8457">+exportStatistics(event)</text><text fill="#000000" font-family="sans-serif" font-size="14" lengthAdjust="spacing" textLength="190" x="511" y="294.4551">+exportStatisticsOption(event)</text><text fill="#000000" font-family="sans-serif" font-size="14" lengthAdjust="spacing" textLength="198" x="511" y="312.0645">-toCheckVacStatsScene(event)</text><text fill="#000000" font-family="sans-serif" font-size="14" lengthAdjust="spacing" textLength="215" x="511" y="329.6738">-toCenterCoordinatorMenu(event)</text></g><!--MD5=[c7faf042af3f035e4919ed3b81476ec4]
class CheckListVacStatsGUI--><g id="elem_CheckListVacStatsGUI"><rect codeLine="26" fill="#F1F1F1" height="171.2656" id="CheckListVacStatsGUI" rx="2.5" ry="2.5" style="stroke:#181818;stroke-width:0.5;" width="360" x="331" y="398"/><ellipse cx="436.25" cy="414" fill="#ADD1B2" rx="11" ry="11" style="stroke:#181818;stroke-width:1.0;"/><path d="M438.25,410.5 Q438.4531,410 438.6875,409.75 Q438.9219,409.5 439.1875,409.5 Q439.6563,409.5 439.9531,409.7813 Q440.25,410.0625 440.25,410.7188 L440.25,412.2813 Q440.25,412.9375 439.9688,413.2188 Q439.6875,413.5 439.25,413.5 Q438.8594,413.5 438.6094,413.3281 Q438.3594,413.1563 438.25,412.7031 Q438.2031,412.3906 438.0313,412.2188 Q437.7188,411.8906 437.1563,411.7031 Q436.5938,411.5 436.0313,411.5 Q435.3281,411.5 434.7344,411.7813 Q434.1563,412.0625 433.7031,412.6875 Q433.25,413.3125 433.25,414.1719 L433.25,415.0938 Q433.25,416.125 434.0938,416.8125 Q434.9375,417.5 436.4375,417.5 Q437.3281,417.5 437.9531,417.2969 Q438.3125,417.1875 438.7188,416.8281 Q438.9844,416.625 439.125,416.5625 Q439.2656,416.5 439.4375,416.5 Q439.7656,416.5 440,416.7656 Q440.25,417.0156 440.25,417.375 Q440.25,417.7188 439.9063,418.125 Q439.4063,418.7188 438.6094,419.0469 Q437.5625,419.5 436.2813,419.5 Q434.7813,419.5 433.5781,418.9063 Q432.6094,418.4375 431.9219,417.4219 Q431.25,416.4063 431.25,415.2031 L431.25,414.1094 Q431.25,412.8594 431.8438,411.7656 Q432.4531,410.6719 433.5,410.0938 Q434.5625,409.5 435.75,409.5 Q436.4688,409.5 437.0938,409.75 Q437.7188,410 438.25,410.5 Z " fill="#000000"/><text fill="#000000" font-family="sans-serif" font-size="14" lengthAdjust="spacing" textLength="141" x="456.75" y="419.7285">CheckListVacStatsGUI</text><line style="stroke:#181818;stroke-width:0.5;" x1="332" x2="690" y1="430" y2="430"/><text fill="#000000" font-family="sans-serif" font-size="14" lengthAdjust="spacing" textLength="348" x="337" y="448.5332">-controller : CheckAndExportVaccinationStatsController</text><text fill="#000000" font-family="sans-serif" font-size="14" lengthAdjust="spacing" textLength="142" x="337" y="466.1426">-tableView : TableView</text><text fill="#000000" font-family="sans-serif" font-size="14" lengthAdjust="spacing" textLength="177" x="337" y="483.752">-dateColumn : TableColumn</text><text fill="#000000" font-family="sans-serif" font-size="14" lengthAdjust="spacing" textLength="246" x="337" y="501.3613">-totalVaccinatedColumn : TableColumn</text><line style="stroke:#181818;stroke-width:0.5;" x1="332" x2="690" y1="508.4375" y2="508.4375"/><text fill="#000000" font-family="sans-serif" font-size="14" lengthAdjust="spacing" textLength="159" x="337" y="526.9707">+CheckListVacStatsGUI()</text><text fill="#000000" font-family="sans-serif" font-size="14" lengthAdjust="spacing" textLength="105" x="337" y="544.5801">+setStatsTable()</text><text fill="#000000" font-family="sans-serif" font-size="14" lengthAdjust="spacing" textLength="83" x="337" y="562.1895">+back(event)</text></g><!--MD5=[093ee6cbab074bc282deae827ec29a7d]
class CheckAndExportVaccinationStatsController--><g id="elem_CheckAndExportVaccinationStatsController"><rect codeLine="38" fill="#F1F1F1" height="259.3125" id="CheckAndExportVaccinationStatsController" rx="2.5" ry="2.5" style="stroke:#181818;stroke-width:0.5;" width="304" x="475" y="630"/><ellipse cx="490" cy="646" fill="#ADD1B2" rx="11" ry="11" style="stroke:#181818;stroke-width:1.0;"/><path d="M492,642.5 Q492.2031,642 492.4375,641.75 Q492.6719,641.5 492.9375,641.5 Q493.4063,641.5 493.7031,641.7813 Q494,642.0625 494,642.7188 L494,644.2813 Q494,644.9375 493.7188,645.2188 Q493.4375,645.5 493,645.5 Q492.6094,645.5 492.3594,645.3281 Q492.1094,645.1563 492,644.7031 Q491.9531,644.3906 491.7813,644.2188 Q491.4688,643.8906 490.9063,643.7031 Q490.3438,643.5 489.7813,643.5 Q489.0781,643.5 488.4844,643.7813 Q487.9063,644.0625 487.4531,644.6875 Q487,645.3125 487,646.1719 L487,647.0938 Q487,648.125 487.8438,648.8125 Q488.6875,649.5 490.1875,649.5 Q491.0781,649.5 491.7031,649.2969 Q492.0625,649.1875 492.4688,648.8281 Q492.7344,648.625 492.875,648.5625 Q493.0156,648.5 493.1875,648.5 Q493.5156,648.5 493.75,648.7656 Q494,649.0156 494,649.375 Q494,649.7188 493.6563,650.125 Q493.1563,650.7188 492.3594,651.0469 Q491.3125,651.5 490.0313,651.5 Q488.5313,651.5 487.3281,650.9063 Q486.3594,650.4375 485.6719,649.4219 Q485,648.4063 485,647.2031 L485,646.1094 Q485,644.8594 485.5938,643.7656 Q486.2031,642.6719 487.25,642.0938 Q488.3125,641.5 489.5,641.5 Q490.2188,641.5 490.8438,641.75 Q491.4688,642 492,642.5 Z " fill="#000000"/><text fill="#000000" font-family="sans-serif" font-size="14" lengthAdjust="spacing" textLength="272" x="504" y="651.7285">CheckAndExportVaccinationStatsController</text><line style="stroke:#181818;stroke-width:0.5;" x1="476" x2="778" y1="662" y2="662"/><text fill="#000000" font-family="sans-serif" font-size="14" lengthAdjust="spacing" textLength="173" x="481" y="680.5332">-center : VaccinationCenter</text><text fill="#000000" font-family="sans-serif" font-size="14" lengthAdjust="spacing" textLength="134" x="481" y="698.1426">-firstDate : LocalDate</text><text fill="#000000" font-family="sans-serif" font-size="14" lengthAdjust="spacing" textLength="133" x="481" y="715.752">-lastDate : LocalDate</text><line style="stroke:#181818;stroke-width:0.5;" x1="476" x2="778" y1="722.8281" y2="722.8281"/><text fill="#000000" font-family="sans-serif" font-size="14" lengthAdjust="spacing" textLength="290" x="481" y="741.3613">+CheckAndExportVaccinationStatsController()</text><text fill="#000000" font-family="sans-serif" font-size="14" lengthAdjust="spacing" textLength="148" x="481" y="758.9707">+setFirstDate(firstDate)</text><text fill="#000000" font-family="sans-serif" font-size="14" lengthAdjust="spacing" textLength="146" x="481" y="776.5801">+setLastDate(lastDate)</text><text fill="#000000" font-family="sans-serif" font-size="14" lengthAdjust="spacing" textLength="96" x="481" y="794.1895">+getFirstDate()</text><text fill="#000000" font-family="sans-serif" font-size="14" lengthAdjust="spacing" textLength="95" x="481" y="811.7988">+getLastDate()</text><text fill="#000000" font-family="sans-serif" font-size="14" lengthAdjust="spacing" textLength="152" x="481" y="829.4082">+checkIfDatesAreValid()</text><text fill="#000000" font-family="sans-serif" font-size="14" lengthAdjust="spacing" textLength="240" x="481" y="847.0176">+exportVaccinationStatistics(fileName)</text><text fill="#000000" font-family="sans-serif" font-size="14" lengthAdjust="spacing" textLength="256" x="481" y="864.627">+getVaccinationStatsListBetweenDates()</text><text fill="#000000" font-family="sans-serif" font-size="14" lengthAdjust="spacing" textLength="250" x="481" y="882.2363">+toCheckVaccinationStatsScene(event)</text></g><!--MD5=[02e4b9b7573f1156f41e60aa5b4e25a4]
class Company--><g id="elem_Company"><rect codeLine="55" fill="#F1F1F1" height="48" id="Company" rx="2.5" ry="2.5" style="stroke:#181818;stroke-width:0.5;" width="92" x="581" y="950"/><ellipse cx="596" cy="966" fill="#ADD1B2" rx="11" ry="11" style="stroke:#181818;stroke-width:1.0;"/><path d="M598,962.5 Q598.2031,962 598.4375,961.75 Q598.6719,961.5 598.9375,961.5 Q599.4063,961.5 599.7031,961.7813 Q600,962.0625 600,962.7188 L600,964.2813 Q600,964.9375 599.7188,965.2188 Q599.4375,965.5 599,965.5 Q598.6094,965.5 598.3594,965.3281 Q598.1094,965.1563 598,964.7031 Q597.9531,964.3906 597.7813,964.2188 Q597.4688,963.8906 596.9063,963.7031 Q596.3438,963.5 595.7813,963.5 Q595.0781,963.5 594.4844,963.7813 Q593.9063,964.0625 593.4531,964.6875 Q593,965.3125 593,966.1719 L593,967.0938 Q593,968.125 593.8438,968.8125 Q594.6875,969.5 596.1875,969.5 Q597.0781,969.5 597.7031,969.2969 Q598.0625,969.1875 598.4688,968.8281 Q598.7344,968.625 598.875,968.5625 Q599.0156,968.5 599.1875,968.5 Q599.5156,968.5 599.75,968.7656 Q600,969.0156 600,969.375 Q600,969.7188 599.6563,970.125 Q599.1563,970.7188 598.3594,971.0469 Q597.3125,971.5 596.0313,971.5 Q594.5313,971.5 593.3281,970.9063 Q592.3594,970.4375 591.6719,969.4219 Q591,968.4063 591,967.2031 L591,966.1094 Q591,964.8594 591.5938,963.7656 Q592.2031,962.6719 593.25,962.0938 Q594.3125,961.5 595.5,961.5 Q596.2188,961.5 596.8438,961.75 Q597.4688,962 598,962.5 Z " fill="#000000"/><text fill="#000000" font-family="sans-serif" font-size="14" lengthAdjust="spacing" textLength="60" x="610" y="971.7285">Company</text><line style="stroke:#181818;stroke-width:0.5;" x1="582" x2="672" y1="982" y2="982"/><line style="stroke:#181818;stroke-width:0.5;" x1="582" x2="672" y1="990" y2="990"/></g><!--MD5=[de60e6d4f424ae4d0522096f76a59010]
class VaccinationCenter--><g id="elem_VaccinationCenter"><rect codeLine="59" fill="#F1F1F1" height="382.5781" id="VaccinationCenter" rx="2.5" ry="2.5" style="stroke:#181818;stroke-width:0.5;" width="1052" x="7" y="1255"/><ellipse cx="470.75" cy="1271" fill="#ADD1B2" rx="11" ry="11" style="stroke:#181818;stroke-width:1.0;"/><path d="M472.75,1267.5 Q472.9531,1267 473.1875,1266.75 Q473.4219,1266.5 473.6875,1266.5 Q474.1563,1266.5 474.4531,1266.7813 Q474.75,1267.0625 474.75,1267.7188 L474.75,1269.2813 Q474.75,1269.9375 474.4688,1270.2188 Q474.1875,1270.5 473.75,1270.5 Q473.3594,1270.5 473.1094,1270.3281 Q472.8594,1270.1563 472.75,1269.7031 Q472.7031,1269.3906 472.5313,1269.2188 Q472.2188,1268.8906 471.6563,1268.7031 Q471.0938,1268.5 470.5313,1268.5 Q469.8281,1268.5 469.2344,1268.7813 Q468.6563,1269.0625 468.2031,1269.6875 Q467.75,1270.3125 467.75,1271.1719 L467.75,1272.0938 Q467.75,1273.125 468.5938,1273.8125 Q469.4375,1274.5 470.9375,1274.5 Q471.8281,1274.5 472.4531,1274.2969 Q472.8125,1274.1875 473.2188,1273.8281 Q473.4844,1273.625 473.625,1273.5625 Q473.7656,1273.5 473.9375,1273.5 Q474.2656,1273.5 474.5,1273.7656 Q474.75,1274.0156 474.75,1274.375 Q474.75,1274.7188 474.4063,1275.125 Q473.9063,1275.7188 473.1094,1276.0469 Q472.0625,1276.5 470.7813,1276.5 Q469.2813,1276.5 468.0781,1275.9063 Q467.1094,1275.4375 466.4219,1274.4219 Q465.75,1273.4063 465.75,1272.2031 L465.75,1271.1094 Q465.75,1269.8594 466.3438,1268.7656 Q466.9531,1267.6719 468,1267.0938 Q469.0625,1266.5 470.25,1266.5 Q470.9688,1266.5 471.5938,1266.75 Q472.2188,1267 472.75,1267.5 Z " fill="#000000"/><text fill="#000000" font-family="sans-serif" font-size="14" lengthAdjust="spacing" textLength="116" x="491.25" y="1276.7285">VaccinationCenter</text><line style="stroke:#181818;stroke-width:0.5;" x1="8" x2="1058" y1="1287" y2="1287"/><text fill="#000000" font-family="sans-serif" font-size="14" lengthAdjust="spacing" textLength="16" x="13" y="1305.5332">-id</text><text fill="#000000" font-family="sans-serif" font-size="14" lengthAdjust="spacing" textLength="40" x="13" y="1323.1426">-name</text><text fill="#000000" font-family="sans-serif" font-size="14" lengthAdjust="spacing" textLength="94" x="13" y="1340.752">-phoneNumber</text><text fill="#000000" font-family="sans-serif" font-size="14" lengthAdjust="spacing" textLength="38" x="13" y="1358.3613">-email</text><text fill="#000000" font-family="sans-serif" font-size="14" lengthAdjust="spacing" textLength="23" x="13" y="1375.9707">-fax</text><text fill="#000000" font-family="sans-serif" font-size="14" lengthAdjust="spacing" textLength="52" x="13" y="1393.5801">-website</text><text fill="#000000" font-family="sans-serif" font-size="14" lengthAdjust="spacing" textLength="86" x="13" y="1411.1895">-openingHour</text><text fill="#000000" font-family="sans-serif" font-size="14" lengthAdjust="spacing" textLength="79" x="13" y="1428.7988">-closingHour</text><text fill="#000000" font-family="sans-serif" font-size="14" lengthAdjust="spacing" textLength="81" x="13" y="1446.4082">-slotDuration</text><text fill="#000000" font-family="sans-serif" font-size="14" lengthAdjust="spacing" textLength="106" x="13" y="1464.0176">-vaccinesPerSlot</text><text fill="#000000" font-family="sans-serif" font-size="14" lengthAdjust="spacing" textLength="34" x="13" y="1481.627">-road</text><text fill="#000000" font-family="sans-serif" font-size="14" lengthAdjust="spacing" textLength="56" x="13" y="1499.2363">-zipCode</text><text fill="#000000" font-family="sans-serif" font-size="14" lengthAdjust="spacing" textLength="34" x="13" y="1516.8457">-local</text><text fill="#000000" font-family="sans-serif" font-size="14" lengthAdjust="spacing" textLength="133" x="13" y="1534.4551">-centerCoordinatorID</text><line style="stroke:#181818;stroke-width:0.5;" x1="8" x2="1058" y1="1541.5313" y2="1541.5313"/><text fill="#000000" font-family="sans-serif" font-size="14" lengthAdjust="spacing" textLength="1040" x="13" y="1560.0645">+VaccinationCenter(id, name, phoneNumber, email, fax, website, openingHour, closingHour, slotDuration, vaccinesPerSlot, road, zipCode, local, centerCoordinatorID)</text><text fill="#000000" font-family="sans-serif" font-size="14" lengthAdjust="spacing" textLength="256" x="13" y="1577.6738">+addFullyVaccinated(newAdministration)</text><text fill="#000000" font-family="sans-serif" font-size="14" lengthAdjust="spacing" textLength="162" x="13" y="1595.2832">-getVaccinationStatsList()</text><text fill="#000000" font-family="sans-serif" font-size="14" lengthAdjust="spacing" textLength="369" x="13" y="1612.8926">+getVaccinationStatsListBetweenDates(firstDate, lastDate)</text><text fill="#000000" font-family="sans-serif" font-size="14" lengthAdjust="spacing" textLength="270" x="13" y="1630.502">+getFirstDateAvailable(listFullyVaccinated)</text></g><!--MD5=[c6871c470bedcfae230ac99e02851447]
class VaccinationCentersStore--><g id="elem_VaccinationCentersStore"><rect codeLine="81" fill="#F1F1F1" height="100.8281" id="VaccinationCentersStore" rx="2.5" ry="2.5" style="stroke:#181818;stroke-width:0.5;" width="410" x="604" y="1076"/><ellipse cx="726.25" cy="1092" fill="#ADD1B2" rx="11" ry="11" style="stroke:#181818;stroke-width:1.0;"/><path d="M728.25,1088.5 Q728.4531,1088 728.6875,1087.75 Q728.9219,1087.5 729.1875,1087.5 Q729.6563,1087.5 729.9531,1087.7813 Q730.25,1088.0625 730.25,1088.7188 L730.25,1090.2813 Q730.25,1090.9375 729.9688,1091.2188 Q729.6875,1091.5 729.25,1091.5 Q728.8594,1091.5 728.6094,1091.3281 Q728.3594,1091.1563 728.25,1090.7031 Q728.2031,1090.3906 728.0313,1090.2188 Q727.7188,1089.8906 727.1563,1089.7031 Q726.5938,1089.5 726.0313,1089.5 Q725.3281,1089.5 724.7344,1089.7813 Q724.1563,1090.0625 723.7031,1090.6875 Q723.25,1091.3125 723.25,1092.1719 L723.25,1093.0938 Q723.25,1094.125 724.0938,1094.8125 Q724.9375,1095.5 726.4375,1095.5 Q727.3281,1095.5 727.9531,1095.2969 Q728.3125,1095.1875 728.7188,1094.8281 Q728.9844,1094.625 729.125,1094.5625 Q729.2656,1094.5 729.4375,1094.5 Q729.7656,1094.5 730,1094.7656 Q730.25,1095.0156 730.25,1095.375 Q730.25,1095.7188 729.9063,1096.125 Q729.4063,1096.7188 728.6094,1097.0469 Q727.5625,1097.5 726.2813,1097.5 Q724.7813,1097.5 723.5781,1096.9063 Q722.6094,1096.4375 721.9219,1095.4219 Q721.25,1094.4063 721.25,1093.2031 L721.25,1092.1094 Q721.25,1090.8594 721.8438,1089.7656 Q722.4531,1088.6719 723.5,1088.0938 Q724.5625,1087.5 725.75,1087.5 Q726.4688,1087.5 727.0938,1087.75 Q727.7188,1088 728.25,1088.5 Z " fill="#000000"/><text fill="#000000" font-family="sans-serif" font-size="14" lengthAdjust="spacing" textLength="157" x="746.75" y="1097.7285">VaccinationCentersStore</text><line style="stroke:#181818;stroke-width:0.5;" x1="605" x2="1013" y1="1108" y2="1108"/><text fill="#000000" font-family="sans-serif" font-size="14" lengthAdjust="spacing" textLength="292" x="610" y="1126.5332">-vaccinationCenters : List&lt;VaccinationCenter&gt;</text><line style="stroke:#181818;stroke-width:0.5;" x1="605" x2="1013" y1="1133.6094" y2="1133.6094"/><text fill="#000000" font-family="sans-serif" font-size="14" lengthAdjust="spacing" textLength="161" x="610" y="1152.1426">+getVaccinationCenters()</text><text fill="#000000" font-family="sans-serif" font-size="14" lengthAdjust="spacing" textLength="398" x="610" y="1169.752">+getVaccinationCenterAssociatedToCoordinator(coordinatorId)</text></g><!--MD5=[99e05155ffd03a85ec190e9f6e70e52b]
link CheckAndExportVacStatsGUI to CheckListVacStatsGUI--><g id="link_CheckAndExportVacStatsGUI_CheckListVacStatsGUI"><path codeLine="90" d="M592.65,337.27 C581.78,356.61 571.02,375.75 561.05,393.47 " fill="none" id="CheckAndExportVacStatsGUI-to-CheckListVacStatsGUI" style="stroke:#181818;stroke-width:1.0;stroke-dasharray:7.0,7.0;"/><polygon fill="#181818" points="558.53,397.95,566.4351,392.0755,560.9861,393.5948,559.4667,388.1458,558.53,397.95" style="stroke:#181818;stroke-width:1.0;"/></g><!--MD5=[49a15542884c43ce36329a5ca0fe3da5]
link CheckAndExportVacStatsGUI to CheckAndExportVaccinationStatsController--><g id="link_CheckAndExportVacStatsGUI_CheckAndExportVaccinationStatsController"><path codeLine="91" d="M714.19,337.19 C722.03,408.98 724.57,493.8 709,569 C705.18,587.45 699.47,606.31 692.81,624.64 " fill="none" id="CheckAndExportVacStatsGUI-to-CheckAndExportVaccinationStatsController" style="stroke:#181818;stroke-width:1.0;stroke-dasharray:7.0,7.0;"/><polygon fill="#181818" points="690.91,629.79,697.7966,622.7491,692.6531,625.1037,690.2985,619.9601,690.91,629.79" style="stroke:#181818;stroke-width:1.0;"/></g><!--MD5=[f5c4f8928a3cfa0043d5a13387abdfde]
link CheckListVacStatsGUI to CheckAndExportVaccinationStatsController--><g id="link_CheckListVacStatsGUI_CheckAndExportVaccinationStatsController"><path codeLine="92" d="M546.91,569.32 C554.39,587 562.45,606.03 570.48,624.99 " fill="none" id="CheckListVacStatsGUI-to-CheckAndExportVaccinationStatsController" style="stroke:#181818;stroke-width:1.0;stroke-dasharray:7.0,7.0;"/><polygon fill="#181818" points="572.51,629.8,572.6782,619.9526,570.5576,625.1969,565.3133,623.0764,572.51,629.8" style="stroke:#181818;stroke-width:1.0;"/></g><!--MD5=[bccdf9b4c4c72c3f1b1ff23b59954d42]
link CheckAndExportVaccinationStatsController to VaccinationCentersStore--><g id="link_CheckAndExportVaccinationStatsController_VaccinationCentersStore"><path codeLine="96" d="M691.17,889.19 C722.3,951.62 758.03,1023.28 781.91,1071.17 " fill="none" id="CheckAndExportVaccinationStatsController-to-VaccinationCentersStore" style="stroke:#181818;stroke-width:1.0;stroke-dasharray:7.0,7.0;"/><polygon fill="#181818" points="784.18,1075.73,783.7579,1065.8902,781.9553,1071.2522,776.5934,1069.4496,784.18,1075.73" style="stroke:#181818;stroke-width:1.0;"/></g><!--MD5=[dbd3c99bf3c9da99ac3c6aa9773f4967]
link CheckAndExportVaccinationStatsController to VaccinationCenter--><g id="link_CheckAndExportVaccinationStatsController_VaccinationCenter"><path codeLine="97" d="M573.48,889.07 C552.52,945.42 530.73,1012.96 519,1076 C506.88,1141.14 511.15,1158.8 514,1225 C514.35,1233.11 514.77,1241.38 515.25,1249.73 " fill="none" id="CheckAndExportVaccinationStatsController-to-VaccinationCenter" style="stroke:#181818;stroke-width:1.0;stroke-dasharray:7.0,7.0;"/><polygon fill="#181818" points="515.55,1254.94,519.0038,1245.7166,515.2505,1249.949,511.0182,1246.1957,515.55,1254.94" style="stroke:#181818;stroke-width:1.0;"/></g><!--MD5=[f4ecbfdd85ceba349ca2dd49a68e3853]
link CheckAndExportVaccinationStatsController to Company--><g id="link_CheckAndExportVaccinationStatsController_Company"><path codeLine="98" d="M627,889.01 C627,909.88 627,929.54 627,944.59 " fill="none" id="CheckAndExportVaccinationStatsController-to-Company" style="stroke:#181818;stroke-width:1.0;stroke-dasharray:7.0,7.0;"/><polygon fill="#181818" points="627,949.92,631,940.92,627,944.92,623,940.92,627,949.92" style="stroke:#181818;stroke-width:1.0;"/></g><!--MD5=[29286e1800b224f442cd4de52a9be642]
link Company to VaccinationCentersStore--><g id="link_Company_VaccinationCentersStore"><path codeLine="104" d="M652.22,998.12 C667.79,1012.21 688.3,1030.44 707,1046 C718.82,1055.84 731.62,1066.1 744.03,1075.86 " fill="none" id="Company-VaccinationCentersStore" style="stroke:#181818;stroke-width:1.0;"/><polygon fill="#000000" points="715.8158,1040.4068,710.8121,1032.3189,707.0138,1036.8047,715.8158,1040.4068" style="stroke:#000000;stroke-width:1.0;"/><text fill="#000000" font-family="sans-serif" font-size="13" lengthAdjust="spacing" textLength="21" x="721" y="1042.4951">has</text><text fill="#000000" font-family="sans-serif" font-size="13" lengthAdjust="spacing" textLength="7" x="650.5143" y="1019.4872">1</text><text fill="#000000" font-family="sans-serif" font-size="13" lengthAdjust="spacing" textLength="7" x="727.4014" y="1065.1457">1</text></g><!--MD5=[eebe9b198877275d05dd12630ed9e401]
link Company to VaccinationCenter--><g id="link_Company_VaccinationCenter"><path codeLine="105" d="M602.66,998.16 C584.5,1017.15 561,1045.75 550,1076 C529.65,1131.98 521.82,1195.9 520.1,1254.65 " fill="none" id="Company-VaccinationCenter" style="stroke:#181818;stroke-width:1.0;"/><polygon fill="#000000" points="553.468,1131.4353,559.037,1123.7257,553.4419,1121.9248,553.468,1131.4353" style="stroke:#000000;stroke-width:1.0;"/><text fill="#000000" font-family="sans-serif" font-size="13" lengthAdjust="spacing" textLength="21" x="564" y="1131.9951">has</text><text fill="#000000" font-family="sans-serif" font-size="13" lengthAdjust="spacing" textLength="7" x="588.874" y="1019.537">1</text><text fill="#000000" font-family="sans-serif" font-size="13" lengthAdjust="spacing" textLength="5" x="514.4984" y="1244.3536">*</text></g><!--MD5=[f36d163a63d7d7b60e9f6201c7b725d8]
link VaccinationCentersStore to VaccinationCenter--><g id="link_VaccinationCentersStore_VaccinationCenter"><path codeLine="106" d="M765.88,1177.19 C746.92,1199.02 723.35,1226.19 698.53,1254.78 " fill="none" id="VaccinationCentersStore-VaccinationCenter" style="stroke:#181818;stroke-width:1.0;"/><polygon fill="#000000" points="735.7224,1219.9517,743.871,1215.0475,739.4322,1211.1945,735.7224,1219.9517" style="stroke:#000000;stroke-width:1.0;"/><text fill="#000000" font-family="sans-serif" font-size="13" lengthAdjust="spacing" textLength="21" x="748" y="1221.4951">has</text><text fill="#000000" font-family="sans-serif" font-size="13" lengthAdjust="spacing" textLength="7" x="752.9068" y="1198.2383">1</text><text fill="#000000" font-family="sans-serif" font-size="13" lengthAdjust="spacing" textLength="5" x="700.4078" y="1243.8657">*</text></g><!--MD5=[f08869e964be6697b4fb484c2da85769]
@startuml
skinparam classAttributeIconSize 0



class CheckAndExportVacStatsGUI {
-controller : CheckAndExportVaccinationStatsController
-firstDatePicker : DatePicker
-lastDatePicker : DatePicker
-okBtn : Button
-askFileNameTxt : TextArea

+CheckAndExportVacStatsGUI()
+back(event)
+setFirstDate(firstDate)
+setLastDate(lastDate)
+setFirstDatePicker(firstDate)
+setLastDatePicker(lastDate)
+checkStatistics(event)
+exportStatistics(event)
+exportStatisticsOption(event)
-toCheckVacStatsScene(event)
-toCenterCoordinatorMenu(event)

}

class CheckListVacStatsGUI {
-controller : CheckAndExportVaccinationStatsController
-tableView : TableView
-dateColumn : TableColumn
-totalVaccinatedColumn : TableColumn
+CheckListVacStatsGUI()
+setStatsTable()
+back(event)
}



class CheckAndExportVaccinationStatsController {
-center : VaccinationCenter
- firstDate : LocalDate
- lastDate : LocalDate
+CheckAndExportVaccinationStatsController()
+setFirstDate(firstDate)
+setLastDate(lastDate)
+getFirstDate()
+getLastDate()
+checkIfDatesAreValid()
+exportVaccinationStatistics(fileName)
+getVaccinationStatsListBetweenDates()
+toCheckVaccinationStatsScene(event)
}



class Company{

}

class VaccinationCenter {
-id
-name
-phoneNumber
-email
-fax
-website
-openingHour
-closingHour
-slotDuration
-vaccinesPerSlot
-road
-zipCode
-local
-centerCoordinatorID
+VaccinationCenter(id, name, phoneNumber, email, fax, website, openingHour, closingHour, slotDuration, vaccinesPerSlot, road, zipCode, local, centerCoordinatorID)
+addFullyVaccinated(newAdministration)
-getVaccinationStatsList()
+getVaccinationStatsListBetweenDates(firstDate, lastDate)
+getFirstDateAvailable(listFullyVaccinated)
}

class VaccinationCentersStore {
-vaccinationCenters : List<VaccinationCenter>
+getVaccinationCenters()
+getVaccinationCenterAssociatedToCoordinator(coordinatorId)

}


'UI
CheckAndExportVacStatsGUI ..> CheckListVacStatsGUI
CheckAndExportVacStatsGUI ..> CheckAndExportVaccinationStatsController
CheckListVacStatsGUI ..> CheckAndExportVaccinationStatsController

'CONTROLLER

CheckAndExportVaccinationStatsController ..> VaccinationCentersStore
CheckAndExportVaccinationStatsController ..> VaccinationCenter
CheckAndExportVaccinationStatsController ..> Company



'DOMAIN

Company "1" - - "1" VaccinationCentersStore : has >
Company "1" - - "*" VaccinationCenter : has >
VaccinationCentersStore "1" - - "*" VaccinationCenter : has >


@enduml

@startuml
skinparam classAttributeIconSize 0



class CheckAndExportVacStatsGUI {
-controller : CheckAndExportVaccinationStatsController
-firstDatePicker : DatePicker
-lastDatePicker : DatePicker
-okBtn : Button
-askFileNameTxt : TextArea

+CheckAndExportVacStatsGUI()
+back(event)
+setFirstDate(firstDate)
+setLastDate(lastDate)
+setFirstDatePicker(firstDate)
+setLastDatePicker(lastDate)
+checkStatistics(event)
+exportStatistics(event)
+exportStatisticsOption(event)
-toCheckVacStatsScene(event)
-toCenterCoordinatorMenu(event)

}

class CheckListVacStatsGUI {
-controller : CheckAndExportVaccinationStatsController
-tableView : TableView
-dateColumn : TableColumn
-totalVaccinatedColumn : TableColumn
+CheckListVacStatsGUI()
+setStatsTable()
+back(event)
}



class CheckAndExportVaccinationStatsController {
-center : VaccinationCenter
- firstDate : LocalDate
- lastDate : LocalDate
+CheckAndExportVaccinationStatsController()
+setFirstDate(firstDate)
+setLastDate(lastDate)
+getFirstDate()
+getLastDate()
+checkIfDatesAreValid()
+exportVaccinationStatistics(fileName)
+getVaccinationStatsListBetweenDates()
+toCheckVaccinationStatsScene(event)
}



class Company{

}

class VaccinationCenter {
-id
-name
-phoneNumber
-email
-fax
-website
-openingHour
-closingHour
-slotDuration
-vaccinesPerSlot
-road
-zipCode
-local
-centerCoordinatorID
+VaccinationCenter(id, name, phoneNumber, email, fax, website, openingHour, closingHour, slotDuration, vaccinesPerSlot, road, zipCode, local, centerCoordinatorID)
+addFullyVaccinated(newAdministration)
-getVaccinationStatsList()
+getVaccinationStatsListBetweenDates(firstDate, lastDate)
+getFirstDateAvailable(listFullyVaccinated)
}

class VaccinationCentersStore {
-vaccinationCenters : List<VaccinationCenter>
+getVaccinationCenters()
+getVaccinationCenterAssociatedToCoordinator(coordinatorId)

}


CheckAndExportVacStatsGUI ..> CheckListVacStatsGUI
CheckAndExportVacStatsGUI ..> CheckAndExportVaccinationStatsController
CheckListVacStatsGUI ..> CheckAndExportVaccinationStatsController


CheckAndExportVaccinationStatsController ..> VaccinationCentersStore
CheckAndExportVaccinationStatsController ..> VaccinationCenter
CheckAndExportVaccinationStatsController ..> Company




Company "1" - - "1" VaccinationCentersStore : has >
Company "1" - - "*" VaccinationCenter : has >
VaccinationCentersStore "1" - - "*" VaccinationCenter : has >


@enduml

PlantUML version 1.2022.5(Sat Apr 30 11:55:52 BST 2022)
(GPL source distribution)
Java Runtime: OpenJDK Runtime Environment
JVM: OpenJDK 64-Bit Server VM
Default Encoding: Cp1252
Language: en
Country: US
--></g></svg>