<?xml version="1.0" encoding="UTF-8" standalone="no"?><svg xmlns="http://www.w3.org/2000/svg" xmlns:xlink="http://www.w3.org/1999/xlink" contentStyleType="text/css" height="1644px" preserveAspectRatio="none" style="width:1066px;height:1644px;background:#FFFFFF;" version="1.1" viewBox="0 0 1066 1644" width="1066px" zoomAndPan="magnify"><defs/><g><!--MD5=[adfaf45b6610d71f2f12b7cefe5f97bf]
class CheckAndExportVacStatsGUI--><g id="elem_CheckAndExportVacStatsGUI"><rect codeLine="5" fill="#F1F1F1" height="329.75" id="CheckAndExportVacStatsGUI" rx="2.5" ry="2.5" style="stroke:#181818;stroke-width:0.5;" width="360" x="381" y="7"/><ellipse cx="464.75" cy="23" fill="#ADD1B2" rx="11" ry="11" style="stroke:#181818;stroke-width:1.0;"/><path d="M466.75,19.5 Q466.9531,19 467.1875,18.75 Q467.4219,18.5 467.6875,18.5 Q468.1563,18.5 468.4531,18.7813 Q468.75,19.0625 468.75,19.7188 L468.75,21.2813 Q468.75,21.9375 468.4688,22.2188 Q468.1875,22.5 467.75,22.5 Q467.3594,22.5 467.1094,22.3281 Q466.8594,22.1563 466.75,21.7031 Q466.7031,21.3906 466.5313,21.2188 Q466.2188,20.8906 465.6563,20.7031 Q465.0938,20.5 464.5313,20.5 Q463.8281,20.5 463.2344,20.7813 Q462.6563,21.0625 462.2031,21.6875 Q461.75,22.3125 461.75,23.1719 L461.75,24.0938 Q461.75,25.125 462.5938,25.8125 Q463.4375,26.5 464.9375,26.5 Q465.8281,26.5 466.4531,26.2969 Q466.8125,26.1875 467.2188,25.8281 Q467.4844,25.625 467.625,25.5625 Q467.7656,25.5 467.9375,25.5 Q468.2656,25.5 468.5,25.7656 Q468.75,26.0156 468.75,26.375 Q468.75,26.7188 468.4063,27.125 Q467.9063,27.7188 467.1094,28.0469 Q466.0625,28.5 464.7813,28.5 Q463.2813,28.5 462.0781,27.9063 Q461.1094,27.4375 460.4219,26.4219 Q459.75,25.4063 459.75,24.2031 L459.75,23.1094 Q459.75,21.8594 460.3438,20.7656 Q460.9531,19.6719 462,19.0938 Q463.0625,18.5 464.25,18.5 Q464.9688,18.5 465.5938,18.75 Q466.2188,19 466.75,19.5 Z " fill="#000000"/><text fill="#000000" font-family="sans-serif" font-size="14" lengthAdjust="spacing" textLength="184" x="485.25" y="28.7285">CheckAndExportVacStatsGUI</text><line style="stroke:#181818;stroke-width:0.5;" x1="382" x2="740" y1="39" y2="39"/><text fill="#000000" font-family="sans-serif" font-size="14" lengthAdjust="spacing" textLength="348" x="387" y="57.5332">-controller : CheckAndExportVaccinationStatsController</text><text fill="#000000" font-family="sans-serif" font-size="14" lengthAdjust="spacing" textLength="178" x="387" y="75.1426">-firstDatePicker : DatePicker</text><text fill="#000000" font-family="sans-serif" font-size="14" lengthAdjust="spacing" textLength="177" x="387" y="92.752">-lastDatePicker : DatePicker</text><text fill="#000000" font-family="sans-serif" font-size="14" lengthAdjust="spacing" textLength="94" x="387" y="110.3613">-okBtn : Button</text><text fill="#000000" font-family="sans-serif" font-size="14" lengthAdjust="spacing" textLength="174" x="387" y="127.9707">-askFileNameTxt : TextArea</text><line style="stroke:#181818;stroke-width:0.5;" x1="382" x2="740" y1="135.0469" y2="135.0469"/><text fill="#000000" font-family="sans-serif" font-size="14" lengthAdjust="spacing" textLength="202" x="387" y="153.5801">+CheckAndExportVacStatsGUI()</text><text fill="#000000" font-family="sans-serif" font-size="14" lengthAdjust="spacing" textLength="83" x="387" y="171.1895">+back(event)</text><text fill="#000000" font-family="sans-serif" font-size="14" lengthAdjust="spacing" textLength="148" x="387" y="188.7988">+setFirstDate(firstDate)</text><text fill="#000000" font-family="sans-serif" font-size="14" lengthAdjust="spacing" textLength="146" x="387" y="206.4082">+setLastDate(lastDate)</text><text fill="#000000" font-family="sans-serif" font-size="14" lengthAdjust="spacing" textLength="187" x="387" y="224.0176">+setFirstDatePicker(firstDate)</text><text fill="#000000" font-family="sans-serif" font-size="14" lengthAdjust="spacing" textLength="185" x="387" y="241.627">+setLastDatePicker(lastDate)</text><text fill="#000000" font-family="sans-serif" font-size="14" lengthAdjust="spacing" textLength="146" x="387" y="259.2363">+checkStatistics(event)</text><text fill="#000000" font-family="sans-serif" font-size="14" lengthAdjust="spacing" textLength="148" x="387" y="276.8457">+exportStatistics(event)</text><text fill="#000000" font-family="sans-serif" font-size="14" lengthAdjust="spacing" textLength="190" x="387" y="294.4551">+exportStatisticsOption(event)</text><text fill="#000000" font-family="sans-serif" font-size="14" lengthAdjust="spacing" textLength="198" x="387" y="312.0645">-toCheckVacStatsScene(event)</text><text fill="#000000" font-family="sans-serif" font-size="14" lengthAdjust="spacing" textLength="215" x="387" y="329.6738">-toCenterCoordinatorMenu(event)</text></g><!--MD5=[c7faf042af3f035e4919ed3b81476ec4]
class CheckListVacStatsGUI--><g id="elem_CheckListVacStatsGUI"><rect codeLine="26" fill="#F1F1F1" height="171.2656" id="CheckListVacStatsGUI" rx="2.5" ry="2.5" style="stroke:#181818;stroke-width:0.5;" width="360" x="207" y="398"/><ellipse cx="312.25" cy="414" fill="#ADD1B2" rx="11" ry="11" style="stroke:#181818;stroke-width:1.0;"/><path d="M314.25,410.5 Q314.4531,410 314.6875,409.75 Q314.9219,409.5 315.1875,409.5 Q315.6563,409.5 315.9531,409.7813 Q316.25,410.0625 316.25,410.7188 L316.25,412.2813 Q316.25,412.9375 315.9688,413.2188 Q315.6875,413.5 315.25,413.5 Q314.8594,413.5 314.6094,413.3281 Q314.3594,413.1563 314.25,412.7031 Q314.2031,412.3906 314.0313,412.2188 Q313.7188,411.8906 313.1563,411.7031 Q312.5938,411.5 312.0313,411.5 Q311.3281,411.5 310.7344,411.7813 Q310.1563,412.0625 309.7031,412.6875 Q309.25,413.3125 309.25,414.1719 L309.25,415.0938 Q309.25,416.125 310.0938,416.8125 Q310.9375,417.5 312.4375,417.5 Q313.3281,417.5 313.9531,417.2969 Q314.3125,417.1875 314.7188,416.8281 Q314.9844,416.625 315.125,416.5625 Q315.2656,416.5 315.4375,416.5 Q315.7656,416.5 316,416.7656 Q316.25,417.0156 316.25,417.375 Q316.25,417.7188 315.9063,418.125 Q315.4063,418.7188 314.6094,419.0469 Q313.5625,419.5 312.2813,419.5 Q310.7813,419.5 309.5781,418.9063 Q308.6094,418.4375 307.9219,417.4219 Q307.25,416.4063 307.25,415.2031 L307.25,414.1094 Q307.25,412.8594 307.8438,411.7656 Q308.4531,410.6719 309.5,410.0938 Q310.5625,409.5 311.75,409.5 Q312.4688,409.5 313.0938,409.75 Q313.7188,410 314.25,410.5 Z " fill="#000000"/><text fill="#000000" font-family="sans-serif" font-size="14" lengthAdjust="spacing" textLength="141" x="332.75" y="419.7285">CheckListVacStatsGUI</text><line style="stroke:#181818;stroke-width:0.5;" x1="208" x2="566" y1="430" y2="430"/><text fill="#000000" font-family="sans-serif" font-size="14" lengthAdjust="spacing" textLength="348" x="213" y="448.5332">-controller : CheckAndExportVaccinationStatsController</text><text fill="#000000" font-family="sans-serif" font-size="14" lengthAdjust="spacing" textLength="142" x="213" y="466.1426">-tableView : TableView</text><text fill="#000000" font-family="sans-serif" font-size="14" lengthAdjust="spacing" textLength="177" x="213" y="483.752">-dateColumn : TableColumn</text><text fill="#000000" font-family="sans-serif" font-size="14" lengthAdjust="spacing" textLength="246" x="213" y="501.3613">-totalVaccinatedColumn : TableColumn</text><line style="stroke:#181818;stroke-width:0.5;" x1="208" x2="566" y1="508.4375" y2="508.4375"/><text fill="#000000" font-family="sans-serif" font-size="14" lengthAdjust="spacing" textLength="159" x="213" y="526.9707">+CheckListVacStatsGUI()</text><text fill="#000000" font-family="sans-serif" font-size="14" lengthAdjust="spacing" textLength="105" x="213" y="544.5801">+setStatsTable()</text><text fill="#000000" font-family="sans-serif" font-size="14" lengthAdjust="spacing" textLength="83" x="213" y="562.1895">+back(event)</text></g><!--MD5=[093ee6cbab074bc282deae827ec29a7d]
class CheckAndExportVaccinationStatsController--><g id="elem_CheckAndExportVaccinationStatsController"><rect codeLine="38" fill="#F1F1F1" height="259.3125" id="CheckAndExportVaccinationStatsController" rx="2.5" ry="2.5" style="stroke:#181818;stroke-width:0.5;" width="304" x="351" y="630"/><ellipse cx="366" cy="646" fill="#ADD1B2" rx="11" ry="11" style="stroke:#181818;stroke-width:1.0;"/><path d="M368,642.5 Q368.2031,642 368.4375,641.75 Q368.6719,641.5 368.9375,641.5 Q369.4063,641.5 369.7031,641.7813 Q370,642.0625 370,642.7188 L370,644.2813 Q370,644.9375 369.7188,645.2188 Q369.4375,645.5 369,645.5 Q368.6094,645.5 368.3594,645.3281 Q368.1094,645.1563 368,644.7031 Q367.9531,644.3906 367.7813,644.2188 Q367.4688,643.8906 366.9063,643.7031 Q366.3438,643.5 365.7813,643.5 Q365.0781,643.5 364.4844,643.7813 Q363.9063,644.0625 363.4531,644.6875 Q363,645.3125 363,646.1719 L363,647.0938 Q363,648.125 363.8438,648.8125 Q364.6875,649.5 366.1875,649.5 Q367.0781,649.5 367.7031,649.2969 Q368.0625,649.1875 368.4688,648.8281 Q368.7344,648.625 368.875,648.5625 Q369.0156,648.5 369.1875,648.5 Q369.5156,648.5 369.75,648.7656 Q370,649.0156 370,649.375 Q370,649.7188 369.6563,650.125 Q369.1563,650.7188 368.3594,651.0469 Q367.3125,651.5 366.0313,651.5 Q364.5313,651.5 363.3281,650.9063 Q362.3594,650.4375 361.6719,649.4219 Q361,648.4063 361,647.2031 L361,646.1094 Q361,644.8594 361.5938,643.7656 Q362.2031,642.6719 363.25,642.0938 Q364.3125,641.5 365.5,641.5 Q366.2188,641.5 366.8438,641.75 Q367.4688,642 368,642.5 Z " fill="#000000"/><text fill="#000000" font-family="sans-serif" font-size="14" lengthAdjust="spacing" textLength="272" x="380" y="651.7285">CheckAndExportVaccinationStatsController</text><line style="stroke:#181818;stroke-width:0.5;" x1="352" x2="654" y1="662" y2="662"/><text fill="#000000" font-family="sans-serif" font-size="14" lengthAdjust="spacing" textLength="173" x="357" y="680.5332">-center : VaccinationCenter</text><text fill="#000000" font-family="sans-serif" font-size="14" lengthAdjust="spacing" textLength="134" x="357" y="698.1426">-firstDate : LocalDate</text><text fill="#000000" font-family="sans-serif" font-size="14" lengthAdjust="spacing" textLength="133" x="357" y="715.752">-lastDate : LocalDate</text><line style="stroke:#181818;stroke-width:0.5;" x1="352" x2="654" y1="722.8281" y2="722.8281"/><text fill="#000000" font-family="sans-serif" font-size="14" lengthAdjust="spacing" textLength="290" x="357" y="741.3613">+CheckAndExportVaccinationStatsController()</text><text fill="#000000" font-family="sans-serif" font-size="14" lengthAdjust="spacing" textLength="148" x="357" y="758.9707">+setFirstDate(firstDate)</text><text fill="#000000" font-family="sans-serif" font-size="14" lengthAdjust="spacing" textLength="146" x="357" y="776.5801">+setLastDate(lastDate)</text><text fill="#000000" font-family="sans-serif" font-size="14" lengthAdjust="spacing" textLength="96" x="357" y="794.1895">+getFirstDate()</text><text fill="#000000" font-family="sans-serif" font-size="14" lengthAdjust="spacing" textLength="95" x="357" y="811.7988">+getLastDate()</text><text fill="#000000" font-family="sans-serif" font-size="14" lengthAdjust="spacing" textLength="152" x="357" y="829.4082">+checkIfDatesAreValid()</text><text fill="#000000" font-family="sans-serif" font-size="14" lengthAdjust="spacing" textLength="240" x="357" y="847.0176">+exportVaccinationStatistics(fileName)</text><text fill="#000000" font-family="sans-serif" font-size="14" lengthAdjust="spacing" textLength="256" x="357" y="864.627">+getVaccinationStatsListBetweenDates()</text><text fill="#000000" font-family="sans-serif" font-size="14" lengthAdjust="spacing" textLength="250" x="357" y="882.2363">+toCheckVaccinationStatsScene(event)</text></g><!--MD5=[02e4b9b7573f1156f41e60aa5b4e25a4]
class Company--><g id="elem_Company"><rect codeLine="55" fill="#F1F1F1" height="48" id="Company" rx="2.5" ry="2.5" style="stroke:#181818;stroke-width:0.5;" width="92" x="358" y="950"/><ellipse cx="373" cy="966" fill="#ADD1B2" rx="11" ry="11" style="stroke:#181818;stroke-width:1.0;"/><path d="M375,962.5 Q375.2031,962 375.4375,961.75 Q375.6719,961.5 375.9375,961.5 Q376.4063,961.5 376.7031,961.7813 Q377,962.0625 377,962.7188 L377,964.2813 Q377,964.9375 376.7188,965.2188 Q376.4375,965.5 376,965.5 Q375.6094,965.5 375.3594,965.3281 Q375.1094,965.1563 375,964.7031 Q374.9531,964.3906 374.7813,964.2188 Q374.4688,963.8906 373.9063,963.7031 Q373.3438,963.5 372.7813,963.5 Q372.0781,963.5 371.4844,963.7813 Q370.9063,964.0625 370.4531,964.6875 Q370,965.3125 370,966.1719 L370,967.0938 Q370,968.125 370.8438,968.8125 Q371.6875,969.5 373.1875,969.5 Q374.0781,969.5 374.7031,969.2969 Q375.0625,969.1875 375.4688,968.8281 Q375.7344,968.625 375.875,968.5625 Q376.0156,968.5 376.1875,968.5 Q376.5156,968.5 376.75,968.7656 Q377,969.0156 377,969.375 Q377,969.7188 376.6563,970.125 Q376.1563,970.7188 375.3594,971.0469 Q374.3125,971.5 373.0313,971.5 Q371.5313,971.5 370.3281,970.9063 Q369.3594,970.4375 368.6719,969.4219 Q368,968.4063 368,967.2031 L368,966.1094 Q368,964.8594 368.5938,963.7656 Q369.2031,962.6719 370.25,962.0938 Q371.3125,961.5 372.5,961.5 Q373.2188,961.5 373.8438,961.75 Q374.4688,962 375,962.5 Z " fill="#000000"/><text fill="#000000" font-family="sans-serif" font-size="14" lengthAdjust="spacing" textLength="60" x="387" y="971.7285">Company</text><line style="stroke:#181818;stroke-width:0.5;" x1="359" x2="449" y1="982" y2="982"/><line style="stroke:#181818;stroke-width:0.5;" x1="359" x2="449" y1="990" y2="990"/></g><!--MD5=[de60e6d4f424ae4d0522096f76a59010]
class VaccinationCenter--><g id="elem_VaccinationCenter"><rect codeLine="59" fill="#F1F1F1" height="382.5781" id="VaccinationCenter" rx="2.5" ry="2.5" style="stroke:#181818;stroke-width:0.5;" width="1052" x="7" y="1255"/><ellipse cx="470.75" cy="1271" fill="#ADD1B2" rx="11" ry="11" style="stroke:#181818;stroke-width:1.0;"/><path d="M472.75,1267.5 Q472.9531,1267 473.1875,1266.75 Q473.4219,1266.5 473.6875,1266.5 Q474.1563,1266.5 474.4531,1266.7813 Q474.75,1267.0625 474.75,1267.7188 L474.75,1269.2813 Q474.75,1269.9375 474.4688,1270.2188 Q474.1875,1270.5 473.75,1270.5 Q473.3594,1270.5 473.1094,1270.3281 Q472.8594,1270.1563 472.75,1269.7031 Q472.7031,1269.3906 472.5313,1269.2188 Q472.2188,1268.8906 471.6563,1268.7031 Q471.0938,1268.5 470.5313,1268.5 Q469.8281,1268.5 469.2344,1268.7813 Q468.6563,1269.0625 468.2031,1269.6875 Q467.75,1270.3125 467.75,1271.1719 L467.75,1272.0938 Q467.75,1273.125 468.5938,1273.8125 Q469.4375,1274.5 470.9375,1274.5 Q471.8281,1274.5 472.4531,1274.2969 Q472.8125,1274.1875 473.2188,1273.8281 Q473.4844,1273.625 473.625,1273.5625 Q473.7656,1273.5 473.9375,1273.5 Q474.2656,1273.5 474.5,1273.7656 Q474.75,1274.0156 474.75,1274.375 Q474.75,1274.7188 474.4063,1275.125 Q473.9063,1275.7188 473.1094,1276.0469 Q472.0625,1276.5 470.7813,1276.5 Q469.2813,1276.5 468.0781,1275.9063 Q467.1094,1275.4375 466.4219,1274.4219 Q465.75,1273.4063 465.75,1272.2031 L465.75,1271.1094 Q465.75,1269.8594 466.3438,1268.7656 Q466.9531,1267.6719 468,1267.0938 Q469.0625,1266.5 470.25,1266.5 Q470.9688,1266.5 471.5938,1266.75 Q472.2188,1267 472.75,1267.5 Z " fill="#000000"/><text fill="#000000" font-family="sans-serif" font-size="14" lengthAdjust="spacing" textLength="116" x="491.25" y="1276.7285">VaccinationCenter</text><line style="stroke:#181818;stroke-width:0.5;" x1="8" x2="1058" y1="1287" y2="1287"/><text fill="#000000" font-family="sans-serif" font-size="14" lengthAdjust="spacing" textLength="43" x="13" y="1305.5332">-id : int</text><text fill="#000000" font-family="sans-serif" font-size="14" lengthAdjust="spacing" textLength="89" x="13" y="1323.1426">-name : String</text><text fill="#000000" font-family="sans-serif" font-size="14" lengthAdjust="spacing" textLength="196" x="13" y="1340.752">-phoneNumber : PhoneNumber</text><text fill="#000000" font-family="sans-serif" font-size="14" lengthAdjust="spacing" textLength="84" x="13" y="1358.3613">-email : Email</text><text fill="#000000" font-family="sans-serif" font-size="14" lengthAdjust="spacing" textLength="125" x="13" y="1375.9707">-fax : PhoneNumber</text><text fill="#000000" font-family="sans-serif" font-size="14" lengthAdjust="spacing" textLength="115" x="13" y="1393.5801">-website : Website</text><text fill="#000000" font-family="sans-serif" font-size="14" lengthAdjust="spacing" textLength="193" x="13" y="1411.1895">-openingHour : LocalDateTime</text><text fill="#000000" font-family="sans-serif" font-size="14" lengthAdjust="spacing" textLength="186" x="13" y="1428.7988">-closingHour : LocalDateTime</text><text fill="#000000" font-family="sans-serif" font-size="14" lengthAdjust="spacing" textLength="108" x="13" y="1446.4082">-slotDuration : int</text><text fill="#000000" font-family="sans-serif" font-size="14" lengthAdjust="spacing" textLength="133" x="13" y="1464.0176">-vaccinesPerSlot : int</text><text fill="#000000" font-family="sans-serif" font-size="14" lengthAdjust="spacing" textLength="83" x="13" y="1481.627">-road : String</text><text fill="#000000" font-family="sans-serif" font-size="14" lengthAdjust="spacing" textLength="121" x="13" y="1499.2363">-zipCode : ZipCode</text><text fill="#000000" font-family="sans-serif" font-size="14" lengthAdjust="spacing" textLength="83" x="13" y="1516.8457">-local : String</text><text fill="#000000" font-family="sans-serif" font-size="14" lengthAdjust="spacing" textLength="160" x="13" y="1534.4551">-centerCoordinatorID : int</text><line style="stroke:#181818;stroke-width:0.5;" x1="8" x2="1058" y1="1541.5313" y2="1541.5313"/><text fill="#000000" font-family="sans-serif" font-size="14" lengthAdjust="spacing" textLength="1040" x="13" y="1560.0645">+VaccinationCenter(id, name, phoneNumber, email, fax, website, openingHour, closingHour, slotDuration, vaccinesPerSlot, road, zipCode, local, centerCoordinatorID)</text><text fill="#000000" font-family="sans-serif" font-size="14" lengthAdjust="spacing" textLength="256" x="13" y="1577.6738">+addFullyVaccinated(newAdministration)</text><text fill="#000000" font-family="sans-serif" font-size="14" lengthAdjust="spacing" textLength="162" x="13" y="1595.2832">-getVaccinationStatsList()</text><text fill="#000000" font-family="sans-serif" font-size="14" lengthAdjust="spacing" textLength="369" x="13" y="1612.8926">+getVaccinationStatsListBetweenDates(firstDate, lastDate)</text><text fill="#000000" font-family="sans-serif" font-size="14" lengthAdjust="spacing" textLength="270" x="13" y="1630.502">+getFirstDateAvailable(listFullyVaccinated)</text></g><!--MD5=[c6871c470bedcfae230ac99e02851447]
class VaccinationCentersStore--><g id="elem_VaccinationCentersStore"><rect codeLine="81" fill="#F1F1F1" height="100.8281" id="VaccinationCentersStore" rx="2.5" ry="2.5" style="stroke:#181818;stroke-width:0.5;" width="410" x="199" y="1076"/><ellipse cx="321.25" cy="1092" fill="#ADD1B2" rx="11" ry="11" style="stroke:#181818;stroke-width:1.0;"/><path d="M323.25,1088.5 Q323.4531,1088 323.6875,1087.75 Q323.9219,1087.5 324.1875,1087.5 Q324.6563,1087.5 324.9531,1087.7813 Q325.25,1088.0625 325.25,1088.7188 L325.25,1090.2813 Q325.25,1090.9375 324.9688,1091.2188 Q324.6875,1091.5 324.25,1091.5 Q323.8594,1091.5 323.6094,1091.3281 Q323.3594,1091.1563 323.25,1090.7031 Q323.2031,1090.3906 323.0313,1090.2188 Q322.7188,1089.8906 322.1563,1089.7031 Q321.5938,1089.5 321.0313,1089.5 Q320.3281,1089.5 319.7344,1089.7813 Q319.1563,1090.0625 318.7031,1090.6875 Q318.25,1091.3125 318.25,1092.1719 L318.25,1093.0938 Q318.25,1094.125 319.0938,1094.8125 Q319.9375,1095.5 321.4375,1095.5 Q322.3281,1095.5 322.9531,1095.2969 Q323.3125,1095.1875 323.7188,1094.8281 Q323.9844,1094.625 324.125,1094.5625 Q324.2656,1094.5 324.4375,1094.5 Q324.7656,1094.5 325,1094.7656 Q325.25,1095.0156 325.25,1095.375 Q325.25,1095.7188 324.9063,1096.125 Q324.4063,1096.7188 323.6094,1097.0469 Q322.5625,1097.5 321.2813,1097.5 Q319.7813,1097.5 318.5781,1096.9063 Q317.6094,1096.4375 316.9219,1095.4219 Q316.25,1094.4063 316.25,1093.2031 L316.25,1092.1094 Q316.25,1090.8594 316.8438,1089.7656 Q317.4531,1088.6719 318.5,1088.0938 Q319.5625,1087.5 320.75,1087.5 Q321.4688,1087.5 322.0938,1087.75 Q322.7188,1088 323.25,1088.5 Z " fill="#000000"/><text fill="#000000" font-family="sans-serif" font-size="14" lengthAdjust="spacing" textLength="157" x="341.75" y="1097.7285">VaccinationCentersStore</text><line style="stroke:#181818;stroke-width:0.5;" x1="200" x2="608" y1="1108" y2="1108"/><text fill="#000000" font-family="sans-serif" font-size="14" lengthAdjust="spacing" textLength="292" x="205" y="1126.5332">-vaccinationCenters : List&lt;VaccinationCenter&gt;</text><line style="stroke:#181818;stroke-width:0.5;" x1="200" x2="608" y1="1133.6094" y2="1133.6094"/><text fill="#000000" font-family="sans-serif" font-size="14" lengthAdjust="spacing" textLength="161" x="205" y="1152.1426">+getVaccinationCenters()</text><text fill="#000000" font-family="sans-serif" font-size="14" lengthAdjust="spacing" textLength="398" x="205" y="1169.752">+getVaccinationCenterAssociatedToCoordinator(coordinatorId)</text></g><!--MD5=[99e05155ffd03a85ec190e9f6e70e52b]
link CheckAndExportVacStatsGUI to CheckListVacStatsGUI--><g id="link_CheckAndExportVacStatsGUI_CheckListVacStatsGUI"><path codeLine="90" d="M468.65,337.27 C457.78,356.61 447.02,375.75 437.05,393.47 " fill="none" id="CheckAndExportVacStatsGUI-to-CheckListVacStatsGUI" style="stroke:#181818;stroke-width:1.0;stroke-dasharray:7.0,7.0;"/><polygon fill="#181818" points="434.53,397.95,442.4351,392.0755,436.9861,393.5948,435.4667,388.1458,434.53,397.95" style="stroke:#181818;stroke-width:1.0;"/></g><!--MD5=[49a15542884c43ce36329a5ca0fe3da5]
link CheckAndExportVacStatsGUI to CheckAndExportVaccinationStatsController--><g id="link_CheckAndExportVacStatsGUI_CheckAndExportVaccinationStatsController"><path codeLine="91" d="M590.19,337.19 C598.03,408.98 600.57,493.8 585,569 C581.18,587.45 575.47,606.31 568.81,624.64 " fill="none" id="CheckAndExportVacStatsGUI-to-CheckAndExportVaccinationStatsController" style="stroke:#181818;stroke-width:1.0;stroke-dasharray:7.0,7.0;"/><polygon fill="#181818" points="566.91,629.79,573.7966,622.7491,568.6531,625.1037,566.2985,619.9601,566.91,629.79" style="stroke:#181818;stroke-width:1.0;"/></g><!--MD5=[f5c4f8928a3cfa0043d5a13387abdfde]
link CheckListVacStatsGUI to CheckAndExportVaccinationStatsController--><g id="link_CheckListVacStatsGUI_CheckAndExportVaccinationStatsController"><path codeLine="92" d="M422.91,569.32 C430.39,587 438.45,606.03 446.48,624.99 " fill="none" id="CheckListVacStatsGUI-to-CheckAndExportVaccinationStatsController" style="stroke:#181818;stroke-width:1.0;stroke-dasharray:7.0,7.0;"/><polygon fill="#181818" points="448.51,629.8,448.6782,619.9526,446.5576,625.1969,441.3133,623.0764,448.51,629.8" style="stroke:#181818;stroke-width:1.0;"/></g><!--MD5=[bccdf9b4c4c72c3f1b1ff23b59954d42]
link CheckAndExportVaccinationStatsController to VaccinationCentersStore--><g id="link_CheckAndExportVaccinationStatsController_VaccinationCentersStore"><path codeLine="96" d="M488.92,889.17 C483.56,924.77 476.4,963.17 467,998 C461.02,1020.15 457.8,1025.25 448,1046 C444.08,1054.3 439.66,1062.94 435.19,1071.34 " fill="none" id="CheckAndExportVaccinationStatsController-to-VaccinationCentersStore" style="stroke:#181818;stroke-width:1.0;stroke-dasharray:7.0,7.0;"/><polygon fill="#181818" points="432.69,1075.97,440.4659,1069.9256,435.0511,1071.5626,433.4141,1066.1478,432.69,1075.97" style="stroke:#181818;stroke-width:1.0;"/></g><!--MD5=[dbd3c99bf3c9da99ac3c6aa9773f4967]
link CheckAndExportVaccinationStatsController to VaccinationCenter--><g id="link_CheckAndExportVaccinationStatsController_VaccinationCenter"><path codeLine="97" d="M566.23,889.24 C590.36,945.2 614.95,1012.39 627,1076 C637.76,1132.82 630.23,1193.89 615.64,1249.69 " fill="none" id="CheckAndExportVaccinationStatsController-to-VaccinationCenter" style="stroke:#181818;stroke-width:1.0;stroke-dasharray:7.0,7.0;"/><polygon fill="#181818" points="614.3,1254.73,620.4811,1247.0623,615.5865,1249.8984,612.7504,1245.0038,614.3,1254.73" style="stroke:#181818;stroke-width:1.0;"/></g><!--MD5=[f4ecbfdd85ceba349ca2dd49a68e3853]
link CheckAndExportVaccinationStatsController to Company--><g id="link_CheckAndExportVaccinationStatsController_Company"><path codeLine="98" d="M443.13,889.01 C433.24,910.24 423.93,930.23 416.87,945.38 " fill="none" id="CheckAndExportVaccinationStatsController-to-Company" style="stroke:#181818;stroke-width:1.0;stroke-dasharray:7.0,7.0;"/><polygon fill="#181818" points="414.75,949.92,422.165,943.4379,416.8535,945.384,414.9074,940.0724,414.75,949.92" style="stroke:#181818;stroke-width:1.0;"/></g><!--MD5=[29286e1800b224f442cd4de52a9be642]
link Company to VaccinationCentersStore--><g id="link_Company_VaccinationCentersStore"><path codeLine="104" d="M404,998.19 C404,1018.8 404,1049.64 404,1075.8 " fill="none" id="Company-VaccinationCentersStore" style="stroke:#181818;stroke-width:1.0;"/><polygon fill="#000000" points="409,1042.1758,411.9389,1033.1307,406.0611,1033.1307,409,1042.1758" style="stroke:#000000;stroke-width:1.0;"/><text fill="#000000" font-family="sans-serif" font-size="13" lengthAdjust="spacing" textLength="21" x="418" y="1042.4951">has</text><text fill="#000000" font-family="sans-serif" font-size="13" lengthAdjust="spacing" textLength="7" x="396.1469" y="1019.5743">1</text><text fill="#000000" font-family="sans-serif" font-size="13" lengthAdjust="spacing" textLength="7" x="396.5078" y="1065.0772">1</text></g><!--MD5=[f36d163a63d7d7b60e9f6201c7b725d8]
link VaccinationCentersStore to VaccinationCenter--><g id="link_VaccinationCentersStore_VaccinationCenter"><path codeLine="105" d="M424.16,1177.19 C433.01,1199.02 444.03,1226.19 455.63,1254.78 " fill="none" id="VaccinationCentersStore-VaccinationCenter" style="stroke:#181818;stroke-width:1.0;"/><polygon fill="#000000" points="449.8793,1220.8092,449.2031,1211.3227,443.7562,1213.5319,449.8793,1220.8092" style="stroke:#000000;stroke-width:1.0;"/><text fill="#000000" font-family="sans-serif" font-size="13" lengthAdjust="spacing" textLength="21" x="457" y="1221.4951">has</text><text fill="#000000" font-family="sans-serif" font-size="13" lengthAdjust="spacing" textLength="7" x="419.2946" y="1198.2383">1</text><text fill="#000000" font-family="sans-serif" font-size="13" lengthAdjust="spacing" textLength="5" x="447.2605" y="1243.8657">*</text></g><!--MD5=[a48e9a840d2dc435b3f4107fb233890d]
@startuml
skinparam classAttributeIconSize 0



class CheckAndExportVacStatsGUI {
-controller : CheckAndExportVaccinationStatsController
-firstDatePicker : DatePicker
-lastDatePicker : DatePicker
-okBtn : Button
-askFileNameTxt : TextArea

+CheckAndExportVacStatsGUI()
+back(event)
+setFirstDate(firstDate)
+setLastDate(lastDate)
+setFirstDatePicker(firstDate)
+setLastDatePicker(lastDate)
+checkStatistics(event)
+exportStatistics(event)
+exportStatisticsOption(event)
-toCheckVacStatsScene(event)
-toCenterCoordinatorMenu(event)

}

class CheckListVacStatsGUI {
-controller : CheckAndExportVaccinationStatsController
-tableView : TableView
-dateColumn : TableColumn
-totalVaccinatedColumn : TableColumn
+CheckListVacStatsGUI()
+setStatsTable()
+back(event)
}



class CheckAndExportVaccinationStatsController {
-center : VaccinationCenter
- firstDate : LocalDate
- lastDate : LocalDate
+CheckAndExportVaccinationStatsController()
+setFirstDate(firstDate)
+setLastDate(lastDate)
+getFirstDate()
+getLastDate()
+checkIfDatesAreValid()
+exportVaccinationStatistics(fileName)
+getVaccinationStatsListBetweenDates()
+toCheckVaccinationStatsScene(event)
}



class Company{

}

class VaccinationCenter {
-id : int
-name : String
-phoneNumber : PhoneNumber
-email : Email
-fax : PhoneNumber
-website : Website
-openingHour : LocalDateTime
-closingHour : LocalDateTime
-slotDuration : int
-vaccinesPerSlot : int
-road : String
-zipCode : ZipCode
-local : String
-centerCoordinatorID : int
+VaccinationCenter(id, name, phoneNumber, email, fax, website, openingHour, closingHour, slotDuration, vaccinesPerSlot, road, zipCode, local, centerCoordinatorID)
+addFullyVaccinated(newAdministration)
-getVaccinationStatsList()
+getVaccinationStatsListBetweenDates(firstDate, lastDate)
+getFirstDateAvailable(listFullyVaccinated)
}

class VaccinationCentersStore {
-vaccinationCenters : List<VaccinationCenter>
+getVaccinationCenters()
+getVaccinationCenterAssociatedToCoordinator(coordinatorId)

}


'UI
CheckAndExportVacStatsGUI ..> CheckListVacStatsGUI
CheckAndExportVacStatsGUI ..> CheckAndExportVaccinationStatsController
CheckListVacStatsGUI ..> CheckAndExportVaccinationStatsController

'CONTROLLER

CheckAndExportVaccinationStatsController ..> VaccinationCentersStore
CheckAndExportVaccinationStatsController ..> VaccinationCenter
CheckAndExportVaccinationStatsController ..> Company



'DOMAIN

Company "1" - - "1" VaccinationCentersStore : has >
VaccinationCentersStore "1" - - "*" VaccinationCenter : has >


@enduml

@startuml
skinparam classAttributeIconSize 0



class CheckAndExportVacStatsGUI {
-controller : CheckAndExportVaccinationStatsController
-firstDatePicker : DatePicker
-lastDatePicker : DatePicker
-okBtn : Button
-askFileNameTxt : TextArea

+CheckAndExportVacStatsGUI()
+back(event)
+setFirstDate(firstDate)
+setLastDate(lastDate)
+setFirstDatePicker(firstDate)
+setLastDatePicker(lastDate)
+checkStatistics(event)
+exportStatistics(event)
+exportStatisticsOption(event)
-toCheckVacStatsScene(event)
-toCenterCoordinatorMenu(event)

}

class CheckListVacStatsGUI {
-controller : CheckAndExportVaccinationStatsController
-tableView : TableView
-dateColumn : TableColumn
-totalVaccinatedColumn : TableColumn
+CheckListVacStatsGUI()
+setStatsTable()
+back(event)
}



class CheckAndExportVaccinationStatsController {
-center : VaccinationCenter
- firstDate : LocalDate
- lastDate : LocalDate
+CheckAndExportVaccinationStatsController()
+setFirstDate(firstDate)
+setLastDate(lastDate)
+getFirstDate()
+getLastDate()
+checkIfDatesAreValid()
+exportVaccinationStatistics(fileName)
+getVaccinationStatsListBetweenDates()
+toCheckVaccinationStatsScene(event)
}



class Company{

}

class VaccinationCenter {
-id : int
-name : String
-phoneNumber : PhoneNumber
-email : Email
-fax : PhoneNumber
-website : Website
-openingHour : LocalDateTime
-closingHour : LocalDateTime
-slotDuration : int
-vaccinesPerSlot : int
-road : String
-zipCode : ZipCode
-local : String
-centerCoordinatorID : int
+VaccinationCenter(id, name, phoneNumber, email, fax, website, openingHour, closingHour, slotDuration, vaccinesPerSlot, road, zipCode, local, centerCoordinatorID)
+addFullyVaccinated(newAdministration)
-getVaccinationStatsList()
+getVaccinationStatsListBetweenDates(firstDate, lastDate)
+getFirstDateAvailable(listFullyVaccinated)
}

class VaccinationCentersStore {
-vaccinationCenters : List<VaccinationCenter>
+getVaccinationCenters()
+getVaccinationCenterAssociatedToCoordinator(coordinatorId)

}


CheckAndExportVacStatsGUI ..> CheckListVacStatsGUI
CheckAndExportVacStatsGUI ..> CheckAndExportVaccinationStatsController
CheckListVacStatsGUI ..> CheckAndExportVaccinationStatsController


CheckAndExportVaccinationStatsController ..> VaccinationCentersStore
CheckAndExportVaccinationStatsController ..> VaccinationCenter
CheckAndExportVaccinationStatsController ..> Company




Company "1" - - "1" VaccinationCentersStore : has >
VaccinationCentersStore "1" - - "*" VaccinationCenter : has >


@enduml

PlantUML version 1.2022.5(Sat Apr 30 11:55:52 BST 2022)
(GPL source distribution)
Java Runtime: OpenJDK Runtime Environment
JVM: OpenJDK 64-Bit Server VM
Default Encoding: Cp1252
Language: en
Country: US
--></g></svg>