<?xml version="1.0" encoding="UTF-8" standalone="no"?><svg xmlns="http://www.w3.org/2000/svg" xmlns:xlink="http://www.w3.org/1999/xlink" contentStyleType="text/css" height="1187px" preserveAspectRatio="none" style="width:1625px;height:1187px;background:#FFFFFF;" version="1.1" viewBox="0 0 1625 1187" width="1625px" zoomAndPan="magnify"><defs/><g><rect fill="#FFFFFF" height="987.5469" style="stroke:#181818;stroke-width:1.0;" width="10" x="77" y="92.6094"/><rect fill="#FFFFFF" height="30.3516" style="stroke:#181818;stroke-width:1.0;" width="10" x="460" y="114.9609"/><rect fill="#FFFFFF" height="167.4063" style="stroke:#181818;stroke-width:1.0;" width="10" x="460" y="175.6641"/><rect fill="#FFFFFF" height="302.1641" style="stroke:#181818;stroke-width:1.0;" width="10" x="460" y="398.7734"/><rect fill="#FFFFFF" height="30.3516" style="stroke:#181818;stroke-width:1.0;" width="10" x="460" y="747.125"/><rect fill="#FFFFFF" height="272.3281" style="stroke:#181818;stroke-width:1.0;" width="10" x="460" y="807.8281"/><rect fill="#FFFFFF" height="30" style="stroke:#181818;stroke-width:1.0;" width="10" x="863" y="206.0156"/><rect fill="#FFFFFF" height="30" style="stroke:#181818;stroke-width:1.0;" width="10" x="863" y="266.3672"/><rect fill="#FFFFFF" height="30.3516" style="stroke:#181818;stroke-width:1.0;" width="10" x="863" y="429.125"/><rect fill="#FFFFFF" height="164.4063" style="stroke:#181818;stroke-width:1.0;" width="10" x="863" y="489.8281"/><rect fill="#FFFFFF" height="211.625" style="stroke:#181818;stroke-width:1.0;" width="10" x="863" y="838.1797"/><rect fill="#FFFFFF" height="103.7031" style="stroke:#181818;stroke-width:1.0;" width="10" x="1355" y="520.1797"/><rect fill="#FFFFFF" height="28" style="stroke:#181818;stroke-width:1.0;" width="10" x="1360" y="558.5313"/><rect fill="#FFFFFF" height="30" style="stroke:#181818;stroke-width:1.0;" width="10" x="1355" y="868.5313"/><rect fill="#FFFFFF" height="30.3516" style="stroke:#181818;stroke-width:1.0;" width="10" x="1543" y="989.1016"/><rect height="730.0859" style="stroke:#000000;stroke-width:1.5;fill:none;" width="1608" x="10" y="358.0703"/><line style="stroke:#181818;stroke-width:0.5;fill:none;stroke-dasharray:5.0,5.0;" x1="82" x2="82" y1="82.6094" y2="1105.1563"/><line style="stroke:#181818;stroke-width:0.5;fill:none;stroke-dasharray:5.0,5.0;" x1="465" x2="465" y1="82.6094" y2="1105.1563"/><line style="stroke:#181818;stroke-width:0.5;fill:none;stroke-dasharray:5.0,5.0;" x1="868" x2="868" y1="82.6094" y2="1105.1563"/><line style="stroke:#181818;stroke-width:0.5;fill:none;stroke-dasharray:5.0,5.0;" x1="1360" x2="1360" y1="82.6094" y2="1105.1563"/><line style="stroke:#181818;stroke-width:0.5;fill:none;stroke-dasharray:5.0,5.0;" x1="1548" x2="1548" y1="946.6406" y2="1105.1563"/><text fill="#000000" font-family="sans-serif" font-size="14" lengthAdjust="spacing" textLength="118" x="20" y="79.5332">CenterCoordinator</text><ellipse cx="82" cy="13.5" fill="#E2E2F0" rx="8" ry="8" style="stroke:#181818;stroke-width:0.5;"/><path d="M82,21.5 L82,48.5 M69,29.5 L95,29.5 M82,48.5 L69,63.5 M82,48.5 L95,63.5 " fill="none" style="stroke:#181818;stroke-width:0.5;"/><text fill="#000000" font-family="sans-serif" font-size="14" lengthAdjust="spacing" textLength="118" x="20" y="1118.6895">CenterCoordinator</text><ellipse cx="82" cy="1130.2656" fill="#E2E2F0" rx="8" ry="8" style="stroke:#181818;stroke-width:0.5;"/><path d="M82,1138.2656 L82,1165.2656 M69,1146.2656 L95,1146.2656 M82,1165.2656 L69,1180.2656 M82,1165.2656 L95,1180.2656 " fill="none" style="stroke:#181818;stroke-width:0.5;"/><rect fill="#E2E2F0" height="31.6094" rx="2.5" ry="2.5" style="stroke:#181818;stroke-width:0.5;" width="202" x="364" y="50"/><text fill="#000000" font-family="sans-serif" font-size="14" lengthAdjust="spacing" textLength="188" x="371" y="71.5332">:CheckAndExportVacStatsGUI</text><rect fill="#E2E2F0" height="31.6094" rx="2.5" ry="2.5" style="stroke:#181818;stroke-width:0.5;" width="202" x="364" y="1104.1563"/><text fill="#000000" font-family="sans-serif" font-size="14" lengthAdjust="spacing" textLength="188" x="371" y="1125.6895">:CheckAndExportVacStatsGUI</text><rect fill="#E2E2F0" height="31.6094" rx="2.5" ry="2.5" style="stroke:#181818;stroke-width:0.5;" width="290" x="723" y="50"/><text fill="#000000" font-family="sans-serif" font-size="14" lengthAdjust="spacing" textLength="276" x="730" y="71.5332">:CheckAndExportVaccinationStatsController</text><rect fill="#E2E2F0" height="31.6094" rx="2.5" ry="2.5" style="stroke:#181818;stroke-width:0.5;" width="290" x="723" y="1104.1563"/><text fill="#000000" font-family="sans-serif" font-size="14" lengthAdjust="spacing" textLength="276" x="730" y="1125.6895">:CheckAndExportVaccinationStatsController</text><rect fill="#E2E2F0" height="49.2188" rx="2.5" ry="2.5" style="stroke:#181818;stroke-width:0.5;" width="134" x="1293" y="32.3906"/><text fill="#000000" font-family="sans-serif" font-size="14" lengthAdjust="spacing" textLength="114" x="1303" y="53.9238">vaccinationCenter</text><text fill="#000000" font-family="sans-serif" font-size="14" lengthAdjust="spacing" textLength="120" x="1300" y="71.5332">:VaccinationCenter</text><rect fill="#E2E2F0" height="49.2188" rx="2.5" ry="2.5" style="stroke:#181818;stroke-width:0.5;" width="134" x="1293" y="1104.1563"/><text fill="#000000" font-family="sans-serif" font-size="14" lengthAdjust="spacing" textLength="114" x="1303" y="1125.6895">vaccinationCenter</text><text fill="#000000" font-family="sans-serif" font-size="14" lengthAdjust="spacing" textLength="120" x="1300" y="1143.2988">:VaccinationCenter</text><rect fill="#E2E2F0" height="49.2188" rx="2.5" ry="2.5" style="stroke:#181818;stroke-width:0.5;" width="120" x="1488" y="1104.1563"/><text fill="#000000" font-family="sans-serif" font-size="14" lengthAdjust="spacing" textLength="101" x="1497.5" y="1125.6895">exportListToFile</text><text fill="#000000" font-family="sans-serif" font-size="14" lengthAdjust="spacing" textLength="106" x="1495" y="1143.2988">:ExportListToFIle</text><rect fill="#FFFFFF" height="987.5469" style="stroke:#181818;stroke-width:1.0;" width="10" x="77" y="92.6094"/><rect fill="#FFFFFF" height="30.3516" style="stroke:#181818;stroke-width:1.0;" width="10" x="460" y="114.9609"/><rect fill="#FFFFFF" height="167.4063" style="stroke:#181818;stroke-width:1.0;" width="10" x="460" y="175.6641"/><rect fill="#FFFFFF" height="302.1641" style="stroke:#181818;stroke-width:1.0;" width="10" x="460" y="398.7734"/><rect fill="#FFFFFF" height="30.3516" style="stroke:#181818;stroke-width:1.0;" width="10" x="460" y="747.125"/><rect fill="#FFFFFF" height="272.3281" style="stroke:#181818;stroke-width:1.0;" width="10" x="460" y="807.8281"/><rect fill="#FFFFFF" height="30" style="stroke:#181818;stroke-width:1.0;" width="10" x="863" y="206.0156"/><rect fill="#FFFFFF" height="30" style="stroke:#181818;stroke-width:1.0;" width="10" x="863" y="266.3672"/><rect fill="#FFFFFF" height="30.3516" style="stroke:#181818;stroke-width:1.0;" width="10" x="863" y="429.125"/><rect fill="#FFFFFF" height="164.4063" style="stroke:#181818;stroke-width:1.0;" width="10" x="863" y="489.8281"/><rect fill="#FFFFFF" height="211.625" style="stroke:#181818;stroke-width:1.0;" width="10" x="863" y="838.1797"/><rect fill="#FFFFFF" height="103.7031" style="stroke:#181818;stroke-width:1.0;" width="10" x="1355" y="520.1797"/><rect fill="#FFFFFF" height="28" style="stroke:#181818;stroke-width:1.0;" width="10" x="1360" y="558.5313"/><rect fill="#FFFFFF" height="30" style="stroke:#181818;stroke-width:1.0;" width="10" x="1355" y="868.5313"/><rect fill="#FFFFFF" height="30.3516" style="stroke:#181818;stroke-width:1.0;" width="10" x="1543" y="989.1016"/><polygon fill="#181818" points="448,110.9609,458,114.9609,448,118.9609,452,114.9609" style="stroke:#181818;stroke-width:1.0;"/><line style="stroke:#181818;stroke-width:1.0;" x1="87" x2="454" y1="114.9609" y2="114.9609"/><text fill="#000000" font-family="sans-serif" font-size="13" font-weight="bold" lengthAdjust="spacing" textLength="7" x="94" y="110.1045">1</text><text fill="#000000" font-family="sans-serif" font-size="13" lengthAdjust="spacing" textLength="272" x="105" y="110.1045">asks to check and export vaccination statistics</text><polygon fill="#181818" points="98,141.3125,88,145.3125,98,149.3125,94,145.3125" style="stroke:#181818;stroke-width:1.0;"/><line style="stroke:#181818;stroke-width:1.0;stroke-dasharray:2.0,2.0;" x1="92" x2="464" y1="145.3125" y2="145.3125"/><text fill="#000000" font-family="sans-serif" font-size="13" font-weight="bold" lengthAdjust="spacing" textLength="7" x="104" y="140.4561">2</text><text fill="#000000" font-family="sans-serif" font-size="13" lengthAdjust="spacing" textLength="337" x="115" y="140.4561">shows the dates to be selected and asks for one selection</text><polygon fill="#181818" points="448,171.6641,458,175.6641,448,179.6641,452,175.6641" style="stroke:#181818;stroke-width:1.0;"/><line style="stroke:#181818;stroke-width:1.0;" x1="87" x2="454" y1="175.6641" y2="175.6641"/><text fill="#000000" font-family="sans-serif" font-size="13" font-weight="bold" lengthAdjust="spacing" textLength="7" x="94" y="170.8076">3</text><text fill="#000000" font-family="sans-serif" font-size="13" lengthAdjust="spacing" textLength="219" x="105" y="170.8076">selects the first date and the last date</text><polygon fill="#181818" points="851,202.0156,861,206.0156,851,210.0156,855,206.0156" style="stroke:#181818;stroke-width:1.0;"/><line style="stroke:#181818;stroke-width:1.0;" x1="470" x2="857" y1="206.0156" y2="206.0156"/><text fill="#000000" font-family="sans-serif" font-size="13" font-weight="bold" lengthAdjust="spacing" textLength="7" x="477" y="201.1592">4</text><text fill="#000000" font-family="sans-serif" font-size="13" lengthAdjust="spacing" textLength="127" x="488" y="201.1592">setFirstDate(firstDate)</text><polygon fill="#181818" points="851,262.3672,861,266.3672,851,270.3672,855,266.3672" style="stroke:#181818;stroke-width:1.0;"/><line style="stroke:#181818;stroke-width:1.0;" x1="470" x2="857" y1="266.3672" y2="266.3672"/><text fill="#000000" font-family="sans-serif" font-size="13" font-weight="bold" lengthAdjust="spacing" textLength="7" x="477" y="261.5107">5</text><text fill="#000000" font-family="sans-serif" font-size="13" lengthAdjust="spacing" textLength="126" x="488" y="261.5107">setLastDate(lastDate)</text><polygon fill="#181818" points="98,339.0703,88,343.0703,98,347.0703,94,343.0703" style="stroke:#181818;stroke-width:1.0;"/><line style="stroke:#181818;stroke-width:1.0;stroke-dasharray:2.0,2.0;" x1="92" x2="464" y1="343.0703" y2="343.0703"/><text fill="#000000" font-family="sans-serif" font-size="13" font-weight="bold" lengthAdjust="spacing" textLength="7" x="104" y="330.0381">6</text><text fill="#000000" font-family="sans-serif" font-size="13" lengthAdjust="spacing" textLength="293" x="115" y="321.8623">request a selection between the option of checking</text><text fill="#000000" font-family="sans-serif" font-size="13" lengthAdjust="spacing" textLength="243" x="115" y="338.2139">statistics and the option of exporting them</text><path d="M10,358.0703 L71,358.0703 L71,366.4219 L61,376.4219 L10,376.4219 L10,358.0703 " fill="#EEEEEE" style="stroke:#000000;stroke-width:1.5;"/><rect fill="none" height="730.0859" style="stroke:#000000;stroke-width:1.5;" width="1608" x="10" y="358.0703"/><text fill="#000000" font-family="sans-serif" font-size="13" font-weight="bold" lengthAdjust="spacing" textLength="16" x="25" y="372.5654">alt</text><text fill="#000000" font-family="sans-serif" font-size="11" font-weight="bold" lengthAdjust="spacing" textLength="95" x="86" y="371.4893">[check statistics]</text><polygon fill="#181818" points="448,394.7734,458,398.7734,448,402.7734,452,398.7734" style="stroke:#181818;stroke-width:1.0;"/><line style="stroke:#181818;stroke-width:1.0;" x1="87" x2="454" y1="398.7734" y2="398.7734"/><text fill="#000000" font-family="sans-serif" font-size="13" font-weight="bold" lengthAdjust="spacing" textLength="7" x="94" y="393.917">7</text><text fill="#000000" font-family="sans-serif" font-size="13" lengthAdjust="spacing" textLength="175" x="105" y="393.917">selects to check the statistics</text><polygon fill="#181818" points="851,425.125,861,429.125,851,433.125,855,429.125" style="stroke:#181818;stroke-width:1.0;"/><line style="stroke:#181818;stroke-width:1.0;" x1="470" x2="857" y1="429.125" y2="429.125"/><text fill="#000000" font-family="sans-serif" font-size="13" font-weight="bold" lengthAdjust="spacing" textLength="7" x="477" y="424.2686">8</text><text fill="#000000" font-family="sans-serif" font-size="13" lengthAdjust="spacing" textLength="132" x="488" y="424.2686">checkIfDatesAreValid()</text><polygon fill="#181818" points="481,455.4766,471,459.4766,481,463.4766,477,459.4766" style="stroke:#181818;stroke-width:1.0;"/><line style="stroke:#181818;stroke-width:1.0;stroke-dasharray:2.0,2.0;" x1="475" x2="867" y1="459.4766" y2="459.4766"/><text fill="#000000" font-family="sans-serif" font-size="13" font-weight="bold" lengthAdjust="spacing" textLength="7" x="487" y="454.6201">9</text><text fill="#000000" font-family="sans-serif" font-size="13" lengthAdjust="spacing" textLength="192" x="498" y="454.6201">returns true if both dates are valid</text><polygon fill="#181818" points="851,485.8281,861,489.8281,851,493.8281,855,489.8281" style="stroke:#181818;stroke-width:1.0;"/><line style="stroke:#181818;stroke-width:1.0;" x1="470" x2="857" y1="489.8281" y2="489.8281"/><text fill="#000000" font-family="sans-serif" font-size="13" font-weight="bold" lengthAdjust="spacing" textLength="14" x="477" y="484.9717">10</text><text fill="#000000" font-family="sans-serif" font-size="13" lengthAdjust="spacing" textLength="192" x="495" y="484.9717">toCheckVaccinationStatsScene()</text><polygon fill="#181818" points="1343,516.1797,1353,520.1797,1343,524.1797,1347,520.1797" style="stroke:#181818;stroke-width:1.0;"/><line style="stroke:#181818;stroke-width:1.0;stroke-dasharray:2.0,2.0;" x1="873" x2="1349" y1="520.1797" y2="520.1797"/><text fill="#000000" font-family="sans-serif" font-size="13" font-weight="bold" lengthAdjust="spacing" textLength="14" x="880" y="515.3232">11</text><text fill="#000000" font-family="sans-serif" font-size="13" lengthAdjust="spacing" textLength="334" x="898" y="515.3232">getVaccinationStatsListBetweenDates(firstDate, lastDate)</text><line style="stroke:#181818;stroke-width:1.0;" x1="1370" x2="1412" y1="550.5313" y2="550.5313"/><line style="stroke:#181818;stroke-width:1.0;" x1="1412" x2="1412" y1="550.5313" y2="563.5313"/><line style="stroke:#181818;stroke-width:1.0;" x1="1371" x2="1412" y1="563.5313" y2="563.5313"/><polygon fill="#181818" points="1381,559.5313,1371,563.5313,1381,567.5313,1377,563.5313" style="stroke:#181818;stroke-width:1.0;"/><text fill="#000000" font-family="sans-serif" font-size="13" font-weight="bold" lengthAdjust="spacing" textLength="14" x="1377" y="545.6748">12</text><text fill="#000000" font-family="sans-serif" font-size="13" lengthAdjust="spacing" textLength="146" x="1395" y="545.6748">getVaccinationStatsList()</text><polygon fill="#181818" points="884,619.8828,874,623.8828,884,627.8828,880,623.8828" style="stroke:#181818;stroke-width:1.0;"/><line style="stroke:#181818;stroke-width:1.0;stroke-dasharray:2.0,2.0;" x1="878" x2="1359" y1="623.8828" y2="623.8828"/><text fill="#000000" font-family="sans-serif" font-size="13" font-weight="bold" lengthAdjust="spacing" textLength="14" x="890" y="619.0264">13</text><text fill="#000000" font-family="sans-serif" font-size="13" lengthAdjust="spacing" textLength="351" x="908" y="619.0264">returns the list of vaccination statistics for the selected dates</text><polygon fill="#181818" points="481,650.2344,471,654.2344,481,658.2344,477,654.2344" style="stroke:#181818;stroke-width:1.0;"/><line style="stroke:#181818;stroke-width:1.0;stroke-dasharray:2.0,2.0;" x1="475" x2="867" y1="654.2344" y2="654.2344"/><text fill="#000000" font-family="sans-serif" font-size="13" font-weight="bold" lengthAdjust="spacing" textLength="14" x="487" y="649.3779">14</text><text fill="#000000" font-family="sans-serif" font-size="13" lengthAdjust="spacing" textLength="351" x="505" y="649.3779">returns the list of vaccination statistics for the selected dates</text><polygon fill="#181818" points="98,696.9375,88,700.9375,98,704.9375,94,700.9375" style="stroke:#181818;stroke-width:1.0;"/><line style="stroke:#181818;stroke-width:1.0;" x1="92" x2="464" y1="700.9375" y2="700.9375"/><text fill="#000000" font-family="sans-serif" font-size="13" font-weight="bold" lengthAdjust="spacing" textLength="14" x="104" y="687.9053">15</text><text fill="#000000" font-family="sans-serif" font-size="13" lengthAdjust="spacing" textLength="194" x="122" y="679.7295">shows a list with the total number</text><text fill="#000000" font-family="sans-serif" font-size="13" lengthAdjust="spacing" textLength="185" x="122" y="696.0811">of fully vaccinated users per day</text><line style="stroke:#000000;stroke-width:1.0;stroke-dasharray:2.0,2.0;" x1="10" x2="1618" y1="709.9375" y2="709.9375"/><text fill="#000000" font-family="sans-serif" font-size="11" font-weight="bold" lengthAdjust="spacing" textLength="98" x="15" y="721.3564">[export statistics]</text><polygon fill="#181818" points="448,743.125,458,747.125,448,751.125,452,747.125" style="stroke:#181818;stroke-width:1.0;"/><line style="stroke:#181818;stroke-width:1.0;" x1="87" x2="454" y1="747.125" y2="747.125"/><text fill="#000000" font-family="sans-serif" font-size="13" font-weight="bold" lengthAdjust="spacing" textLength="14" x="94" y="742.2686">16</text><text fill="#000000" font-family="sans-serif" font-size="13" lengthAdjust="spacing" textLength="175" x="112" y="742.2686">selects to check the statistics</text><polygon fill="#181818" points="98,773.4766,88,777.4766,98,781.4766,94,777.4766" style="stroke:#181818;stroke-width:1.0;"/><line style="stroke:#181818;stroke-width:1.0;stroke-dasharray:2.0,2.0;" x1="92" x2="464" y1="777.4766" y2="777.4766"/><text fill="#000000" font-family="sans-serif" font-size="13" font-weight="bold" lengthAdjust="spacing" textLength="14" x="104" y="772.6201">17</text><text fill="#000000" font-family="sans-serif" font-size="13" lengthAdjust="spacing" textLength="164" x="122" y="772.6201">requests the name of the file</text><polygon fill="#181818" points="448,803.8281,458,807.8281,448,811.8281,452,807.8281" style="stroke:#181818;stroke-width:1.0;"/><line style="stroke:#181818;stroke-width:1.0;" x1="87" x2="454" y1="807.8281" y2="807.8281"/><text fill="#000000" font-family="sans-serif" font-size="13" font-weight="bold" lengthAdjust="spacing" textLength="14" x="94" y="802.9717">18</text><text fill="#000000" font-family="sans-serif" font-size="13" lengthAdjust="spacing" textLength="146" x="112" y="802.9717">types the name of the file</text><polygon fill="#181818" points="851,834.1797,861,838.1797,851,842.1797,855,838.1797" style="stroke:#181818;stroke-width:1.0;"/><line style="stroke:#181818;stroke-width:1.0;" x1="470" x2="857" y1="838.1797" y2="838.1797"/><text fill="#000000" font-family="sans-serif" font-size="13" font-weight="bold" lengthAdjust="spacing" textLength="14" x="477" y="833.3232">19</text><text fill="#000000" font-family="sans-serif" font-size="13" lengthAdjust="spacing" textLength="193" x="495" y="833.3232">exportVaccinationStats(fileName)</text><polygon fill="#181818" points="1343,864.5313,1353,868.5313,1343,872.5313,1347,868.5313" style="stroke:#181818;stroke-width:1.0;"/><line style="stroke:#181818;stroke-width:1.0;" x1="873" x2="1349" y1="868.5313" y2="868.5313"/><text fill="#000000" font-family="sans-serif" font-size="13" font-weight="bold" lengthAdjust="spacing" textLength="14" x="880" y="863.6748">20</text><text fill="#000000" font-family="sans-serif" font-size="13" lengthAdjust="spacing" textLength="445" x="898" y="863.6748">vaccinationStats = getVaccinationStatsListBetweenDates(firstDate, lastDate)</text><polygon fill="#181818" points="1476,924.8828,1486,928.8828,1476,932.8828,1480,928.8828" style="stroke:#181818;stroke-width:1.0;"/><line style="stroke:#181818;stroke-width:1.0;" x1="873" x2="1482" y1="928.8828" y2="928.8828"/><text fill="#000000" font-family="sans-serif" font-size="13" font-weight="bold" lengthAdjust="spacing" textLength="14" x="880" y="924.0264">21</text><text fill="#000000" font-family="sans-serif" font-size="13" lengthAdjust="spacing" textLength="343" x="898" y="924.0264">createExportListToFile(vaccinationStats, fileName, fileType)</text><rect fill="#E2E2F0" height="49.2188" rx="2.5" ry="2.5" style="stroke:#181818;stroke-width:0.5;" width="120" x="1488" y="906.5313"/><text fill="#000000" font-family="sans-serif" font-size="14" lengthAdjust="spacing" textLength="101" x="1497.5" y="928.0645">exportListToFile</text><text fill="#000000" font-family="sans-serif" font-size="14" lengthAdjust="spacing" textLength="106" x="1495" y="945.6738">:ExportListToFIle</text><polygon fill="#181818" points="1531,985.1016,1541,989.1016,1531,993.1016,1535,989.1016" style="stroke:#181818;stroke-width:1.0;"/><line style="stroke:#181818;stroke-width:1.0;" x1="873" x2="1537" y1="989.1016" y2="989.1016"/><text fill="#000000" font-family="sans-serif" font-size="13" font-weight="bold" lengthAdjust="spacing" textLength="14" x="880" y="984.2451">22</text><text fill="#000000" font-family="sans-serif" font-size="13" lengthAdjust="spacing" textLength="104" x="898" y="984.2451">exportList(header)</text><polygon fill="#181818" points="884,1015.4531,874,1019.4531,884,1023.4531,880,1019.4531" style="stroke:#181818;stroke-width:1.0;"/><line style="stroke:#181818;stroke-width:1.0;stroke-dasharray:2.0,2.0;" x1="878" x2="1547" y1="1019.4531" y2="1019.4531"/><text fill="#000000" font-family="sans-serif" font-size="13" font-weight="bold" lengthAdjust="spacing" textLength="14" x="890" y="1014.5967">23</text><text fill="#000000" font-family="sans-serif" font-size="13" lengthAdjust="spacing" textLength="276" x="908" y="1014.5967">returns true if the list was exported successfully</text><polygon fill="#181818" points="481,1045.8047,471,1049.8047,481,1053.8047,477,1049.8047" style="stroke:#181818;stroke-width:1.0;"/><line style="stroke:#181818;stroke-width:1.0;stroke-dasharray:2.0,2.0;" x1="475" x2="867" y1="1049.8047" y2="1049.8047"/><text fill="#000000" font-family="sans-serif" font-size="13" font-weight="bold" lengthAdjust="spacing" textLength="14" x="487" y="1044.9482">24</text><text fill="#000000" font-family="sans-serif" font-size="13" lengthAdjust="spacing" textLength="276" x="505" y="1044.9482">returns true if the list was exported successfully</text><polygon fill="#181818" points="93,1076.1563,83,1080.1563,93,1084.1563,89,1080.1563" style="stroke:#181818;stroke-width:1.0;"/><line style="stroke:#181818;stroke-width:1.0;stroke-dasharray:2.0,2.0;" x1="87" x2="464" y1="1080.1563" y2="1080.1563"/><text fill="#000000" font-family="sans-serif" font-size="13" font-weight="bold" lengthAdjust="spacing" textLength="14" x="99" y="1075.2998">25</text><text fill="#000000" font-family="sans-serif" font-size="13" lengthAdjust="spacing" textLength="331" x="117" y="1075.2998">informs that the vaccination statistics have been exported</text><!--MD5=[f153aa2019785e3b5fa6156f64315763]
@startuml

autonumber

actor CenterCoordinator as CC

participant ":CheckAndExportVacStatsGUI" as UI
participant ":CheckAndExportVaccinationStatsController" as CTRL
participant "vaccinationCenter\n:VaccinationCenter" as VC
participant "exportListToFile\n:ExportListToFIle" as EL



activate CC
CC -> UI :asks to check and export vaccination statistics

activate UI
UI - -> CC : shows the dates to be selected and asks for one selection
deactivate UI


CC-> UI : selects the first date and the last date

activate UI
UI -> CTRL : setFirstDate(firstDate)
activate CTRL
deactivate CTRL
UI -> CTRL : setLastDate(lastDate)
activate CTRL
deactivate CTRL


UI - -> CC : request a selection between the option of checking \nstatistics and the option of exporting them
deactivate UI



alt check statistics
CC -> UI : selects to check the statistics
activate UI

UI -> CTRL : checkIfDatesAreValid()
activate CTRL
CTRL - -> UI : returns true if both dates are valid
deactivate CTRL

UI -> CTRL : toCheckVaccinationStatsScene()
activate CTRL

CTRL - -> VC : getVaccinationStatsListBetweenDates(firstDate, lastDate)
activate VC
VC -> VC : getVaccinationStatsList()
activate VC
deactivate VC
VC - -> CTRL : returns the list of vaccination statistics for the selected dates
deactivate VC

CTRL - -> UI : returns the list of vaccination statistics for the selected dates

deactivate CTRL
UI -> CC : shows a list with the total number \nof fully vaccinated users per day

deactivate UI




else export statistics
CC -> UI : selects to check the statistics
activate UI

UI - -> CC : requests the name of the file
deactivate UI
CC-> UI : types the name of the file
activate UI
UI -> CTRL : exportVaccinationStats(fileName)
activate CTRL
CTRL -> VC : vaccinationStats = getVaccinationStatsListBetweenDates(firstDate, lastDate)
activate VC
deactivate VC
CTRL -> EL ** : createExportListToFile(vaccinationStats, fileName, fileType)
CTRL -> EL : exportList(header)
activate EL
EL - -> CTRL : returns true if the list was exported successfully
deactivate EL
CTRL - -> UI : returns true if the list was exported successfully
deactivate CTRL
 UI - -> CC : informs that the vaccination statistics have been exported
deactivate UI
deactivate CC
end



















deactivate CC
@enduml

PlantUML version 1.2022.5(Sat Apr 30 11:55:52 BST 2022)
(GPL source distribution)
Java Runtime: OpenJDK Runtime Environment
JVM: OpenJDK 64-Bit Server VM
Default Encoding: Cp1252
Language: en
Country: US
--></g></svg>