<?xml version="1.0" encoding="UTF-8" standalone="no"?><svg xmlns="http://www.w3.org/2000/svg" xmlns:xlink="http://www.w3.org/1999/xlink" contentScriptType="application/ecmascript" contentStyleType="text/css" height="870px" preserveAspectRatio="none" style="width:544px;height:870px;background:#FFFFFF;" version="1.1" viewBox="0 0 544 870" width="544px" zoomAndPan="magnify"><defs><filter height="300%" id="f1gqw2saju3xie" width="300%" x="-1" y="-1"><feGaussianBlur result="blurOut" stdDeviation="2.0"/><feColorMatrix in="blurOut" result="blurOut2" type="matrix" values="0 0 0 0 0 0 0 0 0 0 0 0 0 0 0 0 0 0 .4 0"/><feOffset dx="4.0" dy="4.0" in="blurOut2" result="blurOut3"/><feBlend in="SourceGraphic" in2="blurOut3" mode="normal"/></filter></defs><g><!--MD5=[7ab50a2bd096837550e4a3b49d8c864e]
class LoadCSVUI--><rect codeLine="3" fill="#FEFECE" filter="url(#f1gqw2saju3xie)" height="131.0156" id="LoadCSVUI" style="stroke:#A80036;stroke-width:1.5;" width="147" x="270.5" y="7"/><ellipse cx="308.45" cy="23" fill="#ADD1B2" rx="11" ry="11" style="stroke:#A80036;stroke-width:1.0;"/><path d="M310.45,19.5 Q310.6531,19 310.8875,18.75 Q311.1219,18.5 311.3875,18.5 Q311.8563,18.5 312.1531,18.7813 Q312.45,19.0625 312.45,19.7188 L312.45,21.2813 Q312.45,21.9375 312.1688,22.2188 Q311.8875,22.5 311.45,22.5 Q311.0594,22.5 310.8094,22.3281 Q310.5594,22.1563 310.45,21.7031 Q310.4031,21.3906 310.2313,21.2188 Q309.9188,20.8906 309.3563,20.7031 Q308.7938,20.5 308.2313,20.5 Q307.5281,20.5 306.9344,20.7813 Q306.3563,21.0625 305.9031,21.6875 Q305.45,22.3125 305.45,23.1719 L305.45,24.0938 Q305.45,25.125 306.2938,25.8125 Q307.1375,26.5 308.6375,26.5 Q309.5281,26.5 310.1531,26.2969 Q310.5125,26.1875 310.9188,25.8281 Q311.1844,25.625 311.325,25.5625 Q311.4656,25.5 311.6375,25.5 Q311.9656,25.5 312.2,25.7656 Q312.45,26.0156 312.45,26.375 Q312.45,26.7188 312.1063,27.125 Q311.6063,27.7188 310.8094,28.0469 Q309.7625,28.5 308.4813,28.5 Q306.9813,28.5 305.7781,27.9063 Q304.8094,27.4375 304.1219,26.4219 Q303.45,25.4063 303.45,24.2031 L303.45,23.1094 Q303.45,21.8594 304.0438,20.7656 Q304.6531,19.6719 305.7,19.0938 Q306.7625,18.5 307.95,18.5 Q308.6688,18.5 309.2938,18.75 Q309.9188,19 310.45,19.5 Z " fill="#000000"/><text fill="#000000" font-family="sans-serif" font-size="12" lengthAdjust="spacing" textLength="64" x="327.55" y="27.9102">LoadCSVUI</text><line style="stroke:#A80036;stroke-width:1.5;" x1="271.5" x2="416.5" y1="39" y2="39"/><line style="stroke:#A80036;stroke-width:1.5;" x1="271.5" x2="416.5" y1="47" y2="47"/><ellipse cx="281.5" cy="58" fill="#84BE84" rx="3" ry="3" style="stroke:#038048;stroke-width:1.0;"/><text fill="#000000" font-family="sans-serif" font-size="11" lengthAdjust="spacing" textLength="24" x="290.5" y="62.4189">run()</text><ellipse cx="281.5" cy="71.8359" fill="#84BE84" rx="3" ry="3" style="stroke:#038048;stroke-width:1.0;"/><text fill="#000000" font-family="sans-serif" font-size="11" lengthAdjust="spacing" textLength="70" x="290.5" y="76.2549">runLoadCSV()</text><ellipse cx="281.5" cy="85.6719" fill="#84BE84" rx="3" ry="3" style="stroke:#038048;stroke-width:1.0;"/><text fill="#000000" font-family="sans-serif" font-size="11" lengthAdjust="spacing" textLength="102" x="290.5" y="90.0908">getListOfSNSUsers()</text><ellipse cx="281.5" cy="99.5078" fill="#84BE84" rx="3" ry="3" style="stroke:#038048;stroke-width:1.0;"/><text fill="#000000" font-family="sans-serif" font-size="11" lengthAdjust="spacing" textLength="115" x="290.5" y="103.9268">validateFileFormat(path)</text><ellipse cx="281.5" cy="113.3438" fill="#84BE84" rx="3" ry="3" style="stroke:#038048;stroke-width:1.0;"/><text fill="#000000" font-family="sans-serif" font-size="11" lengthAdjust="spacing" textLength="121" x="290.5" y="117.7627">validateCSVData(values)</text><ellipse cx="281.5" cy="127.1797" fill="#84BE84" rx="3" ry="3" style="stroke:#038048;stroke-width:1.0;"/><text fill="#000000" font-family="sans-serif" font-size="11" lengthAdjust="spacing" textLength="118" x="290.5" y="131.5986">fillSNSUserDto(csvData)</text><!--MD5=[7ceb7033b3c1ff874813cbc84fb79212]
class LoadCSVController--><rect codeLine="12" fill="#FEFECE" filter="url(#f1gqw2saju3xie)" height="89.5078" id="LoadCSVController" style="stroke:#A80036;stroke-width:1.5;" width="169" x="121.5" y="199"/><ellipse cx="150.45" cy="215" fill="#ADD1B2" rx="11" ry="11" style="stroke:#A80036;stroke-width:1.0;"/><path d="M152.45,211.5 Q152.6531,211 152.8875,210.75 Q153.1219,210.5 153.3875,210.5 Q153.8563,210.5 154.1531,210.7813 Q154.45,211.0625 154.45,211.7188 L154.45,213.2813 Q154.45,213.9375 154.1688,214.2188 Q153.8875,214.5 153.45,214.5 Q153.0594,214.5 152.8094,214.3281 Q152.5594,214.1563 152.45,213.7031 Q152.4031,213.3906 152.2313,213.2188 Q151.9188,212.8906 151.3563,212.7031 Q150.7938,212.5 150.2313,212.5 Q149.5281,212.5 148.9344,212.7813 Q148.3563,213.0625 147.9031,213.6875 Q147.45,214.3125 147.45,215.1719 L147.45,216.0938 Q147.45,217.125 148.2938,217.8125 Q149.1375,218.5 150.6375,218.5 Q151.5281,218.5 152.1531,218.2969 Q152.5125,218.1875 152.9188,217.8281 Q153.1844,217.625 153.325,217.5625 Q153.4656,217.5 153.6375,217.5 Q153.9656,217.5 154.2,217.7656 Q154.45,218.0156 154.45,218.375 Q154.45,218.7188 154.1063,219.125 Q153.6063,219.7188 152.8094,220.0469 Q151.7625,220.5 150.4813,220.5 Q148.9813,220.5 147.7781,219.9063 Q146.8094,219.4375 146.1219,218.4219 Q145.45,217.4063 145.45,216.2031 L145.45,215.1094 Q145.45,213.8594 146.0438,212.7656 Q146.6531,211.6719 147.7,211.0938 Q148.7625,210.5 149.95,210.5 Q150.6688,210.5 151.2938,210.75 Q151.9188,211 152.45,211.5 Z " fill="#000000"/><text fill="#000000" font-family="sans-serif" font-size="12" lengthAdjust="spacing" textLength="106" x="167.55" y="219.9102">LoadCSVController</text><line style="stroke:#A80036;stroke-width:1.5;" x1="122.5" x2="289.5" y1="231" y2="231"/><line style="stroke:#A80036;stroke-width:1.5;" x1="122.5" x2="289.5" y1="239" y2="239"/><ellipse cx="132.5" cy="250" fill="#84BE84" rx="3" ry="3" style="stroke:#038048;stroke-width:1.0;"/><text fill="#000000" font-family="sans-serif" font-size="11" lengthAdjust="spacing" textLength="143" x="141.5" y="254.4189">createSNSUser(SNSUserDto)</text><ellipse cx="132.5" cy="263.8359" fill="#84BE84" rx="3" ry="3" style="stroke:#038048;stroke-width:1.0;"/><text fill="#000000" font-family="sans-serif" font-size="11" lengthAdjust="spacing" textLength="136" x="141.5" y="268.2549">saveSNSUser(SNSUserDto)</text><ellipse cx="132.5" cy="277.6719" fill="#84BE84" rx="3" ry="3" style="stroke:#038048;stroke-width:1.0;"/><text fill="#000000" font-family="sans-serif" font-size="11" lengthAdjust="spacing" textLength="84" x="141.5" y="282.0908">getSNSUserList()</text><!--MD5=[02e4b9b7573f1156f41e60aa5b4e25a4]
class Company--><rect codeLine="18" fill="#FEFECE" filter="url(#f1gqw2saju3xie)" height="89.5078" id="Company" style="stroke:#A80036;stroke-width:1.5;" width="169" x="74.5" y="391.5"/><ellipse cx="128.25" cy="407.5" fill="#ADD1B2" rx="11" ry="11" style="stroke:#A80036;stroke-width:1.0;"/><path d="M130.25,404 Q130.4531,403.5 130.6875,403.25 Q130.9219,403 131.1875,403 Q131.6563,403 131.9531,403.2813 Q132.25,403.5625 132.25,404.2188 L132.25,405.7813 Q132.25,406.4375 131.9688,406.7188 Q131.6875,407 131.25,407 Q130.8594,407 130.6094,406.8281 Q130.3594,406.6563 130.25,406.2031 Q130.2031,405.8906 130.0313,405.7188 Q129.7188,405.3906 129.1563,405.2031 Q128.5938,405 128.0313,405 Q127.3281,405 126.7344,405.2813 Q126.1563,405.5625 125.7031,406.1875 Q125.25,406.8125 125.25,407.6719 L125.25,408.5938 Q125.25,409.625 126.0938,410.3125 Q126.9375,411 128.4375,411 Q129.3281,411 129.9531,410.7969 Q130.3125,410.6875 130.7188,410.3281 Q130.9844,410.125 131.125,410.0625 Q131.2656,410 131.4375,410 Q131.7656,410 132,410.2656 Q132.25,410.5156 132.25,410.875 Q132.25,411.2188 131.9063,411.625 Q131.4063,412.2188 130.6094,412.5469 Q129.5625,413 128.2813,413 Q126.7813,413 125.5781,412.4063 Q124.6094,411.9375 123.9219,410.9219 Q123.25,409.9063 123.25,408.7031 L123.25,407.6094 Q123.25,406.3594 123.8438,405.2656 Q124.4531,404.1719 125.5,403.5938 Q126.5625,403 127.75,403 Q128.4688,403 129.0938,403.25 Q129.7188,403.5 130.25,404 Z " fill="#000000"/><text fill="#000000" font-family="sans-serif" font-size="12" lengthAdjust="spacing" textLength="53" x="148.75" y="412.4102">Company</text><line style="stroke:#A80036;stroke-width:1.5;" x1="75.5" x2="242.5" y1="423.5" y2="423.5"/><line style="stroke:#A80036;stroke-width:1.5;" x1="75.5" x2="242.5" y1="431.5" y2="431.5"/><ellipse cx="85.5" cy="442.5" fill="#84BE84" rx="3" ry="3" style="stroke:#038048;stroke-width:1.0;"/><text fill="#000000" font-family="sans-serif" font-size="11" lengthAdjust="spacing" textLength="143" x="94.5" y="446.9189">createSNSUser(SNSUserDto)</text><ellipse cx="85.5" cy="456.3359" fill="#84BE84" rx="3" ry="3" style="stroke:#038048;stroke-width:1.0;"/><text fill="#000000" font-family="sans-serif" font-size="11" lengthAdjust="spacing" textLength="136" x="94.5" y="460.7549">saveSNSUser(SNSUserDto)</text><ellipse cx="85.5" cy="470.1719" fill="#84BE84" rx="3" ry="3" style="stroke:#038048;stroke-width:1.0;"/><text fill="#000000" font-family="sans-serif" font-size="11" lengthAdjust="spacing" textLength="84" x="94.5" y="474.5908">getSNSUserList()</text><!--MD5=[435e87b77665633b06f18413f59de7e8]
class SNSUserDto--><rect codeLine="24" fill="#FEFECE" filter="url(#f1gqw2saju3xie)" height="172.5234" id="SNSUserDto" style="stroke:#A80036;stroke-width:1.5;" width="131" x="278.5" y="350"/><ellipse cx="306.1" cy="366" fill="#ADD1B2" rx="11" ry="11" style="stroke:#A80036;stroke-width:1.0;"/><path d="M308.1,362.5 Q308.3031,362 308.5375,361.75 Q308.7719,361.5 309.0375,361.5 Q309.5063,361.5 309.8031,361.7813 Q310.1,362.0625 310.1,362.7188 L310.1,364.2813 Q310.1,364.9375 309.8188,365.2188 Q309.5375,365.5 309.1,365.5 Q308.7094,365.5 308.4594,365.3281 Q308.2094,365.1563 308.1,364.7031 Q308.0531,364.3906 307.8813,364.2188 Q307.5688,363.8906 307.0063,363.7031 Q306.4438,363.5 305.8813,363.5 Q305.1781,363.5 304.5844,363.7813 Q304.0063,364.0625 303.5531,364.6875 Q303.1,365.3125 303.1,366.1719 L303.1,367.0938 Q303.1,368.125 303.9438,368.8125 Q304.7875,369.5 306.2875,369.5 Q307.1781,369.5 307.8031,369.2969 Q308.1625,369.1875 308.5688,368.8281 Q308.8344,368.625 308.975,368.5625 Q309.1156,368.5 309.2875,368.5 Q309.6156,368.5 309.85,368.7656 Q310.1,369.0156 310.1,369.375 Q310.1,369.7188 309.7563,370.125 Q309.2563,370.7188 308.4594,371.0469 Q307.4125,371.5 306.1313,371.5 Q304.6313,371.5 303.4281,370.9063 Q302.4594,370.4375 301.7719,369.4219 Q301.1,368.4063 301.1,367.2031 L301.1,366.1094 Q301.1,364.8594 301.6938,363.7656 Q302.3031,362.6719 303.35,362.0938 Q304.4125,361.5 305.6,361.5 Q306.3188,361.5 306.9438,361.75 Q307.5688,362 308.1,362.5 Z " fill="#000000"/><text fill="#000000" font-family="sans-serif" font-size="12" lengthAdjust="spacing" textLength="71" x="322.9" y="370.9102">SNSUserDto</text><line style="stroke:#A80036;stroke-width:1.5;" x1="279.5" x2="408.5" y1="382" y2="382"/><rect fill="none" height="6" style="stroke:#C82930;stroke-width:1.0;" width="6" x="286.5" y="390"/><text fill="#000000" font-family="sans-serif" font-size="11" lengthAdjust="spacing" textLength="40" x="298.5" y="397.4189">strName</text><rect fill="none" height="6" style="stroke:#C82930;stroke-width:1.0;" width="6" x="286.5" y="403.8359"/><text fill="#000000" font-family="sans-serif" font-size="11" lengthAdjust="spacing" textLength="32" x="298.5" y="411.2549">strSex</text><rect fill="none" height="6" style="stroke:#C82930;stroke-width:1.0;" width="6" x="286.5" y="417.6719"/><text fill="#000000" font-family="sans-serif" font-size="11" lengthAdjust="spacing" textLength="57" x="298.5" y="425.0908">strBirthDate</text><rect fill="none" height="6" style="stroke:#C82930;stroke-width:1.0;" width="6" x="286.5" y="431.5078"/><text fill="#000000" font-family="sans-serif" font-size="11" lengthAdjust="spacing" textLength="55" x="298.5" y="438.9268">strAddress</text><rect fill="none" height="6" style="stroke:#C82930;stroke-width:1.0;" width="6" x="286.5" y="445.3438"/><text fill="#000000" font-family="sans-serif" font-size="11" lengthAdjust="spacing" textLength="80" x="298.5" y="452.7627">strPhoneNumber</text><rect fill="none" height="6" style="stroke:#C82930;stroke-width:1.0;" width="6" x="286.5" y="459.1797"/><text fill="#000000" font-family="sans-serif" font-size="11" lengthAdjust="spacing" textLength="37" x="298.5" y="466.5986">strEmail</text><rect fill="none" height="6" style="stroke:#C82930;stroke-width:1.0;" width="6" x="286.5" y="473.0156"/><text fill="#000000" font-family="sans-serif" font-size="11" lengthAdjust="spacing" textLength="78" x="298.5" y="480.4346">snsUserNumber</text><rect fill="none" height="6" style="stroke:#C82930;stroke-width:1.0;" width="6" x="286.5" y="486.8516"/><text fill="#000000" font-family="sans-serif" font-size="11" lengthAdjust="spacing" textLength="105" x="298.5" y="494.2705">strCitizenCardNumber</text><rect fill="none" height="6" style="stroke:#C82930;stroke-width:1.0;" width="6" x="286.5" y="500.6875"/><text fill="#000000" font-family="sans-serif" font-size="11" lengthAdjust="spacing" textLength="63" x="298.5" y="508.1064">strPassword</text><line style="stroke:#A80036;stroke-width:1.5;" x1="279.5" x2="408.5" y1="514.5234" y2="514.5234"/><!--MD5=[72be06cc7ae02ccc98efe28a50e62246]
class SNSUser--><rect codeLine="36" fill="#FEFECE" filter="url(#f1gqw2saju3xie)" height="255.5391" id="SNSUser" style="stroke:#A80036;stroke-width:1.5;" width="155" x="266.5" y="601"/><ellipse cx="313.75" cy="617" fill="#ADD1B2" rx="11" ry="11" style="stroke:#A80036;stroke-width:1.0;"/><path d="M315.75,613.5 Q315.9531,613 316.1875,612.75 Q316.4219,612.5 316.6875,612.5 Q317.1563,612.5 317.4531,612.7813 Q317.75,613.0625 317.75,613.7188 L317.75,615.2813 Q317.75,615.9375 317.4688,616.2188 Q317.1875,616.5 316.75,616.5 Q316.3594,616.5 316.1094,616.3281 Q315.8594,616.1563 315.75,615.7031 Q315.7031,615.3906 315.5313,615.2188 Q315.2188,614.8906 314.6563,614.7031 Q314.0938,614.5 313.5313,614.5 Q312.8281,614.5 312.2344,614.7813 Q311.6563,615.0625 311.2031,615.6875 Q310.75,616.3125 310.75,617.1719 L310.75,618.0938 Q310.75,619.125 311.5938,619.8125 Q312.4375,620.5 313.9375,620.5 Q314.8281,620.5 315.4531,620.2969 Q315.8125,620.1875 316.2188,619.8281 Q316.4844,619.625 316.625,619.5625 Q316.7656,619.5 316.9375,619.5 Q317.2656,619.5 317.5,619.7656 Q317.75,620.0156 317.75,620.375 Q317.75,620.7188 317.4063,621.125 Q316.9063,621.7188 316.1094,622.0469 Q315.0625,622.5 313.7813,622.5 Q312.2813,622.5 311.0781,621.9063 Q310.1094,621.4375 309.4219,620.4219 Q308.75,619.4063 308.75,618.2031 L308.75,617.1094 Q308.75,615.8594 309.3438,614.7656 Q309.9531,613.6719 311,613.0938 Q312.0625,612.5 313.25,612.5 Q313.9688,612.5 314.5938,612.75 Q315.2188,613 315.75,613.5 Z " fill="#000000"/><text fill="#000000" font-family="sans-serif" font-size="12" lengthAdjust="spacing" textLength="52" x="334.25" y="621.9102">SNSUser</text><line style="stroke:#A80036;stroke-width:1.5;" x1="267.5" x2="420.5" y1="633" y2="633"/><rect fill="none" height="6" style="stroke:#C82930;stroke-width:1.0;" width="6" x="274.5" y="641"/><text fill="#000000" font-family="sans-serif" font-size="11" lengthAdjust="spacing" textLength="40" x="286.5" y="648.4189">strName</text><rect fill="none" height="6" style="stroke:#C82930;stroke-width:1.0;" width="6" x="274.5" y="654.8359"/><text fill="#000000" font-family="sans-serif" font-size="11" lengthAdjust="spacing" textLength="32" x="286.5" y="662.2549">strSex</text><rect fill="none" height="6" style="stroke:#C82930;stroke-width:1.0;" width="6" x="274.5" y="668.6719"/><text fill="#000000" font-family="sans-serif" font-size="11" lengthAdjust="spacing" textLength="57" x="286.5" y="676.0908">strBirthDate</text><rect fill="none" height="6" style="stroke:#C82930;stroke-width:1.0;" width="6" x="274.5" y="682.5078"/><text fill="#000000" font-family="sans-serif" font-size="11" lengthAdjust="spacing" textLength="55" x="286.5" y="689.9268">strAddress</text><rect fill="none" height="6" style="stroke:#C82930;stroke-width:1.0;" width="6" x="274.5" y="696.3438"/><text fill="#000000" font-family="sans-serif" font-size="11" lengthAdjust="spacing" textLength="80" x="286.5" y="703.7627">strPhoneNumber</text><rect fill="none" height="6" style="stroke:#C82930;stroke-width:1.0;" width="6" x="274.5" y="710.1797"/><text fill="#000000" font-family="sans-serif" font-size="11" lengthAdjust="spacing" textLength="37" x="286.5" y="717.5986">strEmail</text><rect fill="none" height="6" style="stroke:#C82930;stroke-width:1.0;" width="6" x="274.5" y="724.0156"/><text fill="#000000" font-family="sans-serif" font-size="11" lengthAdjust="spacing" textLength="78" x="286.5" y="731.4346">snsUserNumber</text><rect fill="none" height="6" style="stroke:#C82930;stroke-width:1.0;" width="6" x="274.5" y="737.8516"/><text fill="#000000" font-family="sans-serif" font-size="11" lengthAdjust="spacing" textLength="105" x="286.5" y="745.2705">strCitizenCardNumber</text><rect fill="none" height="6" style="stroke:#C82930;stroke-width:1.0;" width="6" x="274.5" y="751.6875"/><text fill="#000000" font-family="sans-serif" font-size="11" lengthAdjust="spacing" textLength="63" x="286.5" y="759.1064">strPassword</text><line style="stroke:#A80036;stroke-width:1.5;" x1="267.5" x2="420.5" y1="765.5234" y2="765.5234"/><ellipse cx="277.5" cy="776.5234" fill="#84BE84" rx="3" ry="3" style="stroke:#038048;stroke-width:1.0;"/><text fill="#000000" font-family="sans-serif" font-size="11" lengthAdjust="spacing" textLength="102" x="286.5" y="780.9424">getSnsUserNumber()</text><ellipse cx="277.5" cy="790.3594" fill="#84BE84" rx="3" ry="3" style="stroke:#038048;stroke-width:1.0;"/><text fill="#000000" font-family="sans-serif" font-size="11" lengthAdjust="spacing" textLength="61" x="286.5" y="794.7783">getStrEmail()</text><ellipse cx="277.5" cy="804.1953" fill="#84BE84" rx="3" ry="3" style="stroke:#038048;stroke-width:1.0;"/><text fill="#000000" font-family="sans-serif" font-size="11" lengthAdjust="spacing" textLength="104" x="286.5" y="808.6143">getStrPhoneNumber()</text><ellipse cx="277.5" cy="818.0313" fill="#84BE84" rx="3" ry="3" style="stroke:#038048;stroke-width:1.0;"/><text fill="#000000" font-family="sans-serif" font-size="11" lengthAdjust="spacing" textLength="129" x="286.5" y="822.4502">getStrCitizenCardNumber()</text><ellipse cx="277.5" cy="831.8672" fill="#84BE84" rx="3" ry="3" style="stroke:#038048;stroke-width:1.0;"/><text fill="#000000" font-family="sans-serif" font-size="11" lengthAdjust="spacing" textLength="89" x="286.5" y="836.2861">validateSNSUser()</text><ellipse cx="277.5" cy="845.7031" fill="#84BE84" rx="3" ry="3" style="stroke:#038048;stroke-width:1.0;"/><text fill="#000000" font-family="sans-serif" font-size="11" lengthAdjust="spacing" textLength="45" x="286.5" y="850.1221">toString()</text><!--MD5=[f8d2b21678b6ea5d90e779ee6463ca37]
class Utils--><rect codeLine="54" fill="#FEFECE" filter="url(#f1gqw2saju3xie)" height="61.8359" id="Utils" style="stroke:#A80036;stroke-width:1.5;" width="133" x="397.5" y="213"/><ellipse cx="447.25" cy="229" fill="#ADD1B2" rx="11" ry="11" style="stroke:#A80036;stroke-width:1.0;"/><path d="M449.25,225.5 Q449.4531,225 449.6875,224.75 Q449.9219,224.5 450.1875,224.5 Q450.6563,224.5 450.9531,224.7813 Q451.25,225.0625 451.25,225.7188 L451.25,227.2813 Q451.25,227.9375 450.9688,228.2188 Q450.6875,228.5 450.25,228.5 Q449.8594,228.5 449.6094,228.3281 Q449.3594,228.1563 449.25,227.7031 Q449.2031,227.3906 449.0313,227.2188 Q448.7188,226.8906 448.1563,226.7031 Q447.5938,226.5 447.0313,226.5 Q446.3281,226.5 445.7344,226.7813 Q445.1563,227.0625 444.7031,227.6875 Q444.25,228.3125 444.25,229.1719 L444.25,230.0938 Q444.25,231.125 445.0938,231.8125 Q445.9375,232.5 447.4375,232.5 Q448.3281,232.5 448.9531,232.2969 Q449.3125,232.1875 449.7188,231.8281 Q449.9844,231.625 450.125,231.5625 Q450.2656,231.5 450.4375,231.5 Q450.7656,231.5 451,231.7656 Q451.25,232.0156 451.25,232.375 Q451.25,232.7188 450.9063,233.125 Q450.4063,233.7188 449.6094,234.0469 Q448.5625,234.5 447.2813,234.5 Q445.7813,234.5 444.5781,233.9063 Q443.6094,233.4375 442.9219,232.4219 Q442.25,231.4063 442.25,230.2031 L442.25,229.1094 Q442.25,227.8594 442.8438,226.7656 Q443.4531,225.6719 444.5,225.0938 Q445.5625,224.5 446.75,224.5 Q447.4688,224.5 448.0938,224.75 Q448.7188,225 449.25,225.5 Z " fill="#000000"/><text fill="#000000" font-family="sans-serif" font-size="12" lengthAdjust="spacing" textLength="25" x="467.75" y="233.9102">Utils</text><line style="stroke:#A80036;stroke-width:1.5;" x1="398.5" x2="529.5" y1="245" y2="245"/><line style="stroke:#A80036;stroke-width:1.5;" x1="398.5" x2="529.5" y1="253" y2="253"/><ellipse cx="408.5" cy="264" fill="#84BE84" rx="3" ry="3" style="stroke:#038048;stroke-width:1.0;"/><text fill="#000000" font-family="sans-serif" font-size="11" lengthAdjust="spacing" textLength="107" x="417.5" y="268.4189">passwordGenerator()</text><!--MD5=[8ae808d068a8995f06b9b3ec51357f0b]
class AuthFacade--><rect codeLine="58" fill="#FEFECE" filter="url(#f1gqw2saju3xie)" height="75.6719" id="AuthFacade" style="stroke:#A80036;stroke-width:1.5;" width="224" x="7" y="691"/><ellipse cx="82.25" cy="707" fill="#ADD1B2" rx="11" ry="11" style="stroke:#A80036;stroke-width:1.0;"/><path d="M84.25,703.5 Q84.4531,703 84.6875,702.75 Q84.9219,702.5 85.1875,702.5 Q85.6563,702.5 85.9531,702.7813 Q86.25,703.0625 86.25,703.7188 L86.25,705.2813 Q86.25,705.9375 85.9688,706.2188 Q85.6875,706.5 85.25,706.5 Q84.8594,706.5 84.6094,706.3281 Q84.3594,706.1563 84.25,705.7031 Q84.2031,705.3906 84.0313,705.2188 Q83.7188,704.8906 83.1563,704.7031 Q82.5938,704.5 82.0313,704.5 Q81.3281,704.5 80.7344,704.7813 Q80.1563,705.0625 79.7031,705.6875 Q79.25,706.3125 79.25,707.1719 L79.25,708.0938 Q79.25,709.125 80.0938,709.8125 Q80.9375,710.5 82.4375,710.5 Q83.3281,710.5 83.9531,710.2969 Q84.3125,710.1875 84.7188,709.8281 Q84.9844,709.625 85.125,709.5625 Q85.2656,709.5 85.4375,709.5 Q85.7656,709.5 86,709.7656 Q86.25,710.0156 86.25,710.375 Q86.25,710.7188 85.9063,711.125 Q85.4063,711.7188 84.6094,712.0469 Q83.5625,712.5 82.2813,712.5 Q80.7813,712.5 79.5781,711.9063 Q78.6094,711.4375 77.9219,710.4219 Q77.25,709.4063 77.25,708.2031 L77.25,707.1094 Q77.25,705.8594 77.8438,704.7656 Q78.4531,703.6719 79.5,703.0938 Q80.5625,702.5 81.75,702.5 Q82.4688,702.5 83.0938,702.75 Q83.7188,703 84.25,703.5 Z " fill="#000000"/><text fill="#000000" font-family="sans-serif" font-size="12" lengthAdjust="spacing" textLength="65" x="102.75" y="711.9102">AuthFacade</text><line style="stroke:#A80036;stroke-width:1.5;" x1="8" x2="230" y1="723" y2="723"/><line style="stroke:#A80036;stroke-width:1.5;" x1="8" x2="230" y1="731" y2="731"/><ellipse cx="18" cy="742" fill="#84BE84" rx="3" ry="3" style="stroke:#038048;stroke-width:1.0;"/><text fill="#000000" font-family="sans-serif" font-size="11" lengthAdjust="spacing" textLength="84" x="27" y="746.4189">existsUser(email)</text><ellipse cx="18" cy="755.8359" fill="#84BE84" rx="3" ry="3" style="stroke:#038048;stroke-width:1.0;"/><text fill="#000000" font-family="sans-serif" font-size="11" lengthAdjust="spacing" textLength="198" x="27" y="760.2549">addUserWithRole(name,email,pwd,roleId)</text><!--MD5=[2b188c7cc4822b9adb6999fad5e09590]
link LoadCSVUI to LoadCSVController--><path codeLine="63" d="M291.43,138.06 C276.07,156.94 259.55,177.23 245.17,194.89 " fill="none" id="LoadCSVUI-to-LoadCSVController" style="stroke:#A80036;stroke-width:1.0;stroke-dasharray:7.0,7.0;"/><polygon fill="#A80036" points="241.94,198.85,250.7198,194.3873,245.093,194.9694,244.5109,189.3426,241.94,198.85" style="stroke:#A80036;stroke-width:1.0;"/><!--MD5=[e5714aa17dd3a37d20afce9b5d0b2be4]
link LoadCSVController to Company--><path codeLine="64" d="M195.1,289.18 C187.95,318.17 178.58,356.12 171.19,386.11 " fill="none" id="LoadCSVController-to-Company" style="stroke:#A80036;stroke-width:1.0;stroke-dasharray:7.0,7.0;"/><polygon fill="#A80036" points="169.92,391.23,175.9619,383.4521,171.1192,386.3759,168.1954,381.5333,169.92,391.23" style="stroke:#A80036;stroke-width:1.0;"/><!--MD5=[20b3f4034d677212e5a7820069aa9b44]
link LoadCSVUI to Utils--><path codeLine="65" d="M389.71,138.06 C406.65,162 425.21,188.21 439.54,208.45 " fill="none" id="LoadCSVUI-to-Utils" style="stroke:#A80036;stroke-width:1.0;stroke-dasharray:7.0,7.0;"/><polygon fill="#A80036" points="442.53,212.67,440.6051,203.0111,439.6455,208.586,434.0706,207.6263,442.53,212.67" style="stroke:#A80036;stroke-width:1.0;"/><!--MD5=[fa77a56c7d710f9d076d15e581c797fc]
link LoadCSVUI to SNSUserDto--><path codeLine="66" d="M344,138.22 C344,195.68 344,280.26 344,344.52 " fill="none" id="LoadCSVUI-to-SNSUserDto" style="stroke:#A80036;stroke-width:1.0;stroke-dasharray:7.0,7.0;"/><polygon fill="#A80036" points="344,349.9,348,340.9,344,344.9,340,340.9,344,349.9" style="stroke:#A80036;stroke-width:1.0;"/><!--MD5=[3d124a579a23be6abc820c397a995d99]
link LoadCSVController to SNSUserDto--><path codeLine="67" d="M238.01,289.18 C250.22,306.04 264.63,325.94 278.82,345.53 " fill="none" id="LoadCSVController-to-SNSUserDto" style="stroke:#A80036;stroke-width:1.0;stroke-dasharray:7.0,7.0;"/><polygon fill="#A80036" points="282.04,349.97,279.9996,340.3348,279.1068,345.9208,273.5209,345.0279,282.04,349.97" style="stroke:#A80036;stroke-width:1.0;"/><!--MD5=[c38a7f496fc605f9690b323995fdc7db]
link SNSUserDto to SNSUser--><path codeLine="68" d="M344,523.09 C344,545.82 344,570.92 344,595.52 " fill="none" id="SNSUserDto-to-SNSUser" style="stroke:#A80036;stroke-width:1.0;stroke-dasharray:7.0,7.0;"/><polygon fill="#A80036" points="344,600.76,348,591.76,344,595.76,340,591.76,344,600.76" style="stroke:#A80036;stroke-width:1.0;"/><!--MD5=[1a8aa2b864b87f860d28abceaa28b7a5]
link Company to SNSUser--><path codeLine="69" d="M187.1,481.62 C207.52,513.69 236.26,558.82 263.57,601.71 " fill="none" id="Company-to-SNSUser" style="stroke:#A80036;stroke-width:1.0;"/><polygon fill="#A80036" points="266.38,606.12,264.9164,596.3805,263.6928,601.9035,258.1699,600.6799,266.38,606.12" style="stroke:#A80036;stroke-width:1.0;"/><text fill="#000000" font-family="sans-serif" font-size="13" lengthAdjust="spacing" textLength="37" x="241" y="567.4951">knows</text><text fill="#000000" font-family="sans-serif" font-size="13" lengthAdjust="spacing" textLength="7" x="183.5594" y="502.6444">1</text><text fill="#000000" font-family="sans-serif" font-size="13" lengthAdjust="spacing" textLength="5" x="253.4932" y="590.7716">*</text><!--MD5=[717d4b03d3c4372f4eafe5e342a0a7dd]
link Company to AuthFacade--><path codeLine="70" d="M152.92,481.62 C145.3,536.98 132.32,631.23 124.82,685.71 " fill="none" id="Company-to-AuthFacade" style="stroke:#A80036;stroke-width:1.0;stroke-dasharray:7.0,7.0;"/><polygon fill="#A80036" points="124.11,690.86,129.2818,682.4783,124.7811,685.9052,121.3542,681.4046,124.11,690.86" style="stroke:#A80036;stroke-width:1.0;"/><!--MD5=[f05a059134cda1b4aa5199a3585c9932]
@startuml
'https://plantuml.com/class-diagram

class LoadCSVUI{
+run()
+runLoadCSV()
+getListOfSNSUsers()
+validateFileFormat(path)
+validateCSVData(values)
+fillSNSUserDto(csvData)
}

class LoadCSVController{
+createSNSUser(SNSUserDto)
+saveSNSUser(SNSUserDto)
+getSNSUserList()
}

class Company{
+createSNSUser(SNSUserDto)
+saveSNSUser(SNSUserDto)
+getSNSUserList()
}

class SNSUserDto{
-strName
-strSex
-strBirthDate
-strAddress
-strPhoneNumber
-strEmail
-snsUserNumber
-strCitizenCardNumber
-strPassword
}

class SNSUser{
-strName
-strSex
-strBirthDate
-strAddress
-strPhoneNumber
-strEmail
-snsUserNumber
-strCitizenCardNumber
-strPassword
+getSnsUserNumber()
+getStrEmail()
+getStrPhoneNumber()
+getStrCitizenCardNumber()
+validateSNSUser()
+toString()
}

class Utils{
+passwordGenerator()
}

class AuthFacade{
+existsUser(email)
+addUserWithRole(name,email,pwd,roleId)
}

LoadCSVUI ..> LoadCSVController
LoadCSVController ..> Company
LoadCSVUI ..> Utils
LoadCSVUI ..> SNSUserDto
LoadCSVController ..> SNSUserDto
SNSUserDto ..> SNSUser
Company "1" -> "*" SNSUser : knows
Company ..> AuthFacade
@enduml

@startuml

class LoadCSVUI{
+run()
+runLoadCSV()
+getListOfSNSUsers()
+validateFileFormat(path)
+validateCSVData(values)
+fillSNSUserDto(csvData)
}

class LoadCSVController{
+createSNSUser(SNSUserDto)
+saveSNSUser(SNSUserDto)
+getSNSUserList()
}

class Company{
+createSNSUser(SNSUserDto)
+saveSNSUser(SNSUserDto)
+getSNSUserList()
}

class SNSUserDto{
-strName
-strSex
-strBirthDate
-strAddress
-strPhoneNumber
-strEmail
-snsUserNumber
-strCitizenCardNumber
-strPassword
}

class SNSUser{
-strName
-strSex
-strBirthDate
-strAddress
-strPhoneNumber
-strEmail
-snsUserNumber
-strCitizenCardNumber
-strPassword
+getSnsUserNumber()
+getStrEmail()
+getStrPhoneNumber()
+getStrCitizenCardNumber()
+validateSNSUser()
+toString()
}

class Utils{
+passwordGenerator()
}

class AuthFacade{
+existsUser(email)
+addUserWithRole(name,email,pwd,roleId)
}

LoadCSVUI ..> LoadCSVController
LoadCSVController ..> Company
LoadCSVUI ..> Utils
LoadCSVUI ..> SNSUserDto
LoadCSVController ..> SNSUserDto
SNSUserDto ..> SNSUser
Company "1" -> "*" SNSUser : knows
Company ..> AuthFacade
@enduml

PlantUML version 1.2022.1(Tue Feb 01 18:19:58 GMT 2022)
(GPL source distribution)
Java Runtime: OpenJDK Runtime Environment
JVM: OpenJDK 64-Bit Server VM
Default Encoding: Cp1252
Language: en
Country: US
--></g></svg>