<?xml version="1.0" encoding="UTF-8" standalone="no"?><svg xmlns="http://www.w3.org/2000/svg" xmlns:xlink="http://www.w3.org/1999/xlink" contentScriptType="application/ecmascript" contentStyleType="text/css" height="517px" preserveAspectRatio="none" style="width:304px;height:517px;background:#FFFFFF;" version="1.1" viewBox="0 0 304 517" width="304px" zoomAndPan="magnify"><defs><filter height="300%" id="f13tek2l375i1y" width="300%" x="-1" y="-1"><feGaussianBlur result="blurOut" stdDeviation="2.0"/><feColorMatrix in="blurOut" result="blurOut2" type="matrix" values="0 0 0 0 0 0 0 0 0 0 0 0 0 0 0 0 0 0 .4 0"/><feOffset dx="4.0" dy="4.0" in="blurOut2" result="blurOut3"/><feBlend in="SourceGraphic" in2="blurOut3" mode="normal"/></filter></defs><g><!--MD5=[3fd616f346a44cd59a91eb10b19e157c]
class User--><rect codeLine="18" fill="#FEFECE" filter="url(#f13tek2l375i1y)" height="97.0547" id="User" style="stroke:#A80036;stroke-width:1.5;" width="92" x="38.5" y="406"/><ellipse cx="68.35" cy="422" fill="#ADD1B2" rx="11" ry="11" style="stroke:#A80036;stroke-width:1.0;"/><path d="M70.35,418.5 Q70.5531,418 70.7875,417.75 Q71.0219,417.5 71.2875,417.5 Q71.7563,417.5 72.0531,417.7813 Q72.35,418.0625 72.35,418.7188 L72.35,420.2813 Q72.35,420.9375 72.0688,421.2188 Q71.7875,421.5 71.35,421.5 Q70.9594,421.5 70.7094,421.3281 Q70.4594,421.1563 70.35,420.7031 Q70.3031,420.3906 70.1313,420.2188 Q69.8188,419.8906 69.2563,419.7031 Q68.6938,419.5 68.1313,419.5 Q67.4281,419.5 66.8344,419.7813 Q66.2563,420.0625 65.8031,420.6875 Q65.35,421.3125 65.35,422.1719 L65.35,423.0938 Q65.35,424.125 66.1938,424.8125 Q67.0375,425.5 68.5375,425.5 Q69.4281,425.5 70.0531,425.2969 Q70.4125,425.1875 70.8188,424.8281 Q71.0844,424.625 71.225,424.5625 Q71.3656,424.5 71.5375,424.5 Q71.8656,424.5 72.1,424.7656 Q72.35,425.0156 72.35,425.375 Q72.35,425.7188 72.0063,426.125 Q71.5063,426.7188 70.7094,427.0469 Q69.6625,427.5 68.3813,427.5 Q66.8813,427.5 65.6781,426.9063 Q64.7094,426.4375 64.0219,425.4219 Q63.35,424.4063 63.35,423.2031 L63.35,422.1094 Q63.35,420.8594 63.9437,419.7656 Q64.5531,418.6719 65.6,418.0938 Q66.6625,417.5 67.85,417.5 Q68.5688,417.5 69.1938,417.75 Q69.8188,418 70.35,418.5 Z " fill="#000000"/><text fill="#000000" font-family="sans-serif" font-size="12" lengthAdjust="spacing" textLength="27" x="85.65" y="426.9102">User</text><line style="stroke:#A80036;stroke-width:1.5;" x1="39.5" x2="129.5" y1="438" y2="438"/><text fill="#000000" font-family="sans-serif" font-size="13" font-weight="bold" lengthAdjust="spacing" textLength="56" x="44.5" y="455.4951">-strName</text><text fill="#000000" font-family="sans-serif" font-size="13" font-weight="bold" lengthAdjust="spacing" textLength="55" x="44.5" y="471.8467">-strEmail</text><text fill="#000000" font-family="sans-serif" font-size="13" font-weight="bold" lengthAdjust="spacing" textLength="80" x="44.5" y="488.1982">-strPassword</text><line style="stroke:#A80036;stroke-width:1.5;" x1="39.5" x2="129.5" y1="495.0547" y2="495.0547"/><path d="M165.5,441.5 L165.5,450.5 L130.7,454.5 L165.5,458.5 L165.5,467.8516 A0,0 0 0 0 165.5,467.8516 L295.5,467.8516 A0,0 0 0 0 295.5,467.8516 L295.5,451.5 L285.5,441.5 L165.5,441.5 A0,0 0 0 0 165.5,441.5 " fill="#FBFB77" filter="url(#f13tek2l375i1y)" style="stroke:#A80036;stroke-width:1.0;"/><path d="M285.5,441.5 L285.5,451.5 L295.5,451.5 L285.5,441.5 " fill="#FBFB77" style="stroke:#A80036;stroke-width:1.0;"/><text fill="#000000" font-family="sans-serif" font-size="13" lengthAdjust="spacing" textLength="109" x="171.5" y="459.9951">"Auth component."</text><!--MD5=[72be06cc7ae02ccc98efe28a50e62246]
class SNSUser--><rect codeLine="6" fill="#FEFECE" filter="url(#f13tek2l375i1y)" height="195.1641" id="SNSUser" style="stroke:#A80036;stroke-width:1.5;" width="155" x="7" y="133"/><ellipse cx="54.25" cy="149" fill="#ADD1B2" rx="11" ry="11" style="stroke:#A80036;stroke-width:1.0;"/><path d="M56.25,145.5 Q56.4531,145 56.6875,144.75 Q56.9219,144.5 57.1875,144.5 Q57.6563,144.5 57.9531,144.7813 Q58.25,145.0625 58.25,145.7188 L58.25,147.2813 Q58.25,147.9375 57.9688,148.2188 Q57.6875,148.5 57.25,148.5 Q56.8594,148.5 56.6094,148.3281 Q56.3594,148.1563 56.25,147.7031 Q56.2031,147.3906 56.0313,147.2188 Q55.7188,146.8906 55.1563,146.7031 Q54.5938,146.5 54.0313,146.5 Q53.3281,146.5 52.7344,146.7813 Q52.1563,147.0625 51.7031,147.6875 Q51.25,148.3125 51.25,149.1719 L51.25,150.0938 Q51.25,151.125 52.0938,151.8125 Q52.9375,152.5 54.4375,152.5 Q55.3281,152.5 55.9531,152.2969 Q56.3125,152.1875 56.7188,151.8281 Q56.9844,151.625 57.125,151.5625 Q57.2656,151.5 57.4375,151.5 Q57.7656,151.5 58,151.7656 Q58.25,152.0156 58.25,152.375 Q58.25,152.7188 57.9063,153.125 Q57.4063,153.7188 56.6094,154.0469 Q55.5625,154.5 54.2813,154.5 Q52.7813,154.5 51.5781,153.9063 Q50.6094,153.4375 49.9219,152.4219 Q49.25,151.4063 49.25,150.2031 L49.25,149.1094 Q49.25,147.8594 49.8438,146.7656 Q50.4531,145.6719 51.5,145.0938 Q52.5625,144.5 53.75,144.5 Q54.4688,144.5 55.0938,144.75 Q55.7188,145 56.25,145.5 Z " fill="#000000"/><text fill="#000000" font-family="sans-serif" font-size="12" lengthAdjust="spacing" textLength="52" x="74.75" y="153.9102">SNSUser</text><line style="stroke:#A80036;stroke-width:1.5;" x1="8" x2="161" y1="165" y2="165"/><text fill="#000000" font-family="sans-serif" font-size="13" font-weight="bold" lengthAdjust="spacing" textLength="56" x="13" y="182.4951">-strName</text><text fill="#000000" font-family="sans-serif" font-size="13" font-weight="bold" lengthAdjust="spacing" textLength="44" x="13" y="198.8467">-strSex</text><text fill="#000000" font-family="sans-serif" font-size="13" font-weight="bold" lengthAdjust="spacing" textLength="78" x="13" y="215.1982">-strBirthDate</text><text fill="#000000" font-family="sans-serif" font-size="13" font-weight="bold" lengthAdjust="spacing" textLength="69" x="13" y="231.5498">-strAddress</text><text fill="#000000" font-family="sans-serif" font-size="13" font-weight="bold" lengthAdjust="spacing" textLength="110" x="13" y="247.9014">-strPhoneNumber</text><text fill="#000000" font-family="sans-serif" font-size="13" font-weight="bold" lengthAdjust="spacing" textLength="55" x="13" y="264.2529">-strEmail</text><text fill="#000000" font-family="sans-serif" font-size="13" font-weight="bold" lengthAdjust="spacing" textLength="102" x="13" y="280.6045">-snsUserNumber</text><text fill="#000000" font-family="sans-serif" font-size="13" font-weight="bold" lengthAdjust="spacing" textLength="143" x="13" y="296.9561">-strCitizenCardNumber</text><text fill="#000000" font-family="sans-serif" font-size="13" font-weight="bold" lengthAdjust="spacing" textLength="80" x="13" y="313.3076">-strPassword</text><line style="stroke:#A80036;stroke-width:1.5;" x1="8" x2="161" y1="320.1641" y2="320.1641"/><!--MD5=[02e4b9b7573f1156f41e60aa5b4e25a4]
class Company--><rect fill="#FEFECE" filter="url(#f13tek2l375i1y)" height="48" id="Company" style="stroke:#A80036;stroke-width:1.5;" width="85" x="42" y="7"/><ellipse cx="57" cy="23" fill="#ADD1B2" rx="11" ry="11" style="stroke:#A80036;stroke-width:1.0;"/><path d="M59,19.5 Q59.2031,19 59.4375,18.75 Q59.6719,18.5 59.9375,18.5 Q60.4063,18.5 60.7031,18.7813 Q61,19.0625 61,19.7188 L61,21.2813 Q61,21.9375 60.7188,22.2188 Q60.4375,22.5 60,22.5 Q59.6094,22.5 59.3594,22.3281 Q59.1094,22.1563 59,21.7031 Q58.9531,21.3906 58.7813,21.2188 Q58.4688,20.8906 57.9063,20.7031 Q57.3438,20.5 56.7813,20.5 Q56.0781,20.5 55.4844,20.7813 Q54.9063,21.0625 54.4531,21.6875 Q54,22.3125 54,23.1719 L54,24.0938 Q54,25.125 54.8438,25.8125 Q55.6875,26.5 57.1875,26.5 Q58.0781,26.5 58.7031,26.2969 Q59.0625,26.1875 59.4688,25.8281 Q59.7344,25.625 59.875,25.5625 Q60.0156,25.5 60.1875,25.5 Q60.5156,25.5 60.75,25.7656 Q61,26.0156 61,26.375 Q61,26.7188 60.6563,27.125 Q60.1563,27.7188 59.3594,28.0469 Q58.3125,28.5 57.0313,28.5 Q55.5313,28.5 54.3281,27.9063 Q53.3594,27.4375 52.6719,26.4219 Q52,25.4063 52,24.2031 L52,23.1094 Q52,21.8594 52.5938,20.7656 Q53.2031,19.6719 54.25,19.0938 Q55.3125,18.5 56.5,18.5 Q57.2188,18.5 57.8438,18.75 Q58.4688,19 59,19.5 Z " fill="#000000"/><text fill="#000000" font-family="sans-serif" font-size="12" lengthAdjust="spacing" textLength="53" x="71" y="27.9102">Company</text><line style="stroke:#A80036;stroke-width:1.5;" x1="43" x2="126" y1="39" y2="39"/><line style="stroke:#A80036;stroke-width:1.5;" x1="43" x2="126" y1="47" y2="47"/><!--MD5=[1a8aa2b864b87f860d28abceaa28b7a5]
link Company to SNSUser--><path codeLine="24" d="M84.5,55.04 C84.5,74.48 84.5,103.69 84.5,132.68 " fill="none" id="Company-SNSUser" style="stroke:#A80036;stroke-width:1.0;"/><polygon fill="#000000" points="89.5,99.1758,92.4389,90.1307,86.5611,90.1307,89.5,99.1758" style="stroke:#000000;stroke-width:1.0;"/><text fill="#000000" font-family="sans-serif" font-size="13" lengthAdjust="spacing" textLength="37" x="98.5" y="99.4951">knows</text><text fill="#000000" font-family="sans-serif" font-size="13" lengthAdjust="spacing" textLength="7" x="76.6469" y="76.3877">1</text><text fill="#000000" font-family="sans-serif" font-size="13" lengthAdjust="spacing" textLength="5" x="79.3086" y="122.0805">*</text><!--MD5=[f51b69263ffc056cc84c9ec54d5aea1b]
link SNSUser to User--><path codeLine="25" d="M84.5,328.23 C84.5,355.1 84.5,383.11 84.5,405.81 " fill="none" id="SNSUser-User" style="stroke:#A80036;stroke-width:1.0;"/><polygon fill="#000000" points="89.5,372.1758,92.4389,363.1307,86.5611,363.1307,89.5,372.1758" style="stroke:#000000;stroke-width:1.0;"/><text fill="#000000" font-family="sans-serif" font-size="13" lengthAdjust="spacing" textLength="53" x="98.5" y="372.4951">becomes</text><text fill="#000000" font-family="sans-serif" font-size="13" lengthAdjust="spacing" textLength="7" x="77.243" y="349.4965">1</text><text fill="#000000" font-family="sans-serif" font-size="13" lengthAdjust="spacing" textLength="7" x="76.9859" y="395.0006">1</text><!--MD5=[f8d833e21156fa4304dc325099772394]
@startuml
'https://plantuml.com/class-diagram
'!pragma layout smetana

note right of User : "Auth component."

class SNSUser{
==-strName
==-strSex
==-strBirthDate
==-strAddress
==-strPhoneNumber
==-strEmail
==-snsUserNumber
==-strCitizenCardNumber
==-strPassword
}

class User{
==-strName
==-strEmail
==-strPassword
}

Company "1" -down- "*" SNSUser: knows >
SNSUser "1" -down- "1" User: becomes >

@enduml

@startuml

note right of User : "Auth component."

class SNSUser{
==-strName
==-strSex
==-strBirthDate
==-strAddress
==-strPhoneNumber
==-strEmail
==-snsUserNumber
==-strCitizenCardNumber
==-strPassword
}

class User{
==-strName
==-strEmail
==-strPassword
}

Company "1" -down- "*" SNSUser: knows >
SNSUser "1" -down- "1" User: becomes >

@enduml

PlantUML version 1.2022.1(Tue Feb 01 18:19:58 GMT 2022)
(GPL source distribution)
Java Runtime: OpenJDK Runtime Environment
JVM: OpenJDK 64-Bit Server VM
Default Encoding: Cp1252
Language: en
Country: US
--></g></svg>