<?xml version="1.0" encoding="UTF-8" standalone="no"?><svg xmlns="http://www.w3.org/2000/svg" xmlns:xlink="http://www.w3.org/1999/xlink" contentStyleType="text/css" height="1546px" preserveAspectRatio="none" style="width:2420px;height:1546px;background:#FFFFFF;" version="1.1" viewBox="0 0 2420 1546" width="2420px" zoomAndPan="magnify"><defs/><g><rect fill="#FFFFFF" height="1353.3984" style="stroke:#181818;stroke-width:1.0;" width="10" x="46.5" y="92.6094"/><rect fill="#FFFFFF" height="181.4063" style="stroke:#181818;stroke-width:1.0;" width="10" x="448.5" y="114.9609"/><rect fill="#FFFFFF" height="272.4609" style="stroke:#181818;stroke-width:1.0;" width="10" x="448.5" y="326.7188"/><rect fill="#FFFFFF" height="288.8125" style="stroke:#181818;stroke-width:1.0;" width="10" x="448.5" y="629.5313"/><rect fill="#FFFFFF" height="238.7578" style="stroke:#181818;stroke-width:1.0;" width="10" x="448.5" y="948.6953"/><rect fill="#FFFFFF" height="228.2031" style="stroke:#181818;stroke-width:1.0;" width="10" x="448.5" y="1217.8047"/><rect fill="#FFFFFF" height="60.3516" style="stroke:#181818;stroke-width:1.0;" width="10" x="821.5" y="145.3125"/><rect fill="#FFFFFF" height="121.0547" style="stroke:#181818;stroke-width:1.0;" width="10" x="821.5" y="357.0703"/><rect fill="#FFFFFF" height="60.3516" style="stroke:#181818;stroke-width:1.0;" width="10" x="821.5" y="508.4766"/><rect fill="#FFFFFF" height="505.2188" style="stroke:#181818;stroke-width:1.0;" width="10" x="821.5" y="659.8828"/><rect fill="#FFFFFF" height="197.8516" style="stroke:#181818;stroke-width:1.0;" width="10" x="821.5" y="1248.1563"/><rect fill="#FFFFFF" height="90.3516" style="stroke:#181818;stroke-width:1.0;" width="10" x="1243.5" y="175.6641"/><rect fill="#FFFFFF" height="30.3516" style="stroke:#181818;stroke-width:1.0;" width="10" x="1243.5" y="387.4219"/><rect fill="#FFFFFF" height="30" style="stroke:#181818;stroke-width:1.0;" width="10" x="1243.5" y="832.6406"/><rect fill="#FFFFFF" height="30" style="stroke:#181818;stroke-width:1.0;" width="10" x="1243.5" y="1009.3984"/><rect fill="#FFFFFF" height="30" style="stroke:#181818;stroke-width:1.0;" width="10" x="1601.5" y="236.0156"/><rect fill="#FFFFFF" height="60.3516" style="stroke:#181818;stroke-width:1.0;" width="10" x="1601.5" y="417.7734"/><rect fill="#FFFFFF" height="30" style="stroke:#181818;stroke-width:1.0;" width="10" x="1966.5" y="448.125"/><rect fill="#FFFFFF" height="30" style="stroke:#181818;stroke-width:1.0;" width="10" x="1966.5" y="538.8281"/><rect fill="#FFFFFF" height="30" style="stroke:#181818;stroke-width:1.0;" width="10" x="2079" y="1069.75"/><rect fill="#FFFFFF" height="60.3516" style="stroke:#181818;stroke-width:1.0;" width="10" x="2079" y="1324.9531"/><rect fill="#FFFFFF" height="30" style="stroke:#181818;stroke-width:1.0;" width="10" x="2335" y="1355.3047"/><rect height="396.5156" style="stroke:#000000;stroke-width:1.5;fill:none;" width="2129.5" x="10" y="761.5859"/><rect height="273.4609" style="stroke:#000000;stroke-width:1.5;fill:none;" width="2109.5" x="20" y="877.6406"/><line style="stroke:#181818;stroke-width:0.5;fill:none;stroke-dasharray:5.0,5.0;" x1="51" x2="51" y1="82.6094" y2="1464.0078"/><line style="stroke:#181818;stroke-width:0.5;fill:none;stroke-dasharray:5.0,5.0;" x1="453" x2="453" y1="82.6094" y2="1464.0078"/><line style="stroke:#181818;stroke-width:0.5;fill:none;stroke-dasharray:5.0,5.0;" x1="826" x2="826" y1="82.6094" y2="1464.0078"/><line style="stroke:#181818;stroke-width:0.5;fill:none;stroke-dasharray:5.0,5.0;" x1="1248.5" x2="1248.5" y1="82.6094" y2="1464.0078"/><line style="stroke:#181818;stroke-width:0.5;fill:none;stroke-dasharray:5.0,5.0;" x1="1606.5" x2="1606.5" y1="82.6094" y2="1464.0078"/><line style="stroke:#181818;stroke-width:0.5;fill:none;stroke-dasharray:5.0,5.0;" x1="1971.5" x2="1971.5" y1="82.6094" y2="1464.0078"/><line style="stroke:#181818;stroke-width:0.5;fill:none;stroke-dasharray:5.0,5.0;" x1="2083.5" x2="2083.5" y1="82.6094" y2="1464.0078"/><line style="stroke:#181818;stroke-width:0.5;fill:none;stroke-dasharray:5.0,5.0;" x1="2340" x2="2340" y1="82.6094" y2="1464.0078"/><text fill="#000000" font-family="sans-serif" font-size="14" lengthAdjust="spacing" textLength="37" x="30" y="79.5332">Nurse</text><ellipse cx="51.5" cy="13.5" fill="#E2E2F0" rx="8" ry="8" style="stroke:#181818;stroke-width:0.5;"/><path d="M51.5,21.5 L51.5,48.5 M38.5,29.5 L64.5,29.5 M51.5,48.5 L38.5,63.5 M51.5,48.5 L64.5,63.5 " fill="none" style="stroke:#181818;stroke-width:0.5;"/><text fill="#000000" font-family="sans-serif" font-size="14" lengthAdjust="spacing" textLength="37" x="30" y="1477.541">Nurse</text><ellipse cx="51.5" cy="1489.1172" fill="#E2E2F0" rx="8" ry="8" style="stroke:#181818;stroke-width:0.5;"/><path d="M51.5,1497.1172 L51.5,1524.1172 M38.5,1505.1172 L64.5,1505.1172 M51.5,1524.1172 L38.5,1539.1172 M51.5,1524.1172 L64.5,1539.1172 " fill="none" style="stroke:#181818;stroke-width:0.5;"/><rect fill="#E2E2F0" height="31.6094" rx="2.5" ry="2.5" style="stroke:#181818;stroke-width:0.5;" width="215" x="346" y="50"/><text fill="#000000" font-family="sans-serif" font-size="14" lengthAdjust="spacing" textLength="201" x="353" y="71.5332">:RecordVaccineAdministrationUI</text><rect fill="#E2E2F0" height="31.6094" rx="2.5" ry="2.5" style="stroke:#181818;stroke-width:0.5;" width="215" x="346" y="1463.0078"/><text fill="#000000" font-family="sans-serif" font-size="14" lengthAdjust="spacing" textLength="201" x="353" y="1484.541">:RecordVaccineAdministrationUI</text><rect fill="#E2E2F0" height="31.6094" rx="2.5" ry="2.5" style="stroke:#181818;stroke-width:0.5;" width="265" x="694" y="50"/><text fill="#000000" font-family="sans-serif" font-size="14" lengthAdjust="spacing" textLength="251" x="701" y="71.5332">:RecordVaccineAdministrationController</text><rect fill="#E2E2F0" height="31.6094" rx="2.5" ry="2.5" style="stroke:#181818;stroke-width:0.5;" width="265" x="694" y="1463.0078"/><text fill="#000000" font-family="sans-serif" font-size="14" lengthAdjust="spacing" textLength="251" x="701" y="1484.541">:RecordVaccineAdministrationController</text><rect fill="#E2E2F0" height="49.2188" rx="2.5" ry="2.5" style="stroke:#181818;stroke-width:0.5;" width="78" x="1209.5" y="32.3906"/><text fill="#000000" font-family="sans-serif" font-size="14" lengthAdjust="spacing" textLength="57" x="1220" y="53.9238">company</text><text fill="#000000" font-family="sans-serif" font-size="14" lengthAdjust="spacing" textLength="64" x="1216.5" y="71.5332">:Company</text><rect fill="#E2E2F0" height="49.2188" rx="2.5" ry="2.5" style="stroke:#181818;stroke-width:0.5;" width="78" x="1209.5" y="1463.0078"/><text fill="#000000" font-family="sans-serif" font-size="14" lengthAdjust="spacing" textLength="57" x="1220" y="1484.541">company</text><text fill="#000000" font-family="sans-serif" font-size="14" lengthAdjust="spacing" textLength="64" x="1216.5" y="1502.1504">:Company</text><rect fill="#E2E2F0" height="49.2188" rx="2.5" ry="2.5" style="stroke:#181818;stroke-width:0.5;" width="168" x="1522.5" y="32.3906"/><text fill="#000000" font-family="sans-serif" font-size="14" lengthAdjust="spacing" textLength="148" x="1532.5" y="53.9238">vaccinationCenterStore</text><text fill="#000000" font-family="sans-serif" font-size="14" lengthAdjust="spacing" textLength="154" x="1529.5" y="71.5332">:VaccinationCenterStore</text><rect fill="#E2E2F0" height="49.2188" rx="2.5" ry="2.5" style="stroke:#181818;stroke-width:0.5;" width="168" x="1522.5" y="1463.0078"/><text fill="#000000" font-family="sans-serif" font-size="14" lengthAdjust="spacing" textLength="148" x="1532.5" y="1484.541">vaccinationCenterStore</text><text fill="#000000" font-family="sans-serif" font-size="14" lengthAdjust="spacing" textLength="154" x="1529.5" y="1502.1504">:VaccinationCenterStore</text><rect fill="#E2E2F0" height="49.2188" rx="2.5" ry="2.5" style="stroke:#181818;stroke-width:0.5;" width="134" x="1904.5" y="32.3906"/><text fill="#000000" font-family="sans-serif" font-size="14" lengthAdjust="spacing" textLength="114" x="1914.5" y="53.9238">vaccinationCenter</text><text fill="#000000" font-family="sans-serif" font-size="14" lengthAdjust="spacing" textLength="120" x="1911.5" y="71.5332">:VaccinationCenter</text><rect fill="#E2E2F0" height="49.2188" rx="2.5" ry="2.5" style="stroke:#181818;stroke-width:0.5;" width="134" x="1904.5" y="1463.0078"/><text fill="#000000" font-family="sans-serif" font-size="14" lengthAdjust="spacing" textLength="114" x="1914.5" y="1484.541">vaccinationCenter</text><text fill="#000000" font-family="sans-serif" font-size="14" lengthAdjust="spacing" textLength="120" x="1911.5" y="1502.1504">:VaccinationCenter</text><rect fill="#E2E2F0" height="49.2188" rx="2.5" ry="2.5" style="stroke:#181818;stroke-width:0.5;" width="71" x="2048.5" y="32.3906"/><text fill="#000000" font-family="sans-serif" font-size="14" lengthAdjust="spacing" textLength="51" x="2058.5" y="53.9238">snsUser</text><text fill="#000000" font-family="sans-serif" font-size="14" lengthAdjust="spacing" textLength="57" x="2055.5" y="71.5332">:SnsUser</text><rect fill="#E2E2F0" height="49.2188" rx="2.5" ry="2.5" style="stroke:#181818;stroke-width:0.5;" width="71" x="2048.5" y="1463.0078"/><text fill="#000000" font-family="sans-serif" font-size="14" lengthAdjust="spacing" textLength="51" x="2058.5" y="1484.541">snsUser</text><text fill="#000000" font-family="sans-serif" font-size="14" lengthAdjust="spacing" textLength="57" x="2055.5" y="1502.1504">:SnsUser</text><rect fill="#E2E2F0" height="49.2188" rx="2.5" ry="2.5" style="stroke:#181818;stroke-width:0.5;" width="148" x="2266" y="32.3906"/><text fill="#000000" font-family="sans-serif" font-size="14" lengthAdjust="spacing" textLength="116" x="2282" y="53.9238">vaccineBulletinList</text><text fill="#000000" font-family="sans-serif" font-size="14" lengthAdjust="spacing" textLength="134" x="2273" y="71.5332">List&lt;VaccineBulletin&gt;</text><rect fill="#E2E2F0" height="49.2188" rx="2.5" ry="2.5" style="stroke:#181818;stroke-width:0.5;" width="148" x="2266" y="1463.0078"/><text fill="#000000" font-family="sans-serif" font-size="14" lengthAdjust="spacing" textLength="116" x="2282" y="1484.541">vaccineBulletinList</text><text fill="#000000" font-family="sans-serif" font-size="14" lengthAdjust="spacing" textLength="134" x="2273" y="1502.1504">List&lt;VaccineBulletin&gt;</text><rect fill="#FFFFFF" height="1353.3984" style="stroke:#181818;stroke-width:1.0;" width="10" x="46.5" y="92.6094"/><rect fill="#FFFFFF" height="181.4063" style="stroke:#181818;stroke-width:1.0;" width="10" x="448.5" y="114.9609"/><rect fill="#FFFFFF" height="272.4609" style="stroke:#181818;stroke-width:1.0;" width="10" x="448.5" y="326.7188"/><rect fill="#FFFFFF" height="288.8125" style="stroke:#181818;stroke-width:1.0;" width="10" x="448.5" y="629.5313"/><rect fill="#FFFFFF" height="238.7578" style="stroke:#181818;stroke-width:1.0;" width="10" x="448.5" y="948.6953"/><rect fill="#FFFFFF" height="228.2031" style="stroke:#181818;stroke-width:1.0;" width="10" x="448.5" y="1217.8047"/><rect fill="#FFFFFF" height="60.3516" style="stroke:#181818;stroke-width:1.0;" width="10" x="821.5" y="145.3125"/><rect fill="#FFFFFF" height="121.0547" style="stroke:#181818;stroke-width:1.0;" width="10" x="821.5" y="357.0703"/><rect fill="#FFFFFF" height="60.3516" style="stroke:#181818;stroke-width:1.0;" width="10" x="821.5" y="508.4766"/><rect fill="#FFFFFF" height="505.2188" style="stroke:#181818;stroke-width:1.0;" width="10" x="821.5" y="659.8828"/><rect fill="#FFFFFF" height="197.8516" style="stroke:#181818;stroke-width:1.0;" width="10" x="821.5" y="1248.1563"/><rect fill="#FFFFFF" height="90.3516" style="stroke:#181818;stroke-width:1.0;" width="10" x="1243.5" y="175.6641"/><rect fill="#FFFFFF" height="30.3516" style="stroke:#181818;stroke-width:1.0;" width="10" x="1243.5" y="387.4219"/><rect fill="#FFFFFF" height="30" style="stroke:#181818;stroke-width:1.0;" width="10" x="1243.5" y="832.6406"/><rect fill="#FFFFFF" height="30" style="stroke:#181818;stroke-width:1.0;" width="10" x="1243.5" y="1009.3984"/><rect fill="#FFFFFF" height="30" style="stroke:#181818;stroke-width:1.0;" width="10" x="1601.5" y="236.0156"/><rect fill="#FFFFFF" height="60.3516" style="stroke:#181818;stroke-width:1.0;" width="10" x="1601.5" y="417.7734"/><rect fill="#FFFFFF" height="30" style="stroke:#181818;stroke-width:1.0;" width="10" x="1966.5" y="448.125"/><rect fill="#FFFFFF" height="30" style="stroke:#181818;stroke-width:1.0;" width="10" x="1966.5" y="538.8281"/><rect fill="#FFFFFF" height="30" style="stroke:#181818;stroke-width:1.0;" width="10" x="2079" y="1069.75"/><rect fill="#FFFFFF" height="60.3516" style="stroke:#181818;stroke-width:1.0;" width="10" x="2079" y="1324.9531"/><rect fill="#FFFFFF" height="30" style="stroke:#181818;stroke-width:1.0;" width="10" x="2335" y="1355.3047"/><polygon fill="#181818" points="436.5,110.9609,446.5,114.9609,436.5,118.9609,440.5,114.9609" style="stroke:#181818;stroke-width:1.0;"/><line style="stroke:#181818;stroke-width:1.0;" x1="56.5" x2="442.5" y1="114.9609" y2="114.9609"/><text fill="#000000" font-family="sans-serif" font-size="13" font-weight="bold" lengthAdjust="spacing" textLength="7" x="63.5" y="110.1045">1</text><text fill="#000000" font-family="sans-serif" font-size="13" lengthAdjust="spacing" textLength="355" x="74.5" y="110.1045">asks to record the administration of a vaccine to an SNS user</text><polygon fill="#181818" points="809.5,141.3125,819.5,145.3125,809.5,149.3125,813.5,145.3125" style="stroke:#181818;stroke-width:1.0;"/><line style="stroke:#181818;stroke-width:1.0;" x1="458.5" x2="815.5" y1="145.3125" y2="145.3125"/><text fill="#000000" font-family="sans-serif" font-size="13" font-weight="bold" lengthAdjust="spacing" textLength="7" x="465.5" y="140.4561">2</text><text fill="#000000" font-family="sans-serif" font-size="13" lengthAdjust="spacing" textLength="333" x="476.5" y="140.4561">vaccinationCenterList = getVaccinationCentersNameList()</text><polygon fill="#181818" points="1231.5,171.6641,1241.5,175.6641,1231.5,179.6641,1235.5,175.6641" style="stroke:#181818;stroke-width:1.0;"/><line style="stroke:#181818;stroke-width:1.0;" x1="831.5" x2="1237.5" y1="175.6641" y2="175.6641"/><text fill="#000000" font-family="sans-serif" font-size="13" font-weight="bold" lengthAdjust="spacing" textLength="7" x="838.5" y="170.8076">3</text><text fill="#000000" font-family="sans-serif" font-size="13" lengthAdjust="spacing" textLength="278" x="849.5" y="170.8076">vaccinationCenterList = getVaccinationCenters()</text><polygon fill="#181818" points="1589.5,232.0156,1599.5,236.0156,1589.5,240.0156,1593.5,236.0156" style="stroke:#181818;stroke-width:1.0;"/><line style="stroke:#181818;stroke-width:1.0;" x1="1253.5" x2="1595.5" y1="236.0156" y2="236.0156"/><text fill="#000000" font-family="sans-serif" font-size="13" font-weight="bold" lengthAdjust="spacing" textLength="7" x="1260.5" y="231.1592">4</text><text fill="#000000" font-family="sans-serif" font-size="13" lengthAdjust="spacing" textLength="278" x="1271.5" y="231.1592">vaccinationCenterList = getVaccinationCenters()</text><polygon fill="#181818" points="67.5,292.3672,57.5,296.3672,67.5,300.3672,63.5,296.3672" style="stroke:#181818;stroke-width:1.0;"/><line style="stroke:#181818;stroke-width:1.0;stroke-dasharray:2.0,2.0;" x1="61.5" x2="452.5" y1="296.3672" y2="296.3672"/><text fill="#000000" font-family="sans-serif" font-size="13" font-weight="bold" lengthAdjust="spacing" textLength="7" x="73.5" y="291.5107">5</text><text fill="#000000" font-family="sans-serif" font-size="13" lengthAdjust="spacing" textLength="286" x="84.5" y="291.5107">shows a list with the available vaccination centers</text><polygon fill="#181818" points="436.5,322.7188,446.5,326.7188,436.5,330.7188,440.5,326.7188" style="stroke:#181818;stroke-width:1.0;"/><line style="stroke:#181818;stroke-width:1.0;" x1="56.5" x2="442.5" y1="326.7188" y2="326.7188"/><text fill="#000000" font-family="sans-serif" font-size="13" font-weight="bold" lengthAdjust="spacing" textLength="7" x="63.5" y="321.8623">6</text><text fill="#000000" font-family="sans-serif" font-size="13" lengthAdjust="spacing" textLength="175" x="74.5" y="321.8623">selects one vaccination center</text><polygon fill="#181818" points="809.5,353.0703,819.5,357.0703,809.5,361.0703,813.5,357.0703" style="stroke:#181818;stroke-width:1.0;"/><line style="stroke:#181818;stroke-width:1.0;" x1="458.5" x2="815.5" y1="357.0703" y2="357.0703"/><text fill="#000000" font-family="sans-serif" font-size="13" font-weight="bold" lengthAdjust="spacing" textLength="7" x="465.5" y="352.2139">7</text><text fill="#000000" font-family="sans-serif" font-size="13" lengthAdjust="spacing" textLength="265" x="476.5" y="352.2139">setVaccinationCenter(vaccinationCenterIndex)</text><polygon fill="#181818" points="1231.5,383.4219,1241.5,387.4219,1231.5,391.4219,1235.5,387.4219" style="stroke:#181818;stroke-width:1.0;"/><line style="stroke:#181818;stroke-width:1.0;" x1="831.5" x2="1237.5" y1="387.4219" y2="387.4219"/><text fill="#000000" font-family="sans-serif" font-size="13" font-weight="bold" lengthAdjust="spacing" textLength="7" x="838.5" y="382.5654">8</text><text fill="#000000" font-family="sans-serif" font-size="13" lengthAdjust="spacing" textLength="318" x="849.5" y="382.5654">vaccinationCenter = getVaccinationCenters().get(index)</text><polygon fill="#181818" points="1589.5,413.7734,1599.5,417.7734,1589.5,421.7734,1593.5,417.7734" style="stroke:#181818;stroke-width:1.0;"/><line style="stroke:#181818;stroke-width:1.0;" x1="1248.5" x2="1595.5" y1="417.7734" y2="417.7734"/><text fill="#000000" font-family="sans-serif" font-size="13" font-weight="bold" lengthAdjust="spacing" textLength="7" x="1255.5" y="412.917">9</text><text fill="#000000" font-family="sans-serif" font-size="13" lengthAdjust="spacing" textLength="318" x="1266.5" y="412.917">vaccinationCenter = getVaccinationCenters().get(index)</text><polygon fill="#181818" points="1954.5,444.125,1964.5,448.125,1954.5,452.125,1958.5,448.125" style="stroke:#181818;stroke-width:1.0;"/><line style="stroke:#181818;stroke-width:1.0;" x1="1611.5" x2="1960.5" y1="448.125" y2="448.125"/><text fill="#000000" font-family="sans-serif" font-size="13" font-weight="bold" lengthAdjust="spacing" textLength="14" x="1618.5" y="443.2686">10</text><text fill="#000000" font-family="sans-serif" font-size="13" lengthAdjust="spacing" textLength="318" x="1636.5" y="443.2686">vaccinationCenter = getVaccinationCenters().get(index)</text><polygon fill="#181818" points="809.5,504.4766,819.5,508.4766,809.5,512.4766,813.5,508.4766" style="stroke:#181818;stroke-width:1.0;"/><line style="stroke:#181818;stroke-width:1.0;" x1="458.5" x2="815.5" y1="508.4766" y2="508.4766"/><text fill="#000000" font-family="sans-serif" font-size="13" font-weight="bold" lengthAdjust="spacing" textLength="14" x="465.5" y="503.6201">11</text><text fill="#000000" font-family="sans-serif" font-size="13" lengthAdjust="spacing" textLength="292" x="483.5" y="503.6201">setArrivalsList = vaccinationCenter.getArrivalsList()</text><polygon fill="#181818" points="1954.5,534.8281,1964.5,538.8281,1954.5,542.8281,1958.5,538.8281" style="stroke:#181818;stroke-width:1.0;"/><line style="stroke:#181818;stroke-width:1.0;" x1="831.5" x2="1960.5" y1="538.8281" y2="538.8281"/><text fill="#000000" font-family="sans-serif" font-size="13" font-weight="bold" lengthAdjust="spacing" textLength="14" x="838.5" y="533.9717">12</text><text fill="#000000" font-family="sans-serif" font-size="13" lengthAdjust="spacing" textLength="166" x="856.5" y="533.9717">arrivalsList = getArrivalsList()</text><polygon fill="#181818" points="67.5,595.1797,57.5,599.1797,67.5,603.1797,63.5,599.1797" style="stroke:#181818;stroke-width:1.0;"/><line style="stroke:#181818;stroke-width:1.0;stroke-dasharray:2.0,2.0;" x1="61.5" x2="452.5" y1="599.1797" y2="599.1797"/><text fill="#000000" font-family="sans-serif" font-size="13" font-weight="bold" lengthAdjust="spacing" textLength="14" x="73.5" y="594.3232">13</text><text fill="#000000" font-family="sans-serif" font-size="13" lengthAdjust="spacing" textLength="286" x="91.5" y="594.3232">shows a list with the users available in arrivals list</text><polygon fill="#181818" points="436.5,625.5313,446.5,629.5313,436.5,633.5313,440.5,629.5313" style="stroke:#181818;stroke-width:1.0;"/><line style="stroke:#181818;stroke-width:1.0;" x1="56.5" x2="442.5" y1="629.5313" y2="629.5313"/><text fill="#000000" font-family="sans-serif" font-size="13" font-weight="bold" lengthAdjust="spacing" textLength="14" x="63.5" y="624.6748">14</text><text fill="#000000" font-family="sans-serif" font-size="13" lengthAdjust="spacing" textLength="96" x="81.5" y="624.6748">selects one user</text><polygon fill="#181818" points="809.5,655.8828,819.5,659.8828,809.5,663.8828,813.5,659.8828" style="stroke:#181818;stroke-width:1.0;"/><line style="stroke:#181818;stroke-width:1.0;" x1="458.5" x2="815.5" y1="659.8828" y2="659.8828"/><text fill="#000000" font-family="sans-serif" font-size="13" font-weight="bold" lengthAdjust="spacing" textLength="14" x="465.5" y="655.0264">15</text><text fill="#000000" font-family="sans-serif" font-size="13" lengthAdjust="spacing" textLength="220" x="483.5" y="655.0264">setVaccineType(arrivalsListUserIndex)</text><line style="stroke:#181818;stroke-width:1.0;" x1="831.5" x2="873.5" y1="690.2344" y2="690.2344"/><line style="stroke:#181818;stroke-width:1.0;" x1="873.5" x2="873.5" y1="690.2344" y2="703.2344"/><line style="stroke:#181818;stroke-width:1.0;" x1="832.5" x2="873.5" y1="703.2344" y2="703.2344"/><polygon fill="#181818" points="842.5,699.2344,832.5,703.2344,842.5,707.2344,838.5,703.2344" style="stroke:#181818;stroke-width:1.0;"/><text fill="#000000" font-family="sans-serif" font-size="13" font-weight="bold" lengthAdjust="spacing" textLength="14" x="838.5" y="685.3779">16</text><text fill="#000000" font-family="sans-serif" font-size="13" lengthAdjust="spacing" textLength="380" x="856.5" y="685.3779">vaccineType = arrivalsList(arrivalsListUserIndex).getVaccineType()</text><line style="stroke:#181818;stroke-width:1.0;" x1="831.5" x2="873.5" y1="733.5859" y2="733.5859"/><line style="stroke:#181818;stroke-width:1.0;" x1="873.5" x2="873.5" y1="733.5859" y2="746.5859"/><line style="stroke:#181818;stroke-width:1.0;" x1="832.5" x2="873.5" y1="746.5859" y2="746.5859"/><polygon fill="#181818" points="842.5,742.5859,832.5,746.5859,842.5,750.5859,838.5,746.5859" style="stroke:#181818;stroke-width:1.0;"/><text fill="#000000" font-family="sans-serif" font-size="13" font-weight="bold" lengthAdjust="spacing" textLength="14" x="838.5" y="728.7295">17</text><text fill="#000000" font-family="sans-serif" font-size="13" lengthAdjust="spacing" textLength="260" x="856.5" y="728.7295">doseNumber = findLastDoseOfVaccineType()</text><path d="M10,761.5859 L71,761.5859 L71,769.9375 L61,779.9375 L10,779.9375 L10,761.5859 " fill="#EEEEEE" style="stroke:#000000;stroke-width:1.5;"/><rect fill="none" height="396.5156" style="stroke:#000000;stroke-width:1.5;" width="2129.5" x="10" y="761.5859"/><text fill="#000000" font-family="sans-serif" font-size="13" font-weight="bold" lengthAdjust="spacing" textLength="16" x="25" y="776.0811">alt</text><text fill="#000000" font-family="sans-serif" font-size="11" font-weight="bold" lengthAdjust="spacing" textLength="197" x="86" y="775.0049">[User´s first dose for Vaccine Type]</text><polygon fill="#181818" points="809.5,798.2891,819.5,802.2891,809.5,806.2891,813.5,802.2891" style="stroke:#181818;stroke-width:1.0;"/><line style="stroke:#181818;stroke-width:1.0;" x1="458.5" x2="815.5" y1="802.2891" y2="802.2891"/><text fill="#000000" font-family="sans-serif" font-size="13" font-weight="bold" lengthAdjust="spacing" textLength="14" x="465.5" y="797.4326">18</text><text fill="#000000" font-family="sans-serif" font-size="13" lengthAdjust="spacing" textLength="208" x="483.5" y="797.4326">vaccineList = getVaccineNameList()</text><polygon fill="#181818" points="1231.5,828.6406,1241.5,832.6406,1231.5,836.6406,1235.5,832.6406" style="stroke:#181818;stroke-width:1.0;"/><line style="stroke:#181818;stroke-width:1.0;" x1="831.5" x2="1237.5" y1="832.6406" y2="832.6406"/><text fill="#000000" font-family="sans-serif" font-size="13" font-weight="bold" lengthAdjust="spacing" textLength="14" x="838.5" y="827.7842">19</text><text fill="#000000" font-family="sans-serif" font-size="13" lengthAdjust="spacing" textLength="174" x="856.5" y="827.7842">vaccineList = getVaccineList()</text><path d="M20,877.6406 L93,877.6406 L93,885.9922 L83,895.9922 L20,895.9922 L20,877.6406 " fill="#EEEEEE" style="stroke:#000000;stroke-width:1.5;"/><rect fill="none" height="273.4609" style="stroke:#000000;stroke-width:1.5;" width="2109.5" x="20" y="877.6406"/><text fill="#000000" font-family="sans-serif" font-size="13" font-weight="bold" lengthAdjust="spacing" textLength="28" x="35" y="892.1357">loop</text><text fill="#000000" font-family="sans-serif" font-size="11" font-weight="bold" lengthAdjust="spacing" textLength="143" x="108" y="891.0596">[Validate User Age Group]</text><polygon fill="#181818" points="67.5,914.3438,57.5,918.3438,67.5,922.3438,63.5,918.3438" style="stroke:#181818;stroke-width:1.0;"/><line style="stroke:#181818;stroke-width:1.0;stroke-dasharray:2.0,2.0;" x1="61.5" x2="452.5" y1="918.3438" y2="918.3438"/><text fill="#000000" font-family="sans-serif" font-size="13" font-weight="bold" lengthAdjust="spacing" textLength="14" x="73.5" y="913.4873">20</text><text fill="#000000" font-family="sans-serif" font-size="13" lengthAdjust="spacing" textLength="225" x="91.5" y="913.4873">shows a list with the available vaccines</text><polygon fill="#181818" points="436.5,944.6953,446.5,948.6953,436.5,952.6953,440.5,948.6953" style="stroke:#181818;stroke-width:1.0;"/><line style="stroke:#181818;stroke-width:1.0;" x1="56.5" x2="442.5" y1="948.6953" y2="948.6953"/><text fill="#000000" font-family="sans-serif" font-size="13" font-weight="bold" lengthAdjust="spacing" textLength="14" x="63.5" y="943.8389">21</text><text fill="#000000" font-family="sans-serif" font-size="13" lengthAdjust="spacing" textLength="114" x="81.5" y="943.8389">selects one vaccine</text><polygon fill="#181818" points="809.5,975.0469,819.5,979.0469,809.5,983.0469,813.5,979.0469" style="stroke:#181818;stroke-width:1.0;"/><line style="stroke:#181818;stroke-width:1.0;" x1="458.5" x2="815.5" y1="979.0469" y2="979.0469"/><text fill="#000000" font-family="sans-serif" font-size="13" font-weight="bold" lengthAdjust="spacing" textLength="14" x="465.5" y="974.1904">22</text><text fill="#000000" font-family="sans-serif" font-size="13" lengthAdjust="spacing" textLength="147" x="483.5" y="974.1904">setVaccine(vaccineIndex)</text><polygon fill="#181818" points="1231.5,1005.3984,1241.5,1009.3984,1231.5,1013.3984,1235.5,1009.3984" style="stroke:#181818;stroke-width:1.0;"/><line style="stroke:#181818;stroke-width:1.0;" x1="831.5" x2="1237.5" y1="1009.3984" y2="1009.3984"/><text fill="#000000" font-family="sans-serif" font-size="13" font-weight="bold" lengthAdjust="spacing" textLength="14" x="838.5" y="1004.542">23</text><text fill="#000000" font-family="sans-serif" font-size="13" lengthAdjust="spacing" textLength="257" x="856.5" y="1004.542">vaccine = getVaccineList().get(vaccineIndex)</text><polygon fill="#181818" points="2067,1065.75,2077,1069.75,2067,1073.75,2071,1069.75" style="stroke:#181818;stroke-width:1.0;"/><line style="stroke:#181818;stroke-width:1.0;" x1="831.5" x2="2073" y1="1069.75" y2="1069.75"/><text fill="#000000" font-family="sans-serif" font-size="13" font-weight="bold" lengthAdjust="spacing" textLength="14" x="838.5" y="1064.8936">24</text><text fill="#000000" font-family="sans-serif" font-size="13" lengthAdjust="spacing" textLength="215" x="856.5" y="1064.8936">userAge = snsUser.getSnsUserAge()</text><line style="stroke:#181818;stroke-width:1.0;" x1="831.5" x2="873.5" y1="1130.1016" y2="1130.1016"/><line style="stroke:#181818;stroke-width:1.0;" x1="873.5" x2="873.5" y1="1130.1016" y2="1143.1016"/><line style="stroke:#181818;stroke-width:1.0;" x1="832.5" x2="873.5" y1="1143.1016" y2="1143.1016"/><polygon fill="#181818" points="842.5,1139.1016,832.5,1143.1016,842.5,1147.1016,838.5,1143.1016" style="stroke:#181818;stroke-width:1.0;"/><text fill="#000000" font-family="sans-serif" font-size="13" font-weight="bold" lengthAdjust="spacing" textLength="14" x="838.5" y="1125.2451">25</text><text fill="#000000" font-family="sans-serif" font-size="13" lengthAdjust="spacing" textLength="133" x="856.5" y="1125.2451">validate user age group</text><polygon fill="#181818" points="67.5,1183.4531,57.5,1187.4531,67.5,1191.4531,63.5,1187.4531" style="stroke:#181818;stroke-width:1.0;"/><line style="stroke:#181818;stroke-width:1.0;stroke-dasharray:2.0,2.0;" x1="61.5" x2="452.5" y1="1187.4531" y2="1187.4531"/><text fill="#000000" font-family="sans-serif" font-size="13" font-weight="bold" lengthAdjust="spacing" textLength="14" x="73.5" y="1182.5967">26</text><text fill="#000000" font-family="sans-serif" font-size="13" lengthAdjust="spacing" textLength="350" x="91.5" y="1182.5967">shows dosage for respective dose and requests vaccine´s lot</text><polygon fill="#181818" points="436.5,1213.8047,446.5,1217.8047,436.5,1221.8047,440.5,1217.8047" style="stroke:#181818;stroke-width:1.0;"/><line style="stroke:#181818;stroke-width:1.0;" x1="56.5" x2="442.5" y1="1217.8047" y2="1217.8047"/><text fill="#000000" font-family="sans-serif" font-size="13" font-weight="bold" lengthAdjust="spacing" textLength="14" x="63.5" y="1212.9482">27</text><text fill="#000000" font-family="sans-serif" font-size="13" lengthAdjust="spacing" textLength="183" x="81.5" y="1212.9482">introduces vaccine´s lot number</text><polygon fill="#181818" points="809.5,1244.1563,819.5,1248.1563,809.5,1252.1563,813.5,1248.1563" style="stroke:#181818;stroke-width:1.0;"/><line style="stroke:#181818;stroke-width:1.0;" x1="458.5" x2="815.5" y1="1248.1563" y2="1248.1563"/><text fill="#000000" font-family="sans-serif" font-size="13" font-weight="bold" lengthAdjust="spacing" textLength="14" x="465.5" y="1243.2998">28</text><text fill="#000000" font-family="sans-serif" font-size="13" lengthAdjust="spacing" textLength="173" x="483.5" y="1243.2998">validateLotNumber(lotNumber)</text><rect height="41.4453" style="stroke:#000000;stroke-width:1.5;fill:none;" width="271" x="691" y="1256.1563"/><path d="M691,1256.1563 L753,1256.1563 L753,1264.1563 L743,1274.1563 L691,1274.1563 L691,1256.1563 " fill="#EEEEEE" style="stroke:#000000;stroke-width:2.0;"/><text fill="#000000" font-family="sans-serif" font-size="13" font-weight="bold" lengthAdjust="spacing" textLength="17" x="704" y="1271.6514">ref</text><text fill="#000000" font-family="sans-serif" font-size="12" lengthAdjust="spacing" textLength="176" x="738.5" y="1290.6133">SD_CreateVaccineBulletin.puml</text><polygon fill="#181818" points="2067,1320.9531,2077,1324.9531,2067,1328.9531,2071,1324.9531" style="stroke:#181818;stroke-width:1.0;"/><line style="stroke:#181818;stroke-width:1.0;" x1="831.5" x2="2073" y1="1324.9531" y2="1324.9531"/><text fill="#000000" font-family="sans-serif" font-size="13" font-weight="bold" lengthAdjust="spacing" textLength="14" x="838.5" y="1320.0967">29</text><text fill="#000000" font-family="sans-serif" font-size="13" lengthAdjust="spacing" textLength="209" x="856.5" y="1320.0967">addVaccineBulletin(VaccineBulletin)</text><polygon fill="#181818" points="2323,1351.3047,2333,1355.3047,2323,1359.3047,2327,1355.3047" style="stroke:#181818;stroke-width:1.0;"/><line style="stroke:#181818;stroke-width:1.0;" x1="2089" x2="2329" y1="1355.3047" y2="1355.3047"/><text fill="#000000" font-family="sans-serif" font-size="13" font-weight="bold" lengthAdjust="spacing" textLength="14" x="2096" y="1350.4482">30</text><text fill="#000000" font-family="sans-serif" font-size="13" lengthAdjust="spacing" textLength="209" x="2114" y="1350.4482">addVaccineBulletin(VaccineBulletin)</text><polygon fill="#181818" points="809.5,1411.6563,819.5,1415.6563,809.5,1419.6563,813.5,1415.6563" style="stroke:#181818;stroke-width:1.0;"/><line style="stroke:#181818;stroke-width:1.0;" x1="458.5" x2="815.5" y1="1415.6563" y2="1415.6563"/><text fill="#000000" font-family="sans-serif" font-size="13" font-weight="bold" lengthAdjust="spacing" textLength="14" x="465.5" y="1410.7998">31</text><text fill="#000000" font-family="sans-serif" font-size="13" lengthAdjust="spacing" textLength="114" x="483.5" y="1410.7998">printRecoveryTime()</text><polygon fill="#181818" points="62.5,1442.0078,52.5,1446.0078,62.5,1450.0078,58.5,1446.0078" style="stroke:#181818;stroke-width:1.0;"/><line style="stroke:#181818;stroke-width:1.0;stroke-dasharray:2.0,2.0;" x1="56.5" x2="452.5" y1="1446.0078" y2="1446.0078"/><text fill="#000000" font-family="sans-serif" font-size="13" font-weight="bold" lengthAdjust="spacing" textLength="14" x="68.5" y="1441.1514">32</text><text fill="#000000" font-family="sans-serif" font-size="13" lengthAdjust="spacing" textLength="278" x="86.5" y="1441.1514">informs that vaccine administration is completed</text><!--MD5=[8d7cfcfc58f78c10bf9eadffc14fe8d2]
@startuml

autonumber

actor Nurse as N

participant ":RecordVaccineAdministrationUI" as UI
participant ":RecordVaccineAdministrationController" as CTRL
participant "company\n:Company" as C
participant "vaccinationCenterStore\n:VaccinationCenterStore" as VS
participant "vaccinationCenter\n:VaccinationCenter" as VC
participant "snsUser\n:SnsUser" as SU
participant "vaccineBulletinList\nList<VaccineBulletin>" as L

activate N
N -> UI : asks to record the administration of a vaccine to an SNS user
activate UI

UI -> CTRL : vaccinationCenterList = getVaccinationCentersNameList()
activate CTRL
CTRL -> C : vaccinationCenterList = getVaccinationCenters()
activate C
deactivate CTRL
C -> VS : vaccinationCenterList = getVaccinationCenters()
activate VS
deactivate VS
deactivate C
UI - -> N : shows a list with the available vaccination centers
deactivate UI

N -> UI : selects one vaccination center
activate UI
UI -> CTRL : setVaccinationCenter(vaccinationCenterIndex)
activate CTRL
CTRL -> C : vaccinationCenter = getVaccinationCenters().get(index)
activate C
C -> VS : vaccinationCenter = getVaccinationCenters().get(index)
deactivate C
activate VS
VS -> VC : vaccinationCenter = getVaccinationCenters().get(index)
activate VC
deactivate VC
deactivate VS
deactivate CTRL

UI -> CTRL : setArrivalsList = vaccinationCenter.getArrivalsList()
activate CTRL
CTRL -> VC : arrivalsList = getArrivalsList()

activate VC
deactivate VC
deactivate CTRL

 UI - -> N : shows a list with the users available in arrivals list
deactivate UI
N -> UI : selects one user

activate UI
UI -> CTRL : setVaccineType(arrivalsListUserIndex)
activate CTRL
CTRL -> CTRL : vaccineType = arrivalsList(arrivalsListUserIndex).getVaccineType()
CTRL -> CTRL : doseNumber = findLastDoseOfVaccineType()
alt User´s first dose for Vaccine Type
UI -> CTRL : vaccineList = getVaccineNameList()
CTRL -> C : vaccineList = getVaccineList()
activate C
deactivate C
loop Validate User Age Group
UI - -> N : shows a list with the available vaccines
deactivate UI
N -> UI : selects one vaccine
activate UI
UI -> CTRL : setVaccine(vaccineIndex)
CTRL -> C : vaccine = getVaccineList().get(vaccineIndex)
activate C
deactivate C
CTRL -> SU : userAge = snsUser.getSnsUserAge()
activate SU
deactivate SU
CTRL -> CTRL : validate user age group
end
end
deactivate CTRL
UI - -> N : shows dosage for respective dose and requests vaccine´s lot
deactivate UI
N -> UI : introduces vaccine´s lot number
activate UI

UI -> CTRL : validateLotNumber(lotNumber)
activate CTRL

ref over CTRL : SD_CreateVaccineBulletin.puml


CTRL -> SU : addVaccineBulletin(VaccineBulletin)
activate SU

SU -> L : addVaccineBulletin(VaccineBulletin)
activate L
deactivate L
deactivate SU
UI -> CTRL : printRecoveryTime()

UI - -> N : informs that vaccine administration is completed


deactivate CTRL
deactivate UI
deactivate N
@enduml

PlantUML version 1.2022.5(Sat Apr 30 11:55:52 BST 2022)
(GPL source distribution)
Java Runtime: OpenJDK Runtime Environment
JVM: OpenJDK 64-Bit Server VM
Default Encoding: Cp1252
Language: en
Country: US
--></g></svg>