<?xml version="1.0" encoding="UTF-8" standalone="no"?><svg xmlns="http://www.w3.org/2000/svg" xmlns:xlink="http://www.w3.org/1999/xlink" contentStyleType="text/css" height="516px" preserveAspectRatio="none" style="width:1234px;height:516px;background:#FFFFFF;" version="1.1" viewBox="0 0 1234 516" width="1234px" zoomAndPan="magnify"><defs/><g><!--MD5=[c4593935f45e4a2a0cefc4788932b53f]
class SnsUser--><g id="elem_SnsUser"><rect codeLine="7" fill="#F1F1F1" height="163.2656" id="SnsUser" rx="2.5" ry="2.5" style="stroke:#181818;stroke-width:0.5;" width="242" x="233" y="34.5"/><ellipse cx="323.25" cy="50.5" fill="#ADD1B2" rx="11" ry="11" style="stroke:#181818;stroke-width:1.0;"/><path d="M325.25,47 Q325.4531,46.5 325.6875,46.25 Q325.9219,46 326.1875,46 Q326.6563,46 326.9531,46.2813 Q327.25,46.5625 327.25,47.2188 L327.25,48.7813 Q327.25,49.4375 326.9688,49.7188 Q326.6875,50 326.25,50 Q325.8594,50 325.6094,49.8281 Q325.3594,49.6563 325.25,49.2031 Q325.2031,48.8906 325.0313,48.7188 Q324.7188,48.3906 324.1563,48.2031 Q323.5938,48 323.0313,48 Q322.3281,48 321.7344,48.2813 Q321.1563,48.5625 320.7031,49.1875 Q320.25,49.8125 320.25,50.6719 L320.25,51.5938 Q320.25,52.625 321.0938,53.3125 Q321.9375,54 323.4375,54 Q324.3281,54 324.9531,53.7969 Q325.3125,53.6875 325.7188,53.3281 Q325.9844,53.125 326.125,53.0625 Q326.2656,53 326.4375,53 Q326.7656,53 327,53.2656 Q327.25,53.5156 327.25,53.875 Q327.25,54.2188 326.9063,54.625 Q326.4063,55.2188 325.6094,55.5469 Q324.5625,56 323.2813,56 Q321.7813,56 320.5781,55.4063 Q319.6094,54.9375 318.9219,53.9219 Q318.25,52.9063 318.25,51.7031 L318.25,50.6094 Q318.25,49.3594 318.8438,48.2656 Q319.4531,47.1719 320.5,46.5938 Q321.5625,46 322.75,46 Q323.4688,46 324.0938,46.25 Q324.7188,46.5 325.25,47 Z " fill="#000000"/><text fill="#000000" font-family="sans-serif" font-size="14" lengthAdjust="spacing" textLength="53" x="343.75" y="56.2285">SnsUser</text><line style="stroke:#181818;stroke-width:0.5;" x1="234" x2="474" y1="66.5" y2="66.5"/><text fill="#000000" font-family="sans-serif" font-size="14" lengthAdjust="spacing" textLength="105" x="239" y="85.0332">-snsUserNumber</text><text fill="#000000" font-family="sans-serif" font-size="14" lengthAdjust="spacing" textLength="61" x="239" y="102.6426">-birthdate</text><text fill="#000000" font-family="sans-serif" font-size="14" lengthAdjust="spacing" textLength="94" x="239" y="120.252">-phoneNumber</text><text fill="#000000" font-family="sans-serif" font-size="14" lengthAdjust="spacing" textLength="26" x="239" y="137.8613">-sex</text><text fill="#000000" font-family="sans-serif" font-size="14" lengthAdjust="spacing" textLength="56" x="239" y="155.4707">-address</text><text fill="#000000" font-family="sans-serif" font-size="14" lengthAdjust="spacing" textLength="124" x="239" y="173.0801">-citizenCardNumber</text><text fill="#000000" font-family="sans-serif" font-size="14" lengthAdjust="spacing" textLength="230" x="239" y="190.6895">-takenVaccines : List&lt;TakenVacine&gt;</text></g><!--MD5=[1869ee9863863a0d2594cbfcdbe20ea7]
class VaccineBulletin--><g id="elem_VaccineBulletin"><rect codeLine="17" fill="#F1F1F1" height="110.4375" id="VaccineBulletin" rx="2.5" ry="2.5" style="stroke:#181818;stroke-width:0.5;" width="151" x="571" y="7"/><ellipse cx="596.35" cy="23" fill="#ADD1B2" rx="11" ry="11" style="stroke:#181818;stroke-width:1.0;"/><path d="M598.35,19.5 Q598.5531,19 598.7875,18.75 Q599.0219,18.5 599.2875,18.5 Q599.7563,18.5 600.0531,18.7813 Q600.35,19.0625 600.35,19.7188 L600.35,21.2813 Q600.35,21.9375 600.0688,22.2188 Q599.7875,22.5 599.35,22.5 Q598.9594,22.5 598.7094,22.3281 Q598.4594,22.1563 598.35,21.7031 Q598.3031,21.3906 598.1313,21.2188 Q597.8188,20.8906 597.2563,20.7031 Q596.6938,20.5 596.1313,20.5 Q595.4281,20.5 594.8344,20.7813 Q594.2563,21.0625 593.8031,21.6875 Q593.35,22.3125 593.35,23.1719 L593.35,24.0938 Q593.35,25.125 594.1938,25.8125 Q595.0375,26.5 596.5375,26.5 Q597.4281,26.5 598.0531,26.2969 Q598.4125,26.1875 598.8188,25.8281 Q599.0844,25.625 599.225,25.5625 Q599.3656,25.5 599.5375,25.5 Q599.8656,25.5 600.1,25.7656 Q600.35,26.0156 600.35,26.375 Q600.35,26.7188 600.0063,27.125 Q599.5063,27.7188 598.7094,28.0469 Q597.6625,28.5 596.3813,28.5 Q594.8813,28.5 593.6781,27.9063 Q592.7094,27.4375 592.0219,26.4219 Q591.35,25.4063 591.35,24.2031 L591.35,23.1094 Q591.35,21.8594 591.9438,20.7656 Q592.5531,19.6719 593.6,19.0938 Q594.6625,18.5 595.85,18.5 Q596.5688,18.5 597.1938,18.75 Q597.8188,19 598.35,19.5 Z " fill="#000000"/><text fill="#000000" font-family="sans-serif" font-size="14" lengthAdjust="spacing" textLength="96" x="612.65" y="28.7285">VaccineBulletin</text><line style="stroke:#181818;stroke-width:0.5;" x1="572" x2="721" y1="39" y2="39"/><text fill="#000000" font-family="sans-serif" font-size="14" lengthAdjust="spacing" textLength="53" x="577" y="57.5332">-vaccine</text><text fill="#000000" font-family="sans-serif" font-size="14" lengthAdjust="spacing" textLength="139" x="577" y="75.1426">-dateTimeOfLastDose</text><text fill="#000000" font-family="sans-serif" font-size="14" lengthAdjust="spacing" textLength="85" x="577" y="92.752">-doseNumber</text><text fill="#000000" font-family="sans-serif" font-size="14" lengthAdjust="spacing" textLength="69" x="577" y="110.3613">-lotNumber</text></g><!--MD5=[0e501da62322464167c8ec4d233a6b7e]
class VaccineType--><g id="elem_VaccineType"><rect codeLine="24" fill="#F1F1F1" height="92.8281" id="VaccineType" rx="2.5" ry="2.5" style="stroke:#181818;stroke-width:0.5;" width="139" x="1088" y="257.5"/><ellipse cx="1114.25" cy="273.5" fill="#ADD1B2" rx="11" ry="11" style="stroke:#181818;stroke-width:1.0;"/><path d="M1116.25,270 Q1116.4531,269.5 1116.6875,269.25 Q1116.9219,269 1117.1875,269 Q1117.6563,269 1117.9531,269.2813 Q1118.25,269.5625 1118.25,270.2188 L1118.25,271.7813 Q1118.25,272.4375 1117.9688,272.7188 Q1117.6875,273 1117.25,273 Q1116.8594,273 1116.6094,272.8281 Q1116.3594,272.6563 1116.25,272.2031 Q1116.2031,271.8906 1116.0313,271.7188 Q1115.7188,271.3906 1115.1563,271.2031 Q1114.5938,271 1114.0313,271 Q1113.3281,271 1112.7344,271.2813 Q1112.1563,271.5625 1111.7031,272.1875 Q1111.25,272.8125 1111.25,273.6719 L1111.25,274.5938 Q1111.25,275.625 1112.0938,276.3125 Q1112.9375,277 1114.4375,277 Q1115.3281,277 1115.9531,276.7969 Q1116.3125,276.6875 1116.7188,276.3281 Q1116.9844,276.125 1117.125,276.0625 Q1117.2656,276 1117.4375,276 Q1117.7656,276 1118,276.2656 Q1118.25,276.5156 1118.25,276.875 Q1118.25,277.2188 1117.9063,277.625 Q1117.4063,278.2188 1116.6094,278.5469 Q1115.5625,279 1114.2813,279 Q1112.7813,279 1111.5781,278.4063 Q1110.6094,277.9375 1109.9219,276.9219 Q1109.25,275.9063 1109.25,274.7031 L1109.25,273.6094 Q1109.25,272.3594 1109.8438,271.2656 Q1110.4531,270.1719 1111.5,269.5938 Q1112.5625,269 1113.75,269 Q1114.4688,269 1115.0938,269.25 Q1115.7188,269.5 1116.25,270 Z " fill="#000000"/><text fill="#000000" font-family="sans-serif" font-size="14" lengthAdjust="spacing" textLength="82" x="1130.75" y="279.2285">VaccineType</text><line style="stroke:#181818;stroke-width:0.5;" x1="1089" x2="1226" y1="289.5" y2="289.5"/><text fill="#000000" font-family="sans-serif" font-size="14" lengthAdjust="spacing" textLength="74" x="1094" y="308.0332">-description</text><text fill="#000000" font-family="sans-serif" font-size="14" lengthAdjust="spacing" textLength="36" x="1094" y="325.6426">-code</text><text fill="#000000" font-family="sans-serif" font-size="14" lengthAdjust="spacing" textLength="127" x="1094" y="343.252">-vaccineTechnology</text></g><!--MD5=[19e445fc4d3b48519cbe33da05496394]
class Vaccine--><g id="elem_Vaccine"><rect codeLine="30" fill="#F1F1F1" height="128.0469" id="Vaccine" rx="2.5" ry="2.5" style="stroke:#181818;stroke-width:0.5;" width="106" x="839.5" y="51"/><ellipse cx="865.3" cy="67" fill="#ADD1B2" rx="11" ry="11" style="stroke:#181818;stroke-width:1.0;"/><path d="M867.3,63.5 Q867.5031,63 867.7375,62.75 Q867.9719,62.5 868.2375,62.5 Q868.7063,62.5 869.0031,62.7813 Q869.3,63.0625 869.3,63.7188 L869.3,65.2813 Q869.3,65.9375 869.0188,66.2188 Q868.7375,66.5 868.3,66.5 Q867.9094,66.5 867.6594,66.3281 Q867.4094,66.1563 867.3,65.7031 Q867.2531,65.3906 867.0813,65.2188 Q866.7688,64.8906 866.2063,64.7031 Q865.6438,64.5 865.0813,64.5 Q864.3781,64.5 863.7844,64.7813 Q863.2063,65.0625 862.7531,65.6875 Q862.3,66.3125 862.3,67.1719 L862.3,68.0938 Q862.3,69.125 863.1438,69.8125 Q863.9875,70.5 865.4875,70.5 Q866.3781,70.5 867.0031,70.2969 Q867.3625,70.1875 867.7688,69.8281 Q868.0344,69.625 868.175,69.5625 Q868.3156,69.5 868.4875,69.5 Q868.8156,69.5 869.05,69.7656 Q869.3,70.0156 869.3,70.375 Q869.3,70.7188 868.9563,71.125 Q868.4563,71.7188 867.6594,72.0469 Q866.6125,72.5 865.3313,72.5 Q863.8313,72.5 862.6281,71.9063 Q861.6594,71.4375 860.9719,70.4219 Q860.3,69.4063 860.3,68.2031 L860.3,67.1094 Q860.3,65.8594 860.8938,64.7656 Q861.5031,63.6719 862.55,63.0938 Q863.6125,62.5 864.8,62.5 Q865.5188,62.5 866.1438,62.75 Q866.7688,63 867.3,63.5 Z " fill="#000000"/><text fill="#000000" font-family="sans-serif" font-size="14" lengthAdjust="spacing" textLength="50" x="881.7" y="72.7285">Vaccine</text><line style="stroke:#181818;stroke-width:0.5;" x1="840.5" x2="944.5" y1="83" y2="83"/><text fill="#000000" font-family="sans-serif" font-size="14" lengthAdjust="spacing" textLength="40" x="845.5" y="101.5332">-name</text><text fill="#000000" font-family="sans-serif" font-size="14" lengthAdjust="spacing" textLength="16" x="845.5" y="119.1426">-id</text><text fill="#000000" font-family="sans-serif" font-size="14" lengthAdjust="spacing" textLength="42" x="845.5" y="136.752">-brand</text><text fill="#000000" font-family="sans-serif" font-size="14" lengthAdjust="spacing" textLength="94" x="845.5" y="154.3613">-adminProcess</text><text fill="#000000" font-family="sans-serif" font-size="14" lengthAdjust="spacing" textLength="84" x="845.5" y="171.9707">-vaccine type</text></g><!--MD5=[9b956c59b16436292d60adff39fe4d1c]
class ApplicationUser--><g id="elem_ApplicationUser"><rect codeLine="38" fill="#F1F1F1" height="110.4375" id="ApplicationUser" rx="2.5" ry="2.5" style="stroke:#181818;stroke-width:0.5;" width="130" x="7" y="61"/><ellipse cx="22" cy="77" fill="#ADD1B2" rx="11" ry="11" style="stroke:#181818;stroke-width:1.0;"/><path d="M24,73.5 Q24.2031,73 24.4375,72.75 Q24.6719,72.5 24.9375,72.5 Q25.4063,72.5 25.7031,72.7813 Q26,73.0625 26,73.7188 L26,75.2813 Q26,75.9375 25.7188,76.2188 Q25.4375,76.5 25,76.5 Q24.6094,76.5 24.3594,76.3281 Q24.1094,76.1563 24,75.7031 Q23.9531,75.3906 23.7813,75.2188 Q23.4688,74.8906 22.9063,74.7031 Q22.3438,74.5 21.7813,74.5 Q21.0781,74.5 20.4844,74.7813 Q19.9063,75.0625 19.4531,75.6875 Q19,76.3125 19,77.1719 L19,78.0938 Q19,79.125 19.8438,79.8125 Q20.6875,80.5 22.1875,80.5 Q23.0781,80.5 23.7031,80.2969 Q24.0625,80.1875 24.4688,79.8281 Q24.7344,79.625 24.875,79.5625 Q25.0156,79.5 25.1875,79.5 Q25.5156,79.5 25.75,79.7656 Q26,80.0156 26,80.375 Q26,80.7188 25.6563,81.125 Q25.1563,81.7188 24.3594,82.0469 Q23.3125,82.5 22.0313,82.5 Q20.5313,82.5 19.3281,81.9063 Q18.3594,81.4375 17.6719,80.4219 Q17,79.4063 17,78.2031 L17,77.1094 Q17,75.8594 17.5938,74.7656 Q18.2031,73.6719 19.25,73.0938 Q20.3125,72.5 21.5,72.5 Q22.2188,72.5 22.8438,72.75 Q23.4688,73 24,73.5 Z " fill="#000000"/><text fill="#000000" font-family="sans-serif" font-size="14" lengthAdjust="spacing" textLength="98" x="36" y="82.7285">ApplicationUser</text><line style="stroke:#181818;stroke-width:0.5;" x1="8" x2="136" y1="93" y2="93"/><text fill="#000000" font-family="sans-serif" font-size="14" lengthAdjust="spacing" textLength="40" x="13" y="111.5332">-name</text><text fill="#000000" font-family="sans-serif" font-size="14" lengthAdjust="spacing" textLength="38" x="13" y="129.1426">-email</text><text fill="#000000" font-family="sans-serif" font-size="14" lengthAdjust="spacing" textLength="65" x="13" y="146.752">-password</text><text fill="#000000" font-family="sans-serif" font-size="14" lengthAdjust="spacing" textLength="29" x="13" y="164.3613">-role</text></g><!--MD5=[dba9a92b96999febf7a21ca0aa8468a3]
class ScheduledVaccine--><g id="elem_ScheduledVaccine"><rect codeLine="45" fill="#F1F1F1" height="75.2188" id="ScheduledVaccine" rx="2.5" ry="2.5" style="stroke:#181818;stroke-width:0.5;" width="149" x="818" y="266.5"/><ellipse cx="833" cy="282.5" fill="#ADD1B2" rx="11" ry="11" style="stroke:#181818;stroke-width:1.0;"/><path d="M835,279 Q835.2031,278.5 835.4375,278.25 Q835.6719,278 835.9375,278 Q836.4063,278 836.7031,278.2813 Q837,278.5625 837,279.2188 L837,280.7813 Q837,281.4375 836.7188,281.7188 Q836.4375,282 836,282 Q835.6094,282 835.3594,281.8281 Q835.1094,281.6563 835,281.2031 Q834.9531,280.8906 834.7813,280.7188 Q834.4688,280.3906 833.9063,280.2031 Q833.3438,280 832.7813,280 Q832.0781,280 831.4844,280.2813 Q830.9063,280.5625 830.4531,281.1875 Q830,281.8125 830,282.6719 L830,283.5938 Q830,284.625 830.8438,285.3125 Q831.6875,286 833.1875,286 Q834.0781,286 834.7031,285.7969 Q835.0625,285.6875 835.4688,285.3281 Q835.7344,285.125 835.875,285.0625 Q836.0156,285 836.1875,285 Q836.5156,285 836.75,285.2656 Q837,285.5156 837,285.875 Q837,286.2188 836.6563,286.625 Q836.1563,287.2188 835.3594,287.5469 Q834.3125,288 833.0313,288 Q831.5313,288 830.3281,287.4063 Q829.3594,286.9375 828.6719,285.9219 Q828,284.9063 828,283.7031 L828,282.6094 Q828,281.3594 828.5938,280.2656 Q829.2031,279.1719 830.25,278.5938 Q831.3125,278 832.5,278 Q833.2188,278 833.8438,278.25 Q834.4688,278.5 835,279 Z " fill="#000000"/><text fill="#000000" font-family="sans-serif" font-size="14" lengthAdjust="spacing" textLength="117" x="847" y="288.2285">ScheduledVaccine</text><line style="stroke:#181818;stroke-width:0.5;" x1="819" x2="966" y1="298.5" y2="298.5"/><text fill="#000000" font-family="sans-serif" font-size="14" lengthAdjust="spacing" textLength="105" x="824" y="317.0332">-snsUserNumber</text><text fill="#000000" font-family="sans-serif" font-size="14" lengthAdjust="spacing" textLength="33" x="824" y="334.6426">-date</text></g><!--MD5=[de60e6d4f424ae4d0522096f76a59010]
class VaccinationCenter--><g id="elem_VaccinationCenter"><rect codeLine="50" fill="#F1F1F1" height="304.1406" id="VaccinationCenter" rx="2.5" ry="2.5" style="stroke:#181818;stroke-width:0.5;" width="148" x="572.5" y="152"/><ellipse cx="587.5" cy="168" fill="#ADD1B2" rx="11" ry="11" style="stroke:#181818;stroke-width:1.0;"/><path d="M589.5,164.5 Q589.7031,164 589.9375,163.75 Q590.1719,163.5 590.4375,163.5 Q590.9063,163.5 591.2031,163.7813 Q591.5,164.0625 591.5,164.7188 L591.5,166.2813 Q591.5,166.9375 591.2188,167.2188 Q590.9375,167.5 590.5,167.5 Q590.1094,167.5 589.8594,167.3281 Q589.6094,167.1563 589.5,166.7031 Q589.4531,166.3906 589.2813,166.2188 Q588.9688,165.8906 588.4063,165.7031 Q587.8438,165.5 587.2813,165.5 Q586.5781,165.5 585.9844,165.7813 Q585.4063,166.0625 584.9531,166.6875 Q584.5,167.3125 584.5,168.1719 L584.5,169.0938 Q584.5,170.125 585.3438,170.8125 Q586.1875,171.5 587.6875,171.5 Q588.5781,171.5 589.2031,171.2969 Q589.5625,171.1875 589.9688,170.8281 Q590.2344,170.625 590.375,170.5625 Q590.5156,170.5 590.6875,170.5 Q591.0156,170.5 591.25,170.7656 Q591.5,171.0156 591.5,171.375 Q591.5,171.7188 591.1563,172.125 Q590.6563,172.7188 589.8594,173.0469 Q588.8125,173.5 587.5313,173.5 Q586.0313,173.5 584.8281,172.9063 Q583.8594,172.4375 583.1719,171.4219 Q582.5,170.4063 582.5,169.2031 L582.5,168.1094 Q582.5,166.8594 583.0938,165.7656 Q583.7031,164.6719 584.75,164.0938 Q585.8125,163.5 587,163.5 Q587.7188,163.5 588.3438,163.75 Q588.9688,164 589.5,164.5 Z " fill="#000000"/><text fill="#000000" font-family="sans-serif" font-size="14" lengthAdjust="spacing" textLength="116" x="601.5" y="173.7285">VaccinationCenter</text><line style="stroke:#181818;stroke-width:0.5;" x1="573.5" x2="719.5" y1="184" y2="184"/><text fill="#000000" font-family="sans-serif" font-size="14" lengthAdjust="spacing" textLength="16" x="578.5" y="202.5332">-id</text><text fill="#000000" font-family="sans-serif" font-size="14" lengthAdjust="spacing" textLength="40" x="578.5" y="220.1426">-name</text><text fill="#000000" font-family="sans-serif" font-size="14" lengthAdjust="spacing" textLength="94" x="578.5" y="237.752">-phoneNumber</text><text fill="#000000" font-family="sans-serif" font-size="14" lengthAdjust="spacing" textLength="38" x="578.5" y="255.3613">-email</text><text fill="#000000" font-family="sans-serif" font-size="14" lengthAdjust="spacing" textLength="23" x="578.5" y="272.9707">-fax</text><text fill="#000000" font-family="sans-serif" font-size="14" lengthAdjust="spacing" textLength="52" x="578.5" y="290.5801">-website</text><text fill="#000000" font-family="sans-serif" font-size="14" lengthAdjust="spacing" textLength="86" x="578.5" y="308.1895">-openingHour</text><text fill="#000000" font-family="sans-serif" font-size="14" lengthAdjust="spacing" textLength="79" x="578.5" y="325.7988">-closingHour</text><text fill="#000000" font-family="sans-serif" font-size="14" lengthAdjust="spacing" textLength="81" x="578.5" y="343.4082">-slotDuration</text><text fill="#000000" font-family="sans-serif" font-size="14" lengthAdjust="spacing" textLength="106" x="578.5" y="361.0176">-vaccinesPerSlot</text><text fill="#000000" font-family="sans-serif" font-size="14" lengthAdjust="spacing" textLength="34" x="578.5" y="378.627">-road</text><text fill="#000000" font-family="sans-serif" font-size="14" lengthAdjust="spacing" textLength="56" x="578.5" y="396.2363">-zipCode</text><text fill="#000000" font-family="sans-serif" font-size="14" lengthAdjust="spacing" textLength="34" x="578.5" y="413.8457">-local</text><text fill="#000000" font-family="sans-serif" font-size="14" lengthAdjust="spacing" textLength="133" x="578.5" y="431.4551">-centerCoordinatorID</text><text fill="#000000" font-family="sans-serif" font-size="14" lengthAdjust="spacing" textLength="73" x="578.5" y="449.0645">-arrivalsList</text></g><!--MD5=[02e4b9b7573f1156f41e60aa5b4e25a4]
class Company--><g id="elem_Company"><rect fill="#F1F1F1" height="40" id="Company" rx="2.5" ry="2.5" style="stroke:#181818;stroke-width:0.5;" width="92" x="26" y="284"/><ellipse cx="41" cy="300" fill="#ADD1B2" rx="11" ry="11" style="stroke:#181818;stroke-width:1.0;"/><path d="M43,296.5 Q43.2031,296 43.4375,295.75 Q43.6719,295.5 43.9375,295.5 Q44.4063,295.5 44.7031,295.7813 Q45,296.0625 45,296.7188 L45,298.2813 Q45,298.9375 44.7188,299.2188 Q44.4375,299.5 44,299.5 Q43.6094,299.5 43.3594,299.3281 Q43.1094,299.1563 43,298.7031 Q42.9531,298.3906 42.7813,298.2188 Q42.4688,297.8906 41.9063,297.7031 Q41.3438,297.5 40.7813,297.5 Q40.0781,297.5 39.4844,297.7813 Q38.9063,298.0625 38.4531,298.6875 Q38,299.3125 38,300.1719 L38,301.0938 Q38,302.125 38.8438,302.8125 Q39.6875,303.5 41.1875,303.5 Q42.0781,303.5 42.7031,303.2969 Q43.0625,303.1875 43.4688,302.8281 Q43.7344,302.625 43.875,302.5625 Q44.0156,302.5 44.1875,302.5 Q44.5156,302.5 44.75,302.7656 Q45,303.0156 45,303.375 Q45,303.7188 44.6563,304.125 Q44.1563,304.7188 43.3594,305.0469 Q42.3125,305.5 41.0313,305.5 Q39.5313,305.5 38.3281,304.9063 Q37.3594,304.4375 36.6719,303.4219 Q36,302.4063 36,301.2031 L36,300.1094 Q36,298.8594 36.5938,297.7656 Q37.2031,296.6719 38.25,296.0938 Q39.3125,295.5 40.5,295.5 Q41.2188,295.5 41.8438,295.75 Q42.4688,296 43,296.5 Z " fill="#000000"/><text fill="#000000" font-family="sans-serif" font-size="14" lengthAdjust="spacing" textLength="60" x="55" y="305.7285">Company</text><line style="stroke:#181818;stroke-width:0.5;" x1="27" x2="117" y1="316" y2="316"/></g><!--MD5=[d0019c0afc7056194148dc542fcd30ca]
link SnsUser to VaccineBulletin--><g id="link_SnsUser_VaccineBulletin"><path codeLine="68" d="M475.25,93.65 C505.67,87.99 537.6,82.06 565.48,76.88 " fill="none" id="SnsUser-to-VaccineBulletin" style="stroke:#181818;stroke-width:1.0;"/><polygon fill="#181818" points="570.63,75.92,561.0502,73.6337,565.7143,76.8345,562.5135,81.4987,570.63,75.92" style="stroke:#181818;stroke-width:1.0;"/><polygon fill="#000000" points="514.9158,73.2621,505.486,72.0255,506.56,77.8044,514.9158,73.2621" style="stroke:#000000;stroke-width:1.0;"/><text fill="#000000" font-family="sans-serif" font-size="13" lengthAdjust="spacing" textLength="21" x="519" y="79.4951">has</text><text fill="#000000" font-family="sans-serif" font-size="13" lengthAdjust="spacing" textLength="7" x="482.852" y="106.2733">1</text><text fill="#000000" font-family="sans-serif" font-size="13" lengthAdjust="spacing" textLength="5" x="557.9155" y="91.5686">*</text></g><!--MD5=[50182863975a7f0fd55fd63b7dc30e9d]
link VaccineBulletin to Vaccine--><g id="link_VaccineBulletin_Vaccine"><path codeLine="70" d="M722.03,78.19 C758.09,86.02 800.69,95.27 834.16,102.54 " fill="none" id="VaccineBulletin-to-Vaccine" style="stroke:#181818;stroke-width:1.0;"/><polygon fill="#181818" points="839.45,103.69,831.5157,97.855,834.5661,102.619,829.8021,105.6693,839.45,103.69" style="stroke:#181818;stroke-width:1.0;"/><polygon fill="#000000" points="761.8861,78.2368,753.6707,73.4454,752.4234,79.1894,761.8861,78.2368" style="stroke:#000000;stroke-width:1.0;"/><text fill="#000000" font-family="sans-serif" font-size="13" lengthAdjust="spacing" textLength="21" x="766" y="82.4951">has</text><text fill="#000000" font-family="sans-serif" font-size="13" lengthAdjust="spacing" textLength="7" x="730.18" y="94.1753">1</text><text fill="#000000" font-family="sans-serif" font-size="13" lengthAdjust="spacing" textLength="7" x="824.4977" y="116.7411">1</text></g><!--MD5=[ae7cf994a8037bd5ae694a195d04bab2]
reverse link ApplicationUser to SnsUser--><g id="link_ApplicationUser_SnsUser"><path codeLine="72" d="M157.38,116 C181.15,116 207.48,116 232.91,116 " fill="none" id="ApplicationUser-backto-SnsUser" style="stroke:#181818;stroke-width:1.0;"/><polygon fill="none" points="157.24,123,137.24,116,157.24,109,157.24,123" style="stroke:#181818;stroke-width:1.0;"/></g><!--MD5=[1be679a08cb8113d11b1816eb4e0394e]
link ScheduledVaccine to VaccineType--><g id="link_ScheduledVaccine_VaccineType"><path codeLine="74" d="M967.11,304 C1003.17,304 1046.5,304 1082.6,304 " fill="none" id="ScheduledVaccine-to-VaccineType" style="stroke:#181818;stroke-width:1.0;"/><polygon fill="#181818" points="1087.87,304,1078.87,300,1082.87,304,1078.87,308,1087.87,304" style="stroke:#181818;stroke-width:1.0;"/><polygon fill="#000000" points="1007,295.1758,997.9549,292.2369,997.9549,298.1147,1007,295.1758" style="stroke:#000000;stroke-width:1.0;"/><text fill="#000000" font-family="sans-serif" font-size="13" lengthAdjust="spacing" textLength="46" x="1011" y="300.4951">has one</text><text fill="#000000" font-family="sans-serif" font-size="13" lengthAdjust="spacing" textLength="5" x="975.062" y="318.327">*</text><text fill="#000000" font-family="sans-serif" font-size="13" lengthAdjust="spacing" textLength="7" x="1072.8714" y="318.3987">1</text></g><!--MD5=[7ea5958ae75d1b49d8885d6c52a43a8a]
link Company to SnsUser--><g id="link_Company_SnsUser"><path codeLine="76" d="M102.96,283.88 C134.14,262.95 184.99,228.81 232.72,196.76 " fill="none" id="Company-SnsUser" style="stroke:#181818;stroke-width:1.0;"/><polygon fill="#000000" points="176.1512,209.3887,167.0034,211.9906,170.2798,216.8706,176.1512,209.3887" style="stroke:#000000;stroke-width:1.0;"/><text fill="#000000" font-family="sans-serif" font-size="13" lengthAdjust="spacing" textLength="21" x="181" y="217.4951">has</text><text fill="#000000" font-family="sans-serif" font-size="13" lengthAdjust="spacing" textLength="7" x="104.0264" y="273.1665">1</text><text fill="#000000" font-family="sans-serif" font-size="13" lengthAdjust="spacing" textLength="5" x="220.1772" y="215.6665">*</text></g><!--MD5=[eebe9b198877275d05dd12630ed9e401]
link Company to VaccinationCenter--><g id="link_Company_VaccinationCenter"><path codeLine="78" d="M118.4,304 C217.18,304 452.34,304 572.34,304 " fill="none" id="Company-VaccinationCenter" style="stroke:#181818;stroke-width:1.0;"/><polygon fill="#000000" points="346,295.1758,336.9549,292.2369,336.9549,298.1147,346,295.1758" style="stroke:#000000;stroke-width:1.0;"/><text fill="#000000" font-family="sans-serif" font-size="13" lengthAdjust="spacing" textLength="21" x="350" y="300.4951">has</text><text fill="#000000" font-family="sans-serif" font-size="13" lengthAdjust="spacing" textLength="7" x="126.0409" y="318.747">1</text><text fill="#000000" font-family="sans-serif" font-size="13" lengthAdjust="spacing" textLength="5" x="559.4344" y="318.331">*</text></g><!--MD5=[05986564e1c13a00611587b35563d868]
link Company to VaccineType--><g id="link_Company_VaccineType"><path codeLine="80" d="M86.4,324.03 C122.7,375.61 228.59,509 353,509 C353,509 353,509 893.5,509 C995.97,509 1082.47,411 1126.1,350.52 " fill="none" id="Company-VaccineType" style="stroke:#181818;stroke-width:1.0;"/><polygon fill="#000000" points="623.9984,500.3031,615.0311,497.1348,614.8814,503.0107,623.9984,500.3031" style="stroke:#000000;stroke-width:1.0;"/><text fill="#000000" font-family="sans-serif" font-size="13" lengthAdjust="spacing" textLength="50" x="628" y="505.4951">storages</text><text fill="#000000" font-family="sans-serif" font-size="13" lengthAdjust="spacing" textLength="7" x="82.4656" y="345.458">1</text><text fill="#000000" font-family="sans-serif" font-size="13" lengthAdjust="spacing" textLength="5" x="1116.3328" y="371.7188">*</text></g><!--MD5=[adcf0078a0299005c9f5ccec10b6ed04]
link VaccinationCenter to ScheduledVaccine--><g id="link_VaccinationCenter_ScheduledVaccine"><path codeLine="82" d="M720.71,304 C751.45,304 787.14,304 817.92,304 " fill="none" id="VaccinationCenter-ScheduledVaccine" style="stroke:#181818;stroke-width:1.0;"/><polygon fill="#000000" points="762,295.1758,752.9549,292.2369,752.9549,298.1147,762,295.1758" style="stroke:#000000;stroke-width:1.0;"/><text fill="#000000" font-family="sans-serif" font-size="13" lengthAdjust="spacing" textLength="21" x="766" y="300.4951">has</text><text fill="#000000" font-family="sans-serif" font-size="13" lengthAdjust="spacing" textLength="7" x="728.7238" y="318.331">1</text><text fill="#000000" font-family="sans-serif" font-size="13" lengthAdjust="spacing" textLength="5" x="804.9711" y="318.327">*</text></g><!--MD5=[3568623adf67b2630dce9e60c05bd02a]
link Vaccine to VaccineType--><g id="link_Vaccine_VaccineType"><path codeLine="84" d="M945.77,152.57 C987.72,182.71 1046.81,225.17 1091.75,257.47 " fill="none" id="Vaccine-VaccineType" style="stroke:#181818;stroke-width:1.0;"/><polygon fill="#000000" points="1006.0604,186.0935,1000.4301,178.4286,997.0001,183.2019,1006.0604,186.0935" style="stroke:#000000;stroke-width:1.0;"/><text fill="#000000" font-family="sans-serif" font-size="13" lengthAdjust="spacing" textLength="46" x="1011" y="188.4951">has one</text><text fill="#000000" font-family="sans-serif" font-size="13" lengthAdjust="spacing" textLength="7" x="953.3985" y="172.2091">1</text><text fill="#000000" font-family="sans-serif" font-size="13" lengthAdjust="spacing" textLength="7" x="1074.1461" y="246.6553">1</text></g><!--MD5=[744848aa27ca97b7812cbea6478c9a4b]
@startuml

hide methods
left to right direction
skinparam classAttributeIconSize 0


class SnsUser {
-snsUserNumber
-birthdate
-phoneNumber
-sex
-address
-citizenCardNumber
-takenVaccines : List<TakenVacine>
}

class VaccineBulletin {
-vaccine
-dateTimeOfLastDose
-doseNumber
-lotNumber
}

class VaccineType {
-description
-code
-vaccineTechnology
}

class Vaccine {
-name
-id
-brand
-adminProcess
-vaccine type
}

class ApplicationUser {
-name
-email
-password
-role
}

class ScheduledVaccine {
-snsUserNumber
-date
}

class VaccinationCenter {
-id
-name
-phoneNumber
-email
-fax
-website
-openingHour
-closingHour
-slotDuration
-vaccinesPerSlot
-road
-zipCode
-local
-centerCoordinatorID
-arrivalsList
}

SnsUser "1" - -> "*" VaccineBulletin: has >

VaccineBulletin "1" - -> "1" Vaccine: has >

ApplicationUser  <|- - SnsUser

ScheduledVaccine "*" - -> "1" VaccineType: has one  >

Company "1" - - "*" SnsUser : has >

Company "1" - - - "*" VaccinationCenter : has >

Company "1" - - "*" VaccineType : storages >

VaccinationCenter "1" - - "*" ScheduledVaccine : has >

Vaccine "1" - - "1" VaccineType : has one >


@enduml

PlantUML version 1.2022.5(Sat Apr 30 11:55:52 BST 2022)
(GPL source distribution)
Java Runtime: OpenJDK Runtime Environment
JVM: OpenJDK 64-Bit Server VM
Default Encoding: Cp1252
Language: en
Country: US
--></g></svg>