<?xml version="1.0" encoding="UTF-8" standalone="no"?><svg xmlns="http://www.w3.org/2000/svg" xmlns:xlink="http://www.w3.org/1999/xlink" contentStyleType="text/css" height="1351px" preserveAspectRatio="none" style="width:1742px;height:1351px;background:#FFFFFF;" version="1.1" viewBox="0 0 1742 1351" width="1742px" zoomAndPan="magnify"><defs/><g><rect fill="#FFFFFF" height="1158.6016" style="stroke:#181818;stroke-width:1.0;" width="10" x="46.5" y="92.6094"/><rect fill="#FFFFFF" height="121.0547" style="stroke:#181818;stroke-width:1.0;" width="10" x="441.5" y="114.9609"/><rect fill="#FFFFFF" height="211.7578" style="stroke:#181818;stroke-width:1.0;" width="10" x="441.5" y="266.3672"/><rect fill="#FFFFFF" height="742.7344" style="stroke:#181818;stroke-width:1.0;" width="10" x="441.5" y="508.4766"/><rect fill="#FFFFFF" height="60.3516" style="stroke:#181818;stroke-width:1.0;" width="10" x="814.5" y="145.3125"/><rect fill="#FFFFFF" height="60.3516" style="stroke:#181818;stroke-width:1.0;" width="10" x="814.5" y="296.7188"/><rect fill="#FFFFFF" height="60.3516" style="stroke:#181818;stroke-width:1.0;" width="10" x="814.5" y="387.4219"/><rect fill="#FFFFFF" height="371.5156" style="stroke:#181818;stroke-width:1.0;" width="10" x="814.5" y="538.8281"/><rect fill="#FFFFFF" height="202.1094" style="stroke:#181818;stroke-width:1.0;" width="10" x="814.5" y="1049.1016"/><rect fill="#FFFFFF" height="30" style="stroke:#181818;stroke-width:1.0;" width="10" x="1172.5" y="175.6641"/><rect fill="#FFFFFF" height="30" style="stroke:#181818;stroke-width:1.0;" width="10" x="1172.5" y="327.0703"/><rect fill="#FFFFFF" height="30" style="stroke:#181818;stroke-width:1.0;" width="10" x="1172.5" y="668.2344"/><rect fill="#FFFFFF" height="30" style="stroke:#181818;stroke-width:1.0;" width="10" x="1288.5" y="417.7734"/><rect fill="#FFFFFF" height="91.0547" style="stroke:#181818;stroke-width:1.0;" width="10" x="1401" y="1160.1563"/><rect fill="#FFFFFF" height="60.7031" style="stroke:#181818;stroke-width:1.0;" width="10" x="1657" y="1190.5078"/><rect height="306.1641" style="stroke:#000000;stroke-width:1.5;fill:none;" width="1451.5" x="10" y="597.1797"/><rect height="183.1094" style="stroke:#000000;stroke-width:1.5;fill:none;" width="1431.5" x="20" y="713.2344"/><rect height="152.7578" style="stroke:#000000;stroke-width:1.5;fill:none;" width="1007.5" x="20" y="947.6953"/><line style="stroke:#181818;stroke-width:0.5;fill:none;stroke-dasharray:5.0,5.0;" x1="51" x2="51" y1="82.6094" y2="1269.2109"/><line style="stroke:#181818;stroke-width:0.5;fill:none;stroke-dasharray:5.0,5.0;" x1="446" x2="446" y1="82.6094" y2="1269.2109"/><line style="stroke:#181818;stroke-width:0.5;fill:none;stroke-dasharray:5.0,5.0;" x1="819" x2="819" y1="82.6094" y2="1269.2109"/><line style="stroke:#181818;stroke-width:0.5;fill:none;stroke-dasharray:5.0,5.0;" x1="1177.5" x2="1177.5" y1="82.6094" y2="1269.2109"/><line style="stroke:#181818;stroke-width:0.5;fill:none;stroke-dasharray:5.0,5.0;" x1="1293.5" x2="1293.5" y1="82.6094" y2="1269.2109"/><line style="stroke:#181818;stroke-width:0.5;fill:none;stroke-dasharray:5.0,5.0;" x1="1405.5" x2="1405.5" y1="82.6094" y2="1269.2109"/><line style="stroke:#181818;stroke-width:0.5;fill:none;stroke-dasharray:5.0,5.0;" x1="1662" x2="1662" y1="82.6094" y2="1269.2109"/><text fill="#000000" font-family="sans-serif" font-size="14" lengthAdjust="spacing" textLength="37" x="30" y="79.5332">Nurse</text><ellipse cx="51.5" cy="13.5" fill="#E2E2F0" rx="8" ry="8" style="stroke:#181818;stroke-width:0.5;"/><path d="M51.5,21.5 L51.5,48.5 M38.5,29.5 L64.5,29.5 M51.5,48.5 L38.5,63.5 M51.5,48.5 L64.5,63.5 " fill="none" style="stroke:#181818;stroke-width:0.5;"/><text fill="#000000" font-family="sans-serif" font-size="14" lengthAdjust="spacing" textLength="37" x="30" y="1282.7441">Nurse</text><ellipse cx="51.5" cy="1294.3203" fill="#E2E2F0" rx="8" ry="8" style="stroke:#181818;stroke-width:0.5;"/><path d="M51.5,1302.3203 L51.5,1329.3203 M38.5,1310.3203 L64.5,1310.3203 M51.5,1329.3203 L38.5,1344.3203 M51.5,1329.3203 L64.5,1344.3203 " fill="none" style="stroke:#181818;stroke-width:0.5;"/><rect fill="#E2E2F0" height="31.6094" rx="2.5" ry="2.5" style="stroke:#181818;stroke-width:0.5;" width="215" x="339" y="50"/><text fill="#000000" font-family="sans-serif" font-size="14" lengthAdjust="spacing" textLength="201" x="346" y="71.5332">:RecordVaccineAdministrationUI</text><rect fill="#E2E2F0" height="31.6094" rx="2.5" ry="2.5" style="stroke:#181818;stroke-width:0.5;" width="215" x="339" y="1268.2109"/><text fill="#000000" font-family="sans-serif" font-size="14" lengthAdjust="spacing" textLength="201" x="346" y="1289.7441">:RecordVaccineAdministrationUI</text><rect fill="#E2E2F0" height="31.6094" rx="2.5" ry="2.5" style="stroke:#181818;stroke-width:0.5;" width="265" x="687" y="50"/><text fill="#000000" font-family="sans-serif" font-size="14" lengthAdjust="spacing" textLength="251" x="694" y="71.5332">:RecordVaccineAdministrationController</text><rect fill="#E2E2F0" height="31.6094" rx="2.5" ry="2.5" style="stroke:#181818;stroke-width:0.5;" width="265" x="687" y="1268.2109"/><text fill="#000000" font-family="sans-serif" font-size="14" lengthAdjust="spacing" textLength="251" x="694" y="1289.7441">:RecordVaccineAdministrationController</text><rect fill="#E2E2F0" height="49.2188" rx="2.5" ry="2.5" style="stroke:#181818;stroke-width:0.5;" width="78" x="1138.5" y="32.3906"/><text fill="#000000" font-family="sans-serif" font-size="14" lengthAdjust="spacing" textLength="57" x="1149" y="53.9238">company</text><text fill="#000000" font-family="sans-serif" font-size="14" lengthAdjust="spacing" textLength="64" x="1145.5" y="71.5332">:Company</text><rect fill="#E2E2F0" height="49.2188" rx="2.5" ry="2.5" style="stroke:#181818;stroke-width:0.5;" width="78" x="1138.5" y="1268.2109"/><text fill="#000000" font-family="sans-serif" font-size="14" lengthAdjust="spacing" textLength="57" x="1149" y="1289.7441">company</text><text fill="#000000" font-family="sans-serif" font-size="14" lengthAdjust="spacing" textLength="64" x="1145.5" y="1307.3535">:Company</text><rect fill="#E2E2F0" height="49.2188" rx="2.5" ry="2.5" style="stroke:#181818;stroke-width:0.5;" width="134" x="1226.5" y="32.3906"/><text fill="#000000" font-family="sans-serif" font-size="14" lengthAdjust="spacing" textLength="114" x="1236.5" y="53.9238">vaccinationCenter</text><text fill="#000000" font-family="sans-serif" font-size="14" lengthAdjust="spacing" textLength="120" x="1233.5" y="71.5332">:VaccinationCenter</text><rect fill="#E2E2F0" height="49.2188" rx="2.5" ry="2.5" style="stroke:#181818;stroke-width:0.5;" width="134" x="1226.5" y="1268.2109"/><text fill="#000000" font-family="sans-serif" font-size="14" lengthAdjust="spacing" textLength="114" x="1236.5" y="1289.7441">vaccinationCenter</text><text fill="#000000" font-family="sans-serif" font-size="14" lengthAdjust="spacing" textLength="120" x="1233.5" y="1307.3535">:VaccinationCenter</text><rect fill="#E2E2F0" height="49.2188" rx="2.5" ry="2.5" style="stroke:#181818;stroke-width:0.5;" width="71" x="1370.5" y="32.3906"/><text fill="#000000" font-family="sans-serif" font-size="14" lengthAdjust="spacing" textLength="51" x="1380.5" y="53.9238">snsUser</text><text fill="#000000" font-family="sans-serif" font-size="14" lengthAdjust="spacing" textLength="57" x="1377.5" y="71.5332">:SnsUser</text><rect fill="#E2E2F0" height="49.2188" rx="2.5" ry="2.5" style="stroke:#181818;stroke-width:0.5;" width="71" x="1370.5" y="1268.2109"/><text fill="#000000" font-family="sans-serif" font-size="14" lengthAdjust="spacing" textLength="51" x="1380.5" y="1289.7441">snsUser</text><text fill="#000000" font-family="sans-serif" font-size="14" lengthAdjust="spacing" textLength="57" x="1377.5" y="1307.3535">:SnsUser</text><rect fill="#E2E2F0" height="49.2188" rx="2.5" ry="2.5" style="stroke:#181818;stroke-width:0.5;" width="148" x="1588" y="32.3906"/><text fill="#000000" font-family="sans-serif" font-size="14" lengthAdjust="spacing" textLength="116" x="1604" y="53.9238">vaccineBulletinList</text><text fill="#000000" font-family="sans-serif" font-size="14" lengthAdjust="spacing" textLength="134" x="1595" y="71.5332">List&lt;VaccineBulletin&gt;</text><rect fill="#E2E2F0" height="49.2188" rx="2.5" ry="2.5" style="stroke:#181818;stroke-width:0.5;" width="148" x="1588" y="1268.2109"/><text fill="#000000" font-family="sans-serif" font-size="14" lengthAdjust="spacing" textLength="116" x="1604" y="1289.7441">vaccineBulletinList</text><text fill="#000000" font-family="sans-serif" font-size="14" lengthAdjust="spacing" textLength="134" x="1595" y="1307.3535">List&lt;VaccineBulletin&gt;</text><rect fill="#FFFFFF" height="1158.6016" style="stroke:#181818;stroke-width:1.0;" width="10" x="46.5" y="92.6094"/><rect fill="#FFFFFF" height="121.0547" style="stroke:#181818;stroke-width:1.0;" width="10" x="441.5" y="114.9609"/><rect fill="#FFFFFF" height="211.7578" style="stroke:#181818;stroke-width:1.0;" width="10" x="441.5" y="266.3672"/><rect fill="#FFFFFF" height="742.7344" style="stroke:#181818;stroke-width:1.0;" width="10" x="441.5" y="508.4766"/><rect fill="#FFFFFF" height="60.3516" style="stroke:#181818;stroke-width:1.0;" width="10" x="814.5" y="145.3125"/><rect fill="#FFFFFF" height="60.3516" style="stroke:#181818;stroke-width:1.0;" width="10" x="814.5" y="296.7188"/><rect fill="#FFFFFF" height="60.3516" style="stroke:#181818;stroke-width:1.0;" width="10" x="814.5" y="387.4219"/><rect fill="#FFFFFF" height="371.5156" style="stroke:#181818;stroke-width:1.0;" width="10" x="814.5" y="538.8281"/><rect fill="#FFFFFF" height="202.1094" style="stroke:#181818;stroke-width:1.0;" width="10" x="814.5" y="1049.1016"/><rect fill="#FFFFFF" height="30" style="stroke:#181818;stroke-width:1.0;" width="10" x="1172.5" y="175.6641"/><rect fill="#FFFFFF" height="30" style="stroke:#181818;stroke-width:1.0;" width="10" x="1172.5" y="327.0703"/><rect fill="#FFFFFF" height="30" style="stroke:#181818;stroke-width:1.0;" width="10" x="1172.5" y="668.2344"/><rect fill="#FFFFFF" height="30" style="stroke:#181818;stroke-width:1.0;" width="10" x="1288.5" y="417.7734"/><rect fill="#FFFFFF" height="91.0547" style="stroke:#181818;stroke-width:1.0;" width="10" x="1401" y="1160.1563"/><rect fill="#FFFFFF" height="60.7031" style="stroke:#181818;stroke-width:1.0;" width="10" x="1657" y="1190.5078"/><polygon fill="#181818" points="429.5,110.9609,439.5,114.9609,429.5,118.9609,433.5,114.9609" style="stroke:#181818;stroke-width:1.0;"/><line style="stroke:#181818;stroke-width:1.0;" x1="56.5" x2="435.5" y1="114.9609" y2="114.9609"/><text fill="#000000" font-family="sans-serif" font-size="13" font-weight="bold" lengthAdjust="spacing" textLength="7" x="63.5" y="110.1045">1</text><text fill="#000000" font-family="sans-serif" font-size="13" lengthAdjust="spacing" textLength="355" x="74.5" y="110.1045">asks to record the administration of a vaccine to an SNS user</text><polygon fill="#181818" points="802.5,141.3125,812.5,145.3125,802.5,149.3125,806.5,145.3125" style="stroke:#181818;stroke-width:1.0;"/><line style="stroke:#181818;stroke-width:1.0;" x1="451.5" x2="808.5" y1="145.3125" y2="145.3125"/><text fill="#000000" font-family="sans-serif" font-size="13" font-weight="bold" lengthAdjust="spacing" textLength="7" x="458.5" y="140.4561">2</text><text fill="#000000" font-family="sans-serif" font-size="13" lengthAdjust="spacing" textLength="333" x="469.5" y="140.4561">vaccinationCenterList = getVaccinationCentersNameList()</text><polygon fill="#181818" points="1160.5,171.6641,1170.5,175.6641,1160.5,179.6641,1164.5,175.6641" style="stroke:#181818;stroke-width:1.0;"/><line style="stroke:#181818;stroke-width:1.0;" x1="824.5" x2="1166.5" y1="175.6641" y2="175.6641"/><text fill="#000000" font-family="sans-serif" font-size="13" font-weight="bold" lengthAdjust="spacing" textLength="7" x="831.5" y="170.8076">3</text><text fill="#000000" font-family="sans-serif" font-size="13" lengthAdjust="spacing" textLength="278" x="842.5" y="170.8076">vaccinationCenterList = getVaccinationCenters()</text><polygon fill="#181818" points="67.5,232.0156,57.5,236.0156,67.5,240.0156,63.5,236.0156" style="stroke:#181818;stroke-width:1.0;"/><line style="stroke:#181818;stroke-width:1.0;stroke-dasharray:2.0,2.0;" x1="61.5" x2="445.5" y1="236.0156" y2="236.0156"/><text fill="#000000" font-family="sans-serif" font-size="13" font-weight="bold" lengthAdjust="spacing" textLength="7" x="73.5" y="231.1592">4</text><text fill="#000000" font-family="sans-serif" font-size="13" lengthAdjust="spacing" textLength="286" x="84.5" y="231.1592">shows a list with the available vaccination centers</text><polygon fill="#181818" points="429.5,262.3672,439.5,266.3672,429.5,270.3672,433.5,266.3672" style="stroke:#181818;stroke-width:1.0;"/><line style="stroke:#181818;stroke-width:1.0;" x1="56.5" x2="435.5" y1="266.3672" y2="266.3672"/><text fill="#000000" font-family="sans-serif" font-size="13" font-weight="bold" lengthAdjust="spacing" textLength="7" x="63.5" y="261.5107">5</text><text fill="#000000" font-family="sans-serif" font-size="13" lengthAdjust="spacing" textLength="175" x="74.5" y="261.5107">selects one vaccination center</text><polygon fill="#181818" points="802.5,292.7188,812.5,296.7188,802.5,300.7188,806.5,296.7188" style="stroke:#181818;stroke-width:1.0;"/><line style="stroke:#181818;stroke-width:1.0;" x1="451.5" x2="808.5" y1="296.7188" y2="296.7188"/><text fill="#000000" font-family="sans-serif" font-size="13" font-weight="bold" lengthAdjust="spacing" textLength="7" x="458.5" y="291.8623">6</text><text fill="#000000" font-family="sans-serif" font-size="13" lengthAdjust="spacing" textLength="265" x="469.5" y="291.8623">setVaccinationCenter(vaccinationCenterIndex)</text><polygon fill="#181818" points="1160.5,323.0703,1170.5,327.0703,1160.5,331.0703,1164.5,327.0703" style="stroke:#181818;stroke-width:1.0;"/><line style="stroke:#181818;stroke-width:1.0;" x1="824.5" x2="1166.5" y1="327.0703" y2="327.0703"/><text fill="#000000" font-family="sans-serif" font-size="13" font-weight="bold" lengthAdjust="spacing" textLength="7" x="831.5" y="322.2139">7</text><text fill="#000000" font-family="sans-serif" font-size="13" lengthAdjust="spacing" textLength="318" x="842.5" y="322.2139">vaccinationCenter = getVaccinationCenters().get(index)</text><polygon fill="#181818" points="802.5,383.4219,812.5,387.4219,802.5,391.4219,806.5,387.4219" style="stroke:#181818;stroke-width:1.0;"/><line style="stroke:#181818;stroke-width:1.0;" x1="451.5" x2="808.5" y1="387.4219" y2="387.4219"/><text fill="#000000" font-family="sans-serif" font-size="13" font-weight="bold" lengthAdjust="spacing" textLength="7" x="458.5" y="382.5654">8</text><text fill="#000000" font-family="sans-serif" font-size="13" lengthAdjust="spacing" textLength="186" x="469.5" y="382.5654">setArrivalsList = getArrivalsList()</text><polygon fill="#181818" points="1276.5,413.7734,1286.5,417.7734,1276.5,421.7734,1280.5,417.7734" style="stroke:#181818;stroke-width:1.0;"/><line style="stroke:#181818;stroke-width:1.0;" x1="824.5" x2="1282.5" y1="417.7734" y2="417.7734"/><text fill="#000000" font-family="sans-serif" font-size="13" font-weight="bold" lengthAdjust="spacing" textLength="7" x="831.5" y="412.917">9</text><text fill="#000000" font-family="sans-serif" font-size="13" lengthAdjust="spacing" textLength="166" x="842.5" y="412.917">arrivalsList = getArrivalsList()</text><polygon fill="#181818" points="67.5,474.125,57.5,478.125,67.5,482.125,63.5,478.125" style="stroke:#181818;stroke-width:1.0;"/><line style="stroke:#181818;stroke-width:1.0;stroke-dasharray:2.0,2.0;" x1="61.5" x2="445.5" y1="478.125" y2="478.125"/><text fill="#000000" font-family="sans-serif" font-size="13" font-weight="bold" lengthAdjust="spacing" textLength="14" x="73.5" y="473.2686">10</text><text fill="#000000" font-family="sans-serif" font-size="13" lengthAdjust="spacing" textLength="286" x="91.5" y="473.2686">shows a list with the users available in arrivals list</text><polygon fill="#181818" points="429.5,504.4766,439.5,508.4766,429.5,512.4766,433.5,508.4766" style="stroke:#181818;stroke-width:1.0;"/><line style="stroke:#181818;stroke-width:1.0;" x1="56.5" x2="435.5" y1="508.4766" y2="508.4766"/><text fill="#000000" font-family="sans-serif" font-size="13" font-weight="bold" lengthAdjust="spacing" textLength="14" x="63.5" y="503.6201">11</text><text fill="#000000" font-family="sans-serif" font-size="13" lengthAdjust="spacing" textLength="96" x="81.5" y="503.6201">selects one user</text><polygon fill="#181818" points="802.5,534.8281,812.5,538.8281,802.5,542.8281,806.5,538.8281" style="stroke:#181818;stroke-width:1.0;"/><line style="stroke:#181818;stroke-width:1.0;" x1="451.5" x2="808.5" y1="538.8281" y2="538.8281"/><text fill="#000000" font-family="sans-serif" font-size="13" font-weight="bold" lengthAdjust="spacing" textLength="14" x="458.5" y="533.9717">12</text><text fill="#000000" font-family="sans-serif" font-size="13" lengthAdjust="spacing" textLength="220" x="476.5" y="533.9717">setVaccineType(arrivalsListUserIndex)</text><line style="stroke:#181818;stroke-width:1.0;" x1="824.5" x2="866.5" y1="569.1797" y2="569.1797"/><line style="stroke:#181818;stroke-width:1.0;" x1="866.5" x2="866.5" y1="569.1797" y2="582.1797"/><line style="stroke:#181818;stroke-width:1.0;" x1="825.5" x2="866.5" y1="582.1797" y2="582.1797"/><polygon fill="#181818" points="835.5,578.1797,825.5,582.1797,835.5,586.1797,831.5,582.1797" style="stroke:#181818;stroke-width:1.0;"/><text fill="#000000" font-family="sans-serif" font-size="13" font-weight="bold" lengthAdjust="spacing" textLength="14" x="831.5" y="564.3232">13</text><text fill="#000000" font-family="sans-serif" font-size="13" lengthAdjust="spacing" textLength="252" x="849.5" y="564.3232">doseNumber = findLastDoseOfVaccineType</text><path d="M10,597.1797 L71,597.1797 L71,605.5313 L61,615.5313 L10,615.5313 L10,597.1797 " fill="#EEEEEE" style="stroke:#000000;stroke-width:1.5;"/><rect fill="none" height="306.1641" style="stroke:#000000;stroke-width:1.5;" width="1451.5" x="10" y="597.1797"/><text fill="#000000" font-family="sans-serif" font-size="13" font-weight="bold" lengthAdjust="spacing" textLength="16" x="25" y="611.6748">alt</text><text fill="#000000" font-family="sans-serif" font-size="11" font-weight="bold" lengthAdjust="spacing" textLength="123" x="86" y="610.5986">[It´s user´s first dose]</text><polygon fill="#181818" points="802.5,633.8828,812.5,637.8828,802.5,641.8828,806.5,637.8828" style="stroke:#181818;stroke-width:1.0;"/><line style="stroke:#181818;stroke-width:1.0;" x1="451.5" x2="808.5" y1="637.8828" y2="637.8828"/><text fill="#000000" font-family="sans-serif" font-size="13" font-weight="bold" lengthAdjust="spacing" textLength="14" x="458.5" y="633.0264">14</text><text fill="#000000" font-family="sans-serif" font-size="13" lengthAdjust="spacing" textLength="208" x="476.5" y="633.0264">vaccineList = getVaccineNameList()</text><polygon fill="#181818" points="1160.5,664.2344,1170.5,668.2344,1160.5,672.2344,1164.5,668.2344" style="stroke:#181818;stroke-width:1.0;"/><line style="stroke:#181818;stroke-width:1.0;" x1="824.5" x2="1166.5" y1="668.2344" y2="668.2344"/><text fill="#000000" font-family="sans-serif" font-size="13" font-weight="bold" lengthAdjust="spacing" textLength="14" x="831.5" y="663.3779">15</text><text fill="#000000" font-family="sans-serif" font-size="13" lengthAdjust="spacing" textLength="174" x="849.5" y="663.3779">vaccineList = getVaccineList()</text><path d="M20,713.2344 L93,713.2344 L93,721.5859 L83,731.5859 L20,731.5859 L20,713.2344 " fill="#EEEEEE" style="stroke:#000000;stroke-width:1.5;"/><rect fill="none" height="183.1094" style="stroke:#000000;stroke-width:1.5;" width="1431.5" x="20" y="713.2344"/><text fill="#000000" font-family="sans-serif" font-size="13" font-weight="bold" lengthAdjust="spacing" textLength="28" x="35" y="727.7295">loop</text><text fill="#000000" font-family="sans-serif" font-size="11" font-weight="bold" lengthAdjust="spacing" textLength="143" x="108" y="726.6533">[Validate User Age Group]</text><polygon fill="#181818" points="67.5,749.9375,57.5,753.9375,67.5,757.9375,63.5,753.9375" style="stroke:#181818;stroke-width:1.0;"/><line style="stroke:#181818;stroke-width:1.0;stroke-dasharray:2.0,2.0;" x1="61.5" x2="440.5" y1="753.9375" y2="753.9375"/><text fill="#000000" font-family="sans-serif" font-size="13" font-weight="bold" lengthAdjust="spacing" textLength="14" x="73.5" y="749.0811">16</text><text fill="#000000" font-family="sans-serif" font-size="13" lengthAdjust="spacing" textLength="225" x="91.5" y="749.0811">shows a list with the available vaccines</text><polygon fill="#181818" points="429.5,780.2891,439.5,784.2891,429.5,788.2891,433.5,784.2891" style="stroke:#181818;stroke-width:1.0;"/><line style="stroke:#181818;stroke-width:1.0;" x1="56.5" x2="435.5" y1="784.2891" y2="784.2891"/><text fill="#000000" font-family="sans-serif" font-size="13" font-weight="bold" lengthAdjust="spacing" textLength="14" x="63.5" y="779.4326">17</text><text fill="#000000" font-family="sans-serif" font-size="13" lengthAdjust="spacing" textLength="114" x="81.5" y="779.4326">selects one vaccine</text><polygon fill="#181818" points="802.5,810.6406,812.5,814.6406,802.5,818.6406,806.5,814.6406" style="stroke:#181818;stroke-width:1.0;"/><line style="stroke:#181818;stroke-width:1.0;" x1="451.5" x2="808.5" y1="814.6406" y2="814.6406"/><text fill="#000000" font-family="sans-serif" font-size="13" font-weight="bold" lengthAdjust="spacing" textLength="14" x="458.5" y="809.7842">18</text><text fill="#000000" font-family="sans-serif" font-size="13" lengthAdjust="spacing" textLength="239" x="476.5" y="809.7842">vaccineName = vaccineList(vaccineIndex)</text><polygon fill="#181818" points="1394,840.9922,1404,844.9922,1394,848.9922,1398,844.9922" style="stroke:#181818;stroke-width:1.0;"/><line style="stroke:#181818;stroke-width:1.0;" x1="824.5" x2="1400" y1="844.9922" y2="844.9922"/><text fill="#000000" font-family="sans-serif" font-size="13" font-weight="bold" lengthAdjust="spacing" textLength="14" x="831.5" y="840.1357">19</text><text fill="#000000" font-family="sans-serif" font-size="13" lengthAdjust="spacing" textLength="215" x="849.5" y="840.1357">userAge = snsUser.getSnsUserAge()</text><line style="stroke:#181818;stroke-width:1.0;" x1="824.5" x2="866.5" y1="875.3438" y2="875.3438"/><line style="stroke:#181818;stroke-width:1.0;" x1="866.5" x2="866.5" y1="875.3438" y2="888.3438"/><line style="stroke:#181818;stroke-width:1.0;" x1="825.5" x2="866.5" y1="888.3438" y2="888.3438"/><polygon fill="#181818" points="835.5,884.3438,825.5,888.3438,835.5,892.3438,831.5,888.3438" style="stroke:#181818;stroke-width:1.0;"/><text fill="#000000" font-family="sans-serif" font-size="13" font-weight="bold" lengthAdjust="spacing" textLength="14" x="831.5" y="870.4873">20</text><text fill="#000000" font-family="sans-serif" font-size="13" lengthAdjust="spacing" textLength="133" x="849.5" y="870.4873">validate user age group</text><polygon fill="#181818" points="67.5,928.6953,57.5,932.6953,67.5,936.6953,63.5,932.6953" style="stroke:#181818;stroke-width:1.0;"/><line style="stroke:#181818;stroke-width:1.0;stroke-dasharray:2.0,2.0;" x1="61.5" x2="440.5" y1="932.6953" y2="932.6953"/><text fill="#000000" font-family="sans-serif" font-size="13" font-weight="bold" lengthAdjust="spacing" textLength="14" x="73.5" y="927.8389">21</text><text fill="#000000" font-family="sans-serif" font-size="13" lengthAdjust="spacing" textLength="195" x="91.5" y="927.8389">shows dosage for respective dose</text><path d="M20,947.6953 L93,947.6953 L93,956.0469 L83,966.0469 L20,966.0469 L20,947.6953 " fill="#EEEEEE" style="stroke:#000000;stroke-width:1.5;"/><rect fill="none" height="152.7578" style="stroke:#000000;stroke-width:1.5;" width="1007.5" x="20" y="947.6953"/><text fill="#000000" font-family="sans-serif" font-size="13" font-weight="bold" lengthAdjust="spacing" textLength="28" x="35" y="962.1904">loop</text><text fill="#000000" font-family="sans-serif" font-size="11" font-weight="bold" lengthAdjust="spacing" textLength="120" x="108" y="961.1143">[Validate Lot Number]</text><polygon fill="#181818" points="67.5,984.3984,57.5,988.3984,67.5,992.3984,63.5,988.3984" style="stroke:#181818;stroke-width:1.0;"/><line style="stroke:#181818;stroke-width:1.0;stroke-dasharray:2.0,2.0;" x1="61.5" x2="440.5" y1="988.3984" y2="988.3984"/><text fill="#000000" font-family="sans-serif" font-size="13" font-weight="bold" lengthAdjust="spacing" textLength="14" x="73.5" y="983.542">22</text><text fill="#000000" font-family="sans-serif" font-size="13" lengthAdjust="spacing" textLength="173" x="91.5" y="983.542">requests vaccine´s lot number</text><polygon fill="#181818" points="429.5,1014.75,439.5,1018.75,429.5,1022.75,433.5,1018.75" style="stroke:#181818;stroke-width:1.0;"/><line style="stroke:#181818;stroke-width:1.0;" x1="56.5" x2="435.5" y1="1018.75" y2="1018.75"/><text fill="#000000" font-family="sans-serif" font-size="13" font-weight="bold" lengthAdjust="spacing" textLength="14" x="63.5" y="1013.8936">23</text><text fill="#000000" font-family="sans-serif" font-size="13" lengthAdjust="spacing" textLength="183" x="81.5" y="1013.8936">introduces vaccine´s lot number</text><polygon fill="#181818" points="802.5,1045.1016,812.5,1049.1016,802.5,1053.1016,806.5,1049.1016" style="stroke:#181818;stroke-width:1.0;"/><line style="stroke:#181818;stroke-width:1.0;" x1="451.5" x2="808.5" y1="1049.1016" y2="1049.1016"/><text fill="#000000" font-family="sans-serif" font-size="13" font-weight="bold" lengthAdjust="spacing" textLength="14" x="458.5" y="1044.2451">24</text><text fill="#000000" font-family="sans-serif" font-size="13" lengthAdjust="spacing" textLength="119" x="476.5" y="1044.2451">vaccine´s lot number</text><line style="stroke:#181818;stroke-width:1.0;" x1="824.5" x2="866.5" y1="1079.4531" y2="1079.4531"/><line style="stroke:#181818;stroke-width:1.0;" x1="866.5" x2="866.5" y1="1079.4531" y2="1092.4531"/><line style="stroke:#181818;stroke-width:1.0;" x1="825.5" x2="866.5" y1="1092.4531" y2="1092.4531"/><polygon fill="#181818" points="835.5,1088.4531,825.5,1092.4531,835.5,1096.4531,831.5,1092.4531" style="stroke:#181818;stroke-width:1.0;"/><text fill="#000000" font-family="sans-serif" font-size="13" font-weight="bold" lengthAdjust="spacing" textLength="14" x="831.5" y="1074.5967">25</text><text fill="#000000" font-family="sans-serif" font-size="13" lengthAdjust="spacing" textLength="166" x="849.5" y="1074.5967">validate vaccine´s lot number</text><polygon fill="#181818" points="802.5,1125.8047,812.5,1129.8047,802.5,1133.8047,806.5,1129.8047" style="stroke:#181818;stroke-width:1.0;"/><line style="stroke:#181818;stroke-width:1.0;" x1="451.5" x2="808.5" y1="1129.8047" y2="1129.8047"/><text fill="#000000" font-family="sans-serif" font-size="13" font-weight="bold" lengthAdjust="spacing" textLength="14" x="458.5" y="1124.9482">26</text><text fill="#000000" font-family="sans-serif" font-size="13" lengthAdjust="spacing" textLength="118" x="476.5" y="1124.9482">VaccineBulletinDto()</text><polygon fill="#181818" points="1389,1156.1563,1399,1160.1563,1389,1164.1563,1393,1160.1563" style="stroke:#181818;stroke-width:1.0;"/><line style="stroke:#181818;stroke-width:1.0;" x1="824.5" x2="1395" y1="1160.1563" y2="1160.1563"/><text fill="#000000" font-family="sans-serif" font-size="13" font-weight="bold" lengthAdjust="spacing" textLength="14" x="831.5" y="1155.2998">27</text><text fill="#000000" font-family="sans-serif" font-size="13" lengthAdjust="spacing" textLength="209" x="849.5" y="1155.2998">addVaccineBulletin(VaccineBulletin)</text><polygon fill="#181818" points="1645,1186.5078,1655,1190.5078,1645,1194.5078,1649,1190.5078" style="stroke:#181818;stroke-width:1.0;"/><line style="stroke:#181818;stroke-width:1.0;" x1="1411" x2="1651" y1="1190.5078" y2="1190.5078"/><text fill="#000000" font-family="sans-serif" font-size="13" font-weight="bold" lengthAdjust="spacing" textLength="14" x="1418" y="1185.6514">28</text><text fill="#000000" font-family="sans-serif" font-size="13" lengthAdjust="spacing" textLength="209" x="1436" y="1185.6514">addVaccineBulletin(VaccineBulletin)</text><polygon fill="#181818" points="802.5,1216.8594,812.5,1220.8594,802.5,1224.8594,806.5,1220.8594" style="stroke:#181818;stroke-width:1.0;"/><line style="stroke:#181818;stroke-width:1.0;" x1="451.5" x2="808.5" y1="1220.8594" y2="1220.8594"/><text fill="#000000" font-family="sans-serif" font-size="13" font-weight="bold" lengthAdjust="spacing" textLength="14" x="458.5" y="1216.0029">29</text><text fill="#000000" font-family="sans-serif" font-size="13" lengthAdjust="spacing" textLength="114" x="476.5" y="1216.0029">printRecoveryTime()</text><polygon fill="#181818" points="62.5,1247.2109,52.5,1251.2109,62.5,1255.2109,58.5,1251.2109" style="stroke:#181818;stroke-width:1.0;"/><line style="stroke:#181818;stroke-width:1.0;stroke-dasharray:2.0,2.0;" x1="56.5" x2="445.5" y1="1251.2109" y2="1251.2109"/><text fill="#000000" font-family="sans-serif" font-size="13" font-weight="bold" lengthAdjust="spacing" textLength="14" x="68.5" y="1246.3545">30</text><text fill="#000000" font-family="sans-serif" font-size="13" lengthAdjust="spacing" textLength="278" x="86.5" y="1246.3545">informs that vaccine administration is completed</text><!--MD5=[e749fd3a8479f4936e4fc4b9056b407e]
@startuml

autonumber

actor Nurse as N

participant ":RecordVaccineAdministrationUI" as UI
participant ":RecordVaccineAdministrationController" as CTRL
participant "company\n:Company" as C
participant "vaccinationCenter\n:VaccinationCenter" as VC
participant "snsUser\n:SnsUser" as SU
participant "vaccineBulletinList\nList<VaccineBulletin>" as L

activate N
N -> UI : asks to record the administration of a vaccine to an SNS user
activate UI

UI -> CTRL : vaccinationCenterList = getVaccinationCentersNameList()
activate CTRL
CTRL -> C : vaccinationCenterList = getVaccinationCenters()
activate C
deactivate CTRL
deactivate C

UI - -> N : shows a list with the available vaccination centers
deactivate UI

N -> UI : selects one vaccination center
activate UI
UI -> CTRL : setVaccinationCenter(vaccinationCenterIndex)
activate CTRL
CTRL -> C : vaccinationCenter = getVaccinationCenters().get(index)
activate C
deactivate C
deactivate CTRL

UI -> CTRL : setArrivalsList = getArrivalsList()
activate CTRL
CTRL -> VC : arrivalsList = getArrivalsList()

activate VC
deactivate VC
deactivate CTRL

 UI - -> N : shows a list with the users available in arrivals list
deactivate UI
N -> UI : selects one user

activate UI
UI -> CTRL : setVaccineType(arrivalsListUserIndex)
activate CTRL
CTRL -> CTRL : doseNumber = findLastDoseOfVaccineType
alt It´s user´s first dose
UI -> CTRL : vaccineList = getVaccineNameList()
CTRL -> C : vaccineList = getVaccineList()
activate C
deactivate C
loop Validate User Age Group
UI - -> N : shows a list with the available vaccines
N -> UI : selects one vaccine
UI -> CTRL : vaccineName = vaccineList(vaccineIndex)
CTRL -> SU : userAge = snsUser.getSnsUserAge()
CTRL -> CTRL : validate user age group
end
end
deactivate CTRL
UI - -> N : shows dosage for respective dose
loop Validate Lot Number
UI - -> N :requests vaccine´s lot number
N -> UI : introduces vaccine´s lot number

UI -> CTRL : vaccine´s lot number
activate CTRL
CTRL -> CTRL : validate vaccine´s lot number

end

UI -> CTRL : VaccineBulletinDto()

CTRL -> SU : addVaccineBulletin(VaccineBulletin)
activate SU
SU -> L : addVaccineBulletin(VaccineBulletin)
activate L

UI -> CTRL : printRecoveryTime()

UI - -> N : informs that vaccine administration is completed
deactivate L
deactivate SU
deactivate CTRL
deactivate UI
deactivate N
@enduml

PlantUML version 1.2022.5(Sat Apr 30 11:55:52 BST 2022)
(GPL source distribution)
Java Runtime: OpenJDK Runtime Environment
JVM: OpenJDK 64-Bit Server VM
Default Encoding: Cp1252
Language: en
Country: US
--></g></svg>