<?xml version="1.0" encoding="UTF-8" standalone="no"?><svg xmlns="http://www.w3.org/2000/svg" xmlns:xlink="http://www.w3.org/1999/xlink" contentStyleType="text/css" height="699.6px" preserveAspectRatio="none" style="width:626px;height:699px;background:#FFFFFF;" version="1.1" viewBox="0 0 626 699" width="626.4px" zoomAndPan="magnify"><defs/><g><rect fill="#FFFFFF" height="468.6844" style="stroke:#181818;stroke-width:1.2;" width="12" x="43.8" y="111.1313"/><rect fill="#FFFFFF" height="36.4219" style="stroke:#181818;stroke-width:1.2;" width="12" x="563.4" y="137.9531"/><rect fill="#FFFFFF" height="36.4219" style="stroke:#181818;stroke-width:1.2;" width="12" x="563.4" y="210.7969"/><rect fill="#FFFFFF" height="296.175" style="stroke:#181818;stroke-width:1.2;" width="12" x="563.4" y="283.6406"/><rect height="94.8656" style="stroke:#000000;stroke-width:1.7999999999999998;fill:none;" width="607.8" x="12" y="301.6406"/><rect height="94.8656" style="stroke:#000000;stroke-width:1.7999999999999998;fill:none;" width="607.8" x="12" y="449.7281"/><line style="stroke:#181818;stroke-width:0.6;fill:none;stroke-dasharray:5.0,5.0;" x1="49.2" x2="49.2" y1="99.1313" y2="601.4156"/><line style="stroke:#181818;stroke-width:0.6;fill:none;stroke-dasharray:5.0,5.0;" x1="569.4" x2="569.4" y1="99.1313" y2="601.4156"/><text fill="#000000" font-family="sans-serif" font-size="16.8" lengthAdjust="spacing" textLength="44.4" x="24" y="95.4398">Nurse</text><ellipse cx="49.8" cy="16.2" fill="#E2E2F0" rx="9.6" ry="9.6" style="stroke:#181818;stroke-width:0.6;"/><path d="M49.8,25.8 L49.8,58.2 M34.2,35.4 L65.4,35.4 M49.8,58.2 L34.2,76.2 M49.8,58.2 L65.4,76.2 " fill="none" style="stroke:#181818;stroke-width:0.6;"/><text fill="#000000" font-family="sans-serif" font-size="16.8" lengthAdjust="spacing" textLength="44.4" x="24" y="617.6555">Nurse</text><ellipse cx="49.8" cy="631.5469" fill="#E2E2F0" rx="9.6" ry="9.6" style="stroke:#181818;stroke-width:0.6;"/><path d="M49.8,641.1469 L49.8,673.5469 M34.2,650.7469 L65.4,650.7469 M49.8,673.5469 L34.2,691.5469 M49.8,673.5469 L65.4,691.5469 " fill="none" style="stroke:#181818;stroke-width:0.6;"/><rect fill="#E2E2F0" height="37.9313" rx="3" ry="3" style="stroke:#181818;stroke-width:0.6;" width="76.8" x="531" y="60"/><text fill="#000000" font-family="sans-serif" font-size="16.8" lengthAdjust="spacing" textLength="60" x="539.4" y="85.8398">:System</text><rect fill="#E2E2F0" height="37.9313" rx="3" ry="3" style="stroke:#181818;stroke-width:0.6;" width="76.8" x="531" y="600.2156"/><text fill="#000000" font-family="sans-serif" font-size="16.8" lengthAdjust="spacing" textLength="60" x="539.4" y="626.0555">:System</text><rect fill="#FFFFFF" height="468.6844" style="stroke:#181818;stroke-width:1.2;" width="12" x="43.8" y="111.1313"/><rect fill="#FFFFFF" height="36.4219" style="stroke:#181818;stroke-width:1.2;" width="12" x="563.4" y="137.9531"/><rect fill="#FFFFFF" height="36.4219" style="stroke:#181818;stroke-width:1.2;" width="12" x="563.4" y="210.7969"/><rect fill="#FFFFFF" height="296.175" style="stroke:#181818;stroke-width:1.2;" width="12" x="563.4" y="283.6406"/><polygon fill="#181818" points="549,133.1531,561,137.9531,549,142.7531,553.8,137.9531" style="stroke:#181818;stroke-width:1.2;"/><line style="stroke:#181818;stroke-width:1.2;" x1="55.8" x2="556.2" y1="137.9531" y2="137.9531"/><text fill="#000000" font-family="sans-serif" font-size="15.6" font-weight="bold" lengthAdjust="spacing" textLength="8.4" x="64.2" y="132.1254">1</text><text fill="#000000" font-family="sans-serif" font-size="15.6" lengthAdjust="spacing" textLength="426" x="77.4" y="132.1254">asks to record the administration of a vaccine to an SNS user</text><polygon fill="#181818" points="69,169.575,57,174.375,69,179.175,64.2,174.375" style="stroke:#181818;stroke-width:1.2;"/><line style="stroke:#181818;stroke-width:1.2;stroke-dasharray:2.0,2.0;" x1="61.8" x2="568.2" y1="174.375" y2="174.375"/><text fill="#000000" font-family="sans-serif" font-size="15.6" font-weight="bold" lengthAdjust="spacing" textLength="8.4" x="76.2" y="168.5473">2</text><text fill="#000000" font-family="sans-serif" font-size="15.6" lengthAdjust="spacing" textLength="334.8" x="89.4" y="168.5473">shows a list with the available vacciation centers</text><polygon fill="#181818" points="549,205.9969,561,210.7969,549,215.5969,553.8,210.7969" style="stroke:#181818;stroke-width:1.2;"/><line style="stroke:#181818;stroke-width:1.2;" x1="55.8" x2="556.2" y1="210.7969" y2="210.7969"/><text fill="#000000" font-family="sans-serif" font-size="15.6" font-weight="bold" lengthAdjust="spacing" textLength="8.4" x="64.2" y="204.9691">3</text><text fill="#000000" font-family="sans-serif" font-size="15.6" lengthAdjust="spacing" textLength="206.4" x="77.4" y="204.9691">selects the vaccination center</text><polygon fill="#181818" points="69,242.4188,57,247.2188,69,252.0187,64.2,247.2188" style="stroke:#181818;stroke-width:1.2;"/><line style="stroke:#181818;stroke-width:1.2;stroke-dasharray:2.0,2.0;" x1="61.8" x2="568.2" y1="247.2188" y2="247.2188"/><text fill="#000000" font-family="sans-serif" font-size="15.6" font-weight="bold" lengthAdjust="spacing" textLength="8.4" x="76.2" y="241.391">4</text><text fill="#000000" font-family="sans-serif" font-size="15.6" lengthAdjust="spacing" textLength="465.6" x="89.4" y="241.391">shows a list with the available SNS users (From the Waiting Room)</text><polygon fill="#181818" points="549,278.8406,561,283.6406,549,288.4406,553.8,283.6406" style="stroke:#181818;stroke-width:1.2;"/><line style="stroke:#181818;stroke-width:1.2;" x1="55.8" x2="556.2" y1="283.6406" y2="283.6406"/><text fill="#000000" font-family="sans-serif" font-size="15.6" font-weight="bold" lengthAdjust="spacing" textLength="8.4" x="64.2" y="277.8129">5</text><text fill="#000000" font-family="sans-serif" font-size="15.6" lengthAdjust="spacing" textLength="144" x="77.4" y="277.8129">selects an SNS user</text><path d="M12,301.6406 L85.2,301.6406 L85.2,311.6625 L73.2,323.6625 L12,323.6625 L12,301.6406 " fill="#EEEEEE" style="stroke:#000000;stroke-width:1.7999999999999998;"/><rect fill="none" height="94.8656" style="stroke:#000000;stroke-width:1.7999999999999998;" width="607.8" x="12" y="301.6406"/><text fill="#000000" font-family="sans-serif" font-size="15.6" font-weight="bold" lengthAdjust="spacing" textLength="19.2" x="30" y="319.0348">alt</text><text fill="#000000" font-family="sans-serif" font-size="13.2" font-weight="bold" lengthAdjust="spacing" textLength="147.6" x="103.2" y="317.7434">[It´s user´s first dose]</text><polygon fill="#181818" points="69,345.6844,57,350.4844,69,355.2844,64.2,350.4844" style="stroke:#181818;stroke-width:1.2;"/><line style="stroke:#181818;stroke-width:1.2;stroke-dasharray:2.0,2.0;" x1="61.8" x2="562.2" y1="350.4844" y2="350.4844"/><text fill="#000000" font-family="sans-serif" font-size="15.6" font-weight="bold" lengthAdjust="spacing" textLength="8.4" x="76.2" y="344.6566">6</text><text fill="#000000" font-family="sans-serif" font-size="15.6" lengthAdjust="spacing" textLength="270" x="89.4" y="344.6566">shows a list with the available vaccines</text><polygon fill="#181818" points="549,382.1063,561,386.9063,549,391.7063,553.8,386.9063" style="stroke:#181818;stroke-width:1.2;"/><line style="stroke:#181818;stroke-width:1.2;" x1="55.8" x2="556.2" y1="386.9063" y2="386.9063"/><text fill="#000000" font-family="sans-serif" font-size="15.6" font-weight="bold" lengthAdjust="spacing" textLength="8.4" x="64.2" y="381.0785">7</text><text fill="#000000" font-family="sans-serif" font-size="15.6" lengthAdjust="spacing" textLength="120" x="77.4" y="381.0785">selects a vaccine</text><polygon fill="#181818" points="69,426.9281,57,431.7281,69,436.5281,64.2,431.7281" style="stroke:#181818;stroke-width:1.2;"/><line style="stroke:#181818;stroke-width:1.2;stroke-dasharray:2.0,2.0;" x1="61.8" x2="562.2" y1="431.7281" y2="431.7281"/><text fill="#000000" font-family="sans-serif" font-size="15.6" font-weight="bold" lengthAdjust="spacing" textLength="8.4" x="76.2" y="425.9004">8</text><text fill="#000000" font-family="sans-serif" font-size="15.6" lengthAdjust="spacing" textLength="312" x="89.4" y="425.9004">shows dosage for current dose of the vaccine</text><path d="M12,449.7281 L99.6,449.7281 L99.6,459.75 L87.6,471.75 L12,471.75 L12,449.7281 " fill="#EEEEEE" style="stroke:#000000;stroke-width:1.7999999999999998;"/><rect fill="none" height="94.8656" style="stroke:#000000;stroke-width:1.7999999999999998;" width="607.8" x="12" y="449.7281"/><text fill="#000000" font-family="sans-serif" font-size="15.6" font-weight="bold" lengthAdjust="spacing" textLength="33.6" x="30" y="467.1223">loop</text><text fill="#000000" font-family="sans-serif" font-size="13.2" font-weight="bold" lengthAdjust="spacing" textLength="144" x="117.6" y="465.8309">[Validate Lot Number]</text><polygon fill="#181818" points="69,493.7719,57,498.5719,69,503.3719,64.2,498.5719" style="stroke:#181818;stroke-width:1.2;"/><line style="stroke:#181818;stroke-width:1.2;stroke-dasharray:2.0,2.0;" x1="61.8" x2="562.2" y1="498.5719" y2="498.5719"/><text fill="#000000" font-family="sans-serif" font-size="15.6" font-weight="bold" lengthAdjust="spacing" textLength="8.4" x="76.2" y="492.7441">9</text><text fill="#000000" font-family="sans-serif" font-size="15.6" lengthAdjust="spacing" textLength="199.2" x="89.4" y="492.7441">request vaccine´s lot number</text><polygon fill="#181818" points="549,530.1938,561,534.9938,549,539.7937,553.8,534.9938" style="stroke:#181818;stroke-width:1.2;"/><line style="stroke:#181818;stroke-width:1.2;" x1="55.8" x2="556.2" y1="534.9938" y2="534.9938"/><text fill="#000000" font-family="sans-serif" font-size="15.6" font-weight="bold" lengthAdjust="spacing" textLength="16.8" x="64.2" y="529.166">10</text><text fill="#000000" font-family="sans-serif" font-size="15.6" lengthAdjust="spacing" textLength="219.6" x="85.8" y="529.166">introduces vaccine´s lot number</text><polygon fill="#181818" points="63,575.0156,51,579.8156,63,584.6156,58.2,579.8156" style="stroke:#181818;stroke-width:1.2;"/><line style="stroke:#181818;stroke-width:1.2;stroke-dasharray:2.0,2.0;" x1="55.8" x2="568.2" y1="579.8156" y2="579.8156"/><text fill="#000000" font-family="sans-serif" font-size="15.6" font-weight="bold" lengthAdjust="spacing" textLength="16.8" x="70.2" y="573.9879">11</text><text fill="#000000" font-family="sans-serif" font-size="15.6" lengthAdjust="spacing" textLength="303.6" x="91.8" y="573.9879">send´s an SMS when recovery time finishes</text><!--MD5=[4a6a37c59ee6501ad5937a4d7fcf48a1]
@startuml

autonumber
actor "Nurse" as N

activate N
N -> ":System" : asks to record the administration of a vaccine to an SNS user

activate ":System"
":System" - -> N : shows a list with the available vacciation centers
deactivate ":System"
N -> ":System" : selects the vaccination center

activate ":System"
":System" - -> N : shows a list with the available SNS users (From the Waiting Room)
deactivate ":System"
N -> ":System" : selects an SNS user

activate ":System"
alt It´s user´s first dose
":System" - -> N : shows a list with the available vaccines

N -> ":System" : selects a vaccine
end

activate ":System"
":System" - -> N : shows dosage for current dose of the vaccine
loop Validate Lot Number
":System" - -> N : request vaccine´s lot number
N -> ":System" : introduces vaccine´s lot number
end

":System" - -> N : send´s an SMS when recovery time finishes
deactivate ":System"

deactivate N

@enduml

PlantUML version 1.2022.5(Sat Apr 30 11:55:52 BST 2022)
(GPL source distribution)
Java Runtime: OpenJDK Runtime Environment
JVM: OpenJDK 64-Bit Server VM
Default Encoding: Cp1252
Language: en
Country: US
--></g></svg>