<?xml version="1.0" encoding="UTF-8" standalone="no"?><svg xmlns="http://www.w3.org/2000/svg" xmlns:xlink="http://www.w3.org/1999/xlink" contentStyleType="text/css" height="1439px" preserveAspectRatio="none" style="width:1806px;height:1439px;background:#FFFFFF;" version="1.1" viewBox="0 0 1806 1439" width="1806px" zoomAndPan="magnify"><defs/><g><rect fill="#FFFFFF" height="1246.6016" style="stroke:#181818;stroke-width:1.0;" width="10" x="46.5" y="92.6094"/><rect fill="#FFFFFF" height="121.0547" style="stroke:#181818;stroke-width:1.0;" width="10" x="441.5" y="114.9609"/><rect fill="#FFFFFF" height="211.7578" style="stroke:#181818;stroke-width:1.0;" width="10" x="441.5" y="266.3672"/><rect fill="#FFFFFF" height="288.8125" style="stroke:#181818;stroke-width:1.0;" width="10" x="441.5" y="508.4766"/><rect fill="#FFFFFF" height="269.1094" style="stroke:#181818;stroke-width:1.0;" width="10" x="441.5" y="827.6406"/><rect fill="#FFFFFF" height="212.1094" style="stroke:#181818;stroke-width:1.0;" width="10" x="441.5" y="1127.1016"/><rect fill="#FFFFFF" height="60.3516" style="stroke:#181818;stroke-width:1.0;" width="10" x="814.5" y="145.3125"/><rect fill="#FFFFFF" height="60.3516" style="stroke:#181818;stroke-width:1.0;" width="10" x="814.5" y="296.7188"/><rect fill="#FFFFFF" height="60.3516" style="stroke:#181818;stroke-width:1.0;" width="10" x="814.5" y="387.4219"/><rect fill="#FFFFFF" height="505.2188" style="stroke:#181818;stroke-width:1.0;" width="10" x="814.5" y="538.8281"/><rect fill="#FFFFFF" height="181.7578" style="stroke:#181818;stroke-width:1.0;" width="10" x="814.5" y="1157.4531"/><rect fill="#FFFFFF" height="30" style="stroke:#181818;stroke-width:1.0;" width="10" x="1236.5" y="175.6641"/><rect fill="#FFFFFF" height="30" style="stroke:#181818;stroke-width:1.0;" width="10" x="1236.5" y="327.0703"/><rect fill="#FFFFFF" height="30" style="stroke:#181818;stroke-width:1.0;" width="10" x="1236.5" y="711.5859"/><rect fill="#FFFFFF" height="30" style="stroke:#181818;stroke-width:1.0;" width="10" x="1236.5" y="888.3438"/><rect fill="#FFFFFF" height="30" style="stroke:#181818;stroke-width:1.0;" width="10" x="1352.5" y="417.7734"/><rect fill="#FFFFFF" height="30" style="stroke:#181818;stroke-width:1.0;" width="10" x="1465" y="948.6953"/><rect fill="#FFFFFF" height="60.3516" style="stroke:#181818;stroke-width:1.0;" width="10" x="1465" y="1218.1563"/><rect fill="#FFFFFF" height="30" style="stroke:#181818;stroke-width:1.0;" width="10" x="1721" y="1248.5078"/><rect height="396.5156" style="stroke:#000000;stroke-width:1.5;fill:none;" width="1515.5" x="10" y="640.5313"/><rect height="273.4609" style="stroke:#000000;stroke-width:1.5;fill:none;" width="1495.5" x="20" y="756.5859"/><line style="stroke:#181818;stroke-width:0.5;fill:none;stroke-dasharray:5.0,5.0;" x1="51" x2="51" y1="82.6094" y2="1357.2109"/><line style="stroke:#181818;stroke-width:0.5;fill:none;stroke-dasharray:5.0,5.0;" x1="446" x2="446" y1="82.6094" y2="1357.2109"/><line style="stroke:#181818;stroke-width:0.5;fill:none;stroke-dasharray:5.0,5.0;" x1="819" x2="819" y1="82.6094" y2="1357.2109"/><line style="stroke:#181818;stroke-width:0.5;fill:none;stroke-dasharray:5.0,5.0;" x1="1241.5" x2="1241.5" y1="82.6094" y2="1357.2109"/><line style="stroke:#181818;stroke-width:0.5;fill:none;stroke-dasharray:5.0,5.0;" x1="1357.5" x2="1357.5" y1="82.6094" y2="1357.2109"/><line style="stroke:#181818;stroke-width:0.5;fill:none;stroke-dasharray:5.0,5.0;" x1="1469.5" x2="1469.5" y1="82.6094" y2="1357.2109"/><line style="stroke:#181818;stroke-width:0.5;fill:none;stroke-dasharray:5.0,5.0;" x1="1726" x2="1726" y1="82.6094" y2="1357.2109"/><text fill="#000000" font-family="sans-serif" font-size="14" lengthAdjust="spacing" textLength="37" x="30" y="79.5332">Nurse</text><ellipse cx="51.5" cy="13.5" fill="#E2E2F0" rx="8" ry="8" style="stroke:#181818;stroke-width:0.5;"/><path d="M51.5,21.5 L51.5,48.5 M38.5,29.5 L64.5,29.5 M51.5,48.5 L38.5,63.5 M51.5,48.5 L64.5,63.5 " fill="none" style="stroke:#181818;stroke-width:0.5;"/><text fill="#000000" font-family="sans-serif" font-size="14" lengthAdjust="spacing" textLength="37" x="30" y="1370.7441">Nurse</text><ellipse cx="51.5" cy="1382.3203" fill="#E2E2F0" rx="8" ry="8" style="stroke:#181818;stroke-width:0.5;"/><path d="M51.5,1390.3203 L51.5,1417.3203 M38.5,1398.3203 L64.5,1398.3203 M51.5,1417.3203 L38.5,1432.3203 M51.5,1417.3203 L64.5,1432.3203 " fill="none" style="stroke:#181818;stroke-width:0.5;"/><rect fill="#E2E2F0" height="31.6094" rx="2.5" ry="2.5" style="stroke:#181818;stroke-width:0.5;" width="215" x="339" y="50"/><text fill="#000000" font-family="sans-serif" font-size="14" lengthAdjust="spacing" textLength="201" x="346" y="71.5332">:RecordVaccineAdministrationUI</text><rect fill="#E2E2F0" height="31.6094" rx="2.5" ry="2.5" style="stroke:#181818;stroke-width:0.5;" width="215" x="339" y="1356.2109"/><text fill="#000000" font-family="sans-serif" font-size="14" lengthAdjust="spacing" textLength="201" x="346" y="1377.7441">:RecordVaccineAdministrationUI</text><rect fill="#E2E2F0" height="31.6094" rx="2.5" ry="2.5" style="stroke:#181818;stroke-width:0.5;" width="265" x="687" y="50"/><text fill="#000000" font-family="sans-serif" font-size="14" lengthAdjust="spacing" textLength="251" x="694" y="71.5332">:RecordVaccineAdministrationController</text><rect fill="#E2E2F0" height="31.6094" rx="2.5" ry="2.5" style="stroke:#181818;stroke-width:0.5;" width="265" x="687" y="1356.2109"/><text fill="#000000" font-family="sans-serif" font-size="14" lengthAdjust="spacing" textLength="251" x="694" y="1377.7441">:RecordVaccineAdministrationController</text><rect fill="#E2E2F0" height="49.2188" rx="2.5" ry="2.5" style="stroke:#181818;stroke-width:0.5;" width="78" x="1202.5" y="32.3906"/><text fill="#000000" font-family="sans-serif" font-size="14" lengthAdjust="spacing" textLength="57" x="1213" y="53.9238">company</text><text fill="#000000" font-family="sans-serif" font-size="14" lengthAdjust="spacing" textLength="64" x="1209.5" y="71.5332">:Company</text><rect fill="#E2E2F0" height="49.2188" rx="2.5" ry="2.5" style="stroke:#181818;stroke-width:0.5;" width="78" x="1202.5" y="1356.2109"/><text fill="#000000" font-family="sans-serif" font-size="14" lengthAdjust="spacing" textLength="57" x="1213" y="1377.7441">company</text><text fill="#000000" font-family="sans-serif" font-size="14" lengthAdjust="spacing" textLength="64" x="1209.5" y="1395.3535">:Company</text><rect fill="#E2E2F0" height="49.2188" rx="2.5" ry="2.5" style="stroke:#181818;stroke-width:0.5;" width="134" x="1290.5" y="32.3906"/><text fill="#000000" font-family="sans-serif" font-size="14" lengthAdjust="spacing" textLength="114" x="1300.5" y="53.9238">vaccinationCenter</text><text fill="#000000" font-family="sans-serif" font-size="14" lengthAdjust="spacing" textLength="120" x="1297.5" y="71.5332">:VaccinationCenter</text><rect fill="#E2E2F0" height="49.2188" rx="2.5" ry="2.5" style="stroke:#181818;stroke-width:0.5;" width="134" x="1290.5" y="1356.2109"/><text fill="#000000" font-family="sans-serif" font-size="14" lengthAdjust="spacing" textLength="114" x="1300.5" y="1377.7441">vaccinationCenter</text><text fill="#000000" font-family="sans-serif" font-size="14" lengthAdjust="spacing" textLength="120" x="1297.5" y="1395.3535">:VaccinationCenter</text><rect fill="#E2E2F0" height="49.2188" rx="2.5" ry="2.5" style="stroke:#181818;stroke-width:0.5;" width="71" x="1434.5" y="32.3906"/><text fill="#000000" font-family="sans-serif" font-size="14" lengthAdjust="spacing" textLength="51" x="1444.5" y="53.9238">snsUser</text><text fill="#000000" font-family="sans-serif" font-size="14" lengthAdjust="spacing" textLength="57" x="1441.5" y="71.5332">:SnsUser</text><rect fill="#E2E2F0" height="49.2188" rx="2.5" ry="2.5" style="stroke:#181818;stroke-width:0.5;" width="71" x="1434.5" y="1356.2109"/><text fill="#000000" font-family="sans-serif" font-size="14" lengthAdjust="spacing" textLength="51" x="1444.5" y="1377.7441">snsUser</text><text fill="#000000" font-family="sans-serif" font-size="14" lengthAdjust="spacing" textLength="57" x="1441.5" y="1395.3535">:SnsUser</text><rect fill="#E2E2F0" height="49.2188" rx="2.5" ry="2.5" style="stroke:#181818;stroke-width:0.5;" width="148" x="1652" y="32.3906"/><text fill="#000000" font-family="sans-serif" font-size="14" lengthAdjust="spacing" textLength="116" x="1668" y="53.9238">vaccineBulletinList</text><text fill="#000000" font-family="sans-serif" font-size="14" lengthAdjust="spacing" textLength="134" x="1659" y="71.5332">List&lt;VaccineBulletin&gt;</text><rect fill="#E2E2F0" height="49.2188" rx="2.5" ry="2.5" style="stroke:#181818;stroke-width:0.5;" width="148" x="1652" y="1356.2109"/><text fill="#000000" font-family="sans-serif" font-size="14" lengthAdjust="spacing" textLength="116" x="1668" y="1377.7441">vaccineBulletinList</text><text fill="#000000" font-family="sans-serif" font-size="14" lengthAdjust="spacing" textLength="134" x="1659" y="1395.3535">List&lt;VaccineBulletin&gt;</text><rect fill="#FFFFFF" height="1246.6016" style="stroke:#181818;stroke-width:1.0;" width="10" x="46.5" y="92.6094"/><rect fill="#FFFFFF" height="121.0547" style="stroke:#181818;stroke-width:1.0;" width="10" x="441.5" y="114.9609"/><rect fill="#FFFFFF" height="211.7578" style="stroke:#181818;stroke-width:1.0;" width="10" x="441.5" y="266.3672"/><rect fill="#FFFFFF" height="288.8125" style="stroke:#181818;stroke-width:1.0;" width="10" x="441.5" y="508.4766"/><rect fill="#FFFFFF" height="269.1094" style="stroke:#181818;stroke-width:1.0;" width="10" x="441.5" y="827.6406"/><rect fill="#FFFFFF" height="212.1094" style="stroke:#181818;stroke-width:1.0;" width="10" x="441.5" y="1127.1016"/><rect fill="#FFFFFF" height="60.3516" style="stroke:#181818;stroke-width:1.0;" width="10" x="814.5" y="145.3125"/><rect fill="#FFFFFF" height="60.3516" style="stroke:#181818;stroke-width:1.0;" width="10" x="814.5" y="296.7188"/><rect fill="#FFFFFF" height="60.3516" style="stroke:#181818;stroke-width:1.0;" width="10" x="814.5" y="387.4219"/><rect fill="#FFFFFF" height="505.2188" style="stroke:#181818;stroke-width:1.0;" width="10" x="814.5" y="538.8281"/><rect fill="#FFFFFF" height="181.7578" style="stroke:#181818;stroke-width:1.0;" width="10" x="814.5" y="1157.4531"/><rect fill="#FFFFFF" height="30" style="stroke:#181818;stroke-width:1.0;" width="10" x="1236.5" y="175.6641"/><rect fill="#FFFFFF" height="30" style="stroke:#181818;stroke-width:1.0;" width="10" x="1236.5" y="327.0703"/><rect fill="#FFFFFF" height="30" style="stroke:#181818;stroke-width:1.0;" width="10" x="1236.5" y="711.5859"/><rect fill="#FFFFFF" height="30" style="stroke:#181818;stroke-width:1.0;" width="10" x="1236.5" y="888.3438"/><rect fill="#FFFFFF" height="30" style="stroke:#181818;stroke-width:1.0;" width="10" x="1352.5" y="417.7734"/><rect fill="#FFFFFF" height="30" style="stroke:#181818;stroke-width:1.0;" width="10" x="1465" y="948.6953"/><rect fill="#FFFFFF" height="60.3516" style="stroke:#181818;stroke-width:1.0;" width="10" x="1465" y="1218.1563"/><rect fill="#FFFFFF" height="30" style="stroke:#181818;stroke-width:1.0;" width="10" x="1721" y="1248.5078"/><polygon fill="#181818" points="429.5,110.9609,439.5,114.9609,429.5,118.9609,433.5,114.9609" style="stroke:#181818;stroke-width:1.0;"/><line style="stroke:#181818;stroke-width:1.0;" x1="56.5" x2="435.5" y1="114.9609" y2="114.9609"/><text fill="#000000" font-family="sans-serif" font-size="13" font-weight="bold" lengthAdjust="spacing" textLength="7" x="63.5" y="110.1045">1</text><text fill="#000000" font-family="sans-serif" font-size="13" lengthAdjust="spacing" textLength="355" x="74.5" y="110.1045">asks to record the administration of a vaccine to an SNS user</text><polygon fill="#181818" points="802.5,141.3125,812.5,145.3125,802.5,149.3125,806.5,145.3125" style="stroke:#181818;stroke-width:1.0;"/><line style="stroke:#181818;stroke-width:1.0;" x1="451.5" x2="808.5" y1="145.3125" y2="145.3125"/><text fill="#000000" font-family="sans-serif" font-size="13" font-weight="bold" lengthAdjust="spacing" textLength="7" x="458.5" y="140.4561">2</text><text fill="#000000" font-family="sans-serif" font-size="13" lengthAdjust="spacing" textLength="333" x="469.5" y="140.4561">vaccinationCenterList = getVaccinationCentersNameList()</text><polygon fill="#181818" points="1224.5,171.6641,1234.5,175.6641,1224.5,179.6641,1228.5,175.6641" style="stroke:#181818;stroke-width:1.0;"/><line style="stroke:#181818;stroke-width:1.0;" x1="824.5" x2="1230.5" y1="175.6641" y2="175.6641"/><text fill="#000000" font-family="sans-serif" font-size="13" font-weight="bold" lengthAdjust="spacing" textLength="7" x="831.5" y="170.8076">3</text><text fill="#000000" font-family="sans-serif" font-size="13" lengthAdjust="spacing" textLength="278" x="842.5" y="170.8076">vaccinationCenterList = getVaccinationCenters()</text><polygon fill="#181818" points="67.5,232.0156,57.5,236.0156,67.5,240.0156,63.5,236.0156" style="stroke:#181818;stroke-width:1.0;"/><line style="stroke:#181818;stroke-width:1.0;stroke-dasharray:2.0,2.0;" x1="61.5" x2="445.5" y1="236.0156" y2="236.0156"/><text fill="#000000" font-family="sans-serif" font-size="13" font-weight="bold" lengthAdjust="spacing" textLength="7" x="73.5" y="231.1592">4</text><text fill="#000000" font-family="sans-serif" font-size="13" lengthAdjust="spacing" textLength="286" x="84.5" y="231.1592">shows a list with the available vaccination centers</text><polygon fill="#181818" points="429.5,262.3672,439.5,266.3672,429.5,270.3672,433.5,266.3672" style="stroke:#181818;stroke-width:1.0;"/><line style="stroke:#181818;stroke-width:1.0;" x1="56.5" x2="435.5" y1="266.3672" y2="266.3672"/><text fill="#000000" font-family="sans-serif" font-size="13" font-weight="bold" lengthAdjust="spacing" textLength="7" x="63.5" y="261.5107">5</text><text fill="#000000" font-family="sans-serif" font-size="13" lengthAdjust="spacing" textLength="175" x="74.5" y="261.5107">selects one vaccination center</text><polygon fill="#181818" points="802.5,292.7188,812.5,296.7188,802.5,300.7188,806.5,296.7188" style="stroke:#181818;stroke-width:1.0;"/><line style="stroke:#181818;stroke-width:1.0;" x1="451.5" x2="808.5" y1="296.7188" y2="296.7188"/><text fill="#000000" font-family="sans-serif" font-size="13" font-weight="bold" lengthAdjust="spacing" textLength="7" x="458.5" y="291.8623">6</text><text fill="#000000" font-family="sans-serif" font-size="13" lengthAdjust="spacing" textLength="265" x="469.5" y="291.8623">setVaccinationCenter(vaccinationCenterIndex)</text><polygon fill="#181818" points="1224.5,323.0703,1234.5,327.0703,1224.5,331.0703,1228.5,327.0703" style="stroke:#181818;stroke-width:1.0;"/><line style="stroke:#181818;stroke-width:1.0;" x1="824.5" x2="1230.5" y1="327.0703" y2="327.0703"/><text fill="#000000" font-family="sans-serif" font-size="13" font-weight="bold" lengthAdjust="spacing" textLength="7" x="831.5" y="322.2139">7</text><text fill="#000000" font-family="sans-serif" font-size="13" lengthAdjust="spacing" textLength="318" x="842.5" y="322.2139">vaccinationCenter = getVaccinationCenters().get(index)</text><polygon fill="#181818" points="802.5,383.4219,812.5,387.4219,802.5,391.4219,806.5,387.4219" style="stroke:#181818;stroke-width:1.0;"/><line style="stroke:#181818;stroke-width:1.0;" x1="451.5" x2="808.5" y1="387.4219" y2="387.4219"/><text fill="#000000" font-family="sans-serif" font-size="13" font-weight="bold" lengthAdjust="spacing" textLength="7" x="458.5" y="382.5654">8</text><text fill="#000000" font-family="sans-serif" font-size="13" lengthAdjust="spacing" textLength="292" x="469.5" y="382.5654">setArrivalsList = vaccinationCenter.getArrivalsList()</text><polygon fill="#181818" points="1340.5,413.7734,1350.5,417.7734,1340.5,421.7734,1344.5,417.7734" style="stroke:#181818;stroke-width:1.0;"/><line style="stroke:#181818;stroke-width:1.0;" x1="824.5" x2="1346.5" y1="417.7734" y2="417.7734"/><text fill="#000000" font-family="sans-serif" font-size="13" font-weight="bold" lengthAdjust="spacing" textLength="7" x="831.5" y="412.917">9</text><text fill="#000000" font-family="sans-serif" font-size="13" lengthAdjust="spacing" textLength="166" x="842.5" y="412.917">arrivalsList = getArrivalsList()</text><polygon fill="#181818" points="67.5,474.125,57.5,478.125,67.5,482.125,63.5,478.125" style="stroke:#181818;stroke-width:1.0;"/><line style="stroke:#181818;stroke-width:1.0;stroke-dasharray:2.0,2.0;" x1="61.5" x2="445.5" y1="478.125" y2="478.125"/><text fill="#000000" font-family="sans-serif" font-size="13" font-weight="bold" lengthAdjust="spacing" textLength="14" x="73.5" y="473.2686">10</text><text fill="#000000" font-family="sans-serif" font-size="13" lengthAdjust="spacing" textLength="286" x="91.5" y="473.2686">shows a list with the users available in arrivals list</text><polygon fill="#181818" points="429.5,504.4766,439.5,508.4766,429.5,512.4766,433.5,508.4766" style="stroke:#181818;stroke-width:1.0;"/><line style="stroke:#181818;stroke-width:1.0;" x1="56.5" x2="435.5" y1="508.4766" y2="508.4766"/><text fill="#000000" font-family="sans-serif" font-size="13" font-weight="bold" lengthAdjust="spacing" textLength="14" x="63.5" y="503.6201">11</text><text fill="#000000" font-family="sans-serif" font-size="13" lengthAdjust="spacing" textLength="96" x="81.5" y="503.6201">selects one user</text><polygon fill="#181818" points="802.5,534.8281,812.5,538.8281,802.5,542.8281,806.5,538.8281" style="stroke:#181818;stroke-width:1.0;"/><line style="stroke:#181818;stroke-width:1.0;" x1="451.5" x2="808.5" y1="538.8281" y2="538.8281"/><text fill="#000000" font-family="sans-serif" font-size="13" font-weight="bold" lengthAdjust="spacing" textLength="14" x="458.5" y="533.9717">12</text><text fill="#000000" font-family="sans-serif" font-size="13" lengthAdjust="spacing" textLength="220" x="476.5" y="533.9717">setVaccineType(arrivalsListUserIndex)</text><line style="stroke:#181818;stroke-width:1.0;" x1="824.5" x2="866.5" y1="569.1797" y2="569.1797"/><line style="stroke:#181818;stroke-width:1.0;" x1="866.5" x2="866.5" y1="569.1797" y2="582.1797"/><line style="stroke:#181818;stroke-width:1.0;" x1="825.5" x2="866.5" y1="582.1797" y2="582.1797"/><polygon fill="#181818" points="835.5,578.1797,825.5,582.1797,835.5,586.1797,831.5,582.1797" style="stroke:#181818;stroke-width:1.0;"/><text fill="#000000" font-family="sans-serif" font-size="13" font-weight="bold" lengthAdjust="spacing" textLength="14" x="831.5" y="564.3232">13</text><text fill="#000000" font-family="sans-serif" font-size="13" lengthAdjust="spacing" textLength="380" x="849.5" y="564.3232">vaccineType = arrivalsList(arrivalsListUserIndex).getVaccineType()</text><line style="stroke:#181818;stroke-width:1.0;" x1="824.5" x2="866.5" y1="612.5313" y2="612.5313"/><line style="stroke:#181818;stroke-width:1.0;" x1="866.5" x2="866.5" y1="612.5313" y2="625.5313"/><line style="stroke:#181818;stroke-width:1.0;" x1="825.5" x2="866.5" y1="625.5313" y2="625.5313"/><polygon fill="#181818" points="835.5,621.5313,825.5,625.5313,835.5,629.5313,831.5,625.5313" style="stroke:#181818;stroke-width:1.0;"/><text fill="#000000" font-family="sans-serif" font-size="13" font-weight="bold" lengthAdjust="spacing" textLength="14" x="831.5" y="607.6748">14</text><text fill="#000000" font-family="sans-serif" font-size="13" lengthAdjust="spacing" textLength="260" x="849.5" y="607.6748">doseNumber = findLastDoseOfVaccineType()</text><path d="M10,640.5313 L71,640.5313 L71,648.8828 L61,658.8828 L10,658.8828 L10,640.5313 " fill="#EEEEEE" style="stroke:#000000;stroke-width:1.5;"/><rect fill="none" height="396.5156" style="stroke:#000000;stroke-width:1.5;" width="1515.5" x="10" y="640.5313"/><text fill="#000000" font-family="sans-serif" font-size="13" font-weight="bold" lengthAdjust="spacing" textLength="16" x="25" y="655.0264">alt</text><text fill="#000000" font-family="sans-serif" font-size="11" font-weight="bold" lengthAdjust="spacing" textLength="197" x="86" y="653.9502">[User´s first dose for Vaccine Type]</text><polygon fill="#181818" points="802.5,677.2344,812.5,681.2344,802.5,685.2344,806.5,681.2344" style="stroke:#181818;stroke-width:1.0;"/><line style="stroke:#181818;stroke-width:1.0;" x1="451.5" x2="808.5" y1="681.2344" y2="681.2344"/><text fill="#000000" font-family="sans-serif" font-size="13" font-weight="bold" lengthAdjust="spacing" textLength="14" x="458.5" y="676.3779">15</text><text fill="#000000" font-family="sans-serif" font-size="13" lengthAdjust="spacing" textLength="208" x="476.5" y="676.3779">vaccineList = getVaccineNameList()</text><polygon fill="#181818" points="1224.5,707.5859,1234.5,711.5859,1224.5,715.5859,1228.5,711.5859" style="stroke:#181818;stroke-width:1.0;"/><line style="stroke:#181818;stroke-width:1.0;" x1="824.5" x2="1230.5" y1="711.5859" y2="711.5859"/><text fill="#000000" font-family="sans-serif" font-size="13" font-weight="bold" lengthAdjust="spacing" textLength="14" x="831.5" y="706.7295">16</text><text fill="#000000" font-family="sans-serif" font-size="13" lengthAdjust="spacing" textLength="174" x="849.5" y="706.7295">vaccineList = getVaccineList()</text><path d="M20,756.5859 L93,756.5859 L93,764.9375 L83,774.9375 L20,774.9375 L20,756.5859 " fill="#EEEEEE" style="stroke:#000000;stroke-width:1.5;"/><rect fill="none" height="273.4609" style="stroke:#000000;stroke-width:1.5;" width="1495.5" x="20" y="756.5859"/><text fill="#000000" font-family="sans-serif" font-size="13" font-weight="bold" lengthAdjust="spacing" textLength="28" x="35" y="771.0811">loop</text><text fill="#000000" font-family="sans-serif" font-size="11" font-weight="bold" lengthAdjust="spacing" textLength="143" x="108" y="770.0049">[Validate User Age Group]</text><polygon fill="#181818" points="67.5,793.2891,57.5,797.2891,67.5,801.2891,63.5,797.2891" style="stroke:#181818;stroke-width:1.0;"/><line style="stroke:#181818;stroke-width:1.0;stroke-dasharray:2.0,2.0;" x1="61.5" x2="445.5" y1="797.2891" y2="797.2891"/><text fill="#000000" font-family="sans-serif" font-size="13" font-weight="bold" lengthAdjust="spacing" textLength="14" x="73.5" y="792.4326">17</text><text fill="#000000" font-family="sans-serif" font-size="13" lengthAdjust="spacing" textLength="225" x="91.5" y="792.4326">shows a list with the available vaccines</text><polygon fill="#181818" points="429.5,823.6406,439.5,827.6406,429.5,831.6406,433.5,827.6406" style="stroke:#181818;stroke-width:1.0;"/><line style="stroke:#181818;stroke-width:1.0;" x1="56.5" x2="435.5" y1="827.6406" y2="827.6406"/><text fill="#000000" font-family="sans-serif" font-size="13" font-weight="bold" lengthAdjust="spacing" textLength="14" x="63.5" y="822.7842">18</text><text fill="#000000" font-family="sans-serif" font-size="13" lengthAdjust="spacing" textLength="114" x="81.5" y="822.7842">selects one vaccine</text><polygon fill="#181818" points="802.5,853.9922,812.5,857.9922,802.5,861.9922,806.5,857.9922" style="stroke:#181818;stroke-width:1.0;"/><line style="stroke:#181818;stroke-width:1.0;" x1="451.5" x2="808.5" y1="857.9922" y2="857.9922"/><text fill="#000000" font-family="sans-serif" font-size="13" font-weight="bold" lengthAdjust="spacing" textLength="14" x="458.5" y="853.1357">19</text><text fill="#000000" font-family="sans-serif" font-size="13" lengthAdjust="spacing" textLength="147" x="476.5" y="853.1357">setVaccine(vaccineIndex)</text><polygon fill="#181818" points="1224.5,884.3438,1234.5,888.3438,1224.5,892.3438,1228.5,888.3438" style="stroke:#181818;stroke-width:1.0;"/><line style="stroke:#181818;stroke-width:1.0;" x1="824.5" x2="1230.5" y1="888.3438" y2="888.3438"/><text fill="#000000" font-family="sans-serif" font-size="13" font-weight="bold" lengthAdjust="spacing" textLength="14" x="831.5" y="883.4873">20</text><text fill="#000000" font-family="sans-serif" font-size="13" lengthAdjust="spacing" textLength="257" x="849.5" y="883.4873">vaccine = getVaccineList().get(vaccineIndex)</text><polygon fill="#181818" points="1453,944.6953,1463,948.6953,1453,952.6953,1457,948.6953" style="stroke:#181818;stroke-width:1.0;"/><line style="stroke:#181818;stroke-width:1.0;" x1="824.5" x2="1459" y1="948.6953" y2="948.6953"/><text fill="#000000" font-family="sans-serif" font-size="13" font-weight="bold" lengthAdjust="spacing" textLength="14" x="831.5" y="943.8389">21</text><text fill="#000000" font-family="sans-serif" font-size="13" lengthAdjust="spacing" textLength="215" x="849.5" y="943.8389">userAge = snsUser.getSnsUserAge()</text><line style="stroke:#181818;stroke-width:1.0;" x1="824.5" x2="866.5" y1="1009.0469" y2="1009.0469"/><line style="stroke:#181818;stroke-width:1.0;" x1="866.5" x2="866.5" y1="1009.0469" y2="1022.0469"/><line style="stroke:#181818;stroke-width:1.0;" x1="825.5" x2="866.5" y1="1022.0469" y2="1022.0469"/><polygon fill="#181818" points="835.5,1018.0469,825.5,1022.0469,835.5,1026.0469,831.5,1022.0469" style="stroke:#181818;stroke-width:1.0;"/><text fill="#000000" font-family="sans-serif" font-size="13" font-weight="bold" lengthAdjust="spacing" textLength="14" x="831.5" y="1004.1904">22</text><text fill="#000000" font-family="sans-serif" font-size="13" lengthAdjust="spacing" textLength="133" x="849.5" y="1004.1904">validate user age group</text><polygon fill="#181818" points="67.5,1062.3984,57.5,1066.3984,67.5,1070.3984,63.5,1066.3984" style="stroke:#181818;stroke-width:1.0;"/><line style="stroke:#181818;stroke-width:1.0;stroke-dasharray:2.0,2.0;" x1="61.5" x2="440.5" y1="1066.3984" y2="1066.3984"/><text fill="#000000" font-family="sans-serif" font-size="13" font-weight="bold" lengthAdjust="spacing" textLength="14" x="73.5" y="1061.542">23</text><text fill="#000000" font-family="sans-serif" font-size="13" lengthAdjust="spacing" textLength="195" x="91.5" y="1061.542">shows dosage for respective dose</text><polygon fill="#181818" points="67.5,1092.75,57.5,1096.75,67.5,1100.75,63.5,1096.75" style="stroke:#181818;stroke-width:1.0;"/><line style="stroke:#181818;stroke-width:1.0;stroke-dasharray:2.0,2.0;" x1="61.5" x2="445.5" y1="1096.75" y2="1096.75"/><text fill="#000000" font-family="sans-serif" font-size="13" font-weight="bold" lengthAdjust="spacing" textLength="14" x="73.5" y="1091.8936">24</text><text fill="#000000" font-family="sans-serif" font-size="13" lengthAdjust="spacing" textLength="126" x="91.5" y="1091.8936">requests vaccine´s lot</text><polygon fill="#181818" points="429.5,1123.1016,439.5,1127.1016,429.5,1131.1016,433.5,1127.1016" style="stroke:#181818;stroke-width:1.0;"/><line style="stroke:#181818;stroke-width:1.0;" x1="56.5" x2="435.5" y1="1127.1016" y2="1127.1016"/><text fill="#000000" font-family="sans-serif" font-size="13" font-weight="bold" lengthAdjust="spacing" textLength="14" x="63.5" y="1122.2451">25</text><text fill="#000000" font-family="sans-serif" font-size="13" lengthAdjust="spacing" textLength="183" x="81.5" y="1122.2451">introduces vaccine´s lot number</text><polygon fill="#181818" points="802.5,1153.4531,812.5,1157.4531,802.5,1161.4531,806.5,1157.4531" style="stroke:#181818;stroke-width:1.0;"/><line style="stroke:#181818;stroke-width:1.0;" x1="451.5" x2="808.5" y1="1157.4531" y2="1157.4531"/><text fill="#000000" font-family="sans-serif" font-size="13" font-weight="bold" lengthAdjust="spacing" textLength="14" x="458.5" y="1152.5967">26</text><text fill="#000000" font-family="sans-serif" font-size="13" lengthAdjust="spacing" textLength="173" x="476.5" y="1152.5967">validateLotNumber(lotNumber)</text><polygon fill="#181818" points="802.5,1183.8047,812.5,1187.8047,802.5,1191.8047,806.5,1187.8047" style="stroke:#181818;stroke-width:1.0;"/><line style="stroke:#181818;stroke-width:1.0;" x1="451.5" x2="808.5" y1="1187.8047" y2="1187.8047"/><text fill="#000000" font-family="sans-serif" font-size="13" font-weight="bold" lengthAdjust="spacing" textLength="14" x="458.5" y="1182.9482">27</text><text fill="#000000" font-family="sans-serif" font-size="13" lengthAdjust="spacing" textLength="204" x="476.5" y="1182.9482">vaccineBulletin(VaccineBulletinDto)</text><polygon fill="#181818" points="1453,1214.1563,1463,1218.1563,1453,1222.1563,1457,1218.1563" style="stroke:#181818;stroke-width:1.0;"/><line style="stroke:#181818;stroke-width:1.0;" x1="824.5" x2="1459" y1="1218.1563" y2="1218.1563"/><text fill="#000000" font-family="sans-serif" font-size="13" font-weight="bold" lengthAdjust="spacing" textLength="14" x="831.5" y="1213.2998">28</text><text fill="#000000" font-family="sans-serif" font-size="13" lengthAdjust="spacing" textLength="209" x="849.5" y="1213.2998">addVaccineBulletin(VaccineBulletin)</text><polygon fill="#181818" points="1709,1244.5078,1719,1248.5078,1709,1252.5078,1713,1248.5078" style="stroke:#181818;stroke-width:1.0;"/><line style="stroke:#181818;stroke-width:1.0;" x1="1475" x2="1715" y1="1248.5078" y2="1248.5078"/><text fill="#000000" font-family="sans-serif" font-size="13" font-weight="bold" lengthAdjust="spacing" textLength="14" x="1482" y="1243.6514">29</text><text fill="#000000" font-family="sans-serif" font-size="13" lengthAdjust="spacing" textLength="209" x="1500" y="1243.6514">addVaccineBulletin(VaccineBulletin)</text><polygon fill="#181818" points="802.5,1304.8594,812.5,1308.8594,802.5,1312.8594,806.5,1308.8594" style="stroke:#181818;stroke-width:1.0;"/><line style="stroke:#181818;stroke-width:1.0;" x1="451.5" x2="808.5" y1="1308.8594" y2="1308.8594"/><text fill="#000000" font-family="sans-serif" font-size="13" font-weight="bold" lengthAdjust="spacing" textLength="14" x="458.5" y="1304.0029">30</text><text fill="#000000" font-family="sans-serif" font-size="13" lengthAdjust="spacing" textLength="114" x="476.5" y="1304.0029">printRecoveryTime()</text><polygon fill="#181818" points="62.5,1335.2109,52.5,1339.2109,62.5,1343.2109,58.5,1339.2109" style="stroke:#181818;stroke-width:1.0;"/><line style="stroke:#181818;stroke-width:1.0;stroke-dasharray:2.0,2.0;" x1="56.5" x2="445.5" y1="1339.2109" y2="1339.2109"/><text fill="#000000" font-family="sans-serif" font-size="13" font-weight="bold" lengthAdjust="spacing" textLength="14" x="68.5" y="1334.3545">31</text><text fill="#000000" font-family="sans-serif" font-size="13" lengthAdjust="spacing" textLength="278" x="86.5" y="1334.3545">informs that vaccine administration is completed</text><!--MD5=[a0c9365a21320f3f7967a01a26d7deee]
@startuml

autonumber

actor Nurse as N

participant ":RecordVaccineAdministrationUI" as UI
participant ":RecordVaccineAdministrationController" as CTRL
participant "company\n:Company" as C
participant "vaccinationCenter\n:VaccinationCenter" as VC
participant "snsUser\n:SnsUser" as SU
participant "vaccineBulletinList\nList<VaccineBulletin>" as L

activate N
N -> UI : asks to record the administration of a vaccine to an SNS user
activate UI

UI -> CTRL : vaccinationCenterList = getVaccinationCentersNameList()
activate CTRL
CTRL -> C : vaccinationCenterList = getVaccinationCenters()
activate C
deactivate CTRL
deactivate C

UI - -> N : shows a list with the available vaccination centers
deactivate UI

N -> UI : selects one vaccination center
activate UI
UI -> CTRL : setVaccinationCenter(vaccinationCenterIndex)
activate CTRL
CTRL -> C : vaccinationCenter = getVaccinationCenters().get(index)
activate C
deactivate C
deactivate CTRL

UI -> CTRL : setArrivalsList = vaccinationCenter.getArrivalsList()
activate CTRL
CTRL -> VC : arrivalsList = getArrivalsList()

activate VC
deactivate VC
deactivate CTRL

 UI - -> N : shows a list with the users available in arrivals list
deactivate UI
N -> UI : selects one user

activate UI
UI -> CTRL : setVaccineType(arrivalsListUserIndex)
activate CTRL
CTRL -> CTRL : vaccineType = arrivalsList(arrivalsListUserIndex).getVaccineType()
CTRL -> CTRL : doseNumber = findLastDoseOfVaccineType()
alt User´s first dose for Vaccine Type
UI -> CTRL : vaccineList = getVaccineNameList()
CTRL -> C : vaccineList = getVaccineList()
activate C
deactivate C
loop Validate User Age Group
UI - -> N : shows a list with the available vaccines
deactivate UI
N -> UI : selects one vaccine
activate UI
UI -> CTRL : setVaccine(vaccineIndex)
CTRL -> C : vaccine = getVaccineList().get(vaccineIndex)
activate C
deactivate C
CTRL -> SU : userAge = snsUser.getSnsUserAge()
activate SU
deactivate SU
CTRL -> CTRL : validate user age group
end
end
deactivate CTRL
UI - -> N : shows dosage for respective dose
UI - -> N :requests vaccine´s lot
deactivate UI
N -> UI : introduces vaccine´s lot number
activate UI

UI -> CTRL : validateLotNumber(lotNumber)
activate CTRL

UI -> CTRL : vaccineBulletin(VaccineBulletinDto)

CTRL -> SU : addVaccineBulletin(VaccineBulletin)
activate SU

SU -> L : addVaccineBulletin(VaccineBulletin)
activate L
deactivate L
deactivate SU
UI -> CTRL : printRecoveryTime()

UI - -> N : informs that vaccine administration is completed


deactivate CTRL
deactivate UI
deactivate N
@enduml

PlantUML version 1.2022.5(Sat Apr 30 11:55:52 BST 2022)
(GPL source distribution)
Java Runtime: OpenJDK Runtime Environment
JVM: OpenJDK 64-Bit Server VM
Default Encoding: Cp1252
Language: en
Country: US
--></g></svg>