<?xml version="1.0" encoding="UTF-8" standalone="no"?><svg xmlns="http://www.w3.org/2000/svg" xmlns:xlink="http://www.w3.org/1999/xlink" contentStyleType="text/css" height="745.2px" preserveAspectRatio="none" style="width:2870px;height:745px;background:#FFFFFF;" version="1.1" viewBox="0 0 2870 745" width="2870.1px" zoomAndPan="magnify"><defs/><g><!--MD5=[9b956c59b16436292d60adff39fe4d1c]
class ApplicationUser--><g id="elem_ApplicationUser"><rect codeLine="7" fill="#F1F1F1" height="131.0906" id="ApplicationUser" rx="2.25" ry="2.25" style="stroke:#181818;stroke-width:0.45;" width="122.4" x="6.3" y="332.1"/><ellipse cx="22.23" cy="346.5" fill="#ADD1B2" rx="9.9" ry="9.9" style="stroke:#181818;stroke-width:0.9;"/><path d="M24.03,343.35 Q24.2128,342.9 24.4238,342.675 Q24.6347,342.45 24.8738,342.45 Q25.2956,342.45 25.5628,342.7031 Q25.83,342.9563 25.83,343.5469 L25.83,344.9531 Q25.83,345.5438 25.5769,345.7969 Q25.3238,346.05 24.93,346.05 Q24.5784,346.05 24.3534,345.8953 Q24.1284,345.7406 24.03,345.3328 Q23.9878,345.0516 23.8331,344.8969 Q23.5519,344.6016 23.0456,344.4328 Q22.5394,344.25 22.0331,344.25 Q21.4003,344.25 20.8659,344.5031 Q20.3456,344.7563 19.9378,345.3188 Q19.53,345.8813 19.53,346.6547 L19.53,347.4844 Q19.53,348.4125 20.2894,349.0313 Q21.0488,349.65 22.3988,349.65 Q23.2003,349.65 23.7628,349.4672 Q24.0863,349.3688 24.4519,349.0453 Q24.6909,348.8625 24.8175,348.8063 Q24.9441,348.75 25.0988,348.75 Q25.3941,348.75 25.605,348.9891 Q25.83,349.2141 25.83,349.5375 Q25.83,349.8469 25.5206,350.2125 Q25.0706,350.7469 24.3534,351.0422 Q23.4113,351.45 22.2581,351.45 Q20.9081,351.45 19.8253,350.9156 Q18.9534,350.4938 18.3347,349.5797 Q17.73,348.6656 17.73,347.5828 L17.73,346.5984 Q17.73,345.4734 18.2644,344.4891 Q18.8128,343.5047 19.755,342.9844 Q20.7113,342.45 21.78,342.45 Q22.4269,342.45 22.9894,342.675 Q23.5519,342.9 24.03,343.35 Z " fill="#000000"/><text fill="#000000" font-family="sans-serif" font-size="12.6" lengthAdjust="spacing" textLength="88.2" x="35.37" y="351.6557">ApplicationUser</text><line style="stroke:#181818;stroke-width:0.45;" x1="7.2" x2="127.8" y1="360.9" y2="360.9"/><text fill="#000000" font-family="sans-serif" font-size="12.6" lengthAdjust="spacing" textLength="36" x="11.7" y="377.5799">-name</text><text fill="#000000" font-family="sans-serif" font-size="12.6" lengthAdjust="spacing" textLength="81" x="11.7" y="393.4283">-emailAddress</text><text fill="#000000" font-family="sans-serif" font-size="12.6" lengthAdjust="spacing" textLength="26.1" x="11.7" y="409.2768">-role</text><text fill="#000000" font-family="sans-serif" font-size="12.6" lengthAdjust="spacing" textLength="58.5" x="11.7" y="425.1252">-password</text><text fill="#000000" font-family="sans-serif" font-size="12.6" lengthAdjust="spacing" textLength="50.4" x="11.7" y="440.9736">-address</text><text fill="#000000" font-family="sans-serif" font-size="12.6" lengthAdjust="spacing" textLength="111.6" x="11.7" y="456.8221">-citizenCardNumber</text></g><!--MD5=[7421f545a0d8420c5bec41e74b387d9c]
class Employee--><g id="elem_Employee"><rect codeLine="16" fill="#F1F1F1" height="51.8484" id="Employee" rx="2.25" ry="2.25" style="stroke:#181818;stroke-width:0.45;" width="84.6" x="183.6" y="310.5"/><ellipse cx="197.1" cy="324.9" fill="#ADD1B2" rx="9.9" ry="9.9" style="stroke:#181818;stroke-width:0.9;"/><path d="M198.9,321.75 Q199.0828,321.3 199.2938,321.075 Q199.5047,320.85 199.7438,320.85 Q200.1656,320.85 200.4328,321.1031 Q200.7,321.3563 200.7,321.9469 L200.7,323.3531 Q200.7,323.9438 200.4469,324.1969 Q200.1938,324.45 199.8,324.45 Q199.4484,324.45 199.2234,324.2953 Q198.9984,324.1406 198.9,323.7328 Q198.8578,323.4516 198.7031,323.2969 Q198.4219,323.0016 197.9156,322.8328 Q197.4094,322.65 196.9031,322.65 Q196.2703,322.65 195.7359,322.9031 Q195.2156,323.1563 194.8078,323.7188 Q194.4,324.2813 194.4,325.0547 L194.4,325.8844 Q194.4,326.8125 195.1594,327.4313 Q195.9188,328.05 197.2688,328.05 Q198.0703,328.05 198.6328,327.8672 Q198.9563,327.7688 199.3219,327.4453 Q199.5609,327.2625 199.6875,327.2063 Q199.8141,327.15 199.9688,327.15 Q200.2641,327.15 200.475,327.3891 Q200.7,327.6141 200.7,327.9375 Q200.7,328.2469 200.3906,328.6125 Q199.9406,329.1469 199.2234,329.4422 Q198.2813,329.85 197.1281,329.85 Q195.7781,329.85 194.6953,329.3156 Q193.8234,328.8938 193.2047,327.9797 Q192.6,327.0656 192.6,325.9828 L192.6,324.9984 Q192.6,323.8734 193.1344,322.8891 Q193.6828,321.9047 194.625,321.3844 Q195.5813,320.85 196.65,320.85 Q197.2969,320.85 197.8594,321.075 Q198.4219,321.3 198.9,321.75 Z " fill="#000000"/><text fill="#000000" font-family="sans-serif" font-size="12.6" lengthAdjust="spacing" textLength="55.8" x="209.7" y="330.0557">Employee</text><line style="stroke:#181818;stroke-width:0.45;" x1="184.5" x2="267.3" y1="339.3" y2="339.3"/><text fill="#000000" font-family="sans-serif" font-size="12.6" lengthAdjust="spacing" textLength="14.4" x="189" y="355.9799">-id</text></g><!--MD5=[da547346deef918ea16944ba046651ef]
class Administrator--><g id="elem_Administrator"><rect codeLine="20" fill="#F1F1F1" height="36" id="Administrator" rx="2.25" ry="2.25" style="stroke:#181818;stroke-width:0.45;" width="103.5" x="295.2" y="318.6"/><ellipse cx="308.7" cy="333" fill="#ADD1B2" rx="9.9" ry="9.9" style="stroke:#181818;stroke-width:0.9;"/><path d="M310.5,329.85 Q310.6828,329.4 310.8938,329.175 Q311.1047,328.95 311.3438,328.95 Q311.7656,328.95 312.0328,329.2031 Q312.3,329.4563 312.3,330.0469 L312.3,331.4531 Q312.3,332.0438 312.0469,332.2969 Q311.7938,332.55 311.4,332.55 Q311.0484,332.55 310.8234,332.3953 Q310.5984,332.2406 310.5,331.8328 Q310.4578,331.5516 310.3031,331.3969 Q310.0219,331.1016 309.5156,330.9328 Q309.0094,330.75 308.5031,330.75 Q307.8703,330.75 307.3359,331.0031 Q306.8156,331.2563 306.4078,331.8188 Q306,332.3813 306,333.1547 L306,333.9844 Q306,334.9125 306.7594,335.5313 Q307.5188,336.15 308.8688,336.15 Q309.6703,336.15 310.2328,335.9672 Q310.5563,335.8688 310.9219,335.5453 Q311.1609,335.3625 311.2875,335.3063 Q311.4141,335.25 311.5688,335.25 Q311.8641,335.25 312.075,335.4891 Q312.3,335.7141 312.3,336.0375 Q312.3,336.3469 311.9906,336.7125 Q311.5406,337.2469 310.8234,337.5422 Q309.8813,337.95 308.7281,337.95 Q307.3781,337.95 306.2953,337.4156 Q305.4234,336.9938 304.8047,336.0797 Q304.2,335.1656 304.2,334.0828 L304.2,333.0984 Q304.2,331.9734 304.7344,330.9891 Q305.2828,330.0047 306.225,329.4844 Q307.1813,328.95 308.25,328.95 Q308.8969,328.95 309.4594,329.175 Q310.0219,329.4 310.5,329.85 Z " fill="#000000"/><text fill="#000000" font-family="sans-serif" font-size="12.6" lengthAdjust="spacing" textLength="74.7" x="321.3" y="338.1557">Administrator</text><line style="stroke:#181818;stroke-width:0.45;" x1="296.1" x2="397.8" y1="347.4" y2="347.4"/></g><!--MD5=[0b4e4b4980470ea387cc45de9bd14b5b]
class Application--><g id="elem_Application"><rect codeLine="133" fill="#F1F1F1" height="36" id="Application" rx="2.25" ry="2.25" style="stroke:#181818;stroke-width:0.45;" width="90.9" x="618.3" y="318.6"/><ellipse cx="631.8" cy="333" fill="#ADD1B2" rx="9.9" ry="9.9" style="stroke:#181818;stroke-width:0.9;"/><path d="M633.6,329.85 Q633.7828,329.4 633.9938,329.175 Q634.2047,328.95 634.4438,328.95 Q634.8656,328.95 635.1328,329.2031 Q635.4,329.4563 635.4,330.0469 L635.4,331.4531 Q635.4,332.0438 635.1469,332.2969 Q634.8938,332.55 634.5,332.55 Q634.1484,332.55 633.9234,332.3953 Q633.6984,332.2406 633.6,331.8328 Q633.5578,331.5516 633.4031,331.3969 Q633.1219,331.1016 632.6156,330.9328 Q632.1094,330.75 631.6031,330.75 Q630.9703,330.75 630.4359,331.0031 Q629.9156,331.2563 629.5078,331.8188 Q629.1,332.3813 629.1,333.1547 L629.1,333.9844 Q629.1,334.9125 629.8594,335.5313 Q630.6188,336.15 631.9688,336.15 Q632.7703,336.15 633.3328,335.9672 Q633.6563,335.8688 634.0219,335.5453 Q634.2609,335.3625 634.3875,335.3063 Q634.5141,335.25 634.6688,335.25 Q634.9641,335.25 635.175,335.4891 Q635.4,335.7141 635.4,336.0375 Q635.4,336.3469 635.0906,336.7125 Q634.6406,337.2469 633.9234,337.5422 Q632.9813,337.95 631.8281,337.95 Q630.4781,337.95 629.3953,337.4156 Q628.5234,336.9938 627.9047,336.0797 Q627.3,335.1656 627.3,334.0828 L627.3,333.0984 Q627.3,331.9734 627.8344,330.9891 Q628.3828,330.0047 629.325,329.4844 Q630.2813,328.95 631.35,328.95 Q631.9969,328.95 632.5594,329.175 Q633.1219,329.4 633.6,329.85 Z " fill="#000000"/><text fill="#000000" font-family="sans-serif" font-size="12.6" lengthAdjust="spacing" textLength="62.1" x="644.4" y="338.1557">Application</text><line style="stroke:#181818;stroke-width:0.45;" x1="619.2" x2="708.3" y1="347.4" y2="347.4"/></g><!--MD5=[c4593935f45e4a2a0cefc4788932b53f]
class SnsUser--><g id="elem_SnsUser"><rect codeLine="24" fill="#F1F1F1" height="51.8484" id="SnsUser" rx="2.25" ry="2.25" style="stroke:#181818;stroke-width:0.45;" width="105.3" x="1096.2" y="387.9"/><ellipse cx="1122.66" cy="402.3" fill="#ADD1B2" rx="9.9" ry="9.9" style="stroke:#181818;stroke-width:0.9;"/><path d="M1124.46,399.15 Q1124.6428,398.7 1124.8538,398.475 Q1125.0647,398.25 1125.3038,398.25 Q1125.7256,398.25 1125.9928,398.5031 Q1126.26,398.7563 1126.26,399.3469 L1126.26,400.7531 Q1126.26,401.3438 1126.0069,401.5969 Q1125.7538,401.85 1125.36,401.85 Q1125.0084,401.85 1124.7834,401.6953 Q1124.5584,401.5406 1124.46,401.1328 Q1124.4178,400.8516 1124.2631,400.6969 Q1123.9819,400.4016 1123.4756,400.2328 Q1122.9694,400.05 1122.4631,400.05 Q1121.8303,400.05 1121.2959,400.3031 Q1120.7756,400.5563 1120.3678,401.1188 Q1119.96,401.6813 1119.96,402.4547 L1119.96,403.2844 Q1119.96,404.2125 1120.7194,404.8313 Q1121.4788,405.45 1122.8288,405.45 Q1123.6303,405.45 1124.1928,405.2672 Q1124.5163,405.1688 1124.8819,404.8453 Q1125.1209,404.6625 1125.2475,404.6063 Q1125.3741,404.55 1125.5288,404.55 Q1125.8241,404.55 1126.035,404.7891 Q1126.26,405.0141 1126.26,405.3375 Q1126.26,405.6469 1125.9506,406.0125 Q1125.5006,406.5469 1124.7834,406.8422 Q1123.8413,407.25 1122.6881,407.25 Q1121.3381,407.25 1120.2553,406.7156 Q1119.3834,406.2938 1118.7647,405.3797 Q1118.16,404.4656 1118.16,403.3828 L1118.16,402.3984 Q1118.16,401.2734 1118.6944,400.2891 Q1119.2428,399.3047 1120.185,398.7844 Q1121.1413,398.25 1122.21,398.25 Q1122.8569,398.25 1123.4194,398.475 Q1123.9819,398.7 1124.46,399.15 Z " fill="#000000"/><text fill="#000000" font-family="sans-serif" font-size="12.6" lengthAdjust="spacing" textLength="47.7" x="1138.14" y="407.4557">SnsUser</text><line style="stroke:#181818;stroke-width:0.45;" x1="1097.1" x2="1200.6" y1="416.7" y2="416.7"/><text fill="#000000" font-family="sans-serif" font-size="12.6" lengthAdjust="spacing" textLength="94.5" x="1101.6" y="433.3799">-snsUserNumber</text></g><!--MD5=[a059576e163b46f56762f12600c49258]
class Nurse--><g id="elem_Nurse"><rect codeLine="43" fill="#F1F1F1" height="36" id="Nurse" rx="2.25" ry="2.25" style="stroke:#181818;stroke-width:0.45;" width="62.1" x="425.7" y="540.9"/><ellipse cx="439.2" cy="555.3" fill="#ADD1B2" rx="9.9" ry="9.9" style="stroke:#181818;stroke-width:0.9;"/><path d="M441,552.15 Q441.1828,551.7 441.3938,551.475 Q441.6047,551.25 441.8438,551.25 Q442.2656,551.25 442.5328,551.5031 Q442.8,551.7563 442.8,552.3469 L442.8,553.7531 Q442.8,554.3438 442.5469,554.5969 Q442.2938,554.85 441.9,554.85 Q441.5484,554.85 441.3234,554.6953 Q441.0984,554.5406 441,554.1328 Q440.9578,553.8516 440.8031,553.6969 Q440.5219,553.4016 440.0156,553.2328 Q439.5094,553.05 439.0031,553.05 Q438.3703,553.05 437.8359,553.3031 Q437.3156,553.5563 436.9078,554.1188 Q436.5,554.6813 436.5,555.4547 L436.5,556.2844 Q436.5,557.2125 437.2594,557.8313 Q438.0188,558.45 439.3688,558.45 Q440.1703,558.45 440.7328,558.2672 Q441.0563,558.1688 441.4219,557.8453 Q441.6609,557.6625 441.7875,557.6063 Q441.9141,557.55 442.0688,557.55 Q442.3641,557.55 442.575,557.7891 Q442.8,558.0141 442.8,558.3375 Q442.8,558.6469 442.4906,559.0125 Q442.0406,559.5469 441.3234,559.8422 Q440.3813,560.25 439.2281,560.25 Q437.8781,560.25 436.7953,559.7156 Q435.9234,559.2938 435.3047,558.3797 Q434.7,557.4656 434.7,556.3828 L434.7,555.3984 Q434.7,554.2734 435.2344,553.2891 Q435.7828,552.3047 436.725,551.7844 Q437.6813,551.25 438.75,551.25 Q439.3969,551.25 439.9594,551.475 Q440.5219,551.7 441,552.15 Z " fill="#000000"/><text fill="#000000" font-family="sans-serif" font-size="12.6" lengthAdjust="spacing" textLength="33.3" x="451.8" y="560.4557">Nurse</text><line style="stroke:#181818;stroke-width:0.45;" x1="426.6" x2="486.9" y1="569.7" y2="569.7"/></g><!--MD5=[03960189e81aa2c066c762ffabbee709]
class Receptionist--><g id="elem_Receptionist"><rect codeLine="37" fill="#F1F1F1" height="36" id="Receptionist" rx="2.25" ry="2.25" style="stroke:#181818;stroke-width:0.45;" width="99" x="614.25" y="251.1"/><ellipse cx="627.75" cy="265.5" fill="#ADD1B2" rx="9.9" ry="9.9" style="stroke:#181818;stroke-width:0.9;"/><path d="M629.55,262.35 Q629.7328,261.9 629.9438,261.675 Q630.1547,261.45 630.3938,261.45 Q630.8156,261.45 631.0828,261.7031 Q631.35,261.9563 631.35,262.5469 L631.35,263.9531 Q631.35,264.5438 631.0969,264.7969 Q630.8438,265.05 630.45,265.05 Q630.0984,265.05 629.8734,264.8953 Q629.6484,264.7406 629.55,264.3328 Q629.5078,264.0516 629.3531,263.8969 Q629.0719,263.6016 628.5656,263.4328 Q628.0594,263.25 627.5531,263.25 Q626.9203,263.25 626.3859,263.5031 Q625.8656,263.7563 625.4578,264.3188 Q625.05,264.8813 625.05,265.6547 L625.05,266.4844 Q625.05,267.4125 625.8094,268.0313 Q626.5688,268.65 627.9188,268.65 Q628.7203,268.65 629.2828,268.4672 Q629.6063,268.3688 629.9719,268.0453 Q630.2109,267.8625 630.3375,267.8063 Q630.4641,267.75 630.6188,267.75 Q630.9141,267.75 631.125,267.9891 Q631.35,268.2141 631.35,268.5375 Q631.35,268.8469 631.0406,269.2125 Q630.5906,269.7469 629.8734,270.0422 Q628.9313,270.45 627.7781,270.45 Q626.4281,270.45 625.3453,269.9156 Q624.4734,269.4938 623.8547,268.5797 Q623.25,267.6656 623.25,266.5828 L623.25,265.5984 Q623.25,264.4734 623.7844,263.4891 Q624.3328,262.5047 625.275,261.9844 Q626.2313,261.45 627.3,261.45 Q627.9469,261.45 628.5094,261.675 Q629.0719,261.9 629.55,262.35 Z " fill="#000000"/><text fill="#000000" font-family="sans-serif" font-size="12.6" lengthAdjust="spacing" textLength="70.2" x="640.35" y="270.6557">Receptionist</text><line style="stroke:#181818;stroke-width:0.45;" x1="615.15" x2="712.35" y1="279.9" y2="279.9"/></g><!--MD5=[2d935fd2dd068a13da1ae531f9857c4f]
class CenterCoordinator--><g id="elem_CenterCoordinator"><rect codeLine="151" fill="#F1F1F1" height="36" id="CenterCoordinator" rx="2.25" ry="2.25" style="stroke:#181818;stroke-width:0.45;" width="135" x="1307.7" y="43.2"/><ellipse cx="1321.2" cy="57.6" fill="#ADD1B2" rx="9.9" ry="9.9" style="stroke:#181818;stroke-width:0.9;"/><path d="M1323,54.45 Q1323.1828,54 1323.3938,53.775 Q1323.6047,53.55 1323.8438,53.55 Q1324.2656,53.55 1324.5328,53.8031 Q1324.8,54.0563 1324.8,54.6469 L1324.8,56.0531 Q1324.8,56.6438 1324.5469,56.8969 Q1324.2938,57.15 1323.9,57.15 Q1323.5484,57.15 1323.3234,56.9953 Q1323.0984,56.8406 1323,56.4328 Q1322.9578,56.1516 1322.8031,55.9969 Q1322.5219,55.7016 1322.0156,55.5328 Q1321.5094,55.35 1321.0031,55.35 Q1320.3703,55.35 1319.8359,55.6031 Q1319.3156,55.8563 1318.9078,56.4188 Q1318.5,56.9813 1318.5,57.7547 L1318.5,58.5844 Q1318.5,59.5125 1319.2594,60.1313 Q1320.0188,60.75 1321.3688,60.75 Q1322.1703,60.75 1322.7328,60.5672 Q1323.0563,60.4688 1323.4219,60.1453 Q1323.6609,59.9625 1323.7875,59.9063 Q1323.9141,59.85 1324.0688,59.85 Q1324.3641,59.85 1324.575,60.0891 Q1324.8,60.3141 1324.8,60.6375 Q1324.8,60.9469 1324.4906,61.3125 Q1324.0406,61.8469 1323.3234,62.1422 Q1322.3813,62.55 1321.2281,62.55 Q1319.8781,62.55 1318.7953,62.0156 Q1317.9234,61.5938 1317.3047,60.6797 Q1316.7,59.7656 1316.7,58.6828 L1316.7,57.6984 Q1316.7,56.5734 1317.2344,55.5891 Q1317.7828,54.6047 1318.725,54.0844 Q1319.6813,53.55 1320.75,53.55 Q1321.3969,53.55 1321.9594,53.775 Q1322.5219,54 1323,54.45 Z " fill="#000000"/><text fill="#000000" font-family="sans-serif" font-size="12.6" lengthAdjust="spacing" textLength="106.2" x="1333.8" y="62.7557">CenterCoordinator</text><line style="stroke:#181818;stroke-width:0.45;" x1="1308.6" x2="1441.8" y1="72" y2="72"/></g><!--MD5=[de60e6d4f424ae4d0522096f76a59010]
class VaccinationCenter--><g id="elem_VaccinationCenter"><rect codeLine="47" fill="#F1F1F1" height="257.8781" id="VaccinationCenter" rx="2.25" ry="2.25" style="stroke:#181818;stroke-width:0.45;" width="147.6" x="1917.9" y="41.85"/><ellipse cx="1937.88" cy="56.25" fill="#ADD1B2" rx="9.9" ry="9.9" style="stroke:#181818;stroke-width:0.9;"/><path d="M1939.68,53.1 Q1939.8628,52.65 1940.0737,52.425 Q1940.2847,52.2 1940.5237,52.2 Q1940.9456,52.2 1941.2128,52.4531 Q1941.48,52.7063 1941.48,53.2969 L1941.48,54.7031 Q1941.48,55.2938 1941.2269,55.5469 Q1940.9737,55.8 1940.58,55.8 Q1940.2284,55.8 1940.0034,55.6453 Q1939.7784,55.4906 1939.68,55.0828 Q1939.6378,54.8016 1939.4831,54.6469 Q1939.2019,54.3516 1938.6956,54.1828 Q1938.1894,54 1937.6831,54 Q1937.0503,54 1936.5159,54.2531 Q1935.9956,54.5063 1935.5878,55.0688 Q1935.18,55.6313 1935.18,56.4047 L1935.18,57.2344 Q1935.18,58.1625 1935.9394,58.7813 Q1936.6987,59.4 1938.0488,59.4 Q1938.8503,59.4 1939.4128,59.2172 Q1939.7363,59.1188 1940.1019,58.7953 Q1940.3409,58.6125 1940.4675,58.5563 Q1940.5941,58.5 1940.7488,58.5 Q1941.0441,58.5 1941.255,58.7391 Q1941.48,58.9641 1941.48,59.2875 Q1941.48,59.5969 1941.1706,59.9625 Q1940.7206,60.4969 1940.0034,60.7922 Q1939.0613,61.2 1937.9081,61.2 Q1936.5581,61.2 1935.4753,60.6656 Q1934.6034,60.2438 1933.9847,59.3297 Q1933.38,58.4156 1933.38,57.3328 L1933.38,56.3484 Q1933.38,55.2234 1933.9144,54.2391 Q1934.4628,53.2547 1935.405,52.7344 Q1936.3613,52.2 1937.43,52.2 Q1938.0769,52.2 1938.6394,52.425 Q1939.2019,52.65 1939.68,53.1 Z " fill="#000000"/><text fill="#000000" font-family="sans-serif" font-size="12.6" lengthAdjust="spacing" textLength="104.4" x="1951.92" y="61.4057">VaccinationCenter</text><line style="stroke:#181818;stroke-width:0.45;" x1="1918.8" x2="2064.6" y1="70.65" y2="70.65"/><text fill="#000000" font-family="sans-serif" font-size="12.6" lengthAdjust="spacing" textLength="29.7" x="1923.3" y="87.3299">-intID</text><text fill="#000000" font-family="sans-serif" font-size="12.6" lengthAdjust="spacing" textLength="51.3" x="1923.3" y="103.1783">-strName</text><text fill="#000000" font-family="sans-serif" font-size="12.6" lengthAdjust="spacing" textLength="99.9" x="1923.3" y="119.0268">-strPhoneNumber</text><text fill="#000000" font-family="sans-serif" font-size="12.6" lengthAdjust="spacing" textLength="49.5" x="1923.3" y="134.8752">-strEmail</text><text fill="#000000" font-family="sans-serif" font-size="12.6" lengthAdjust="spacing" textLength="39.6" x="1923.3" y="150.7236">-strFax</text><text fill="#000000" font-family="sans-serif" font-size="12.6" lengthAdjust="spacing" textLength="64.8" x="1923.3" y="166.5721">-strWebsite</text><text fill="#000000" font-family="sans-serif" font-size="12.6" lengthAdjust="spacing" textLength="94.5" x="1923.3" y="182.4205">-strOpeningHour</text><text fill="#000000" font-family="sans-serif" font-size="12.6" lengthAdjust="spacing" textLength="88.2" x="1923.3" y="198.2689">-strClosingHour</text><text fill="#000000" font-family="sans-serif" font-size="12.6" lengthAdjust="spacing" textLength="89.1" x="1923.3" y="214.1174">-strSlotDuration</text><text fill="#000000" font-family="sans-serif" font-size="12.6" lengthAdjust="spacing" textLength="111.6" x="1923.3" y="229.9658">-strVaccinesPerSlot</text><text fill="#000000" font-family="sans-serif" font-size="12.6" lengthAdjust="spacing" textLength="49.5" x="1923.3" y="245.8143">-strRoad</text><text fill="#000000" font-family="sans-serif" font-size="12.6" lengthAdjust="spacing" textLength="66.6" x="1923.3" y="261.6627">-strZipCode</text><text fill="#000000" font-family="sans-serif" font-size="12.6" lengthAdjust="spacing" textLength="49.5" x="1923.3" y="277.5111">-strLocal</text><text fill="#000000" font-family="sans-serif" font-size="12.6" lengthAdjust="spacing" textLength="136.8" x="1923.3" y="293.3596">-strCenterCoordinatorID</text></g><!--MD5=[76480a6701b5d2883bc606a2560c3cfe]
class MassVaccinationCenter--><g id="elem_MassVaccinationCenter"><rect codeLine="64" fill="#F1F1F1" height="36" id="MassVaccinationCenter" rx="2.25" ry="2.25" style="stroke:#181818;stroke-width:0.45;" width="162.9" x="2222.1" y="195.3"/><ellipse cx="2235.6" cy="209.7" fill="#ADD1B2" rx="9.9" ry="9.9" style="stroke:#181818;stroke-width:0.9;"/><path d="M2237.4,206.55 Q2237.5828,206.1 2237.7938,205.875 Q2238.0047,205.65 2238.2438,205.65 Q2238.6656,205.65 2238.9328,205.9031 Q2239.2,206.1563 2239.2,206.7469 L2239.2,208.1531 Q2239.2,208.7438 2238.9469,208.9969 Q2238.6938,209.25 2238.3,209.25 Q2237.9484,209.25 2237.7234,209.0953 Q2237.4984,208.9406 2237.4,208.5328 Q2237.3578,208.2516 2237.2031,208.0969 Q2236.9219,207.8016 2236.4156,207.6328 Q2235.9094,207.45 2235.4031,207.45 Q2234.7703,207.45 2234.2359,207.7031 Q2233.7156,207.9563 2233.3078,208.5188 Q2232.9,209.0813 2232.9,209.8547 L2232.9,210.6844 Q2232.9,211.6125 2233.6594,212.2313 Q2234.4188,212.85 2235.7688,212.85 Q2236.5703,212.85 2237.1328,212.6672 Q2237.4563,212.5688 2237.8219,212.2453 Q2238.0609,212.0625 2238.1875,212.0063 Q2238.3141,211.95 2238.4688,211.95 Q2238.7641,211.95 2238.975,212.1891 Q2239.2,212.4141 2239.2,212.7375 Q2239.2,213.0469 2238.8906,213.4125 Q2238.4406,213.9469 2237.7234,214.2422 Q2236.7813,214.65 2235.6281,214.65 Q2234.2781,214.65 2233.1953,214.1156 Q2232.3234,213.6938 2231.7047,212.7797 Q2231.1,211.8656 2231.1,210.7828 L2231.1,209.7984 Q2231.1,208.6734 2231.6344,207.6891 Q2232.1828,206.7047 2233.125,206.1844 Q2234.0813,205.65 2235.15,205.65 Q2235.7969,205.65 2236.3594,205.875 Q2236.9219,206.1 2237.4,206.55 Z " fill="#000000"/><text fill="#000000" font-family="sans-serif" font-size="12.6" lengthAdjust="spacing" textLength="134.1" x="2248.2" y="214.8557">MassVaccinationCenter</text><line style="stroke:#181818;stroke-width:0.45;" x1="2223" x2="2384.1" y1="224.1" y2="224.1"/></g><!--MD5=[0b1ce5251ebf137e6b3550dd84e6af65]
class HealthcareCenter--><g id="elem_HealthcareCenter"><rect codeLine="68" fill="#F1F1F1" height="67.6969" id="HealthcareCenter" rx="2.25" ry="2.25" style="stroke:#181818;stroke-width:0.45;" width="128.7" x="2239.2" y="95.85"/><ellipse cx="2252.7" cy="110.25" fill="#ADD1B2" rx="9.9" ry="9.9" style="stroke:#181818;stroke-width:0.9;"/><path d="M2254.5,107.1 Q2254.6828,106.65 2254.8938,106.425 Q2255.1047,106.2 2255.3438,106.2 Q2255.7656,106.2 2256.0328,106.4531 Q2256.3,106.7063 2256.3,107.2969 L2256.3,108.7031 Q2256.3,109.2938 2256.0469,109.5469 Q2255.7938,109.8 2255.4,109.8 Q2255.0484,109.8 2254.8234,109.6453 Q2254.5984,109.4906 2254.5,109.0828 Q2254.4578,108.8016 2254.3031,108.6469 Q2254.0219,108.3516 2253.5156,108.1828 Q2253.0094,108 2252.5031,108 Q2251.8703,108 2251.3359,108.2531 Q2250.8156,108.5063 2250.4078,109.0688 Q2250,109.6313 2250,110.4047 L2250,111.2344 Q2250,112.1625 2250.7594,112.7813 Q2251.5188,113.4 2252.8688,113.4 Q2253.6703,113.4 2254.2328,113.2172 Q2254.5563,113.1188 2254.9219,112.7953 Q2255.1609,112.6125 2255.2875,112.5563 Q2255.4141,112.5 2255.5688,112.5 Q2255.8641,112.5 2256.075,112.7391 Q2256.3,112.9641 2256.3,113.2875 Q2256.3,113.5969 2255.9906,113.9625 Q2255.5406,114.4969 2254.8234,114.7922 Q2253.8813,115.2 2252.7281,115.2 Q2251.3781,115.2 2250.2953,114.6656 Q2249.4234,114.2438 2248.8047,113.3297 Q2248.2,112.4156 2248.2,111.3328 L2248.2,110.3484 Q2248.2,109.2234 2248.7344,108.2391 Q2249.2828,107.2547 2250.225,106.7344 Q2251.1813,106.2 2252.25,106.2 Q2252.8969,106.2 2253.4594,106.425 Q2254.0219,106.65 2254.5,107.1 Z " fill="#000000"/><text fill="#000000" font-family="sans-serif" font-size="12.6" lengthAdjust="spacing" textLength="99.9" x="2265.3" y="115.4057">HealthcareCenter</text><line style="stroke:#181818;stroke-width:0.45;" x1="2240.1" x2="2367" y1="124.65" y2="124.65"/><text fill="#000000" font-family="sans-serif" font-size="12.6" lengthAdjust="spacing" textLength="29.7" x="2244.6" y="141.3299">-ARE</text><text fill="#000000" font-family="sans-serif" font-size="12.6" lengthAdjust="spacing" textLength="38.7" x="2244.6" y="157.1783">-AGES</text></g><!--MD5=[19e445fc4d3b48519cbe33da05496394]
class Vaccine--><g id="elem_Vaccine"><rect codeLine="73" fill="#F1F1F1" height="83.5453" id="Vaccine" rx="2.25" ry="2.25" style="stroke:#181818;stroke-width:0.45;" width="73.8" x="2536.2" y="464.85"/><ellipse cx="2549.7" cy="479.25" fill="#ADD1B2" rx="9.9" ry="9.9" style="stroke:#181818;stroke-width:0.9;"/><path d="M2551.5,476.1 Q2551.6828,475.65 2551.8938,475.425 Q2552.1047,475.2 2552.3438,475.2 Q2552.7656,475.2 2553.0328,475.4531 Q2553.3,475.7063 2553.3,476.2969 L2553.3,477.7031 Q2553.3,478.2938 2553.0469,478.5469 Q2552.7938,478.8 2552.4,478.8 Q2552.0484,478.8 2551.8234,478.6453 Q2551.5984,478.4906 2551.5,478.0828 Q2551.4578,477.8016 2551.3031,477.6469 Q2551.0219,477.3516 2550.5156,477.1828 Q2550.0094,477 2549.5031,477 Q2548.8703,477 2548.3359,477.2531 Q2547.8156,477.5063 2547.4078,478.0688 Q2547,478.6313 2547,479.4047 L2547,480.2344 Q2547,481.1625 2547.7594,481.7813 Q2548.5188,482.4 2549.8688,482.4 Q2550.6703,482.4 2551.2328,482.2172 Q2551.5563,482.1188 2551.9219,481.7953 Q2552.1609,481.6125 2552.2875,481.5563 Q2552.4141,481.5 2552.5688,481.5 Q2552.8641,481.5 2553.075,481.7391 Q2553.3,481.9641 2553.3,482.2875 Q2553.3,482.5969 2552.9906,482.9625 Q2552.5406,483.4969 2551.8234,483.7922 Q2550.8813,484.2 2549.7281,484.2 Q2548.3781,484.2 2547.2953,483.6656 Q2546.4234,483.2438 2545.8047,482.3297 Q2545.2,481.4156 2545.2,480.3328 L2545.2,479.3484 Q2545.2,478.2234 2545.7344,477.2391 Q2546.2828,476.2547 2547.225,475.7344 Q2548.1813,475.2 2549.25,475.2 Q2549.8969,475.2 2550.4594,475.425 Q2551.0219,475.65 2551.5,476.1 Z " fill="#000000"/><text fill="#000000" font-family="sans-serif" font-size="12.6" lengthAdjust="spacing" textLength="45" x="2562.3" y="484.4057">Vaccine</text><line style="stroke:#181818;stroke-width:0.45;" x1="2537.1" x2="2609.1" y1="493.65" y2="493.65"/><text fill="#000000" font-family="sans-serif" font-size="12.6" lengthAdjust="spacing" textLength="37.8" x="2541.6" y="510.3299">-brand</text><text fill="#000000" font-family="sans-serif" font-size="12.6" lengthAdjust="spacing" textLength="36" x="2541.6" y="526.1783">-name</text><text fill="#000000" font-family="sans-serif" font-size="12.6" lengthAdjust="spacing" textLength="14.4" x="2541.6" y="542.0268">-id</text></g><!--MD5=[a2530d24bafc45bb45314d96545aa194]
class AdministrationProcess--><g id="elem_AdministrationProcess"><rect codeLine="79" fill="#F1F1F1" height="99.3938" id="AdministrationProcess" rx="2.25" ry="2.25" style="stroke:#181818;stroke-width:0.45;" width="156.6" x="2707.2" y="457.2"/><ellipse cx="2721.51" cy="471.6" fill="#ADD1B2" rx="9.9" ry="9.9" style="stroke:#181818;stroke-width:0.9;"/><path d="M2723.31,468.45 Q2723.4928,468 2723.7038,467.775 Q2723.9147,467.55 2724.1538,467.55 Q2724.5756,467.55 2724.8428,467.8031 Q2725.11,468.0563 2725.11,468.6469 L2725.11,470.0531 Q2725.11,470.6438 2724.8569,470.8969 Q2724.6038,471.15 2724.21,471.15 Q2723.8584,471.15 2723.6334,470.9953 Q2723.4084,470.8406 2723.31,470.4328 Q2723.2678,470.1516 2723.1131,469.9969 Q2722.8319,469.7016 2722.3256,469.5328 Q2721.8194,469.35 2721.3131,469.35 Q2720.6803,469.35 2720.1459,469.6031 Q2719.6256,469.8563 2719.2178,470.4188 Q2718.81,470.9813 2718.81,471.7547 L2718.81,472.5844 Q2718.81,473.5125 2719.5694,474.1313 Q2720.3288,474.75 2721.6788,474.75 Q2722.4803,474.75 2723.0428,474.5672 Q2723.3663,474.4688 2723.7319,474.1453 Q2723.9709,473.9625 2724.0975,473.9063 Q2724.2241,473.85 2724.3788,473.85 Q2724.6741,473.85 2724.885,474.0891 Q2725.11,474.3141 2725.11,474.6375 Q2725.11,474.9469 2724.8006,475.3125 Q2724.3506,475.8469 2723.6334,476.1422 Q2722.6913,476.55 2721.5381,476.55 Q2720.1881,476.55 2719.1053,476.0156 Q2718.2334,475.5938 2717.6147,474.6797 Q2717.01,473.7656 2717.01,472.6828 L2717.01,471.6984 Q2717.01,470.5734 2717.5444,469.5891 Q2718.0928,468.6047 2719.035,468.0844 Q2719.9913,467.55 2721.06,467.55 Q2721.7069,467.55 2722.2694,467.775 Q2722.8319,468 2723.31,468.45 Z " fill="#000000"/><text fill="#000000" font-family="sans-serif" font-size="12.6" lengthAdjust="spacing" textLength="126" x="2734.29" y="476.7557">AdministrationProcess</text><line style="stroke:#181818;stroke-width:0.45;" x1="2708.1" x2="2862.9" y1="486" y2="486"/><text fill="#000000" font-family="sans-serif" font-size="12.6" lengthAdjust="spacing" textLength="97.2" x="2712.6" y="502.6799">-numberOfDoses</text><text fill="#000000" font-family="sans-serif" font-size="12.6" lengthAdjust="spacing" textLength="46.8" x="2712.6" y="518.5283">-dosage</text><text fill="#000000" font-family="sans-serif" font-size="12.6" lengthAdjust="spacing" textLength="26.1" x="2712.6" y="534.3768">-age</text><text fill="#000000" font-family="sans-serif" font-size="12.6" lengthAdjust="spacing" textLength="145.8" x="2712.6" y="550.2252">-intervalBetweenVaccines</text></g><!--MD5=[0e501da62322464167c8ec4d233a6b7e]
class VaccineType--><g id="elem_VaccineType"><rect codeLine="86" fill="#F1F1F1" height="83.5453" id="VaccineType" rx="2.25" ry="2.25" style="stroke:#181818;stroke-width:0.45;" width="102.6" x="2092.5" y="314.55"/><ellipse cx="2106" cy="328.95" fill="#ADD1B2" rx="9.9" ry="9.9" style="stroke:#181818;stroke-width:0.9;"/><path d="M2107.8,325.8 Q2107.9828,325.35 2108.1938,325.125 Q2108.4047,324.9 2108.6438,324.9 Q2109.0656,324.9 2109.3328,325.1531 Q2109.6,325.4063 2109.6,325.9969 L2109.6,327.4031 Q2109.6,327.9938 2109.3469,328.2469 Q2109.0938,328.5 2108.7,328.5 Q2108.3484,328.5 2108.1234,328.3453 Q2107.8984,328.1906 2107.8,327.7828 Q2107.7578,327.5016 2107.6031,327.3469 Q2107.3219,327.0516 2106.8156,326.8828 Q2106.3094,326.7 2105.8031,326.7 Q2105.1703,326.7 2104.6359,326.9531 Q2104.1156,327.2063 2103.7078,327.7688 Q2103.3,328.3313 2103.3,329.1047 L2103.3,329.9344 Q2103.3,330.8625 2104.0594,331.4813 Q2104.8188,332.1 2106.1688,332.1 Q2106.9703,332.1 2107.5328,331.9172 Q2107.8563,331.8188 2108.2219,331.4953 Q2108.4609,331.3125 2108.5875,331.2563 Q2108.7141,331.2 2108.8688,331.2 Q2109.1641,331.2 2109.375,331.4391 Q2109.6,331.6641 2109.6,331.9875 Q2109.6,332.2969 2109.2906,332.6625 Q2108.8406,333.1969 2108.1234,333.4922 Q2107.1813,333.9 2106.0281,333.9 Q2104.6781,333.9 2103.5953,333.3656 Q2102.7234,332.9438 2102.1047,332.0297 Q2101.5,331.1156 2101.5,330.0328 L2101.5,329.0484 Q2101.5,327.9234 2102.0344,326.9391 Q2102.5828,325.9547 2103.525,325.4344 Q2104.4813,324.9 2105.55,324.9 Q2106.1969,324.9 2106.7594,325.125 Q2107.3219,325.35 2107.8,325.8 Z " fill="#000000"/><text fill="#000000" font-family="sans-serif" font-size="12.6" lengthAdjust="spacing" textLength="73.8" x="2118.6" y="334.1057">VaccineType</text><line style="stroke:#181818;stroke-width:0.45;" x1="2093.4" x2="2194.2" y1="343.35" y2="343.35"/><text fill="#000000" font-family="sans-serif" font-size="12.6" lengthAdjust="spacing" textLength="32.4" x="2097.9" y="360.0299">-code</text><text fill="#000000" font-family="sans-serif" font-size="12.6" lengthAdjust="spacing" textLength="66.6" x="2097.9" y="375.8783">-description</text><text fill="#000000" font-family="sans-serif" font-size="12.6" lengthAdjust="spacing" textLength="66.6" x="2097.9" y="391.7268">-technology</text></g><!--MD5=[80a03012b5333e72487751e45bd40e3d]
class DigitalCertificate--><g id="elem_DigitalCertificate"><rect codeLine="96" fill="#F1F1F1" height="36" id="DigitalCertificate" rx="2.25" ry="2.25" style="stroke:#181818;stroke-width:0.45;" width="121.5" x="1930.95" y="396"/><ellipse cx="1944.45" cy="410.4" fill="#ADD1B2" rx="9.9" ry="9.9" style="stroke:#181818;stroke-width:0.9;"/><path d="M1946.25,407.25 Q1946.4328,406.8 1946.6438,406.575 Q1946.8547,406.35 1947.0938,406.35 Q1947.5156,406.35 1947.7828,406.6031 Q1948.05,406.8563 1948.05,407.4469 L1948.05,408.8531 Q1948.05,409.4438 1947.7969,409.6969 Q1947.5438,409.95 1947.15,409.95 Q1946.7984,409.95 1946.5734,409.7953 Q1946.3484,409.6406 1946.25,409.2328 Q1946.2078,408.9516 1946.0531,408.7969 Q1945.7719,408.5016 1945.2656,408.3328 Q1944.7594,408.15 1944.2531,408.15 Q1943.6203,408.15 1943.0859,408.4031 Q1942.5656,408.6563 1942.1578,409.2188 Q1941.75,409.7813 1941.75,410.5547 L1941.75,411.3844 Q1941.75,412.3125 1942.5094,412.9313 Q1943.2688,413.55 1944.6188,413.55 Q1945.4203,413.55 1945.9828,413.3672 Q1946.3063,413.2688 1946.6719,412.9453 Q1946.9109,412.7625 1947.0375,412.7063 Q1947.1641,412.65 1947.3188,412.65 Q1947.6141,412.65 1947.825,412.8891 Q1948.05,413.1141 1948.05,413.4375 Q1948.05,413.7469 1947.7406,414.1125 Q1947.2906,414.6469 1946.5734,414.9422 Q1945.6313,415.35 1944.4781,415.35 Q1943.1281,415.35 1942.0453,414.8156 Q1941.1734,414.3938 1940.5547,413.4797 Q1939.95,412.5656 1939.95,411.4828 L1939.95,410.4984 Q1939.95,409.3734 1940.4844,408.3891 Q1941.0328,407.4047 1941.975,406.8844 Q1942.9313,406.35 1944,406.35 Q1944.6469,406.35 1945.2094,406.575 Q1945.7719,406.8 1946.25,407.25 Z " fill="#000000"/><text fill="#000000" font-family="sans-serif" font-size="12.6" lengthAdjust="spacing" textLength="92.7" x="1957.05" y="415.5557">DigitalCertificate</text><line style="stroke:#181818;stroke-width:0.45;" x1="1931.85" x2="2051.55" y1="424.8" y2="424.8"/></g><!--MD5=[cf1ec8291adc4f100e491a8c336ca0ac]
class VaccineAppointment--><g id="elem_VaccineAppointment"><rect codeLine="101" fill="#F1F1F1" height="51.8484" id="VaccineAppointment" rx="2.25" ry="2.25" style="stroke:#181818;stroke-width:0.45;" width="144.9" x="1612.8" y="242.1"/><ellipse cx="1626.3" cy="256.5" fill="#ADD1B2" rx="9.9" ry="9.9" style="stroke:#181818;stroke-width:0.9;"/><path d="M1628.1,253.35 Q1628.2828,252.9 1628.4938,252.675 Q1628.7047,252.45 1628.9438,252.45 Q1629.3656,252.45 1629.6328,252.7031 Q1629.9,252.9563 1629.9,253.5469 L1629.9,254.9531 Q1629.9,255.5438 1629.6469,255.7969 Q1629.3938,256.05 1629,256.05 Q1628.6484,256.05 1628.4234,255.8953 Q1628.1984,255.7406 1628.1,255.3328 Q1628.0578,255.0516 1627.9031,254.8969 Q1627.6219,254.6016 1627.1156,254.4328 Q1626.6094,254.25 1626.1031,254.25 Q1625.4703,254.25 1624.9359,254.5031 Q1624.4156,254.7563 1624.0078,255.3188 Q1623.6,255.8813 1623.6,256.6547 L1623.6,257.4844 Q1623.6,258.4125 1624.3594,259.0313 Q1625.1188,259.65 1626.4688,259.65 Q1627.2703,259.65 1627.8328,259.4672 Q1628.1563,259.3688 1628.5219,259.0453 Q1628.7609,258.8625 1628.8875,258.8063 Q1629.0141,258.75 1629.1688,258.75 Q1629.4641,258.75 1629.675,258.9891 Q1629.9,259.2141 1629.9,259.5375 Q1629.9,259.8469 1629.5906,260.2125 Q1629.1406,260.7469 1628.4234,261.0422 Q1627.4813,261.45 1626.3281,261.45 Q1624.9781,261.45 1623.8953,260.9156 Q1623.0234,260.4938 1622.4047,259.5797 Q1621.8,258.6656 1621.8,257.5828 L1621.8,256.5984 Q1621.8,255.4734 1622.3344,254.4891 Q1622.8828,253.5047 1623.825,252.9844 Q1624.7813,252.45 1625.85,252.45 Q1626.4969,252.45 1627.0594,252.675 Q1627.6219,252.9 1628.1,253.35 Z " fill="#000000"/><text fill="#000000" font-family="sans-serif" font-size="12.6" lengthAdjust="spacing" textLength="116.1" x="1638.9" y="261.6557">VaccineAppointment</text><line style="stroke:#181818;stroke-width:0.45;" x1="1613.7" x2="1756.8" y1="270.9" y2="270.9"/><text fill="#000000" font-family="sans-serif" font-size="12.6" lengthAdjust="spacing" textLength="29.7" x="1618.2" y="287.5799">-date</text></g><!--MD5=[7cee63e05c54fc7e82ca7f101606cdb1]
class UsersWaitingList--><g id="elem_UsersWaitingList"><rect codeLine="152" fill="#F1F1F1" height="36" id="UsersWaitingList" rx="2.25" ry="2.25" style="stroke:#181818;stroke-width:0.45;" width="123.3" x="602.1" y="463.5"/><ellipse cx="615.6" cy="477.9" fill="#ADD1B2" rx="9.9" ry="9.9" style="stroke:#181818;stroke-width:0.9;"/><path d="M617.4,474.75 Q617.5828,474.3 617.7938,474.075 Q618.0047,473.85 618.2438,473.85 Q618.6656,473.85 618.9328,474.1031 Q619.2,474.3563 619.2,474.9469 L619.2,476.3531 Q619.2,476.9438 618.9469,477.1969 Q618.6938,477.45 618.3,477.45 Q617.9484,477.45 617.7234,477.2953 Q617.4984,477.1406 617.4,476.7328 Q617.3578,476.4516 617.2031,476.2969 Q616.9219,476.0016 616.4156,475.8328 Q615.9094,475.65 615.4031,475.65 Q614.7703,475.65 614.2359,475.9031 Q613.7156,476.1563 613.3078,476.7188 Q612.9,477.2813 612.9,478.0547 L612.9,478.8844 Q612.9,479.8125 613.6594,480.4313 Q614.4188,481.05 615.7688,481.05 Q616.5703,481.05 617.1328,480.8672 Q617.4563,480.7688 617.8219,480.4453 Q618.0609,480.2625 618.1875,480.2063 Q618.3141,480.15 618.4688,480.15 Q618.7641,480.15 618.975,480.3891 Q619.2,480.6141 619.2,480.9375 Q619.2,481.2469 618.8906,481.6125 Q618.4406,482.1469 617.7234,482.4422 Q616.7813,482.85 615.6281,482.85 Q614.2781,482.85 613.1953,482.3156 Q612.3234,481.8938 611.7047,480.9797 Q611.1,480.0656 611.1,478.9828 L611.1,477.9984 Q611.1,476.8734 611.6344,475.8891 Q612.1828,474.9047 613.125,474.3844 Q614.0813,473.85 615.15,473.85 Q615.7969,473.85 616.3594,474.075 Q616.9219,474.3 617.4,474.75 Z " fill="#000000"/><text fill="#000000" font-family="sans-serif" font-size="12.6" lengthAdjust="spacing" textLength="94.5" x="628.2" y="483.0557">UsersWaitingList</text><line style="stroke:#181818;stroke-width:0.45;" x1="603" x2="724.5" y1="492.3" y2="492.3"/></g><!--MD5=[1869ee9863863a0d2594cbfcdbe20ea7]
class VaccineBulletin--><g id="elem_VaccineBulletin"><rect codeLine="135" fill="#F1F1F1" height="83.5453" id="VaccineBulletin" rx="2.25" ry="2.25" style="stroke:#181818;stroke-width:0.45;" width="135.9" x="2235.6" y="464.85"/><ellipse cx="2258.415" cy="479.25" fill="#ADD1B2" rx="9.9" ry="9.9" style="stroke:#181818;stroke-width:0.9;"/><path d="M2260.215,476.1 Q2260.3978,475.65 2260.6088,475.425 Q2260.8197,475.2 2261.0588,475.2 Q2261.4806,475.2 2261.7478,475.4531 Q2262.015,475.7063 2262.015,476.2969 L2262.015,477.7031 Q2262.015,478.2938 2261.7619,478.5469 Q2261.5088,478.8 2261.115,478.8 Q2260.7634,478.8 2260.5384,478.6453 Q2260.3134,478.4906 2260.215,478.0828 Q2260.1728,477.8016 2260.0181,477.6469 Q2259.7369,477.3516 2259.2306,477.1828 Q2258.7244,477 2258.2181,477 Q2257.5853,477 2257.0509,477.2531 Q2256.5306,477.5063 2256.1228,478.0688 Q2255.715,478.6313 2255.715,479.4047 L2255.715,480.2344 Q2255.715,481.1625 2256.4744,481.7813 Q2257.2338,482.4 2258.5838,482.4 Q2259.3853,482.4 2259.9478,482.2172 Q2260.2713,482.1188 2260.6369,481.7953 Q2260.8759,481.6125 2261.0025,481.5563 Q2261.1291,481.5 2261.2838,481.5 Q2261.5791,481.5 2261.79,481.7391 Q2262.015,481.9641 2262.015,482.2875 Q2262.015,482.5969 2261.7056,482.9625 Q2261.2556,483.4969 2260.5384,483.7922 Q2259.5963,484.2 2258.4431,484.2 Q2257.0931,484.2 2256.0103,483.6656 Q2255.1384,483.2438 2254.5197,482.3297 Q2253.915,481.4156 2253.915,480.3328 L2253.915,479.3484 Q2253.915,478.2234 2254.4494,477.2391 Q2254.9978,476.2547 2255.94,475.7344 Q2256.8963,475.2 2257.965,475.2 Q2258.6119,475.2 2259.1744,475.425 Q2259.7369,475.65 2260.215,476.1 Z " fill="#000000"/><text fill="#000000" font-family="sans-serif" font-size="12.6" lengthAdjust="spacing" textLength="86.4" x="2273.085" y="484.4057">VaccineBulletin</text><line style="stroke:#181818;stroke-width:0.45;" x1="2236.5" x2="2370.6" y1="493.65" y2="493.65"/><text fill="#000000" font-family="sans-serif" font-size="12.6" lengthAdjust="spacing" textLength="125.1" x="2241" y="510.3299">-dateTimeOfLastDose</text><text fill="#000000" font-family="sans-serif" font-size="12.6" lengthAdjust="spacing" textLength="76.5" x="2241" y="526.1783">-doseNumber</text><text fill="#000000" font-family="sans-serif" font-size="12.6" lengthAdjust="spacing" textLength="62.1" x="2241" y="542.0268">-lotNumber</text></g><!--MD5=[605056f3b750e89e8a7ae3805405579b]
class AdverseReactions--><g id="elem_AdverseReactions"><rect codeLine="124" fill="#F1F1F1" height="36" id="AdverseReactions" rx="2.25" ry="2.25" style="stroke:#181818;stroke-width:0.45;" width="132.3" x="2719.35" y="681.3"/><ellipse cx="2732.85" cy="695.7" fill="#ADD1B2" rx="9.9" ry="9.9" style="stroke:#181818;stroke-width:0.9;"/><path d="M2734.65,692.55 Q2734.8328,692.1 2735.0438,691.875 Q2735.2547,691.65 2735.4938,691.65 Q2735.9156,691.65 2736.1828,691.9031 Q2736.45,692.1563 2736.45,692.7469 L2736.45,694.1531 Q2736.45,694.7438 2736.1969,694.9969 Q2735.9438,695.25 2735.55,695.25 Q2735.1984,695.25 2734.9734,695.0953 Q2734.7484,694.9406 2734.65,694.5328 Q2734.6078,694.2516 2734.4531,694.0969 Q2734.1719,693.8016 2733.6656,693.6328 Q2733.1594,693.45 2732.6531,693.45 Q2732.0203,693.45 2731.4859,693.7031 Q2730.9656,693.9563 2730.5578,694.5188 Q2730.15,695.0813 2730.15,695.8547 L2730.15,696.6844 Q2730.15,697.6125 2730.9094,698.2313 Q2731.6688,698.85 2733.0188,698.85 Q2733.8203,698.85 2734.3828,698.6672 Q2734.7063,698.5688 2735.0719,698.2453 Q2735.3109,698.0625 2735.4375,698.0063 Q2735.5641,697.95 2735.7188,697.95 Q2736.0141,697.95 2736.225,698.1891 Q2736.45,698.4141 2736.45,698.7375 Q2736.45,699.0469 2736.1406,699.4125 Q2735.6906,699.9469 2734.9734,700.2422 Q2734.0313,700.65 2732.8781,700.65 Q2731.5281,700.65 2730.4453,700.1156 Q2729.5734,699.6938 2728.9547,698.7797 Q2728.35,697.8656 2728.35,696.7828 L2728.35,695.7984 Q2728.35,694.6734 2728.8844,693.6891 Q2729.4328,692.7047 2730.375,692.1844 Q2731.3313,691.65 2732.4,691.65 Q2733.0469,691.65 2733.6094,691.875 Q2734.1719,692.1 2734.65,692.55 Z " fill="#000000"/><text fill="#000000" font-family="sans-serif" font-size="12.6" lengthAdjust="spacing" textLength="103.5" x="2745.45" y="700.8557">AdverseReactions</text><line style="stroke:#181818;stroke-width:0.45;" x1="2720.25" x2="2850.75" y1="710.1" y2="710.1"/></g><!--MD5=[a13ca6a63a04f520383aacb00972fb48]
class EntriesAndExitsList--><g id="elem_EntriesAndExitsList"><rect codeLine="134" fill="#F1F1F1" height="36" id="EntriesAndExitsList" rx="2.25" ry="2.25" style="stroke:#181818;stroke-width:0.45;" width="136.8" x="1616.85" y="153"/><ellipse cx="1630.35" cy="167.4" fill="#ADD1B2" rx="9.9" ry="9.9" style="stroke:#181818;stroke-width:0.9;"/><path d="M1632.15,164.25 Q1632.3328,163.8 1632.5438,163.575 Q1632.7547,163.35 1632.9938,163.35 Q1633.4156,163.35 1633.6828,163.6031 Q1633.95,163.8563 1633.95,164.4469 L1633.95,165.8531 Q1633.95,166.4438 1633.6969,166.6969 Q1633.4438,166.95 1633.05,166.95 Q1632.6984,166.95 1632.4734,166.7953 Q1632.2484,166.6406 1632.15,166.2328 Q1632.1078,165.9516 1631.9531,165.7969 Q1631.6719,165.5016 1631.1656,165.3328 Q1630.6594,165.15 1630.1531,165.15 Q1629.5203,165.15 1628.9859,165.4031 Q1628.4656,165.6563 1628.0578,166.2188 Q1627.65,166.7813 1627.65,167.5547 L1627.65,168.3844 Q1627.65,169.3125 1628.4094,169.9313 Q1629.1688,170.55 1630.5188,170.55 Q1631.3203,170.55 1631.8828,170.3672 Q1632.2063,170.2688 1632.5719,169.9453 Q1632.8109,169.7625 1632.9375,169.7063 Q1633.0641,169.65 1633.2188,169.65 Q1633.5141,169.65 1633.725,169.8891 Q1633.95,170.1141 1633.95,170.4375 Q1633.95,170.7469 1633.6406,171.1125 Q1633.1906,171.6469 1632.4734,171.9422 Q1631.5313,172.35 1630.3781,172.35 Q1629.0281,172.35 1627.9453,171.8156 Q1627.0734,171.3938 1626.4547,170.4797 Q1625.85,169.5656 1625.85,168.4828 L1625.85,167.4984 Q1625.85,166.3734 1626.3844,165.3891 Q1626.9328,164.4047 1627.875,163.8844 Q1628.8313,163.35 1629.9,163.35 Q1630.5469,163.35 1631.1094,163.575 Q1631.6719,163.8 1632.15,164.25 Z " fill="#000000"/><text fill="#000000" font-family="sans-serif" font-size="12.6" lengthAdjust="spacing" textLength="108" x="1642.95" y="172.5557">EntriesAndExitsList</text><line style="stroke:#181818;stroke-width:0.45;" x1="1617.75" x2="1752.75" y1="181.8" y2="181.8"/></g><!--MD5=[fece783277156729c2733e594694f26c]
class DailyTask--><g id="elem_DailyTask"><rect fill="#F1F1F1" height="36" id="DailyTask" rx="2.25" ry="2.25" style="stroke:#181818;stroke-width:0.45;" width="84.6" x="898.65" y="173.7"/><ellipse cx="912.15" cy="188.1" fill="#ADD1B2" rx="9.9" ry="9.9" style="stroke:#181818;stroke-width:0.9;"/><path d="M913.95,184.95 Q914.1328,184.5 914.3438,184.275 Q914.5547,184.05 914.7938,184.05 Q915.2156,184.05 915.4828,184.3031 Q915.75,184.5563 915.75,185.1469 L915.75,186.5531 Q915.75,187.1438 915.4969,187.3969 Q915.2438,187.65 914.85,187.65 Q914.4984,187.65 914.2734,187.4953 Q914.0484,187.3406 913.95,186.9328 Q913.9078,186.6516 913.7531,186.4969 Q913.4719,186.2016 912.9656,186.0328 Q912.4594,185.85 911.9531,185.85 Q911.3203,185.85 910.7859,186.1031 Q910.2656,186.3563 909.8578,186.9188 Q909.45,187.4813 909.45,188.2547 L909.45,189.0844 Q909.45,190.0125 910.2094,190.6313 Q910.9688,191.25 912.3188,191.25 Q913.1203,191.25 913.6828,191.0672 Q914.0063,190.9688 914.3719,190.6453 Q914.6109,190.4625 914.7375,190.4063 Q914.8641,190.35 915.0188,190.35 Q915.3141,190.35 915.525,190.5891 Q915.75,190.8141 915.75,191.1375 Q915.75,191.4469 915.4406,191.8125 Q914.9906,192.3469 914.2734,192.6422 Q913.3313,193.05 912.1781,193.05 Q910.8281,193.05 909.7453,192.5156 Q908.8734,192.0938 908.2547,191.1797 Q907.65,190.2656 907.65,189.1828 L907.65,188.1984 Q907.65,187.0734 908.1844,186.0891 Q908.7328,185.1047 909.675,184.5844 Q910.6313,184.05 911.7,184.05 Q912.3469,184.05 912.9094,184.275 Q913.4719,184.5 913.95,184.95 Z " fill="#000000"/><text fill="#000000" font-family="sans-serif" font-size="12.6" lengthAdjust="spacing" textLength="55.8" x="924.75" y="193.2557">DailyTask</text><line style="stroke:#181818;stroke-width:0.45;" x1="899.55" x2="982.35" y1="202.5" y2="202.5"/></g><!--MD5=[6ea91c1482e11d5ab58156f1589eb8b8]
class VaccinationStatistics--><g id="elem_VaccinationStatistics"><rect fill="#F1F1F1" height="36" id="VaccinationStatistics" rx="2.25" ry="2.25" style="stroke:#181818;stroke-width:0.45;" width="144.9" x="1612.8" y="6.3"/><ellipse cx="1626.3" cy="20.7" fill="#ADD1B2" rx="9.9" ry="9.9" style="stroke:#181818;stroke-width:0.9;"/><path d="M1628.1,17.55 Q1628.2828,17.1 1628.4938,16.875 Q1628.7047,16.65 1628.9438,16.65 Q1629.3656,16.65 1629.6328,16.9031 Q1629.9,17.1563 1629.9,17.7469 L1629.9,19.1531 Q1629.9,19.7438 1629.6469,19.9969 Q1629.3938,20.25 1629,20.25 Q1628.6484,20.25 1628.4234,20.0953 Q1628.1984,19.9406 1628.1,19.5328 Q1628.0578,19.2516 1627.9031,19.0969 Q1627.6219,18.8016 1627.1156,18.6328 Q1626.6094,18.45 1626.1031,18.45 Q1625.4703,18.45 1624.9359,18.7031 Q1624.4156,18.9563 1624.0078,19.5188 Q1623.6,20.0813 1623.6,20.8547 L1623.6,21.6844 Q1623.6,22.6125 1624.3594,23.2313 Q1625.1188,23.85 1626.4688,23.85 Q1627.2703,23.85 1627.8328,23.6672 Q1628.1563,23.5688 1628.5219,23.2453 Q1628.7609,23.0625 1628.8875,23.0063 Q1629.0141,22.95 1629.1688,22.95 Q1629.4641,22.95 1629.675,23.1891 Q1629.9,23.4141 1629.9,23.7375 Q1629.9,24.0469 1629.5906,24.4125 Q1629.1406,24.9469 1628.4234,25.2422 Q1627.4813,25.65 1626.3281,25.65 Q1624.9781,25.65 1623.8953,25.1156 Q1623.0234,24.6938 1622.4047,23.7797 Q1621.8,22.8656 1621.8,21.7828 L1621.8,20.7984 Q1621.8,19.6734 1622.3344,18.6891 Q1622.8828,17.7047 1623.825,17.1844 Q1624.7813,16.65 1625.85,16.65 Q1626.4969,16.65 1627.0594,16.875 Q1627.6219,17.1 1628.1,17.55 Z " fill="#000000"/><text fill="#000000" font-family="sans-serif" font-size="12.6" lengthAdjust="spacing" textLength="116.1" x="1638.9" y="25.8557">VaccinationStatistics</text><line style="stroke:#181818;stroke-width:0.45;" x1="1613.7" x2="1756.8" y1="35.1" y2="35.1"/></g><!--MD5=[9b8ebf81449376133935fbe26f4b2cd4]
link Administrator to Application--><g id="link_Administrator_Application"><path codeLine="22" d="M398.808,336.6 C459.576,336.6 560.187,336.6 618.084,336.6 " fill="none" id="Administrator-Application" style="stroke:#181818;stroke-width:0.9;"/><polygon fill="#000000" points="435.15,328.6582,427.0094,326.0132,427.0094,331.3032,435.15,328.6582" style="stroke:#000000;stroke-width:0.9;"/><text fill="#000000" font-family="sans-serif" font-size="11.7" lengthAdjust="spacing" textLength="47.7" x="438.75" y="333.4456">manages</text><text fill="#000000" font-family="sans-serif" font-size="11.7" lengthAdjust="spacing" textLength="4.5" x="405.7406" y="349.6884">*</text><text fill="#000000" font-family="sans-serif" font-size="11.7" lengthAdjust="spacing" textLength="6.3" x="604.9192" y="349.7804">1</text></g><!--MD5=[bc55124b44ee97098f5269cfae7858cc]
reverse link ApplicationUser to Employee--><g id="link_ApplicationUser_Employee"><path codeLine="28" d="M145.881,367.524 C158.868,362.448 171.891,357.354 183.51,352.818 " fill="none" id="ApplicationUser-backto-Employee" style="stroke:#181818;stroke-width:0.9;"/><polygon fill="none" points="148.005,373.455,128.943,374.139,143.415,361.719,148.005,373.455" style="stroke:#181818;stroke-width:0.9;"/></g><!--MD5=[ae7cf994a8037bd5ae694a195d04bab2]
reverse link ApplicationUser to SnsUser--><g id="link_ApplicationUser_SnsUser"><path codeLine="29" d="M146.826,410.373 C171.747,413.406 199.467,415.8 225,415.8 C225,415.8 225,415.8 941.85,415.8 C994.275,415.8 1054.188,415.215 1095.858,414.702 " fill="none" id="ApplicationUser-backto-SnsUser" style="stroke:#181818;stroke-width:0.9;"/><polygon fill="none" points="145.854,416.601,128.826,408.006,147.492,404.1,145.854,416.601" style="stroke:#181818;stroke-width:0.9;"/></g><!--MD5=[6716344a46572fc99c27bf4e50ddbd3d]
reverse link Employee to Nurse--><g id="link_Employee_Nurse"><path codeLine="30" d="M266.904,375.516 C316.908,424.053 400.302,504.99 437.256,540.855 " fill="none" id="Employee-backto-Nurse" style="stroke:#181818;stroke-width:0.9;"/><polygon fill="none" points="262.278,379.809,253.746,362.754,271.053,370.773,262.278,379.809" style="stroke:#181818;stroke-width:0.9;"/></g><!--MD5=[bfff716514ca687b645fe473c6e098a4]
reverse link Employee to Receptionist--><g id="link_Employee_Receptionist"><path codeLine="31" d="M285.543,306.387 C288.765,305.235 291.996,304.2 295.2,303.3 C406.161,272.241 542.556,267.939 613.962,268.128 " fill="none" id="Employee-backto-Receptionist" style="stroke:#181818;stroke-width:0.9;"/><polygon fill="none" points="287.595,312.354,268.551,313.353,282.816,300.699,287.595,312.354" style="stroke:#181818;stroke-width:0.9;"/></g><!--MD5=[f7fb1bbd8b4f4021e9754ae6fe2871a0]
reverse link Employee to Administrator--><g id="link_Employee_Administrator"><path codeLine="32" d="M286.749,336.6 C289.557,336.6 292.356,336.6 295.128,336.6 " fill="none" id="Employee-backto-Administrator" style="stroke:#181818;stroke-width:0.9;"/><polygon fill="none" points="286.506,342.9,268.506,336.6,286.506,330.3,286.506,342.9" style="stroke:#181818;stroke-width:0.9;"/></g><!--MD5=[98f7f3dc8d9719d04ad14614c4ea123f]
reverse link Employee to CenterCoordinator--><g id="link_Employee_CenterCoordinator"><path codeLine="33" d="M240.345,293.166 C267.552,215.577 336.654,61.2 455.85,61.2 C455.85,61.2 455.85,61.2 1149.75,61.2 C1202.769,61.2 1262.826,61.2 1307.484,61.2 " fill="none" id="Employee-backto-CenterCoordinator" style="stroke:#181818;stroke-width:0.9;"/><polygon fill="none" points="246.24,295.389,234.531,310.446,234.297,291.375,246.24,295.389" style="stroke:#181818;stroke-width:0.9;"/></g><!--MD5=[a09fc339ad85d4e67aa3195beeccb7d9]
reverse link VaccinationCenter to MassVaccinationCenter--><g id="link_VaccinationCenter_MassVaccinationCenter"><path d="M2083.59,183.411 C2127.402,189.387 2179.494,196.497 2221.884,202.284 " fill="none" id="VaccinationCenter-backto-MassVaccinationCenter" style="stroke:#181818;stroke-width:0.9;"/><polygon fill="none" points="2082.672,189.648,2065.689,180.972,2084.373,177.165,2082.672,189.648" style="stroke:#181818;stroke-width:0.9;"/></g><!--MD5=[860a319d9f073c66a49856aa2bd7c3ed]
reverse link VaccinationCenter to HealthcareCenter--><g id="link_VaccinationCenter_HealthcareCenter"><path d="M2083.545,158.859 C2133.468,152.19 2194.146,144.09 2238.984,138.105 " fill="none" id="VaccinationCenter-backto-HealthcareCenter" style="stroke:#181818;stroke-width:0.9;"/><polygon fill="none" points="2084.364,165.105,2065.689,161.244,2082.69,152.613,2084.364,165.105" style="stroke:#181818;stroke-width:0.9;"/></g><!--MD5=[a98252b7739f22b1ddec3651c1c3aaea]
link Vaccine to AdministrationProcess--><g id="link_Vaccine_AdministrationProcess"><path codeLine="93" d="M2610.207,506.7 C2636.784,506.7 2673.873,506.7 2707.02,506.7 " fill="none" id="Vaccine-AdministrationProcess" style="stroke:#181818;stroke-width:0.9;"/><polygon fill="#000000" points="2646.9,498.7582,2638.7594,496.1132,2638.7594,501.4032,2646.9,498.7582" style="stroke:#000000;stroke-width:0.9;"/><text fill="#000000" font-family="sans-serif" font-size="11.7" lengthAdjust="spacing" textLength="28.8" x="2650.5" y="503.5456">has a</text><text fill="#000000" font-family="sans-serif" font-size="11.7" lengthAdjust="spacing" textLength="6.3" x="2617.1262" y="520.1236">1</text><text fill="#000000" font-family="sans-serif" font-size="11.7" lengthAdjust="spacing" textLength="4.5" x="2695.5823" y="519.461">*</text></g><!--MD5=[7991057a0b57fcb72665747661b5eb1a]
link VaccineType to Vaccine--><g id="link_VaccineType_Vaccine"><path codeLine="94" d="M2195.37,373.815 C2265.714,398.043 2396.871,443.457 2508.3,483.3 C2517.309,486.522 2527.02,490.05 2536.074,493.362 " fill="none" id="VaccineType-Vaccine" style="stroke:#181818;stroke-width:0.9;"/><polygon fill="#000000" points="2286.2538,374.8683,2293.0595,380.0594,2294.811,375.0677,2286.2538,374.8683" style="stroke:#000000;stroke-width:0.9;"/><text fill="#000000" font-family="sans-serif" font-size="11.7" lengthAdjust="spacing" textLength="21.6" x="2298.6" y="381.1456">is of</text><text fill="#000000" font-family="sans-serif" font-size="11.7" lengthAdjust="spacing" textLength="4.5" x="2202.2657" y="389.1446">*</text><text fill="#000000" font-family="sans-serif" font-size="11.7" lengthAdjust="spacing" textLength="6.3" x="2522.6177" y="487.4912">1</text></g><!--MD5=[894f32e3bda40c7272620a3388816726]
link SnsUser to DigitalCertificate--><g id="link_SnsUser_DigitalCertificate"><path codeLine="99" d="M1201.725,414 C1349.82,414 1773.378,414 1930.869,414 " fill="none" id="SnsUser-DigitalCertificate" style="stroke:#181818;stroke-width:0.9;"/><polygon fill="#000000" points="1507.5,406.0582,1499.3594,403.4132,1499.3594,408.7032,1507.5,406.0582" style="stroke:#000000;stroke-width:0.9;"/><text fill="#000000" font-family="sans-serif" font-size="11.7" lengthAdjust="spacing" textLength="45" x="1511.1" y="410.8456">requests</text><text fill="#000000" font-family="sans-serif" font-size="11.7" lengthAdjust="spacing" textLength="6.3" x="1208.553" y="427.0638">1</text><text fill="#000000" font-family="sans-serif" font-size="11.7" lengthAdjust="spacing" textLength="6.3" x="1917.5711" y="426.9504">1</text></g><!--MD5=[cc5e2fb97d9f5c96dda5e8bbfd01385e]
link SnsUser to VaccineAppointment--><g id="link_SnsUser_VaccineAppointment"><path codeLine="105" d="M1201.797,398.322 C1210.698,395.703 1219.851,393.048 1228.5,390.6 C1363.932,352.305 1522.818,310.302 1612.737,286.803 " fill="none" id="SnsUser-VaccineAppointment" style="stroke:#181818;stroke-width:0.9;"/><polygon fill="#000000" points="1350.7429,323.8796,1342.1938,323.459,1343.5792,328.5644,1350.7429,323.8796" style="stroke:#000000;stroke-width:0.9;"/><text fill="#000000" font-family="sans-serif" font-size="11.7" lengthAdjust="spacing" textLength="53.1" x="1354.5" y="329.8456">schedules</text><text fill="#000000" font-family="sans-serif" font-size="11.7" lengthAdjust="spacing" textLength="6.3" x="1208.6338" y="409.4751">1</text><text fill="#000000" font-family="sans-serif" font-size="11.7" lengthAdjust="spacing" textLength="4.5" x="1601.1112" y="301.4398">*</text></g><!--MD5=[ead49c6eb232874c9bfdd14aaf3032df]
link Receptionist to UsersWaitingList--><g id="link_Receptionist_UsersWaitingList"><path codeLine="110" d="M621.666,287.208 C590.508,303.291 550.773,330.156 534.6,368.1 C516.114,411.471 569.646,444.501 613.332,463.437 " fill="none" id="Receptionist-UsersWaitingList" style="stroke:#181818;stroke-width:0.9;"/><polygon fill="#000000" points="519.0874,380.8532,522.1141,372.8466,516.8299,372.5967,519.0874,380.8532" style="stroke:#000000;stroke-width:0.9;"/><text fill="#000000" font-family="sans-serif" font-size="11.7" lengthAdjust="spacing" textLength="46.8" x="527.4" y="381.1456">atualizes</text><text fill="#000000" font-family="sans-serif" font-size="11.7" lengthAdjust="spacing" textLength="4.5" x="604.6971" y="306.516">*</text><text fill="#000000" font-family="sans-serif" font-size="11.7" lengthAdjust="spacing" textLength="6.3" x="591.2964" y="453.8081">1</text></g><!--MD5=[a130e805f12c6caaf0787465d0f0d87e]
link Nurse to UsersWaitingList--><g id="link_Nurse_UsersWaitingList"><path codeLine="111" d="M487.818,546.291 C496.494,542.736 505.998,538.902 514.8,535.5 C546.948,523.062 583.317,509.787 611.964,499.509 " fill="none" id="Nurse-UsersWaitingList" style="stroke:#181818;stroke-width:0.9;"/><polygon fill="#000000" points="528.0109,504.3714,519.4606,504.7668,521.326,509.7171,528.0109,504.3714" style="stroke:#000000;stroke-width:0.9;"/><text fill="#000000" font-family="sans-serif" font-size="11.7" lengthAdjust="spacing" textLength="37.8" x="531.9" y="510.7456">checks</text><text fill="#000000" font-family="sans-serif" font-size="11.7" lengthAdjust="spacing" textLength="4.5" x="495.1063" y="539.738">*</text><text fill="#000000" font-family="sans-serif" font-size="11.7" lengthAdjust="spacing" textLength="6.3" x="590.2133" y="518.7891">1</text></g><!--MD5=[49bdc4f43c0486f86f6744f0a65b0571]
link Nurse to Vaccine--><g id="link_Nurse_Vaccine"><path codeLine="112" d="M488.016,574.695 C527.283,593.622 598.302,622.8 662.85,622.8 C662.85,622.8 662.85,622.8 2304.45,622.8 C2393.37,622.8 2486.205,568.233 2535.804,533.916 " fill="none" id="Nurse-Vaccine" style="stroke:#181818;stroke-width:0.9;"/><polygon fill="#000000" points="1347.2991,614.7686,1339.1075,612.2862,1339.2128,617.5752,1347.2991,614.7686" style="stroke:#000000;stroke-width:0.9;"/><text fill="#000000" font-family="sans-serif" font-size="11.7" lengthAdjust="spacing" textLength="60.3" x="1350.9" y="619.6456">administers</text><text fill="#000000" font-family="sans-serif" font-size="11.7" lengthAdjust="spacing" textLength="6.3" x="495.1143" y="591.616">1</text><text fill="#000000" font-family="sans-serif" font-size="11.7" lengthAdjust="spacing" textLength="4.5" x="2524.507" y="552.0173">*</text></g><!--MD5=[d6d5ce89de07d138e2abbf7ac69e87fb]
link VaccineAppointment to VaccineType--><g id="link_VaccineAppointment_VaccineType"><path codeLine="113" d="M1757.826,283.437 C1803.573,293.031 1864.152,305.532 1917.9,315.9 C1977.723,327.438 2046.699,339.705 2092.347,347.67 " fill="none" id="VaccineAppointment-VaccineType" style="stroke:#181818;stroke-width:0.9;"/><polygon fill="#000000" points="1793.6193,281.8068,1786.1235,277.6741,1785.126,282.8693,1793.6193,281.8068" style="stroke:#000000;stroke-width:0.9;"/><text fill="#000000" font-family="sans-serif" font-size="11.7" lengthAdjust="spacing" textLength="92.7" x="1797.3" y="285.7456">is associated to a</text><text fill="#000000" font-family="sans-serif" font-size="11.7" lengthAdjust="spacing" textLength="4.5" x="1764.9579" y="297.753">*</text><text fill="#000000" font-family="sans-serif" font-size="11.7" lengthAdjust="spacing" textLength="6.3" x="2079.051" y="359.6498">1</text></g><!--MD5=[cb1b4381e3f58fc8df8a798af52e3711]
link UsersWaitingList to SnsUser--><g id="link_UsersWaitingList_SnsUser"><path codeLine="114" d="M725.463,482.859 C800.604,483.273 931.905,479.835 1041.3,455.4 C1059.615,451.305 1078.947,444.6 1096.038,437.76 " fill="none" id="UsersWaitingList-SnsUser" style="stroke:#181818;stroke-width:0.9;"/><polygon fill="#000000" points="933.717,446.9146,925.3165,445.2724,925.9556,450.5237,933.717,446.9146" style="stroke:#000000;stroke-width:0.9;"/><text fill="#000000" font-family="sans-serif" font-size="11.7" lengthAdjust="spacing" textLength="18.9" x="937.35" y="452.2456">has</text><text fill="#000000" font-family="sans-serif" font-size="11.7" lengthAdjust="spacing" textLength="6.3" x="732.5574" y="495.958">1</text><text fill="#000000" font-family="sans-serif" font-size="11.7" lengthAdjust="spacing" textLength="4.5" x="1084.4832" y="453.9151">*</text></g><!--MD5=[a07e592682deace6ce66f6c24dd9b853]
link VaccineBulletin to AdverseReactions--><g id="link_VaccineBulletin_AdverseReactions"><path codeLine="126" d="M2371.716,533.682 C2471.211,573.597 2654.946,647.289 2739.663,681.273 " fill="none" id="VaccineBulletin-AdverseReactions" style="stroke:#181818;stroke-width:0.9;"/><polygon fill="#000000" points="2543.9765,593.1335,2537.4058,587.648,2535.4364,592.5578,2543.9765,593.1335" style="stroke:#000000;stroke-width:0.9;"/><text fill="#000000" font-family="sans-serif" font-size="11.7" lengthAdjust="spacing" textLength="62.1" x="2547.9" y="596.2456">can have an</text><text fill="#000000" font-family="sans-serif" font-size="11.7" lengthAdjust="spacing" textLength="4.5" x="2378.6476" y="549.2156">*</text><text fill="#000000" font-family="sans-serif" font-size="11.7" lengthAdjust="spacing" textLength="6.3" x="2718.9731" y="671.6546">1</text></g><!--MD5=[fdae96c7eefb5be58cdd531dc437169a]
link Nurse to VaccineBulletin--><g id="link_Nurse_VaccineBulletin"><path codeLine="128" d="M487.899,558.9 C527.922,558.9 600.687,558.9 662.85,558.9 C662.85,558.9 662.85,558.9 1992.6,558.9 C2077.209,558.9 2173.023,539.766 2235.456,524.664 " fill="none" id="Nurse-VaccineBulletin" style="stroke:#181818;stroke-width:0.9;"/><polygon fill="#000000" points="1237.4991,550.8701,1229.3083,548.385,1229.4119,553.674,1237.4991,550.8701" style="stroke:#000000;stroke-width:0.9;"/><text fill="#000000" font-family="sans-serif" font-size="11.7" lengthAdjust="spacing" textLength="38.7" x="1241.1" y="555.7456">records</text><text fill="#000000" font-family="sans-serif" font-size="11.7" lengthAdjust="spacing" textLength="6.3" x="494.9732" y="572.5632">1</text><text fill="#000000" font-family="sans-serif" font-size="11.7" lengthAdjust="spacing" textLength="4.5" x="2223.7018" y="539.4289">*</text></g><!--MD5=[95c6a4c232b9987cda7fb042eccfe7e5]
link Nurse to AdverseReactions--><g id="link_Nurse_AdverseReactions"><path codeLine="129" d="M467.082,577.152 C492.201,622.908 565.47,738.9 662.85,738.9 C662.85,738.9 662.85,738.9 2574,738.9 C2624.499,738.9 2680.668,727.767 2722.284,717.3 " fill="none" id="Nurse-AdverseReactions" style="stroke:#181818;stroke-width:0.9;"/><polygon fill="#000000" points="1510.6413,731.2373,1502.6805,728.0925,1502.3524,733.3723,1510.6413,731.2373" style="stroke:#000000;stroke-width:0.9;"/><text fill="#000000" font-family="sans-serif" font-size="11.7" lengthAdjust="spacing" textLength="38.7" x="1514.25" y="735.7456">records</text><text fill="#000000" font-family="sans-serif" font-size="11.7" lengthAdjust="spacing" textLength="6.3" x="462.7122" y="596.1803">1</text><text fill="#000000" font-family="sans-serif" font-size="11.7" lengthAdjust="spacing" textLength="4.5" x="2707.7595" y="733.3286">*</text></g><!--MD5=[2075be8de63a33f6fa84805c185bc4f8]
link Application to SnsUser--><g id="link_Application_SnsUser"><path codeLine="141" d="M709.272,340.83 C784.161,348.354 939.672,365.823 1069.2,392.4 C1077.948,394.191 1087.164,396.414 1096.083,398.745 " fill="none" id="Application-SnsUser" style="stroke:#181818;stroke-width:0.9;"/><polygon fill="#000000" points="849.5504,348.2245,841.8912,344.4033,841.1079,349.635,849.5504,348.2245" style="stroke:#000000;stroke-width:0.9;"/><text fill="#000000" font-family="sans-serif" font-size="11.7" lengthAdjust="spacing" textLength="187.2" x="853.2" y="352.3456">requests authorization to send SMS</text><text fill="#000000" font-family="sans-serif" font-size="11.7" lengthAdjust="spacing" textLength="6.3" x="716.4207" y="354.6776">1</text><text fill="#000000" font-family="sans-serif" font-size="11.7" lengthAdjust="spacing" textLength="4.5" x="1084.5339" y="409.9014">*</text></g><!--MD5=[2075be8de63a33f6fa84805c185bc4f8]
link Application to SnsUser--><g id="link_Application_SnsUser"><path codeLine="142" d="M709.209,326.358 C781.407,311.868 927.378,291.384 1041.3,332.1 C1073.178,343.494 1103.157,368.253 1123.164,387.585 " fill="none" id="Application-SnsUser-1" style="stroke:#181818;stroke-width:0.9;"/><polygon fill="#000000" points="929.2016,300.5166,921.5356,296.709,920.7616,301.9421,929.2016,300.5166" style="stroke:#000000;stroke-width:0.9;"/><text fill="#000000" font-family="sans-serif" font-size="11.7" lengthAdjust="spacing" textLength="27.9" x="932.85" y="304.6456">notify</text><text fill="#000000" font-family="sans-serif" font-size="11.7" lengthAdjust="spacing" textLength="6.3" x="716.3484" y="338.08">1</text><text fill="#000000" font-family="sans-serif" font-size="11.7" lengthAdjust="spacing" textLength="4.5" x="1112.553" y="378.0504">*</text></g><!--MD5=[5cdf538e28483f16b294670c209aa238]
link EntriesAndExitsList to VaccinationCenter--><g id="link_EntriesAndExitsList_VaccinationCenter"><path codeLine="143" d="M1753.758,171 C1802.403,171 1867.95,171 1917.792,171 " fill="none" id="EntriesAndExitsList-VaccinationCenter" style="stroke:#181818;stroke-width:0.9;"/><polygon fill="#000000" points="1821.6,163.0582,1829.7406,165.7032,1829.7406,160.4132,1821.6,163.0582" style="stroke:#000000;stroke-width:0.9;"/><text fill="#000000" font-family="sans-serif" font-size="11.7" lengthAdjust="spacing" textLength="18.9" x="1834.2" y="167.8456">has</text><text fill="#000000" font-family="sans-serif" font-size="11.7" lengthAdjust="spacing" textLength="4.5" x="1761.0549" y="183.9044">*</text><text fill="#000000" font-family="sans-serif" font-size="11.7" lengthAdjust="spacing" textLength="6.3" x="1904.3882" y="183.8434">1</text></g><!--MD5=[d35087f30a174783cf89ba80439f9811]
link Receptionist to VaccineAppointment--><g id="link_Receptionist_VaccineAppointment"><path codeLine="144" d="M677.34,250.956 C692.721,230.364 720.567,197.289 752.4,179.1 C787.446,159.075 800.532,162.333 840.6,157.5 C1126.98,122.94 1467.333,205.497 1612.737,246.618 " fill="none" id="Receptionist-VaccineAppointment" style="stroke:#181818;stroke-width:0.9;"/><polygon fill="#000000" points="1124.55,145.9373,1116.3972,143.3301,1116.4217,148.6201,1124.55,145.9373" style="stroke:#000000;stroke-width:0.9;"/><text fill="#000000" font-family="sans-serif" font-size="11.7" lengthAdjust="spacing" textLength="53.1" x="1128.15" y="150.7456">schedules</text><text fill="#000000" font-family="sans-serif" font-size="11.7" lengthAdjust="spacing" textLength="6.3" x="674.1068" y="241.3033">1</text><text fill="#000000" font-family="sans-serif" font-size="11.7" lengthAdjust="spacing" textLength="4.5" x="1601.1112" y="257.4247">*</text></g><!--MD5=[774a620e86274462c922c31d6e1ab62f]
link VaccinationCenter to VaccineBulletin--><g id="link_VaccinationCenter_VaccineBulletin"><path codeLine="146" d="M2036.691,300.51 C2058.093,360.288 2081.511,420.282 2092.5,430.2 C2127.582,461.862 2150.631,442.116 2195.1,458.1 C2208.312,462.843 2222.145,468.531 2235.339,474.318 " fill="none" id="VaccinationCenter-VaccineBulletin" style="stroke:#181818;stroke-width:0.9;"/><polygon fill="#000000" points="2135.4867,425.2214,2131.1018,417.8703,2127.6184,421.8516,2135.4867,425.2214" style="stroke:#000000;stroke-width:0.9;"/><text fill="#000000" font-family="sans-serif" font-size="11.7" lengthAdjust="spacing" textLength="18.9" x="2140.2" y="427.0456">has</text><text fill="#000000" font-family="sans-serif" font-size="11.7" lengthAdjust="spacing" textLength="6.3" x="2032.2869" y="318.867">1</text><text fill="#000000" font-family="sans-serif" font-size="11.7" lengthAdjust="spacing" textLength="4.5" x="2223.903" y="484.0079">*</text></g><!--MD5=[1642c2e125eebb89846a734d4b2bb547]
link Application to DailyTask--><g id="link_Application_DailyTask"><path codeLine="148" d="M707.022,318.465 C713.79,314.217 720.243,309.177 725.4,303.3 C747.207,278.46 727.344,255.555 752.4,234 C793.161,198.936 856.872,191.241 898.542,190.368 " fill="none" id="Application-DailyTask" style="stroke:#181818;stroke-width:0.9;"/><polygon fill="#000000" points="760.6405,192.0564,752.4034,194.3836,755.3444,198.7808,760.6405,192.0564" style="stroke:#000000;stroke-width:0.9;"/><text fill="#000000" font-family="sans-serif" font-size="11.7" lengthAdjust="spacing" textLength="47.7" x="765" y="199.3456">executes</text><text fill="#000000" font-family="sans-serif" font-size="11.7" lengthAdjust="spacing" textLength="6.3" x="712.5078" y="308.8149">1</text><text fill="#000000" font-family="sans-serif" font-size="11.7" lengthAdjust="spacing" textLength="6.3" x="885.2659" y="203.4364">1</text></g><!--MD5=[50182863975a7f0fd55fd63b7dc30e9d]
link VaccineBulletin to Vaccine--><g id="link_VaccineBulletin_Vaccine"><path codeLine="149" d="M2371.671,506.7 C2423.718,506.7 2493.81,506.7 2535.858,506.7 " fill="none" id="VaccineBulletin-Vaccine" style="stroke:#181818;stroke-width:0.9;"/><polygon fill="#000000" points="2421,498.7582,2412.8594,496.1132,2412.8594,501.4032,2421,498.7582" style="stroke:#000000;stroke-width:0.9;"/><text fill="#000000" font-family="sans-serif" font-size="11.7" lengthAdjust="spacing" textLength="82.8" x="2424.6" y="503.5456">is associated to</text><text fill="#000000" font-family="sans-serif" font-size="11.7" lengthAdjust="spacing" textLength="4.5" x="2378.5981" y="519.5775">*</text><text fill="#000000" font-family="sans-serif" font-size="11.7" lengthAdjust="spacing" textLength="6.3" x="2522.6156" y="520.1236">1</text></g><!--MD5=[d5cf03d886352995267197dc535618ec]
link CenterCoordinator to VaccinationCenter--><g id="link_CenterCoordinator_VaccinationCenter"><path codeLine="153" d="M1442.988,71.028 C1541.43,85.815 1730.97,115.479 1890.9,147.6 C1899.63,149.355 1908.765,151.317 1917.81,153.333 " fill="none" id="CenterCoordinator-VaccinationCenter" style="stroke:#181818;stroke-width:0.9;"/><polygon fill="#000000" points="1634.0161,90.2896,1641.5853,94.2862,1642.4888,89.0738,1634.0161,90.2896" style="stroke:#000000;stroke-width:0.9;"/><text fill="#000000" font-family="sans-serif" font-size="11.7" lengthAdjust="spacing" textLength="89.1" x="1646.55" y="95.8456">is coordinated by</text><text fill="#000000" font-family="sans-serif" font-size="11.7" lengthAdjust="spacing" textLength="6.3" x="1449.971" y="84.8654">1</text><text fill="#000000" font-family="sans-serif" font-size="11.7" lengthAdjust="spacing" textLength="6.3" x="1904.4079" y="164.5477">1</text></g><!--MD5=[47d9fdf39ace2c294c9a20760c9822a7]
link VaccineAppointment to VaccinationCenter--><g id="link_VaccineAppointment_VaccinationCenter"><path codeLine="154" d="M1757.961,245.286 C1806.165,229.905 1869.453,209.718 1917.882,194.265 " fill="none" id="VaccineAppointment-VaccinationCenter" style="stroke:#181818;stroke-width:0.9;"/><polygon fill="#000000" points="1821.8129,198.626,1830.3723,198.6716,1828.7644,193.6318,1821.8129,198.626" style="stroke:#000000;stroke-width:0.9;"/><text fill="#000000" font-family="sans-serif" font-size="11.7" lengthAdjust="spacing" textLength="18.9" x="1834.2" y="202.0456">has</text><text fill="#000000" font-family="sans-serif" font-size="11.7" lengthAdjust="spacing" textLength="4.5" x="1764.8715" y="256.0138">*</text><text fill="#000000" font-family="sans-serif" font-size="11.7" lengthAdjust="spacing" textLength="6.3" x="1904.4865" y="209.2531">1</text></g><!--MD5=[d0019c0afc7056194148dc542fcd30ca]
link SnsUser to VaccineBulletin--><g id="link_SnsUser_VaccineBulletin"><path codeLine="155" d="M1201.581,438.282 C1246.311,456.993 1313.172,479.7 1374.3,479.7 C1374.3,479.7 1374.3,479.7 1992.6,479.7 C2076.48,479.7 2172.654,489.627 2235.357,497.448 " fill="none" id="SnsUser-VaccineBulletin" style="stroke:#181818;stroke-width:0.9;"/><polygon fill="#000000" points="1678.0426,472.0153,1670.0665,468.9095,1669.7642,474.1909,1678.0426,472.0153" style="stroke:#000000;stroke-width:0.9;"/><text fill="#000000" font-family="sans-serif" font-size="11.7" lengthAdjust="spacing" textLength="18.9" x="1681.65" y="476.5456">has</text><text fill="#000000" font-family="sans-serif" font-size="11.7" lengthAdjust="spacing" textLength="6.3" x="1208.7408" y="454.504">1</text><text fill="#000000" font-family="sans-serif" font-size="11.7" lengthAdjust="spacing" textLength="4.5" x="2223.9228" y="509.4148">*</text></g><!--MD5=[b22fd40d66ac54a9dc399c9cf37d996a]
link CenterCoordinator to VaccinationStatistics--><g id="link_CenterCoordinator_VaccinationStatistics"><path codeLine="156" d="M1442.988,53.19 C1491.624,47.367 1557.558,39.474 1608.219,33.417 " fill="none" id="CenterCoordinator-to-VaccinationStatistics" style="stroke:#181818;stroke-width:0.9;"/><polygon fill="#181818" points="1612.764,32.868,1604.2975,30.2433,1608.2951,33.396,1605.1424,37.3936,1612.764,32.868" style="stroke:#181818;stroke-width:0.9;"/><polygon fill="#000000" points="1478.6681,28.4235,1470.2709,26.7645,1470.8995,32.0171,1478.6681,28.4235" style="stroke:#000000;stroke-width:0.9;"/><text fill="#000000" font-family="sans-serif" font-size="11.7" lengthAdjust="spacing" textLength="102.6" x="1482.3" y="33.7456">checks and exports</text><text fill="#000000" font-family="sans-serif" font-size="11.7" lengthAdjust="spacing" textLength="6.3" x="1449.971" y="65.2714">1</text><text fill="#000000" font-family="sans-serif" font-size="11.7" lengthAdjust="spacing" textLength="4.5" x="1601.1407" y="46.5316">*</text></g><!--MD5=[03c6fb53180ab1a1b5c5cb2e7eb4415c]
link VaccinationStatistics to VaccinationCenter--><g id="link_VaccinationStatistics_VaccinationCenter"><path codeLine="157" d="M1757.799,28.548 C1798.866,33.48 1850.175,44.055 1890.9,66.6 C1898.919,71.037 1906.677,76.338 1914.093,82.152 " fill="none" id="VaccinationStatistics-to-VaccinationCenter" style="stroke:#181818;stroke-width:0.9;"/><polygon fill="#181818" points="1917.711,85.05,1913.6454,77.1734,1914.2009,82.2342,1909.1401,82.7896,1917.711,85.05" style="stroke:#181818;stroke-width:0.9;"/><polygon fill="#000000" points="1805.6066,26.8181,1798.7644,21.6752,1797.0482,26.6791,1805.6066,26.8181" style="stroke:#000000;stroke-width:0.9;"/><text fill="#000000" font-family="sans-serif" font-size="11.7" lengthAdjust="spacing" textLength="68.4" x="1809.45" y="30.1456">are related to</text><text fill="#000000" font-family="sans-serif" font-size="11.7" lengthAdjust="spacing" textLength="4.5" x="1764.9283" y="41.7998">*</text><text fill="#000000" font-family="sans-serif" font-size="11.7" lengthAdjust="spacing" textLength="6.3" x="1904.2997" y="89.9699">1</text></g><!--MD5=[88b34193702dc82d22da6bbb4605cf6e]
@startuml
'https://plantuml.com/class-diagram

left to right direction
skinparam classAttributeIconSize 0
hide methods

class ApplicationUser {
-name
-emailAddress
-role
-password
-address
-citizenCardNumber
}

class Employee {
-id
}

class Administrator

Administrator "*" - - "1" Application : manages >

class SnsUser {
-snsUserNumber
}

ApplicationUser <|- - Employee
ApplicationUser <|- - - SnsUser
Employee <|- - Nurse
Employee <|- - Receptionist
Employee <|- Administrator
Employee <|- - CenterCoordinator



class Receptionist





class Nurse



class VaccinationCenter {
-intID
-strName
-strPhoneNumber
-strEmail
-strFax
-strWebsite
-strOpeningHour
-strClosingHour
-strSlotDuration
-strVaccinesPerSlot
-strRoad
-strZipCode
-strLocal
-strCenterCoordinatorID
 }

class MassVaccinationCenter extends VaccinationCenter {

}

class HealthcareCenter extends VaccinationCenter {
-ARE
-AGES
}

class Vaccine {
-brand
-name
-id
}

class AdministrationProcess {
-numberOfDoses
-dosage
-age
-intervalBetweenVaccines
}

class VaccineType {
-code
-description
-technology
}


Vaccine "1" - - "*" AdministrationProcess : has a >
VaccineType "*" - - "1" Vaccine :is of <

class DigitalCertificate


SnsUser "1" - - - - "1" DigitalCertificate : requests >

class VaccineAppointment {
-date
}

SnsUser "1" - - - "*" VaccineAppointment : schedules >




Receptionist "*" - "1" UsersWaitingList : atualizes >
Nurse "*" - - "1" UsersWaitingList : checks >
Nurse "1" - "*" Vaccine : administers >
VaccineAppointment "*" - - "1" VaccineType : is associated to a >
UsersWaitingList "1" - - - "*" SnsUser: has >


class VaccineBulletin {


}



class AdverseReactions

VaccineBulletin "*" - - - "1" AdverseReactions : can have an >

Nurse "1" - - "*" VaccineBulletin : records >
Nurse "1" - - "*" AdverseReactions : records >



class Application
class EntriesAndExitsList
Class VaccineBulletin {
-dateTimeOfLastDose
-doseNumber
-lotNumber
}

Application "1" - - - "*" SnsUser : requests authorization to send SMS >
Application "1" - - - "*" SnsUser : notify >
VaccinationCenter "1" -up- "*" EntriesAndExitsList : has >
Receptionist "1" - - "*" VaccineAppointment : schedules >

VaccinationCenter "1" - - "*" VaccineBulletin : has >

Application "1" - - "1" DailyTask: executes >
VaccineBulletin "*" - - "1" Vaccine : is associated to >

class CenterCoordinator
class UsersWaitingList
CenterCoordinator "1" - - "1" VaccinationCenter : is coordinated by <
VaccinationCenter "1" -u- "*" VaccineAppointment : has >
SnsUser "1" - - "*" VaccineBulletin: has >
CenterCoordinator "1" - -> "*" VaccinationStatistics : checks and exports >
VaccinationStatistics "*" - -> "1" VaccinationCenter : are related to >


@enduml

@startuml

left to right direction
skinparam classAttributeIconSize 0
hide methods

class ApplicationUser {
-name
-emailAddress
-role
-password
-address
-citizenCardNumber
}

class Employee {
-id
}

class Administrator

Administrator "*" - - "1" Application : manages >

class SnsUser {
-snsUserNumber
}

ApplicationUser <|- - Employee
ApplicationUser <|- - - SnsUser
Employee <|- - Nurse
Employee <|- - Receptionist
Employee <|- Administrator
Employee <|- - CenterCoordinator



class Receptionist





class Nurse



class VaccinationCenter {
-intID
-strName
-strPhoneNumber
-strEmail
-strFax
-strWebsite
-strOpeningHour
-strClosingHour
-strSlotDuration
-strVaccinesPerSlot
-strRoad
-strZipCode
-strLocal
-strCenterCoordinatorID
 }

class MassVaccinationCenter extends VaccinationCenter {

}

class HealthcareCenter extends VaccinationCenter {
-ARE
-AGES
}

class Vaccine {
-brand
-name
-id
}

class AdministrationProcess {
-numberOfDoses
-dosage
-age
-intervalBetweenVaccines
}

class VaccineType {
-code
-description
-technology
}


Vaccine "1" - - "*" AdministrationProcess : has a >
VaccineType "*" - - "1" Vaccine :is of <

class DigitalCertificate


SnsUser "1" - - - - "1" DigitalCertificate : requests >

class VaccineAppointment {
-date
}

SnsUser "1" - - - "*" VaccineAppointment : schedules >




Receptionist "*" - "1" UsersWaitingList : atualizes >
Nurse "*" - - "1" UsersWaitingList : checks >
Nurse "1" - "*" Vaccine : administers >
VaccineAppointment "*" - - "1" VaccineType : is associated to a >
UsersWaitingList "1" - - - "*" SnsUser: has >


class VaccineBulletin {


}



class AdverseReactions

VaccineBulletin "*" - - - "1" AdverseReactions : can have an >

Nurse "1" - - "*" VaccineBulletin : records >
Nurse "1" - - "*" AdverseReactions : records >



class Application
class EntriesAndExitsList
Class VaccineBulletin {
-dateTimeOfLastDose
-doseNumber
-lotNumber
}

Application "1" - - - "*" SnsUser : requests authorization to send SMS >
Application "1" - - - "*" SnsUser : notify >
VaccinationCenter "1" -up- "*" EntriesAndExitsList : has >
Receptionist "1" - - "*" VaccineAppointment : schedules >

VaccinationCenter "1" - - "*" VaccineBulletin : has >

Application "1" - - "1" DailyTask: executes >
VaccineBulletin "*" - - "1" Vaccine : is associated to >

class CenterCoordinator
class UsersWaitingList
CenterCoordinator "1" - - "1" VaccinationCenter : is coordinated by <
VaccinationCenter "1" -u- "*" VaccineAppointment : has >
SnsUser "1" - - "*" VaccineBulletin: has >
CenterCoordinator "1" - -> "*" VaccinationStatistics : checks and exports >
VaccinationStatistics "*" - -> "1" VaccinationCenter : are related to >


@enduml

PlantUML version 1.2022.5(Sat Apr 30 11:55:52 BST 2022)
(GPL source distribution)
Java Runtime: OpenJDK Runtime Environment
JVM: OpenJDK 64-Bit Server VM
Default Encoding: Cp1252
Language: en
Country: US
--></g></svg>