<?xml version="1.0" encoding="UTF-8" standalone="no"?><svg xmlns="http://www.w3.org/2000/svg" xmlns:xlink="http://www.w3.org/1999/xlink" contentStyleType="text/css" height="252px" preserveAspectRatio="none" style="width:1002px;height:252px;background:#FFFFFF;" version="1.1" viewBox="0 0 1002 252" width="1002px" zoomAndPan="magnify"><defs/><g><!--MD5=[72be06cc7ae02ccc98efe28a50e62246]
class SNSUser--><g id="elem_SNSUser"><rect codeLine="7" fill="#F1F1F1" height="163.2656" id="SNSUser" rx="2.5" ry="2.5" style="stroke:#181818;stroke-width:0.5;" width="242" x="198" y="82.5"/><ellipse cx="286.75" cy="98.5" fill="#ADD1B2" rx="11" ry="11" style="stroke:#181818;stroke-width:1.0;"/><path d="M288.75,95 Q288.9531,94.5 289.1875,94.25 Q289.4219,94 289.6875,94 Q290.1563,94 290.4531,94.2813 Q290.75,94.5625 290.75,95.2188 L290.75,96.7813 Q290.75,97.4375 290.4688,97.7188 Q290.1875,98 289.75,98 Q289.3594,98 289.1094,97.8281 Q288.8594,97.6563 288.75,97.2031 Q288.7031,96.8906 288.5313,96.7188 Q288.2188,96.3906 287.6563,96.2031 Q287.0938,96 286.5313,96 Q285.8281,96 285.2344,96.2813 Q284.6563,96.5625 284.2031,97.1875 Q283.75,97.8125 283.75,98.6719 L283.75,99.5938 Q283.75,100.625 284.5938,101.3125 Q285.4375,102 286.9375,102 Q287.8281,102 288.4531,101.7969 Q288.8125,101.6875 289.2188,101.3281 Q289.4844,101.125 289.625,101.0625 Q289.7656,101 289.9375,101 Q290.2656,101 290.5,101.2656 Q290.75,101.5156 290.75,101.875 Q290.75,102.2188 290.4063,102.625 Q289.9063,103.2188 289.1094,103.5469 Q288.0625,104 286.7813,104 Q285.2813,104 284.0781,103.4063 Q283.1094,102.9375 282.4219,101.9219 Q281.75,100.9063 281.75,99.7031 L281.75,98.6094 Q281.75,97.3594 282.3438,96.2656 Q282.9531,95.1719 284,94.5938 Q285.0625,94 286.25,94 Q286.9688,94 287.5938,94.25 Q288.2188,94.5 288.75,95 Z " fill="#000000"/><text fill="#000000" font-family="sans-serif" font-size="14" lengthAdjust="spacing" textLength="56" x="307.25" y="104.2285">SNSUser</text><line style="stroke:#181818;stroke-width:0.5;" x1="199" x2="439" y1="114.5" y2="114.5"/><text fill="#000000" font-family="sans-serif" font-size="14" lengthAdjust="spacing" textLength="105" x="204" y="133.0332">-snsUserNumber</text><text fill="#000000" font-family="sans-serif" font-size="14" lengthAdjust="spacing" textLength="61" x="204" y="150.6426">-birthdate</text><text fill="#000000" font-family="sans-serif" font-size="14" lengthAdjust="spacing" textLength="94" x="204" y="168.252">-phoneNumber</text><text fill="#000000" font-family="sans-serif" font-size="14" lengthAdjust="spacing" textLength="26" x="204" y="185.8613">-sex</text><text fill="#000000" font-family="sans-serif" font-size="14" lengthAdjust="spacing" textLength="56" x="204" y="203.4707">-address</text><text fill="#000000" font-family="sans-serif" font-size="14" lengthAdjust="spacing" textLength="124" x="204" y="221.0801">-citizenCardNumber</text><text fill="#000000" font-family="sans-serif" font-size="14" lengthAdjust="spacing" textLength="230" x="204" y="238.6895">-takenVaccines : List&lt;TakenVacine&gt;</text></g><!--MD5=[0e501da62322464167c8ec4d233a6b7e]
class VaccineType--><g id="elem_VaccineType"><rect codeLine="19" fill="#F1F1F1" height="92.8281" id="VaccineType" rx="2.5" ry="2.5" style="stroke:#181818;stroke-width:0.5;" width="139" x="856" y="34.5"/><ellipse cx="882.25" cy="50.5" fill="#ADD1B2" rx="11" ry="11" style="stroke:#181818;stroke-width:1.0;"/><path d="M884.25,47 Q884.4531,46.5 884.6875,46.25 Q884.9219,46 885.1875,46 Q885.6563,46 885.9531,46.2813 Q886.25,46.5625 886.25,47.2188 L886.25,48.7813 Q886.25,49.4375 885.9688,49.7188 Q885.6875,50 885.25,50 Q884.8594,50 884.6094,49.8281 Q884.3594,49.6563 884.25,49.2031 Q884.2031,48.8906 884.0313,48.7188 Q883.7188,48.3906 883.1563,48.2031 Q882.5938,48 882.0313,48 Q881.3281,48 880.7344,48.2813 Q880.1563,48.5625 879.7031,49.1875 Q879.25,49.8125 879.25,50.6719 L879.25,51.5938 Q879.25,52.625 880.0938,53.3125 Q880.9375,54 882.4375,54 Q883.3281,54 883.9531,53.7969 Q884.3125,53.6875 884.7188,53.3281 Q884.9844,53.125 885.125,53.0625 Q885.2656,53 885.4375,53 Q885.7656,53 886,53.2656 Q886.25,53.5156 886.25,53.875 Q886.25,54.2188 885.9063,54.625 Q885.4063,55.2188 884.6094,55.5469 Q883.5625,56 882.2813,56 Q880.7813,56 879.5781,55.4063 Q878.6094,54.9375 877.9219,53.9219 Q877.25,52.9063 877.25,51.7031 L877.25,50.6094 Q877.25,49.3594 877.8438,48.2656 Q878.4531,47.1719 879.5,46.5938 Q880.5625,46 881.75,46 Q882.4688,46 883.0938,46.25 Q883.7188,46.5 884.25,47 Z " fill="#000000"/><text fill="#000000" font-family="sans-serif" font-size="14" lengthAdjust="spacing" textLength="82" x="898.75" y="56.2285">VaccineType</text><line style="stroke:#181818;stroke-width:0.5;" x1="857" x2="994" y1="66.5" y2="66.5"/><text fill="#000000" font-family="sans-serif" font-size="14" lengthAdjust="spacing" textLength="74" x="862" y="85.0332">-description</text><text fill="#000000" font-family="sans-serif" font-size="14" lengthAdjust="spacing" textLength="36" x="862" y="102.6426">-code</text><text fill="#000000" font-family="sans-serif" font-size="14" lengthAdjust="spacing" textLength="127" x="862" y="120.252">-vaccineTechnology</text></g><!--MD5=[9b956c59b16436292d60adff39fe4d1c]
class ApplicationUser--><g id="elem_ApplicationUser"><rect codeLine="25" fill="#F1F1F1" height="110.4375" id="ApplicationUser" rx="2.5" ry="2.5" style="stroke:#181818;stroke-width:0.5;" width="130" x="7" y="109"/><ellipse cx="22" cy="125" fill="#ADD1B2" rx="11" ry="11" style="stroke:#181818;stroke-width:1.0;"/><path d="M24,121.5 Q24.2031,121 24.4375,120.75 Q24.6719,120.5 24.9375,120.5 Q25.4063,120.5 25.7031,120.7813 Q26,121.0625 26,121.7188 L26,123.2813 Q26,123.9375 25.7188,124.2188 Q25.4375,124.5 25,124.5 Q24.6094,124.5 24.3594,124.3281 Q24.1094,124.1563 24,123.7031 Q23.9531,123.3906 23.7813,123.2188 Q23.4688,122.8906 22.9063,122.7031 Q22.3438,122.5 21.7813,122.5 Q21.0781,122.5 20.4844,122.7813 Q19.9063,123.0625 19.4531,123.6875 Q19,124.3125 19,125.1719 L19,126.0938 Q19,127.125 19.8438,127.8125 Q20.6875,128.5 22.1875,128.5 Q23.0781,128.5 23.7031,128.2969 Q24.0625,128.1875 24.4688,127.8281 Q24.7344,127.625 24.875,127.5625 Q25.0156,127.5 25.1875,127.5 Q25.5156,127.5 25.75,127.7656 Q26,128.0156 26,128.375 Q26,128.7188 25.6563,129.125 Q25.1563,129.7188 24.3594,130.0469 Q23.3125,130.5 22.0313,130.5 Q20.5313,130.5 19.3281,129.9063 Q18.3594,129.4375 17.6719,128.4219 Q17,127.4063 17,126.2031 L17,125.1094 Q17,123.8594 17.5938,122.7656 Q18.2031,121.6719 19.25,121.0938 Q20.3125,120.5 21.5,120.5 Q22.2188,120.5 22.8438,120.75 Q23.4688,121 24,121.5 Z " fill="#000000"/><text fill="#000000" font-family="sans-serif" font-size="14" lengthAdjust="spacing" textLength="98" x="36" y="130.7285">ApplicationUser</text><line style="stroke:#181818;stroke-width:0.5;" x1="8" x2="136" y1="141" y2="141"/><text fill="#000000" font-family="sans-serif" font-size="14" lengthAdjust="spacing" textLength="40" x="13" y="159.5332">-name</text><text fill="#000000" font-family="sans-serif" font-size="14" lengthAdjust="spacing" textLength="38" x="13" y="177.1426">-email</text><text fill="#000000" font-family="sans-serif" font-size="14" lengthAdjust="spacing" textLength="65" x="13" y="194.752">-password</text><text fill="#000000" font-family="sans-serif" font-size="14" lengthAdjust="spacing" textLength="29" x="13" y="212.3613">-role</text></g><!--MD5=[cf1ec8291adc4f100e491a8c336ca0ac]
class VaccineAppointment--><g id="elem_VaccineAppointment"><rect codeLine="32" fill="#F1F1F1" height="75.2188" id="VaccineAppointment" rx="2.5" ry="2.5" style="stroke:#181818;stroke-width:0.5;" width="161" x="574" y="104.5"/><ellipse cx="589" cy="120.5" fill="#ADD1B2" rx="11" ry="11" style="stroke:#181818;stroke-width:1.0;"/><path d="M591,117 Q591.2031,116.5 591.4375,116.25 Q591.6719,116 591.9375,116 Q592.4063,116 592.7031,116.2813 Q593,116.5625 593,117.2188 L593,118.7813 Q593,119.4375 592.7188,119.7188 Q592.4375,120 592,120 Q591.6094,120 591.3594,119.8281 Q591.1094,119.6563 591,119.2031 Q590.9531,118.8906 590.7813,118.7188 Q590.4688,118.3906 589.9063,118.2031 Q589.3438,118 588.7813,118 Q588.0781,118 587.4844,118.2813 Q586.9063,118.5625 586.4531,119.1875 Q586,119.8125 586,120.6719 L586,121.5938 Q586,122.625 586.8438,123.3125 Q587.6875,124 589.1875,124 Q590.0781,124 590.7031,123.7969 Q591.0625,123.6875 591.4688,123.3281 Q591.7344,123.125 591.875,123.0625 Q592.0156,123 592.1875,123 Q592.5156,123 592.75,123.2656 Q593,123.5156 593,123.875 Q593,124.2188 592.6563,124.625 Q592.1563,125.2188 591.3594,125.5469 Q590.3125,126 589.0313,126 Q587.5313,126 586.3281,125.4063 Q585.3594,124.9375 584.6719,123.9219 Q584,122.9063 584,121.7031 L584,120.6094 Q584,119.3594 584.5938,118.2656 Q585.2031,117.1719 586.25,116.5938 Q587.3125,116 588.5,116 Q589.2188,116 589.8438,116.25 Q590.4688,116.5 591,117 Z " fill="#000000"/><text fill="#000000" font-family="sans-serif" font-size="14" lengthAdjust="spacing" textLength="129" x="603" y="126.2285">VaccineAppointment</text><line style="stroke:#181818;stroke-width:0.5;" x1="575" x2="734" y1="136.5" y2="136.5"/><text fill="#000000" font-family="sans-serif" font-size="14" lengthAdjust="spacing" textLength="105" x="580" y="155.0332">-snsUserNumber</text><text fill="#000000" font-family="sans-serif" font-size="14" lengthAdjust="spacing" textLength="33" x="580" y="172.6426">-date</text></g><!--MD5=[02e4b9b7573f1156f41e60aa5b4e25a4]
class Company--><g id="elem_Company"><rect fill="#F1F1F1" height="40" id="Company" rx="2.5" ry="2.5" style="stroke:#181818;stroke-width:0.5;" width="92" x="273" y="7"/><ellipse cx="288" cy="23" fill="#ADD1B2" rx="11" ry="11" style="stroke:#181818;stroke-width:1.0;"/><path d="M290,19.5 Q290.2031,19 290.4375,18.75 Q290.6719,18.5 290.9375,18.5 Q291.4063,18.5 291.7031,18.7813 Q292,19.0625 292,19.7188 L292,21.2813 Q292,21.9375 291.7188,22.2188 Q291.4375,22.5 291,22.5 Q290.6094,22.5 290.3594,22.3281 Q290.1094,22.1563 290,21.7031 Q289.9531,21.3906 289.7813,21.2188 Q289.4688,20.8906 288.9063,20.7031 Q288.3438,20.5 287.7813,20.5 Q287.0781,20.5 286.4844,20.7813 Q285.9063,21.0625 285.4531,21.6875 Q285,22.3125 285,23.1719 L285,24.0938 Q285,25.125 285.8438,25.8125 Q286.6875,26.5 288.1875,26.5 Q289.0781,26.5 289.7031,26.2969 Q290.0625,26.1875 290.4688,25.8281 Q290.7344,25.625 290.875,25.5625 Q291.0156,25.5 291.1875,25.5 Q291.5156,25.5 291.75,25.7656 Q292,26.0156 292,26.375 Q292,26.7188 291.6563,27.125 Q291.1563,27.7188 290.3594,28.0469 Q289.3125,28.5 288.0313,28.5 Q286.5313,28.5 285.3281,27.9063 Q284.3594,27.4375 283.6719,26.4219 Q283,25.4063 283,24.2031 L283,23.1094 Q283,21.8594 283.5938,20.7656 Q284.2031,19.6719 285.25,19.0938 Q286.3125,18.5 287.5,18.5 Q288.2188,18.5 288.8438,18.75 Q289.4688,19 290,19.5 Z " fill="#000000"/><text fill="#000000" font-family="sans-serif" font-size="14" lengthAdjust="spacing" textLength="60" x="302" y="28.7285">Company</text><line style="stroke:#181818;stroke-width:0.5;" x1="274" x2="364" y1="39" y2="39"/></g><!--MD5=[61a77056c8e1a11c49fd488049ede825]
link SNSUser to VaccineAppointment--><g id="link_SNSUser_VaccineAppointment"><path codeLine="37" d="M440.4,156.06 C482.9,153.25 529.76,150.16 568.69,147.59 " fill="none" id="SNSUser-to-VaccineAppointment" style="stroke:#181818;stroke-width:1.0;"/><polygon fill="#181818" points="573.88,147.25,564.6364,143.8505,568.8908,147.5788,565.1625,151.8332,573.88,147.25" style="stroke:#181818;stroke-width:1.0;"/><polygon fill="#000000" points="479.9891,139.8464,470.7701,137.5097,471.1573,143.3748,479.9891,139.8464" style="stroke:#000000;stroke-width:1.0;"/><text fill="#000000" font-family="sans-serif" font-size="13" lengthAdjust="spacing" textLength="59" x="484" y="145.4951">schedules</text><text fill="#000000" font-family="sans-serif" font-size="13" lengthAdjust="spacing" textLength="7" x="448.0111" y="169.5614">1</text><text fill="#000000" font-family="sans-serif" font-size="13" lengthAdjust="spacing" textLength="5" x="560.9576" y="162.0143">*</text></g><!--MD5=[8b80d30f1b8e89f3493675d34e60ed84]
reverse link ApplicationUser to SNSUser--><g id="link_ApplicationUser_SNSUser"><path codeLine="39" d="M157.09,164 C170.26,164 184.08,164 197.86,164 " fill="none" id="ApplicationUser-backto-SNSUser" style="stroke:#181818;stroke-width:1.0;"/><polygon fill="none" points="157.05,171,137.05,164,157.05,157,157.05,171" style="stroke:#181818;stroke-width:1.0;"/></g><!--MD5=[d6d5ce89de07d138e2abbf7ac69e87fb]
link VaccineAppointment to VaccineType--><g id="link_VaccineAppointment_VaccineType"><path codeLine="41" d="M735.12,123.95 C771.59,115.67 814.56,105.93 850.34,97.82 " fill="none" id="VaccineAppointment-to-VaccineType" style="stroke:#181818;stroke-width:1.0;"/><polygon fill="#181818" points="855.57,96.63,845.91,94.7106,850.6928,97.7313,847.6721,102.5141,855.57,96.63" style="stroke:#181818;stroke-width:1.0;"/><polygon fill="#000000" points="774.8762,95.0699,765.4051,94.2043,766.7051,99.9366,774.8762,95.0699" style="stroke:#000000;stroke-width:1.0;"/><text fill="#000000" font-family="sans-serif" font-size="13" lengthAdjust="spacing" textLength="46" x="779" y="101.4951">has one</text><text fill="#000000" font-family="sans-serif" font-size="13" lengthAdjust="spacing" textLength="5" x="743.0424" y="136.4936">*</text><text fill="#000000" font-family="sans-serif" font-size="13" lengthAdjust="spacing" textLength="7" x="840.9975" y="112.589">1</text></g><!--MD5=[05986564e1c13a00611587b35563d868]
link Company to VaccineType--><g id="link_Company_VaccineType"><path codeLine="43" d="M365.44,31.06 C470.6,40.45 731.27,63.74 855.94,74.88 " fill="none" id="Company-VaccineType" style="stroke:#181818;stroke-width:1.0;"/><polygon fill="#000000" points="631.9802,42.6207,623.2325,38.8886,622.7094,44.7431,631.9802,42.6207" style="stroke:#000000;stroke-width:1.0;"/><text fill="#000000" font-family="sans-serif" font-size="13" lengthAdjust="spacing" textLength="50" x="636" y="47.4951">storages</text><text fill="#000000" font-family="sans-serif" font-size="13" lengthAdjust="spacing" textLength="7" x="373.0871" y="46.4287">1</text><text fill="#000000" font-family="sans-serif" font-size="13" lengthAdjust="spacing" textLength="5" x="843.0584" y="88.6094">*</text></g><!--MD5=[18e18370756251c1c423790183b0d1b9]
@startuml

hide methods
left to right direction
skinparam classAttributeIconSize 0


class SNSUser {
-snsUserNumber
-birthdate
-phoneNumber
-sex
-address
-citizenCardNumber
-takenVaccines : List<TakenVacine>
}



class VaccineType{
-description
-code
-vaccineTechnology
}

class ApplicationUser {
    -name
    -email
    -password
    -role
}

class VaccineAppointment {
-snsUserNumber
-date
}

SNSUser "1" - -> "*" VaccineAppointment: schedules >

ApplicationUser  <|- - SNSUser

VaccineAppointment "*" - -> "1" VaccineType: has one  >

Company "1" - - - "*" VaccineType : storages >


@enduml

PlantUML version 1.2022.4(Sat Apr 09 14:29:17 BST 2022)
(GPL source distribution)
Java Runtime: OpenJDK Runtime Environment
JVM: OpenJDK 64-Bit Server VM
Default Encoding: Cp1252
Language: en
Country: US
--></g></svg>