<?xml version="1.0" encoding="UTF-8" standalone="no"?><svg xmlns="http://www.w3.org/2000/svg" xmlns:xlink="http://www.w3.org/1999/xlink" contentStyleType="text/css" height="1746px" preserveAspectRatio="none" style="width:1318px;height:1746px;background:#FFFFFF;" version="1.1" viewBox="0 0 1318 1746" width="1318px" zoomAndPan="magnify"><defs/><g><!--MD5=[b2e86da990ee9e769b8776cd15ea5c5f]
class ScheduleVaccineUI--><g id="elem_ScheduleVaccineUI"><rect codeLine="3" fill="#F1F1F1" height="259.3125" id="ScheduleVaccineUI" rx="2.5" ry="2.5" style="stroke:#181818;stroke-width:0.5;" width="514" x="628" y="7"/><ellipse cx="820.25" cy="23" fill="#ADD1B2" rx="11" ry="11" style="stroke:#181818;stroke-width:1.0;"/><path d="M822.25,19.5 Q822.4531,19 822.6875,18.75 Q822.9219,18.5 823.1875,18.5 Q823.6563,18.5 823.9531,18.7813 Q824.25,19.0625 824.25,19.7188 L824.25,21.2813 Q824.25,21.9375 823.9688,22.2188 Q823.6875,22.5 823.25,22.5 Q822.8594,22.5 822.6094,22.3281 Q822.3594,22.1563 822.25,21.7031 Q822.2031,21.3906 822.0313,21.2188 Q821.7188,20.8906 821.1563,20.7031 Q820.5938,20.5 820.0313,20.5 Q819.3281,20.5 818.7344,20.7813 Q818.1563,21.0625 817.7031,21.6875 Q817.25,22.3125 817.25,23.1719 L817.25,24.0938 Q817.25,25.125 818.0938,25.8125 Q818.9375,26.5 820.4375,26.5 Q821.3281,26.5 821.9531,26.2969 Q822.3125,26.1875 822.7188,25.8281 Q822.9844,25.625 823.125,25.5625 Q823.2656,25.5 823.4375,25.5 Q823.7656,25.5 824,25.7656 Q824.25,26.0156 824.25,26.375 Q824.25,26.7188 823.9063,27.125 Q823.4063,27.7188 822.6094,28.0469 Q821.5625,28.5 820.2813,28.5 Q818.7813,28.5 817.5781,27.9063 Q816.6094,27.4375 815.9219,26.4219 Q815.25,25.4063 815.25,24.2031 L815.25,23.1094 Q815.25,21.8594 815.8438,20.7656 Q816.4531,19.6719 817.5,19.0938 Q818.5625,18.5 819.75,18.5 Q820.4688,18.5 821.0938,18.75 Q821.7188,19 822.25,19.5 Z " fill="#000000"/><text fill="#000000" font-family="sans-serif" font-size="14" lengthAdjust="spacing" textLength="121" x="840.75" y="28.7285">ScheduleVaccineUI</text><line style="stroke:#181818;stroke-width:0.5;" x1="629" x2="1141" y1="39" y2="39"/><line style="stroke:#181818;stroke-width:0.5;" x1="629" x2="1141" y1="47" y2="47"/><text fill="#000000" font-family="sans-serif" font-size="14" lengthAdjust="spacing" textLength="39" x="634" y="65.5332">+run()</text><text fill="#000000" font-family="sans-serif" font-size="14" lengthAdjust="spacing" textLength="159" x="634" y="83.1426">-introduceSnsNumberUI()</text><text fill="#000000" font-family="sans-serif" font-size="14" lengthAdjust="spacing" textLength="370" x="634" y="100.752">-selectVaccineTypeHealthCareCenterUI(healthcareCenter)</text><text fill="#000000" font-family="sans-serif" font-size="14" lengthAdjust="spacing" textLength="260" x="634" y="118.3613">-selectVaccineTypeUI(vaccinationCenter)</text><text fill="#000000" font-family="sans-serif" font-size="14" lengthAdjust="spacing" textLength="208" x="634" y="135.9707">-selectDateUI(vaccinationCenter)</text><text fill="#000000" font-family="sans-serif" font-size="14" lengthAdjust="spacing" textLength="502" x="634" y="153.5801">-selectDateFromCurrentMonth(appointmentsList, slotsPerDay, vaccinesPerSlot)</text><text fill="#000000" font-family="sans-serif" font-size="14" lengthAdjust="spacing" textLength="481" x="634" y="171.1895">-selectDateFromNextMonth(appointmentsList, slotsPerDay, vaccinesPerSlot)</text><text fill="#000000" font-family="sans-serif" font-size="14" lengthAdjust="spacing" textLength="396" x="634" y="188.7988">-calculateSlotsPerDay(openingHour, closingHour, slotDuration)</text><text fill="#000000" font-family="sans-serif" font-size="14" lengthAdjust="spacing" textLength="442" x="634" y="206.4082">-dayHasAvailability(slotsPerDay, vaccinesPerSlot, date, appointments)</text><text fill="#000000" font-family="sans-serif" font-size="14" lengthAdjust="spacing" textLength="404" x="634" y="224.0176">-printAppointmentInfo(scheduledVaccineDto, vaccinationCenter)</text><text fill="#000000" font-family="sans-serif" font-size="14" lengthAdjust="spacing" textLength="435" x="634" y="241.627">-printValidAppointmentInfo(scheduledVaccineDto, vaccinationCenter)</text><text fill="#000000" font-family="sans-serif" font-size="14" lengthAdjust="spacing" textLength="162" x="634" y="259.2363">-printInvalidAppointment()</text></g><!--MD5=[f6c4ddcb8ab0ba42ee4498672e538bba]
class ScheduleVaccineController--><g id="elem_ScheduleVaccineController"><rect codeLine="18" fill="#F1F1F1" height="136.0469" id="ScheduleVaccineController" rx="2.5" ry="2.5" style="stroke:#181818;stroke-width:0.5;" width="639" x="565.5" y="327"/><ellipse cx="795.25" cy="343" fill="#ADD1B2" rx="11" ry="11" style="stroke:#181818;stroke-width:1.0;"/><path d="M797.25,339.5 Q797.4531,339 797.6875,338.75 Q797.9219,338.5 798.1875,338.5 Q798.6563,338.5 798.9531,338.7813 Q799.25,339.0625 799.25,339.7188 L799.25,341.2813 Q799.25,341.9375 798.9688,342.2188 Q798.6875,342.5 798.25,342.5 Q797.8594,342.5 797.6094,342.3281 Q797.3594,342.1563 797.25,341.7031 Q797.2031,341.3906 797.0313,341.2188 Q796.7188,340.8906 796.1563,340.7031 Q795.5938,340.5 795.0313,340.5 Q794.3281,340.5 793.7344,340.7813 Q793.1563,341.0625 792.7031,341.6875 Q792.25,342.3125 792.25,343.1719 L792.25,344.0938 Q792.25,345.125 793.0938,345.8125 Q793.9375,346.5 795.4375,346.5 Q796.3281,346.5 796.9531,346.2969 Q797.3125,346.1875 797.7188,345.8281 Q797.9844,345.625 798.125,345.5625 Q798.2656,345.5 798.4375,345.5 Q798.7656,345.5 799,345.7656 Q799.25,346.0156 799.25,346.375 Q799.25,346.7188 798.9063,347.125 Q798.4063,347.7188 797.6094,348.0469 Q796.5625,348.5 795.2813,348.5 Q793.7813,348.5 792.5781,347.9063 Q791.6094,347.4375 790.9219,346.4219 Q790.25,345.4063 790.25,344.2031 L790.25,343.1094 Q790.25,341.8594 790.8438,340.7656 Q791.4531,339.6719 792.5,339.0938 Q793.5625,338.5 794.75,338.5 Q795.4688,338.5 796.0938,338.75 Q796.7188,339 797.25,339.5 Z " fill="#000000"/><text fill="#000000" font-family="sans-serif" font-size="14" lengthAdjust="spacing" textLength="171" x="815.75" y="348.7285">ScheduleVaccineController</text><line style="stroke:#181818;stroke-width:0.5;" x1="566.5" x2="1203.5" y1="359" y2="359"/><line style="stroke:#181818;stroke-width:0.5;" x1="566.5" x2="1203.5" y1="367" y2="367"/><text fill="#000000" font-family="sans-serif" font-size="14" lengthAdjust="spacing" textLength="189" x="571.5" y="385.5332">+ScheduleVaccineController()</text><text fill="#000000" font-family="sans-serif" font-size="14" lengthAdjust="spacing" textLength="384" x="571.5" y="403.1426">+scheduleVaccine(scheduledVaccineDto, vaccinationCenter)</text><text fill="#000000" font-family="sans-serif" font-size="14" lengthAdjust="spacing" textLength="405" x="571.5" y="420.752">+validateAppointment(scheduledVaccineDto, vaccinationCenter)</text><text fill="#000000" font-family="sans-serif" font-size="14" lengthAdjust="spacing" textLength="627" x="571.5" y="438.3613">+validateAppointmentAccordingToAgeGroupAndTimeSinceLastDose(scheduledVaccineDto, center)</text><text fill="#000000" font-family="sans-serif" font-size="14" lengthAdjust="spacing" textLength="239" x="571.5" y="455.9707">-dataIsAllFilled(scheduledVaccineDto)</text></g><!--MD5=[de60e6d4f424ae4d0522096f76a59010]
class VaccinationCenter--><g id="elem_VaccinationCenter"><rect codeLine="27" fill="#F1F1F1" height="629.1094" id="VaccinationCenter" rx="2.5" ry="2.5" style="stroke:#181818;stroke-width:0.5;" width="1052" x="7" y="541"/><ellipse cx="470.75" cy="557" fill="#ADD1B2" rx="11" ry="11" style="stroke:#181818;stroke-width:1.0;"/><path d="M472.75,553.5 Q472.9531,553 473.1875,552.75 Q473.4219,552.5 473.6875,552.5 Q474.1563,552.5 474.4531,552.7813 Q474.75,553.0625 474.75,553.7188 L474.75,555.2813 Q474.75,555.9375 474.4688,556.2188 Q474.1875,556.5 473.75,556.5 Q473.3594,556.5 473.1094,556.3281 Q472.8594,556.1563 472.75,555.7031 Q472.7031,555.3906 472.5313,555.2188 Q472.2188,554.8906 471.6563,554.7031 Q471.0938,554.5 470.5313,554.5 Q469.8281,554.5 469.2344,554.7813 Q468.6563,555.0625 468.2031,555.6875 Q467.75,556.3125 467.75,557.1719 L467.75,558.0938 Q467.75,559.125 468.5938,559.8125 Q469.4375,560.5 470.9375,560.5 Q471.8281,560.5 472.4531,560.2969 Q472.8125,560.1875 473.2188,559.8281 Q473.4844,559.625 473.625,559.5625 Q473.7656,559.5 473.9375,559.5 Q474.2656,559.5 474.5,559.7656 Q474.75,560.0156 474.75,560.375 Q474.75,560.7188 474.4063,561.125 Q473.9063,561.7188 473.1094,562.0469 Q472.0625,562.5 470.7813,562.5 Q469.2813,562.5 468.0781,561.9063 Q467.1094,561.4375 466.4219,560.4219 Q465.75,559.4063 465.75,558.2031 L465.75,557.1094 Q465.75,555.8594 466.3438,554.7656 Q466.9531,553.6719 468,553.0938 Q469.0625,552.5 470.25,552.5 Q470.9688,552.5 471.5938,552.75 Q472.2188,553 472.75,553.5 Z " fill="#000000"/><text fill="#000000" font-family="sans-serif" font-size="14" lengthAdjust="spacing" textLength="116" x="491.25" y="562.7285">VaccinationCenter</text><line style="stroke:#181818;stroke-width:0.5;" x1="8" x2="1058" y1="573" y2="573"/><text fill="#000000" font-family="sans-serif" font-size="14" lengthAdjust="spacing" textLength="16" x="13" y="591.5332">-id</text><text fill="#000000" font-family="sans-serif" font-size="14" lengthAdjust="spacing" textLength="40" x="13" y="609.1426">-name</text><text fill="#000000" font-family="sans-serif" font-size="14" lengthAdjust="spacing" textLength="94" x="13" y="626.752">-phoneNumber</text><text fill="#000000" font-family="sans-serif" font-size="14" lengthAdjust="spacing" textLength="38" x="13" y="644.3613">-email</text><text fill="#000000" font-family="sans-serif" font-size="14" lengthAdjust="spacing" textLength="23" x="13" y="661.9707">-fax</text><text fill="#000000" font-family="sans-serif" font-size="14" lengthAdjust="spacing" textLength="52" x="13" y="679.5801">-website</text><text fill="#000000" font-family="sans-serif" font-size="14" lengthAdjust="spacing" textLength="86" x="13" y="697.1895">-openingHour</text><text fill="#000000" font-family="sans-serif" font-size="14" lengthAdjust="spacing" textLength="79" x="13" y="714.7988">-closingHour</text><text fill="#000000" font-family="sans-serif" font-size="14" lengthAdjust="spacing" textLength="81" x="13" y="732.4082">-slotDuration</text><text fill="#000000" font-family="sans-serif" font-size="14" lengthAdjust="spacing" textLength="106" x="13" y="750.0176">-vaccinesPerSlot</text><text fill="#000000" font-family="sans-serif" font-size="14" lengthAdjust="spacing" textLength="34" x="13" y="767.627">-road</text><text fill="#000000" font-family="sans-serif" font-size="14" lengthAdjust="spacing" textLength="56" x="13" y="785.2363">-zipCode</text><text fill="#000000" font-family="sans-serif" font-size="14" lengthAdjust="spacing" textLength="34" x="13" y="802.8457">-local</text><text fill="#000000" font-family="sans-serif" font-size="14" lengthAdjust="spacing" textLength="128" x="13" y="820.4551">centerCoordinatorID</text><text fill="#000000" font-family="sans-serif" font-size="14" lengthAdjust="spacing" textLength="73" x="13" y="838.0645">-arrivalsList</text><line style="stroke:#181818;stroke-width:0.5;" x1="8" x2="1058" y1="845.1406" y2="845.1406"/><text fill="#000000" font-family="sans-serif" font-size="14" lengthAdjust="spacing" textLength="1040" x="13" y="863.6738">+VaccinationCenter(id, name, phoneNumber, email, fax, website, openingHour, closingHour, slotDuration, vaccinesPerSlot, road, zipCode, local, centerCoordinatorID)</text><text fill="#000000" font-family="sans-serif" font-size="14" lengthAdjust="spacing" textLength="67" x="13" y="881.2832">+toString()</text><text fill="#000000" font-family="sans-serif" font-size="14" lengthAdjust="spacing" textLength="383" x="13" y="898.8926">+validateVaccinationCenterHours(openingHour, closingHour)</text><text fill="#000000" font-family="sans-serif" font-size="14" lengthAdjust="spacing" textLength="377" x="13" y="916.502">+validateWebsite(website, topLevelDomain, worldWideWeb)</text><text fill="#000000" font-family="sans-serif" font-size="14" lengthAdjust="spacing" textLength="134" x="13" y="934.1113">+validateEmail(email)</text><text fill="#000000" font-family="sans-serif" font-size="14" lengthAdjust="spacing" textLength="399" x="13" y="951.7207">+validatePhoneNumberAndFax(strPhoneNumberOrFaxNumber)</text><text fill="#000000" font-family="sans-serif" font-size="14" lengthAdjust="spacing" textLength="189" x="13" y="969.3301">+validateZipCode(strZipCode)</text><text fill="#000000" font-family="sans-serif" font-size="14" lengthAdjust="spacing" textLength="239" x="13" y="986.9395">+validateSlotDuration(strSlotDuration)</text><text fill="#000000" font-family="sans-serif" font-size="14" lengthAdjust="spacing" textLength="289" x="13" y="1004.5488">+validateVaccinesPerSlot(strVaccinesPerSlot)</text><text fill="#000000" font-family="sans-serif" font-size="14" lengthAdjust="spacing" textLength="190" x="13" y="1022.1582">+validateVaccinationCenters()</text><text fill="#000000" font-family="sans-serif" font-size="14" lengthAdjust="spacing" textLength="59" x="13" y="1039.7676">+fullInfo()</text><text fill="#000000" font-family="sans-serif" font-size="14" lengthAdjust="spacing" textLength="225" x="13" y="1057.377">+addAppointment(newAppointment)</text><text fill="#000000" font-family="sans-serif" font-size="14" lengthAdjust="spacing" textLength="283" x="13" y="1074.9863">+validateAppointment(scheduledVaccineDto)</text><text fill="#000000" font-family="sans-serif" font-size="14" lengthAdjust="spacing" textLength="445" x="13" y="1092.5957">-centerHasAvailability(appointmentsList, scheduledVaccineDto, center)</text><text fill="#000000" font-family="sans-serif" font-size="14" lengthAdjust="spacing" textLength="527" x="13" y="1110.2051">+validateAppointmentAccordingToAgeGroupAndTimeSinceLastDose(dto, company)</text><text fill="#000000" font-family="sans-serif" font-size="14" lengthAdjust="spacing" textLength="488" x="13" y="1127.8145">+validateAppointmentAccordingToAdminProcess(snsUser, dto, takenVaccine)</text><text fill="#000000" font-family="sans-serif" font-size="14" lengthAdjust="spacing" textLength="327" x="13" y="1145.4238">-getUserAgeGroup(snsUser, administrationProcess)</text><text fill="#000000" font-family="sans-serif" font-size="14" lengthAdjust="spacing" textLength="327" x="13" y="1163.0332">-validateAgeGroup(snsUser, administrationProcess)</text></g><!--MD5=[19e445fc4d3b48519cbe33da05496394]
class Vaccine--><g id="elem_Vaccine"><rect codeLine="63" fill="#F1F1F1" height="100.8281" id="Vaccine" rx="2.5" ry="2.5" style="stroke:#181818;stroke-width:0.5;" width="100" x="483" y="1639"/><ellipse cx="506.1" cy="1655" fill="#ADD1B2" rx="11" ry="11" style="stroke:#181818;stroke-width:1.0;"/><path d="M508.1,1651.5 Q508.3031,1651 508.5375,1650.75 Q508.7719,1650.5 509.0375,1650.5 Q509.5063,1650.5 509.8031,1650.7813 Q510.1,1651.0625 510.1,1651.7188 L510.1,1653.2813 Q510.1,1653.9375 509.8188,1654.2188 Q509.5375,1654.5 509.1,1654.5 Q508.7094,1654.5 508.4594,1654.3281 Q508.2094,1654.1563 508.1,1653.7031 Q508.0531,1653.3906 507.8813,1653.2188 Q507.5688,1652.8906 507.0063,1652.7031 Q506.4438,1652.5 505.8813,1652.5 Q505.1781,1652.5 504.5844,1652.7813 Q504.0063,1653.0625 503.5531,1653.6875 Q503.1,1654.3125 503.1,1655.1719 L503.1,1656.0938 Q503.1,1657.125 503.9438,1657.8125 Q504.7875,1658.5 506.2875,1658.5 Q507.1781,1658.5 507.8031,1658.2969 Q508.1625,1658.1875 508.5688,1657.8281 Q508.8344,1657.625 508.975,1657.5625 Q509.1156,1657.5 509.2875,1657.5 Q509.6156,1657.5 509.85,1657.7656 Q510.1,1658.0156 510.1,1658.375 Q510.1,1658.7188 509.7563,1659.125 Q509.2563,1659.7188 508.4594,1660.0469 Q507.4125,1660.5 506.1313,1660.5 Q504.6313,1660.5 503.4281,1659.9063 Q502.4594,1659.4375 501.7719,1658.4219 Q501.1,1657.4063 501.1,1656.2031 L501.1,1655.1094 Q501.1,1653.8594 501.6938,1652.7656 Q502.3031,1651.6719 503.35,1651.0938 Q504.4125,1650.5 505.6,1650.5 Q506.3188,1650.5 506.9438,1650.75 Q507.5688,1651 508.1,1651.5 Z " fill="#000000"/><text fill="#000000" font-family="sans-serif" font-size="14" lengthAdjust="spacing" textLength="50" x="521.9" y="1660.7285">Vaccine</text><line style="stroke:#181818;stroke-width:0.5;" x1="484" x2="582" y1="1671" y2="1671"/><text fill="#000000" font-family="sans-serif" font-size="14" lengthAdjust="spacing" textLength="20" x="489" y="1689.5332">-id;</text><text fill="#000000" font-family="sans-serif" font-size="14" lengthAdjust="spacing" textLength="46" x="489" y="1707.1426">-brand;</text><text fill="#000000" font-family="sans-serif" font-size="14" lengthAdjust="spacing" textLength="88" x="489" y="1724.752">-vaccine type;</text><line style="stroke:#181818;stroke-width:0.5;" x1="484" x2="582" y1="1731.8281" y2="1731.8281"/></g><!--MD5=[dba9a92b96999febf7a21ca0aa8468a3]
class ScheduledVaccine--><g id="elem_ScheduledVaccine"><rect codeLine="69" fill="#F1F1F1" height="100.8281" id="ScheduledVaccine" rx="2.5" ry="2.5" style="stroke:#181818;stroke-width:0.5;" width="149" x="1162.5" y="805"/><ellipse cx="1177.5" cy="821" fill="#ADD1B2" rx="11" ry="11" style="stroke:#181818;stroke-width:1.0;"/><path d="M1179.5,817.5 Q1179.7031,817 1179.9375,816.75 Q1180.1719,816.5 1180.4375,816.5 Q1180.9063,816.5 1181.2031,816.7813 Q1181.5,817.0625 1181.5,817.7188 L1181.5,819.2813 Q1181.5,819.9375 1181.2188,820.2188 Q1180.9375,820.5 1180.5,820.5 Q1180.1094,820.5 1179.8594,820.3281 Q1179.6094,820.1563 1179.5,819.7031 Q1179.4531,819.3906 1179.2813,819.2188 Q1178.9688,818.8906 1178.4063,818.7031 Q1177.8438,818.5 1177.2813,818.5 Q1176.5781,818.5 1175.9844,818.7813 Q1175.4063,819.0625 1174.9531,819.6875 Q1174.5,820.3125 1174.5,821.1719 L1174.5,822.0938 Q1174.5,823.125 1175.3438,823.8125 Q1176.1875,824.5 1177.6875,824.5 Q1178.5781,824.5 1179.2031,824.2969 Q1179.5625,824.1875 1179.9688,823.8281 Q1180.2344,823.625 1180.375,823.5625 Q1180.5156,823.5 1180.6875,823.5 Q1181.0156,823.5 1181.25,823.7656 Q1181.5,824.0156 1181.5,824.375 Q1181.5,824.7188 1181.1563,825.125 Q1180.6563,825.7188 1179.8594,826.0469 Q1178.8125,826.5 1177.5313,826.5 Q1176.0313,826.5 1174.8281,825.9063 Q1173.8594,825.4375 1173.1719,824.4219 Q1172.5,823.4063 1172.5,822.2031 L1172.5,821.1094 Q1172.5,819.8594 1173.0938,818.7656 Q1173.7031,817.6719 1174.75,817.0938 Q1175.8125,816.5 1177,816.5 Q1177.7188,816.5 1178.3438,816.75 Q1178.9688,817 1179.5,817.5 Z " fill="#000000"/><text fill="#000000" font-family="sans-serif" font-size="14" lengthAdjust="spacing" textLength="117" x="1191.5" y="826.7285">ScheduledVaccine</text><line style="stroke:#181818;stroke-width:0.5;" x1="1163.5" x2="1310.5" y1="837" y2="837"/><text fill="#000000" font-family="sans-serif" font-size="14" lengthAdjust="spacing" textLength="105" x="1168.5" y="855.5332">-snsUserNumber</text><text fill="#000000" font-family="sans-serif" font-size="14" lengthAdjust="spacing" textLength="33" x="1168.5" y="873.1426">-date</text><text fill="#000000" font-family="sans-serif" font-size="14" lengthAdjust="spacing" textLength="85" x="1168.5" y="890.752">-vaccineType</text><line style="stroke:#181818;stroke-width:0.5;" x1="1163.5" x2="1310.5" y1="897.8281" y2="897.8281"/></g><!--MD5=[c4593935f45e4a2a0cefc4788932b53f]
class SnsUser--><g id="elem_SnsUser"><rect codeLine="75" fill="#F1F1F1" height="347.3594" id="SnsUser" rx="2.5" ry="2.5" style="stroke:#181818;stroke-width:0.5;" width="683" x="566.5" y="1231"/><ellipse cx="877.25" cy="1247" fill="#ADD1B2" rx="11" ry="11" style="stroke:#181818;stroke-width:1.0;"/><path d="M879.25,1243.5 Q879.4531,1243 879.6875,1242.75 Q879.9219,1242.5 880.1875,1242.5 Q880.6563,1242.5 880.9531,1242.7813 Q881.25,1243.0625 881.25,1243.7188 L881.25,1245.2813 Q881.25,1245.9375 880.9688,1246.2188 Q880.6875,1246.5 880.25,1246.5 Q879.8594,1246.5 879.6094,1246.3281 Q879.3594,1246.1563 879.25,1245.7031 Q879.2031,1245.3906 879.0313,1245.2188 Q878.7188,1244.8906 878.1563,1244.7031 Q877.5938,1244.5 877.0313,1244.5 Q876.3281,1244.5 875.7344,1244.7813 Q875.1563,1245.0625 874.7031,1245.6875 Q874.25,1246.3125 874.25,1247.1719 L874.25,1248.0938 Q874.25,1249.125 875.0938,1249.8125 Q875.9375,1250.5 877.4375,1250.5 Q878.3281,1250.5 878.9531,1250.2969 Q879.3125,1250.1875 879.7188,1249.8281 Q879.9844,1249.625 880.125,1249.5625 Q880.2656,1249.5 880.4375,1249.5 Q880.7656,1249.5 881,1249.7656 Q881.25,1250.0156 881.25,1250.375 Q881.25,1250.7188 880.9063,1251.125 Q880.4063,1251.7188 879.6094,1252.0469 Q878.5625,1252.5 877.2813,1252.5 Q875.7813,1252.5 874.5781,1251.9063 Q873.6094,1251.4375 872.9219,1250.4219 Q872.25,1249.4063 872.25,1248.2031 L872.25,1247.1094 Q872.25,1245.8594 872.8438,1244.7656 Q873.4531,1243.6719 874.5,1243.0938 Q875.5625,1242.5 876.75,1242.5 Q877.4688,1242.5 878.0938,1242.75 Q878.7188,1243 879.25,1243.5 Z " fill="#000000"/><text fill="#000000" font-family="sans-serif" font-size="14" lengthAdjust="spacing" textLength="53" x="897.75" y="1252.7285">SnsUser</text><line style="stroke:#181818;stroke-width:0.5;" x1="567.5" x2="1248.5" y1="1263" y2="1263"/><text fill="#000000" font-family="sans-serif" font-size="14" lengthAdjust="spacing" textLength="45" x="572.5" y="1281.5332">-Name;</text><text fill="#000000" font-family="sans-serif" font-size="14" lengthAdjust="spacing" textLength="32" x="572.5" y="1299.1426">-Sex;</text><text fill="#000000" font-family="sans-serif" font-size="14" lengthAdjust="spacing" textLength="68" x="572.5" y="1316.752">-BirthDate;</text><text fill="#000000" font-family="sans-serif" font-size="14" lengthAdjust="spacing" textLength="61" x="572.5" y="1334.3613">-Address;</text><text fill="#000000" font-family="sans-serif" font-size="14" lengthAdjust="spacing" textLength="99" x="572.5" y="1351.9707">-PhoneNumber;</text><text fill="#000000" font-family="sans-serif" font-size="14" lengthAdjust="spacing" textLength="43" x="572.5" y="1369.5801">-Email;</text><text fill="#000000" font-family="sans-serif" font-size="14" lengthAdjust="spacing" textLength="87" x="572.5" y="1387.1895">-UserNumber;</text><text fill="#000000" font-family="sans-serif" font-size="14" lengthAdjust="spacing" textLength="131" x="572.5" y="1404.7988">-CitizenCardNumber;</text><text fill="#000000" font-family="sans-serif" font-size="14" lengthAdjust="spacing" textLength="70" x="572.5" y="1422.4082">-Password;</text><text fill="#000000" font-family="sans-serif" font-size="14" lengthAdjust="spacing" textLength="101" x="572.5" y="1440.0176">-takenVaccines;</text><line style="stroke:#181818;stroke-width:0.5;" x1="567.5" x2="1248.5" y1="1447.0938" y2="1447.0938"/><text fill="#000000" font-family="sans-serif" font-size="14" lengthAdjust="spacing" textLength="671" x="572.5" y="1465.627">+SnsUser(Name, Sex, BirthDate, Address, Number, Email, snsUserNumber, CitizenCardNumber, Password)</text><text fill="#000000" font-family="sans-serif" font-size="14" lengthAdjust="spacing" textLength="192" x="572.5" y="1483.2363">+validateEmail(String strEmail)</text><text fill="#000000" font-family="sans-serif" font-size="14" lengthAdjust="spacing" textLength="228" x="572.5" y="1500.8457">+validateAddress(String strAddress)</text><text fill="#000000" font-family="sans-serif" font-size="14" lengthAdjust="spacing" textLength="170" x="572.5" y="1518.4551">+validateSex(String strSex)</text><text fill="#000000" font-family="sans-serif" font-size="14" lengthAdjust="spacing" textLength="242" x="572.5" y="1536.0645">+validateBirthDate(String strBirthDate)</text><text fill="#000000" font-family="sans-serif" font-size="14" lengthAdjust="spacing" textLength="123" x="572.5" y="1553.6738">+validateSNSUser()</text><text fill="#000000" font-family="sans-serif" font-size="14" lengthAdjust="spacing" textLength="295" x="572.5" y="1571.2832">+registerVaccine(TakenVaccine takenVaccine)</text></g><!--MD5=[77f394cc6139a22c0e019720b3e71c2a]
link ScheduleVaccineUI to ScheduleVaccineController--><g id="link_ScheduleVaccineUI_ScheduleVaccineController"><path codeLine="95" d="M885,266.13 C885,285.16 885,304.18 885,321.51 " fill="none" id="ScheduleVaccineUI-to-ScheduleVaccineController" style="stroke:#181818;stroke-width:1.0;stroke-dasharray:7.0,7.0;"/><polygon fill="#181818" points="885,326.83,889,317.83,885,321.83,881,317.83,885,326.83" style="stroke:#181818;stroke-width:1.0;"/></g><!--MD5=[0d042facf6450482992b740b8d87904b]
link ScheduleVaccineController to VaccinationCenter--><g id="link_ScheduleVaccineController_VaccinationCenter"><path codeLine="96" d="M833.44,463.16 C817.06,484.5 797.73,509.67 776.91,536.79 " fill="none" id="ScheduleVaccineController-to-VaccinationCenter" style="stroke:#181818;stroke-width:1.0;stroke-dasharray:7.0,7.0;"/><polygon fill="#181818" points="773.83,540.81,782.4789,536.0987,776.871,536.841,776.1286,531.2331,773.83,540.81" style="stroke:#181818;stroke-width:1.0;"/></g><!--MD5=[40d7b2952f571adf3c15ceca43749525]
link ScheduleVaccineController to ScheduledVaccine--><g id="link_ScheduleVaccineController_ScheduledVaccine"><path codeLine="97" d="M991.52,463.13 C1021.59,485.43 1052.71,512.04 1077,541 C1145.72,622.93 1195.26,739.35 1219.72,804.81 " fill="none" id="ScheduleVaccineController-ScheduledVaccine" style="stroke:#181818;stroke-width:1.0;"/><text fill="#000000" font-family="sans-serif" font-size="13" lengthAdjust="spacing" textLength="43" x="1046" y="507.4951">creates</text></g><!--MD5=[759c7f6dbf62b13e16002bff783a0fa8]
link VaccinationCenter to Vaccine--><g id="link_VaccinationCenter_Vaccine"><path codeLine="98" d="M533,1170.15 C533,1342.58 533,1540.03 533,1633.68 " fill="none" id="VaccinationCenter-to-Vaccine" style="stroke:#181818;stroke-width:1.0;stroke-dasharray:7.0,7.0;"/><polygon fill="#181818" points="533,1638.88,537,1629.88,533,1633.88,529,1629.88,533,1638.88" style="stroke:#181818;stroke-width:1.0;"/></g><!--MD5=[857e0a15bebb9b819410f6c0bb8d41ca]
link VaccinationCenter to SnsUser--><g id="link_VaccinationCenter_SnsUser"><path codeLine="99" d="M748.15,1170.33 C761.29,1189.5 774.25,1208.41 786.76,1226.65 " fill="none" id="VaccinationCenter-to-SnsUser" style="stroke:#181818;stroke-width:1.0;stroke-dasharray:7.0,7.0;"/><polygon fill="#181818" points="789.59,1230.78,787.7874,1221.0975,786.7574,1226.6598,781.1951,1225.6297,789.59,1230.78" style="stroke:#181818;stroke-width:1.0;"/></g><!--MD5=[029731fb869b7c087e3aa6c04b4bc073]
link SnsUser to Vaccine--><g id="link_SnsUser_Vaccine"><path codeLine="100" d="M679.33,1578.07 C643.29,1605.27 609.38,1630.86 583.3,1650.54 " fill="none" id="SnsUser-Vaccine" style="stroke:#181818;stroke-width:1.0;"/></g><!--MD5=[adcf0078a0299005c9f5ccec10b6ed04]
link VaccinationCenter to ScheduledVaccine--><g id="link_VaccinationCenter_ScheduledVaccine"><path codeLine="101" d="M1059.35,855.5 C1096.06,855.5 1129.38,855.5 1156.99,855.5 " fill="none" id="VaccinationCenter-to-ScheduledVaccine" style="stroke:#181818;stroke-width:1.0;"/><polygon fill="#181818" points="1162.08,855.5,1153.08,851.5,1157.08,855.5,1153.08,859.5,1162.08,855.5" style="stroke:#181818;stroke-width:1.0;"/><text fill="#000000" font-family="sans-serif" font-size="13" lengthAdjust="spacing" textLength="67" x="1077.25" y="848.9951">has a list of</text></g><!--MD5=[7486f4c30367f2bcdac1a54e46d89200]
@startuml
skinparam classAttributeIconSize 0

class ScheduleVaccineUI {
+run()
-introduceSnsNumberUI()
-selectVaccineTypeHealthCareCenterUI(healthcareCenter)
-selectVaccineTypeUI(vaccinationCenter)
-selectDateUI(vaccinationCenter)
-selectDateFromCurrentMonth(appointmentsList, slotsPerDay, vaccinesPerSlot)
-selectDateFromNextMonth(appointmentsList, slotsPerDay, vaccinesPerSlot)
-calculateSlotsPerDay(openingHour, closingHour, slotDuration)
-dayHasAvailability(slotsPerDay, vaccinesPerSlot, date, appointments)
-printAppointmentInfo(scheduledVaccineDto, vaccinationCenter)
-printValidAppointmentInfo(scheduledVaccineDto, vaccinationCenter)
-printInvalidAppointment()
}

class ScheduleVaccineController {
+ScheduleVaccineController()
+scheduleVaccine(scheduledVaccineDto, vaccinationCenter)
+validateAppointment(scheduledVaccineDto, vaccinationCenter)
+validateAppointmentAccordingToAgeGroupAndTimeSinceLastDose(scheduledVaccineDto, center)
-dataIsAllFilled(scheduledVaccineDto)
}


class VaccinationCenter {
-id
-name
-phoneNumber
-email
-fax
-website
-openingHour
-closingHour
-slotDuration
-vaccinesPerSlot
-road
-zipCode
-local
centerCoordinatorID
-arrivalsList
+VaccinationCenter(id, name, phoneNumber, email, fax, website, openingHour, closingHour, slotDuration, vaccinesPerSlot, road, zipCode, local, centerCoordinatorID)
+toString()
+validateVaccinationCenterHours(openingHour, closingHour)
+validateWebsite(website, topLevelDomain, worldWideWeb)
+validateEmail(email)
+validatePhoneNumberAndFax(strPhoneNumberOrFaxNumber)
+validateZipCode(strZipCode)
+validateSlotDuration(strSlotDuration)
+validateVaccinesPerSlot(strVaccinesPerSlot)
+validateVaccinationCenters()
+fullInfo()
+addAppointment(newAppointment)
+validateAppointment(scheduledVaccineDto)
-centerHasAvailability(appointmentsList, scheduledVaccineDto, center)
+validateAppointmentAccordingToAgeGroupAndTimeSinceLastDose(dto, company)
+validateAppointmentAccordingToAdminProcess(snsUser, dto, takenVaccine)
-getUserAgeGroup(snsUser, administrationProcess)
-validateAgeGroup(snsUser, administrationProcess)
}

class Vaccine {
-id;
-brand;
-vaccine type;
}

 class ScheduledVaccine {
 -snsUserNumber
 -date
 -vaccineType
 }

class SnsUser {
- Name;
- Sex;
- BirthDate;
- Address;
- PhoneNumber;
- Email;
- UserNumber;
- CitizenCardNumber;
- Password;
- takenVaccines;
+ SnsUser(Name, Sex, BirthDate, Address, Number, Email, snsUserNumber, CitizenCardNumber, Password)
+ validateEmail(String strEmail)
+ validateAddress(String strAddress)
+ validateSex(String strSex)
+ validateBirthDate(String strBirthDate)
+ validateSNSUser()
+ registerVaccine(TakenVaccine takenVaccine)
}

ScheduleVaccineUI ..> ScheduleVaccineController
ScheduleVaccineController ..> VaccinationCenter
ScheduleVaccineController - - ScheduledVaccine : creates
VaccinationCenter ..> Vaccine
VaccinationCenter ..> SnsUser
SnsUser - - Vaccine
VaccinationCenter - -right> ScheduledVaccine : has a list of
@enduml

PlantUML version 1.2022.4(Sat Apr 09 14:29:17 BST 2022)
(GPL source distribution)
Java Runtime: OpenJDK Runtime Environment
JVM: OpenJDK 64-Bit Server VM
Default Encoding: Cp1252
Language: en
Country: US
--></g></svg>