<?xml version="1.0" encoding="UTF-8" standalone="no"?><svg xmlns="http://www.w3.org/2000/svg" xmlns:xlink="http://www.w3.org/1999/xlink" contentStyleType="text/css" height="1264.5px" preserveAspectRatio="none" style="width:2017px;height:1264px;background:#FFFFFF;" version="1.1" viewBox="0 0 2017 1264" width="2017.8px" zoomAndPan="magnify"><defs/><g><rect fill="#FFFFFF" height="1091.3906" style="stroke:#181818;stroke-width:0.9;" width="9" x="27.9" y="83.3484"/><rect fill="#FFFFFF" height="30.0164" style="stroke:#181818;stroke-width:0.9;" width="9" x="459.9" y="103.4648"/><rect fill="#FFFFFF" height="27.3164" style="stroke:#181818;stroke-width:0.9;" width="9" x="459.9" y="163.4977"/><rect fill="#FFFFFF" height="27.3164" style="stroke:#181818;stroke-width:0.9;" width="9" x="459.9" y="218.1305"/><rect fill="#FFFFFF" height="27.3164" style="stroke:#181818;stroke-width:0.9;" width="9" x="459.9" y="272.7633"/><rect fill="#FFFFFF" height="311.8641" style="stroke:#181818;stroke-width:0.9;" width="9" x="459.9" y="327.3961"/><rect fill="#FFFFFF" height="387.5133" style="stroke:#181818;stroke-width:0.9;" width="9" x="459.9" y="666.5766"/><rect fill="#FFFFFF" height="93.3328" style="stroke:#181818;stroke-width:0.9;" width="9" x="459.9" y="1081.4063"/><rect fill="#FFFFFF" height="25.2" style="stroke:#181818;stroke-width:0.9;" width="9" x="464.4" y="1115.9227"/><rect fill="#FFFFFF" height="257.2313" style="stroke:#181818;stroke-width:0.9;" width="9" x="837" y="354.7125"/><rect fill="#FFFFFF" height="25.2" style="stroke:#181818;stroke-width:0.9;" width="9" x="841.5" y="389.2289"/><rect fill="#FFFFFF" height="305.5641" style="stroke:#181818;stroke-width:0.9;" width="9" x="837" y="693.893"/><rect fill="#FFFFFF" height="27.3164" style="stroke:#181818;stroke-width:0.9;" width="9" x="1107.9" y="557.3109"/><rect fill="#FFFFFF" height="27.3164" style="stroke:#181818;stroke-width:0.9;" width="9" x="1107.9" y="721.2094"/><rect fill="#FFFFFF" height="81.9492" style="stroke:#181818;stroke-width:0.9;" width="9" x="1107.9" y="890.1914"/><rect fill="#FFFFFF" height="27.3164" style="stroke:#181818;stroke-width:0.9;" width="9" x="1346.4" y="502.6781"/><rect fill="#FFFFFF" height="87.0328" style="stroke:#181818;stroke-width:0.9;" width="9" x="1476.9" y="775.8422"/><rect fill="#FFFFFF" height="27.3164" style="stroke:#181818;stroke-width:0.9;" width="9" x="1786.5" y="448.0453"/><rect fill="#FFFFFF" height="27" style="stroke:#181818;stroke-width:0.9;" width="9" x="1786.5" y="835.875"/><rect fill="#FFFFFF" height="27.3164" style="stroke:#181818;stroke-width:0.9;" width="9" x="1932.3" y="917.5078"/><line style="stroke:#181818;stroke-width:0.45;stroke-dasharray:5.0,5.0;" x1="32.4" x2="32.4" y1="74.3484" y2="1190.9391"/><line style="stroke:#181818;stroke-width:0.45;stroke-dasharray:5.0,5.0;" x1="463.95" x2="463.95" y1="74.3484" y2="1190.9391"/><line style="stroke:#181818;stroke-width:0.45;stroke-dasharray:5.0,5.0;" x1="841.05" x2="841.05" y1="74.3484" y2="1190.9391"/><line style="stroke:#181818;stroke-width:0.45;stroke-dasharray:5.0,5.0;" x1="1112.4" x2="1112.4" y1="74.3484" y2="1190.9391"/><line style="stroke:#181818;stroke-width:0.45;stroke-dasharray:5.0,5.0;" x1="1350.45" x2="1350.45" y1="74.3484" y2="1190.9391"/><line style="stroke:#181818;stroke-width:0.45;stroke-dasharray:5.0,5.0;" x1="1480.95" x2="1480.95" y1="74.3484" y2="1190.9391"/><line style="stroke:#181818;stroke-width:0.45;stroke-dasharray:5.0,5.0;" x1="1650.15" x2="1650.15" y1="74.3484" y2="1190.9391"/><line style="stroke:#181818;stroke-width:0.45;stroke-dasharray:5.0,5.0;" x1="1790.55" x2="1790.55" y1="74.3484" y2="1190.9391"/><line style="stroke:#181818;stroke-width:0.45;stroke-dasharray:5.0,5.0;" x1="1936.35" x2="1936.35" y1="74.3484" y2="1190.9391"/><text fill="#000000" font-family="sans-serif" font-size="12.6" lengthAdjust="spacing" textLength="50.4" x="4.5" y="71.5799">SNSUser</text><ellipse cx="32.4" cy="12.15" fill="#E2E2F0" rx="7.2" ry="7.2" style="stroke:#181818;stroke-width:0.45;"/><path d="M32.4,19.35 L32.4,43.65 M20.7,26.55 L44.1,26.55 M32.4,43.65 L20.7,57.15 M32.4,43.65 L44.1,57.15 " fill="none" style="stroke:#181818;stroke-width:0.45;"/><text fill="#000000" font-family="sans-serif" font-size="12.6" lengthAdjust="spacing" textLength="50.4" x="4.5" y="1203.1189">SNSUser</text><ellipse cx="32.4" cy="1213.5375" fill="#E2E2F0" rx="7.2" ry="7.2" style="stroke:#181818;stroke-width:0.45;"/><path d="M32.4,1220.7375 L32.4,1245.0375 M20.7,1227.9375 L44.1,1227.9375 M32.4,1245.0375 L20.7,1258.5375 M32.4,1245.0375 L44.1,1258.5375 " fill="none" style="stroke:#181818;stroke-width:0.45;"/><rect fill="#E2E2F0" height="28.4484" rx="2.25" ry="2.25" style="stroke:#181818;stroke-width:0.45;" width="125.1" x="401.85" y="45"/><text fill="#000000" font-family="sans-serif" font-size="12.6" lengthAdjust="spacing" textLength="112.5" x="408.15" y="64.3799">:ScheduleVaccineUI</text><rect fill="#E2E2F0" height="28.4484" rx="2.25" ry="2.25" style="stroke:#181818;stroke-width:0.45;" width="125.1" x="401.85" y="1190.0391"/><text fill="#000000" font-family="sans-serif" font-size="12.6" lengthAdjust="spacing" textLength="112.5" x="408.15" y="1209.4189">:ScheduleVaccineUI</text><rect fill="#E2E2F0" height="28.4484" rx="2.25" ry="2.25" style="stroke:#181818;stroke-width:0.45;" width="170.1" x="756.45" y="45"/><text fill="#000000" font-family="sans-serif" font-size="12.6" lengthAdjust="spacing" textLength="157.5" x="762.75" y="64.3799">:ScheduleVaccineController</text><rect fill="#E2E2F0" height="28.4484" rx="2.25" ry="2.25" style="stroke:#181818;stroke-width:0.45;" width="170.1" x="756.45" y="1190.0391"/><text fill="#000000" font-family="sans-serif" font-size="12.6" lengthAdjust="spacing" textLength="157.5" x="762.75" y="1209.4189">:ScheduleVaccineController</text><rect fill="#E2E2F0" height="44.2969" rx="2.25" ry="2.25" style="stroke:#181818;stroke-width:0.45;" width="120.6" x="1052.1" y="29.1516"/><text fill="#000000" font-family="sans-serif" font-size="12.6" lengthAdjust="spacing" textLength="102.6" x="1061.1" y="48.5314">vaccinationCenter</text><text fill="#000000" font-family="sans-serif" font-size="12.6" lengthAdjust="spacing" textLength="108" x="1058.4" y="64.3799">:VaccinationCenter</text><rect fill="#E2E2F0" height="44.2969" rx="2.25" ry="2.25" style="stroke:#181818;stroke-width:0.45;" width="120.6" x="1052.1" y="1190.0391"/><text fill="#000000" font-family="sans-serif" font-size="12.6" lengthAdjust="spacing" textLength="102.6" x="1061.1" y="1209.4189">vaccinationCenter</text><text fill="#000000" font-family="sans-serif" font-size="12.6" lengthAdjust="spacing" textLength="108" x="1058.4" y="1225.2674">:VaccinationCenter</text><rect fill="#E2E2F0" height="44.2969" rx="2.25" ry="2.25" style="stroke:#181818;stroke-width:0.45;" width="63.9" x="1318.95" y="29.1516"/><text fill="#000000" font-family="sans-serif" font-size="12.6" lengthAdjust="spacing" textLength="45.9" x="1327.95" y="48.5314">snsUser</text><text fill="#000000" font-family="sans-serif" font-size="12.6" lengthAdjust="spacing" textLength="51.3" x="1325.25" y="64.3799">:SnsUser</text><rect fill="#E2E2F0" height="44.2969" rx="2.25" ry="2.25" style="stroke:#181818;stroke-width:0.45;" width="63.9" x="1318.95" y="1190.0391"/><text fill="#000000" font-family="sans-serif" font-size="12.6" lengthAdjust="spacing" textLength="45.9" x="1327.95" y="1209.4189">snsUser</text><text fill="#000000" font-family="sans-serif" font-size="12.6" lengthAdjust="spacing" textLength="51.3" x="1325.25" y="1225.2674">:SnsUser</text><rect fill="#E2E2F0" height="44.2969" rx="2.25" ry="2.25" style="stroke:#181818;stroke-width:0.45;" width="179.1" x="1391.85" y="29.1516"/><text fill="#000000" font-family="sans-serif" font-size="12.6" lengthAdjust="spacing" textLength="166.5" x="1398.15" y="48.5314">scheduledVaccineDtoMapper</text><text fill="#000000" font-family="sans-serif" font-size="12.6" lengthAdjust="spacing" textLength="152.1" x="1405.35" y="64.3799">:ScheduledVaccineMapper</text><rect fill="#E2E2F0" height="44.2969" rx="2.25" ry="2.25" style="stroke:#181818;stroke-width:0.45;" width="179.1" x="1391.85" y="1190.0391"/><text fill="#000000" font-family="sans-serif" font-size="12.6" lengthAdjust="spacing" textLength="166.5" x="1398.15" y="1209.4189">scheduledVaccineDtoMapper</text><text fill="#000000" font-family="sans-serif" font-size="12.6" lengthAdjust="spacing" textLength="152.1" x="1405.35" y="1225.2674">:ScheduledVaccineMapper</text><rect fill="#E2E2F0" height="44.2969" rx="2.25" ry="2.25" style="stroke:#181818;stroke-width:0.45;" width="141.3" x="1579.95" y="29.1516"/><text fill="#000000" font-family="sans-serif" font-size="12.6" lengthAdjust="spacing" textLength="123.3" x="1588.95" y="48.5314">scheduledVaccineDto</text><text fill="#000000" font-family="sans-serif" font-size="12.6" lengthAdjust="spacing" textLength="128.7" x="1586.25" y="64.3799">:ScheduledVaccineDto</text><rect fill="#E2E2F0" height="44.2969" rx="2.25" ry="2.25" style="stroke:#181818;stroke-width:0.45;" width="141.3" x="1579.95" y="1190.0391"/><text fill="#000000" font-family="sans-serif" font-size="12.6" lengthAdjust="spacing" textLength="123.3" x="1588.95" y="1209.4189">scheduledVaccineDto</text><text fill="#000000" font-family="sans-serif" font-size="12.6" lengthAdjust="spacing" textLength="128.7" x="1586.25" y="1225.2674">:ScheduledVaccineDto</text><rect fill="#E2E2F0" height="44.2969" rx="2.25" ry="2.25" style="stroke:#181818;stroke-width:0.45;" width="121.5" x="1730.25" y="29.1516"/><text fill="#000000" font-family="sans-serif" font-size="12.6" lengthAdjust="spacing" textLength="103.5" x="1739.25" y="48.5314">scheduledVaccine</text><text fill="#000000" font-family="sans-serif" font-size="12.6" lengthAdjust="spacing" textLength="108.9" x="1736.55" y="64.3799">:ScheduledVaccine</text><rect fill="#E2E2F0" height="44.2969" rx="2.25" ry="2.25" style="stroke:#181818;stroke-width:0.45;" width="121.5" x="1730.25" y="1190.0391"/><text fill="#000000" font-family="sans-serif" font-size="12.6" lengthAdjust="spacing" textLength="103.5" x="1739.25" y="1209.4189">scheduledVaccine</text><text fill="#000000" font-family="sans-serif" font-size="12.6" lengthAdjust="spacing" textLength="108.9" x="1736.55" y="1225.2674">:ScheduledVaccine</text><rect fill="#E2E2F0" height="44.2969" rx="2.25" ry="2.25" style="stroke:#181818;stroke-width:0.45;" width="152.1" x="1860.75" y="29.1516"/><text fill="#000000" font-family="sans-serif" font-size="12.6" lengthAdjust="spacing" textLength="96.3" x="1888.65" y="48.5314">appointmentsList</text><text fill="#000000" font-family="sans-serif" font-size="12.6" lengthAdjust="spacing" textLength="139.5" x="1867.05" y="64.3799">List&lt;ScheduledVaccine&gt;</text><rect fill="#E2E2F0" height="44.2969" rx="2.25" ry="2.25" style="stroke:#181818;stroke-width:0.45;" width="152.1" x="1860.75" y="1190.0391"/><text fill="#000000" font-family="sans-serif" font-size="12.6" lengthAdjust="spacing" textLength="96.3" x="1888.65" y="1209.4189">appointmentsList</text><text fill="#000000" font-family="sans-serif" font-size="12.6" lengthAdjust="spacing" textLength="139.5" x="1867.05" y="1225.2674">List&lt;ScheduledVaccine&gt;</text><rect fill="#FFFFFF" height="1091.3906" style="stroke:#181818;stroke-width:0.9;" width="9" x="27.9" y="83.3484"/><rect fill="#FFFFFF" height="30.0164" style="stroke:#181818;stroke-width:0.9;" width="9" x="459.9" y="103.4648"/><rect fill="#FFFFFF" height="27.3164" style="stroke:#181818;stroke-width:0.9;" width="9" x="459.9" y="163.4977"/><rect fill="#FFFFFF" height="27.3164" style="stroke:#181818;stroke-width:0.9;" width="9" x="459.9" y="218.1305"/><rect fill="#FFFFFF" height="27.3164" style="stroke:#181818;stroke-width:0.9;" width="9" x="459.9" y="272.7633"/><rect fill="#FFFFFF" height="311.8641" style="stroke:#181818;stroke-width:0.9;" width="9" x="459.9" y="327.3961"/><rect fill="#FFFFFF" height="387.5133" style="stroke:#181818;stroke-width:0.9;" width="9" x="459.9" y="666.5766"/><rect fill="#FFFFFF" height="93.3328" style="stroke:#181818;stroke-width:0.9;" width="9" x="459.9" y="1081.4063"/><rect fill="#FFFFFF" height="25.2" style="stroke:#181818;stroke-width:0.9;" width="9" x="464.4" y="1115.9227"/><rect fill="#FFFFFF" height="257.2313" style="stroke:#181818;stroke-width:0.9;" width="9" x="837" y="354.7125"/><rect fill="#FFFFFF" height="25.2" style="stroke:#181818;stroke-width:0.9;" width="9" x="841.5" y="389.2289"/><rect fill="#FFFFFF" height="305.5641" style="stroke:#181818;stroke-width:0.9;" width="9" x="837" y="693.893"/><rect fill="#FFFFFF" height="27.3164" style="stroke:#181818;stroke-width:0.9;" width="9" x="1107.9" y="557.3109"/><rect fill="#FFFFFF" height="27.3164" style="stroke:#181818;stroke-width:0.9;" width="9" x="1107.9" y="721.2094"/><rect fill="#FFFFFF" height="81.9492" style="stroke:#181818;stroke-width:0.9;" width="9" x="1107.9" y="890.1914"/><rect fill="#FFFFFF" height="27.3164" style="stroke:#181818;stroke-width:0.9;" width="9" x="1346.4" y="502.6781"/><rect fill="#FFFFFF" height="87.0328" style="stroke:#181818;stroke-width:0.9;" width="9" x="1476.9" y="775.8422"/><rect fill="#FFFFFF" height="27.3164" style="stroke:#181818;stroke-width:0.9;" width="9" x="1786.5" y="448.0453"/><rect fill="#FFFFFF" height="27" style="stroke:#181818;stroke-width:0.9;" width="9" x="1786.5" y="835.875"/><rect fill="#FFFFFF" height="27.3164" style="stroke:#181818;stroke-width:0.9;" width="9" x="1932.3" y="917.5078"/><polygon fill="#181818" points="449.1,99.8648,458.1,103.4648,449.1,107.0648,452.7,103.4648" style="stroke:#181818;stroke-width:0.9;"/><line style="stroke:#181818;stroke-width:0.9;" x1="36.9" x2="454.5" y1="103.4648" y2="103.4648"/><text fill="#000000" font-family="sans-serif" font-size="11.7" font-weight="bold" lengthAdjust="spacing" textLength="6.3" x="43.2" y="99.094">1</text><text fill="#000000" font-family="sans-serif" font-size="11.7" lengthAdjust="spacing" textLength="141.3" x="53.1" y="99.094">asks to schedule a vaccine</text><polygon fill="#181818" points="46.8,129.8813,37.8,133.4813,46.8,137.0813,43.2,133.4813" style="stroke:#181818;stroke-width:0.9;"/><line style="stroke:#181818;stroke-width:0.9;stroke-dasharray:2.0,2.0;" x1="41.4" x2="463.5" y1="133.4813" y2="133.4813"/><text fill="#000000" font-family="sans-serif" font-size="11.7" font-weight="bold" lengthAdjust="spacing" textLength="6.3" x="52.2" y="129.1104">2</text><text fill="#000000" font-family="sans-serif" font-size="11.7" lengthAdjust="spacing" textLength="257.4" x="62.1" y="129.1104">shows a list with the available vaccination centers</text><path d="M473.4,115.1648 L473.4,138.5648 L769.5,138.5648 L769.5,124.1648 L760.5,115.1648 L473.4,115.1648 " fill="#FEFFDD" style="stroke:#181818;stroke-width:0.45;"/><path d="M760.5,115.1648 L760.5,124.1648 L769.5,124.1648 L760.5,115.1648 " fill="#FEFFDD" style="stroke:#181818;stroke-width:0.45;"/><text fill="#000000" font-family="sans-serif" font-size="11.7" lengthAdjust="spacing" textLength="277.2" x="478.8" y="131.8104">omitted interactions to get the information for the lists</text><polygon fill="#181818" points="449.1,159.8977,458.1,163.4977,449.1,167.0977,452.7,163.4977" style="stroke:#181818;stroke-width:0.9;"/><line style="stroke:#181818;stroke-width:0.9;" x1="36.9" x2="454.5" y1="163.4977" y2="163.4977"/><text fill="#000000" font-family="sans-serif" font-size="11.7" font-weight="bold" lengthAdjust="spacing" textLength="6.3" x="43.2" y="159.1269">3</text><text fill="#000000" font-family="sans-serif" font-size="11.7" lengthAdjust="spacing" textLength="157.5" x="53.1" y="159.1269">selects one vaccination center</text><polygon fill="#181818" points="46.8,187.2141,37.8,190.8141,46.8,194.4141,43.2,190.8141" style="stroke:#181818;stroke-width:0.9;"/><line style="stroke:#181818;stroke-width:0.9;stroke-dasharray:2.0,2.0;" x1="41.4" x2="463.5" y1="190.8141" y2="190.8141"/><text fill="#000000" font-family="sans-serif" font-size="11.7" font-weight="bold" lengthAdjust="spacing" textLength="6.3" x="52.2" y="186.4433">4</text><text fill="#000000" font-family="sans-serif" font-size="11.7" lengthAdjust="spacing" textLength="234.9" x="62.1" y="186.4433">shows a list with the Vaccine Types available</text><polygon fill="#181818" points="449.1,214.5305,458.1,218.1305,449.1,221.7305,452.7,218.1305" style="stroke:#181818;stroke-width:0.9;"/><line style="stroke:#181818;stroke-width:0.9;" x1="36.9" x2="454.5" y1="218.1305" y2="218.1305"/><text fill="#000000" font-family="sans-serif" font-size="11.7" font-weight="bold" lengthAdjust="spacing" textLength="6.3" x="43.2" y="213.7597">5</text><text fill="#000000" font-family="sans-serif" font-size="11.7" lengthAdjust="spacing" textLength="135" x="53.1" y="213.7597">selects one Vaccine Type</text><polygon fill="#181818" points="46.8,241.8469,37.8,245.4469,46.8,249.0469,43.2,245.4469" style="stroke:#181818;stroke-width:0.9;"/><line style="stroke:#181818;stroke-width:0.9;stroke-dasharray:2.0,2.0;" x1="41.4" x2="463.5" y1="245.4469" y2="245.4469"/><text fill="#000000" font-family="sans-serif" font-size="11.7" font-weight="bold" lengthAdjust="spacing" textLength="6.3" x="52.2" y="241.0761">6</text><text fill="#000000" font-family="sans-serif" font-size="11.7" lengthAdjust="spacing" textLength="201.6" x="62.1" y="241.0761">shows a list with all the dates available</text><polygon fill="#181818" points="449.1,269.1633,458.1,272.7633,449.1,276.3633,452.7,272.7633" style="stroke:#181818;stroke-width:0.9;"/><line style="stroke:#181818;stroke-width:0.9;" x1="36.9" x2="454.5" y1="272.7633" y2="272.7633"/><text fill="#000000" font-family="sans-serif" font-size="11.7" font-weight="bold" lengthAdjust="spacing" textLength="6.3" x="43.2" y="268.3925">7</text><text fill="#000000" font-family="sans-serif" font-size="11.7" lengthAdjust="spacing" textLength="86.4" x="53.1" y="268.3925">selects one date</text><polygon fill="#181818" points="46.8,296.4797,37.8,300.0797,46.8,303.6797,43.2,300.0797" style="stroke:#181818;stroke-width:0.9;"/><line style="stroke:#181818;stroke-width:0.9;stroke-dasharray:2.0,2.0;" x1="41.4" x2="463.5" y1="300.0797" y2="300.0797"/><text fill="#000000" font-family="sans-serif" font-size="11.7" font-weight="bold" lengthAdjust="spacing" textLength="6.3" x="52.2" y="295.7089">8</text><text fill="#000000" font-family="sans-serif" font-size="11.7" lengthAdjust="spacing" textLength="198" x="62.1" y="295.7089">shows a list with all the slots available</text><polygon fill="#181818" points="449.1,323.7961,458.1,327.3961,449.1,330.9961,452.7,327.3961" style="stroke:#181818;stroke-width:0.9;"/><line style="stroke:#181818;stroke-width:0.9;" x1="36.9" x2="454.5" y1="327.3961" y2="327.3961"/><text fill="#000000" font-family="sans-serif" font-size="11.7" font-weight="bold" lengthAdjust="spacing" textLength="6.3" x="43.2" y="323.0253">9</text><text fill="#000000" font-family="sans-serif" font-size="11.7" lengthAdjust="spacing" textLength="82.8" x="53.1" y="323.0253">selects one slot</text><polygon fill="#181818" points="826.2,351.1125,835.2,354.7125,826.2,358.3125,829.8,354.7125" style="stroke:#181818;stroke-width:0.9;"/><line style="stroke:#181818;stroke-width:0.9;" x1="468.9" x2="831.6" y1="354.7125" y2="354.7125"/><text fill="#000000" font-family="sans-serif" font-size="11.7" font-weight="bold" lengthAdjust="spacing" textLength="12.6" x="475.2" y="350.3417">10</text><text fill="#000000" font-family="sans-serif" font-size="11.7" lengthAdjust="spacing" textLength="317.7" x="491.4" y="350.3417">validateAppointment(scheduleVaccineDto, vaccinationCenter)</text><line style="stroke:#181818;stroke-width:0.9;" x1="850.5" x2="888.3" y1="382.0289" y2="382.0289"/><line style="stroke:#181818;stroke-width:0.9;" x1="888.3" x2="888.3" y1="382.0289" y2="393.7289"/><line style="stroke:#181818;stroke-width:0.9;" x1="851.4" x2="888.3" y1="393.7289" y2="393.7289"/><polygon fill="#181818" points="860.4,390.1289,851.4,393.7289,860.4,397.3289,856.8,393.7289" style="stroke:#181818;stroke-width:0.9;"/><text fill="#000000" font-family="sans-serif" font-size="11.7" font-weight="bold" lengthAdjust="spacing" textLength="12.6" x="856.8" y="377.6581">11</text><text fill="#000000" font-family="sans-serif" font-size="11.7" lengthAdjust="spacing" textLength="187.2" x="873" y="377.6581">dataIsAllFilled(scheduleVaccineDto)</text><polygon fill="#181818" points="1775.7,444.4453,1784.7,448.0453,1775.7,451.6453,1779.3,448.0453" style="stroke:#181818;stroke-width:0.9;"/><line style="stroke:#181818;stroke-width:0.9;" x1="846" x2="1781.1" y1="448.0453" y2="448.0453"/><text fill="#000000" font-family="sans-serif" font-size="11.7" font-weight="bold" lengthAdjust="spacing" textLength="12.6" x="852.3" y="443.6745">12</text><text fill="#000000" font-family="sans-serif" font-size="11.7" lengthAdjust="spacing" textLength="291.6" x="868.5" y="443.6745">userIsEligibleForTheAppointment(scheduledVaccineDto)</text><polygon fill="#181818" points="855.9,471.7617,846.9,475.3617,855.9,478.9617,852.3,475.3617" style="stroke:#181818;stroke-width:0.9;"/><line style="stroke:#181818;stroke-width:0.9;stroke-dasharray:2.0,2.0;" x1="850.5" x2="1790.1" y1="475.3617" y2="475.3617"/><text fill="#000000" font-family="sans-serif" font-size="11.7" font-weight="bold" lengthAdjust="spacing" textLength="12.6" x="861.3" y="470.9909">13</text><text fill="#000000" font-family="sans-serif" font-size="11.7" lengthAdjust="spacing" textLength="28.8" x="877.5" y="470.9909">result</text><polygon fill="#181818" points="1335.6,499.0781,1344.6,502.6781,1335.6,506.2781,1339.2,502.6781" style="stroke:#181818;stroke-width:0.9;"/><line style="stroke:#181818;stroke-width:0.9;" x1="846" x2="1341" y1="502.6781" y2="502.6781"/><text fill="#000000" font-family="sans-serif" font-size="11.7" font-weight="bold" lengthAdjust="spacing" textLength="12.6" x="852.3" y="498.3073">14</text><text fill="#000000" font-family="sans-serif" font-size="11.7" lengthAdjust="spacing" textLength="467.1" x="868.5" y="498.3073">validateAppointmentAccordingToAgeGroupAndTimeSinceLastDose(scheduledVaccineDto)</text><polygon fill="#181818" points="855.9,526.3945,846.9,529.9945,855.9,533.5945,852.3,529.9945" style="stroke:#181818;stroke-width:0.9;"/><line style="stroke:#181818;stroke-width:0.9;stroke-dasharray:2.0,2.0;" x1="850.5" x2="1350" y1="529.9945" y2="529.9945"/><text fill="#000000" font-family="sans-serif" font-size="11.7" font-weight="bold" lengthAdjust="spacing" textLength="12.6" x="861.3" y="525.6237">15</text><text fill="#000000" font-family="sans-serif" font-size="11.7" lengthAdjust="spacing" textLength="28.8" x="877.5" y="525.6237">result</text><polygon fill="#181818" points="1097.1,553.7109,1106.1,557.3109,1097.1,560.9109,1100.7,557.3109" style="stroke:#181818;stroke-width:0.9;"/><line style="stroke:#181818;stroke-width:0.9;" x1="846" x2="1102.5" y1="557.3109" y2="557.3109"/><text fill="#000000" font-family="sans-serif" font-size="11.7" font-weight="bold" lengthAdjust="spacing" textLength="12.6" x="852.3" y="552.9401">16</text><text fill="#000000" font-family="sans-serif" font-size="11.7" lengthAdjust="spacing" textLength="228.6" x="868.5" y="552.9401">centerHasAvailability(scheduledVaccineDto)</text><polygon fill="#181818" points="855.9,581.0273,846.9,584.6273,855.9,588.2273,852.3,584.6273" style="stroke:#181818;stroke-width:0.9;"/><line style="stroke:#181818;stroke-width:0.9;stroke-dasharray:2.0,2.0;" x1="850.5" x2="1111.5" y1="584.6273" y2="584.6273"/><text fill="#000000" font-family="sans-serif" font-size="11.7" font-weight="bold" lengthAdjust="spacing" textLength="12.6" x="861.3" y="580.2565">17</text><text fill="#000000" font-family="sans-serif" font-size="11.7" lengthAdjust="spacing" textLength="28.8" x="877.5" y="580.2565">result</text><polygon fill="#181818" points="478.8,608.3438,469.8,611.9438,478.8,615.5438,475.2,611.9438" style="stroke:#181818;stroke-width:0.9;"/><line style="stroke:#181818;stroke-width:0.9;stroke-dasharray:2.0,2.0;" x1="473.4" x2="840.6" y1="611.9438" y2="611.9438"/><text fill="#000000" font-family="sans-serif" font-size="11.7" font-weight="bold" lengthAdjust="spacing" textLength="12.6" x="484.2" y="607.5729">18</text><text fill="#000000" font-family="sans-serif" font-size="11.7" lengthAdjust="spacing" textLength="28.8" x="500.4" y="607.5729">result</text><polygon fill="#181818" points="46.8,635.6602,37.8,639.2602,46.8,642.8602,43.2,639.2602" style="stroke:#181818;stroke-width:0.9;"/><line style="stroke:#181818;stroke-width:0.9;" x1="41.4" x2="463.5" y1="639.2602" y2="639.2602"/><text fill="#000000" font-family="sans-serif" font-size="11.7" font-weight="bold" lengthAdjust="spacing" textLength="12.6" x="52.2" y="634.8894">19</text><text fill="#000000" font-family="sans-serif" font-size="11.7" lengthAdjust="spacing" textLength="216.9" x="68.4" y="634.8894">shows the data and requests confirmation</text><polygon fill="#181818" points="449.1,662.9766,458.1,666.5766,449.1,670.1766,452.7,666.5766" style="stroke:#181818;stroke-width:0.9;"/><line style="stroke:#181818;stroke-width:0.9;" x1="36.9" x2="454.5" y1="666.5766" y2="666.5766"/><text fill="#000000" font-family="sans-serif" font-size="11.7" font-weight="bold" lengthAdjust="spacing" textLength="12.6" x="43.2" y="662.2058">20</text><text fill="#000000" font-family="sans-serif" font-size="11.7" lengthAdjust="spacing" textLength="90" x="59.4" y="662.2058">confirms the data</text><polygon fill="#181818" points="826.2,690.293,835.2,693.893,826.2,697.493,829.8,693.893" style="stroke:#181818;stroke-width:0.9;"/><line style="stroke:#181818;stroke-width:0.9;" x1="468.9" x2="831.6" y1="693.893" y2="693.893"/><text fill="#000000" font-family="sans-serif" font-size="11.7" font-weight="bold" lengthAdjust="spacing" textLength="12.6" x="475.2" y="689.5222">21</text><text fill="#000000" font-family="sans-serif" font-size="11.7" lengthAdjust="spacing" textLength="308.7" x="491.4" y="689.5222">scheduledVaccine(scheduleVaccineDto, vaccinationCenter)</text><polygon fill="#181818" points="1097.1,717.6094,1106.1,721.2094,1097.1,724.8094,1100.7,721.2094" style="stroke:#181818;stroke-width:0.9;"/><line style="stroke:#181818;stroke-width:0.9;" x1="846" x2="1102.5" y1="721.2094" y2="721.2094"/><text fill="#000000" font-family="sans-serif" font-size="11.7" font-weight="bold" lengthAdjust="spacing" textLength="12.6" x="852.3" y="716.8386">22</text><text fill="#000000" font-family="sans-serif" font-size="11.7" lengthAdjust="spacing" textLength="222.3" x="868.5" y="716.8386">centerHasAvailability(scheduleVaccineDto)</text><polygon fill="#181818" points="855.9,744.9258,846.9,748.5258,855.9,752.1258,852.3,748.5258" style="stroke:#181818;stroke-width:0.9;"/><line style="stroke:#181818;stroke-width:0.9;stroke-dasharray:2.0,2.0;" x1="850.5" x2="1111.5" y1="748.5258" y2="748.5258"/><text fill="#000000" font-family="sans-serif" font-size="11.7" font-weight="bold" lengthAdjust="spacing" textLength="12.6" x="861.3" y="744.155">23</text><text fill="#000000" font-family="sans-serif" font-size="11.7" lengthAdjust="spacing" textLength="28.8" x="877.5" y="744.155">result</text><polygon fill="#181818" points="1466.1,772.2422,1475.1,775.8422,1466.1,779.4422,1469.7,775.8422" style="stroke:#181818;stroke-width:0.9;"/><line style="stroke:#181818;stroke-width:0.9;" x1="846" x2="1471.5" y1="775.8422" y2="775.8422"/><text fill="#000000" font-family="sans-serif" font-size="11.7" font-weight="bold" lengthAdjust="spacing" textLength="12.6" x="852.3" y="771.4714">24</text><text fill="#000000" font-family="sans-serif" font-size="11.7" lengthAdjust="spacing" textLength="353.7" x="868.5" y="771.4714">scheduledVaccine = createScheduledVaccine(scheduleVaccineDto)</text><path d="M1403.1,787.5422 L1403.1,810.9422 L1728,810.9422 L1728,796.5422 L1719,787.5422 L1403.1,787.5422 " fill="#FEFFDD" style="stroke:#181818;stroke-width:0.45;"/><path d="M1719,787.5422 L1719,796.5422 L1728,796.5422 L1719,787.5422 " fill="#FEFFDD" style="stroke:#181818;stroke-width:0.45;"/><text fill="#000000" font-family="sans-serif" font-size="11.7" lengthAdjust="spacing" textLength="222.3" x="1450.35" y="804.1878">Several steps to extract data from the DTO</text><polygon fill="#181818" points="1775.7,832.275,1784.7,835.875,1775.7,839.475,1779.3,835.875" style="stroke:#181818;stroke-width:0.9;"/><line style="stroke:#181818;stroke-width:0.9;" x1="1485.9" x2="1781.1" y1="835.875" y2="835.875"/><text fill="#000000" font-family="sans-serif" font-size="11.7" font-weight="bold" lengthAdjust="spacing" textLength="12.6" x="1492.2" y="831.5042">25</text><text fill="#000000" font-family="sans-serif" font-size="11.7" lengthAdjust="spacing" textLength="182.7" x="1508.4" y="831.5042">dtoToDomain(scheduleVaccineDto)</text><polygon fill="#181818" points="1097.1,886.5914,1106.1,890.1914,1097.1,893.7914,1100.7,890.1914" style="stroke:#181818;stroke-width:0.9;"/><line style="stroke:#181818;stroke-width:0.9;" x1="846" x2="1102.5" y1="890.1914" y2="890.1914"/><text fill="#000000" font-family="sans-serif" font-size="11.7" font-weight="bold" lengthAdjust="spacing" textLength="12.6" x="852.3" y="885.8206">26</text><text fill="#000000" font-family="sans-serif" font-size="11.7" lengthAdjust="spacing" textLength="187.2" x="868.5" y="885.8206">addAppointment(scheduledVaccine)</text><polygon fill="#181818" points="1921.5,913.9078,1930.5,917.5078,1921.5,921.1078,1925.1,917.5078" style="stroke:#181818;stroke-width:0.9;"/><line style="stroke:#181818;stroke-width:0.9;" x1="1116.9" x2="1926.9" y1="917.5078" y2="917.5078"/><text fill="#000000" font-family="sans-serif" font-size="11.7" font-weight="bold" lengthAdjust="spacing" textLength="12.6" x="1123.2" y="913.137">27</text><text fill="#000000" font-family="sans-serif" font-size="11.7" lengthAdjust="spacing" textLength="187.2" x="1139.4" y="913.137">addAppointment(scheduledVaccine)</text><polygon fill="#181818" points="1126.8,941.2242,1117.8,944.8242,1126.8,948.4242,1123.2,944.8242" style="stroke:#181818;stroke-width:0.9;"/><line style="stroke:#181818;stroke-width:0.9;stroke-dasharray:2.0,2.0;" x1="1121.4" x2="1935.9" y1="944.8242" y2="944.8242"/><text fill="#000000" font-family="sans-serif" font-size="11.7" font-weight="bold" lengthAdjust="spacing" textLength="12.6" x="1132.2" y="940.4534">28</text><text fill="#000000" font-family="sans-serif" font-size="11.7" lengthAdjust="spacing" textLength="28.8" x="1148.4" y="940.4534">result</text><polygon fill="#181818" points="855.9,968.5406,846.9,972.1406,855.9,975.7406,852.3,972.1406" style="stroke:#181818;stroke-width:0.9;"/><line style="stroke:#181818;stroke-width:0.9;stroke-dasharray:2.0,2.0;" x1="850.5" x2="1111.5" y1="972.1406" y2="972.1406"/><text fill="#000000" font-family="sans-serif" font-size="11.7" font-weight="bold" lengthAdjust="spacing" textLength="12.6" x="861.3" y="967.7698">29</text><text fill="#000000" font-family="sans-serif" font-size="11.7" lengthAdjust="spacing" textLength="28.8" x="877.5" y="967.7698">result</text><polygon fill="#181818" points="478.8,995.857,469.8,999.457,478.8,1003.057,475.2,999.457" style="stroke:#181818;stroke-width:0.9;"/><line style="stroke:#181818;stroke-width:0.9;stroke-dasharray:2.0,2.0;" x1="473.4" x2="840.6" y1="999.457" y2="999.457"/><text fill="#000000" font-family="sans-serif" font-size="11.7" font-weight="bold" lengthAdjust="spacing" textLength="12.6" x="484.2" y="995.0862">30</text><text fill="#000000" font-family="sans-serif" font-size="11.7" lengthAdjust="spacing" textLength="28.8" x="500.4" y="995.0862">result</text><polygon fill="#181818" points="46.8,1023.1734,37.8,1026.7734,46.8,1030.3734,43.2,1026.7734" style="stroke:#181818;stroke-width:0.9;"/><line style="stroke:#181818;stroke-width:0.9;stroke-dasharray:2.0,2.0;" x1="41.4" x2="459" y1="1026.7734" y2="1026.7734"/><text fill="#000000" font-family="sans-serif" font-size="11.7" font-weight="bold" lengthAdjust="spacing" textLength="12.6" x="52.2" y="1022.4026">31</text><text fill="#000000" font-family="sans-serif" font-size="11.7" lengthAdjust="spacing" textLength="324" x="68.4" y="1022.4026">informs operation success and shows appointment information</text><polygon fill="#181818" points="46.8,1050.4898,37.8,1054.0898,46.8,1057.6898,43.2,1054.0898" style="stroke:#181818;stroke-width:0.9;"/><line style="stroke:#181818;stroke-width:0.9;" x1="41.4" x2="463.5" y1="1054.0898" y2="1054.0898"/><text fill="#000000" font-family="sans-serif" font-size="11.7" font-weight="bold" lengthAdjust="spacing" textLength="12.6" x="52.2" y="1049.719">32</text><text fill="#000000" font-family="sans-serif" font-size="11.7" lengthAdjust="spacing" textLength="385.2" x="68.4" y="1049.719">asks if the user wants to receive an SMS with the appointment information</text><polygon fill="#181818" points="449.1,1077.8063,458.1,1081.4063,449.1,1085.0063,452.7,1081.4063" style="stroke:#181818;stroke-width:0.9;"/><line style="stroke:#181818;stroke-width:0.9;" x1="36.9" x2="454.5" y1="1081.4063" y2="1081.4063"/><text fill="#000000" font-family="sans-serif" font-size="11.7" font-weight="bold" lengthAdjust="spacing" textLength="12.6" x="43.2" y="1077.0354">33</text><text fill="#000000" font-family="sans-serif" font-size="11.7" lengthAdjust="spacing" textLength="243.9" x="59.4" y="1077.0354">authorizes the application to send him an SMS</text><line style="stroke:#181818;stroke-width:0.9;" x1="473.4" x2="511.2" y1="1108.7227" y2="1108.7227"/><line style="stroke:#181818;stroke-width:0.9;" x1="511.2" x2="511.2" y1="1108.7227" y2="1120.4227"/><line style="stroke:#181818;stroke-width:0.9;" x1="474.3" x2="511.2" y1="1120.4227" y2="1120.4227"/><polygon fill="#181818" points="483.3,1116.8227,474.3,1120.4227,483.3,1124.0227,479.7,1120.4227" style="stroke:#181818;stroke-width:0.9;"/><text fill="#000000" font-family="sans-serif" font-size="11.7" font-weight="bold" lengthAdjust="spacing" textLength="12.6" x="479.7" y="1104.3519">34</text><text fill="#000000" font-family="sans-serif" font-size="11.7" lengthAdjust="spacing" textLength="339.3" x="495.9" y="1104.3519">printAppointmentToFile(scheduledVaccineDto, vaccinationCenter)</text><polygon fill="#181818" points="42.3,1171.1391,33.3,1174.7391,42.3,1178.3391,38.7,1174.7391" style="stroke:#181818;stroke-width:0.9;"/><line style="stroke:#181818;stroke-width:0.9;stroke-dasharray:2.0,2.0;" x1="36.9" x2="463.5" y1="1174.7391" y2="1174.7391"/><text fill="#000000" font-family="sans-serif" font-size="11.7" font-weight="bold" lengthAdjust="spacing" textLength="12.6" x="47.7" y="1170.3683">35</text><text fill="#000000" font-family="sans-serif" font-size="11.7" lengthAdjust="spacing" textLength="136.8" x="63.9" y="1170.3683">informs operation success</text><!--MD5=[103e6ee371d60d49025c9ba6860ad718]
@startuml

autonumber

actor SNSUser as U

participant ":ScheduleVaccineUI" as UI
participant ":ScheduleVaccineController" as CTRL
participant "vaccinationCenter\n:VaccinationCenter" as VC
participant "snsUser\n:SnsUser" as SU
participant "scheduledVaccineDtoMapper\n:ScheduledVaccineMapper" as M
participant "scheduledVaccineDto\n:ScheduledVaccineDto" as DTO
participant "scheduledVaccine\n:ScheduledVaccine" as SV
participant "appointmentsList\nList<ScheduledVaccine>" as L


activate U
U -> UI : asks to schedule a vaccine
activate UI
UI - -> U : shows a list with the available vaccination centers
note right
omitted interactions to get the information for the lists
end note
deactivate UI
U -> UI : selects one vaccination center


activate UI
 UI - -> U : shows a list with the Vaccine Types available
deactivate UI
U -> UI : selects one Vaccine Type


activate UI
 UI - -> U : shows a list with all the dates available
deactivate UI
U -> UI : selects one date


activate UI
 UI - -> U : shows a list with all the slots available
deactivate UI
U -> UI : selects one slot



activate UI
UI -> CTRL : validateAppointment(scheduleVaccineDto, vaccinationCenter)

activate CTRL
CTRL -> CTRL : dataIsAllFilled(scheduleVaccineDto)
activate CTRL
deactivate CTRL
CTRL -> SV : userIsEligibleForTheAppointment(scheduledVaccineDto)
activate SV
SV - - -> CTRL : result
deactivate SV



CTRL -> SU : validateAppointmentAccordingToAgeGroupAndTimeSinceLastDose(scheduledVaccineDto)

activate SU
SU - - -> CTRL : result
deactivate SU

CTRL -> VC : centerHasAvailability(scheduledVaccineDto)
activate VC
VC - - -> CTRL : result
deactivate VC


CTRL - - -> UI : result
deactivate CTRL

UI -> U : shows the data and requests confirmation
deactivate UI

U -> UI : confirms the data
activate UI

UI -> CTRL : scheduledVaccine(scheduleVaccineDto, vaccinationCenter)
activate CTRL


CTRL -> VC : centerHasAvailability(scheduleVaccineDto)

activate VC
VC - - -> CTRL : result
deactivate VC
CTRL -> M : scheduledVaccine = createScheduledVaccine(scheduleVaccineDto)
activate M
note over M, DTO
Several steps to extract data from the DTO
end note
M -> SV  : dtoToDomain(scheduleVaccineDto)
activate SV
deactivate SV
deactivate M

CTRL -> VC : addAppointment(scheduledVaccine)
activate VC


VC -> L : addAppointment(scheduledVaccine)
activate L
L - -> VC : result

deactivate L

VC - -> CTRL : result

deactivate VC



CTRL - - -> UI : result
deactivate CTRL
UI - -> U : informs operation success and shows appointment information

UI -> U : asks if the user wants to receive an SMS with the appointment information
deactivate UI

U -> UI : authorizes the application to send him an SMS
activate UI
UI -> UI : printAppointmentToFile(scheduledVaccineDto, vaccinationCenter)
activate UI
deactivate UI
UI - - -> U : informs operation success
deactivate UI
deactivate U
@enduml

PlantUML version 1.2022.4(Sat Apr 09 14:29:17 BST 2022)
(GPL source distribution)
Java Runtime: OpenJDK Runtime Environment
JVM: OpenJDK 64-Bit Server VM
Default Encoding: Cp1252
Language: en
Country: US
--></g></svg>