<?xml version="1.0" encoding="UTF-8" standalone="no"?><svg xmlns="http://www.w3.org/2000/svg" xmlns:xlink="http://www.w3.org/1999/xlink" contentStyleType="text/css" height="1338px" preserveAspectRatio="none" style="width:1998px;height:1338px;background:#FFFFFF;" version="1.1" viewBox="0 0 1998 1338" width="1998px" zoomAndPan="magnify"><defs/><g><rect fill="#FFFFFF" height="1145.8203" style="stroke:#181818;stroke-width:1.0;" width="10" x="31" y="92.6094"/><rect fill="#FFFFFF" height="30.3516" style="stroke:#181818;stroke-width:1.0;" width="10" x="511" y="114.9609"/><rect fill="#FFFFFF" height="30.3516" style="stroke:#181818;stroke-width:1.0;" width="10" x="511" y="175.6641"/><rect fill="#FFFFFF" height="30.3516" style="stroke:#181818;stroke-width:1.0;" width="10" x="511" y="236.3672"/><rect fill="#FFFFFF" height="30.3516" style="stroke:#181818;stroke-width:1.0;" width="10" x="511" y="297.0703"/><rect fill="#FFFFFF" height="30.3516" style="stroke:#181818;stroke-width:1.0;" width="10" x="511" y="357.7734"/><rect fill="#FFFFFF" height="225.1094" style="stroke:#181818;stroke-width:1.0;" width="10" x="511" y="418.4766"/><rect fill="#FFFFFF" height="430.4375" style="stroke:#181818;stroke-width:1.0;" width="10" x="511" y="673.9375"/><rect fill="#FFFFFF" height="103.7031" style="stroke:#181818;stroke-width:1.0;" width="10" x="511" y="1134.7266"/><rect fill="#FFFFFF" height="28" style="stroke:#181818;stroke-width:1.0;" width="10" x="516" y="1173.0781"/><rect fill="#FFFFFF" height="164.4063" style="stroke:#181818;stroke-width:1.0;" width="10" x="930" y="448.8281"/><rect fill="#FFFFFF" height="28" style="stroke:#181818;stroke-width:1.0;" width="10" x="935" y="487.1797"/><rect fill="#FFFFFF" height="543.1406" style="stroke:#181818;stroke-width:1.0;" width="10" x="930" y="704.2891"/><rect fill="#FFFFFF" height="30.3516" style="stroke:#181818;stroke-width:1.0;" width="10" x="1220" y="552.5313"/><rect fill="#FFFFFF" height="30.3516" style="stroke:#181818;stroke-width:1.0;" width="10" x="1220" y="734.6406"/><rect fill="#FFFFFF" height="91.0547" style="stroke:#181818;stroke-width:1.0;" width="10" x="1220" y="922.2656"/><rect fill="#FFFFFF" height="66.7031" style="stroke:#181818;stroke-width:1.0;" width="10" x="1396.5" y="795.3438"/><rect fill="#FFFFFF" height="30.3516" style="stroke:#181818;stroke-width:1.0;" width="10" x="1757.5" y="952.6172"/><line style="stroke:#181818;stroke-width:0.5;stroke-dasharray:5.0,5.0;" x1="36" x2="36" y1="82.6094" y2="1256.4297"/><line style="stroke:#181818;stroke-width:0.5;stroke-dasharray:5.0,5.0;" x1="515.5" x2="515.5" y1="82.6094" y2="1256.4297"/><line style="stroke:#181818;stroke-width:0.5;stroke-dasharray:5.0,5.0;" x1="934.5" x2="934.5" y1="82.6094" y2="1256.4297"/><line style="stroke:#181818;stroke-width:0.5;stroke-dasharray:5.0,5.0;" x1="1225" x2="1225" y1="82.6094" y2="1256.4297"/><line style="stroke:#181818;stroke-width:0.5;stroke-dasharray:5.0,5.0;" x1="1401" x2="1401" y1="82.6094" y2="1256.4297"/><line style="stroke:#181818;stroke-width:0.5;stroke-dasharray:5.0,5.0;" x1="1589" x2="1589" y1="82.6094" y2="1256.4297"/><line style="stroke:#181818;stroke-width:0.5;stroke-dasharray:5.0,5.0;" x1="1762" x2="1762" y1="82.6094" y2="1256.4297"/><line style="stroke:#181818;stroke-width:0.5;stroke-dasharray:5.0,5.0;" x1="1924" x2="1924" y1="879.8047" y2="1256.4297"/><text fill="#000000" font-family="sans-serif" font-size="14" lengthAdjust="spacing" textLength="56" x="5" y="79.5332">SNSUser</text><ellipse cx="36" cy="13.5" fill="#E2E2F0" rx="8" ry="8" style="stroke:#181818;stroke-width:0.5;"/><path d="M36,21.5 L36,48.5 M23,29.5 L49,29.5 M36,48.5 L23,63.5 M36,48.5 L49,63.5 " fill="none" style="stroke:#181818;stroke-width:0.5;"/><text fill="#000000" font-family="sans-serif" font-size="14" lengthAdjust="spacing" textLength="56" x="5" y="1269.9629">SNSUser</text><ellipse cx="36" cy="1281.5391" fill="#E2E2F0" rx="8" ry="8" style="stroke:#181818;stroke-width:0.5;"/><path d="M36,1289.5391 L36,1316.5391 M23,1297.5391 L49,1297.5391 M36,1316.5391 L23,1331.5391 M36,1316.5391 L49,1331.5391 " fill="none" style="stroke:#181818;stroke-width:0.5;"/><rect fill="#E2E2F0" height="31.6094" rx="2.5" ry="2.5" style="stroke:#181818;stroke-width:0.5;" width="139" x="446.5" y="50"/><text fill="#000000" font-family="sans-serif" font-size="14" lengthAdjust="spacing" textLength="125" x="453.5" y="71.5332">:ScheduleVaccineUI</text><rect fill="#E2E2F0" height="31.6094" rx="2.5" ry="2.5" style="stroke:#181818;stroke-width:0.5;" width="139" x="446.5" y="1255.4297"/><text fill="#000000" font-family="sans-serif" font-size="14" lengthAdjust="spacing" textLength="125" x="453.5" y="1276.9629">:ScheduleVaccineUI</text><rect fill="#E2E2F0" height="31.6094" rx="2.5" ry="2.5" style="stroke:#181818;stroke-width:0.5;" width="189" x="840.5" y="50"/><text fill="#000000" font-family="sans-serif" font-size="14" lengthAdjust="spacing" textLength="175" x="847.5" y="71.5332">:ScheduleVaccineController</text><rect fill="#E2E2F0" height="31.6094" rx="2.5" ry="2.5" style="stroke:#181818;stroke-width:0.5;" width="189" x="840.5" y="1255.4297"/><text fill="#000000" font-family="sans-serif" font-size="14" lengthAdjust="spacing" textLength="175" x="847.5" y="1276.9629">:ScheduleVaccineController</text><rect fill="#E2E2F0" height="49.2188" rx="2.5" ry="2.5" style="stroke:#181818;stroke-width:0.5;" width="134" x="1158" y="32.3906"/><text fill="#000000" font-family="sans-serif" font-size="14" lengthAdjust="spacing" textLength="114" x="1168" y="53.9238">vaccinationCenter</text><text fill="#000000" font-family="sans-serif" font-size="14" lengthAdjust="spacing" textLength="120" x="1165" y="71.5332">:VaccinationCenter</text><rect fill="#E2E2F0" height="49.2188" rx="2.5" ry="2.5" style="stroke:#181818;stroke-width:0.5;" width="134" x="1158" y="1255.4297"/><text fill="#000000" font-family="sans-serif" font-size="14" lengthAdjust="spacing" textLength="114" x="1168" y="1276.9629">vaccinationCenter</text><text fill="#000000" font-family="sans-serif" font-size="14" lengthAdjust="spacing" textLength="120" x="1165" y="1294.5723">:VaccinationCenter</text><rect fill="#E2E2F0" height="49.2188" rx="2.5" ry="2.5" style="stroke:#181818;stroke-width:0.5;" width="199" x="1302" y="32.3906"/><text fill="#000000" font-family="sans-serif" font-size="14" lengthAdjust="spacing" textLength="185" x="1309" y="53.9238">scheduledVaccineDtoMapper</text><text fill="#000000" font-family="sans-serif" font-size="14" lengthAdjust="spacing" textLength="169" x="1317" y="71.5332">:ScheduledVaccineMapper</text><rect fill="#E2E2F0" height="49.2188" rx="2.5" ry="2.5" style="stroke:#181818;stroke-width:0.5;" width="199" x="1302" y="1255.4297"/><text fill="#000000" font-family="sans-serif" font-size="14" lengthAdjust="spacing" textLength="185" x="1309" y="1276.9629">scheduledVaccineDtoMapper</text><text fill="#000000" font-family="sans-serif" font-size="14" lengthAdjust="spacing" textLength="169" x="1317" y="1294.5723">:ScheduledVaccineMapper</text><rect fill="#E2E2F0" height="49.2188" rx="2.5" ry="2.5" style="stroke:#181818;stroke-width:0.5;" width="157" x="1511" y="32.3906"/><text fill="#000000" font-family="sans-serif" font-size="14" lengthAdjust="spacing" textLength="137" x="1521" y="53.9238">scheduledVaccineDto</text><text fill="#000000" font-family="sans-serif" font-size="14" lengthAdjust="spacing" textLength="143" x="1518" y="71.5332">:ScheduledVaccineDto</text><rect fill="#E2E2F0" height="49.2188" rx="2.5" ry="2.5" style="stroke:#181818;stroke-width:0.5;" width="157" x="1511" y="1255.4297"/><text fill="#000000" font-family="sans-serif" font-size="14" lengthAdjust="spacing" textLength="137" x="1521" y="1276.9629">scheduledVaccineDto</text><text fill="#000000" font-family="sans-serif" font-size="14" lengthAdjust="spacing" textLength="143" x="1518" y="1294.5723">:ScheduledVaccineDto</text><rect fill="#E2E2F0" height="49.2188" rx="2.5" ry="2.5" style="stroke:#181818;stroke-width:0.5;" width="169" x="1678" y="32.3906"/><text fill="#000000" font-family="sans-serif" font-size="14" lengthAdjust="spacing" textLength="107" x="1709" y="53.9238">appointmentsList</text><text fill="#000000" font-family="sans-serif" font-size="14" lengthAdjust="spacing" textLength="155" x="1685" y="71.5332">List&lt;ScheduledVaccine&gt;</text><rect fill="#E2E2F0" height="49.2188" rx="2.5" ry="2.5" style="stroke:#181818;stroke-width:0.5;" width="169" x="1678" y="1255.4297"/><text fill="#000000" font-family="sans-serif" font-size="14" lengthAdjust="spacing" textLength="107" x="1709" y="1276.9629">appointmentsList</text><text fill="#000000" font-family="sans-serif" font-size="14" lengthAdjust="spacing" textLength="155" x="1685" y="1294.5723">List&lt;ScheduledVaccine&gt;</text><rect fill="#E2E2F0" height="49.2188" rx="2.5" ry="2.5" style="stroke:#181818;stroke-width:0.5;" width="135" x="1857" y="1255.4297"/><text fill="#000000" font-family="sans-serif" font-size="14" lengthAdjust="spacing" textLength="115" x="1867" y="1276.9629">scheduledVaccine</text><text fill="#000000" font-family="sans-serif" font-size="14" lengthAdjust="spacing" textLength="121" x="1864" y="1294.5723">:ScheduledVaccine</text><rect fill="#FFFFFF" height="1145.8203" style="stroke:#181818;stroke-width:1.0;" width="10" x="31" y="92.6094"/><rect fill="#FFFFFF" height="30.3516" style="stroke:#181818;stroke-width:1.0;" width="10" x="511" y="114.9609"/><rect fill="#FFFFFF" height="30.3516" style="stroke:#181818;stroke-width:1.0;" width="10" x="511" y="175.6641"/><rect fill="#FFFFFF" height="30.3516" style="stroke:#181818;stroke-width:1.0;" width="10" x="511" y="236.3672"/><rect fill="#FFFFFF" height="30.3516" style="stroke:#181818;stroke-width:1.0;" width="10" x="511" y="297.0703"/><rect fill="#FFFFFF" height="30.3516" style="stroke:#181818;stroke-width:1.0;" width="10" x="511" y="357.7734"/><rect fill="#FFFFFF" height="225.1094" style="stroke:#181818;stroke-width:1.0;" width="10" x="511" y="418.4766"/><rect fill="#FFFFFF" height="430.4375" style="stroke:#181818;stroke-width:1.0;" width="10" x="511" y="673.9375"/><rect fill="#FFFFFF" height="103.7031" style="stroke:#181818;stroke-width:1.0;" width="10" x="511" y="1134.7266"/><rect fill="#FFFFFF" height="28" style="stroke:#181818;stroke-width:1.0;" width="10" x="516" y="1173.0781"/><rect fill="#FFFFFF" height="164.4063" style="stroke:#181818;stroke-width:1.0;" width="10" x="930" y="448.8281"/><rect fill="#FFFFFF" height="28" style="stroke:#181818;stroke-width:1.0;" width="10" x="935" y="487.1797"/><rect fill="#FFFFFF" height="543.1406" style="stroke:#181818;stroke-width:1.0;" width="10" x="930" y="704.2891"/><rect fill="#FFFFFF" height="30.3516" style="stroke:#181818;stroke-width:1.0;" width="10" x="1220" y="552.5313"/><rect fill="#FFFFFF" height="30.3516" style="stroke:#181818;stroke-width:1.0;" width="10" x="1220" y="734.6406"/><rect fill="#FFFFFF" height="91.0547" style="stroke:#181818;stroke-width:1.0;" width="10" x="1220" y="922.2656"/><rect fill="#FFFFFF" height="66.7031" style="stroke:#181818;stroke-width:1.0;" width="10" x="1396.5" y="795.3438"/><rect fill="#FFFFFF" height="30.3516" style="stroke:#181818;stroke-width:1.0;" width="10" x="1757.5" y="952.6172"/><polygon fill="#181818" points="499,110.9609,509,114.9609,499,118.9609,503,114.9609" style="stroke:#181818;stroke-width:1.0;"/><line style="stroke:#181818;stroke-width:1.0;" x1="41" x2="505" y1="114.9609" y2="114.9609"/><text fill="#000000" font-family="sans-serif" font-size="13" font-weight="bold" lengthAdjust="spacing" textLength="7" x="48" y="110.1045">1</text><text fill="#000000" font-family="sans-serif" font-size="13" lengthAdjust="spacing" textLength="157" x="59" y="110.1045">asks to schedule a vaccine</text><polygon fill="#181818" points="52,141.3125,42,145.3125,52,149.3125,48,145.3125" style="stroke:#181818;stroke-width:1.0;"/><line style="stroke:#181818;stroke-width:1.0;" x1="46" x2="515" y1="145.3125" y2="145.3125"/><text fill="#000000" font-family="sans-serif" font-size="13" font-weight="bold" lengthAdjust="spacing" textLength="7" x="58" y="140.4561">2</text><text fill="#000000" font-family="sans-serif" font-size="13" lengthAdjust="spacing" textLength="165" x="69" y="140.4561">requests data (SNS number)</text><polygon fill="#181818" points="499,171.6641,509,175.6641,499,179.6641,503,175.6641" style="stroke:#181818;stroke-width:1.0;"/><line style="stroke:#181818;stroke-width:1.0;" x1="41" x2="505" y1="175.6641" y2="175.6641"/><text fill="#000000" font-family="sans-serif" font-size="13" font-weight="bold" lengthAdjust="spacing" textLength="7" x="48" y="170.8076">3</text><text fill="#000000" font-family="sans-serif" font-size="13" lengthAdjust="spacing" textLength="139" x="59" y="170.8076">types SNS user number</text><polygon fill="#181818" points="52,202.0156,42,206.0156,52,210.0156,48,206.0156" style="stroke:#181818;stroke-width:1.0;"/><line style="stroke:#181818;stroke-width:1.0;stroke-dasharray:2.0,2.0;" x1="46" x2="515" y1="206.0156" y2="206.0156"/><text fill="#000000" font-family="sans-serif" font-size="13" font-weight="bold" lengthAdjust="spacing" textLength="7" x="58" y="201.1592">4</text><text fill="#000000" font-family="sans-serif" font-size="13" lengthAdjust="spacing" textLength="286" x="69" y="201.1592">shows a list with the available vaccination centers</text><polygon fill="#181818" points="499,232.3672,509,236.3672,499,240.3672,503,236.3672" style="stroke:#181818;stroke-width:1.0;"/><line style="stroke:#181818;stroke-width:1.0;" x1="41" x2="505" y1="236.3672" y2="236.3672"/><text fill="#000000" font-family="sans-serif" font-size="13" font-weight="bold" lengthAdjust="spacing" textLength="7" x="48" y="231.5107">5</text><text fill="#000000" font-family="sans-serif" font-size="13" lengthAdjust="spacing" textLength="175" x="59" y="231.5107">selects one vaccination center</text><polygon fill="#181818" points="52,262.7188,42,266.7188,52,270.7188,48,266.7188" style="stroke:#181818;stroke-width:1.0;"/><line style="stroke:#181818;stroke-width:1.0;stroke-dasharray:2.0,2.0;" x1="46" x2="515" y1="266.7188" y2="266.7188"/><text fill="#000000" font-family="sans-serif" font-size="13" font-weight="bold" lengthAdjust="spacing" textLength="7" x="58" y="261.8623">6</text><text fill="#000000" font-family="sans-serif" font-size="13" lengthAdjust="spacing" textLength="261" x="69" y="261.8623">shows a list with the Vaccine Types available</text><polygon fill="#181818" points="499,293.0703,509,297.0703,499,301.0703,503,297.0703" style="stroke:#181818;stroke-width:1.0;"/><line style="stroke:#181818;stroke-width:1.0;" x1="41" x2="505" y1="297.0703" y2="297.0703"/><text fill="#000000" font-family="sans-serif" font-size="13" font-weight="bold" lengthAdjust="spacing" textLength="7" x="48" y="292.2139">7</text><text fill="#000000" font-family="sans-serif" font-size="13" lengthAdjust="spacing" textLength="150" x="59" y="292.2139">selects one Vaccine Type</text><polygon fill="#181818" points="52,323.4219,42,327.4219,52,331.4219,48,327.4219" style="stroke:#181818;stroke-width:1.0;"/><line style="stroke:#181818;stroke-width:1.0;stroke-dasharray:2.0,2.0;" x1="46" x2="515" y1="327.4219" y2="327.4219"/><text fill="#000000" font-family="sans-serif" font-size="13" font-weight="bold" lengthAdjust="spacing" textLength="7" x="58" y="322.5654">8</text><text fill="#000000" font-family="sans-serif" font-size="13" lengthAdjust="spacing" textLength="224" x="69" y="322.5654">shows a list with all the dates available</text><polygon fill="#181818" points="499,353.7734,509,357.7734,499,361.7734,503,357.7734" style="stroke:#181818;stroke-width:1.0;"/><line style="stroke:#181818;stroke-width:1.0;" x1="41" x2="505" y1="357.7734" y2="357.7734"/><text fill="#000000" font-family="sans-serif" font-size="13" font-weight="bold" lengthAdjust="spacing" textLength="7" x="48" y="352.917">9</text><text fill="#000000" font-family="sans-serif" font-size="13" lengthAdjust="spacing" textLength="96" x="59" y="352.917">selects one date</text><polygon fill="#181818" points="52,384.125,42,388.125,52,392.125,48,388.125" style="stroke:#181818;stroke-width:1.0;"/><line style="stroke:#181818;stroke-width:1.0;stroke-dasharray:2.0,2.0;" x1="46" x2="515" y1="388.125" y2="388.125"/><text fill="#000000" font-family="sans-serif" font-size="13" font-weight="bold" lengthAdjust="spacing" textLength="14" x="58" y="383.2686">10</text><text fill="#000000" font-family="sans-serif" font-size="13" lengthAdjust="spacing" textLength="220" x="76" y="383.2686">shows a list with all the slots available</text><polygon fill="#181818" points="499,414.4766,509,418.4766,499,422.4766,503,418.4766" style="stroke:#181818;stroke-width:1.0;"/><line style="stroke:#181818;stroke-width:1.0;" x1="41" x2="505" y1="418.4766" y2="418.4766"/><text fill="#000000" font-family="sans-serif" font-size="13" font-weight="bold" lengthAdjust="spacing" textLength="14" x="48" y="413.6201">11</text><text fill="#000000" font-family="sans-serif" font-size="13" lengthAdjust="spacing" textLength="92" x="66" y="413.6201">selects one slot</text><polygon fill="#181818" points="918,444.8281,928,448.8281,918,452.8281,922,448.8281" style="stroke:#181818;stroke-width:1.0;"/><line style="stroke:#181818;stroke-width:1.0;" x1="521" x2="924" y1="448.8281" y2="448.8281"/><text fill="#000000" font-family="sans-serif" font-size="13" font-weight="bold" lengthAdjust="spacing" textLength="14" x="528" y="443.9717">12</text><text fill="#000000" font-family="sans-serif" font-size="13" lengthAdjust="spacing" textLength="353" x="546" y="443.9717">validateAppointment(scheduleVaccineDto, vaccinationCenter)</text><line style="stroke:#181818;stroke-width:1.0;" x1="945" x2="987" y1="479.1797" y2="479.1797"/><line style="stroke:#181818;stroke-width:1.0;" x1="987" x2="987" y1="479.1797" y2="492.1797"/><line style="stroke:#181818;stroke-width:1.0;" x1="946" x2="987" y1="492.1797" y2="492.1797"/><polygon fill="#181818" points="956,488.1797,946,492.1797,956,496.1797,952,492.1797" style="stroke:#181818;stroke-width:1.0;"/><text fill="#000000" font-family="sans-serif" font-size="13" font-weight="bold" lengthAdjust="spacing" textLength="14" x="952" y="474.3232">13</text><text fill="#000000" font-family="sans-serif" font-size="13" lengthAdjust="spacing" textLength="208" x="970" y="474.3232">dataIsAllFilled(scheduleVaccineDto)</text><polygon fill="#181818" points="1208,548.5313,1218,552.5313,1208,556.5313,1212,552.5313" style="stroke:#181818;stroke-width:1.0;"/><line style="stroke:#181818;stroke-width:1.0;" x1="940" x2="1214" y1="552.5313" y2="552.5313"/><text fill="#000000" font-family="sans-serif" font-size="13" font-weight="bold" lengthAdjust="spacing" textLength="14" x="947" y="547.6748">14</text><text fill="#000000" font-family="sans-serif" font-size="13" lengthAdjust="spacing" textLength="243" x="965" y="547.6748">validateAppointment(scheduleVaccineDto)</text><polygon fill="#181818" points="951,578.8828,941,582.8828,951,586.8828,947,582.8828" style="stroke:#181818;stroke-width:1.0;"/><line style="stroke:#181818;stroke-width:1.0;stroke-dasharray:2.0,2.0;" x1="945" x2="1224" y1="582.8828" y2="582.8828"/><text fill="#000000" font-family="sans-serif" font-size="13" font-weight="bold" lengthAdjust="spacing" textLength="14" x="957" y="578.0264">15</text><text fill="#000000" font-family="sans-serif" font-size="13" lengthAdjust="spacing" textLength="32" x="975" y="578.0264">result</text><polygon fill="#181818" points="532,609.2344,522,613.2344,532,617.2344,528,613.2344" style="stroke:#181818;stroke-width:1.0;"/><line style="stroke:#181818;stroke-width:1.0;stroke-dasharray:2.0,2.0;" x1="526" x2="934" y1="613.2344" y2="613.2344"/><text fill="#000000" font-family="sans-serif" font-size="13" font-weight="bold" lengthAdjust="spacing" textLength="14" x="538" y="608.3779">16</text><text fill="#000000" font-family="sans-serif" font-size="13" lengthAdjust="spacing" textLength="32" x="556" y="608.3779">result</text><polygon fill="#181818" points="52,639.5859,42,643.5859,52,647.5859,48,643.5859" style="stroke:#181818;stroke-width:1.0;"/><line style="stroke:#181818;stroke-width:1.0;" x1="46" x2="515" y1="643.5859" y2="643.5859"/><text fill="#000000" font-family="sans-serif" font-size="13" font-weight="bold" lengthAdjust="spacing" textLength="14" x="58" y="638.7295">17</text><text fill="#000000" font-family="sans-serif" font-size="13" lengthAdjust="spacing" textLength="241" x="76" y="638.7295">shows the data and requests confirmation</text><polygon fill="#181818" points="499,669.9375,509,673.9375,499,677.9375,503,673.9375" style="stroke:#181818;stroke-width:1.0;"/><line style="stroke:#181818;stroke-width:1.0;" x1="41" x2="505" y1="673.9375" y2="673.9375"/><text fill="#000000" font-family="sans-serif" font-size="13" font-weight="bold" lengthAdjust="spacing" textLength="14" x="48" y="669.0811">18</text><text fill="#000000" font-family="sans-serif" font-size="13" lengthAdjust="spacing" textLength="100" x="66" y="669.0811">confirms the data</text><polygon fill="#181818" points="918,700.2891,928,704.2891,918,708.2891,922,704.2891" style="stroke:#181818;stroke-width:1.0;"/><line style="stroke:#181818;stroke-width:1.0;" x1="521" x2="924" y1="704.2891" y2="704.2891"/><text fill="#000000" font-family="sans-serif" font-size="13" font-weight="bold" lengthAdjust="spacing" textLength="14" x="528" y="699.4326">19</text><text fill="#000000" font-family="sans-serif" font-size="13" lengthAdjust="spacing" textLength="343" x="546" y="699.4326">scheduledVaccine(scheduleVaccineDto, vaccinationCenter)</text><polygon fill="#181818" points="1208,730.6406,1218,734.6406,1208,738.6406,1212,734.6406" style="stroke:#181818;stroke-width:1.0;"/><line style="stroke:#181818;stroke-width:1.0;" x1="940" x2="1214" y1="734.6406" y2="734.6406"/><text fill="#000000" font-family="sans-serif" font-size="13" font-weight="bold" lengthAdjust="spacing" textLength="14" x="947" y="729.7842">20</text><text fill="#000000" font-family="sans-serif" font-size="13" lengthAdjust="spacing" textLength="243" x="965" y="729.7842">validateAppointment(scheduleVaccineDto)</text><polygon fill="#181818" points="951,760.9922,941,764.9922,951,768.9922,947,764.9922" style="stroke:#181818;stroke-width:1.0;"/><line style="stroke:#181818;stroke-width:1.0;stroke-dasharray:2.0,2.0;" x1="945" x2="1224" y1="764.9922" y2="764.9922"/><text fill="#000000" font-family="sans-serif" font-size="13" font-weight="bold" lengthAdjust="spacing" textLength="14" x="957" y="760.1357">21</text><text fill="#000000" font-family="sans-serif" font-size="13" lengthAdjust="spacing" textLength="32" x="975" y="760.1357">result</text><polygon fill="#181818" points="1384.5,791.3438,1394.5,795.3438,1384.5,799.3438,1388.5,795.3438" style="stroke:#181818;stroke-width:1.0;"/><line style="stroke:#181818;stroke-width:1.0;" x1="940" x2="1390.5" y1="795.3438" y2="795.3438"/><text fill="#000000" font-family="sans-serif" font-size="13" font-weight="bold" lengthAdjust="spacing" textLength="14" x="947" y="790.4873">22</text><text fill="#000000" font-family="sans-serif" font-size="13" lengthAdjust="spacing" textLength="393" x="965" y="790.4873">scheduledVaccine = createScheduledVaccine(scheduleVaccineDto)</text><path d="M1315,808.3438 L1315,834.3438 L1676,834.3438 L1676,818.3438 L1666,808.3438 L1315,808.3438 " fill="#FEFFDD" style="stroke:#181818;stroke-width:0.5;"/><path d="M1666,808.3438 L1666,818.3438 L1676,818.3438 L1666,808.3438 " fill="#FEFFDD" style="stroke:#181818;stroke-width:0.5;"/><text fill="#000000" font-family="sans-serif" font-size="13" lengthAdjust="spacing" textLength="247" x="1367.5" y="826.8389">Several steps to extract data from the DTO</text><polygon fill="#181818" points="1845,858.0469,1855,862.0469,1845,866.0469,1849,862.0469" style="stroke:#181818;stroke-width:1.0;"/><line style="stroke:#181818;stroke-width:1.0;" x1="1401.5" x2="1851" y1="862.0469" y2="862.0469"/><text fill="#000000" font-family="sans-serif" font-size="13" font-weight="bold" lengthAdjust="spacing" textLength="14" x="1408.5" y="857.1904">23</text><text fill="#000000" font-family="sans-serif" font-size="13" lengthAdjust="spacing" textLength="203" x="1426.5" y="857.1904">dtoToDomain(scheduleVaccineDto)</text><rect fill="#E2E2F0" height="49.2188" rx="2.5" ry="2.5" style="stroke:#181818;stroke-width:0.5;" width="135" x="1857" y="839.6953"/><text fill="#000000" font-family="sans-serif" font-size="14" lengthAdjust="spacing" textLength="115" x="1867" y="861.2285">scheduledVaccine</text><text fill="#000000" font-family="sans-serif" font-size="14" lengthAdjust="spacing" textLength="121" x="1864" y="878.8379">:ScheduledVaccine</text><polygon fill="#181818" points="1208,918.2656,1218,922.2656,1208,926.2656,1212,922.2656" style="stroke:#181818;stroke-width:1.0;"/><line style="stroke:#181818;stroke-width:1.0;" x1="940" x2="1214" y1="922.2656" y2="922.2656"/><text fill="#000000" font-family="sans-serif" font-size="13" font-weight="bold" lengthAdjust="spacing" textLength="14" x="947" y="917.4092">24</text><text fill="#000000" font-family="sans-serif" font-size="13" lengthAdjust="spacing" textLength="208" x="965" y="917.4092">addAppointment(scheduledVaccine)</text><polygon fill="#181818" points="1745.5,948.6172,1755.5,952.6172,1745.5,956.6172,1749.5,952.6172" style="stroke:#181818;stroke-width:1.0;"/><line style="stroke:#181818;stroke-width:1.0;" x1="1230" x2="1751.5" y1="952.6172" y2="952.6172"/><text fill="#000000" font-family="sans-serif" font-size="13" font-weight="bold" lengthAdjust="spacing" textLength="14" x="1237" y="947.7607">25</text><text fill="#000000" font-family="sans-serif" font-size="13" lengthAdjust="spacing" textLength="208" x="1255" y="947.7607">addAppointment(scheduledVaccine)</text><polygon fill="#181818" points="1241,978.9688,1231,982.9688,1241,986.9688,1237,982.9688" style="stroke:#181818;stroke-width:1.0;"/><line style="stroke:#181818;stroke-width:1.0;stroke-dasharray:2.0,2.0;" x1="1235" x2="1761.5" y1="982.9688" y2="982.9688"/><text fill="#000000" font-family="sans-serif" font-size="13" font-weight="bold" lengthAdjust="spacing" textLength="14" x="1247" y="978.1123">26</text><text fill="#000000" font-family="sans-serif" font-size="13" lengthAdjust="spacing" textLength="32" x="1265" y="978.1123">result</text><polygon fill="#181818" points="951,1009.3203,941,1013.3203,951,1017.3203,947,1013.3203" style="stroke:#181818;stroke-width:1.0;"/><line style="stroke:#181818;stroke-width:1.0;stroke-dasharray:2.0,2.0;" x1="945" x2="1224" y1="1013.3203" y2="1013.3203"/><text fill="#000000" font-family="sans-serif" font-size="13" font-weight="bold" lengthAdjust="spacing" textLength="14" x="957" y="1008.4639">27</text><text fill="#000000" font-family="sans-serif" font-size="13" lengthAdjust="spacing" textLength="32" x="975" y="1008.4639">result</text><polygon fill="#181818" points="532,1039.6719,522,1043.6719,532,1047.6719,528,1043.6719" style="stroke:#181818;stroke-width:1.0;"/><line style="stroke:#181818;stroke-width:1.0;stroke-dasharray:2.0,2.0;" x1="526" x2="929" y1="1043.6719" y2="1043.6719"/><text fill="#000000" font-family="sans-serif" font-size="13" font-weight="bold" lengthAdjust="spacing" textLength="14" x="538" y="1038.8154">28</text><text fill="#000000" font-family="sans-serif" font-size="13" lengthAdjust="spacing" textLength="32" x="556" y="1038.8154">result</text><polygon fill="#181818" points="52,1070.0234,42,1074.0234,52,1078.0234,48,1074.0234" style="stroke:#181818;stroke-width:1.0;"/><line style="stroke:#181818;stroke-width:1.0;stroke-dasharray:2.0,2.0;" x1="46" x2="510" y1="1074.0234" y2="1074.0234"/><text fill="#000000" font-family="sans-serif" font-size="13" font-weight="bold" lengthAdjust="spacing" textLength="14" x="58" y="1069.167">29</text><text fill="#000000" font-family="sans-serif" font-size="13" lengthAdjust="spacing" textLength="360" x="76" y="1069.167">informs operation success and shows appointment information</text><polygon fill="#181818" points="52,1100.375,42,1104.375,52,1108.375,48,1104.375" style="stroke:#181818;stroke-width:1.0;"/><line style="stroke:#181818;stroke-width:1.0;" x1="46" x2="515" y1="1104.375" y2="1104.375"/><text fill="#000000" font-family="sans-serif" font-size="13" font-weight="bold" lengthAdjust="spacing" textLength="14" x="58" y="1099.5186">30</text><text fill="#000000" font-family="sans-serif" font-size="13" lengthAdjust="spacing" textLength="428" x="76" y="1099.5186">asks if the user wants to receive an SMS with the appointment information</text><polygon fill="#181818" points="499,1130.7266,509,1134.7266,499,1138.7266,503,1134.7266" style="stroke:#181818;stroke-width:1.0;"/><line style="stroke:#181818;stroke-width:1.0;" x1="41" x2="505" y1="1134.7266" y2="1134.7266"/><text fill="#000000" font-family="sans-serif" font-size="13" font-weight="bold" lengthAdjust="spacing" textLength="14" x="48" y="1129.8701">31</text><text fill="#000000" font-family="sans-serif" font-size="13" lengthAdjust="spacing" textLength="271" x="66" y="1129.8701">authorizes the application to send him an SMS</text><line style="stroke:#181818;stroke-width:1.0;" x1="526" x2="568" y1="1165.0781" y2="1165.0781"/><line style="stroke:#181818;stroke-width:1.0;" x1="568" x2="568" y1="1165.0781" y2="1178.0781"/><line style="stroke:#181818;stroke-width:1.0;" x1="527" x2="568" y1="1178.0781" y2="1178.0781"/><polygon fill="#181818" points="537,1174.0781,527,1178.0781,537,1182.0781,533,1178.0781" style="stroke:#181818;stroke-width:1.0;"/><text fill="#000000" font-family="sans-serif" font-size="13" font-weight="bold" lengthAdjust="spacing" textLength="14" x="533" y="1160.2217">32</text><text fill="#000000" font-family="sans-serif" font-size="13" lengthAdjust="spacing" textLength="377" x="551" y="1160.2217">printAppointmentToFile(scheduledVaccineDto, vaccinationCenter)</text><polygon fill="#181818" points="47,1234.4297,37,1238.4297,47,1242.4297,43,1238.4297" style="stroke:#181818;stroke-width:1.0;"/><line style="stroke:#181818;stroke-width:1.0;stroke-dasharray:2.0,2.0;" x1="41" x2="515" y1="1238.4297" y2="1238.4297"/><text fill="#000000" font-family="sans-serif" font-size="13" font-weight="bold" lengthAdjust="spacing" textLength="14" x="53" y="1233.5732">33</text><text fill="#000000" font-family="sans-serif" font-size="13" lengthAdjust="spacing" textLength="152" x="71" y="1233.5732">informs operation success</text><!--MD5=[4c0a5e5a8e24d8ec486a597f03f8dc8a]
@startuml

autonumber

actor SNSUser as U

participant ":ScheduleVaccineUI" as UI
participant ":ScheduleVaccineController" as CTRL
participant "vaccinationCenter\n:VaccinationCenter" as VC
participant "scheduledVaccineDtoMapper\n:ScheduledVaccineMapper" as M
participant "scheduledVaccineDto\n:ScheduledVaccineDto" as DTO
participant "appointmentsList\nList<ScheduledVaccine>" as L

'participant "Utils" as U

activate U
U -> UI : asks to schedule a vaccine


activate UI
UI-> U : requests data (SNS number)
deactivate UI
U-> UI : types SNS user number


activate UI
UI - -> U : shows a list with the available vaccination centers
deactivate UI
U -> UI : selects one vaccination center


activate UI
 UI - -> U : shows a list with the Vaccine Types available
deactivate UI
U -> UI : selects one Vaccine Type


activate UI
 UI - -> U : shows a list with all the dates available
deactivate UI
U -> UI : selects one date


activate UI
 UI - -> U : shows a list with all the slots available
deactivate UI
U -> UI : selects one slot



activate UI
UI -> CTRL : validateAppointment(scheduleVaccineDto, vaccinationCenter)

activate CTRL
CTRL -> CTRL : dataIsAllFilled(scheduleVaccineDto)
activate CTRL
deactivate CTRL
CTRL -> VC : validateAppointment(scheduleVaccineDto)

activate VC
VC - - -> CTRL : result
deactivate VC


CTRL - - -> UI : result
deactivate CTRL

UI -> U : shows the data and requests confirmation
deactivate UI

U -> UI : confirms the data
activate UI

UI -> CTRL : scheduledVaccine(scheduleVaccineDto, vaccinationCenter)
activate CTRL


CTRL -> VC : validateAppointment(scheduleVaccineDto)

activate VC
VC - - -> CTRL : result
deactivate VC
CTRL -> M : scheduledVaccine = createScheduledVaccine(scheduleVaccineDto)
activate M
note over M, DTO
Several steps to extract data from the DTO
end note
M -> "scheduledVaccine\n:ScheduledVaccine" ** : dtoToDomain(scheduleVaccineDto)
deactivate M

CTRL -> VC : addAppointment(scheduledVaccine)
activate VC


VC -> L : addAppointment(scheduledVaccine)
activate L
L - -> VC : result

deactivate L

VC - -> CTRL : result

deactivate VC



CTRL - - -> UI : result
UI - -> U : informs operation success and shows appointment information

UI -> U : asks if the user wants to receive an SMS with the appointment information
deactivate UI

U -> UI : authorizes the application to send him an SMS
activate UI
UI -> UI : printAppointmentToFile(scheduledVaccineDto, vaccinationCenter)
activate UI
deactivate UI
UI - - -> U : informs operation success   
deactivate UI
deactivate U
@enduml

@startuml

autonumber

actor SNSUser as U

participant ":ScheduleVaccineUI" as UI
participant ":ScheduleVaccineController" as CTRL
participant "vaccinationCenter\n:VaccinationCenter" as VC
participant "scheduledVaccineDtoMapper\n:ScheduledVaccineMapper" as M
participant "scheduledVaccineDto\n:ScheduledVaccineDto" as DTO
participant "appointmentsList\nList<ScheduledVaccine>" as L


activate U
U -> UI : asks to schedule a vaccine


activate UI
UI-> U : requests data (SNS number)
deactivate UI
U-> UI : types SNS user number


activate UI
UI - -> U : shows a list with the available vaccination centers
deactivate UI
U -> UI : selects one vaccination center


activate UI
 UI - -> U : shows a list with the Vaccine Types available
deactivate UI
U -> UI : selects one Vaccine Type


activate UI
 UI - -> U : shows a list with all the dates available
deactivate UI
U -> UI : selects one date


activate UI
 UI - -> U : shows a list with all the slots available
deactivate UI
U -> UI : selects one slot



activate UI
UI -> CTRL : validateAppointment(scheduleVaccineDto, vaccinationCenter)

activate CTRL
CTRL -> CTRL : dataIsAllFilled(scheduleVaccineDto)
activate CTRL
deactivate CTRL
CTRL -> VC : validateAppointment(scheduleVaccineDto)

activate VC
VC - - -> CTRL : result
deactivate VC


CTRL - - -> UI : result
deactivate CTRL

UI -> U : shows the data and requests confirmation
deactivate UI

U -> UI : confirms the data
activate UI

UI -> CTRL : scheduledVaccine(scheduleVaccineDto, vaccinationCenter)
activate CTRL


CTRL -> VC : validateAppointment(scheduleVaccineDto)

activate VC
VC - - -> CTRL : result
deactivate VC
CTRL -> M : scheduledVaccine = createScheduledVaccine(scheduleVaccineDto)
activate M
note over M, DTO
Several steps to extract data from the DTO
end note
M -> "scheduledVaccine\n:ScheduledVaccine" ** : dtoToDomain(scheduleVaccineDto)
deactivate M

CTRL -> VC : addAppointment(scheduledVaccine)
activate VC


VC -> L : addAppointment(scheduledVaccine)
activate L
L - -> VC : result

deactivate L

VC - -> CTRL : result

deactivate VC



CTRL - - -> UI : result
UI - -> U : informs operation success and shows appointment information

UI -> U : asks if the user wants to receive an SMS with the appointment information
deactivate UI

U -> UI : authorizes the application to send him an SMS
activate UI
UI -> UI : printAppointmentToFile(scheduledVaccineDto, vaccinationCenter)
activate UI
deactivate UI
UI - - -> U : informs operation success   
deactivate UI
deactivate U
@enduml

PlantUML version 1.2022.4(Sat Apr 09 14:29:17 BST 2022)
(GPL source distribution)
Java Runtime: OpenJDK Runtime Environment
JVM: OpenJDK 64-Bit Server VM
Default Encoding: Cp1252
Language: en
Country: US
--></g></svg>