<?xml version="1.0" encoding="UTF-8" standalone="no"?><svg xmlns="http://www.w3.org/2000/svg" xmlns:xlink="http://www.w3.org/1999/xlink" contentScriptType="application/ecmascript" contentStyleType="text/css" height="478px" preserveAspectRatio="none" style="width:393px;height:478px;background:#FFFFFF;" version="1.1" viewBox="0 0 393 478" width="393px" zoomAndPan="magnify"><defs><filter height="300%" id="f2rithxnubnzq" width="300%" x="-1" y="-1"><feGaussianBlur result="blurOut" stdDeviation="2.0"/><feColorMatrix in="blurOut" result="blurOut2" type="matrix" values="0 0 0 0 0 0 0 0 0 0 0 0 0 0 0 0 0 0 .4 0"/><feOffset dx="4.0" dy="4.0" in="blurOut2" result="blurOut3"/><feBlend in="SourceGraphic" in2="blurOut3" mode="normal"/></filter></defs><g><!--MD5=[da547346deef918ea16944ba046651ef]
class Administrator--><rect codeLine="2" fill="#FEFECE" filter="url(#f2rithxnubnzq)" height="48" id="Administrator" style="stroke:#A80036;stroke-width:1.5;" width="105" x="174.5" y="7"/><ellipse cx="189.5" cy="23" fill="#ADD1B2" rx="11" ry="11" style="stroke:#A80036;stroke-width:1.0;"/><path d="M191.5,19.5 Q191.7031,19 191.9375,18.75 Q192.1719,18.5 192.4375,18.5 Q192.9063,18.5 193.2031,18.7813 Q193.5,19.0625 193.5,19.7188 L193.5,21.2813 Q193.5,21.9375 193.2188,22.2188 Q192.9375,22.5 192.5,22.5 Q192.1094,22.5 191.8594,22.3281 Q191.6094,22.1563 191.5,21.7031 Q191.4531,21.3906 191.2813,21.2188 Q190.9688,20.8906 190.4063,20.7031 Q189.8438,20.5 189.2813,20.5 Q188.5781,20.5 187.9844,20.7813 Q187.4063,21.0625 186.9531,21.6875 Q186.5,22.3125 186.5,23.1719 L186.5,24.0938 Q186.5,25.125 187.3438,25.8125 Q188.1875,26.5 189.6875,26.5 Q190.5781,26.5 191.2031,26.2969 Q191.5625,26.1875 191.9688,25.8281 Q192.2344,25.625 192.375,25.5625 Q192.5156,25.5 192.6875,25.5 Q193.0156,25.5 193.25,25.7656 Q193.5,26.0156 193.5,26.375 Q193.5,26.7188 193.1563,27.125 Q192.6563,27.7188 191.8594,28.0469 Q190.8125,28.5 189.5313,28.5 Q188.0313,28.5 186.8281,27.9063 Q185.8594,27.4375 185.1719,26.4219 Q184.5,25.4063 184.5,24.2031 L184.5,23.1094 Q184.5,21.8594 185.0938,20.7656 Q185.7031,19.6719 186.75,19.0938 Q187.8125,18.5 189,18.5 Q189.7188,18.5 190.3438,18.75 Q190.9688,19 191.5,19.5 Z " fill="#000000"/><text fill="#000000" font-family="sans-serif" font-size="12" lengthAdjust="spacing" textLength="73" x="203.5" y="27.9102">Administrator</text><line style="stroke:#A80036;stroke-width:1.5;" x1="175.5" x2="278.5" y1="39" y2="39"/><line style="stroke:#A80036;stroke-width:1.5;" x1="175.5" x2="278.5" y1="47" y2="47"/><!--MD5=[7421f545a0d8420c5bec41e74b387d9c]
class Employee--><rect codeLine="4" fill="#FEFECE" filter="url(#f2rithxnubnzq)" height="48" id="Employee" style="stroke:#A80036;stroke-width:1.5;" width="87" x="183.5" y="133"/><ellipse cx="198.5" cy="149" fill="#ADD1B2" rx="11" ry="11" style="stroke:#A80036;stroke-width:1.0;"/><path d="M200.5,145.5 Q200.7031,145 200.9375,144.75 Q201.1719,144.5 201.4375,144.5 Q201.9063,144.5 202.2031,144.7813 Q202.5,145.0625 202.5,145.7188 L202.5,147.2813 Q202.5,147.9375 202.2188,148.2188 Q201.9375,148.5 201.5,148.5 Q201.1094,148.5 200.8594,148.3281 Q200.6094,148.1563 200.5,147.7031 Q200.4531,147.3906 200.2813,147.2188 Q199.9688,146.8906 199.4063,146.7031 Q198.8438,146.5 198.2813,146.5 Q197.5781,146.5 196.9844,146.7813 Q196.4063,147.0625 195.9531,147.6875 Q195.5,148.3125 195.5,149.1719 L195.5,150.0938 Q195.5,151.125 196.3438,151.8125 Q197.1875,152.5 198.6875,152.5 Q199.5781,152.5 200.2031,152.2969 Q200.5625,152.1875 200.9688,151.8281 Q201.2344,151.625 201.375,151.5625 Q201.5156,151.5 201.6875,151.5 Q202.0156,151.5 202.25,151.7656 Q202.5,152.0156 202.5,152.375 Q202.5,152.7188 202.1563,153.125 Q201.6563,153.7188 200.8594,154.0469 Q199.8125,154.5 198.5313,154.5 Q197.0313,154.5 195.8281,153.9063 Q194.8594,153.4375 194.1719,152.4219 Q193.5,151.4063 193.5,150.2031 L193.5,149.1094 Q193.5,147.8594 194.0938,146.7656 Q194.7031,145.6719 195.75,145.0938 Q196.8125,144.5 198,144.5 Q198.7188,144.5 199.3438,144.75 Q199.9688,145 200.5,145.5 Z " fill="#000000"/><text fill="#000000" font-family="sans-serif" font-size="12" lengthAdjust="spacing" textLength="55" x="212.5" y="153.9102">Employee</text><line style="stroke:#A80036;stroke-width:1.5;" x1="184.5" x2="269.5" y1="165" y2="165"/><line style="stroke:#A80036;stroke-width:1.5;" x1="184.5" x2="269.5" y1="173" y2="173"/><!--MD5=[a059576e163b46f56762f12600c49258]
class Nurse--><rect codeLine="6" fill="#FEFECE" filter="url(#f2rithxnubnzq)" height="48" id="Nurse" style="stroke:#A80036;stroke-width:1.5;" width="66" x="313" y="242"/><ellipse cx="328" cy="258" fill="#ADD1B2" rx="11" ry="11" style="stroke:#A80036;stroke-width:1.0;"/><path d="M330,254.5 Q330.2031,254 330.4375,253.75 Q330.6719,253.5 330.9375,253.5 Q331.4063,253.5 331.7031,253.7813 Q332,254.0625 332,254.7188 L332,256.2813 Q332,256.9375 331.7188,257.2188 Q331.4375,257.5 331,257.5 Q330.6094,257.5 330.3594,257.3281 Q330.1094,257.1563 330,256.7031 Q329.9531,256.3906 329.7813,256.2188 Q329.4688,255.8906 328.9063,255.7031 Q328.3438,255.5 327.7813,255.5 Q327.0781,255.5 326.4844,255.7813 Q325.9063,256.0625 325.4531,256.6875 Q325,257.3125 325,258.1719 L325,259.0938 Q325,260.125 325.8438,260.8125 Q326.6875,261.5 328.1875,261.5 Q329.0781,261.5 329.7031,261.2969 Q330.0625,261.1875 330.4688,260.8281 Q330.7344,260.625 330.875,260.5625 Q331.0156,260.5 331.1875,260.5 Q331.5156,260.5 331.75,260.7656 Q332,261.0156 332,261.375 Q332,261.7188 331.6563,262.125 Q331.1563,262.7188 330.3594,263.0469 Q329.3125,263.5 328.0313,263.5 Q326.5313,263.5 325.3281,262.9063 Q324.3594,262.4375 323.6719,261.4219 Q323,260.4063 323,259.2031 L323,258.1094 Q323,256.8594 323.5938,255.7656 Q324.2031,254.6719 325.25,254.0938 Q326.3125,253.5 327.5,253.5 Q328.2188,253.5 328.8438,253.75 Q329.4688,254 330,254.5 Z " fill="#000000"/><text fill="#000000" font-family="sans-serif" font-size="12" lengthAdjust="spacing" textLength="34" x="342" y="262.9102">Nurse</text><line style="stroke:#A80036;stroke-width:1.5;" x1="314" x2="378" y1="274" y2="274"/><line style="stroke:#A80036;stroke-width:1.5;" x1="314" x2="378" y1="282" y2="282"/><!--MD5=[2d935fd2dd068a13da1ae531f9857c4f]
class CenterCoordinator--><rect codeLine="8" fill="#FEFECE" filter="url(#f2rithxnubnzq)" height="48" id="CenterCoordinator" style="stroke:#A80036;stroke-width:1.5;" width="134" x="7" y="242"/><ellipse cx="22" cy="258" fill="#ADD1B2" rx="11" ry="11" style="stroke:#A80036;stroke-width:1.0;"/><path d="M24,254.5 Q24.2031,254 24.4375,253.75 Q24.6719,253.5 24.9375,253.5 Q25.4063,253.5 25.7031,253.7813 Q26,254.0625 26,254.7188 L26,256.2813 Q26,256.9375 25.7188,257.2188 Q25.4375,257.5 25,257.5 Q24.6094,257.5 24.3594,257.3281 Q24.1094,257.1563 24,256.7031 Q23.9531,256.3906 23.7813,256.2188 Q23.4688,255.8906 22.9063,255.7031 Q22.3438,255.5 21.7813,255.5 Q21.0781,255.5 20.4844,255.7813 Q19.9063,256.0625 19.4531,256.6875 Q19,257.3125 19,258.1719 L19,259.0938 Q19,260.125 19.8438,260.8125 Q20.6875,261.5 22.1875,261.5 Q23.0781,261.5 23.7031,261.2969 Q24.0625,261.1875 24.4688,260.8281 Q24.7344,260.625 24.875,260.5625 Q25.0156,260.5 25.1875,260.5 Q25.5156,260.5 25.75,260.7656 Q26,261.0156 26,261.375 Q26,261.7188 25.6563,262.125 Q25.1563,262.7188 24.3594,263.0469 Q23.3125,263.5 22.0313,263.5 Q20.5313,263.5 19.3281,262.9063 Q18.3594,262.4375 17.6719,261.4219 Q17,260.4063 17,259.2031 L17,258.1094 Q17,256.8594 17.5938,255.7656 Q18.2031,254.6719 19.25,254.0938 Q20.3125,253.5 21.5,253.5 Q22.2188,253.5 22.8438,253.75 Q23.4688,254 24,254.5 Z " fill="#000000"/><text fill="#000000" font-family="sans-serif" font-size="12" lengthAdjust="spacing" textLength="102" x="36" y="262.9102">CenterCoordinator</text><line style="stroke:#A80036;stroke-width:1.5;" x1="8" x2="140" y1="274" y2="274"/><line style="stroke:#A80036;stroke-width:1.5;" x1="8" x2="140" y1="282" y2="282"/><!--MD5=[9b956c59b16436292d60adff39fe4d1c]
class ApplicationUser--><rect codeLine="10" fill="#FEFECE" filter="url(#f2rithxnubnzq)" height="113.4063" id="ApplicationUser" style="stroke:#A80036;stroke-width:1.5;" width="119" x="167.5" y="351"/><ellipse cx="182.5" cy="367" fill="#ADD1B2" rx="11" ry="11" style="stroke:#A80036;stroke-width:1.0;"/><path d="M184.5,363.5 Q184.7031,363 184.9375,362.75 Q185.1719,362.5 185.4375,362.5 Q185.9063,362.5 186.2031,362.7813 Q186.5,363.0625 186.5,363.7188 L186.5,365.2813 Q186.5,365.9375 186.2188,366.2188 Q185.9375,366.5 185.5,366.5 Q185.1094,366.5 184.8594,366.3281 Q184.6094,366.1563 184.5,365.7031 Q184.4531,365.3906 184.2813,365.2188 Q183.9688,364.8906 183.4063,364.7031 Q182.8438,364.5 182.2813,364.5 Q181.5781,364.5 180.9844,364.7813 Q180.4063,365.0625 179.9531,365.6875 Q179.5,366.3125 179.5,367.1719 L179.5,368.0938 Q179.5,369.125 180.3438,369.8125 Q181.1875,370.5 182.6875,370.5 Q183.5781,370.5 184.2031,370.2969 Q184.5625,370.1875 184.9688,369.8281 Q185.2344,369.625 185.375,369.5625 Q185.5156,369.5 185.6875,369.5 Q186.0156,369.5 186.25,369.7656 Q186.5,370.0156 186.5,370.375 Q186.5,370.7188 186.1563,371.125 Q185.6563,371.7188 184.8594,372.0469 Q183.8125,372.5 182.5313,372.5 Q181.0313,372.5 179.8281,371.9063 Q178.8594,371.4375 178.1719,370.4219 Q177.5,369.4063 177.5,368.2031 L177.5,367.1094 Q177.5,365.8594 178.0938,364.7656 Q178.7031,363.6719 179.75,363.0938 Q180.8125,362.5 182,362.5 Q182.7188,362.5 183.3438,362.75 Q183.9688,363 184.5,363.5 Z " fill="#000000"/><text fill="#000000" font-family="sans-serif" font-size="12" lengthAdjust="spacing" textLength="87" x="196.5" y="371.9102">ApplicationUser</text><line style="stroke:#A80036;stroke-width:1.5;" x1="168.5" x2="285.5" y1="383" y2="383"/><text fill="#000000" font-family="sans-serif" font-size="13" font-weight="bold" lengthAdjust="spacing" textLength="64" x="173.5" y="400.4951">-password</text><text fill="#000000" font-family="sans-serif" font-size="13" font-weight="bold" lengthAdjust="spacing" textLength="40" x="173.5" y="416.8467">-name</text><text fill="#000000" font-family="sans-serif" font-size="13" font-weight="bold" lengthAdjust="spacing" textLength="40" x="173.5" y="433.1982">-email</text><text fill="#000000" font-family="sans-serif" font-size="13" font-weight="bold" lengthAdjust="spacing" textLength="29" x="173.5" y="449.5498">-role</text><line style="stroke:#A80036;stroke-width:1.5;" x1="168.5" x2="285.5" y1="456.4063" y2="456.4063"/><!--MD5=[03960189e81aa2c066c762ffabbee709]
class Receptionist--><rect fill="#FEFECE" filter="url(#f2rithxnubnzq)" height="48" id="Receptionist" style="stroke:#A80036;stroke-width:1.5;" width="101" x="176.5" y="242"/><ellipse cx="191.5" cy="258" fill="#ADD1B2" rx="11" ry="11" style="stroke:#A80036;stroke-width:1.0;"/><path d="M193.5,254.5 Q193.7031,254 193.9375,253.75 Q194.1719,253.5 194.4375,253.5 Q194.9063,253.5 195.2031,253.7813 Q195.5,254.0625 195.5,254.7188 L195.5,256.2813 Q195.5,256.9375 195.2188,257.2188 Q194.9375,257.5 194.5,257.5 Q194.1094,257.5 193.8594,257.3281 Q193.6094,257.1563 193.5,256.7031 Q193.4531,256.3906 193.2813,256.2188 Q192.9688,255.8906 192.4063,255.7031 Q191.8438,255.5 191.2813,255.5 Q190.5781,255.5 189.9844,255.7813 Q189.4063,256.0625 188.9531,256.6875 Q188.5,257.3125 188.5,258.1719 L188.5,259.0938 Q188.5,260.125 189.3438,260.8125 Q190.1875,261.5 191.6875,261.5 Q192.5781,261.5 193.2031,261.2969 Q193.5625,261.1875 193.9688,260.8281 Q194.2344,260.625 194.375,260.5625 Q194.5156,260.5 194.6875,260.5 Q195.0156,260.5 195.25,260.7656 Q195.5,261.0156 195.5,261.375 Q195.5,261.7188 195.1563,262.125 Q194.6563,262.7188 193.8594,263.0469 Q192.8125,263.5 191.5313,263.5 Q190.0313,263.5 188.8281,262.9063 Q187.8594,262.4375 187.1719,261.4219 Q186.5,260.4063 186.5,259.2031 L186.5,258.1094 Q186.5,256.8594 187.0938,255.7656 Q187.7031,254.6719 188.75,254.0938 Q189.8125,253.5 191,253.5 Q191.7188,253.5 192.3438,253.75 Q192.9688,254 193.5,254.5 Z " fill="#000000"/><text fill="#000000" font-family="sans-serif" font-size="12" lengthAdjust="spacing" textLength="69" x="205.5" y="262.9102">Receptionist</text><line style="stroke:#A80036;stroke-width:1.5;" x1="177.5" x2="276.5" y1="274" y2="274"/><line style="stroke:#A80036;stroke-width:1.5;" x1="177.5" x2="276.5" y1="282" y2="282"/><!--MD5=[8f7dd94d56b58fc07b233ccd3dd98f8c]
link Administrator to Employee--><path codeLine="17" d="M227,55.03 C227,77.17 227,110.44 227,132.67 " fill="none" id="Administrator-Employee" style="stroke:#A80036;stroke-width:1.0;"/><polygon fill="#000000" points="232,99.1758,234.9389,90.1307,229.0611,90.1307,232,99.1758" style="stroke:#000000;stroke-width:1.0;"/><text fill="#000000" font-family="sans-serif" font-size="13" lengthAdjust="spacing" textLength="141" x="241" y="99.4951">configures and manages</text><text fill="#000000" font-family="sans-serif" font-size="13" lengthAdjust="spacing" textLength="7" x="219.1469" y="76.3753">1</text><text fill="#000000" font-family="sans-serif" font-size="13" lengthAdjust="spacing" textLength="5" x="221.3906" y="122.3275">*</text><!--MD5=[75a6e0d8d9443f0b698eaad83b0ba0bb]
link Nurse to ApplicationUser--><path codeLine="19" d="M326.35,290.04 C315.59,302.65 301.61,319.04 287.55,335.52 " fill="none" id="Nurse-to-ApplicationUser" style="stroke:#A80036;stroke-width:1.0;"/><polygon fill="none" points="292.74,340.22,274.43,350.9,282.09,331.14,292.74,340.22" style="stroke:#A80036;stroke-width:1.0;"/><!--MD5=[1a9788758f9842fd4535ce3f0d98786a]
link Receptionist to ApplicationUser--><path codeLine="20" d="M227,290.04 C227,301.42 227,315.88 227,330.71 " fill="none" id="Receptionist-to-ApplicationUser" style="stroke:#A80036;stroke-width:1.0;"/><polygon fill="none" points="234,330.9,227,350.9,220,330.9,234,330.9" style="stroke:#A80036;stroke-width:1.0;"/><!--MD5=[cb0ece1cbfebc00db3ac67ecfc4bd080]
link CenterCoordinator to ApplicationUser--><path codeLine="21" d="M99.26,290.04 C113.94,303.41 133.26,321.03 152.43,338.51 " fill="none" id="CenterCoordinator-to-ApplicationUser" style="stroke:#A80036;stroke-width:1.0;"/><polygon fill="none" points="157.26,333.44,167.32,352.09,147.82,343.78,157.26,333.44" style="stroke:#A80036;stroke-width:1.0;"/><!--MD5=[6716344a46572fc99c27bf4e50ddbd3d]
reverse link Employee to Nurse--><path codeLine="23" d="M267.9,194.78 C285.26,210.38 304.96,228.1 320.23,241.83 " fill="none" id="Employee-backto-Nurse" style="stroke:#A80036;stroke-width:1.0;"/><polygon fill="none" points="263.01,199.8,252.82,181.22,272.37,189.38,263.01,199.8" style="stroke:#A80036;stroke-width:1.0;"/><!--MD5=[bfff716514ca687b645fe473c6e098a4]
reverse link Employee to Receptionist--><path codeLine="24" d="M227,201.58 C227,215.36 227,230.06 227,241.83 " fill="none" id="Employee-backto-Receptionist" style="stroke:#A80036;stroke-width:1.0;"/><polygon fill="none" points="220,201.22,227,181.22,234,201.22,220,201.22" style="stroke:#A80036;stroke-width:1.0;"/><!--MD5=[98f7f3dc8d9719d04ad14614c4ea123f]
reverse link Employee to CenterCoordinator--><path codeLine="25" d="M177.13,192.88 C154.17,208.93 127.57,227.54 107.13,241.83 " fill="none" id="Employee-backto-CenterCoordinator" style="stroke:#A80036;stroke-width:1.0;"/><polygon fill="none" points="173.4,186.94,193.8,181.22,181.42,198.42,173.4,186.94" style="stroke:#A80036;stroke-width:1.0;"/><!--MD5=[25b09d943efdfda06cc57d4fba49c2ea]
@startuml

class Administrator

class Employee

class Nurse

class CenterCoordinator

class ApplicationUser {
==-password
==-name
==-email
==-role
}

Administrator "1" -d- "*" Employee : configures and manages >

ApplicationUser <|-u- Nurse
ApplicationUser <|-u- Receptionist
ApplicationUser <|-u- CenterCoordinator

Employee <|-d- Nurse
Employee <|-d- Receptionist
Employee <|-d- CenterCoordinator



@enduml

PlantUML version 1.2022.1(Tue Feb 01 18:19:58 GMT 2022)
(GPL source distribution)
Java Runtime: OpenJDK Runtime Environment
JVM: OpenJDK 64-Bit Server VM
Default Encoding: Cp1252
Language: pt
Country: PT
--></g></svg>