<?xml version="1.0" encoding="UTF-8" standalone="no"?><svg xmlns="http://www.w3.org/2000/svg" xmlns:xlink="http://www.w3.org/1999/xlink" contentScriptType="application/ecmascript" contentStyleType="text/css" height="413px" preserveAspectRatio="none" style="width:389px;height:413px;background:#FFFFFF;" version="1.1" viewBox="0 0 389 413" width="389px" zoomAndPan="magnify"><defs><filter height="300%" id="fa9kzx5uq5rde" width="300%" x="-1" y="-1"><feGaussianBlur result="blurOut" stdDeviation="2.0"/><feColorMatrix in="blurOut" result="blurOut2" type="matrix" values="0 0 0 0 0 0 0 0 0 0 0 0 0 0 0 0 0 0 .4 0"/><feOffset dx="4.0" dy="4.0" in="blurOut2" result="blurOut3"/><feBlend in="SourceGraphic" in2="blurOut3" mode="normal"/></filter></defs><g><text fill="#000000" font-family="sans-serif" font-size="18" lengthAdjust="spacing" textLength="277" x="53.75" y="30.6855">US011 System Sequence Diagram</text><rect fill="#FFFFFF" filter="url(#fa9kzx5uq5rde)" height="174.1094" style="stroke:#A80036;stroke-width:1.0;" width="10" x="44.5" y="136.25"/><rect fill="#FFFFFF" filter="url(#fa9kzx5uq5rde)" height="30.3516" style="stroke:#A80036;stroke-width:1.0;" width="10" x="340.5" y="158.6016"/><rect fill="#FFFFFF" filter="url(#fa9kzx5uq5rde)" height="30.3516" style="stroke:#A80036;stroke-width:1.0;" width="10" x="340.5" y="219.3047"/><rect fill="#FFFFFF" filter="url(#fa9kzx5uq5rde)" height="30.3516" style="stroke:#A80036;stroke-width:1.0;" width="10" x="340.5" y="280.0078"/><line style="stroke:#A80036;stroke-width:1.0;stroke-dasharray:5.0,5.0;" x1="49" x2="49" y1="126.25" y2="328.3594"/><line style="stroke:#A80036;stroke-width:1.0;stroke-dasharray:5.0,5.0;" x1="345.5" x2="345.5" y1="126.25" y2="328.3594"/><text fill="#000000" font-family="sans-serif" font-size="14" lengthAdjust="spacing" textLength="83" x="5" y="123.1738">Administrator</text><ellipse cx="49.5" cy="51.6406" fill="#FEFECE" filter="url(#fa9kzx5uq5rde)" rx="8" ry="8" style="stroke:#A80036;stroke-width:2.0;"/><path d="M49.5,59.6406 L49.5,86.6406 M36.5,67.6406 L62.5,67.6406 M49.5,86.6406 L36.5,101.6406 M49.5,86.6406 L62.5,101.6406 " fill="none" filter="url(#fa9kzx5uq5rde)" style="stroke:#A80036;stroke-width:2.0;"/><text fill="#000000" font-family="sans-serif" font-size="14" lengthAdjust="spacing" textLength="83" x="5" y="341.8926">Administrator</text><ellipse cx="49.5" cy="354.9688" fill="#FEFECE" filter="url(#fa9kzx5uq5rde)" rx="8" ry="8" style="stroke:#A80036;stroke-width:2.0;"/><path d="M49.5,362.9688 L49.5,389.9688 M36.5,370.9688 L62.5,370.9688 M49.5,389.9688 L36.5,404.9688 M49.5,389.9688 L62.5,404.9688 " fill="none" filter="url(#fa9kzx5uq5rde)" style="stroke:#A80036;stroke-width:2.0;"/><rect fill="#FEFECE" filter="url(#fa9kzx5uq5rde)" height="31.6094" style="stroke:#A80036;stroke-width:1.5;" width="64" x="311.5" y="89.6406"/><text fill="#000000" font-family="sans-serif" font-size="14" lengthAdjust="spacing" textLength="50" x="318.5" y="111.1738">:System</text><rect fill="#FEFECE" filter="url(#fa9kzx5uq5rde)" height="31.6094" style="stroke:#A80036;stroke-width:1.5;" width="64" x="311.5" y="327.3594"/><text fill="#000000" font-family="sans-serif" font-size="14" lengthAdjust="spacing" textLength="50" x="318.5" y="348.8926">:System</text><rect fill="#FFFFFF" filter="url(#fa9kzx5uq5rde)" height="174.1094" style="stroke:#A80036;stroke-width:1.0;" width="10" x="44.5" y="136.25"/><rect fill="#FFFFFF" filter="url(#fa9kzx5uq5rde)" height="30.3516" style="stroke:#A80036;stroke-width:1.0;" width="10" x="340.5" y="158.6016"/><rect fill="#FFFFFF" filter="url(#fa9kzx5uq5rde)" height="30.3516" style="stroke:#A80036;stroke-width:1.0;" width="10" x="340.5" y="219.3047"/><rect fill="#FFFFFF" filter="url(#fa9kzx5uq5rde)" height="30.3516" style="stroke:#A80036;stroke-width:1.0;" width="10" x="340.5" y="280.0078"/><polygon fill="#A80036" points="328.5,154.6016,338.5,158.6016,328.5,162.6016,332.5,158.6016" style="stroke:#A80036;stroke-width:1.0;"/><line style="stroke:#A80036;stroke-width:1.0;" x1="54.5" x2="334.5" y1="158.6016" y2="158.6016"/><text fill="#000000" font-family="sans-serif" font-size="13" font-weight="bold" lengthAdjust="spacing" textLength="22" x="65.5" y="153.7451">[01]</text><text fill="#000000" font-family="sans-serif" font-size="13" lengthAdjust="spacing" textLength="159" x="91.5" y="153.7451">asks for a list of employees</text><polygon fill="#A80036" points="65.5,184.9531,55.5,188.9531,65.5,192.9531,61.5,188.9531" style="stroke:#A80036;stroke-width:1.0;"/><line style="stroke:#A80036;stroke-width:1.0;stroke-dasharray:2.0,2.0;" x1="59.5" x2="344.5" y1="188.9531" y2="188.9531"/><text fill="#000000" font-family="sans-serif" font-size="13" font-weight="bold" lengthAdjust="spacing" textLength="22" x="75.5" y="184.0967">[02]</text><text fill="#000000" font-family="sans-serif" font-size="13" lengthAdjust="spacing" textLength="161" x="101.5" y="184.0967">requests data (role/function)</text><polygon fill="#A80036" points="328.5,215.3047,338.5,219.3047,328.5,223.3047,332.5,219.3047" style="stroke:#A80036;stroke-width:1.0;"/><line style="stroke:#A80036;stroke-width:1.0;" x1="54.5" x2="334.5" y1="219.3047" y2="219.3047"/><text fill="#000000" font-family="sans-serif" font-size="13" font-weight="bold" lengthAdjust="spacing" textLength="22" x="65.5" y="214.4482">[03]</text><text fill="#000000" font-family="sans-serif" font-size="13" lengthAdjust="spacing" textLength="122" x="91.5" y="214.4482">types requested data</text><polygon fill="#A80036" points="65.5,245.6563,55.5,249.6563,65.5,253.6563,61.5,249.6563" style="stroke:#A80036;stroke-width:1.0;"/><line style="stroke:#A80036;stroke-width:1.0;stroke-dasharray:2.0,2.0;" x1="59.5" x2="344.5" y1="249.6563" y2="249.6563"/><text fill="#000000" font-family="sans-serif" font-size="13" font-weight="bold" lengthAdjust="spacing" textLength="22" x="75.5" y="244.7998">[04]</text><text fill="#000000" font-family="sans-serif" font-size="13" lengthAdjust="spacing" textLength="232" x="101.5" y="244.7998">returns the list and asks for confirmation</text><polygon fill="#A80036" points="328.5,276.0078,338.5,280.0078,328.5,284.0078,332.5,280.0078" style="stroke:#A80036;stroke-width:1.0;"/><line style="stroke:#A80036;stroke-width:1.0;" x1="54.5" x2="334.5" y1="280.0078" y2="280.0078"/><text fill="#000000" font-family="sans-serif" font-size="13" font-weight="bold" lengthAdjust="spacing" textLength="22" x="65.5" y="275.1514">[05]</text><text fill="#000000" font-family="sans-serif" font-size="13" lengthAdjust="spacing" textLength="114" x="91.5" y="275.1514">confirms the results</text><polygon fill="#A80036" points="60.5,306.3594,50.5,310.3594,60.5,314.3594,56.5,310.3594" style="stroke:#A80036;stroke-width:1.0;"/><line style="stroke:#A80036;stroke-width:1.0;stroke-dasharray:2.0,2.0;" x1="54.5" x2="344.5" y1="310.3594" y2="310.3594"/><text fill="#000000" font-family="sans-serif" font-size="13" font-weight="bold" lengthAdjust="spacing" textLength="22" x="70.5" y="305.5029">[06]</text><text fill="#000000" font-family="sans-serif" font-size="13" lengthAdjust="spacing" textLength="152" x="96.5" y="305.5029">informs operation success</text><!--MD5=[2885d6c7888d19ffcf4c206744c900ac]
@startuml

title US011 System Sequence Diagram
autonumber "<b> [00]"
actor "Administrator" as A

activate A
A -> ":System" : asks for a list of employees
activate ":System"
":System" - -> A : requests data (role/function)
deactivate ":System"

A -> ":System" : types requested data
activate ":System"
":System" - -> A : returns the list and asks for confirmation
deactivate ":System"

A -> ":System" : confirms the results
activate ":System"
":System" - -> A : informs operation success
deactivate ":System"

deactivate A

@enduml

PlantUML version 1.2022.1(Tue Feb 01 18:19:58 GMT 2022)
(GPL source distribution)
Java Runtime: OpenJDK Runtime Environment
JVM: OpenJDK 64-Bit Server VM
Default Encoding: Cp1252
Language: pt
Country: PT
--></g></svg>