<?xml version="1.0" encoding="UTF-8" standalone="no"?><svg xmlns="http://www.w3.org/2000/svg" xmlns:xlink="http://www.w3.org/1999/xlink" contentScriptType="application/ecmascript" contentStyleType="text/css" height="74px" preserveAspectRatio="none" style="width:476px;height:74px;background:#FFFFFF;" version="1.1" viewBox="0 0 476 74" width="476px" zoomAndPan="magnify"><defs><filter height="300%" id="fe2181fyof7ni" width="300%" x="-1" y="-1"><feGaussianBlur result="blurOut" stdDeviation="2.0"/><feColorMatrix in="blurOut" result="blurOut2" type="matrix" values="0 0 0 0 0 0 0 0 0 0 0 0 0 0 0 0 0 0 .4 0"/><feOffset dx="4.0" dy="4.0" in="blurOut2" result="blurOut3"/><feBlend in="SourceGraphic" in2="blurOut3" mode="normal"/></filter></defs><g><!--MD5=[da547346deef918ea16944ba046651ef]
class Administrator--><rect codeLine="5" fill="#FEFECE" filter="url(#fe2181fyof7ni)" height="40" id="Administrator" style="stroke:#A80036;stroke-width:1.5;" width="105" x="7" y="14"/><ellipse cx="22" cy="30" fill="#ADD1B2" rx="11" ry="11" style="stroke:#A80036;stroke-width:1.0;"/><path d="M24,26.5 Q24.2031,26 24.4375,25.75 Q24.6719,25.5 24.9375,25.5 Q25.4063,25.5 25.7031,25.7813 Q26,26.0625 26,26.7188 L26,28.2813 Q26,28.9375 25.7188,29.2188 Q25.4375,29.5 25,29.5 Q24.6094,29.5 24.3594,29.3281 Q24.1094,29.1563 24,28.7031 Q23.9531,28.3906 23.7813,28.2188 Q23.4688,27.8906 22.9063,27.7031 Q22.3438,27.5 21.7813,27.5 Q21.0781,27.5 20.4844,27.7813 Q19.9063,28.0625 19.4531,28.6875 Q19,29.3125 19,30.1719 L19,31.0938 Q19,32.125 19.8438,32.8125 Q20.6875,33.5 22.1875,33.5 Q23.0781,33.5 23.7031,33.2969 Q24.0625,33.1875 24.4688,32.8281 Q24.7344,32.625 24.875,32.5625 Q25.0156,32.5 25.1875,32.5 Q25.5156,32.5 25.75,32.7656 Q26,33.0156 26,33.375 Q26,33.7188 25.6563,34.125 Q25.1563,34.7188 24.3594,35.0469 Q23.3125,35.5 22.0313,35.5 Q20.5313,35.5 19.3281,34.9063 Q18.3594,34.4375 17.6719,33.4219 Q17,32.4063 17,31.2031 L17,30.1094 Q17,28.8594 17.5938,27.7656 Q18.2031,26.6719 19.25,26.0938 Q20.3125,25.5 21.5,25.5 Q22.2188,25.5 22.8438,25.75 Q23.4688,26 24,26.5 Z " fill="#000000"/><text fill="#000000" font-family="sans-serif" font-size="12" lengthAdjust="spacing" textLength="73" x="36" y="34.9102">Administrator</text><line style="stroke:#A80036;stroke-width:1.5;" x1="8" x2="111" y1="46" y2="46"/><!--MD5=[e02fc5ff322986dab3114482722a4407]
class ListOfEmployees--><rect codeLine="6" fill="#FEFECE" filter="url(#fe2181fyof7ni)" height="53.8359" id="ListOfEmployees" style="stroke:#A80036;stroke-width:1.5;" width="126" x="336" y="7"/><ellipse cx="351" cy="23" fill="#ADD1B2" rx="11" ry="11" style="stroke:#A80036;stroke-width:1.0;"/><path d="M353,19.5 Q353.2031,19 353.4375,18.75 Q353.6719,18.5 353.9375,18.5 Q354.4063,18.5 354.7031,18.7813 Q355,19.0625 355,19.7188 L355,21.2813 Q355,21.9375 354.7188,22.2188 Q354.4375,22.5 354,22.5 Q353.6094,22.5 353.3594,22.3281 Q353.1094,22.1563 353,21.7031 Q352.9531,21.3906 352.7813,21.2188 Q352.4688,20.8906 351.9063,20.7031 Q351.3438,20.5 350.7813,20.5 Q350.0781,20.5 349.4844,20.7813 Q348.9063,21.0625 348.4531,21.6875 Q348,22.3125 348,23.1719 L348,24.0938 Q348,25.125 348.8438,25.8125 Q349.6875,26.5 351.1875,26.5 Q352.0781,26.5 352.7031,26.2969 Q353.0625,26.1875 353.4688,25.8281 Q353.7344,25.625 353.875,25.5625 Q354.0156,25.5 354.1875,25.5 Q354.5156,25.5 354.75,25.7656 Q355,26.0156 355,26.375 Q355,26.7188 354.6563,27.125 Q354.1563,27.7188 353.3594,28.0469 Q352.3125,28.5 351.0313,28.5 Q349.5313,28.5 348.3281,27.9063 Q347.3594,27.4375 346.6719,26.4219 Q346,25.4063 346,24.2031 L346,23.1094 Q346,21.8594 346.5938,20.7656 Q347.2031,19.6719 348.25,19.0938 Q349.3125,18.5 350.5,18.5 Q351.2188,18.5 351.8438,18.75 Q352.4688,19 353,19.5 Z " fill="#000000"/><text fill="#000000" font-family="sans-serif" font-size="12" lengthAdjust="spacing" textLength="94" x="365" y="27.9102">ListOfEmployees</text><line style="stroke:#A80036;stroke-width:1.5;" x1="337" x2="461" y1="39" y2="39"/><text fill="#000000" font-family="sans-serif" font-size="11" lengthAdjust="spacing" textLength="49" x="342" y="54.4189">String role</text><!--MD5=[8ccc2462c03843960384e3e3a4b65b67]
link Administrator to ListOfEmployees--><path codeLine="10" d="M112.13,34 C172.23,34 271.46,34 335.77,34 " fill="none" id="Administrator-ListOfEmployees" style="stroke:#A80036;stroke-width:1.0;"/><polygon fill="#000000" points="214,25.1758,204.9549,22.2369,204.9549,28.1147,214,25.1758" style="stroke:#000000;stroke-width:1.0;"/><text fill="#000000" font-family="sans-serif" font-size="13" lengthAdjust="spacing" textLength="25" x="218" y="30.4951">gets</text><text fill="#000000" font-family="sans-serif" font-size="13" lengthAdjust="spacing" textLength="7" x="120.0233" y="48.6448">1</text><text fill="#000000" font-family="sans-serif" font-size="13" lengthAdjust="spacing" textLength="7" x="321.0543" y="48.4499">1</text><!--MD5=[51304b6f8fd25f34ba6bb6d0c9500979]
@startuml

hide methods
left to right direction

class Administrator
class ListOfEmployees {
String role
}

Administrator "1" - - - - "1" ListOfEmployees : gets >

@enduml

PlantUML version 1.2022.1(Tue Feb 01 18:19:58 GMT 2022)
(GPL source distribution)
Java Runtime: OpenJDK Runtime Environment
JVM: OpenJDK 64-Bit Server VM
Default Encoding: Cp1252
Language: pt
Country: PT
--></g></svg>