<?xml version="1.0" encoding="UTF-8" standalone="no"?><svg xmlns="http://www.w3.org/2000/svg" xmlns:xlink="http://www.w3.org/1999/xlink" contentScriptType="application/ecmascript" contentStyleType="text/css" height="485px" preserveAspectRatio="none" style="width:229px;height:485px;background:#FFFFFF;" version="1.1" viewBox="0 0 229 485" width="229px" zoomAndPan="magnify"><defs><filter height="300%" id="f8tdwsc5udoer" width="300%" x="-1" y="-1"><feGaussianBlur result="blurOut" stdDeviation="2.0"/><feColorMatrix in="blurOut" result="blurOut2" type="matrix" values="0 0 0 0 0 0 0 0 0 0 0 0 0 0 0 0 0 0 .4 0"/><feOffset dx="4.0" dy="4.0" in="blurOut2" result="blurOut3"/><feBlend in="SourceGraphic" in2="blurOut3" mode="normal"/></filter></defs><g><!--MD5=[02e4b9b7573f1156f41e60aa5b4e25a4]
class Company--><rect codeLine="3" fill="#FEFECE" filter="url(#f8tdwsc5udoer)" height="61.8359" id="Company" style="stroke:#A80036;stroke-width:1.5;" width="101" x="60.5" y="229"/><ellipse cx="82.7" cy="245" fill="#ADD1B2" rx="11" ry="11" style="stroke:#A80036;stroke-width:1.0;"/><path d="M84.7,241.5 Q84.9031,241 85.1375,240.75 Q85.3719,240.5 85.6375,240.5 Q86.1063,240.5 86.4031,240.7813 Q86.7,241.0625 86.7,241.7188 L86.7,243.2813 Q86.7,243.9375 86.4188,244.2188 Q86.1375,244.5 85.7,244.5 Q85.3094,244.5 85.0594,244.3281 Q84.8094,244.1563 84.7,243.7031 Q84.6531,243.3906 84.4813,243.2188 Q84.1688,242.8906 83.6063,242.7031 Q83.0438,242.5 82.4813,242.5 Q81.7781,242.5 81.1844,242.7813 Q80.6063,243.0625 80.1531,243.6875 Q79.7,244.3125 79.7,245.1719 L79.7,246.0938 Q79.7,247.125 80.5438,247.8125 Q81.3875,248.5 82.8875,248.5 Q83.7781,248.5 84.4031,248.2969 Q84.7625,248.1875 85.1688,247.8281 Q85.4344,247.625 85.575,247.5625 Q85.7156,247.5 85.8875,247.5 Q86.2156,247.5 86.45,247.7656 Q86.7,248.0156 86.7,248.375 Q86.7,248.7188 86.3563,249.125 Q85.8563,249.7188 85.0594,250.0469 Q84.0125,250.5 82.7313,250.5 Q81.2313,250.5 80.0281,249.9063 Q79.0594,249.4375 78.3719,248.4219 Q77.7,247.4063 77.7,246.2031 L77.7,245.1094 Q77.7,243.8594 78.2938,242.7656 Q78.9031,241.6719 79.95,241.0938 Q81.0125,240.5 82.2,240.5 Q82.9188,240.5 83.5438,240.75 Q84.1688,241 84.7,241.5 Z " fill="#000000"/><text fill="#000000" font-family="sans-serif" font-size="12" lengthAdjust="spacing" textLength="53" x="98.3" y="249.9102">Company</text><line style="stroke:#A80036;stroke-width:1.5;" x1="61.5" x2="160.5" y1="261" y2="261"/><line style="stroke:#A80036;stroke-width:1.5;" x1="61.5" x2="160.5" y1="269" y2="269"/><ellipse cx="71.5" cy="280" fill="#84BE84" rx="3" ry="3" style="stroke:#038048;stroke-width:1.0;"/><text fill="#000000" font-family="sans-serif" font-size="11" lengthAdjust="spacing" textLength="75" x="80.5" y="284.4189">getEmployees()</text><!--MD5=[7421f545a0d8420c5bec41e74b387d9c]
class Employee--><rect codeLine="7" fill="#FEFECE" filter="url(#f8tdwsc5udoer)" height="144.8516" id="Employee" style="stroke:#A80036;stroke-width:1.5;" width="117" x="52.5" y="326.5"/><ellipse cx="81" cy="342.5" fill="#ADD1B2" rx="11" ry="11" style="stroke:#A80036;stroke-width:1.0;"/><path d="M83,339 Q83.2031,338.5 83.4375,338.25 Q83.6719,338 83.9375,338 Q84.4063,338 84.7031,338.2813 Q85,338.5625 85,339.2188 L85,340.7813 Q85,341.4375 84.7188,341.7188 Q84.4375,342 84,342 Q83.6094,342 83.3594,341.8281 Q83.1094,341.6563 83,341.2031 Q82.9531,340.8906 82.7813,340.7188 Q82.4688,340.3906 81.9063,340.2031 Q81.3438,340 80.7813,340 Q80.0781,340 79.4844,340.2813 Q78.9063,340.5625 78.4531,341.1875 Q78,341.8125 78,342.6719 L78,343.5938 Q78,344.625 78.8438,345.3125 Q79.6875,346 81.1875,346 Q82.0781,346 82.7031,345.7969 Q83.0625,345.6875 83.4688,345.3281 Q83.7344,345.125 83.875,345.0625 Q84.0156,345 84.1875,345 Q84.5156,345 84.75,345.2656 Q85,345.5156 85,345.875 Q85,346.2188 84.6563,346.625 Q84.1563,347.2188 83.3594,347.5469 Q82.3125,348 81.0313,348 Q79.5313,348 78.3281,347.4063 Q77.3594,346.9375 76.6719,345.9219 Q76,344.9063 76,343.7031 L76,342.6094 Q76,341.3594 76.5938,340.2656 Q77.2031,339.1719 78.25,338.5938 Q79.3125,338 80.5,338 Q81.2188,338 81.8438,338.25 Q82.4688,338.5 83,339 Z " fill="#000000"/><text fill="#000000" font-family="sans-serif" font-size="12" lengthAdjust="spacing" textLength="55" x="98" y="347.4102">Employee</text><line style="stroke:#A80036;stroke-width:1.5;" x1="53.5" x2="168.5" y1="358.5" y2="358.5"/><text fill="#000000" font-family="sans-serif" font-size="11" lengthAdjust="spacing" textLength="57" x="58.5" y="373.9189">String name</text><text fill="#000000" font-family="sans-serif" font-size="11" lengthAdjust="spacing" textLength="71" x="58.5" y="387.7549">String address</text><text fill="#000000" font-family="sans-serif" font-size="11" lengthAdjust="spacing" textLength="49" x="58.5" y="401.5908">String role</text><text fill="#000000" font-family="sans-serif" font-size="11" lengthAdjust="spacing" textLength="22" x="58.5" y="415.4268">int id</text><text fill="#000000" font-family="sans-serif" font-size="11" lengthAdjust="spacing" textLength="81" x="58.5" y="429.2627">int phoneNumber</text><text fill="#000000" font-family="sans-serif" font-size="11" lengthAdjust="spacing" textLength="55" x="58.5" y="443.0986">String email</text><text fill="#000000" font-family="sans-serif" font-size="11" lengthAdjust="spacing" textLength="105" x="58.5" y="456.9346">int citizenCardNumber</text><line style="stroke:#A80036;stroke-width:1.5;" x1="53.5" x2="168.5" y1="463.3516" y2="463.3516"/><!--MD5=[8043469dd328a0122c3de9bc6377a6d4]
class GetListOfEmployeesUI--><rect codeLine="17" fill="#FEFECE" filter="url(#f8tdwsc5udoer)" height="48" id="GetListOfEmployeesUI" style="stroke:#A80036;stroke-width:1.5;" width="157" x="32.5" y="7"/><ellipse cx="47.5" cy="23" fill="#ADD1B2" rx="11" ry="11" style="stroke:#A80036;stroke-width:1.0;"/><path d="M49.5,19.5 Q49.7031,19 49.9375,18.75 Q50.1719,18.5 50.4375,18.5 Q50.9063,18.5 51.2031,18.7813 Q51.5,19.0625 51.5,19.7188 L51.5,21.2813 Q51.5,21.9375 51.2188,22.2188 Q50.9375,22.5 50.5,22.5 Q50.1094,22.5 49.8594,22.3281 Q49.6094,22.1563 49.5,21.7031 Q49.4531,21.3906 49.2813,21.2188 Q48.9688,20.8906 48.4063,20.7031 Q47.8438,20.5 47.2813,20.5 Q46.5781,20.5 45.9844,20.7813 Q45.4063,21.0625 44.9531,21.6875 Q44.5,22.3125 44.5,23.1719 L44.5,24.0938 Q44.5,25.125 45.3438,25.8125 Q46.1875,26.5 47.6875,26.5 Q48.5781,26.5 49.2031,26.2969 Q49.5625,26.1875 49.9688,25.8281 Q50.2344,25.625 50.375,25.5625 Q50.5156,25.5 50.6875,25.5 Q51.0156,25.5 51.25,25.7656 Q51.5,26.0156 51.5,26.375 Q51.5,26.7188 51.1563,27.125 Q50.6563,27.7188 49.8594,28.0469 Q48.8125,28.5 47.5313,28.5 Q46.0313,28.5 44.8281,27.9063 Q43.8594,27.4375 43.1719,26.4219 Q42.5,25.4063 42.5,24.2031 L42.5,23.1094 Q42.5,21.8594 43.0938,20.7656 Q43.7031,19.6719 44.75,19.0938 Q45.8125,18.5 47,18.5 Q47.7188,18.5 48.3438,18.75 Q48.9688,19 49.5,19.5 Z " fill="#000000"/><text fill="#000000" font-family="sans-serif" font-size="12" lengthAdjust="spacing" textLength="125" x="61.5" y="27.9102">GetListOfEmployeesUI</text><line style="stroke:#A80036;stroke-width:1.5;" x1="33.5" x2="188.5" y1="39" y2="39"/><line style="stroke:#A80036;stroke-width:1.5;" x1="33.5" x2="188.5" y1="47" y2="47"/><!--MD5=[5ddf07e2fdca7843661702e33d5936d1]
class GetListOfEmployeesController--><rect codeLine="19" fill="#FEFECE" filter="url(#f8tdwsc5udoer)" height="103.3438" id="GetListOfEmployeesController" style="stroke:#A80036;stroke-width:1.5;" width="208" x="7" y="90.5"/><ellipse cx="26.05" cy="106.5" fill="#ADD1B2" rx="11" ry="11" style="stroke:#A80036;stroke-width:1.0;"/><path d="M28.05,103 Q28.2531,102.5 28.4875,102.25 Q28.7219,102 28.9875,102 Q29.4563,102 29.7531,102.2813 Q30.05,102.5625 30.05,103.2188 L30.05,104.7813 Q30.05,105.4375 29.7688,105.7188 Q29.4875,106 29.05,106 Q28.6594,106 28.4094,105.8281 Q28.1594,105.6563 28.05,105.2031 Q28.0031,104.8906 27.8313,104.7188 Q27.5188,104.3906 26.9563,104.2031 Q26.3938,104 25.8313,104 Q25.1281,104 24.5344,104.2813 Q23.9563,104.5625 23.5031,105.1875 Q23.05,105.8125 23.05,106.6719 L23.05,107.5938 Q23.05,108.625 23.8938,109.3125 Q24.7375,110 26.2375,110 Q27.1281,110 27.7531,109.7969 Q28.1125,109.6875 28.5188,109.3281 Q28.7844,109.125 28.925,109.0625 Q29.0656,109 29.2375,109 Q29.5656,109 29.8,109.2656 Q30.05,109.5156 30.05,109.875 Q30.05,110.2188 29.7063,110.625 Q29.2063,111.2188 28.4094,111.5469 Q27.3625,112 26.0813,112 Q24.5813,112 23.3781,111.4063 Q22.4094,110.9375 21.7219,109.9219 Q21.05,108.9063 21.05,107.7031 L21.05,106.6094 Q21.05,105.3594 21.6438,104.2656 Q22.2531,103.1719 23.3,102.5938 Q24.3625,102 25.55,102 Q26.2688,102 26.8938,102.25 Q27.5188,102.5 28.05,103 Z " fill="#000000"/><text fill="#000000" font-family="sans-serif" font-size="12" lengthAdjust="spacing" textLength="167" x="40.95" y="111.4102">GetListOfEmployeesController</text><line style="stroke:#A80036;stroke-width:1.5;" x1="8" x2="214" y1="122.5" y2="122.5"/><line style="stroke:#A80036;stroke-width:1.5;" x1="8" x2="214" y1="130.5" y2="130.5"/><ellipse cx="18" cy="141.5" fill="#84BE84" rx="3" ry="3" style="stroke:#038048;stroke-width:1.0;"/><text fill="#000000" font-family="sans-serif" font-size="11" lengthAdjust="spacing" textLength="182" x="27" y="145.9189">getListOfEmployeesWithAGivenRole()</text><ellipse cx="18" cy="155.3359" fill="#84BE84" rx="3" ry="3" style="stroke:#038048;stroke-width:1.0;"/><text fill="#000000" font-family="sans-serif" font-size="11" lengthAdjust="spacing" textLength="69" x="27" y="159.7549">getNurseList()</text><ellipse cx="18" cy="169.1719" fill="#84BE84" rx="3" ry="3" style="stroke:#038048;stroke-width:1.0;"/><text fill="#000000" font-family="sans-serif" font-size="11" lengthAdjust="spacing" textLength="99" x="27" y="173.5908">getReceptionistList()</text><ellipse cx="18" cy="183.0078" fill="#84BE84" rx="3" ry="3" style="stroke:#038048;stroke-width:1.0;"/><text fill="#000000" font-family="sans-serif" font-size="11" lengthAdjust="spacing" textLength="128" x="27" y="187.4268">getCentreCoordinatorList()</text><!--MD5=[3f83778fcdf40a203e08cdcff8cf7659]
link GetListOfEmployeesUI to GetListOfEmployeesController--><path codeLine="29" d="M111,55.13 C111,66.89 111,78.65 111,90.4 " fill="none" id="GetListOfEmployeesUI-GetListOfEmployeesController" style="stroke:#A80036;stroke-width:1.0;"/><!--MD5=[2f7590ed2d57878f8f4df8cb2488b5fc]
link GetListOfEmployeesController to Company--><path codeLine="30" d="M111,193.79 C111,203.69 111,213.58 111,223.48 " fill="none" id="GetListOfEmployeesController-to-Company" style="stroke:#A80036;stroke-width:1.0;"/><polygon fill="#A80036" points="111,228.66,115,219.66,111,223.66,107,219.66,111,228.66" style="stroke:#A80036;stroke-width:1.0;"/><!--MD5=[09366576ee87d48d594df10cacc83f45]
link Company to Employee--><path codeLine="31" d="M111,291.05 C111,301.04 111,311.03 111,321.02 " fill="none" id="Company-to-Employee" style="stroke:#A80036;stroke-width:1.0;"/><polygon fill="#A80036" points="111,326.24,115,317.24,111,321.24,107,317.24,111,326.24" style="stroke:#A80036;stroke-width:1.0;"/><!--MD5=[177660b8034a9f09d5f9bb0504bb3f3e]
@startuml
'https://plantuml.com/class-diagram

class Company {
+getEmployees()
}

class Employee {
String name
String address
String role
int id
int phoneNumber
String email
int citizenCardNumber
}

class GetListOfEmployeesUI

class GetListOfEmployeesController{
+getListOfEmployeesWithAGivenRole()
+getNurseList()
+getReceptionistList()
+getCentreCoordinatorList()
}


left to right direction

GetListOfEmployeesUI - GetListOfEmployeesController
GetListOfEmployeesController -> Company
Company -> Employee

@enduml

@startuml

class Company {
+getEmployees()
}

class Employee {
String name
String address
String role
int id
int phoneNumber
String email
int citizenCardNumber
}

class GetListOfEmployeesUI

class GetListOfEmployeesController{
+getListOfEmployeesWithAGivenRole()
+getNurseList()
+getReceptionistList()
+getCentreCoordinatorList()
}


left to right direction

GetListOfEmployeesUI - GetListOfEmployeesController
GetListOfEmployeesController -> Company
Company -> Employee

@enduml

PlantUML version 1.2022.1(Tue Feb 01 18:19:58 GMT 2022)
(GPL source distribution)
Java Runtime: OpenJDK Runtime Environment
JVM: OpenJDK 64-Bit Server VM
Default Encoding: Cp1252
Language: pt
Country: PT
--></g></svg>