<?xml version="1.0" encoding="UTF-8" standalone="no"?><svg xmlns="http://www.w3.org/2000/svg" xmlns:xlink="http://www.w3.org/1999/xlink" contentScriptType="application/ecmascript" contentStyleType="text/css" height="74px" preserveAspectRatio="none" style="width:529px;height:74px;background:#FFFFFF;" version="1.1" viewBox="0 0 529 74" width="529px" zoomAndPan="magnify"><defs><filter height="300%" id="f6jswla2szbi9" width="300%" x="-1" y="-1"><feGaussianBlur result="blurOut" stdDeviation="2.0"/><feColorMatrix in="blurOut" result="blurOut2" type="matrix" values="0 0 0 0 0 0 0 0 0 0 0 0 0 0 0 0 0 0 .4 0"/><feOffset dx="4.0" dy="4.0" in="blurOut2" result="blurOut3"/><feBlend in="SourceGraphic" in2="blurOut3" mode="normal"/></filter></defs><g><!--MD5=[da547346deef918ea16944ba046651ef]
class Administrator--><rect codeLine="6" fill="#FEFECE" filter="url(#f6jswla2szbi9)" height="40" id="Administrator" style="stroke:#A80036;stroke-width:1.5;" width="105" x="7" y="14"/><ellipse cx="22" cy="30" fill="#ADD1B2" rx="11" ry="11" style="stroke:#A80036;stroke-width:1.0;"/><path d="M24,26.5 Q24.2031,26 24.4375,25.75 Q24.6719,25.5 24.9375,25.5 Q25.4063,25.5 25.7031,25.7813 Q26,26.0625 26,26.7188 L26,28.2813 Q26,28.9375 25.7188,29.2188 Q25.4375,29.5 25,29.5 Q24.6094,29.5 24.3594,29.3281 Q24.1094,29.1563 24,28.7031 Q23.9531,28.3906 23.7813,28.2188 Q23.4688,27.8906 22.9063,27.7031 Q22.3438,27.5 21.7813,27.5 Q21.0781,27.5 20.4844,27.7813 Q19.9063,28.0625 19.4531,28.6875 Q19,29.3125 19,30.1719 L19,31.0938 Q19,32.125 19.8438,32.8125 Q20.6875,33.5 22.1875,33.5 Q23.0781,33.5 23.7031,33.2969 Q24.0625,33.1875 24.4688,32.8281 Q24.7344,32.625 24.875,32.5625 Q25.0156,32.5 25.1875,32.5 Q25.5156,32.5 25.75,32.7656 Q26,33.0156 26,33.375 Q26,33.7188 25.6563,34.125 Q25.1563,34.7188 24.3594,35.0469 Q23.3125,35.5 22.0313,35.5 Q20.5313,35.5 19.3281,34.9063 Q18.3594,34.4375 17.6719,33.4219 Q17,32.4063 17,31.2031 L17,30.1094 Q17,28.8594 17.5938,27.7656 Q18.2031,26.6719 19.25,26.0938 Q20.3125,25.5 21.5,25.5 Q22.2188,25.5 22.8438,25.75 Q23.4688,26 24,26.5 Z " fill="#000000"/><text fill="#000000" font-family="sans-serif" font-size="12" lengthAdjust="spacing" textLength="73" x="36" y="34.9102">Administrator</text><line style="stroke:#A80036;stroke-width:1.5;" x1="8" x2="111" y1="46" y2="46"/><!--MD5=[e02fc5ff322986dab3114482722a4407]
class ListOfEmployees--><rect codeLine="7" fill="#FEFECE" filter="url(#f6jswla2szbi9)" height="53.8359" id="ListOfEmployees" style="stroke:#A80036;stroke-width:1.5;" width="179" x="336" y="7"/><ellipse cx="374.85" cy="23" fill="#ADD1B2" rx="11" ry="11" style="stroke:#A80036;stroke-width:1.0;"/><path d="M376.85,19.5 Q377.0531,19 377.2875,18.75 Q377.5219,18.5 377.7875,18.5 Q378.2563,18.5 378.5531,18.7813 Q378.85,19.0625 378.85,19.7188 L378.85,21.2813 Q378.85,21.9375 378.5688,22.2188 Q378.2875,22.5 377.85,22.5 Q377.4594,22.5 377.2094,22.3281 Q376.9594,22.1563 376.85,21.7031 Q376.8031,21.3906 376.6313,21.2188 Q376.3188,20.8906 375.7563,20.7031 Q375.1938,20.5 374.6313,20.5 Q373.9281,20.5 373.3344,20.7813 Q372.7563,21.0625 372.3031,21.6875 Q371.85,22.3125 371.85,23.1719 L371.85,24.0938 Q371.85,25.125 372.6938,25.8125 Q373.5375,26.5 375.0375,26.5 Q375.9281,26.5 376.5531,26.2969 Q376.9125,26.1875 377.3188,25.8281 Q377.5844,25.625 377.725,25.5625 Q377.8656,25.5 378.0375,25.5 Q378.3656,25.5 378.6,25.7656 Q378.85,26.0156 378.85,26.375 Q378.85,26.7188 378.5063,27.125 Q378.0063,27.7188 377.2094,28.0469 Q376.1625,28.5 374.8813,28.5 Q373.3813,28.5 372.1781,27.9063 Q371.2094,27.4375 370.5219,26.4219 Q369.85,25.4063 369.85,24.2031 L369.85,23.1094 Q369.85,21.8594 370.4438,20.7656 Q371.0531,19.6719 372.1,19.0938 Q373.1625,18.5 374.35,18.5 Q375.0688,18.5 375.6938,18.75 Q376.3188,19 376.85,19.5 Z " fill="#000000"/><text fill="#000000" font-family="sans-serif" font-size="12" lengthAdjust="spacing" textLength="94" x="394.15" y="27.9102">ListOfEmployees</text><line style="stroke:#A80036;stroke-width:1.5;" x1="337" x2="514" y1="39" y2="39"/><text fill="#000000" font-family="sans-serif" font-size="11" lengthAdjust="spacing" textLength="167" x="342" y="54.4189">-arrGetListOfEmployees: ArrayList</text><!--MD5=[8ccc2462c03843960384e3e3a4b65b67]
link Administrator to ListOfEmployees--><path codeLine="11" d="M112.27,34 C170.36,34 265.64,34 335.7,34 " fill="none" id="Administrator-ListOfEmployees" style="stroke:#A80036;stroke-width:1.0;"/><polygon fill="#000000" points="214,25.1758,204.9549,22.2369,204.9549,28.1147,214,25.1758" style="stroke:#000000;stroke-width:1.0;"/><text fill="#000000" font-family="sans-serif" font-size="13" lengthAdjust="spacing" textLength="25" x="218" y="30.4951">gets</text><text fill="#000000" font-family="sans-serif" font-size="13" lengthAdjust="spacing" textLength="7" x="119.8313" y="48.5937">1</text><text fill="#000000" font-family="sans-serif" font-size="13" lengthAdjust="spacing" textLength="7" x="320.9736" y="48.179">1</text><!--MD5=[a924add3baf60fac77955ff3cc3dcee0]
@startuml

hide methods
left to right direction
skinparam classAttributeIconSize 0

class Administrator
class ListOfEmployees {
-arrGetListOfEmployees: ArrayList
}

Administrator "1" - - - - "1" ListOfEmployees : gets >

@enduml

PlantUML version 1.2022.1(Tue Feb 01 18:19:58 GMT 2022)
(GPL source distribution)
Java Runtime: OpenJDK Runtime Environment
JVM: OpenJDK 64-Bit Server VM
Default Encoding: Cp1252
Language: pt
Country: PT
--></g></svg>