<?xml version="1.0" encoding="UTF-8" standalone="no"?><svg xmlns="http://www.w3.org/2000/svg" xmlns:xlink="http://www.w3.org/1999/xlink" contentStyleType="text/css" height="582px" preserveAspectRatio="none" style="width:3038px;height:582px;background:#FFFFFF;" version="1.1" viewBox="0 0 3038 582" width="3038px" zoomAndPan="magnify"><defs/><g><!--MD5=[9b956c59b16436292d60adff39fe4d1c]
class ApplicationUser--><g id="elem_ApplicationUser"><rect codeLine="5" fill="#F1F1F1" height="128.5" id="ApplicationUser" rx="2.5" ry="2.5" style="stroke:#181818;stroke-width:0.5;" width="130" x="7" y="127"/><ellipse cx="22" cy="143" fill="#ADD1B2" rx="11" ry="11" style="stroke:#181818;stroke-width:1.0;"/><path d="M24,139.5 Q24.2031,139 24.4375,138.75 Q24.6719,138.5 24.9375,138.5 Q25.4063,138.5 25.7031,138.7813 Q26,139.0625 26,139.7188 L26,141.2813 Q26,141.9375 25.7188,142.2188 Q25.4375,142.5 25,142.5 Q24.6094,142.5 24.3594,142.3281 Q24.1094,142.1563 24,141.7031 Q23.9531,141.3906 23.7813,141.2188 Q23.4688,140.8906 22.9063,140.7031 Q22.3438,140.5 21.7813,140.5 Q21.0781,140.5 20.4844,140.7813 Q19.9063,141.0625 19.4531,141.6875 Q19,142.3125 19,143.1719 L19,144.0938 Q19,145.125 19.8438,145.8125 Q20.6875,146.5 22.1875,146.5 Q23.0781,146.5 23.7031,146.2969 Q24.0625,146.1875 24.4688,145.8281 Q24.7344,145.625 24.875,145.5625 Q25.0156,145.5 25.1875,145.5 Q25.5156,145.5 25.75,145.7656 Q26,146.0156 26,146.375 Q26,146.7188 25.6563,147.125 Q25.1563,147.7188 24.3594,148.0469 Q23.3125,148.5 22.0313,148.5 Q20.5313,148.5 19.3281,147.9063 Q18.3594,147.4375 17.6719,146.4219 Q17,145.4063 17,144.2031 L17,143.1094 Q17,141.8594 17.5938,140.7656 Q18.2031,139.6719 19.25,139.0938 Q20.3125,138.5 21.5,138.5 Q22.2188,138.5 22.8438,138.75 Q23.4688,139 24,139.5 Z " fill="#000000"/><text fill="#000000" font-family="sans-serif" font-size="14" lengthAdjust="spacing" textLength="98" x="36" y="148.7285">ApplicationUser</text><line style="stroke:#181818;stroke-width:0.5;" x1="8" x2="136" y1="159" y2="159"/><text fill="#000000" font-family="sans-serif" font-size="16" font-weight="bold" lengthAdjust="spacing" textLength="47" x="13" y="179.6094">-name</text><text fill="#000000" font-family="sans-serif" font-size="16" font-weight="bold" lengthAdjust="spacing" textLength="109" x="13" y="199.7344">-emailAddress</text><text fill="#000000" font-family="sans-serif" font-size="16" font-weight="bold" lengthAdjust="spacing" textLength="34" x="13" y="219.8594">-role</text><text fill="#000000" font-family="sans-serif" font-size="16" font-weight="bold" lengthAdjust="spacing" textLength="81" x="13" y="239.9844">-password</text><line style="stroke:#181818;stroke-width:0.5;" x1="8" x2="136" y1="247.5" y2="247.5"/></g><!--MD5=[da547346deef918ea16944ba046651ef]
class Administrator--><g id="elem_Administrator"><rect codeLine="13" fill="#F1F1F1" height="48" id="Administrator" rx="2.5" ry="2.5" style="stroke:#181818;stroke-width:0.5;" width="115" x="14.5" y="290"/><ellipse cx="29.5" cy="306" fill="#ADD1B2" rx="11" ry="11" style="stroke:#181818;stroke-width:1.0;"/><path d="M31.5,302.5 Q31.7031,302 31.9375,301.75 Q32.1719,301.5 32.4375,301.5 Q32.9063,301.5 33.2031,301.7813 Q33.5,302.0625 33.5,302.7188 L33.5,304.2813 Q33.5,304.9375 33.2188,305.2188 Q32.9375,305.5 32.5,305.5 Q32.1094,305.5 31.8594,305.3281 Q31.6094,305.1563 31.5,304.7031 Q31.4531,304.3906 31.2813,304.2188 Q30.9688,303.8906 30.4063,303.7031 Q29.8438,303.5 29.2813,303.5 Q28.5781,303.5 27.9844,303.7813 Q27.4063,304.0625 26.9531,304.6875 Q26.5,305.3125 26.5,306.1719 L26.5,307.0938 Q26.5,308.125 27.3438,308.8125 Q28.1875,309.5 29.6875,309.5 Q30.5781,309.5 31.2031,309.2969 Q31.5625,309.1875 31.9688,308.8281 Q32.2344,308.625 32.375,308.5625 Q32.5156,308.5 32.6875,308.5 Q33.0156,308.5 33.25,308.7656 Q33.5,309.0156 33.5,309.375 Q33.5,309.7188 33.1563,310.125 Q32.6563,310.7188 31.8594,311.0469 Q30.8125,311.5 29.5313,311.5 Q28.0313,311.5 26.8281,310.9063 Q25.8594,310.4375 25.1719,309.4219 Q24.5,308.4063 24.5,307.2031 L24.5,306.1094 Q24.5,304.8594 25.0938,303.7656 Q25.7031,302.6719 26.75,302.0938 Q27.8125,301.5 29,301.5 Q29.7188,301.5 30.3438,301.75 Q30.9688,302 31.5,302.5 Z " fill="#000000"/><text fill="#000000" font-family="sans-serif" font-size="14" lengthAdjust="spacing" textLength="83" x="43.5" y="311.7285">Administrator</text><line style="stroke:#181818;stroke-width:0.5;" x1="15.5" x2="128.5" y1="322" y2="322"/><line style="stroke:#181818;stroke-width:0.5;" x1="15.5" x2="128.5" y1="330" y2="330"/></g><!--MD5=[c4593935f45e4a2a0cefc4788932b53f]
class SnsUser--><g id="elem_SnsUser"><rect codeLine="15" fill="#F1F1F1" height="68.125" id="SnsUser" rx="2.5" ry="2.5" style="stroke:#181818;stroke-width:0.5;" width="144" x="1428" y="166"/><ellipse cx="1469.55" cy="182" fill="#ADD1B2" rx="11" ry="11" style="stroke:#181818;stroke-width:1.0;"/><path d="M1471.55,178.5 Q1471.7531,178 1471.9875,177.75 Q1472.2219,177.5 1472.4875,177.5 Q1472.9563,177.5 1473.2531,177.7813 Q1473.55,178.0625 1473.55,178.7188 L1473.55,180.2813 Q1473.55,180.9375 1473.2688,181.2188 Q1472.9875,181.5 1472.55,181.5 Q1472.1594,181.5 1471.9094,181.3281 Q1471.6594,181.1563 1471.55,180.7031 Q1471.5031,180.3906 1471.3313,180.2188 Q1471.0188,179.8906 1470.4563,179.7031 Q1469.8938,179.5 1469.3313,179.5 Q1468.6281,179.5 1468.0344,179.7813 Q1467.4563,180.0625 1467.0031,180.6875 Q1466.55,181.3125 1466.55,182.1719 L1466.55,183.0938 Q1466.55,184.125 1467.3938,184.8125 Q1468.2375,185.5 1469.7375,185.5 Q1470.6281,185.5 1471.2531,185.2969 Q1471.6125,185.1875 1472.0188,184.8281 Q1472.2844,184.625 1472.425,184.5625 Q1472.5656,184.5 1472.7375,184.5 Q1473.0656,184.5 1473.3,184.7656 Q1473.55,185.0156 1473.55,185.375 Q1473.55,185.7188 1473.2063,186.125 Q1472.7063,186.7188 1471.9094,187.0469 Q1470.8625,187.5 1469.5813,187.5 Q1468.0813,187.5 1466.8781,186.9063 Q1465.9094,186.4375 1465.2219,185.4219 Q1464.55,184.4063 1464.55,183.2031 L1464.55,182.1094 Q1464.55,180.8594 1465.1438,179.7656 Q1465.7531,178.6719 1466.8,178.0938 Q1467.8625,177.5 1469.05,177.5 Q1469.7688,177.5 1470.3938,177.75 Q1471.0188,178 1471.55,178.5 Z " fill="#000000"/><text fill="#000000" font-family="sans-serif" font-size="14" lengthAdjust="spacing" textLength="53" x="1489.45" y="187.7285">SnsUser</text><line style="stroke:#181818;stroke-width:0.5;" x1="1429" x2="1571" y1="198" y2="198"/><text fill="#000000" font-family="sans-serif" font-size="16" font-weight="bold" lengthAdjust="spacing" textLength="132" x="1434" y="218.6094">-SnsUserNumber</text><line style="stroke:#181818;stroke-width:0.5;" x1="1429" x2="1571" y1="226.125" y2="226.125"/></g><!--MD5=[a059576e163b46f56762f12600c49258]
class Nurse--><g id="elem_Nurse"><rect codeLine="30" fill="#F1F1F1" height="48" id="Nurse" rx="2.5" ry="2.5" style="stroke:#181818;stroke-width:0.5;" width="69" x="591" y="199"/><ellipse cx="606" cy="215" fill="#ADD1B2" rx="11" ry="11" style="stroke:#181818;stroke-width:1.0;"/><path d="M608,211.5 Q608.2031,211 608.4375,210.75 Q608.6719,210.5 608.9375,210.5 Q609.4063,210.5 609.7031,210.7813 Q610,211.0625 610,211.7188 L610,213.2813 Q610,213.9375 609.7188,214.2188 Q609.4375,214.5 609,214.5 Q608.6094,214.5 608.3594,214.3281 Q608.1094,214.1563 608,213.7031 Q607.9531,213.3906 607.7813,213.2188 Q607.4688,212.8906 606.9063,212.7031 Q606.3438,212.5 605.7813,212.5 Q605.0781,212.5 604.4844,212.7813 Q603.9063,213.0625 603.4531,213.6875 Q603,214.3125 603,215.1719 L603,216.0938 Q603,217.125 603.8438,217.8125 Q604.6875,218.5 606.1875,218.5 Q607.0781,218.5 607.7031,218.2969 Q608.0625,218.1875 608.4688,217.8281 Q608.7344,217.625 608.875,217.5625 Q609.0156,217.5 609.1875,217.5 Q609.5156,217.5 609.75,217.7656 Q610,218.0156 610,218.375 Q610,218.7188 609.6563,219.125 Q609.1563,219.7188 608.3594,220.0469 Q607.3125,220.5 606.0313,220.5 Q604.5313,220.5 603.3281,219.9063 Q602.3594,219.4375 601.6719,218.4219 Q601,217.4063 601,216.2031 L601,215.1094 Q601,213.8594 601.5938,212.7656 Q602.2031,211.6719 603.25,211.0938 Q604.3125,210.5 605.5,210.5 Q606.2188,210.5 606.8438,210.75 Q607.4688,211 608,211.5 Z " fill="#000000"/><text fill="#000000" font-family="sans-serif" font-size="14" lengthAdjust="spacing" textLength="37" x="620" y="220.7285">Nurse</text><line style="stroke:#181818;stroke-width:0.5;" x1="592" x2="659" y1="231" y2="231"/><line style="stroke:#181818;stroke-width:0.5;" x1="592" x2="659" y1="239" y2="239"/></g><!--MD5=[03960189e81aa2c066c762ffabbee709]
class Receptionist--><g id="elem_Receptionist"><rect codeLine="28" fill="#F1F1F1" height="48" id="Receptionist" rx="2.5" ry="2.5" style="stroke:#181818;stroke-width:0.5;" width="110" x="17" y="35"/><ellipse cx="32" cy="51" fill="#ADD1B2" rx="11" ry="11" style="stroke:#181818;stroke-width:1.0;"/><path d="M34,47.5 Q34.2031,47 34.4375,46.75 Q34.6719,46.5 34.9375,46.5 Q35.4063,46.5 35.7031,46.7813 Q36,47.0625 36,47.7188 L36,49.2813 Q36,49.9375 35.7188,50.2188 Q35.4375,50.5 35,50.5 Q34.6094,50.5 34.3594,50.3281 Q34.1094,50.1563 34,49.7031 Q33.9531,49.3906 33.7813,49.2188 Q33.4688,48.8906 32.9063,48.7031 Q32.3438,48.5 31.7813,48.5 Q31.0781,48.5 30.4844,48.7813 Q29.9063,49.0625 29.4531,49.6875 Q29,50.3125 29,51.1719 L29,52.0938 Q29,53.125 29.8438,53.8125 Q30.6875,54.5 32.1875,54.5 Q33.0781,54.5 33.7031,54.2969 Q34.0625,54.1875 34.4688,53.8281 Q34.7344,53.625 34.875,53.5625 Q35.0156,53.5 35.1875,53.5 Q35.5156,53.5 35.75,53.7656 Q36,54.0156 36,54.375 Q36,54.7188 35.6563,55.125 Q35.1563,55.7188 34.3594,56.0469 Q33.3125,56.5 32.0313,56.5 Q30.5313,56.5 29.3281,55.9063 Q28.3594,55.4375 27.6719,54.4219 Q27,53.4063 27,52.2031 L27,51.1094 Q27,49.8594 27.5938,48.7656 Q28.2031,47.6719 29.25,47.0938 Q30.3125,46.5 31.5,46.5 Q32.2188,46.5 32.8438,46.75 Q33.4688,47 34,47.5 Z " fill="#000000"/><text fill="#000000" font-family="sans-serif" font-size="14" lengthAdjust="spacing" textLength="78" x="46" y="56.7285">Receptionist</text><line style="stroke:#181818;stroke-width:0.5;" x1="18" x2="126" y1="67" y2="67"/><line style="stroke:#181818;stroke-width:0.5;" x1="18" x2="126" y1="75" y2="75"/></g><!--MD5=[2d935fd2dd068a13da1ae531f9857c4f]
class CenterCoordinator--><g id="elem_CenterCoordinator"><rect codeLine="32" fill="#F1F1F1" height="48" id="CenterCoordinator" rx="2.5" ry="2.5" style="stroke:#181818;stroke-width:0.5;" width="150" x="260" y="458"/><ellipse cx="275" cy="474" fill="#ADD1B2" rx="11" ry="11" style="stroke:#181818;stroke-width:1.0;"/><path d="M277,470.5 Q277.2031,470 277.4375,469.75 Q277.6719,469.5 277.9375,469.5 Q278.4063,469.5 278.7031,469.7813 Q279,470.0625 279,470.7188 L279,472.2813 Q279,472.9375 278.7188,473.2188 Q278.4375,473.5 278,473.5 Q277.6094,473.5 277.3594,473.3281 Q277.1094,473.1563 277,472.7031 Q276.9531,472.3906 276.7813,472.2188 Q276.4688,471.8906 275.9063,471.7031 Q275.3438,471.5 274.7813,471.5 Q274.0781,471.5 273.4844,471.7813 Q272.9063,472.0625 272.4531,472.6875 Q272,473.3125 272,474.1719 L272,475.0938 Q272,476.125 272.8438,476.8125 Q273.6875,477.5 275.1875,477.5 Q276.0781,477.5 276.7031,477.2969 Q277.0625,477.1875 277.4688,476.8281 Q277.7344,476.625 277.875,476.5625 Q278.0156,476.5 278.1875,476.5 Q278.5156,476.5 278.75,476.7656 Q279,477.0156 279,477.375 Q279,477.7188 278.6563,478.125 Q278.1563,478.7188 277.3594,479.0469 Q276.3125,479.5 275.0313,479.5 Q273.5313,479.5 272.3281,478.9063 Q271.3594,478.4375 270.6719,477.4219 Q270,476.4063 270,475.2031 L270,474.1094 Q270,472.8594 270.5938,471.7656 Q271.2031,470.6719 272.25,470.0938 Q273.3125,469.5 274.5,469.5 Q275.2188,469.5 275.8438,469.75 Q276.4688,470 277,470.5 Z " fill="#000000"/><text fill="#000000" font-family="sans-serif" font-size="14" lengthAdjust="spacing" textLength="118" x="289" y="479.7285">CenterCoordinator</text><line style="stroke:#181818;stroke-width:0.5;" x1="261" x2="409" y1="490" y2="490"/><line style="stroke:#181818;stroke-width:0.5;" x1="261" x2="409" y1="498" y2="498"/></g><!--MD5=[4d1d709ea04c932694b424a1dbd905a6]
class VaccinatonCenter--><g id="elem_VaccinatonCenter"><rect codeLine="47" fill="#F1F1F1" height="329.75" id="VaccinatonCenter" rx="2.5" ry="2.5" style="stroke:#181818;stroke-width:0.5;" width="196" x="2593" y="58"/><ellipse cx="2630.95" cy="74" fill="#ADD1B2" rx="11" ry="11" style="stroke:#181818;stroke-width:1.0;"/><path d="M2632.95,70.5 Q2633.1531,70 2633.3875,69.75 Q2633.6219,69.5 2633.8875,69.5 Q2634.3563,69.5 2634.6531,69.7813 Q2634.95,70.0625 2634.95,70.7188 L2634.95,72.2813 Q2634.95,72.9375 2634.6688,73.2188 Q2634.3875,73.5 2633.95,73.5 Q2633.5594,73.5 2633.3094,73.3281 Q2633.0594,73.1563 2632.95,72.7031 Q2632.9031,72.3906 2632.7313,72.2188 Q2632.4188,71.8906 2631.8563,71.7031 Q2631.2938,71.5 2630.7313,71.5 Q2630.0281,71.5 2629.4344,71.7813 Q2628.8563,72.0625 2628.4031,72.6875 Q2627.95,73.3125 2627.95,74.1719 L2627.95,75.0938 Q2627.95,76.125 2628.7938,76.8125 Q2629.6375,77.5 2631.1375,77.5 Q2632.0281,77.5 2632.6531,77.2969 Q2633.0125,77.1875 2633.4188,76.8281 Q2633.6844,76.625 2633.825,76.5625 Q2633.9656,76.5 2634.1375,76.5 Q2634.4656,76.5 2634.7,76.7656 Q2634.95,77.0156 2634.95,77.375 Q2634.95,77.7188 2634.6063,78.125 Q2634.1063,78.7188 2633.3094,79.0469 Q2632.2625,79.5 2630.9813,79.5 Q2629.4813,79.5 2628.2781,78.9063 Q2627.3094,78.4375 2626.6219,77.4219 Q2625.95,76.4063 2625.95,75.2031 L2625.95,74.1094 Q2625.95,72.8594 2626.5438,71.7656 Q2627.1531,70.6719 2628.2,70.0938 Q2629.2625,69.5 2630.45,69.5 Q2631.1688,69.5 2631.7938,69.75 Q2632.4188,70 2632.95,70.5 Z " fill="#000000"/><text fill="#000000" font-family="sans-serif" font-size="14" lengthAdjust="spacing" textLength="113" x="2650.05" y="79.7285">VaccinatonCenter</text><line style="stroke:#181818;stroke-width:0.5;" x1="2594" x2="2788" y1="90" y2="90"/><text fill="#000000" font-family="sans-serif" font-size="16" font-weight="bold" lengthAdjust="spacing" textLength="40" x="2599" y="110.6094">-intID</text><text fill="#000000" font-family="sans-serif" font-size="16" font-weight="bold" lengthAdjust="spacing" textLength="69" x="2599" y="130.7344">-strName</text><text fill="#000000" font-family="sans-serif" font-size="16" font-weight="bold" lengthAdjust="spacing" textLength="136" x="2599" y="150.8594">-strPhoneNumber</text><text fill="#000000" font-family="sans-serif" font-size="16" font-weight="bold" lengthAdjust="spacing" textLength="67" x="2599" y="170.9844">-strEmail</text><text fill="#000000" font-family="sans-serif" font-size="16" font-weight="bold" lengthAdjust="spacing" textLength="53" x="2599" y="191.1094">-strFax</text><text fill="#000000" font-family="sans-serif" font-size="16" font-weight="bold" lengthAdjust="spacing" textLength="86" x="2599" y="211.2344">-strWebsite</text><text fill="#000000" font-family="sans-serif" font-size="16" font-weight="bold" lengthAdjust="spacing" textLength="128" x="2599" y="231.3594">-strOpeningHour</text><text fill="#000000" font-family="sans-serif" font-size="16" font-weight="bold" lengthAdjust="spacing" textLength="122" x="2599" y="251.4844">-strClosingHour</text><text fill="#000000" font-family="sans-serif" font-size="16" font-weight="bold" lengthAdjust="spacing" textLength="121" x="2599" y="271.6094">-strSlotDuration</text><text fill="#000000" font-family="sans-serif" font-size="16" font-weight="bold" lengthAdjust="spacing" textLength="151" x="2599" y="291.7344">-strVaccinesPerSlot</text><text fill="#000000" font-family="sans-serif" font-size="16" font-weight="bold" lengthAdjust="spacing" textLength="66" x="2599" y="311.8594">-strRoad</text><text fill="#000000" font-family="sans-serif" font-size="16" font-weight="bold" lengthAdjust="spacing" textLength="89" x="2599" y="331.9844">-strZipCode</text><text fill="#000000" font-family="sans-serif" font-size="16" font-weight="bold" lengthAdjust="spacing" textLength="67" x="2599" y="352.1094">-strLocal</text><text fill="#000000" font-family="sans-serif" font-size="16" font-weight="bold" lengthAdjust="spacing" textLength="184" x="2599" y="372.2344">-strCenterCoordinatorID</text><line style="stroke:#181818;stroke-width:0.5;" x1="2594" x2="2788" y1="379.75" y2="379.75"/></g><!--MD5=[76480a6701b5d2883bc606a2560c3cfe]
class MassVaccinationCenter--><g id="elem_MassVaccinationCenter"><rect codeLine="64" fill="#F1F1F1" height="48" id="MassVaccinationCenter" rx="2.5" ry="2.5" style="stroke:#181818;stroke-width:0.5;" width="181" x="2850" y="147"/><ellipse cx="2865" cy="163" fill="#ADD1B2" rx="11" ry="11" style="stroke:#181818;stroke-width:1.0;"/><path d="M2867,159.5 Q2867.2031,159 2867.4375,158.75 Q2867.6719,158.5 2867.9375,158.5 Q2868.4063,158.5 2868.7031,158.7813 Q2869,159.0625 2869,159.7188 L2869,161.2813 Q2869,161.9375 2868.7188,162.2188 Q2868.4375,162.5 2868,162.5 Q2867.6094,162.5 2867.3594,162.3281 Q2867.1094,162.1563 2867,161.7031 Q2866.9531,161.3906 2866.7813,161.2188 Q2866.4688,160.8906 2865.9063,160.7031 Q2865.3438,160.5 2864.7813,160.5 Q2864.0781,160.5 2863.4844,160.7813 Q2862.9063,161.0625 2862.4531,161.6875 Q2862,162.3125 2862,163.1719 L2862,164.0938 Q2862,165.125 2862.8438,165.8125 Q2863.6875,166.5 2865.1875,166.5 Q2866.0781,166.5 2866.7031,166.2969 Q2867.0625,166.1875 2867.4688,165.8281 Q2867.7344,165.625 2867.875,165.5625 Q2868.0156,165.5 2868.1875,165.5 Q2868.5156,165.5 2868.75,165.7656 Q2869,166.0156 2869,166.375 Q2869,166.7188 2868.6563,167.125 Q2868.1563,167.7188 2867.3594,168.0469 Q2866.3125,168.5 2865.0313,168.5 Q2863.5313,168.5 2862.3281,167.9063 Q2861.3594,167.4375 2860.6719,166.4219 Q2860,165.4063 2860,164.2031 L2860,163.1094 Q2860,161.8594 2860.5938,160.7656 Q2861.2031,159.6719 2862.25,159.0938 Q2863.3125,158.5 2864.5,158.5 Q2865.2188,158.5 2865.8438,158.75 Q2866.4688,159 2867,159.5 Z " fill="#000000"/><text fill="#000000" font-family="sans-serif" font-size="14" lengthAdjust="spacing" textLength="149" x="2879" y="168.7285">MassVaccinationCenter</text><line style="stroke:#181818;stroke-width:0.5;" x1="2851" x2="3030" y1="179" y2="179"/><line style="stroke:#181818;stroke-width:0.5;" x1="2851" x2="3030" y1="187" y2="187"/></g><!--MD5=[0b1ce5251ebf137e6b3550dd84e6af65]
class HealthcareCenter--><g id="elem_HealthcareCenter"><rect codeLine="68" fill="#F1F1F1" height="88.25" id="HealthcareCenter" rx="2.5" ry="2.5" style="stroke:#181818;stroke-width:0.5;" width="143" x="2869" y="230"/><ellipse cx="2884" cy="246" fill="#ADD1B2" rx="11" ry="11" style="stroke:#181818;stroke-width:1.0;"/><path d="M2886,242.5 Q2886.2031,242 2886.4375,241.75 Q2886.6719,241.5 2886.9375,241.5 Q2887.4063,241.5 2887.7031,241.7813 Q2888,242.0625 2888,242.7188 L2888,244.2813 Q2888,244.9375 2887.7188,245.2188 Q2887.4375,245.5 2887,245.5 Q2886.6094,245.5 2886.3594,245.3281 Q2886.1094,245.1563 2886,244.7031 Q2885.9531,244.3906 2885.7813,244.2188 Q2885.4688,243.8906 2884.9063,243.7031 Q2884.3438,243.5 2883.7813,243.5 Q2883.0781,243.5 2882.4844,243.7813 Q2881.9063,244.0625 2881.4531,244.6875 Q2881,245.3125 2881,246.1719 L2881,247.0938 Q2881,248.125 2881.8438,248.8125 Q2882.6875,249.5 2884.1875,249.5 Q2885.0781,249.5 2885.7031,249.2969 Q2886.0625,249.1875 2886.4688,248.8281 Q2886.7344,248.625 2886.875,248.5625 Q2887.0156,248.5 2887.1875,248.5 Q2887.5156,248.5 2887.75,248.7656 Q2888,249.0156 2888,249.375 Q2888,249.7188 2887.6563,250.125 Q2887.1563,250.7188 2886.3594,251.0469 Q2885.3125,251.5 2884.0313,251.5 Q2882.5313,251.5 2881.3281,250.9063 Q2880.3594,250.4375 2879.6719,249.4219 Q2879,248.4063 2879,247.2031 L2879,246.1094 Q2879,244.8594 2879.5938,243.7656 Q2880.2031,242.6719 2881.25,242.0938 Q2882.3125,241.5 2883.5,241.5 Q2884.2188,241.5 2884.8438,241.75 Q2885.4688,242 2886,242.5 Z " fill="#000000"/><text fill="#000000" font-family="sans-serif" font-size="14" lengthAdjust="spacing" textLength="111" x="2898" y="251.7285">HealthcareCenter</text><line style="stroke:#181818;stroke-width:0.5;" x1="2870" x2="3011" y1="262" y2="262"/><text fill="#000000" font-family="sans-serif" font-size="16" font-weight="bold" lengthAdjust="spacing" textLength="39" x="2875" y="282.6094">-ARE</text><text fill="#000000" font-family="sans-serif" font-size="16" font-weight="bold" lengthAdjust="spacing" textLength="50" x="2875" y="302.7344">-AGES</text><line style="stroke:#181818;stroke-width:0.5;" x1="2870" x2="3011" y1="310.25" y2="310.25"/></g><!--MD5=[19e445fc4d3b48519cbe33da05496394]
class Vaccine--><g id="elem_Vaccine"><rect codeLine="73" fill="#F1F1F1" height="68.125" id="Vaccine" rx="2.5" ry="2.5" style="stroke:#181818;stroke-width:0.5;" width="82" x="2071.5" y="267"/><ellipse cx="2086.5" cy="283" fill="#ADD1B2" rx="11" ry="11" style="stroke:#181818;stroke-width:1.0;"/><path d="M2088.5,279.5 Q2088.7031,279 2088.9375,278.75 Q2089.1719,278.5 2089.4375,278.5 Q2089.9063,278.5 2090.2031,278.7813 Q2090.5,279.0625 2090.5,279.7188 L2090.5,281.2813 Q2090.5,281.9375 2090.2188,282.2188 Q2089.9375,282.5 2089.5,282.5 Q2089.1094,282.5 2088.8594,282.3281 Q2088.6094,282.1563 2088.5,281.7031 Q2088.4531,281.3906 2088.2813,281.2188 Q2087.9688,280.8906 2087.4063,280.7031 Q2086.8438,280.5 2086.2813,280.5 Q2085.5781,280.5 2084.9844,280.7813 Q2084.4063,281.0625 2083.9531,281.6875 Q2083.5,282.3125 2083.5,283.1719 L2083.5,284.0938 Q2083.5,285.125 2084.3438,285.8125 Q2085.1875,286.5 2086.6875,286.5 Q2087.5781,286.5 2088.2031,286.2969 Q2088.5625,286.1875 2088.9688,285.8281 Q2089.2344,285.625 2089.375,285.5625 Q2089.5156,285.5 2089.6875,285.5 Q2090.0156,285.5 2090.25,285.7656 Q2090.5,286.0156 2090.5,286.375 Q2090.5,286.7188 2090.1563,287.125 Q2089.6563,287.7188 2088.8594,288.0469 Q2087.8125,288.5 2086.5313,288.5 Q2085.0313,288.5 2083.8281,287.9063 Q2082.8594,287.4375 2082.1719,286.4219 Q2081.5,285.4063 2081.5,284.2031 L2081.5,283.1094 Q2081.5,281.8594 2082.0938,280.7656 Q2082.7031,279.6719 2083.75,279.0938 Q2084.8125,278.5 2086,278.5 Q2086.7188,278.5 2087.3438,278.75 Q2087.9688,279 2088.5,279.5 Z " fill="#000000"/><text fill="#000000" font-family="sans-serif" font-size="14" lengthAdjust="spacing" textLength="50" x="2100.5" y="288.7285">Vaccine</text><line style="stroke:#181818;stroke-width:0.5;" x1="2072.5" x2="2152.5" y1="299" y2="299"/><text fill="#000000" font-family="sans-serif" font-size="16" font-weight="bold" lengthAdjust="spacing" textLength="50" x="2077.5" y="319.6094">-brand</text><line style="stroke:#181818;stroke-width:0.5;" x1="2072.5" x2="2152.5" y1="327.125" y2="327.125"/></g><!--MD5=[1a3e15371b673e3affce56c749ee055f]
class DosageScheme--><g id="elem_DosageScheme"><rect codeLine="77" fill="#F1F1F1" height="128.5" id="DosageScheme" rx="2.5" ry="2.5" style="stroke:#181818;stroke-width:0.5;" width="210" x="2287" y="293"/><ellipse cx="2337.75" cy="309" fill="#ADD1B2" rx="11" ry="11" style="stroke:#181818;stroke-width:1.0;"/><path d="M2339.75,305.5 Q2339.9531,305 2340.1875,304.75 Q2340.4219,304.5 2340.6875,304.5 Q2341.1563,304.5 2341.4531,304.7813 Q2341.75,305.0625 2341.75,305.7188 L2341.75,307.2813 Q2341.75,307.9375 2341.4688,308.2188 Q2341.1875,308.5 2340.75,308.5 Q2340.3594,308.5 2340.1094,308.3281 Q2339.8594,308.1563 2339.75,307.7031 Q2339.7031,307.3906 2339.5313,307.2188 Q2339.2188,306.8906 2338.6563,306.7031 Q2338.0938,306.5 2337.5313,306.5 Q2336.8281,306.5 2336.2344,306.7813 Q2335.6563,307.0625 2335.2031,307.6875 Q2334.75,308.3125 2334.75,309.1719 L2334.75,310.0938 Q2334.75,311.125 2335.5938,311.8125 Q2336.4375,312.5 2337.9375,312.5 Q2338.8281,312.5 2339.4531,312.2969 Q2339.8125,312.1875 2340.2188,311.8281 Q2340.4844,311.625 2340.625,311.5625 Q2340.7656,311.5 2340.9375,311.5 Q2341.2656,311.5 2341.5,311.7656 Q2341.75,312.0156 2341.75,312.375 Q2341.75,312.7188 2341.4063,313.125 Q2340.9063,313.7188 2340.1094,314.0469 Q2339.0625,314.5 2337.7813,314.5 Q2336.2813,314.5 2335.0781,313.9063 Q2334.1094,313.4375 2333.4219,312.4219 Q2332.75,311.4063 2332.75,310.2031 L2332.75,309.1094 Q2332.75,307.8594 2333.3438,306.7656 Q2333.9531,305.6719 2335,305.0938 Q2336.0625,304.5 2337.25,304.5 Q2337.9688,304.5 2338.5938,304.75 Q2339.2188,305 2339.75,305.5 Z " fill="#000000"/><text fill="#000000" font-family="sans-serif" font-size="14" lengthAdjust="spacing" textLength="100" x="2358.25" y="314.7285">DosageScheme</text><line style="stroke:#181818;stroke-width:0.5;" x1="2288" x2="2496" y1="325" y2="325"/><text fill="#000000" font-family="sans-serif" font-size="16" font-weight="bold" lengthAdjust="spacing" textLength="130" x="2293" y="345.6094">-numberOfDoses</text><text fill="#000000" font-family="sans-serif" font-size="16" font-weight="bold" lengthAdjust="spacing" textLength="62" x="2293" y="365.7344">-dosage</text><text fill="#000000" font-family="sans-serif" font-size="16" font-weight="bold" lengthAdjust="spacing" textLength="33" x="2293" y="385.8594">-age</text><text fill="#000000" font-family="sans-serif" font-size="16" font-weight="bold" lengthAdjust="spacing" textLength="198" x="2293" y="405.9844">-intervalBetweenVaccines</text><line style="stroke:#181818;stroke-width:0.5;" x1="2288" x2="2496" y1="413.5" y2="413.5"/></g><!--MD5=[ad32b904b2f122cc39e054e9c13e36ab]
class TypeOfVaccine--><g id="elem_TypeOfVaccine"><rect codeLine="84" fill="#F1F1F1" height="68.125" id="TypeOfVaccine" rx="2.5" ry="2.5" style="stroke:#181818;stroke-width:0.5;" width="129" x="1722" y="267"/><ellipse cx="1737" cy="283" fill="#ADD1B2" rx="11" ry="11" style="stroke:#181818;stroke-width:1.0;"/><path d="M1739,279.5 Q1739.2031,279 1739.4375,278.75 Q1739.6719,278.5 1739.9375,278.5 Q1740.4063,278.5 1740.7031,278.7813 Q1741,279.0625 1741,279.7188 L1741,281.2813 Q1741,281.9375 1740.7188,282.2188 Q1740.4375,282.5 1740,282.5 Q1739.6094,282.5 1739.3594,282.3281 Q1739.1094,282.1563 1739,281.7031 Q1738.9531,281.3906 1738.7813,281.2188 Q1738.4688,280.8906 1737.9063,280.7031 Q1737.3438,280.5 1736.7813,280.5 Q1736.0781,280.5 1735.4844,280.7813 Q1734.9063,281.0625 1734.4531,281.6875 Q1734,282.3125 1734,283.1719 L1734,284.0938 Q1734,285.125 1734.8438,285.8125 Q1735.6875,286.5 1737.1875,286.5 Q1738.0781,286.5 1738.7031,286.2969 Q1739.0625,286.1875 1739.4688,285.8281 Q1739.7344,285.625 1739.875,285.5625 Q1740.0156,285.5 1740.1875,285.5 Q1740.5156,285.5 1740.75,285.7656 Q1741,286.0156 1741,286.375 Q1741,286.7188 1740.6563,287.125 Q1740.1563,287.7188 1739.3594,288.0469 Q1738.3125,288.5 1737.0313,288.5 Q1735.5313,288.5 1734.3281,287.9063 Q1733.3594,287.4375 1732.6719,286.4219 Q1732,285.4063 1732,284.2031 L1732,283.1094 Q1732,281.8594 1732.5938,280.7656 Q1733.2031,279.6719 1734.25,279.0938 Q1735.3125,278.5 1736.5,278.5 Q1737.2188,278.5 1737.8438,278.75 Q1738.4688,279 1739,279.5 Z " fill="#000000"/><text fill="#000000" font-family="sans-serif" font-size="14" lengthAdjust="spacing" textLength="97" x="1751" y="288.7285">TypeOfVaccine</text><line style="stroke:#181818;stroke-width:0.5;" x1="1723" x2="1850" y1="299" y2="299"/><text fill="#000000" font-family="sans-serif" font-size="16" font-weight="bold" lengthAdjust="spacing" textLength="43" x="1728" y="319.6094">-virus</text><line style="stroke:#181818;stroke-width:0.5;" x1="1723" x2="1850" y1="327.125" y2="327.125"/></g><!--MD5=[80a03012b5333e72487751e45bd40e3d]
class DigitalCertificate--><g id="elem_DigitalCertificate"><rect codeLine="93" fill="#F1F1F1" height="48" id="DigitalCertificate" rx="2.5" ry="2.5" style="stroke:#181818;stroke-width:0.5;" width="135" x="2045" y="7"/><ellipse cx="2060" cy="23" fill="#ADD1B2" rx="11" ry="11" style="stroke:#181818;stroke-width:1.0;"/><path d="M2062,19.5 Q2062.2031,19 2062.4375,18.75 Q2062.6719,18.5 2062.9375,18.5 Q2063.4063,18.5 2063.7031,18.7813 Q2064,19.0625 2064,19.7188 L2064,21.2813 Q2064,21.9375 2063.7188,22.2188 Q2063.4375,22.5 2063,22.5 Q2062.6094,22.5 2062.3594,22.3281 Q2062.1094,22.1563 2062,21.7031 Q2061.9531,21.3906 2061.7813,21.2188 Q2061.4688,20.8906 2060.9063,20.7031 Q2060.3438,20.5 2059.7813,20.5 Q2059.0781,20.5 2058.4844,20.7813 Q2057.9063,21.0625 2057.4531,21.6875 Q2057,22.3125 2057,23.1719 L2057,24.0938 Q2057,25.125 2057.8438,25.8125 Q2058.6875,26.5 2060.1875,26.5 Q2061.0781,26.5 2061.7031,26.2969 Q2062.0625,26.1875 2062.4688,25.8281 Q2062.7344,25.625 2062.875,25.5625 Q2063.0156,25.5 2063.1875,25.5 Q2063.5156,25.5 2063.75,25.7656 Q2064,26.0156 2064,26.375 Q2064,26.7188 2063.6563,27.125 Q2063.1563,27.7188 2062.3594,28.0469 Q2061.3125,28.5 2060.0313,28.5 Q2058.5313,28.5 2057.3281,27.9063 Q2056.3594,27.4375 2055.6719,26.4219 Q2055,25.4063 2055,24.2031 L2055,23.1094 Q2055,21.8594 2055.5938,20.7656 Q2056.2031,19.6719 2057.25,19.0938 Q2058.3125,18.5 2059.5,18.5 Q2060.2188,18.5 2060.8438,18.75 Q2061.4688,19 2062,19.5 Z " fill="#000000"/><text fill="#000000" font-family="sans-serif" font-size="14" lengthAdjust="spacing" textLength="103" x="2074" y="28.7285">DigitalCertificate</text><line style="stroke:#181818;stroke-width:0.5;" x1="2046" x2="2179" y1="39" y2="39"/><line style="stroke:#181818;stroke-width:0.5;" x1="2046" x2="2179" y1="47" y2="47"/></g><!--MD5=[cf1ec8291adc4f100e491a8c336ca0ac]
class VaccineAppointment--><g id="elem_VaccineAppointment"><rect codeLine="98" fill="#F1F1F1" height="48" id="VaccineAppointment" rx="2.5" ry="2.5" style="stroke:#181818;stroke-width:0.5;" width="161" x="1706" y="101"/><ellipse cx="1721" cy="117" fill="#ADD1B2" rx="11" ry="11" style="stroke:#181818;stroke-width:1.0;"/><path d="M1723,113.5 Q1723.2031,113 1723.4375,112.75 Q1723.6719,112.5 1723.9375,112.5 Q1724.4063,112.5 1724.7031,112.7813 Q1725,113.0625 1725,113.7188 L1725,115.2813 Q1725,115.9375 1724.7188,116.2188 Q1724.4375,116.5 1724,116.5 Q1723.6094,116.5 1723.3594,116.3281 Q1723.1094,116.1563 1723,115.7031 Q1722.9531,115.3906 1722.7813,115.2188 Q1722.4688,114.8906 1721.9063,114.7031 Q1721.3438,114.5 1720.7813,114.5 Q1720.0781,114.5 1719.4844,114.7813 Q1718.9063,115.0625 1718.4531,115.6875 Q1718,116.3125 1718,117.1719 L1718,118.0938 Q1718,119.125 1718.8438,119.8125 Q1719.6875,120.5 1721.1875,120.5 Q1722.0781,120.5 1722.7031,120.2969 Q1723.0625,120.1875 1723.4688,119.8281 Q1723.7344,119.625 1723.875,119.5625 Q1724.0156,119.5 1724.1875,119.5 Q1724.5156,119.5 1724.75,119.7656 Q1725,120.0156 1725,120.375 Q1725,120.7188 1724.6563,121.125 Q1724.1563,121.7188 1723.3594,122.0469 Q1722.3125,122.5 1721.0313,122.5 Q1719.5313,122.5 1718.3281,121.9063 Q1717.3594,121.4375 1716.6719,120.4219 Q1716,119.4063 1716,118.2031 L1716,117.1094 Q1716,115.8594 1716.5938,114.7656 Q1717.2031,113.6719 1718.25,113.0938 Q1719.3125,112.5 1720.5,112.5 Q1721.2188,112.5 1721.8438,112.75 Q1722.4688,113 1723,113.5 Z " fill="#000000"/><text fill="#000000" font-family="sans-serif" font-size="14" lengthAdjust="spacing" textLength="129" x="1735" y="122.7285">VaccineAppointment</text><line style="stroke:#181818;stroke-width:0.5;" x1="1707" x2="1866" y1="133" y2="133"/><line style="stroke:#181818;stroke-width:0.5;" x1="1707" x2="1866" y1="141" y2="141"/></g><!--MD5=[7cee63e05c54fc7e82ca7f101606cdb1]
class UsersWaitingList--><g id="elem_UsersWaitingList"><rect codeLine="104" fill="#F1F1F1" height="48" id="UsersWaitingList" rx="2.5" ry="2.5" style="stroke:#181818;stroke-width:0.5;" width="137" x="846" y="182"/><ellipse cx="861" cy="198" fill="#ADD1B2" rx="11" ry="11" style="stroke:#181818;stroke-width:1.0;"/><path d="M863,194.5 Q863.2031,194 863.4375,193.75 Q863.6719,193.5 863.9375,193.5 Q864.4063,193.5 864.7031,193.7813 Q865,194.0625 865,194.7188 L865,196.2813 Q865,196.9375 864.7188,197.2188 Q864.4375,197.5 864,197.5 Q863.6094,197.5 863.3594,197.3281 Q863.1094,197.1563 863,196.7031 Q862.9531,196.3906 862.7813,196.2188 Q862.4688,195.8906 861.9063,195.7031 Q861.3438,195.5 860.7813,195.5 Q860.0781,195.5 859.4844,195.7813 Q858.9063,196.0625 858.4531,196.6875 Q858,197.3125 858,198.1719 L858,199.0938 Q858,200.125 858.8438,200.8125 Q859.6875,201.5 861.1875,201.5 Q862.0781,201.5 862.7031,201.2969 Q863.0625,201.1875 863.4688,200.8281 Q863.7344,200.625 863.875,200.5625 Q864.0156,200.5 864.1875,200.5 Q864.5156,200.5 864.75,200.7656 Q865,201.0156 865,201.375 Q865,201.7188 864.6563,202.125 Q864.1563,202.7188 863.3594,203.0469 Q862.3125,203.5 861.0313,203.5 Q859.5313,203.5 858.3281,202.9063 Q857.3594,202.4375 856.6719,201.4219 Q856,200.4063 856,199.2031 L856,198.1094 Q856,196.8594 856.5938,195.7656 Q857.2031,194.6719 858.25,194.0938 Q859.3125,193.5 860.5,193.5 Q861.2188,193.5 861.8438,193.75 Q862.4688,194 863,194.5 Z " fill="#000000"/><text fill="#000000" font-family="sans-serif" font-size="14" lengthAdjust="spacing" textLength="105" x="875" y="203.7285">UsersWaitingList</text><line style="stroke:#181818;stroke-width:0.5;" x1="847" x2="982" y1="214" y2="214"/><line style="stroke:#181818;stroke-width:0.5;" x1="847" x2="982" y1="222" y2="222"/></g><!--MD5=[9e94af7e26ddd61f16675ec5a7d7b75f]
class UserInfo--><g id="elem_UserInfo"><rect codeLine="105" fill="#F1F1F1" height="48" id="UserInfo" rx="2.5" ry="2.5" style="stroke:#181818;stroke-width:0.5;" width="84" x="1744.5" y="184"/><ellipse cx="1759.5" cy="200" fill="#ADD1B2" rx="11" ry="11" style="stroke:#181818;stroke-width:1.0;"/><path d="M1761.5,196.5 Q1761.7031,196 1761.9375,195.75 Q1762.1719,195.5 1762.4375,195.5 Q1762.9063,195.5 1763.2031,195.7813 Q1763.5,196.0625 1763.5,196.7188 L1763.5,198.2813 Q1763.5,198.9375 1763.2188,199.2188 Q1762.9375,199.5 1762.5,199.5 Q1762.1094,199.5 1761.8594,199.3281 Q1761.6094,199.1563 1761.5,198.7031 Q1761.4531,198.3906 1761.2813,198.2188 Q1760.9688,197.8906 1760.4063,197.7031 Q1759.8438,197.5 1759.2813,197.5 Q1758.5781,197.5 1757.9844,197.7813 Q1757.4063,198.0625 1756.9531,198.6875 Q1756.5,199.3125 1756.5,200.1719 L1756.5,201.0938 Q1756.5,202.125 1757.3438,202.8125 Q1758.1875,203.5 1759.6875,203.5 Q1760.5781,203.5 1761.2031,203.2969 Q1761.5625,203.1875 1761.9688,202.8281 Q1762.2344,202.625 1762.375,202.5625 Q1762.5156,202.5 1762.6875,202.5 Q1763.0156,202.5 1763.25,202.7656 Q1763.5,203.0156 1763.5,203.375 Q1763.5,203.7188 1763.1563,204.125 Q1762.6563,204.7188 1761.8594,205.0469 Q1760.8125,205.5 1759.5313,205.5 Q1758.0313,205.5 1756.8281,204.9063 Q1755.8594,204.4375 1755.1719,203.4219 Q1754.5,202.4063 1754.5,201.2031 L1754.5,200.1094 Q1754.5,198.8594 1755.0938,197.7656 Q1755.7031,196.6719 1756.75,196.0938 Q1757.8125,195.5 1759,195.5 Q1759.7188,195.5 1760.3438,195.75 Q1760.9688,196 1761.5,196.5 Z " fill="#000000"/><text fill="#000000" font-family="sans-serif" font-size="14" lengthAdjust="spacing" textLength="52" x="1773.5" y="205.7285">UserInfo</text><line style="stroke:#181818;stroke-width:0.5;" x1="1745.5" x2="1827.5" y1="216" y2="216"/><line style="stroke:#181818;stroke-width:0.5;" x1="1745.5" x2="1827.5" y1="224" y2="224"/></g><!--MD5=[0a6389d85244b33bdfdb792108db6bc1]
class GivenVaccine--><g id="elem_GivenVaccine"><rect codeLine="116" fill="#F1F1F1" height="48" id="GivenVaccine" rx="2.5" ry="2.5" style="stroke:#181818;stroke-width:0.5;" width="119" x="275.5" y="253"/><ellipse cx="290.5" cy="269" fill="#ADD1B2" rx="11" ry="11" style="stroke:#181818;stroke-width:1.0;"/><path d="M292.5,265.5 Q292.7031,265 292.9375,264.75 Q293.1719,264.5 293.4375,264.5 Q293.9063,264.5 294.2031,264.7813 Q294.5,265.0625 294.5,265.7188 L294.5,267.2813 Q294.5,267.9375 294.2188,268.2188 Q293.9375,268.5 293.5,268.5 Q293.1094,268.5 292.8594,268.3281 Q292.6094,268.1563 292.5,267.7031 Q292.4531,267.3906 292.2813,267.2188 Q291.9688,266.8906 291.4063,266.7031 Q290.8438,266.5 290.2813,266.5 Q289.5781,266.5 288.9844,266.7813 Q288.4063,267.0625 287.9531,267.6875 Q287.5,268.3125 287.5,269.1719 L287.5,270.0938 Q287.5,271.125 288.3438,271.8125 Q289.1875,272.5 290.6875,272.5 Q291.5781,272.5 292.2031,272.2969 Q292.5625,272.1875 292.9688,271.8281 Q293.2344,271.625 293.375,271.5625 Q293.5156,271.5 293.6875,271.5 Q294.0156,271.5 294.25,271.7656 Q294.5,272.0156 294.5,272.375 Q294.5,272.7188 294.1563,273.125 Q293.6563,273.7188 292.8594,274.0469 Q291.8125,274.5 290.5313,274.5 Q289.0313,274.5 287.8281,273.9063 Q286.8594,273.4375 286.1719,272.4219 Q285.5,271.4063 285.5,270.2031 L285.5,269.1094 Q285.5,267.8594 286.0938,266.7656 Q286.7031,265.6719 287.75,265.0938 Q288.8125,264.5 290,264.5 Q290.7188,264.5 291.3438,264.75 Q291.9688,265 292.5,265.5 Z " fill="#000000"/><text fill="#000000" font-family="sans-serif" font-size="14" lengthAdjust="spacing" textLength="87" x="304.5" y="274.7285">GivenVaccine</text><line style="stroke:#181818;stroke-width:0.5;" x1="276.5" x2="393.5" y1="285" y2="285"/><line style="stroke:#181818;stroke-width:0.5;" x1="276.5" x2="393.5" y1="293" y2="293"/></g><!--MD5=[605056f3b750e89e8a7ae3805405579b]
class AdverseReactions--><g id="elem_AdverseReactions"><rect codeLine="117" fill="#F1F1F1" height="48" id="AdverseReactions" rx="2.5" ry="2.5" style="stroke:#181818;stroke-width:0.5;" width="147" x="261.5" y="375"/><ellipse cx="276.5" cy="391" fill="#ADD1B2" rx="11" ry="11" style="stroke:#181818;stroke-width:1.0;"/><path d="M278.5,387.5 Q278.7031,387 278.9375,386.75 Q279.1719,386.5 279.4375,386.5 Q279.9063,386.5 280.2031,386.7813 Q280.5,387.0625 280.5,387.7188 L280.5,389.2813 Q280.5,389.9375 280.2188,390.2188 Q279.9375,390.5 279.5,390.5 Q279.1094,390.5 278.8594,390.3281 Q278.6094,390.1563 278.5,389.7031 Q278.4531,389.3906 278.2813,389.2188 Q277.9688,388.8906 277.4063,388.7031 Q276.8438,388.5 276.2813,388.5 Q275.5781,388.5 274.9844,388.7813 Q274.4063,389.0625 273.9531,389.6875 Q273.5,390.3125 273.5,391.1719 L273.5,392.0938 Q273.5,393.125 274.3438,393.8125 Q275.1875,394.5 276.6875,394.5 Q277.5781,394.5 278.2031,394.2969 Q278.5625,394.1875 278.9688,393.8281 Q279.2344,393.625 279.375,393.5625 Q279.5156,393.5 279.6875,393.5 Q280.0156,393.5 280.25,393.7656 Q280.5,394.0156 280.5,394.375 Q280.5,394.7188 280.1563,395.125 Q279.6563,395.7188 278.8594,396.0469 Q277.8125,396.5 276.5313,396.5 Q275.0313,396.5 273.8281,395.9063 Q272.8594,395.4375 272.1719,394.4219 Q271.5,393.4063 271.5,392.2031 L271.5,391.1094 Q271.5,389.8594 272.0938,388.7656 Q272.7031,387.6719 273.75,387.0938 Q274.8125,386.5 276,386.5 Q276.7188,386.5 277.3438,386.75 Q277.9688,387 278.5,387.5 Z " fill="#000000"/><text fill="#000000" font-family="sans-serif" font-size="14" lengthAdjust="spacing" textLength="115" x="290.5" y="396.7285">AdverseReactions</text><line style="stroke:#181818;stroke-width:0.5;" x1="262.5" x2="407.5" y1="407" y2="407"/><line style="stroke:#181818;stroke-width:0.5;" x1="262.5" x2="407.5" y1="415" y2="415"/></g><ellipse cx="335" cy="338" fill="#000000" rx="2" ry="2" style="stroke:none;stroke-width:1.0;"/><!--MD5=[944ecf1b0032c0733312c6ea9b33e13a]
class ManageVaccinationProcess--><g id="elem_ManageVaccinationProcess"><rect codeLine="123" fill="#F1F1F1" height="48" id="ManageVaccinationProcess" rx="2.5" ry="2.5" style="stroke:#181818;stroke-width:0.5;" width="207" x="522" y="527"/><ellipse cx="537" cy="543" fill="#ADD1B2" rx="11" ry="11" style="stroke:#181818;stroke-width:1.0;"/><path d="M539,539.5 Q539.2031,539 539.4375,538.75 Q539.6719,538.5 539.9375,538.5 Q540.4063,538.5 540.7031,538.7813 Q541,539.0625 541,539.7188 L541,541.2813 Q541,541.9375 540.7188,542.2188 Q540.4375,542.5 540,542.5 Q539.6094,542.5 539.3594,542.3281 Q539.1094,542.1563 539,541.7031 Q538.9531,541.3906 538.7813,541.2188 Q538.4688,540.8906 537.9063,540.7031 Q537.3438,540.5 536.7813,540.5 Q536.0781,540.5 535.4844,540.7813 Q534.9063,541.0625 534.4531,541.6875 Q534,542.3125 534,543.1719 L534,544.0938 Q534,545.125 534.8438,545.8125 Q535.6875,546.5 537.1875,546.5 Q538.0781,546.5 538.7031,546.2969 Q539.0625,546.1875 539.4688,545.8281 Q539.7344,545.625 539.875,545.5625 Q540.0156,545.5 540.1875,545.5 Q540.5156,545.5 540.75,545.7656 Q541,546.0156 541,546.375 Q541,546.7188 540.6563,547.125 Q540.1563,547.7188 539.3594,548.0469 Q538.3125,548.5 537.0313,548.5 Q535.5313,548.5 534.3281,547.9063 Q533.3594,547.4375 532.6719,546.4219 Q532,545.4063 532,544.2031 L532,543.1094 Q532,541.8594 532.5938,540.7656 Q533.2031,539.6719 534.25,539.0938 Q535.3125,538.5 536.5,538.5 Q537.2188,538.5 537.8438,538.75 Q538.4688,539 539,539.5 Z " fill="#000000"/><text fill="#000000" font-family="sans-serif" font-size="14" lengthAdjust="spacing" textLength="175" x="551" y="548.7285">ManageVaccinationProcess</text><line style="stroke:#181818;stroke-width:0.5;" x1="523" x2="728" y1="559" y2="559"/><line style="stroke:#181818;stroke-width:0.5;" x1="523" x2="728" y1="567" y2="567"/></g><!--MD5=[0b4e4b4980470ea387cc45de9bd14b5b]
class Application--><g id="elem_Application"><rect codeLine="128" fill="#F1F1F1" height="48" id="Application" rx="2.5" ry="2.5" style="stroke:#181818;stroke-width:0.5;" width="101" x="1044" y="273"/><ellipse cx="1059" cy="289" fill="#ADD1B2" rx="11" ry="11" style="stroke:#181818;stroke-width:1.0;"/><path d="M1061,285.5 Q1061.2031,285 1061.4375,284.75 Q1061.6719,284.5 1061.9375,284.5 Q1062.4063,284.5 1062.7031,284.7813 Q1063,285.0625 1063,285.7188 L1063,287.2813 Q1063,287.9375 1062.7188,288.2188 Q1062.4375,288.5 1062,288.5 Q1061.6094,288.5 1061.3594,288.3281 Q1061.1094,288.1563 1061,287.7031 Q1060.9531,287.3906 1060.7813,287.2188 Q1060.4688,286.8906 1059.9063,286.7031 Q1059.3438,286.5 1058.7813,286.5 Q1058.0781,286.5 1057.4844,286.7813 Q1056.9063,287.0625 1056.4531,287.6875 Q1056,288.3125 1056,289.1719 L1056,290.0938 Q1056,291.125 1056.8438,291.8125 Q1057.6875,292.5 1059.1875,292.5 Q1060.0781,292.5 1060.7031,292.2969 Q1061.0625,292.1875 1061.4688,291.8281 Q1061.7344,291.625 1061.875,291.5625 Q1062.0156,291.5 1062.1875,291.5 Q1062.5156,291.5 1062.75,291.7656 Q1063,292.0156 1063,292.375 Q1063,292.7188 1062.6563,293.125 Q1062.1563,293.7188 1061.3594,294.0469 Q1060.3125,294.5 1059.0313,294.5 Q1057.5313,294.5 1056.3281,293.9063 Q1055.3594,293.4375 1054.6719,292.4219 Q1054,291.4063 1054,290.2031 L1054,289.1094 Q1054,287.8594 1054.5938,286.7656 Q1055.2031,285.6719 1056.25,285.0938 Q1057.3125,284.5 1058.5,284.5 Q1059.2188,284.5 1059.8438,284.75 Q1060.4688,285 1061,285.5 Z " fill="#000000"/><text fill="#000000" font-family="sans-serif" font-size="14" lengthAdjust="spacing" textLength="69" x="1073" y="294.7285">Application</text><line style="stroke:#181818;stroke-width:0.5;" x1="1045" x2="1144" y1="305" y2="305"/><line style="stroke:#181818;stroke-width:0.5;" x1="1045" x2="1144" y1="313" y2="313"/></g><!--MD5=[a13ca6a63a04f520383aacb00972fb48]
class EntriesAndExitsList--><g id="elem_EntriesAndExitsList"><rect codeLine="129" fill="#F1F1F1" height="48" id="EntriesAndExitsList" rx="2.5" ry="2.5" style="stroke:#181818;stroke-width:0.5;" width="152" x="2316" y="122"/><ellipse cx="2331" cy="138" fill="#ADD1B2" rx="11" ry="11" style="stroke:#181818;stroke-width:1.0;"/><path d="M2333,134.5 Q2333.2031,134 2333.4375,133.75 Q2333.6719,133.5 2333.9375,133.5 Q2334.4063,133.5 2334.7031,133.7813 Q2335,134.0625 2335,134.7188 L2335,136.2813 Q2335,136.9375 2334.7188,137.2188 Q2334.4375,137.5 2334,137.5 Q2333.6094,137.5 2333.3594,137.3281 Q2333.1094,137.1563 2333,136.7031 Q2332.9531,136.3906 2332.7813,136.2188 Q2332.4688,135.8906 2331.9063,135.7031 Q2331.3438,135.5 2330.7813,135.5 Q2330.0781,135.5 2329.4844,135.7813 Q2328.9063,136.0625 2328.4531,136.6875 Q2328,137.3125 2328,138.1719 L2328,139.0938 Q2328,140.125 2328.8438,140.8125 Q2329.6875,141.5 2331.1875,141.5 Q2332.0781,141.5 2332.7031,141.2969 Q2333.0625,141.1875 2333.4688,140.8281 Q2333.7344,140.625 2333.875,140.5625 Q2334.0156,140.5 2334.1875,140.5 Q2334.5156,140.5 2334.75,140.7656 Q2335,141.0156 2335,141.375 Q2335,141.7188 2334.6563,142.125 Q2334.1563,142.7188 2333.3594,143.0469 Q2332.3125,143.5 2331.0313,143.5 Q2329.5313,143.5 2328.3281,142.9063 Q2327.3594,142.4375 2326.6719,141.4219 Q2326,140.4063 2326,139.2031 L2326,138.1094 Q2326,136.8594 2326.5938,135.7656 Q2327.2031,134.6719 2328.25,134.0938 Q2329.3125,133.5 2330.5,133.5 Q2331.2188,133.5 2331.8438,133.75 Q2332.4688,134 2333,134.5 Z " fill="#000000"/><text fill="#000000" font-family="sans-serif" font-size="14" lengthAdjust="spacing" textLength="120" x="2345" y="143.7285">EntriesAndExitsList</text><line style="stroke:#181818;stroke-width:0.5;" x1="2317" x2="2467" y1="154" y2="154"/><line style="stroke:#181818;stroke-width:0.5;" x1="2317" x2="2467" y1="162" y2="162"/></g><!--MD5=[ae7cf994a8037bd5ae694a195d04bab2]
reverse link ApplicationUser to SnsUser--><g id="link_ApplicationUser_SnsUser"><path codeLine="19" d="M155.89,137.31 C169.46,132.27 183.76,129 198,129 C198,129 198,129 1095.5,129 C1213.4,129 1347.77,158.76 1427.87,179.75 " fill="none" id="ApplicationUser-backto-SnsUser" style="stroke:#181818;stroke-width:1.0;"/><polygon fill="none" points="158.4,143.85,137.27,145.45,152.79,131.02,158.4,143.85" style="stroke:#181818;stroke-width:1.0;"/></g><!--MD5=[ec2784183dc102bb556cb27e2698cd6b]
reverse link ApplicationUser to Nurse--><g id="link_ApplicationUser_Nurse"><path codeLine="20" d="M157.08,195.88 C280.58,203.04 505.58,216.1 590.68,221.04 " fill="none" id="ApplicationUser-backto-Nurse" style="stroke:#181818;stroke-width:1.0;"/><polygon fill="none" points="156.63,202.86,137.07,194.72,157.44,188.89,156.63,202.86" style="stroke:#181818;stroke-width:1.0;"/></g><!--MD5=[1a9788758f9842fd4535ce3f0d98786a]
link Receptionist to ApplicationUser--><g id="link_Receptionist_ApplicationUser"><path codeLine="21" d="M72,83.1 C72,90.96 72,98.81 72,106.66 " fill="none" id="Receptionist-to-ApplicationUser" style="stroke:#181818;stroke-width:1.0;"/><polygon fill="none" points="79,106.8,72,126.8,65,106.8,79,106.8" style="stroke:#181818;stroke-width:1.0;"/></g><!--MD5=[66b8b66cc0d48364d094f14c216c75e8]
reverse link ApplicationUser to Administrator--><g id="link_ApplicationUser_Administrator"><path codeLine="22" d="M72,275.3 C72,280.19 72,285.08 72,289.98 " fill="none" id="ApplicationUser-backto-Administrator" style="stroke:#181818;stroke-width:1.0;"/><polygon fill="none" points="65,275.18,72,255.18,79,275.18,65,275.18" style="stroke:#181818;stroke-width:1.0;"/></g><!--MD5=[80d9ae4771b252b6d25b56fdcc7914a1]
reverse link ApplicationUser to CenterCoordinator--><g id="link_ApplicationUser_CenterCoordinator"><path codeLine="23" d="M136.42,271.24 C136.61,271.49 136.81,271.75 137,272 C193.03,345.65 190.89,378.46 260,440 C267.39,446.58 275.98,452.6 284.64,457.89 " fill="none" id="ApplicationUser-backto-CenterCoordinator" style="stroke:#181818;stroke-width:1.0;"/><polygon fill="none" points="130.87,275.5,124.22,255.38,141.96,266.96,130.87,275.5" style="stroke:#181818;stroke-width:1.0;"/></g><!--MD5=[a69f9571a60c92edbe9996b131c0a798]
reverse link VaccinatonCenter to MassVaccinationCenter--><g id="link_VaccinatonCenter_MassVaccinationCenter"><path d="M2809.08,198.4 C2822.81,195.52 2836.66,192.61 2849.93,189.82 " fill="none" id="VaccinatonCenter-backto-MassVaccinationCenter" style="stroke:#181818;stroke-width:1.0;"/><polygon fill="none" points="2810.12,205.34,2789.11,202.6,2807.24,191.63,2810.12,205.34" style="stroke:#181818;stroke-width:1.0;"/></g><!--MD5=[035b9cfd2c46d00ea6ea4e2ba6f148e6]
reverse link VaccinatonCenter to HealthcareCenter--><g id="link_VaccinatonCenter_HealthcareCenter"><path d="M2808.94,247.1 C2829.35,251.3 2850.01,255.56 2868.69,259.41 " fill="none" id="VaccinatonCenter-backto-HealthcareCenter" style="stroke:#181818;stroke-width:1.0;"/><polygon fill="none" points="2807.28,253.9,2789.11,243.01,2810.11,240.19,2807.28,253.9" style="stroke:#181818;stroke-width:1.0;"/></g><!--MD5=[a5b46689cc8857272cca60e04b4c2b59]
link Vaccine to DosageScheme--><g id="link_Vaccine_DosageScheme"><path codeLine="89" d="M2153.55,309.08 C2188.38,316.11 2240.39,326.61 2286.87,335.99 " fill="none" id="Vaccine-DosageScheme" style="stroke:#181818;stroke-width:1.0;"/><polygon fill="#000000" points="2219.9012,313.1651,2211.6164,308.4946,2210.4534,314.2563,2219.9012,313.1651" style="stroke:#000000;stroke-width:1.0;"/><text fill="#000000" font-family="sans-serif" font-size="13" lengthAdjust="spacing" textLength="32" x="2224" y="317.4951">has a</text><text fill="#000000" font-family="sans-serif" font-size="13" lengthAdjust="spacing" textLength="7" x="2161.4855" y="325.4595">1</text><text fill="#000000" font-family="sans-serif" font-size="13" lengthAdjust="spacing" textLength="7" x="2271.8925" y="348.5242">1</text></g><!--MD5=[2de32f8dee38664ec07413075ed961c1]
link TypeOfVaccine to Vaccine--><g id="link_TypeOfVaccine_Vaccine"><path codeLine="90" d="M1851.13,301 C1916.36,301 2015.86,301 2071.06,301 " fill="none" id="TypeOfVaccine-Vaccine" style="stroke:#181818;stroke-width:1.0;"/><polygon fill="#000000" points="1936.5,292.1758,1945.5451,295.1147,1945.5451,289.2369,1936.5,292.1758" style="stroke:#000000;stroke-width:1.0;"/><text fill="#000000" font-family="sans-serif" font-size="13" lengthAdjust="spacing" textLength="24" x="1950.5" y="297.4951">is of</text><text fill="#000000" font-family="sans-serif" font-size="13" lengthAdjust="spacing" textLength="5" x="1858.8919" y="315.4332">*</text><text fill="#000000" font-family="sans-serif" font-size="13" lengthAdjust="spacing" textLength="7" x="2056.6168" y="315.8389">1</text></g><!--MD5=[1f0ff94e73a393eecd3e5d6f2d296bab]
link Vaccine to VaccinatonCenter--><g id="link_Vaccine_VaccinatonCenter"><path codeLine="91" d="M2153.78,294.73 C2188.93,289.31 2241.3,281.37 2287,275 C2391.28,260.46 2510.95,245.2 2592.61,235 " fill="none" id="Vaccine-VaccinatonCenter" style="stroke:#181818;stroke-width:1.0;"/><polygon fill="#000000" points="2341.4543,238.5014,2332.0955,236.8093,2332.8882,242.6334,2341.4543,238.5014" style="stroke:#000000;stroke-width:1.0;"/><text fill="#000000" font-family="sans-serif" font-size="13" lengthAdjust="spacing" textLength="106" x="2345.5" y="244.4951">is administered on</text><text fill="#000000" font-family="sans-serif" font-size="13" lengthAdjust="spacing" textLength="5" x="2161.5783" y="308.5535">*</text><text fill="#000000" font-family="sans-serif" font-size="13" lengthAdjust="spacing" textLength="7" x="2578.1275" y="249.986">1</text></g><!--MD5=[894f32e3bda40c7272620a3388816726]
link SnsUser to DigitalCertificate--><g id="link_SnsUser_DigitalCertificate"><path codeLine="96" d="M1546.37,165.95 C1563.38,153.88 1583.16,140.67 1602,130 C1646.14,105.01 1657.2,96.82 1706,83 C1822.43,50.02 1963.64,37.91 2044.98,33.49 " fill="none" id="SnsUser-DigitalCertificate" style="stroke:#181818;stroke-width:1.0;"/><polygon fill="#000000" points="1763.8324,40.892,1754.3359,40.374,1755.8451,46.0548,1763.8324,40.892" style="stroke:#000000;stroke-width:1.0;"/><text fill="#000000" font-family="sans-serif" font-size="13" lengthAdjust="spacing" textLength="50" x="1768" y="47.4951">requests</text><text fill="#000000" font-family="sans-serif" font-size="13" lengthAdjust="spacing" textLength="7" x="1547.81" y="155.1888">1</text><text fill="#000000" font-family="sans-serif" font-size="13" lengthAdjust="spacing" textLength="7" x="2030.2122" y="48.1517">1</text></g><!--MD5=[cc5e2fb97d9f5c96dda5e8bbfd01385e]
link SnsUser to VaccineAppointment--><g id="link_SnsUser_VaccineAppointment"><path codeLine="100" d="M1572.06,181.27 C1612.71,170.55 1663.81,157.08 1705.82,146 " fill="none" id="SnsUser-VaccineAppointment" style="stroke:#181818;stroke-width:1.0;"/><polygon fill="#000000" points="1611.8347,145.9009,1602.3393,145.3653,1603.8379,151.0489,1611.8347,145.9009" style="stroke:#000000;stroke-width:1.0;"/><text fill="#000000" font-family="sans-serif" font-size="13" lengthAdjust="spacing" textLength="59" x="1616" y="152.4951">schedules</text><text fill="#000000" font-family="sans-serif" font-size="13" lengthAdjust="spacing" textLength="7" x="1579.8521" y="193.6703">1</text><text fill="#000000" font-family="sans-serif" font-size="13" lengthAdjust="spacing" textLength="5" x="1692.8919" y="162.2759">*</text></g><!--MD5=[ead49c6eb232874c9bfdd14aaf3032df]
link Receptionist to UsersWaitingList--><g id="link_Receptionist_UsersWaitingList"><path codeLine="107" d="M127.21,47.75 C149.09,44.12 174.65,41 198,41 C198,41 198,41 626.5,41 C738,41 845.33,135.76 890.77,181.65 " fill="none" id="Receptionist-UsersWaitingList" style="stroke:#181818;stroke-width:1.0;"/><polygon fill="#000000" points="311.4248,33.0394,303.0233,28.5823,302.0081,34.3718,311.4248,33.0394" style="stroke:#000000;stroke-width:1.0;"/><text fill="#000000" font-family="sans-serif" font-size="13" lengthAdjust="spacing" textLength="52" x="315.5" y="37.4951">atualizes</text><text fill="#000000" font-family="sans-serif" font-size="13" lengthAdjust="spacing" textLength="5" x="134.9648" y="60.832">*</text><text fill="#000000" font-family="sans-serif" font-size="13" lengthAdjust="spacing" textLength="7" x="877.1327" y="171.3027">1</text></g><!--MD5=[a130e805f12c6caaf0787465d0f0d87e]
link Nurse to UsersWaitingList--><g id="link_Nurse_UsersWaitingList"><path codeLine="108" d="M660.27,221 C705.68,218.31 787.47,213.47 845.81,210.01 " fill="none" id="Nurse-UsersWaitingList" style="stroke:#181818;stroke-width:1.0;"/><polygon fill="#000000" points="768.9913,202.8801,759.7882,200.4812,760.1358,206.3487,768.9913,202.8801" style="stroke:#000000;stroke-width:1.0;"/><text fill="#000000" font-family="sans-serif" font-size="13" lengthAdjust="spacing" textLength="42" x="773" y="208.4951">checks</text><text fill="#000000" font-family="sans-serif" font-size="13" lengthAdjust="spacing" textLength="5" x="667.9569" y="235.7689">*</text><text fill="#000000" font-family="sans-serif" font-size="13" lengthAdjust="spacing" textLength="7" x="830.9142" y="224.8379">1</text></g><!--MD5=[49bdc4f43c0486f86f6744f0a65b0571]
link Nurse to Vaccine--><g id="link_Nurse_Vaccine"><path codeLine="109" d="M649.23,247.35 C694.67,293.24 802,388 913.5,388 C913.5,388 913.5,388 1787.5,388 C1892.77,388 2010.91,344.63 2071.26,319.13 " fill="none" id="Nurse-Vaccine" style="stroke:#181818;stroke-width:1.0;"/><polygon fill="#000000" points="1255.4936,379.4278,1246.6082,376.0367,1246.3119,381.907,1255.4936,379.4278" style="stroke:#000000;stroke-width:1.0;"/><text fill="#000000" font-family="sans-serif" font-size="13" lengthAdjust="spacing" textLength="67" x="1259.5" y="384.4951">administers</text><text fill="#000000" font-family="sans-serif" font-size="13" lengthAdjust="spacing" textLength="7" x="646.9082" y="268.3667">1</text><text fill="#000000" font-family="sans-serif" font-size="13" lengthAdjust="spacing" textLength="5" x="2058.4688" y="337.2997">*</text></g><!--MD5=[48c1753546dc4329f6549ad52774066c]
link SnsUser to UserInfo--><g id="link_SnsUser_UserInfo"><path codeLine="110" d="M1572.06,202 C1626.37,203.53 1699.34,205.58 1744.35,206.84 " fill="none" id="SnsUser-UserInfo" style="stroke:#181818;stroke-width:1.0;"/><polygon fill="#000000" points="1630.998,195.3162,1622.039,192.1244,1621.874,198,1630.998,195.3162" style="stroke:#000000;stroke-width:1.0;"/><text fill="#000000" font-family="sans-serif" font-size="13" lengthAdjust="spacing" textLength="21" x="1635" y="200.4951">has</text><text fill="#000000" font-family="sans-serif" font-size="13" lengthAdjust="spacing" textLength="7" x="1579.8521" y="216.538">1</text><text fill="#000000" font-family="sans-serif" font-size="13" lengthAdjust="spacing" textLength="5" x="1731.3967" y="221.5848">*</text></g><!--MD5=[9b0c14efdfd619ef9690e32cbb0c164f]
link VaccineAppointment to Vaccine--><g id="link_VaccineAppointment_Vaccine"><path codeLine="111" d="M1834.7,149.06 C1845.35,154.57 1856.59,160.44 1867,166 C1939.5,204.7 2023.18,251.34 2071.45,278.43 " fill="none" id="VaccineAppointment-Vaccine" style="stroke:#181818;stroke-width:1.0;"/><polygon fill="#000000" points="1906.3877,177.5734,1899.8596,170.6571,1897.041,175.8151,1906.3877,177.5734" style="stroke:#000000;stroke-width:1.0;"/><text fill="#000000" font-family="sans-serif" font-size="13" lengthAdjust="spacing" textLength="103" x="1911" y="180.4951">is associated to a</text><text fill="#000000" font-family="sans-serif" font-size="13" lengthAdjust="spacing" textLength="7" x="1838.5956" y="170.4126">1</text><text fill="#000000" font-family="sans-serif" font-size="13" lengthAdjust="spacing" textLength="7" x="2056.5145" y="289.35">1</text></g><!--MD5=[cb1b4381e3f58fc8df8a798af52e3711]
link UsersWaitingList to SnsUser--><g id="link_UsersWaitingList_SnsUser"><path codeLine="112" d="M983,205.31 C1094,204.16 1314.04,201.9 1427.56,200.73 " fill="none" id="UsersWaitingList-SnsUser" style="stroke:#181818;stroke-width:1.0;"/><polygon fill="#000000" points="1086.4997,195.1243,1077.4249,192.2787,1077.4854,198.1562,1086.4997,195.1243" style="stroke:#000000;stroke-width:1.0;"/><text fill="#000000" font-family="sans-serif" font-size="13" lengthAdjust="spacing" textLength="21" x="1090.5" y="200.4951">has</text><text fill="#000000" font-family="sans-serif" font-size="13" lengthAdjust="spacing" textLength="7" x="990.875" y="219.6239">1</text><text fill="#000000" font-family="sans-serif" font-size="13" lengthAdjust="spacing" textLength="5" x="1414.8318" y="215.1371">*</text></g><!--MD5=[4641514d8187ec62ad5423ad95f31e55]
link GivenVaccine to apoint593--><g id="link_GivenVaccine_apoint593"><path d="M335,301.27 C335,312.72 335,324.17 335,335.62 " fill="none" id="GivenVaccine-apoint593" style="stroke:#181818;stroke-width:1.0;"/><text fill="#000000" font-family="sans-serif" font-size="13" lengthAdjust="spacing" textLength="5" x="329.3906" y="322.6738">*</text></g><!--MD5=[2a83ccadf78d80b6dba2c87acca2e8cd]
link apoint593 to AdverseReactions--><g id="link_apoint593_AdverseReactions"><path d="M335,340.01 C335,351.57 335,363.13 335,374.7 " fill="none" id="apoint593-AdverseReactions" style="stroke:#181818;stroke-width:1.0;"/><text fill="#000000" font-family="sans-serif" font-size="13" lengthAdjust="spacing" textLength="5" x="329.3594" y="363.9633">*</text></g><!--MD5=[5e33a0959ceb210bbb9becc16b63d899]
link apoint593 to Nurse--><g id="link_apoint593_Nurse"><path d="M337.06,337.78 C343.77,336.36 380.9,328.31 410,318 C475.65,294.74 549.3,260.17 590.97,239.77 " fill="none" id="apoint593-Nurse" style="stroke:#181818;stroke-width:1.0;"/><text fill="#000000" font-family="sans-serif" font-size="13" lengthAdjust="spacing" textLength="50" x="441" y="284.4951">registers</text></g><!--MD5=[4b713ec73cfc330ec36738f439ccab33]
link CenterCoordinator to ManageVaccinationProcess--><g id="link_CenterCoordinator_ManageVaccinationProcess"><path codeLine="125" d="M400.43,506.05 C413.42,510.4 427.06,514.62 440,518 C466.29,524.86 495.06,530.75 521.89,535.58 " fill="none" id="CenterCoordinator-ManageVaccinationProcess" style="stroke:#181818;stroke-width:1.0;"/><polygon fill="#000000" points="450.3585,510.357,442.2637,505.3644,440.8751,511.0759,450.3585,510.357" style="stroke:#000000;stroke-width:1.0;"/><text fill="#000000" font-family="sans-serif" font-size="13" lengthAdjust="spacing" textLength="36" x="454.5" y="514.4951">has to</text><text fill="#000000" font-family="sans-serif" font-size="13" lengthAdjust="spacing" textLength="7" x="408.5254" y="527.4002">1</text><text fill="#000000" font-family="sans-serif" font-size="13" lengthAdjust="spacing" textLength="7" x="507.0241" y="548.5431">1</text></g><!--MD5=[87f7b597003eab4c55f1d6168582c2a5]
link CenterCoordinator to VaccinatonCenter--><g id="link_CenterCoordinator_VaccinatonCenter"><path codeLine="126" d="M410.1,478.82 C468.37,476.58 551.6,474 624.5,474 C624.5,474 624.5,474 2393,474 C2472.32,474 2541.4,421.12 2592.92,363.91 " fill="none" id="CenterCoordinator-VaccinatonCenter" style="stroke:#181818;stroke-width:1.0;"/><polygon fill="#000000" points="1443.0069,465.4386,1452.194,467.898,1451.885,462.0283,1443.0069,465.4386" style="stroke:#000000;stroke-width:1.0;"/><text fill="#000000" font-family="sans-serif" font-size="13" lengthAdjust="spacing" textLength="99" x="1457" y="470.4951">is coordinated by</text><text fill="#000000" font-family="sans-serif" font-size="13" lengthAdjust="spacing" textLength="7" x="418.2056" y="492.8303">1</text><text fill="#000000" font-family="sans-serif" font-size="13" lengthAdjust="spacing" textLength="7" x="2578.1428" y="388.8291">1</text></g><!--MD5=[2075be8de63a33f6fa84805c185bc4f8]
link Application to SnsUser--><g id="link_Application_SnsUser"><path codeLine="131" d="M1145.17,309.55 C1207.04,322.61 1314.74,336.73 1398,302 C1430.89,288.28 1458.55,258.06 1476.56,234.06 " fill="none" id="Application-SnsUser" style="stroke:#181818;stroke-width:1.0;"/><polygon fill="#000000" points="1184.8751,292.0652,1175.4032,291.2087,1176.7087,296.9397,1184.8751,292.0652" style="stroke:#000000;stroke-width:1.0;"/><text fill="#000000" font-family="sans-serif" font-size="13" lengthAdjust="spacing" textLength="208" x="1189" y="298.4951">requests authorization to send SMS</text><text fill="#000000" font-family="sans-serif" font-size="13" lengthAdjust="spacing" textLength="7" x="1153.1262" y="326.0892">1</text><text fill="#000000" font-family="sans-serif" font-size="13" lengthAdjust="spacing" textLength="5" x="1466.6152" y="255.5944">*</text></g><!--MD5=[2075be8de63a33f6fa84805c185bc4f8]
link Application to SnsUser--><g id="link_Application_SnsUser"><path codeLine="132" d="M1145.04,286 C1154.95,283.92 1165.29,281.82 1175,280 C1273.67,261.5 1301.67,272.27 1398,244 C1407.82,241.12 1417.94,237.52 1427.82,233.63 " fill="none" id="Application-SnsUser-1" style="stroke:#181818;stroke-width:1.0;"/><polygon fill="#000000" points="1273.4164,234.2653,1263.9874,233.0226,1265.0577,238.8022,1273.4164,234.2653" style="stroke:#000000;stroke-width:1.0;"/><text fill="#000000" font-family="sans-serif" font-size="13" lengthAdjust="spacing" textLength="31" x="1277.5" y="240.4951">notify</text><text fill="#000000" font-family="sans-serif" font-size="13" lengthAdjust="spacing" textLength="7" x="1152.9771" y="299.0803">1</text><text fill="#000000" font-family="sans-serif" font-size="13" lengthAdjust="spacing" textLength="5" x="1415.1186" y="251.4299">*</text></g><!--MD5=[17f340aceeb8c49bad92df90fb8d260d]
link EntriesAndExitsList to VaccinatonCenter--><g id="link_EntriesAndExitsList_VaccinatonCenter"><path codeLine="133" d="M2468.33,165.53 C2506.14,175.33 2552.38,187.32 2592.83,197.81 " fill="none" id="EntriesAndExitsList-VaccinatonCenter" style="stroke:#181818;stroke-width:1.0;"/><polygon fill="#000000" points="2527.16,172.9209,2535.178,178.0359,2536.6532,172.3462,2527.16,172.9209" style="stroke:#000000;stroke-width:1.0;"/><text fill="#000000" font-family="sans-serif" font-size="13" lengthAdjust="spacing" textLength="21" x="2541" y="179.4951">has</text><text fill="#000000" font-family="sans-serif" font-size="13" lengthAdjust="spacing" textLength="5" x="2476.0898" y="181.7524">*</text><text fill="#000000" font-family="sans-serif" font-size="13" lengthAdjust="spacing" textLength="7" x="2578.0459" y="210.012">1</text></g><!--MD5=[a7ad6b42891c82d5cf4f57b5adc4f80e]
@startuml
'https://plantuml.com/class-diagram

left to right direction

class ApplicationUser {
==-name
==-emailAddress
==-role
==-password
}


class Administrator

class SnsUser {
==-SnsUserNumber
}

ApplicationUser <|- - - SnsUser
ApplicationUser <|- - - - Nurse
ApplicationUser <|-left- Receptionist
ApplicationUser <|- Administrator
ApplicationUser <|- - - CenterCoordinator

'Receptionist "1" - "*" SnsUser : creates new >


class Receptionist

class Nurse

class CenterCoordinator

'Administrator "*" - - "*" SnsUser : configures and manages  >
'Administrator "*" - "*" Nurse : configures and manages >
'Administrator "*" -l- "*" Receptionist : configures and manages >
'Administrator "*" - - "*" VaccinatonCenter : configures and manages >
'Administrator "*" -up- - "*" CenterCoordinator : configures and manages >
'Administrator "*" -up- "*" TypeOfVaccine : configures and manages >
'Administrator "*" - - "*" Vaccine : specifies new >
'Administrator "1" - "*" DosageScheme : specifies  >
'Administrator "*" -left "*" Employee : configures and manages >

'Employee <-left Receptionist
'Employee <- Nurse

class VaccinatonCenter {
==-intID
==-strName
==-strPhoneNumber
==-strEmail
==-strFax
==-strWebsite
==-strOpeningHour
==-strClosingHour
==-strSlotDuration
==-strVaccinesPerSlot
==-strRoad
==-strZipCode
==-strLocal
==-strCenterCoordinatorID
 }

class MassVaccinationCenter extends VaccinatonCenter {

}

class HealthcareCenter extends VaccinatonCenter {
==-ARE
==-AGES
}

class Vaccine {
==-brand
}

class DosageScheme {
==-numberOfDoses
==-dosage
== -age
==-intervalBetweenVaccines
}

class TypeOfVaccine {
==-virus
}


Vaccine "1" - - "1" DosageScheme : has a >
TypeOfVaccine "*" - - "1" Vaccine :is of <
Vaccine "*" - - - "1" VaccinatonCenter : is administered on >

class DigitalCertificate

'Nurse "1" -left "*" DigitalCertificate : delivers >
SnsUser "1" - - - "1" DigitalCertificate : requests >

class VaccineAppointment

SnsUser "1" - - "*" VaccineAppointment : schedules >
'Receptionist "1" - "*" VaccineAppointment : schedules and confirms >


class UsersWaitingList
class UserInfo

Receptionist "*" - "1" UsersWaitingList : atualizes >
Nurse "*" - - "1" UsersWaitingList : checks >
Nurse "1" - "*" Vaccine : administers >
SnsUser "1" - -  "*" UserInfo : has >
VaccineAppointment "1" - - "1" Vaccine : is associated to a >
UsersWaitingList "1" - - - "*" SnsUser: has >



class GivenVaccine
class AdverseReactions

GivenVaccine "*" - "*" AdverseReactions
(GivenVaccine, AdverseReactions) - Nurse : registers


class ManageVaccinationProcess

CenterCoordinator "1" - - "1" ManageVaccinationProcess : has to >
CenterCoordinator "1" - - "1" VaccinatonCenter : is coordinated by <

class Application
class EntriesAndExitsList

Application "1" - - "*" SnsUser : requests authorization to send SMS >
Application "1" - - "*" SnsUser : notify >
VaccinatonCenter "1" -up- "*" EntriesAndExitsList : has >

@enduml

@startuml

left to right direction

class ApplicationUser {
==-name
==-emailAddress
==-role
==-password
}


class Administrator

class SnsUser {
==-SnsUserNumber
}

ApplicationUser <|- - - SnsUser
ApplicationUser <|- - - - Nurse
ApplicationUser <|-left- Receptionist
ApplicationUser <|- Administrator
ApplicationUser <|- - - CenterCoordinator



class Receptionist

class Nurse

class CenterCoordinator



class VaccinatonCenter {
==-intID
==-strName
==-strPhoneNumber
==-strEmail
==-strFax
==-strWebsite
==-strOpeningHour
==-strClosingHour
==-strSlotDuration
==-strVaccinesPerSlot
==-strRoad
==-strZipCode
==-strLocal
==-strCenterCoordinatorID
 }

class MassVaccinationCenter extends VaccinatonCenter {

}

class HealthcareCenter extends VaccinatonCenter {
==-ARE
==-AGES
}

class Vaccine {
==-brand
}

class DosageScheme {
==-numberOfDoses
==-dosage
== -age
==-intervalBetweenVaccines
}

class TypeOfVaccine {
==-virus
}


Vaccine "1" - - "1" DosageScheme : has a >
TypeOfVaccine "*" - - "1" Vaccine :is of <
Vaccine "*" - - - "1" VaccinatonCenter : is administered on >

class DigitalCertificate

SnsUser "1" - - - "1" DigitalCertificate : requests >

class VaccineAppointment

SnsUser "1" - - "*" VaccineAppointment : schedules >


class UsersWaitingList
class UserInfo

Receptionist "*" - "1" UsersWaitingList : atualizes >
Nurse "*" - - "1" UsersWaitingList : checks >
Nurse "1" - "*" Vaccine : administers >
SnsUser "1" - -  "*" UserInfo : has >
VaccineAppointment "1" - - "1" Vaccine : is associated to a >
UsersWaitingList "1" - - - "*" SnsUser: has >



class GivenVaccine
class AdverseReactions

GivenVaccine "*" - "*" AdverseReactions
(GivenVaccine, AdverseReactions) - Nurse : registers


class ManageVaccinationProcess

CenterCoordinator "1" - - "1" ManageVaccinationProcess : has to >
CenterCoordinator "1" - - "1" VaccinatonCenter : is coordinated by <

class Application
class EntriesAndExitsList

Application "1" - - "*" SnsUser : requests authorization to send SMS >
Application "1" - - "*" SnsUser : notify >
VaccinatonCenter "1" -up- "*" EntriesAndExitsList : has >

@enduml

PlantUML version 1.2022.4(Sat Apr 09 14:29:17 BST 2022)
(GPL source distribution)
Java Runtime: OpenJDK Runtime Environment
JVM: OpenJDK 64-Bit Server VM
Default Encoding: Cp1252
Language: pt
Country: PT
--></g></svg>